<svg width="232" height="50" viewBox="0 0 232 50" fill="none" xmlns="http://www.w3.org/2000/svg">
<path d="M10.4954 25L5.24542 30.6467L0 25L5.24542 19.3533L10.4954 25ZM23.2232 11.2886L32.2121 20.9701L37.4575 15.3234L23.2232 0L8.9889 15.3234L14.2343 20.9701L23.2232 11.2886ZM41.2056 19.3533L35.9601 25L41.2056 30.6467L46.4464 25L41.2056 19.3533ZM23.2232 38.7114L14.2343 29.0348L8.9889 34.6766L23.2232 50L37.4575 34.6766L32.2121 29.0348L23.2232 38.7114ZM23.2232 30.6467L28.4686 25L23.2232 19.3533L17.9778 25L23.2232 30.6467ZM78.5814 31.1889V31.1108C78.5814 27.4277 76.7664 25.5862 73.8125 24.3748C75.6275 23.2757 77.1612 21.5514 77.1612 18.4594V18.3812C77.1612 14.0729 73.9577 11.2886 68.7531 11.2886H56.9373V38.7114H69.0526C74.8017 38.7114 78.5905 36.2056 78.5905 31.1889H78.5814ZM71.5936 19.4656C71.5936 21.5025 70.0281 22.3671 67.5552 22.3671H62.396V16.5787H67.9273C70.2913 16.5787 71.6027 17.5948 71.6027 19.3972L71.5936 19.4656ZM73.0138 30.4367C73.0138 32.4736 71.521 33.4115 69.0435 33.4115H62.396V27.3886H68.8711C71.7479 27.3886 73.0229 28.5268 73.0229 30.3683L73.0138 30.4367ZM90.3564 38.7114V11.2886H84.7344V38.7114H90.3564ZM120.481 38.7114V11.2886H114.932V28.1751L102.998 11.2886H97.8298V38.7114H103.361V21.2778L115.694 38.7114H120.481ZM151.523 38.7114L140.587 11.0932H135.419L124.506 38.7114H130.219L132.556 32.5615H143.328L145.656 38.7114H151.523ZM141.336 27.2323H134.548L137.933 18.3421L141.336 27.2323ZM178.235 38.7114V11.2886H172.686V28.1751L160.748 11.2886H155.584V38.7114H161.111V21.2778L173.448 38.7114H178.235ZM207.162 34.2859L203.6 30.4074C201.599 32.3613 199.816 33.6166 196.903 33.6166C192.538 33.6166 189.516 29.7089 189.516 25V24.9218C189.516 20.2227 192.61 16.3834 196.903 16.3834C199.448 16.3834 201.44 17.5557 203.419 19.4754L206.972 15.0498C204.608 12.544 201.735 10.8197 196.93 10.8197C189.107 10.8197 183.649 17.204 183.649 24.9853V25.0635C183.649 32.9377 189.216 39.1657 196.712 39.1657C201.617 39.1803 204.526 37.2997 207.144 34.2859H207.162ZM231.075 38.7114V33.3382H217.227V27.5694H229.237V22.1962H217.227V16.6569H230.875V11.2837H211.659V38.7065L231.075 38.7114Z" fill="white"/>
</svg>
