<svg width="351" height="680" viewBox="0 0 351 680" fill="none" xmlns="http://www.w3.org/2000/svg">
<path d="M30 159C30 238.529 94.471 303 174 303C253.529 303 318 238.529 318 159C318 79.471 253.529 15 174 15C94.471 15 30 79.471 30 159ZM253.67 159C253.67 203.001 218.001 238.67 174 238.67C129.999 238.67 94.3295 203.001 94.3295 159C94.3295 114.999 129.999 79.3295 174 79.3295C218.001 79.3295 253.67 114.999 253.67 159Z" fill="#CE6828"/>
<path d="M30 159C30 194.337 42.9932 228.44 66.5065 254.818C90.0197 281.197 122.411 298.008 157.516 302.053C192.62 306.099 227.987 297.095 256.883 276.756C285.78 256.416 306.189 226.162 314.226 191.752C322.263 157.341 317.367 121.176 300.469 90.1414C283.572 59.1066 255.853 35.3683 222.588 23.445C189.324 11.5216 152.837 12.2458 120.071 25.4796C87.3063 38.7133 60.5509 63.5327 44.8981 95.2136L102.974 123.908C111.585 106.478 126.305 92.8237 144.331 85.5431C162.357 78.2625 182.431 77.8641 200.731 84.4238C219.032 90.9834 234.281 104.043 243.578 121.117C252.874 138.191 255.568 158.087 251.146 177.018C246.724 195.95 235.496 212.594 219.599 223.784C203.701 234.973 184.244 239.927 164.931 237.701C145.618 235.476 127.798 226.227 114.862 211.715C101.926 197.203 94.7777 178.441 94.7777 159H30Z" fill="#FFD764"/>
<path d="M30 159C30 190.141 40.095 220.443 58.7712 245.362C77.4474 270.281 103.698 288.474 133.588 297.213C163.477 305.952 195.394 304.767 224.553 293.835C253.712 282.902 278.541 262.812 295.317 236.576C312.094 210.341 319.913 179.374 317.603 148.318C315.293 117.263 302.978 87.7939 282.505 64.329C262.032 40.8641 234.504 24.6682 204.049 18.17C173.593 11.6718 141.852 15.2215 113.584 28.2867L140.885 87.3524C156.379 80.191 173.777 78.2453 190.47 81.8072C207.164 85.369 222.253 94.2464 233.475 107.108C244.697 119.97 251.447 136.123 252.713 153.145C253.979 170.167 249.693 187.141 240.497 201.522C231.302 215.902 217.692 226.914 201.71 232.907C185.727 238.899 168.232 239.549 151.849 234.758C135.466 229.968 121.077 219.996 110.84 206.337C100.603 192.678 95.0696 176.069 95.0696 159H30Z" fill="#9E2224"/>
<path d="M30 159C30 185.512 37.3192 211.51 51.1511 234.128C64.983 256.745 84.7905 275.106 108.391 287.185C131.991 299.265 158.468 304.594 184.904 302.587C211.34 300.579 236.709 291.312 258.215 275.807C279.72 260.302 296.528 239.161 306.785 214.714C317.043 190.267 320.352 163.462 316.349 137.254C312.345 111.046 301.184 86.4518 284.095 66.1821C267.006 45.9124 244.653 30.7538 219.499 22.377L198.987 83.9691C212.801 88.5695 225.077 96.8943 234.462 108.026C243.847 119.158 249.976 132.664 252.175 147.057C254.374 161.45 252.557 176.171 246.923 189.597C241.29 203.023 232.06 214.633 220.249 223.148C208.439 231.663 194.507 236.753 179.988 237.855C165.47 238.958 150.93 236.031 137.969 229.397C125.008 222.763 114.13 212.68 106.534 200.259C98.9374 187.837 94.9178 173.56 94.9178 159H30Z" fill="#D7A933"/>
<path d="M30 159C30 180.298 34.7245 201.332 43.8331 220.584C52.9417 239.836 66.2076 256.829 82.6748 270.336C99.142 283.844 118.401 293.53 139.063 298.697C159.725 303.865 181.276 304.385 202.163 300.219C223.05 296.054 242.753 287.307 259.852 274.609C276.951 261.911 291.021 245.578 301.047 226.787C311.073 207.996 316.806 187.215 317.833 165.942C318.859 144.668 315.154 123.431 306.984 103.762L247.313 128.548C251.817 139.391 253.86 151.099 253.294 162.827C252.728 174.555 249.567 186.011 244.04 196.37C238.513 206.73 230.756 215.734 221.329 222.734C211.903 229.735 201.041 234.557 189.526 236.853C178.011 239.149 166.13 238.863 154.739 236.014C143.348 233.165 132.731 227.825 123.653 220.379C114.575 212.932 107.262 203.564 102.24 192.951C97.2186 182.337 94.614 170.742 94.614 159H30Z" fill="#347B5D"/>
<path d="M30 159C30 189.035 39.3914 218.318 56.8596 242.75C74.3279 267.183 98.9986 285.542 127.419 295.258C155.839 304.973 186.585 305.56 215.355 296.934C244.124 288.308 269.477 270.903 287.863 247.154L236.8 207.62C226.659 220.719 212.676 230.318 196.809 235.076C180.941 239.833 163.983 239.51 148.309 234.151C132.634 228.793 119.027 218.667 109.393 205.191C99.7584 191.716 94.5787 175.565 94.5787 159H30Z" fill="#92804C"/>
<path d="M30 159C30 189.859 39.9134 219.902 58.2791 244.701C76.6448 269.5 102.491 287.743 132.009 296.742L150.899 234.779C134.66 229.828 120.44 219.792 110.336 206.148C100.232 192.505 94.7784 175.977 94.7784 159H30Z" fill="#88451B"/>
<ellipse rx="15" ry="15.5" transform="matrix(-1 0 0 1 66 341.5)" fill="#88451B"/>
<ellipse rx="15" ry="15.5" transform="matrix(-1 0 0 1 66 391.5)" fill="#92804C"/>
<ellipse rx="15" ry="16" transform="matrix(-1 0 0 1 66 441)" fill="#347B5D"/>
<circle r="15" transform="matrix(-1 0 0 1 66 491)" fill="#D7A933"/>
<ellipse rx="15" ry="16" transform="matrix(-1 0 0 1 66 541)" fill="#9E2224"/>
<ellipse rx="15" ry="15.5" transform="matrix(-1 0 0 1 66 590.5)" fill="#FFD764"/>
<ellipse rx="15" ry="15.5" transform="matrix(-1 0 0 1 66 640.5)" fill="#CE6828"/>
<path d="M96.722 342.83C97.618 342.055 98.3227 341.421 98.836 340.926C99.3587 340.422 99.7927 339.899 100.138 339.358C100.483 338.817 100.656 338.275 100.656 337.734C100.656 337.174 100.521 336.735 100.25 336.418C99.9887 336.101 99.5733 335.942 99.004 335.942C98.4533 335.942 98.024 336.119 97.716 336.474C97.4173 336.819 97.2587 337.286 97.24 337.874H95.7C95.728 336.81 96.0453 335.998 96.652 335.438C97.268 334.869 98.0473 334.584 98.99 334.584C100.007 334.584 100.801 334.864 101.37 335.424C101.949 335.984 102.238 336.731 102.238 337.664C102.238 338.336 102.065 338.985 101.72 339.61C101.384 340.226 100.978 340.781 100.502 341.276C100.035 341.761 99.438 342.326 98.71 342.97L98.08 343.53H102.518V344.86H95.714V343.698L96.722 342.83ZM103.92 339.764C103.92 338.149 104.191 336.889 104.732 335.984C105.283 335.069 106.225 334.612 107.56 334.612C108.895 334.612 109.833 335.069 110.374 335.984C110.925 336.889 111.2 338.149 111.2 339.764C111.2 341.397 110.925 342.676 110.374 343.6C109.833 344.515 108.895 344.972 107.56 344.972C106.225 344.972 105.283 344.515 104.732 343.6C104.191 342.676 103.92 341.397 103.92 339.764ZM109.632 339.764C109.632 339.008 109.581 338.369 109.478 337.846C109.385 337.323 109.189 336.899 108.89 336.572C108.591 336.236 108.148 336.068 107.56 336.068C106.972 336.068 106.529 336.236 106.23 336.572C105.931 336.899 105.731 337.323 105.628 337.846C105.535 338.369 105.488 339.008 105.488 339.764C105.488 340.548 105.535 341.206 105.628 341.738C105.721 342.27 105.917 342.699 106.216 343.026C106.524 343.353 106.972 343.516 107.56 343.516C108.148 343.516 108.591 343.353 108.89 343.026C109.198 342.699 109.399 342.27 109.492 341.738C109.585 341.206 109.632 340.548 109.632 339.764ZM112.637 337.258C112.637 336.577 112.833 336.045 113.225 335.662C113.626 335.27 114.139 335.074 114.765 335.074C115.39 335.074 115.899 335.27 116.291 335.662C116.692 336.045 116.893 336.577 116.893 337.258C116.893 337.939 116.692 338.476 116.291 338.868C115.899 339.26 115.39 339.456 114.765 339.456C114.139 339.456 113.626 339.26 113.225 338.868C112.833 338.476 112.637 337.939 112.637 337.258ZM121.177 335.256L115.591 345H114.023L119.609 335.256H121.177ZM114.765 336.04C114.177 336.04 113.883 336.446 113.883 337.258C113.883 338.079 114.177 338.49 114.765 338.49C115.045 338.49 115.259 338.392 115.409 338.196C115.567 337.991 115.647 337.678 115.647 337.258C115.647 336.446 115.353 336.04 114.765 336.04ZM118.335 342.984C118.335 342.303 118.531 341.771 118.923 341.388C119.324 340.996 119.837 340.8 120.463 340.8C121.079 340.8 121.583 340.996 121.975 341.388C122.376 341.771 122.577 342.303 122.577 342.984C122.577 343.665 122.376 344.202 121.975 344.594C121.583 344.986 121.079 345.182 120.463 345.182C119.837 345.182 119.324 344.986 118.923 344.594C118.531 344.202 118.335 343.665 118.335 342.984ZM120.449 341.766C119.861 341.766 119.567 342.172 119.567 342.984C119.567 343.796 119.861 344.202 120.449 344.202C121.037 344.202 121.331 343.796 121.331 342.984C121.331 342.172 121.037 341.766 120.449 341.766ZM129.447 343.712H132.737V345H127.851V335.27H129.447V343.712ZM135.667 335.27V345H134.071V335.27H135.667ZM145.295 346.764L143.587 344.916C143.167 345.037 142.705 345.098 142.201 345.098C141.296 345.098 140.46 344.888 139.695 344.468C138.939 344.039 138.337 343.446 137.889 342.69C137.45 341.925 137.231 341.066 137.231 340.114C137.231 339.162 137.45 338.308 137.889 337.552C138.337 336.796 138.939 336.208 139.695 335.788C140.46 335.359 141.296 335.144 142.201 335.144C143.116 335.144 143.951 335.359 144.707 335.788C145.472 336.208 146.074 336.796 146.513 337.552C146.952 338.308 147.171 339.162 147.171 340.114C147.171 341.01 146.975 341.822 146.583 342.55C146.2 343.269 145.668 343.847 144.987 344.286L147.325 346.764H145.295ZM138.869 340.114C138.869 340.833 139.009 341.467 139.289 342.018C139.578 342.559 139.975 342.979 140.479 343.278C140.983 343.567 141.557 343.712 142.201 343.712C142.845 343.712 143.419 343.567 143.923 343.278C144.427 342.979 144.819 342.559 145.099 342.018C145.388 341.467 145.533 340.833 145.533 340.114C145.533 339.395 145.388 338.765 145.099 338.224C144.819 337.683 144.427 337.267 143.923 336.978C143.419 336.689 142.845 336.544 142.201 336.544C141.557 336.544 140.983 336.689 140.479 336.978C139.975 337.267 139.578 337.683 139.289 338.224C139.009 338.765 138.869 339.395 138.869 340.114ZM150.364 335.27V341.472C150.364 342.209 150.556 342.765 150.938 343.138C151.33 343.511 151.872 343.698 152.562 343.698C153.262 343.698 153.804 343.511 154.186 343.138C154.578 342.765 154.774 342.209 154.774 341.472V335.27H156.37V341.444C156.37 342.237 156.198 342.909 155.852 343.46C155.507 344.011 155.045 344.421 154.466 344.692C153.888 344.963 153.248 345.098 152.548 345.098C151.848 345.098 151.209 344.963 150.63 344.692C150.061 344.421 149.608 344.011 149.272 343.46C148.936 342.909 148.768 342.237 148.768 341.444V335.27H150.364ZM160.044 335.27V345H158.448V335.27H160.044ZM165.318 335.27C166.354 335.27 167.259 335.471 168.034 335.872C168.818 336.264 169.42 336.833 169.84 337.58C170.269 338.317 170.484 339.181 170.484 340.17C170.484 341.159 170.269 342.018 169.84 342.746C169.42 343.474 168.818 344.034 168.034 344.426C167.259 344.809 166.354 345 165.318 345H162.14V335.27H165.318ZM165.318 343.698C166.457 343.698 167.329 343.39 167.936 342.774C168.543 342.158 168.846 341.29 168.846 340.17C168.846 339.041 168.543 338.159 167.936 337.524C167.329 336.889 166.457 336.572 165.318 336.572H163.736V343.698H165.318ZM173.662 335.27V345H172.066V335.27H173.662ZM182.043 335.27V336.572H179.453V345H177.857V336.572H175.253V335.27H182.043ZM190.869 335.27L187.649 341.472V345H186.053V341.472L182.819 335.27H184.597L186.851 340.044L189.105 335.27H190.869Z" fill="#333333"/>
<path d="M96.722 392.83C97.618 392.055 98.3227 391.421 98.836 390.926C99.3587 390.422 99.7927 389.899 100.138 389.358C100.483 388.817 100.656 388.275 100.656 387.734C100.656 387.174 100.521 386.735 100.25 386.418C99.9887 386.101 99.5733 385.942 99.004 385.942C98.4533 385.942 98.024 386.119 97.716 386.474C97.4173 386.819 97.2587 387.286 97.24 387.874H95.7C95.728 386.81 96.0453 385.998 96.652 385.438C97.268 384.869 98.0473 384.584 98.99 384.584C100.007 384.584 100.801 384.864 101.37 385.424C101.949 385.984 102.238 386.731 102.238 387.664C102.238 388.336 102.065 388.985 101.72 389.61C101.384 390.226 100.978 390.781 100.502 391.276C100.035 391.761 99.438 392.326 98.71 392.97L98.08 393.53H102.518V394.86H95.714V393.698L96.722 392.83ZM103.92 389.764C103.92 388.149 104.191 386.889 104.732 385.984C105.283 385.069 106.225 384.612 107.56 384.612C108.895 384.612 109.833 385.069 110.374 385.984C110.925 386.889 111.2 388.149 111.2 389.764C111.2 391.397 110.925 392.676 110.374 393.6C109.833 394.515 108.895 394.972 107.56 394.972C106.225 394.972 105.283 394.515 104.732 393.6C104.191 392.676 103.92 391.397 103.92 389.764ZM109.632 389.764C109.632 389.008 109.581 388.369 109.478 387.846C109.385 387.323 109.189 386.899 108.89 386.572C108.591 386.236 108.148 386.068 107.56 386.068C106.972 386.068 106.529 386.236 106.23 386.572C105.931 386.899 105.731 387.323 105.628 387.846C105.535 388.369 105.488 389.008 105.488 389.764C105.488 390.548 105.535 391.206 105.628 391.738C105.721 392.27 105.917 392.699 106.216 393.026C106.524 393.353 106.972 393.516 107.56 393.516C108.148 393.516 108.591 393.353 108.89 393.026C109.198 392.699 109.399 392.27 109.492 391.738C109.585 391.206 109.632 390.548 109.632 389.764ZM112.637 387.258C112.637 386.577 112.833 386.045 113.225 385.662C113.626 385.27 114.139 385.074 114.765 385.074C115.39 385.074 115.899 385.27 116.291 385.662C116.692 386.045 116.893 386.577 116.893 387.258C116.893 387.939 116.692 388.476 116.291 388.868C115.899 389.26 115.39 389.456 114.765 389.456C114.139 389.456 113.626 389.26 113.225 388.868C112.833 388.476 112.637 387.939 112.637 387.258ZM121.177 385.256L115.591 395H114.023L119.609 385.256H121.177ZM114.765 386.04C114.177 386.04 113.883 386.446 113.883 387.258C113.883 388.079 114.177 388.49 114.765 388.49C115.045 388.49 115.259 388.392 115.409 388.196C115.567 387.991 115.647 387.678 115.647 387.258C115.647 386.446 115.353 386.04 114.765 386.04ZM118.335 392.984C118.335 392.303 118.531 391.771 118.923 391.388C119.324 390.996 119.837 390.8 120.463 390.8C121.079 390.8 121.583 390.996 121.975 391.388C122.376 391.771 122.577 392.303 122.577 392.984C122.577 393.665 122.376 394.202 121.975 394.594C121.583 394.986 121.079 395.182 120.463 395.182C119.837 395.182 119.324 394.986 118.923 394.594C118.531 394.202 118.335 393.665 118.335 392.984ZM120.449 391.766C119.861 391.766 119.567 392.172 119.567 392.984C119.567 393.796 119.861 394.202 120.449 394.202C121.037 394.202 121.331 393.796 121.331 392.984C121.331 392.172 121.037 391.766 120.449 391.766ZM129.447 386.558V389.414H132.807V390.716H129.447V393.698H133.227V395H127.851V385.256H133.227V386.558H129.447ZM134.661 390.114C134.661 389.162 134.88 388.308 135.319 387.552C135.767 386.796 136.369 386.208 137.125 385.788C137.89 385.359 138.725 385.144 139.631 385.144C140.667 385.144 141.586 385.401 142.389 385.914C143.201 386.418 143.789 387.137 144.153 388.07H142.235C141.983 387.557 141.633 387.174 141.185 386.922C140.737 386.67 140.219 386.544 139.631 386.544C138.987 386.544 138.413 386.689 137.909 386.978C137.405 387.267 137.008 387.683 136.719 388.224C136.439 388.765 136.299 389.395 136.299 390.114C136.299 390.833 136.439 391.463 136.719 392.004C137.008 392.545 137.405 392.965 137.909 393.264C138.413 393.553 138.987 393.698 139.631 393.698C140.219 393.698 140.737 393.572 141.185 393.32C141.633 393.068 141.983 392.685 142.235 392.172H144.153C143.789 393.105 143.201 393.824 142.389 394.328C141.586 394.832 140.667 395.084 139.631 395.084C138.716 395.084 137.881 394.874 137.125 394.454C136.369 394.025 135.767 393.432 135.319 392.676C134.88 391.92 134.661 391.066 134.661 390.114ZM150.459 395.098C149.553 395.098 148.718 394.888 147.953 394.468C147.197 394.039 146.595 393.446 146.147 392.69C145.708 391.925 145.489 391.066 145.489 390.114C145.489 389.162 145.708 388.308 146.147 387.552C146.595 386.796 147.197 386.208 147.953 385.788C148.718 385.359 149.553 385.144 150.459 385.144C151.373 385.144 152.209 385.359 152.965 385.788C153.73 386.208 154.332 386.796 154.771 387.552C155.209 388.308 155.429 389.162 155.429 390.114C155.429 391.066 155.209 391.925 154.771 392.69C154.332 393.446 153.73 394.039 152.965 394.468C152.209 394.888 151.373 395.098 150.459 395.098ZM150.459 393.712C151.103 393.712 151.677 393.567 152.181 393.278C152.685 392.979 153.077 392.559 153.357 392.018C153.646 391.467 153.791 390.833 153.791 390.114C153.791 389.395 153.646 388.765 153.357 388.224C153.077 387.683 152.685 387.267 152.181 386.978C151.677 386.689 151.103 386.544 150.459 386.544C149.815 386.544 149.241 386.689 148.737 386.978C148.233 387.267 147.836 387.683 147.547 388.224C147.267 388.765 147.127 389.395 147.127 390.114C147.127 390.833 147.267 391.467 147.547 392.018C147.836 392.559 148.233 392.979 148.737 393.278C149.241 393.567 149.815 393.712 150.459 393.712ZM160.205 395.098C159.552 395.098 158.964 394.986 158.441 394.762C157.919 394.529 157.508 394.202 157.209 393.782C156.911 393.362 156.761 392.872 156.761 392.312H158.469C158.507 392.732 158.67 393.077 158.959 393.348C159.258 393.619 159.673 393.754 160.205 393.754C160.756 393.754 161.185 393.623 161.493 393.362C161.801 393.091 161.955 392.746 161.955 392.326C161.955 391.999 161.857 391.733 161.661 391.528C161.475 391.323 161.237 391.164 160.947 391.052C160.667 390.94 160.275 390.819 159.771 390.688C159.137 390.52 158.619 390.352 158.217 390.184C157.825 390.007 157.489 389.736 157.209 389.372C156.929 389.008 156.789 388.523 156.789 387.916C156.789 387.356 156.929 386.866 157.209 386.446C157.489 386.026 157.881 385.704 158.385 385.48C158.889 385.256 159.473 385.144 160.135 385.144C161.078 385.144 161.848 385.382 162.445 385.858C163.052 386.325 163.388 386.969 163.453 387.79H161.689C161.661 387.435 161.493 387.132 161.185 386.88C160.877 386.628 160.471 386.502 159.967 386.502C159.51 386.502 159.137 386.619 158.847 386.852C158.558 387.085 158.413 387.421 158.413 387.86C158.413 388.159 158.502 388.406 158.679 388.602C158.866 388.789 159.099 388.938 159.379 389.05C159.659 389.162 160.042 389.283 160.527 389.414C161.171 389.591 161.694 389.769 162.095 389.946C162.506 390.123 162.851 390.399 163.131 390.772C163.421 391.136 163.565 391.626 163.565 392.242C163.565 392.737 163.43 393.203 163.159 393.642C162.898 394.081 162.511 394.435 161.997 394.706C161.493 394.967 160.896 395.098 160.205 395.098ZM172.658 385.27L169.438 391.472V395H167.842V391.472L164.608 385.27H166.386L168.64 390.044L170.894 385.27H172.658ZM177.131 395.098C176.478 395.098 175.89 394.986 175.367 394.762C174.844 394.529 174.434 394.202 174.135 393.782C173.836 393.362 173.687 392.872 173.687 392.312H175.395C175.432 392.732 175.596 393.077 175.885 393.348C176.184 393.619 176.599 393.754 177.131 393.754C177.682 393.754 178.111 393.623 178.419 393.362C178.727 393.091 178.881 392.746 178.881 392.326C178.881 391.999 178.783 391.733 178.587 391.528C178.4 391.323 178.162 391.164 177.873 391.052C177.593 390.94 177.201 390.819 176.697 390.688C176.062 390.52 175.544 390.352 175.143 390.184C174.751 390.007 174.415 389.736 174.135 389.372C173.855 389.008 173.715 388.523 173.715 387.916C173.715 387.356 173.855 386.866 174.135 386.446C174.415 386.026 174.807 385.704 175.311 385.48C175.815 385.256 176.398 385.144 177.061 385.144C178.004 385.144 178.774 385.382 179.371 385.858C179.978 386.325 180.314 386.969 180.379 387.79H178.615C178.587 387.435 178.419 387.132 178.111 386.88C177.803 386.628 177.397 386.502 176.893 386.502C176.436 386.502 176.062 386.619 175.773 386.852C175.484 387.085 175.339 387.421 175.339 387.86C175.339 388.159 175.428 388.406 175.605 388.602C175.792 388.789 176.025 388.938 176.305 389.05C176.585 389.162 176.968 389.283 177.453 389.414C178.097 389.591 178.62 389.769 179.021 389.946C179.432 390.123 179.777 390.399 180.057 390.772C180.346 391.136 180.491 391.626 180.491 392.242C180.491 392.737 180.356 393.203 180.085 393.642C179.824 394.081 179.436 394.435 178.923 394.706C178.419 394.967 177.822 395.098 177.131 395.098ZM188.66 385.27V386.572H186.07V395H184.474V386.572H181.87V385.27H188.66ZM191.873 386.558V389.414H195.233V390.716H191.873V393.698H195.653V395H190.277V385.256H195.653V386.558H191.873ZM207.866 385.27V395H206.27V388.336L203.302 395H202.196L199.214 388.336V395H197.618V385.27H199.34L202.756 392.9L206.158 385.27H207.866ZM216.779 385.27C217.815 385.27 218.72 385.471 219.495 385.872C220.279 386.264 220.881 386.833 221.301 387.58C221.73 388.317 221.945 389.181 221.945 390.17C221.945 391.159 221.73 392.018 221.301 392.746C220.881 393.474 220.279 394.034 219.495 394.426C218.72 394.809 217.815 395 216.779 395H213.601V385.27H216.779ZM216.779 393.698C217.917 393.698 218.79 393.39 219.397 392.774C220.003 392.158 220.307 391.29 220.307 390.17C220.307 389.041 220.003 388.159 219.397 387.524C218.79 386.889 217.917 386.572 216.779 386.572H215.197V393.698H216.779ZM225.123 386.558V389.414H228.483V390.716H225.123V393.698H228.903V395H223.527V385.256H228.903V386.558H225.123ZM239.254 385.27L235.6 395H233.752L230.084 385.27H231.792L234.676 393.362L237.574 385.27H239.254ZM242.185 386.558V389.414H245.545V390.716H242.185V393.698H245.965V395H240.589V385.256H245.965V386.558H242.185ZM249.527 393.712H252.817V395H247.931V385.27H249.527V393.712ZM258.59 395.098C257.684 395.098 256.849 394.888 256.084 394.468C255.328 394.039 254.726 393.446 254.278 392.69C253.839 391.925 253.62 391.066 253.62 390.114C253.62 389.162 253.839 388.308 254.278 387.552C254.726 386.796 255.328 386.208 256.084 385.788C256.849 385.359 257.684 385.144 258.59 385.144C259.504 385.144 260.34 385.359 261.096 385.788C261.861 386.208 262.463 386.796 262.902 387.552C263.34 388.308 263.56 389.162 263.56 390.114C263.56 391.066 263.34 391.925 262.902 392.69C262.463 393.446 261.861 394.039 261.096 394.468C260.34 394.888 259.504 395.098 258.59 395.098ZM258.59 393.712C259.234 393.712 259.808 393.567 260.312 393.278C260.816 392.979 261.208 392.559 261.488 392.018C261.777 391.467 261.922 390.833 261.922 390.114C261.922 389.395 261.777 388.765 261.488 388.224C261.208 387.683 260.816 387.267 260.312 386.978C259.808 386.689 259.234 386.544 258.59 386.544C257.946 386.544 257.372 386.689 256.868 386.978C256.364 387.267 255.967 387.683 255.678 388.224C255.398 388.765 255.258 389.395 255.258 390.114C255.258 390.833 255.398 391.467 255.678 392.018C255.967 392.559 256.364 392.979 256.868 393.278C257.372 393.567 257.946 393.712 258.59 393.712ZM271.934 388.168C271.934 388.663 271.817 389.129 271.584 389.568C271.351 390.007 270.977 390.366 270.464 390.646C269.951 390.917 269.293 391.052 268.49 391.052H266.726V395H265.13V385.27H268.49C269.237 385.27 269.867 385.401 270.38 385.662C270.903 385.914 271.29 386.259 271.542 386.698C271.803 387.137 271.934 387.627 271.934 388.168ZM268.49 389.75C269.097 389.75 269.549 389.615 269.848 389.344C270.147 389.064 270.296 388.672 270.296 388.168C270.296 387.104 269.694 386.572 268.49 386.572H266.726V389.75H268.49ZM283.704 385.27V395H282.108V388.336L279.14 395H278.034L275.052 388.336V395H273.456V385.27H275.178L278.594 392.9L281.996 385.27H283.704ZM287.398 386.558V389.414H290.758V390.716H287.398V393.698H291.178V395H285.802V385.256H291.178V386.558H287.398ZM301.138 395H299.542L294.74 387.734V395H293.144V385.256H294.74L299.542 392.508V385.256H301.138V395ZM309.52 385.27V386.572H306.93V395H305.334V386.572H302.73V385.27H309.52Z" fill="#333333"/>
<path d="M94.63 436.25V434.794H97.542V445H95.932V436.25H94.63ZM105.223 437.16C105.12 436.731 104.933 436.409 104.663 436.194C104.392 435.979 104.014 435.872 103.529 435.872C102.791 435.872 102.241 436.157 101.877 436.726C101.513 437.286 101.321 438.219 101.303 439.526C101.545 439.115 101.9 438.798 102.367 438.574C102.833 438.35 103.337 438.238 103.879 438.238C104.495 438.238 105.036 438.373 105.503 438.644C105.979 438.905 106.347 439.288 106.609 439.792C106.879 440.296 107.015 440.898 107.015 441.598C107.015 442.251 106.884 442.835 106.623 443.348C106.371 443.861 105.993 444.267 105.489 444.566C104.985 444.855 104.378 445 103.669 445C102.707 445 101.951 444.79 101.401 444.37C100.859 443.941 100.477 443.339 100.253 442.564C100.038 441.789 99.9305 440.823 99.9305 439.666C99.9305 436.25 101.135 434.542 103.543 434.542C104.476 434.542 105.209 434.794 105.741 435.298C106.282 435.802 106.599 436.423 106.693 437.16H105.223ZM103.529 439.582C102.959 439.582 102.474 439.755 102.073 440.1C101.681 440.436 101.485 440.926 101.485 441.57C101.485 442.214 101.667 442.727 102.031 443.11C102.404 443.483 102.922 443.67 103.585 443.67C104.173 443.67 104.635 443.488 104.971 443.124C105.316 442.76 105.489 442.275 105.489 441.668C105.489 441.033 105.321 440.529 104.985 440.156C104.658 439.773 104.173 439.582 103.529 439.582ZM109.571 445.098C109.282 445.098 109.039 445 108.843 444.804C108.647 444.608 108.549 444.365 108.549 444.076C108.549 443.787 108.647 443.544 108.843 443.348C109.039 443.152 109.282 443.054 109.571 443.054C109.851 443.054 110.089 443.152 110.285 443.348C110.481 443.544 110.579 443.787 110.579 444.076C110.579 444.365 110.481 444.608 110.285 444.804C110.089 445 109.851 445.098 109.571 445.098ZM117.582 437.16C117.479 436.731 117.293 436.409 117.022 436.194C116.751 435.979 116.373 435.872 115.888 435.872C115.151 435.872 114.6 436.157 114.236 436.726C113.872 437.286 113.681 438.219 113.662 439.526C113.905 439.115 114.259 438.798 114.726 438.574C115.193 438.35 115.697 438.238 116.238 438.238C116.854 438.238 117.395 438.373 117.862 438.644C118.338 438.905 118.707 439.288 118.968 439.792C119.239 440.296 119.374 440.898 119.374 441.598C119.374 442.251 119.243 442.835 118.982 443.348C118.73 443.861 118.352 444.267 117.848 444.566C117.344 444.855 116.737 445 116.028 445C115.067 445 114.311 444.79 113.76 444.37C113.219 443.941 112.836 443.339 112.612 442.564C112.397 441.789 112.29 440.823 112.29 439.666C112.29 436.25 113.494 434.542 115.902 434.542C116.835 434.542 117.568 434.794 118.1 435.298C118.641 435.802 118.959 436.423 119.052 437.16H117.582ZM115.888 439.582C115.319 439.582 114.833 439.755 114.432 440.1C114.04 440.436 113.844 440.926 113.844 441.57C113.844 442.214 114.026 442.727 114.39 443.11C114.763 443.483 115.281 443.67 115.944 443.67C116.532 443.67 116.994 443.488 117.33 443.124C117.675 442.76 117.848 442.275 117.848 441.668C117.848 441.033 117.68 440.529 117.344 440.156C117.017 439.773 116.532 439.582 115.888 439.582ZM127.544 436.026L123.652 445H122.042L125.976 436.194H120.796V434.836H127.544V436.026ZM128.658 437.258C128.658 436.577 128.854 436.045 129.246 435.662C129.648 435.27 130.161 435.074 130.786 435.074C131.412 435.074 131.92 435.27 132.312 435.662C132.714 436.045 132.914 436.577 132.914 437.258C132.914 437.939 132.714 438.476 132.312 438.868C131.92 439.26 131.412 439.456 130.786 439.456C130.161 439.456 129.648 439.26 129.246 438.868C128.854 438.476 128.658 437.939 128.658 437.258ZM137.198 435.256L131.612 445H130.044L135.63 435.256H137.198ZM130.786 436.04C130.198 436.04 129.904 436.446 129.904 437.258C129.904 438.079 130.198 438.49 130.786 438.49C131.066 438.49 131.281 438.392 131.43 438.196C131.589 437.991 131.668 437.678 131.668 437.258C131.668 436.446 131.374 436.04 130.786 436.04ZM134.356 442.984C134.356 442.303 134.552 441.771 134.944 441.388C135.346 440.996 135.859 440.8 136.484 440.8C137.1 440.8 137.604 440.996 137.996 441.388C138.398 441.771 138.598 442.303 138.598 442.984C138.598 443.665 138.398 444.202 137.996 444.594C137.604 444.986 137.1 445.182 136.484 445.182C135.859 445.182 135.346 444.986 134.944 444.594C134.552 444.202 134.356 443.665 134.356 442.984ZM136.47 441.766C135.882 441.766 135.588 442.172 135.588 442.984C135.588 443.796 135.882 444.202 136.47 444.202C137.058 444.202 137.352 443.796 137.352 442.984C137.352 442.172 137.058 441.766 136.47 441.766ZM150.676 438.168C150.676 438.663 150.56 439.129 150.326 439.568C150.093 440.007 149.72 440.366 149.206 440.646C148.693 440.917 148.035 441.052 147.232 441.052H145.468V445H143.872V435.27H147.232C147.979 435.27 148.609 435.401 149.122 435.662C149.645 435.914 150.032 436.259 150.284 436.698C150.546 437.137 150.676 437.627 150.676 438.168ZM147.232 439.75C147.839 439.75 148.292 439.615 148.59 439.344C148.889 439.064 149.038 438.672 149.038 438.168C149.038 437.104 148.436 436.572 147.232 436.572H145.468V439.75H147.232ZM157.252 445L155.012 441.108H153.794V445H152.198V435.27H155.558C156.305 435.27 156.935 435.401 157.448 435.662C157.971 435.923 158.358 436.273 158.61 436.712C158.872 437.151 159.002 437.641 159.002 438.182C159.002 438.817 158.816 439.395 158.442 439.918C158.078 440.431 157.514 440.781 156.748 440.968L159.156 445H157.252ZM153.794 439.834H155.558C156.156 439.834 156.604 439.685 156.902 439.386C157.21 439.087 157.364 438.686 157.364 438.182C157.364 437.678 157.215 437.286 156.916 437.006C156.618 436.717 156.165 436.572 155.558 436.572H153.794V439.834ZM162.64 436.558V439.414H166V440.716H162.64V443.698H166.42V445H161.044V435.256H166.42V436.558H162.64ZM171.592 445.098C170.939 445.098 170.351 444.986 169.828 444.762C169.305 444.529 168.895 444.202 168.596 443.782C168.297 443.362 168.148 442.872 168.148 442.312H169.856C169.893 442.732 170.057 443.077 170.346 443.348C170.645 443.619 171.06 443.754 171.592 443.754C172.143 443.754 172.572 443.623 172.88 443.362C173.188 443.091 173.342 442.746 173.342 442.326C173.342 441.999 173.244 441.733 173.048 441.528C172.861 441.323 172.623 441.164 172.334 441.052C172.054 440.94 171.662 440.819 171.158 440.688C170.523 440.52 170.005 440.352 169.604 440.184C169.212 440.007 168.876 439.736 168.596 439.372C168.316 439.008 168.176 438.523 168.176 437.916C168.176 437.356 168.316 436.866 168.596 436.446C168.876 436.026 169.268 435.704 169.772 435.48C170.276 435.256 170.859 435.144 171.522 435.144C172.465 435.144 173.235 435.382 173.832 435.858C174.439 436.325 174.775 436.969 174.84 437.79H173.076C173.048 437.435 172.88 437.132 172.572 436.88C172.264 436.628 171.858 436.502 171.354 436.502C170.897 436.502 170.523 436.619 170.234 436.852C169.945 437.085 169.8 437.421 169.8 437.86C169.8 438.159 169.889 438.406 170.066 438.602C170.253 438.789 170.486 438.938 170.766 439.05C171.046 439.162 171.429 439.283 171.914 439.414C172.558 439.591 173.081 439.769 173.482 439.946C173.893 440.123 174.238 440.399 174.518 440.772C174.807 441.136 174.952 441.626 174.952 442.242C174.952 442.737 174.817 443.203 174.546 443.642C174.285 444.081 173.897 444.435 173.384 444.706C172.88 444.967 172.283 445.098 171.592 445.098ZM182.701 443.012H178.627L177.927 445H176.261L179.747 435.256H181.595L185.081 445H183.401L182.701 443.012ZM182.253 441.71L180.671 437.188L179.075 441.71H182.253ZM188.193 443.712H191.483V445H186.597V435.27H188.193V443.712ZM194.414 436.558V439.414H197.774V440.716H194.414V443.698H198.194V445H192.818V435.256H198.194V436.558H194.414Z" fill="#333333"/>
<path d="M95.63 486.25V484.794H98.542V495H96.932V486.25H95.63ZM107.315 486.166H102.625V488.952C102.821 488.691 103.11 488.471 103.493 488.294C103.885 488.117 104.3 488.028 104.739 488.028C105.523 488.028 106.157 488.196 106.643 488.532C107.137 488.868 107.487 489.293 107.693 489.806C107.907 490.319 108.015 490.861 108.015 491.43C108.015 492.121 107.879 492.737 107.609 493.278C107.347 493.81 106.951 494.23 106.419 494.538C105.896 494.846 105.252 495 104.487 495C103.469 495 102.653 494.748 102.037 494.244C101.421 493.74 101.052 493.073 100.931 492.242H102.485C102.587 492.681 102.816 493.031 103.171 493.292C103.525 493.544 103.969 493.67 104.501 493.67C105.163 493.67 105.658 493.469 105.985 493.068C106.321 492.667 106.489 492.135 106.489 491.472C106.489 490.8 106.321 490.287 105.985 489.932C105.649 489.568 105.154 489.386 104.501 489.386C104.043 489.386 103.656 489.503 103.339 489.736C103.031 489.96 102.807 490.268 102.667 490.66H101.155V484.766H107.315V486.166ZM109.424 487.258C109.424 486.577 109.62 486.045 110.012 485.662C110.413 485.27 110.927 485.074 111.552 485.074C112.177 485.074 112.686 485.27 113.078 485.662C113.479 486.045 113.68 486.577 113.68 487.258C113.68 487.939 113.479 488.476 113.078 488.868C112.686 489.26 112.177 489.456 111.552 489.456C110.927 489.456 110.413 489.26 110.012 488.868C109.62 488.476 109.424 487.939 109.424 487.258ZM117.964 485.256L112.378 495H110.81L116.396 485.256H117.964ZM111.552 486.04C110.964 486.04 110.67 486.446 110.67 487.258C110.67 488.079 110.964 488.49 111.552 488.49C111.832 488.49 112.047 488.392 112.196 488.196C112.355 487.991 112.434 487.678 112.434 487.258C112.434 486.446 112.14 486.04 111.552 486.04ZM115.122 492.984C115.122 492.303 115.318 491.771 115.71 491.388C116.111 490.996 116.625 490.8 117.25 490.8C117.866 490.8 118.37 490.996 118.762 491.388C119.163 491.771 119.364 492.303 119.364 492.984C119.364 493.665 119.163 494.202 118.762 494.594C118.37 494.986 117.866 495.182 117.25 495.182C116.625 495.182 116.111 494.986 115.71 494.594C115.318 494.202 115.122 493.665 115.122 492.984ZM117.236 491.766C116.648 491.766 116.354 492.172 116.354 492.984C116.354 493.796 116.648 494.202 117.236 494.202C117.824 494.202 118.118 493.796 118.118 492.984C118.118 492.172 117.824 491.766 117.236 491.766ZM130.504 493.012H126.43L125.73 495H124.064L127.55 485.256H129.398L132.884 495H131.204L130.504 493.012ZM130.056 491.71L128.474 487.188L126.878 491.71H130.056ZM135.996 485.27V495H134.4V485.27H135.996ZM143.145 495L140.905 491.108H139.687V495H138.091V485.27H141.451C142.198 485.27 142.828 485.401 143.341 485.662C143.864 485.923 144.251 486.273 144.503 486.712C144.764 487.151 144.895 487.641 144.895 488.182C144.895 488.817 144.708 489.395 144.335 489.918C143.971 490.431 143.406 490.781 142.641 490.968L145.049 495H143.145ZM139.687 489.834H141.451C142.048 489.834 142.496 489.685 142.795 489.386C143.103 489.087 143.257 488.686 143.257 488.182C143.257 487.678 143.108 487.286 142.809 487.006C142.51 486.717 142.058 486.572 141.451 486.572H139.687V489.834ZM150.115 485.27C151.151 485.27 152.056 485.471 152.831 485.872C153.615 486.264 154.217 486.833 154.637 487.58C155.066 488.317 155.281 489.181 155.281 490.17C155.281 491.159 155.066 492.018 154.637 492.746C154.217 493.474 153.615 494.034 152.831 494.426C152.056 494.809 151.151 495 150.115 495H146.937V485.27H150.115ZM150.115 493.698C151.253 493.698 152.126 493.39 152.733 492.774C153.339 492.158 153.643 491.29 153.643 490.17C153.643 489.041 153.339 488.159 152.733 487.524C152.126 486.889 151.253 486.572 150.115 486.572H148.533V493.698H150.115ZM161.917 495L159.677 491.108H158.459V495H156.863V485.27H160.223C160.969 485.27 161.599 485.401 162.113 485.662C162.635 485.923 163.023 486.273 163.275 486.712C163.536 487.151 163.667 487.641 163.667 488.182C163.667 488.817 163.48 489.395 163.107 489.918C162.743 490.431 162.178 490.781 161.413 490.968L163.821 495H161.917ZM158.459 489.834H160.223C160.82 489.834 161.268 489.685 161.567 489.386C161.875 489.087 162.029 488.686 162.029 488.182C162.029 487.678 161.879 487.286 161.581 487.006C161.282 486.717 160.829 486.572 160.223 486.572H158.459V489.834ZM170.146 495.098C169.241 495.098 168.406 494.888 167.64 494.468C166.884 494.039 166.282 493.446 165.834 492.69C165.396 491.925 165.176 491.066 165.176 490.114C165.176 489.162 165.396 488.308 165.834 487.552C166.282 486.796 166.884 486.208 167.64 485.788C168.406 485.359 169.241 485.144 170.146 485.144C171.061 485.144 171.896 485.359 172.652 485.788C173.418 486.208 174.02 486.796 174.458 487.552C174.897 488.308 175.116 489.162 175.116 490.114C175.116 491.066 174.897 491.925 174.458 492.69C174.02 493.446 173.418 494.039 172.652 494.468C171.896 494.888 171.061 495.098 170.146 495.098ZM170.146 493.712C170.79 493.712 171.364 493.567 171.868 493.278C172.372 492.979 172.764 492.559 173.044 492.018C173.334 491.467 173.478 490.833 173.478 490.114C173.478 489.395 173.334 488.765 173.044 488.224C172.764 487.683 172.372 487.267 171.868 486.978C171.364 486.689 170.79 486.544 170.146 486.544C169.502 486.544 168.928 486.689 168.424 486.978C167.92 487.267 167.524 487.683 167.234 488.224C166.954 488.765 166.814 489.395 166.814 490.114C166.814 490.833 166.954 491.467 167.234 492.018C167.524 492.559 167.92 492.979 168.424 493.278C168.928 493.567 169.502 493.712 170.146 493.712ZM183.491 488.168C183.491 488.663 183.374 489.129 183.141 489.568C182.907 490.007 182.534 490.366 182.021 490.646C181.507 490.917 180.849 491.052 180.047 491.052H178.283V495H176.687V485.27H180.047C180.793 485.27 181.423 485.401 181.937 485.662C182.459 485.914 182.847 486.259 183.099 486.698C183.36 487.137 183.491 487.627 183.491 488.168ZM180.047 489.75C180.653 489.75 181.106 489.615 181.405 489.344C181.703 489.064 181.853 488.672 181.853 488.168C181.853 487.104 181.251 486.572 180.047 486.572H178.283V489.75H180.047Z" fill="#333333"/>
<path d="M95.63 536.25V534.794H98.542V545H96.932V536.25H95.63ZM100.735 539.764C100.735 538.149 101.005 536.889 101.547 535.984C102.097 535.069 103.04 534.612 104.375 534.612C105.709 534.612 106.647 535.069 107.189 535.984C107.739 536.889 108.015 538.149 108.015 539.764C108.015 541.397 107.739 542.676 107.189 543.6C106.647 544.515 105.709 544.972 104.375 544.972C103.04 544.972 102.097 544.515 101.547 543.6C101.005 542.676 100.735 541.397 100.735 539.764ZM106.447 539.764C106.447 539.008 106.395 538.369 106.293 537.846C106.199 537.323 106.003 536.899 105.705 536.572C105.406 536.236 104.963 536.068 104.375 536.068C103.787 536.068 103.343 536.236 103.045 536.572C102.746 536.899 102.545 537.323 102.443 537.846C102.349 538.369 102.303 539.008 102.303 539.764C102.303 540.548 102.349 541.206 102.443 541.738C102.536 542.27 102.732 542.699 103.031 543.026C103.339 543.353 103.787 543.516 104.375 543.516C104.963 543.516 105.406 543.353 105.705 543.026C106.013 542.699 106.213 542.27 106.307 541.738C106.4 541.206 106.447 540.548 106.447 539.764ZM109.451 537.258C109.451 536.577 109.647 536.045 110.039 535.662C110.441 535.27 110.954 535.074 111.579 535.074C112.205 535.074 112.713 535.27 113.105 535.662C113.507 536.045 113.707 536.577 113.707 537.258C113.707 537.939 113.507 538.476 113.105 538.868C112.713 539.26 112.205 539.456 111.579 539.456C110.954 539.456 110.441 539.26 110.039 538.868C109.647 538.476 109.451 537.939 109.451 537.258ZM117.991 535.256L112.405 545H110.837L116.423 535.256H117.991ZM111.579 536.04C110.991 536.04 110.697 536.446 110.697 537.258C110.697 538.079 110.991 538.49 111.579 538.49C111.859 538.49 112.074 538.392 112.223 538.196C112.382 537.991 112.461 537.678 112.461 537.258C112.461 536.446 112.167 536.04 111.579 536.04ZM115.149 542.984C115.149 542.303 115.345 541.771 115.737 541.388C116.139 540.996 116.652 540.8 117.277 540.8C117.893 540.8 118.397 540.996 118.789 541.388C119.191 541.771 119.391 542.303 119.391 542.984C119.391 543.665 119.191 544.202 118.789 544.594C118.397 544.986 117.893 545.182 117.277 545.182C116.652 545.182 116.139 544.986 115.737 544.594C115.345 544.202 115.149 543.665 115.149 542.984ZM117.263 541.766C116.675 541.766 116.381 542.172 116.381 542.984C116.381 543.796 116.675 544.202 117.263 544.202C117.851 544.202 118.145 543.796 118.145 542.984C118.145 542.172 117.851 541.766 117.263 541.766ZM134.913 535.27V545H133.317V538.336L130.349 545H129.243L126.261 538.336V545H124.665V535.27H126.387L129.803 542.9L133.205 535.27H134.913ZM142.877 543.012H138.803L138.103 545H136.437L139.923 535.256H141.771L145.257 545H143.577L142.877 543.012ZM142.429 541.71L140.847 537.188L139.251 541.71H142.429ZM151.827 545L149.587 541.108H148.369V545H146.773V535.27H150.133C150.879 535.27 151.509 535.401 152.023 535.662C152.545 535.923 152.933 536.273 153.185 536.712C153.446 537.151 153.577 537.641 153.577 538.182C153.577 538.817 153.39 539.395 153.017 539.918C152.653 540.431 152.088 540.781 151.323 540.968L153.731 545H151.827ZM148.369 539.834H150.133C150.73 539.834 151.178 539.685 151.477 539.386C151.785 539.087 151.939 538.686 151.939 538.182C151.939 537.678 151.789 537.286 151.491 537.006C151.192 536.717 150.739 536.572 150.133 536.572H148.369V539.834ZM160.98 545L157.214 540.646V545H155.618V535.27H157.214V539.708L160.994 535.27H162.996L158.768 540.142L163.066 545H160.98ZM166.074 536.558V539.414H169.434V540.716H166.074V543.698H169.854V545H164.478V535.256H169.854V536.558H166.074ZM178.106 535.27V536.572H175.516V545H173.92V536.572H171.316V535.27H178.106ZM181.318 535.27V545H179.722V535.27H181.318ZM191.407 545H189.811L185.009 537.734V545H183.413V535.256H185.009L189.811 542.508V535.256H191.407V545ZM200.545 538.07C200.293 537.585 199.943 537.221 199.495 536.978C199.047 536.726 198.529 536.6 197.941 536.6C197.297 536.6 196.723 536.745 196.219 537.034C195.715 537.323 195.318 537.734 195.029 538.266C194.749 538.798 194.609 539.414 194.609 540.114C194.609 540.814 194.749 541.435 195.029 541.976C195.318 542.508 195.715 542.919 196.219 543.208C196.723 543.497 197.297 543.642 197.941 543.642C198.809 543.642 199.514 543.399 200.055 542.914C200.596 542.429 200.928 541.771 201.049 540.94H197.395V539.666H202.757V540.912C202.654 541.668 202.384 542.363 201.945 542.998C201.516 543.633 200.951 544.141 200.251 544.524C199.56 544.897 198.79 545.084 197.941 545.084C197.026 545.084 196.191 544.874 195.435 544.454C194.679 544.025 194.077 543.432 193.629 542.676C193.19 541.92 192.971 541.066 192.971 540.114C192.971 539.162 193.19 538.308 193.629 537.552C194.077 536.796 194.679 536.208 195.435 535.788C196.2 535.359 197.036 535.144 197.941 535.144C198.977 535.144 199.896 535.401 200.699 535.914C201.511 536.418 202.099 537.137 202.463 538.07H200.545Z" fill="#333333"/>
<path d="M95.63 586.25V584.794H98.542V595H96.932V586.25H95.63ZM100.735 589.764C100.735 588.149 101.005 586.889 101.547 585.984C102.097 585.069 103.04 584.612 104.375 584.612C105.709 584.612 106.647 585.069 107.189 585.984C107.739 586.889 108.015 588.149 108.015 589.764C108.015 591.397 107.739 592.676 107.189 593.6C106.647 594.515 105.709 594.972 104.375 594.972C103.04 594.972 102.097 594.515 101.547 593.6C101.005 592.676 100.735 591.397 100.735 589.764ZM106.447 589.764C106.447 589.008 106.395 588.369 106.293 587.846C106.199 587.323 106.003 586.899 105.705 586.572C105.406 586.236 104.963 586.068 104.375 586.068C103.787 586.068 103.343 586.236 103.045 586.572C102.746 586.899 102.545 587.323 102.443 587.846C102.349 588.369 102.303 589.008 102.303 589.764C102.303 590.548 102.349 591.206 102.443 591.738C102.536 592.27 102.732 592.699 103.031 593.026C103.339 593.353 103.787 593.516 104.375 593.516C104.963 593.516 105.406 593.353 105.705 593.026C106.013 592.699 106.213 592.27 106.307 591.738C106.4 591.206 106.447 590.548 106.447 589.764ZM109.451 587.258C109.451 586.577 109.647 586.045 110.039 585.662C110.441 585.27 110.954 585.074 111.579 585.074C112.205 585.074 112.713 585.27 113.105 585.662C113.507 586.045 113.707 586.577 113.707 587.258C113.707 587.939 113.507 588.476 113.105 588.868C112.713 589.26 112.205 589.456 111.579 589.456C110.954 589.456 110.441 589.26 110.039 588.868C109.647 588.476 109.451 587.939 109.451 587.258ZM117.991 585.256L112.405 595H110.837L116.423 585.256H117.991ZM111.579 586.04C110.991 586.04 110.697 586.446 110.697 587.258C110.697 588.079 110.991 588.49 111.579 588.49C111.859 588.49 112.074 588.392 112.223 588.196C112.382 587.991 112.461 587.678 112.461 587.258C112.461 586.446 112.167 586.04 111.579 586.04ZM115.149 592.984C115.149 592.303 115.345 591.771 115.737 591.388C116.139 590.996 116.652 590.8 117.277 590.8C117.893 590.8 118.397 590.996 118.789 591.388C119.191 591.771 119.391 592.303 119.391 592.984C119.391 593.665 119.191 594.202 118.789 594.594C118.397 594.986 117.893 595.182 117.277 595.182C116.652 595.182 116.139 594.986 115.737 594.594C115.345 594.202 115.149 593.665 115.149 592.984ZM117.263 591.766C116.675 591.766 116.381 592.172 116.381 592.984C116.381 593.796 116.675 594.202 117.263 594.202C117.851 594.202 118.145 593.796 118.145 592.984C118.145 592.172 117.851 591.766 117.263 591.766ZM126.247 585.27V591.472C126.247 592.209 126.439 592.765 126.821 593.138C127.213 593.511 127.755 593.698 128.445 593.698C129.145 593.698 129.687 593.511 130.069 593.138C130.461 592.765 130.657 592.209 130.657 591.472V585.27H132.253V591.444C132.253 592.237 132.081 592.909 131.735 593.46C131.39 594.011 130.928 594.421 130.349 594.692C129.771 594.963 129.131 595.098 128.431 595.098C127.731 595.098 127.092 594.963 126.513 594.692C125.944 594.421 125.491 594.011 125.155 593.46C124.819 592.909 124.651 592.237 124.651 591.444V585.27H126.247ZM139.539 590.002C140.062 590.095 140.505 590.371 140.869 590.828C141.233 591.285 141.415 591.803 141.415 592.382C141.415 592.877 141.285 593.325 141.023 593.726C140.771 594.118 140.403 594.431 139.917 594.664C139.432 594.888 138.867 595 138.223 595H134.331V585.27H138.041C138.704 585.27 139.273 585.382 139.749 585.606C140.225 585.83 140.585 586.133 140.827 586.516C141.07 586.889 141.191 587.309 141.191 587.776C141.191 588.336 141.042 588.803 140.743 589.176C140.445 589.549 140.043 589.825 139.539 590.002ZM135.927 589.358H137.901C138.424 589.358 138.83 589.241 139.119 589.008C139.418 588.765 139.567 588.42 139.567 587.972C139.567 587.533 139.418 587.193 139.119 586.95C138.83 586.698 138.424 586.572 137.901 586.572H135.927V589.358ZM138.083 593.698C138.625 593.698 139.049 593.567 139.357 593.306C139.665 593.045 139.819 592.681 139.819 592.214C139.819 591.738 139.656 591.36 139.329 591.08C139.003 590.8 138.569 590.66 138.027 590.66H135.927V593.698H138.083ZM144.732 585.27V591.472C144.732 592.209 144.923 592.765 145.306 593.138C145.698 593.511 146.239 593.698 146.93 593.698C147.63 593.698 148.171 593.511 148.554 593.138C148.946 592.765 149.142 592.209 149.142 591.472V585.27H150.738V591.444C150.738 592.237 150.565 592.909 150.22 593.46C149.874 594.011 149.412 594.421 148.834 594.692C148.255 594.963 147.616 595.098 146.916 595.098C146.216 595.098 145.576 594.963 144.998 594.692C144.428 594.421 143.976 594.011 143.64 593.46C143.304 592.909 143.136 592.237 143.136 591.444V585.27H144.732ZM160.81 595H159.214L154.412 587.734V595H152.816V585.256H154.412L159.214 592.508V585.256H160.81V595ZM169.191 585.27V586.572H166.601V595H165.005V586.572H162.401V585.27H169.191ZM172.39 585.27V591.472C172.39 592.209 172.581 592.765 172.964 593.138C173.356 593.511 173.897 593.698 174.588 593.698C175.288 593.698 175.829 593.511 176.212 593.138C176.604 592.765 176.8 592.209 176.8 591.472V585.27H178.396V591.444C178.396 592.237 178.223 592.909 177.878 593.46C177.532 594.011 177.07 594.421 176.492 594.692C175.913 594.963 175.274 595.098 174.574 595.098C173.874 595.098 173.234 594.963 172.656 594.692C172.086 594.421 171.634 594.011 171.298 593.46C170.962 592.909 170.794 592.237 170.794 591.444V585.27H172.39ZM189.837 585.27V586.572H185.707V589.442H188.927V590.744H185.707V595H184.111V585.27H189.837ZM195.754 595.098C194.848 595.098 194.013 594.888 193.248 594.468C192.492 594.039 191.89 593.446 191.442 592.69C191.003 591.925 190.784 591.066 190.784 590.114C190.784 589.162 191.003 588.308 191.442 587.552C191.89 586.796 192.492 586.208 193.248 585.788C194.013 585.359 194.848 585.144 195.754 585.144C196.668 585.144 197.504 585.359 198.26 585.788C199.025 586.208 199.627 586.796 200.066 587.552C200.504 588.308 200.724 589.162 200.724 590.114C200.724 591.066 200.504 591.925 200.066 592.69C199.627 593.446 199.025 594.039 198.26 594.468C197.504 594.888 196.668 595.098 195.754 595.098ZM195.754 593.712C196.398 593.712 196.972 593.567 197.476 593.278C197.98 592.979 198.372 592.559 198.652 592.018C198.941 591.467 199.086 590.833 199.086 590.114C199.086 589.395 198.941 588.765 198.652 588.224C198.372 587.683 197.98 587.267 197.476 586.978C196.972 586.689 196.398 586.544 195.754 586.544C195.11 586.544 194.536 586.689 194.032 586.978C193.528 587.267 193.131 587.683 192.842 588.224C192.562 588.765 192.422 589.395 192.422 590.114C192.422 590.833 192.562 591.467 192.842 592.018C193.131 592.559 193.528 592.979 194.032 593.278C194.536 593.567 195.11 593.712 195.754 593.712ZM203.876 585.27V591.472C203.876 592.209 204.067 592.765 204.45 593.138C204.842 593.511 205.383 593.698 206.074 593.698C206.774 593.698 207.315 593.511 207.698 593.138C208.09 592.765 208.286 592.209 208.286 591.472V585.27H209.882V591.444C209.882 592.237 209.709 592.909 209.364 593.46C209.019 594.011 208.557 594.421 207.978 594.692C207.399 594.963 206.76 595.098 206.06 595.098C205.36 595.098 204.721 594.963 204.142 594.692C203.573 594.421 203.12 594.011 202.784 593.46C202.448 592.909 202.28 592.237 202.28 591.444V585.27H203.876ZM219.954 595H218.358L213.556 587.734V595H211.96V585.256H213.556L218.358 592.508V585.256H219.954V595ZM225.228 585.27C226.264 585.27 227.169 585.471 227.944 585.872C228.728 586.264 229.33 586.833 229.75 587.58C230.179 588.317 230.394 589.181 230.394 590.17C230.394 591.159 230.179 592.018 229.75 592.746C229.33 593.474 228.728 594.034 227.944 594.426C227.169 594.809 226.264 595 225.228 595H222.05V585.27H225.228ZM225.228 593.698C226.367 593.698 227.239 593.39 227.846 592.774C228.453 592.158 228.756 591.29 228.756 590.17C228.756 589.041 228.453 588.159 227.846 587.524C227.239 586.889 226.367 586.572 225.228 586.572H223.646V593.698H225.228ZM237.842 593.012H233.768L233.068 595H231.402L234.888 585.256H236.736L240.222 595H238.542L237.842 593.012ZM237.394 591.71L235.812 587.188L234.216 591.71H237.394ZM248.024 585.27V586.572H245.434V595H243.838V586.572H241.234V585.27H248.024ZM251.236 585.27V595H249.64V585.27H251.236ZM257.769 595.098C256.864 595.098 256.029 594.888 255.263 594.468C254.507 594.039 253.905 593.446 253.457 592.69C253.019 591.925 252.799 591.066 252.799 590.114C252.799 589.162 253.019 588.308 253.457 587.552C253.905 586.796 254.507 586.208 255.263 585.788C256.029 585.359 256.864 585.144 257.769 585.144C258.684 585.144 259.519 585.359 260.275 585.788C261.041 586.208 261.643 586.796 262.081 587.552C262.52 588.308 262.739 589.162 262.739 590.114C262.739 591.066 262.52 591.925 262.081 592.69C261.643 593.446 261.041 594.039 260.275 594.468C259.519 594.888 258.684 595.098 257.769 595.098ZM257.769 593.712C258.413 593.712 258.987 593.567 259.491 593.278C259.995 592.979 260.387 592.559 260.667 592.018C260.957 591.467 261.101 590.833 261.101 590.114C261.101 589.395 260.957 588.765 260.667 588.224C260.387 587.683 259.995 587.267 259.491 586.978C258.987 586.689 258.413 586.544 257.769 586.544C257.125 586.544 256.551 586.689 256.047 586.978C255.543 587.267 255.147 587.683 254.857 588.224C254.577 588.765 254.437 589.395 254.437 590.114C254.437 590.833 254.577 591.467 254.857 592.018C255.147 592.559 255.543 592.979 256.047 593.278C256.551 593.567 257.125 593.712 257.769 593.712ZM272.304 595H270.708L265.906 587.734V595H264.31V585.256H265.906L270.708 592.508V585.256H272.304V595Z" fill="#333333"/>
<path d="M97.562 639.666C96.5913 639.181 96.106 638.415 96.106 637.37C96.106 636.866 96.232 636.404 96.484 635.984C96.736 635.564 97.114 635.233 97.618 634.99C98.122 634.738 98.738 634.612 99.466 634.612C100.185 634.612 100.796 634.738 101.3 634.99C101.813 635.233 102.196 635.564 102.448 635.984C102.7 636.404 102.826 636.866 102.826 637.37C102.826 637.893 102.691 638.355 102.42 638.756C102.159 639.148 101.809 639.451 101.37 639.666C101.902 639.862 102.322 640.184 102.63 640.632C102.938 641.071 103.092 641.589 103.092 642.186C103.092 642.793 102.938 643.329 102.63 643.796C102.322 644.263 101.893 644.622 101.342 644.874C100.791 645.126 100.166 645.252 99.466 645.252C98.766 645.252 98.1407 645.126 97.59 644.874C97.0487 644.622 96.624 644.263 96.316 643.796C96.008 643.329 95.854 642.793 95.854 642.186C95.854 641.579 96.008 641.057 96.316 640.618C96.624 640.179 97.0393 639.862 97.562 639.666ZM101.3 637.566C101.3 637.043 101.137 636.642 100.81 636.362C100.483 636.082 100.035 635.942 99.466 635.942C98.906 635.942 98.4627 636.082 98.136 636.362C97.8093 636.642 97.646 637.048 97.646 637.58C97.646 638.047 97.814 638.429 98.15 638.728C98.4953 639.017 98.934 639.162 99.466 639.162C99.998 639.162 100.437 639.013 100.782 638.714C101.127 638.415 101.3 638.033 101.3 637.566ZM99.466 640.366C98.85 640.366 98.346 640.52 97.954 640.828C97.5713 641.127 97.38 641.561 97.38 642.13C97.38 642.662 97.5667 643.096 97.94 643.432C98.3133 643.759 98.822 643.922 99.466 643.922C100.101 643.922 100.6 643.754 100.964 643.418C101.337 643.082 101.524 642.653 101.524 642.13C101.524 641.57 101.333 641.136 100.95 640.828C100.577 640.52 100.082 640.366 99.466 640.366ZM105.622 645.098C105.332 645.098 105.09 645 104.894 644.804C104.698 644.608 104.6 644.365 104.6 644.076C104.6 643.787 104.698 643.544 104.894 643.348C105.09 643.152 105.332 643.054 105.622 643.054C105.902 643.054 106.14 643.152 106.336 643.348C106.532 643.544 106.63 643.787 106.63 644.076C106.63 644.365 106.532 644.608 106.336 644.804C106.14 645 105.902 645.098 105.622 645.098ZM108.117 637.314C108.173 636.446 108.504 635.769 109.111 635.284C109.727 634.799 110.511 634.556 111.463 634.556C112.116 634.556 112.681 634.673 113.157 634.906C113.633 635.139 113.992 635.457 114.235 635.858C114.477 636.259 114.599 636.712 114.599 637.216C114.599 637.795 114.445 638.289 114.137 638.7C113.829 639.111 113.46 639.386 113.031 639.526V639.582C113.581 639.75 114.011 640.058 114.319 640.506C114.627 640.945 114.781 641.509 114.781 642.2C114.781 642.751 114.655 643.241 114.403 643.67C114.151 644.099 113.777 644.44 113.283 644.692C112.788 644.935 112.195 645.056 111.505 645.056C110.497 645.056 109.666 644.799 109.013 644.286C108.369 643.763 108.023 643.017 107.977 642.046H109.517C109.554 642.541 109.745 642.947 110.091 643.264C110.436 643.572 110.903 643.726 111.491 643.726C112.06 643.726 112.499 643.572 112.807 643.264C113.115 642.947 113.269 642.541 113.269 642.046C113.269 641.393 113.059 640.931 112.639 640.66C112.228 640.38 111.593 640.24 110.735 640.24H110.371V638.924H110.749C111.505 638.915 112.079 638.789 112.471 638.546C112.872 638.303 113.073 637.921 113.073 637.398C113.073 636.95 112.928 636.595 112.639 636.334C112.349 636.063 111.939 635.928 111.407 635.928C110.884 635.928 110.478 636.063 110.189 636.334C109.899 636.595 109.727 636.922 109.671 637.314H108.117ZM116.429 637.314C116.485 636.446 116.817 635.769 117.423 635.284C118.039 634.799 118.823 634.556 119.775 634.556C120.429 634.556 120.993 634.673 121.469 634.906C121.945 635.139 122.305 635.457 122.547 635.858C122.79 636.259 122.911 636.712 122.911 637.216C122.911 637.795 122.757 638.289 122.449 638.7C122.141 639.111 121.773 639.386 121.343 639.526V639.582C121.894 639.75 122.323 640.058 122.631 640.506C122.939 640.945 123.093 641.509 123.093 642.2C123.093 642.751 122.967 643.241 122.715 643.67C122.463 644.099 122.09 644.44 121.595 644.692C121.101 644.935 120.508 645.056 119.817 645.056C118.809 645.056 117.979 644.799 117.325 644.286C116.681 643.763 116.336 643.017 116.289 642.046H117.829C117.867 642.541 118.058 642.947 118.403 643.264C118.749 643.572 119.215 643.726 119.803 643.726C120.373 643.726 120.811 643.572 121.119 643.264C121.427 642.947 121.581 642.541 121.581 642.046C121.581 641.393 121.371 640.931 120.951 640.66C120.541 640.38 119.906 640.24 119.047 640.24H118.683V638.924H119.061C119.817 638.915 120.391 638.789 120.783 638.546C121.185 638.303 121.385 637.921 121.385 637.398C121.385 636.95 121.241 636.595 120.951 636.334C120.662 636.063 120.251 635.928 119.719 635.928C119.197 635.928 118.791 636.063 118.501 636.334C118.212 636.595 118.039 636.922 117.983 637.314H116.429ZM124.518 637.258C124.518 636.577 124.714 636.045 125.106 635.662C125.507 635.27 126.02 635.074 126.646 635.074C127.271 635.074 127.78 635.27 128.172 635.662C128.573 636.045 128.774 636.577 128.774 637.258C128.774 637.939 128.573 638.476 128.172 638.868C127.78 639.26 127.271 639.456 126.646 639.456C126.02 639.456 125.507 639.26 125.106 638.868C124.714 638.476 124.518 637.939 124.518 637.258ZM133.058 635.256L127.472 645H125.904L131.49 635.256H133.058ZM126.646 636.04C126.058 636.04 125.764 636.446 125.764 637.258C125.764 638.079 126.058 638.49 126.646 638.49C126.926 638.49 127.14 638.392 127.29 638.196C127.448 637.991 127.528 637.678 127.528 637.258C127.528 636.446 127.234 636.04 126.646 636.04ZM130.216 642.984C130.216 642.303 130.412 641.771 130.804 641.388C131.205 640.996 131.718 640.8 132.344 640.8C132.96 640.8 133.464 640.996 133.856 641.388C134.257 641.771 134.458 642.303 134.458 642.984C134.458 643.665 134.257 644.202 133.856 644.594C133.464 644.986 132.96 645.182 132.344 645.182C131.718 645.182 131.205 644.986 130.804 644.594C130.412 644.202 130.216 643.665 130.216 642.984ZM132.33 641.766C131.742 641.766 131.448 642.172 131.448 642.984C131.448 643.796 131.742 644.202 132.33 644.202C132.918 644.202 133.212 643.796 133.212 642.984C133.212 642.172 132.918 641.766 132.33 641.766ZM139.2 640.114C139.2 639.162 139.419 638.308 139.858 637.552C140.306 636.796 140.908 636.208 141.664 635.788C142.429 635.359 143.264 635.144 144.17 635.144C145.206 635.144 146.125 635.401 146.928 635.914C147.74 636.418 148.328 637.137 148.692 638.07H146.774C146.522 637.557 146.172 637.174 145.724 636.922C145.276 636.67 144.758 636.544 144.17 636.544C143.526 636.544 142.952 636.689 142.448 636.978C141.944 637.267 141.547 637.683 141.258 638.224C140.978 638.765 140.838 639.395 140.838 640.114C140.838 640.833 140.978 641.463 141.258 642.004C141.547 642.545 141.944 642.965 142.448 643.264C142.952 643.553 143.526 643.698 144.17 643.698C144.758 643.698 145.276 643.572 145.724 643.32C146.172 643.068 146.522 642.685 146.774 642.172H148.692C148.328 643.105 147.74 643.824 146.928 644.328C146.125 644.832 145.206 645.084 144.17 645.084C143.255 645.084 142.42 644.874 141.664 644.454C140.908 644.025 140.306 643.432 139.858 642.676C139.419 641.92 139.2 641.066 139.2 640.114ZM158.33 635.27V645H156.734V640.744H152.156V645H150.56V635.27H152.156V639.442H156.734V635.27H158.33ZM166.297 643.012H162.223L161.523 645H159.857L163.343 635.256H165.191L168.677 645H166.997L166.297 643.012ZM165.849 641.71L164.267 637.188L162.671 641.71H165.849ZM175.247 645L173.007 641.108H171.789V645H170.193V635.27H173.553C174.299 635.27 174.929 635.401 175.443 635.662C175.965 635.923 176.353 636.273 176.605 636.712C176.866 637.151 176.997 637.641 176.997 638.182C176.997 638.817 176.81 639.395 176.437 639.918C176.073 640.431 175.508 640.781 174.743 640.968L177.151 645H175.247ZM171.789 639.834H173.553C174.15 639.834 174.598 639.685 174.897 639.386C175.205 639.087 175.359 638.686 175.359 638.182C175.359 637.678 175.209 637.286 174.911 637.006C174.612 636.717 174.159 636.572 173.553 636.572H171.789V639.834ZM180.634 635.27V645H179.038V635.27H180.634ZM189.016 635.27V636.572H186.426V645H184.83V636.572H182.226V635.27H189.016ZM197.842 635.27L194.622 641.472V645H193.026V641.472L189.792 635.27H191.57L193.824 640.044L196.078 635.27H197.842Z" fill="#333333"/>
</svg>
