<svg width="426" height="682" viewBox="0 0 426 682" fill="none" xmlns="http://www.w3.org/2000/svg">
<path d="M84 144C84 223.529 148.471 288 228 288C307.529 288 372 223.529 372 144C372 64.471 307.529 0 228 0C148.471 0 84 64.471 84 144ZM307.67 144C307.67 188.001 272.001 223.67 228 223.67C183.999 223.67 148.33 188.001 148.33 144C148.33 99.9992 183.999 64.3295 228 64.3295C272.001 64.3295 307.67 99.9992 307.67 144Z" fill="#CE6828"/>
<path d="M84 144C84 179.337 96.9932 213.44 120.506 239.818C144.02 266.197 176.411 283.008 211.516 287.053C246.62 291.099 281.987 282.095 310.883 261.756C339.78 241.416 360.189 211.162 368.226 176.752C376.263 142.341 371.367 106.176 354.469 75.1414C337.572 44.1066 309.853 20.3683 276.588 8.44496C243.324 -3.47835 206.837 -2.75421 174.071 10.4796C141.306 23.7133 114.551 48.5327 98.8981 80.2136L156.974 108.908C165.585 91.4782 180.305 77.8237 198.331 70.5431C216.357 63.2625 236.431 62.8641 254.731 69.4238C273.032 75.9834 288.281 89.0432 297.578 106.117C306.874 123.191 309.568 143.087 305.146 162.018C300.724 180.95 289.496 197.594 273.599 208.784C257.701 219.973 238.244 224.927 218.931 222.701C199.618 220.476 181.798 211.227 168.862 196.715C155.926 182.203 148.778 163.441 148.778 144H84Z" fill="#FFD764"/>
<path d="M84 144C84 175.141 94.095 205.443 112.771 230.362C131.447 255.281 157.698 273.474 187.588 282.213C217.477 290.952 249.394 289.767 278.553 278.835C307.712 267.902 332.541 247.812 349.317 221.576C366.094 195.341 373.913 164.374 371.603 133.318C369.293 102.263 356.978 72.7939 336.505 49.329C316.032 25.8641 288.504 9.66822 258.049 3.17003C227.593 -3.32817 195.852 0.22148 167.584 13.2867L194.885 72.3524C210.379 65.191 227.777 63.2453 244.47 66.8072C261.164 70.369 276.253 79.2464 287.475 92.1082C298.697 104.97 305.447 121.123 306.713 138.145C307.979 155.167 303.693 172.141 294.497 186.522C285.302 200.902 271.692 211.914 255.71 217.907C239.727 223.899 222.232 224.549 205.849 219.758C189.466 214.968 175.077 204.996 164.84 191.337C154.603 177.678 149.07 161.069 149.07 144H84Z" fill="#9E2224"/>
<path d="M84 144C84 170.512 91.3192 196.51 105.151 219.128C118.983 241.745 138.79 260.106 162.391 272.185C185.991 284.265 212.468 289.594 238.904 287.587C265.34 285.579 290.709 276.312 312.215 260.807C333.72 245.302 350.528 224.161 360.785 199.714C371.043 175.267 374.352 148.462 370.349 122.254C366.345 96.0458 355.184 71.4518 338.095 51.1821C321.006 30.9124 298.653 15.7538 273.499 7.37695L252.987 68.9691C266.801 73.5695 279.077 81.8943 288.462 93.0261C297.847 104.158 303.976 117.664 306.175 132.057C308.374 146.45 306.557 161.171 300.923 174.597C295.29 188.023 286.06 199.633 274.249 208.148C262.439 216.663 248.507 221.753 233.988 222.855C219.47 223.958 204.93 221.031 191.969 214.397C179.008 207.763 168.13 197.68 160.534 185.259C152.937 172.837 148.918 158.56 148.918 144H84Z" fill="#D7A933"/>
<path d="M84 144C84 165.298 88.7245 186.332 97.8331 205.584C106.942 224.836 120.208 241.829 136.675 255.336C153.142 268.844 172.401 278.53 193.063 283.697C213.725 288.865 235.276 289.385 256.163 285.219C277.05 281.054 296.753 272.307 313.852 259.609C330.951 246.911 345.021 230.578 355.047 211.787C365.073 192.996 370.806 172.215 371.833 150.942C372.859 129.668 369.154 108.431 360.984 88.7624L301.313 113.548C305.817 124.391 307.86 136.099 307.294 147.827C306.728 159.555 303.567 171.011 298.04 181.37C292.513 191.73 284.756 200.734 275.329 207.734C265.903 214.735 255.041 219.557 243.526 221.853C232.011 224.149 220.13 223.863 208.739 221.014C197.348 218.165 186.731 212.825 177.653 205.379C168.575 197.932 161.262 188.564 156.24 177.951C151.219 167.337 148.614 155.742 148.614 144H84Z" fill="#347B5D"/>
<path d="M84 144C84 174.035 93.3914 203.318 110.86 227.75C128.328 252.183 152.999 270.542 181.419 280.258C209.839 289.973 240.585 290.56 269.355 281.934C298.124 273.308 323.477 255.903 341.863 232.154L290.8 192.62C280.659 205.719 266.676 215.318 250.809 220.076C234.941 224.833 217.983 224.51 202.309 219.151C186.634 213.793 173.027 203.667 163.393 190.191C153.758 176.716 148.579 160.565 148.579 144H84Z" fill="#92804C"/>
<path d="M84 144C84 174.859 93.9134 204.902 112.279 229.701C130.645 254.5 156.491 272.743 186.009 281.742L204.899 219.779C188.66 214.828 174.44 204.792 164.336 191.148C154.232 177.505 148.778 160.977 148.778 144H84Z" fill="#88451B"/>
<ellipse rx="15" ry="15.5" transform="matrix(-1 0 0 1 120 326.5)" fill="#88451B"/>
<ellipse rx="15" ry="15.5" transform="matrix(-1 0 0 1 120 376.5)" fill="#92804C"/>
<ellipse rx="15" ry="16" transform="matrix(-1 0 0 1 120 426)" fill="#347B5D"/>
<circle r="15" transform="matrix(-1 0 0 1 120 476)" fill="#D7A933"/>
<ellipse rx="15" ry="16" transform="matrix(-1 0 0 1 120 526)" fill="#9E2224"/>
<ellipse rx="15" ry="15.5" transform="matrix(-1 0 0 1 120 575.5)" fill="#FFD764"/>
<ellipse rx="15" ry="15.5" transform="matrix(-1 0 0 1 120 625.5)" fill="#CE6828"/>
<path d="M150.722 327.83C151.618 327.055 152.323 326.421 152.836 325.926C153.359 325.422 153.793 324.899 154.138 324.358C154.483 323.817 154.656 323.275 154.656 322.734C154.656 322.174 154.521 321.735 154.25 321.418C153.989 321.101 153.573 320.942 153.004 320.942C152.453 320.942 152.024 321.119 151.716 321.474C151.417 321.819 151.259 322.286 151.24 322.874H149.7C149.728 321.81 150.045 320.998 150.652 320.438C151.268 319.869 152.047 319.584 152.99 319.584C154.007 319.584 154.801 319.864 155.37 320.424C155.949 320.984 156.238 321.731 156.238 322.664C156.238 323.336 156.065 323.985 155.72 324.61C155.384 325.226 154.978 325.781 154.502 326.276C154.035 326.761 153.438 327.326 152.71 327.97L152.08 328.53H156.518V329.86H149.714V328.698L150.722 327.83ZM157.92 324.764C157.92 323.149 158.191 321.889 158.732 320.984C159.283 320.069 160.225 319.612 161.56 319.612C162.895 319.612 163.833 320.069 164.374 320.984C164.925 321.889 165.2 323.149 165.2 324.764C165.2 326.397 164.925 327.676 164.374 328.6C163.833 329.515 162.895 329.972 161.56 329.972C160.225 329.972 159.283 329.515 158.732 328.6C158.191 327.676 157.92 326.397 157.92 324.764ZM163.632 324.764C163.632 324.008 163.581 323.369 163.478 322.846C163.385 322.323 163.189 321.899 162.89 321.572C162.591 321.236 162.148 321.068 161.56 321.068C160.972 321.068 160.529 321.236 160.23 321.572C159.931 321.899 159.731 322.323 159.628 322.846C159.535 323.369 159.488 324.008 159.488 324.764C159.488 325.548 159.535 326.206 159.628 326.738C159.721 327.27 159.917 327.699 160.216 328.026C160.524 328.353 160.972 328.516 161.56 328.516C162.148 328.516 162.591 328.353 162.89 328.026C163.198 327.699 163.399 327.27 163.492 326.738C163.585 326.206 163.632 325.548 163.632 324.764ZM166.637 322.258C166.637 321.577 166.833 321.045 167.225 320.662C167.626 320.27 168.139 320.074 168.765 320.074C169.39 320.074 169.899 320.27 170.291 320.662C170.692 321.045 170.893 321.577 170.893 322.258C170.893 322.939 170.692 323.476 170.291 323.868C169.899 324.26 169.39 324.456 168.765 324.456C168.139 324.456 167.626 324.26 167.225 323.868C166.833 323.476 166.637 322.939 166.637 322.258ZM175.177 320.256L169.591 330H168.023L173.609 320.256H175.177ZM168.765 321.04C168.177 321.04 167.883 321.446 167.883 322.258C167.883 323.079 168.177 323.49 168.765 323.49C169.045 323.49 169.259 323.392 169.409 323.196C169.567 322.991 169.647 322.678 169.647 322.258C169.647 321.446 169.353 321.04 168.765 321.04ZM172.335 327.984C172.335 327.303 172.531 326.771 172.923 326.388C173.324 325.996 173.837 325.8 174.463 325.8C175.079 325.8 175.583 325.996 175.975 326.388C176.376 326.771 176.577 327.303 176.577 327.984C176.577 328.665 176.376 329.202 175.975 329.594C175.583 329.986 175.079 330.182 174.463 330.182C173.837 330.182 173.324 329.986 172.923 329.594C172.531 329.202 172.335 328.665 172.335 327.984ZM174.449 326.766C173.861 326.766 173.567 327.172 173.567 327.984C173.567 328.796 173.861 329.202 174.449 329.202C175.037 329.202 175.331 328.796 175.331 327.984C175.331 327.172 175.037 326.766 174.449 326.766ZM183.447 328.712H186.737V330H181.851V320.27H183.447V328.712ZM189.667 320.27V330H188.071V320.27H189.667ZM199.295 331.764L197.587 329.916C197.167 330.037 196.705 330.098 196.201 330.098C195.296 330.098 194.46 329.888 193.695 329.468C192.939 329.039 192.337 328.446 191.889 327.69C191.45 326.925 191.231 326.066 191.231 325.114C191.231 324.162 191.45 323.308 191.889 322.552C192.337 321.796 192.939 321.208 193.695 320.788C194.46 320.359 195.296 320.144 196.201 320.144C197.116 320.144 197.951 320.359 198.707 320.788C199.472 321.208 200.074 321.796 200.513 322.552C200.952 323.308 201.171 324.162 201.171 325.114C201.171 326.01 200.975 326.822 200.583 327.55C200.2 328.269 199.668 328.847 198.987 329.286L201.325 331.764H199.295ZM192.869 325.114C192.869 325.833 193.009 326.467 193.289 327.018C193.578 327.559 193.975 327.979 194.479 328.278C194.983 328.567 195.557 328.712 196.201 328.712C196.845 328.712 197.419 328.567 197.923 328.278C198.427 327.979 198.819 327.559 199.099 327.018C199.388 326.467 199.533 325.833 199.533 325.114C199.533 324.395 199.388 323.765 199.099 323.224C198.819 322.683 198.427 322.267 197.923 321.978C197.419 321.689 196.845 321.544 196.201 321.544C195.557 321.544 194.983 321.689 194.479 321.978C193.975 322.267 193.578 322.683 193.289 323.224C193.009 323.765 192.869 324.395 192.869 325.114ZM204.364 320.27V326.472C204.364 327.209 204.556 327.765 204.938 328.138C205.33 328.511 205.872 328.698 206.562 328.698C207.262 328.698 207.804 328.511 208.186 328.138C208.578 327.765 208.774 327.209 208.774 326.472V320.27H210.37V326.444C210.37 327.237 210.198 327.909 209.852 328.46C209.507 329.011 209.045 329.421 208.466 329.692C207.888 329.963 207.248 330.098 206.548 330.098C205.848 330.098 205.209 329.963 204.63 329.692C204.061 329.421 203.608 329.011 203.272 328.46C202.936 327.909 202.768 327.237 202.768 326.444V320.27H204.364ZM214.044 320.27V330H212.448V320.27H214.044ZM219.318 320.27C220.354 320.27 221.259 320.471 222.034 320.872C222.818 321.264 223.42 321.833 223.84 322.58C224.269 323.317 224.484 324.181 224.484 325.17C224.484 326.159 224.269 327.018 223.84 327.746C223.42 328.474 222.818 329.034 222.034 329.426C221.259 329.809 220.354 330 219.318 330H216.14V320.27H219.318ZM219.318 328.698C220.457 328.698 221.329 328.39 221.936 327.774C222.543 327.158 222.846 326.29 222.846 325.17C222.846 324.041 222.543 323.159 221.936 322.524C221.329 321.889 220.457 321.572 219.318 321.572H217.736V328.698H219.318ZM227.662 320.27V330H226.066V320.27H227.662ZM236.043 320.27V321.572H233.453V330H231.857V321.572H229.253V320.27H236.043ZM244.869 320.27L241.649 326.472V330H240.053V326.472L236.819 320.27H238.597L240.851 325.044L243.105 320.27H244.869Z" fill="white"/>
<path d="M150.722 377.83C151.618 377.055 152.323 376.421 152.836 375.926C153.359 375.422 153.793 374.899 154.138 374.358C154.483 373.817 154.656 373.275 154.656 372.734C154.656 372.174 154.521 371.735 154.25 371.418C153.989 371.101 153.573 370.942 153.004 370.942C152.453 370.942 152.024 371.119 151.716 371.474C151.417 371.819 151.259 372.286 151.24 372.874H149.7C149.728 371.81 150.045 370.998 150.652 370.438C151.268 369.869 152.047 369.584 152.99 369.584C154.007 369.584 154.801 369.864 155.37 370.424C155.949 370.984 156.238 371.731 156.238 372.664C156.238 373.336 156.065 373.985 155.72 374.61C155.384 375.226 154.978 375.781 154.502 376.276C154.035 376.761 153.438 377.326 152.71 377.97L152.08 378.53H156.518V379.86H149.714V378.698L150.722 377.83ZM157.92 374.764C157.92 373.149 158.191 371.889 158.732 370.984C159.283 370.069 160.225 369.612 161.56 369.612C162.895 369.612 163.833 370.069 164.374 370.984C164.925 371.889 165.2 373.149 165.2 374.764C165.2 376.397 164.925 377.676 164.374 378.6C163.833 379.515 162.895 379.972 161.56 379.972C160.225 379.972 159.283 379.515 158.732 378.6C158.191 377.676 157.92 376.397 157.92 374.764ZM163.632 374.764C163.632 374.008 163.581 373.369 163.478 372.846C163.385 372.323 163.189 371.899 162.89 371.572C162.591 371.236 162.148 371.068 161.56 371.068C160.972 371.068 160.529 371.236 160.23 371.572C159.931 371.899 159.731 372.323 159.628 372.846C159.535 373.369 159.488 374.008 159.488 374.764C159.488 375.548 159.535 376.206 159.628 376.738C159.721 377.27 159.917 377.699 160.216 378.026C160.524 378.353 160.972 378.516 161.56 378.516C162.148 378.516 162.591 378.353 162.89 378.026C163.198 377.699 163.399 377.27 163.492 376.738C163.585 376.206 163.632 375.548 163.632 374.764ZM166.637 372.258C166.637 371.577 166.833 371.045 167.225 370.662C167.626 370.27 168.139 370.074 168.765 370.074C169.39 370.074 169.899 370.27 170.291 370.662C170.692 371.045 170.893 371.577 170.893 372.258C170.893 372.939 170.692 373.476 170.291 373.868C169.899 374.26 169.39 374.456 168.765 374.456C168.139 374.456 167.626 374.26 167.225 373.868C166.833 373.476 166.637 372.939 166.637 372.258ZM175.177 370.256L169.591 380H168.023L173.609 370.256H175.177ZM168.765 371.04C168.177 371.04 167.883 371.446 167.883 372.258C167.883 373.079 168.177 373.49 168.765 373.49C169.045 373.49 169.259 373.392 169.409 373.196C169.567 372.991 169.647 372.678 169.647 372.258C169.647 371.446 169.353 371.04 168.765 371.04ZM172.335 377.984C172.335 377.303 172.531 376.771 172.923 376.388C173.324 375.996 173.837 375.8 174.463 375.8C175.079 375.8 175.583 375.996 175.975 376.388C176.376 376.771 176.577 377.303 176.577 377.984C176.577 378.665 176.376 379.202 175.975 379.594C175.583 379.986 175.079 380.182 174.463 380.182C173.837 380.182 173.324 379.986 172.923 379.594C172.531 379.202 172.335 378.665 172.335 377.984ZM174.449 376.766C173.861 376.766 173.567 377.172 173.567 377.984C173.567 378.796 173.861 379.202 174.449 379.202C175.037 379.202 175.331 378.796 175.331 377.984C175.331 377.172 175.037 376.766 174.449 376.766ZM183.447 371.558V374.414H186.807V375.716H183.447V378.698H187.227V380H181.851V370.256H187.227V371.558H183.447ZM188.661 375.114C188.661 374.162 188.88 373.308 189.319 372.552C189.767 371.796 190.369 371.208 191.125 370.788C191.89 370.359 192.725 370.144 193.631 370.144C194.667 370.144 195.586 370.401 196.389 370.914C197.201 371.418 197.789 372.137 198.153 373.07H196.235C195.983 372.557 195.633 372.174 195.185 371.922C194.737 371.67 194.219 371.544 193.631 371.544C192.987 371.544 192.413 371.689 191.909 371.978C191.405 372.267 191.008 372.683 190.719 373.224C190.439 373.765 190.299 374.395 190.299 375.114C190.299 375.833 190.439 376.463 190.719 377.004C191.008 377.545 191.405 377.965 191.909 378.264C192.413 378.553 192.987 378.698 193.631 378.698C194.219 378.698 194.737 378.572 195.185 378.32C195.633 378.068 195.983 377.685 196.235 377.172H198.153C197.789 378.105 197.201 378.824 196.389 379.328C195.586 379.832 194.667 380.084 193.631 380.084C192.716 380.084 191.881 379.874 191.125 379.454C190.369 379.025 189.767 378.432 189.319 377.676C188.88 376.92 188.661 376.066 188.661 375.114ZM204.459 380.098C203.553 380.098 202.718 379.888 201.953 379.468C201.197 379.039 200.595 378.446 200.147 377.69C199.708 376.925 199.489 376.066 199.489 375.114C199.489 374.162 199.708 373.308 200.147 372.552C200.595 371.796 201.197 371.208 201.953 370.788C202.718 370.359 203.553 370.144 204.459 370.144C205.373 370.144 206.209 370.359 206.965 370.788C207.73 371.208 208.332 371.796 208.771 372.552C209.209 373.308 209.429 374.162 209.429 375.114C209.429 376.066 209.209 376.925 208.771 377.69C208.332 378.446 207.73 379.039 206.965 379.468C206.209 379.888 205.373 380.098 204.459 380.098ZM204.459 378.712C205.103 378.712 205.677 378.567 206.181 378.278C206.685 377.979 207.077 377.559 207.357 377.018C207.646 376.467 207.791 375.833 207.791 375.114C207.791 374.395 207.646 373.765 207.357 373.224C207.077 372.683 206.685 372.267 206.181 371.978C205.677 371.689 205.103 371.544 204.459 371.544C203.815 371.544 203.241 371.689 202.737 371.978C202.233 372.267 201.836 372.683 201.547 373.224C201.267 373.765 201.127 374.395 201.127 375.114C201.127 375.833 201.267 376.467 201.547 377.018C201.836 377.559 202.233 377.979 202.737 378.278C203.241 378.567 203.815 378.712 204.459 378.712ZM214.205 380.098C213.552 380.098 212.964 379.986 212.441 379.762C211.919 379.529 211.508 379.202 211.209 378.782C210.911 378.362 210.761 377.872 210.761 377.312H212.469C212.507 377.732 212.67 378.077 212.959 378.348C213.258 378.619 213.673 378.754 214.205 378.754C214.756 378.754 215.185 378.623 215.493 378.362C215.801 378.091 215.955 377.746 215.955 377.326C215.955 376.999 215.857 376.733 215.661 376.528C215.475 376.323 215.237 376.164 214.947 376.052C214.667 375.94 214.275 375.819 213.771 375.688C213.137 375.52 212.619 375.352 212.217 375.184C211.825 375.007 211.489 374.736 211.209 374.372C210.929 374.008 210.789 373.523 210.789 372.916C210.789 372.356 210.929 371.866 211.209 371.446C211.489 371.026 211.881 370.704 212.385 370.48C212.889 370.256 213.473 370.144 214.135 370.144C215.078 370.144 215.848 370.382 216.445 370.858C217.052 371.325 217.388 371.969 217.453 372.79H215.689C215.661 372.435 215.493 372.132 215.185 371.88C214.877 371.628 214.471 371.502 213.967 371.502C213.51 371.502 213.137 371.619 212.847 371.852C212.558 372.085 212.413 372.421 212.413 372.86C212.413 373.159 212.502 373.406 212.679 373.602C212.866 373.789 213.099 373.938 213.379 374.05C213.659 374.162 214.042 374.283 214.527 374.414C215.171 374.591 215.694 374.769 216.095 374.946C216.506 375.123 216.851 375.399 217.131 375.772C217.421 376.136 217.565 376.626 217.565 377.242C217.565 377.737 217.43 378.203 217.159 378.642C216.898 379.081 216.511 379.435 215.997 379.706C215.493 379.967 214.896 380.098 214.205 380.098ZM226.658 370.27L223.438 376.472V380H221.842V376.472L218.608 370.27H220.386L222.64 375.044L224.894 370.27H226.658ZM231.131 380.098C230.478 380.098 229.89 379.986 229.367 379.762C228.844 379.529 228.434 379.202 228.135 378.782C227.836 378.362 227.687 377.872 227.687 377.312H229.395C229.432 377.732 229.596 378.077 229.885 378.348C230.184 378.619 230.599 378.754 231.131 378.754C231.682 378.754 232.111 378.623 232.419 378.362C232.727 378.091 232.881 377.746 232.881 377.326C232.881 376.999 232.783 376.733 232.587 376.528C232.4 376.323 232.162 376.164 231.873 376.052C231.593 375.94 231.201 375.819 230.697 375.688C230.062 375.52 229.544 375.352 229.143 375.184C228.751 375.007 228.415 374.736 228.135 374.372C227.855 374.008 227.715 373.523 227.715 372.916C227.715 372.356 227.855 371.866 228.135 371.446C228.415 371.026 228.807 370.704 229.311 370.48C229.815 370.256 230.398 370.144 231.061 370.144C232.004 370.144 232.774 370.382 233.371 370.858C233.978 371.325 234.314 371.969 234.379 372.79H232.615C232.587 372.435 232.419 372.132 232.111 371.88C231.803 371.628 231.397 371.502 230.893 371.502C230.436 371.502 230.062 371.619 229.773 371.852C229.484 372.085 229.339 372.421 229.339 372.86C229.339 373.159 229.428 373.406 229.605 373.602C229.792 373.789 230.025 373.938 230.305 374.05C230.585 374.162 230.968 374.283 231.453 374.414C232.097 374.591 232.62 374.769 233.021 374.946C233.432 375.123 233.777 375.399 234.057 375.772C234.346 376.136 234.491 376.626 234.491 377.242C234.491 377.737 234.356 378.203 234.085 378.642C233.824 379.081 233.436 379.435 232.923 379.706C232.419 379.967 231.822 380.098 231.131 380.098ZM242.66 370.27V371.572H240.07V380H238.474V371.572H235.87V370.27H242.66ZM245.873 371.558V374.414H249.233V375.716H245.873V378.698H249.653V380H244.277V370.256H249.653V371.558H245.873ZM261.866 370.27V380H260.27V373.336L257.302 380H256.196L253.214 373.336V380H251.618V370.27H253.34L256.756 377.9L260.158 370.27H261.866ZM270.779 370.27C271.815 370.27 272.72 370.471 273.495 370.872C274.279 371.264 274.881 371.833 275.301 372.58C275.73 373.317 275.945 374.181 275.945 375.17C275.945 376.159 275.73 377.018 275.301 377.746C274.881 378.474 274.279 379.034 273.495 379.426C272.72 379.809 271.815 380 270.779 380H267.601V370.27H270.779ZM270.779 378.698C271.917 378.698 272.79 378.39 273.397 377.774C274.003 377.158 274.307 376.29 274.307 375.17C274.307 374.041 274.003 373.159 273.397 372.524C272.79 371.889 271.917 371.572 270.779 371.572H269.197V378.698H270.779ZM279.123 371.558V374.414H282.483V375.716H279.123V378.698H282.903V380H277.527V370.256H282.903V371.558H279.123ZM293.254 370.27L289.6 380H287.752L284.084 370.27H285.792L288.676 378.362L291.574 370.27H293.254ZM296.185 371.558V374.414H299.545V375.716H296.185V378.698H299.965V380H294.589V370.256H299.965V371.558H296.185ZM303.527 378.712H306.817V380H301.931V370.27H303.527V378.712ZM312.59 380.098C311.684 380.098 310.849 379.888 310.084 379.468C309.328 379.039 308.726 378.446 308.278 377.69C307.839 376.925 307.62 376.066 307.62 375.114C307.62 374.162 307.839 373.308 308.278 372.552C308.726 371.796 309.328 371.208 310.084 370.788C310.849 370.359 311.684 370.144 312.59 370.144C313.504 370.144 314.34 370.359 315.096 370.788C315.861 371.208 316.463 371.796 316.902 372.552C317.34 373.308 317.56 374.162 317.56 375.114C317.56 376.066 317.34 376.925 316.902 377.69C316.463 378.446 315.861 379.039 315.096 379.468C314.34 379.888 313.504 380.098 312.59 380.098ZM312.59 378.712C313.234 378.712 313.808 378.567 314.312 378.278C314.816 377.979 315.208 377.559 315.488 377.018C315.777 376.467 315.922 375.833 315.922 375.114C315.922 374.395 315.777 373.765 315.488 373.224C315.208 372.683 314.816 372.267 314.312 371.978C313.808 371.689 313.234 371.544 312.59 371.544C311.946 371.544 311.372 371.689 310.868 371.978C310.364 372.267 309.967 372.683 309.678 373.224C309.398 373.765 309.258 374.395 309.258 375.114C309.258 375.833 309.398 376.467 309.678 377.018C309.967 377.559 310.364 377.979 310.868 378.278C311.372 378.567 311.946 378.712 312.59 378.712ZM325.934 373.168C325.934 373.663 325.817 374.129 325.584 374.568C325.351 375.007 324.977 375.366 324.464 375.646C323.951 375.917 323.293 376.052 322.49 376.052H320.726V380H319.13V370.27H322.49C323.237 370.27 323.867 370.401 324.38 370.662C324.903 370.914 325.29 371.259 325.542 371.698C325.803 372.137 325.934 372.627 325.934 373.168ZM322.49 374.75C323.097 374.75 323.549 374.615 323.848 374.344C324.147 374.064 324.296 373.672 324.296 373.168C324.296 372.104 323.694 371.572 322.49 371.572H320.726V374.75H322.49ZM337.704 370.27V380H336.108V373.336L333.14 380H332.034L329.052 373.336V380H327.456V370.27H329.178L332.594 377.9L335.996 370.27H337.704ZM341.398 371.558V374.414H344.758V375.716H341.398V378.698H345.178V380H339.802V370.256H345.178V371.558H341.398ZM355.138 380H353.542L348.74 372.734V380H347.144V370.256H348.74L353.542 377.508V370.256H355.138V380ZM363.52 370.27V371.572H360.93V380H359.334V371.572H356.73V370.27H363.52Z" fill="white"/>
<path d="M148.63 421.25V419.794H151.542V430H149.932V421.25H148.63ZM159.223 422.16C159.12 421.731 158.933 421.409 158.663 421.194C158.392 420.979 158.014 420.872 157.529 420.872C156.791 420.872 156.241 421.157 155.877 421.726C155.513 422.286 155.321 423.219 155.303 424.526C155.545 424.115 155.9 423.798 156.367 423.574C156.833 423.35 157.337 423.238 157.879 423.238C158.495 423.238 159.036 423.373 159.503 423.644C159.979 423.905 160.347 424.288 160.609 424.792C160.879 425.296 161.015 425.898 161.015 426.598C161.015 427.251 160.884 427.835 160.623 428.348C160.371 428.861 159.993 429.267 159.489 429.566C158.985 429.855 158.378 430 157.669 430C156.707 430 155.951 429.79 155.401 429.37C154.859 428.941 154.477 428.339 154.253 427.564C154.038 426.789 153.931 425.823 153.931 424.666C153.931 421.25 155.135 419.542 157.543 419.542C158.476 419.542 159.209 419.794 159.741 420.298C160.282 420.802 160.599 421.423 160.693 422.16H159.223ZM157.529 424.582C156.959 424.582 156.474 424.755 156.073 425.1C155.681 425.436 155.485 425.926 155.485 426.57C155.485 427.214 155.667 427.727 156.031 428.11C156.404 428.483 156.922 428.67 157.585 428.67C158.173 428.67 158.635 428.488 158.971 428.124C159.316 427.76 159.489 427.275 159.489 426.668C159.489 426.033 159.321 425.529 158.985 425.156C158.658 424.773 158.173 424.582 157.529 424.582ZM163.571 430.098C163.282 430.098 163.039 430 162.843 429.804C162.647 429.608 162.549 429.365 162.549 429.076C162.549 428.787 162.647 428.544 162.843 428.348C163.039 428.152 163.282 428.054 163.571 428.054C163.851 428.054 164.089 428.152 164.285 428.348C164.481 428.544 164.579 428.787 164.579 429.076C164.579 429.365 164.481 429.608 164.285 429.804C164.089 430 163.851 430.098 163.571 430.098ZM171.582 422.16C171.479 421.731 171.293 421.409 171.022 421.194C170.751 420.979 170.373 420.872 169.888 420.872C169.151 420.872 168.6 421.157 168.236 421.726C167.872 422.286 167.681 423.219 167.662 424.526C167.905 424.115 168.259 423.798 168.726 423.574C169.193 423.35 169.697 423.238 170.238 423.238C170.854 423.238 171.395 423.373 171.862 423.644C172.338 423.905 172.707 424.288 172.968 424.792C173.239 425.296 173.374 425.898 173.374 426.598C173.374 427.251 173.243 427.835 172.982 428.348C172.73 428.861 172.352 429.267 171.848 429.566C171.344 429.855 170.737 430 170.028 430C169.067 430 168.311 429.79 167.76 429.37C167.219 428.941 166.836 428.339 166.612 427.564C166.397 426.789 166.29 425.823 166.29 424.666C166.29 421.25 167.494 419.542 169.902 419.542C170.835 419.542 171.568 419.794 172.1 420.298C172.641 420.802 172.959 421.423 173.052 422.16H171.582ZM169.888 424.582C169.319 424.582 168.833 424.755 168.432 425.1C168.04 425.436 167.844 425.926 167.844 426.57C167.844 427.214 168.026 427.727 168.39 428.11C168.763 428.483 169.281 428.67 169.944 428.67C170.532 428.67 170.994 428.488 171.33 428.124C171.675 427.76 171.848 427.275 171.848 426.668C171.848 426.033 171.68 425.529 171.344 425.156C171.017 424.773 170.532 424.582 169.888 424.582ZM181.544 421.026L177.652 430H176.042L179.976 421.194H174.796V419.836H181.544V421.026ZM182.658 422.258C182.658 421.577 182.854 421.045 183.246 420.662C183.648 420.27 184.161 420.074 184.786 420.074C185.412 420.074 185.92 420.27 186.312 420.662C186.714 421.045 186.914 421.577 186.914 422.258C186.914 422.939 186.714 423.476 186.312 423.868C185.92 424.26 185.412 424.456 184.786 424.456C184.161 424.456 183.648 424.26 183.246 423.868C182.854 423.476 182.658 422.939 182.658 422.258ZM191.198 420.256L185.612 430H184.044L189.63 420.256H191.198ZM184.786 421.04C184.198 421.04 183.904 421.446 183.904 422.258C183.904 423.079 184.198 423.49 184.786 423.49C185.066 423.49 185.281 423.392 185.43 423.196C185.589 422.991 185.668 422.678 185.668 422.258C185.668 421.446 185.374 421.04 184.786 421.04ZM188.356 427.984C188.356 427.303 188.552 426.771 188.944 426.388C189.346 425.996 189.859 425.8 190.484 425.8C191.1 425.8 191.604 425.996 191.996 426.388C192.398 426.771 192.598 427.303 192.598 427.984C192.598 428.665 192.398 429.202 191.996 429.594C191.604 429.986 191.1 430.182 190.484 430.182C189.859 430.182 189.346 429.986 188.944 429.594C188.552 429.202 188.356 428.665 188.356 427.984ZM190.47 426.766C189.882 426.766 189.588 427.172 189.588 427.984C189.588 428.796 189.882 429.202 190.47 429.202C191.058 429.202 191.352 428.796 191.352 427.984C191.352 427.172 191.058 426.766 190.47 426.766ZM204.676 423.168C204.676 423.663 204.56 424.129 204.326 424.568C204.093 425.007 203.72 425.366 203.206 425.646C202.693 425.917 202.035 426.052 201.232 426.052H199.468V430H197.872V420.27H201.232C201.979 420.27 202.609 420.401 203.122 420.662C203.645 420.914 204.032 421.259 204.284 421.698C204.546 422.137 204.676 422.627 204.676 423.168ZM201.232 424.75C201.839 424.75 202.292 424.615 202.59 424.344C202.889 424.064 203.038 423.672 203.038 423.168C203.038 422.104 202.436 421.572 201.232 421.572H199.468V424.75H201.232ZM211.252 430L209.012 426.108H207.794V430H206.198V420.27H209.558C210.305 420.27 210.935 420.401 211.448 420.662C211.971 420.923 212.358 421.273 212.61 421.712C212.872 422.151 213.002 422.641 213.002 423.182C213.002 423.817 212.816 424.395 212.442 424.918C212.078 425.431 211.514 425.781 210.748 425.968L213.156 430H211.252ZM207.794 424.834H209.558C210.156 424.834 210.604 424.685 210.902 424.386C211.21 424.087 211.364 423.686 211.364 423.182C211.364 422.678 211.215 422.286 210.916 422.006C210.618 421.717 210.165 421.572 209.558 421.572H207.794V424.834ZM216.64 421.558V424.414H220V425.716H216.64V428.698H220.42V430H215.044V420.256H220.42V421.558H216.64ZM225.592 430.098C224.939 430.098 224.351 429.986 223.828 429.762C223.305 429.529 222.895 429.202 222.596 428.782C222.297 428.362 222.148 427.872 222.148 427.312H223.856C223.893 427.732 224.057 428.077 224.346 428.348C224.645 428.619 225.06 428.754 225.592 428.754C226.143 428.754 226.572 428.623 226.88 428.362C227.188 428.091 227.342 427.746 227.342 427.326C227.342 426.999 227.244 426.733 227.048 426.528C226.861 426.323 226.623 426.164 226.334 426.052C226.054 425.94 225.662 425.819 225.158 425.688C224.523 425.52 224.005 425.352 223.604 425.184C223.212 425.007 222.876 424.736 222.596 424.372C222.316 424.008 222.176 423.523 222.176 422.916C222.176 422.356 222.316 421.866 222.596 421.446C222.876 421.026 223.268 420.704 223.772 420.48C224.276 420.256 224.859 420.144 225.522 420.144C226.465 420.144 227.235 420.382 227.832 420.858C228.439 421.325 228.775 421.969 228.84 422.79H227.076C227.048 422.435 226.88 422.132 226.572 421.88C226.264 421.628 225.858 421.502 225.354 421.502C224.897 421.502 224.523 421.619 224.234 421.852C223.945 422.085 223.8 422.421 223.8 422.86C223.8 423.159 223.889 423.406 224.066 423.602C224.253 423.789 224.486 423.938 224.766 424.05C225.046 424.162 225.429 424.283 225.914 424.414C226.558 424.591 227.081 424.769 227.482 424.946C227.893 425.123 228.238 425.399 228.518 425.772C228.807 426.136 228.952 426.626 228.952 427.242C228.952 427.737 228.817 428.203 228.546 428.642C228.285 429.081 227.897 429.435 227.384 429.706C226.88 429.967 226.283 430.098 225.592 430.098ZM236.701 428.012H232.627L231.927 430H230.261L233.747 420.256H235.595L239.081 430H237.401L236.701 428.012ZM236.253 426.71L234.671 422.188L233.075 426.71H236.253ZM242.193 428.712H245.483V430H240.597V420.27H242.193V428.712ZM248.414 421.558V424.414H251.774V425.716H248.414V428.698H252.194V430H246.818V420.256H252.194V421.558H248.414Z" fill="white"/>
<path d="M149.63 471.25V469.794H152.542V480H150.932V471.25H149.63ZM161.315 471.166H156.625V473.952C156.821 473.691 157.11 473.471 157.493 473.294C157.885 473.117 158.3 473.028 158.739 473.028C159.523 473.028 160.157 473.196 160.643 473.532C161.137 473.868 161.487 474.293 161.693 474.806C161.907 475.319 162.015 475.861 162.015 476.43C162.015 477.121 161.879 477.737 161.609 478.278C161.347 478.81 160.951 479.23 160.419 479.538C159.896 479.846 159.252 480 158.487 480C157.469 480 156.653 479.748 156.037 479.244C155.421 478.74 155.052 478.073 154.931 477.242H156.485C156.587 477.681 156.816 478.031 157.171 478.292C157.525 478.544 157.969 478.67 158.501 478.67C159.163 478.67 159.658 478.469 159.985 478.068C160.321 477.667 160.489 477.135 160.489 476.472C160.489 475.8 160.321 475.287 159.985 474.932C159.649 474.568 159.154 474.386 158.501 474.386C158.043 474.386 157.656 474.503 157.339 474.736C157.031 474.96 156.807 475.268 156.667 475.66H155.155V469.766H161.315V471.166ZM163.424 472.258C163.424 471.577 163.62 471.045 164.012 470.662C164.413 470.27 164.927 470.074 165.552 470.074C166.177 470.074 166.686 470.27 167.078 470.662C167.479 471.045 167.68 471.577 167.68 472.258C167.68 472.939 167.479 473.476 167.078 473.868C166.686 474.26 166.177 474.456 165.552 474.456C164.927 474.456 164.413 474.26 164.012 473.868C163.62 473.476 163.424 472.939 163.424 472.258ZM171.964 470.256L166.378 480H164.81L170.396 470.256H171.964ZM165.552 471.04C164.964 471.04 164.67 471.446 164.67 472.258C164.67 473.079 164.964 473.49 165.552 473.49C165.832 473.49 166.047 473.392 166.196 473.196C166.355 472.991 166.434 472.678 166.434 472.258C166.434 471.446 166.14 471.04 165.552 471.04ZM169.122 477.984C169.122 477.303 169.318 476.771 169.71 476.388C170.111 475.996 170.625 475.8 171.25 475.8C171.866 475.8 172.37 475.996 172.762 476.388C173.163 476.771 173.364 477.303 173.364 477.984C173.364 478.665 173.163 479.202 172.762 479.594C172.37 479.986 171.866 480.182 171.25 480.182C170.625 480.182 170.111 479.986 169.71 479.594C169.318 479.202 169.122 478.665 169.122 477.984ZM171.236 476.766C170.648 476.766 170.354 477.172 170.354 477.984C170.354 478.796 170.648 479.202 171.236 479.202C171.824 479.202 172.118 478.796 172.118 477.984C172.118 477.172 171.824 476.766 171.236 476.766ZM184.504 478.012H180.43L179.73 480H178.064L181.55 470.256H183.398L186.884 480H185.204L184.504 478.012ZM184.056 476.71L182.474 472.188L180.878 476.71H184.056ZM189.996 470.27V480H188.4V470.27H189.996ZM197.145 480L194.905 476.108H193.687V480H192.091V470.27H195.451C196.198 470.27 196.828 470.401 197.341 470.662C197.864 470.923 198.251 471.273 198.503 471.712C198.764 472.151 198.895 472.641 198.895 473.182C198.895 473.817 198.708 474.395 198.335 474.918C197.971 475.431 197.406 475.781 196.641 475.968L199.049 480H197.145ZM193.687 474.834H195.451C196.048 474.834 196.496 474.685 196.795 474.386C197.103 474.087 197.257 473.686 197.257 473.182C197.257 472.678 197.108 472.286 196.809 472.006C196.51 471.717 196.058 471.572 195.451 471.572H193.687V474.834ZM204.115 470.27C205.151 470.27 206.056 470.471 206.831 470.872C207.615 471.264 208.217 471.833 208.637 472.58C209.066 473.317 209.281 474.181 209.281 475.17C209.281 476.159 209.066 477.018 208.637 477.746C208.217 478.474 207.615 479.034 206.831 479.426C206.056 479.809 205.151 480 204.115 480H200.937V470.27H204.115ZM204.115 478.698C205.253 478.698 206.126 478.39 206.733 477.774C207.339 477.158 207.643 476.29 207.643 475.17C207.643 474.041 207.339 473.159 206.733 472.524C206.126 471.889 205.253 471.572 204.115 471.572H202.533V478.698H204.115ZM215.917 480L213.677 476.108H212.459V480H210.863V470.27H214.223C214.969 470.27 215.599 470.401 216.113 470.662C216.635 470.923 217.023 471.273 217.275 471.712C217.536 472.151 217.667 472.641 217.667 473.182C217.667 473.817 217.48 474.395 217.107 474.918C216.743 475.431 216.178 475.781 215.413 475.968L217.821 480H215.917ZM212.459 474.834H214.223C214.82 474.834 215.268 474.685 215.567 474.386C215.875 474.087 216.029 473.686 216.029 473.182C216.029 472.678 215.879 472.286 215.581 472.006C215.282 471.717 214.829 471.572 214.223 471.572H212.459V474.834ZM224.146 480.098C223.241 480.098 222.406 479.888 221.64 479.468C220.884 479.039 220.282 478.446 219.834 477.69C219.396 476.925 219.176 476.066 219.176 475.114C219.176 474.162 219.396 473.308 219.834 472.552C220.282 471.796 220.884 471.208 221.64 470.788C222.406 470.359 223.241 470.144 224.146 470.144C225.061 470.144 225.896 470.359 226.652 470.788C227.418 471.208 228.02 471.796 228.458 472.552C228.897 473.308 229.116 474.162 229.116 475.114C229.116 476.066 228.897 476.925 228.458 477.69C228.02 478.446 227.418 479.039 226.652 479.468C225.896 479.888 225.061 480.098 224.146 480.098ZM224.146 478.712C224.79 478.712 225.364 478.567 225.868 478.278C226.372 477.979 226.764 477.559 227.044 477.018C227.334 476.467 227.478 475.833 227.478 475.114C227.478 474.395 227.334 473.765 227.044 473.224C226.764 472.683 226.372 472.267 225.868 471.978C225.364 471.689 224.79 471.544 224.146 471.544C223.502 471.544 222.928 471.689 222.424 471.978C221.92 472.267 221.524 472.683 221.234 473.224C220.954 473.765 220.814 474.395 220.814 475.114C220.814 475.833 220.954 476.467 221.234 477.018C221.524 477.559 221.92 477.979 222.424 478.278C222.928 478.567 223.502 478.712 224.146 478.712ZM237.491 473.168C237.491 473.663 237.374 474.129 237.141 474.568C236.907 475.007 236.534 475.366 236.021 475.646C235.507 475.917 234.849 476.052 234.047 476.052H232.283V480H230.687V470.27H234.047C234.793 470.27 235.423 470.401 235.937 470.662C236.459 470.914 236.847 471.259 237.099 471.698C237.36 472.137 237.491 472.627 237.491 473.168ZM234.047 474.75C234.653 474.75 235.106 474.615 235.405 474.344C235.703 474.064 235.853 473.672 235.853 473.168C235.853 472.104 235.251 471.572 234.047 471.572H232.283V474.75H234.047Z" fill="white"/>
<path d="M149.63 521.25V519.794H152.542V530H150.932V521.25H149.63ZM154.735 524.764C154.735 523.149 155.005 521.889 155.547 520.984C156.097 520.069 157.04 519.612 158.375 519.612C159.709 519.612 160.647 520.069 161.189 520.984C161.739 521.889 162.015 523.149 162.015 524.764C162.015 526.397 161.739 527.676 161.189 528.6C160.647 529.515 159.709 529.972 158.375 529.972C157.04 529.972 156.097 529.515 155.547 528.6C155.005 527.676 154.735 526.397 154.735 524.764ZM160.447 524.764C160.447 524.008 160.395 523.369 160.293 522.846C160.199 522.323 160.003 521.899 159.705 521.572C159.406 521.236 158.963 521.068 158.375 521.068C157.787 521.068 157.343 521.236 157.045 521.572C156.746 521.899 156.545 522.323 156.443 522.846C156.349 523.369 156.303 524.008 156.303 524.764C156.303 525.548 156.349 526.206 156.443 526.738C156.536 527.27 156.732 527.699 157.031 528.026C157.339 528.353 157.787 528.516 158.375 528.516C158.963 528.516 159.406 528.353 159.705 528.026C160.013 527.699 160.213 527.27 160.307 526.738C160.4 526.206 160.447 525.548 160.447 524.764ZM163.451 522.258C163.451 521.577 163.647 521.045 164.039 520.662C164.441 520.27 164.954 520.074 165.579 520.074C166.205 520.074 166.713 520.27 167.105 520.662C167.507 521.045 167.707 521.577 167.707 522.258C167.707 522.939 167.507 523.476 167.105 523.868C166.713 524.26 166.205 524.456 165.579 524.456C164.954 524.456 164.441 524.26 164.039 523.868C163.647 523.476 163.451 522.939 163.451 522.258ZM171.991 520.256L166.405 530H164.837L170.423 520.256H171.991ZM165.579 521.04C164.991 521.04 164.697 521.446 164.697 522.258C164.697 523.079 164.991 523.49 165.579 523.49C165.859 523.49 166.074 523.392 166.223 523.196C166.382 522.991 166.461 522.678 166.461 522.258C166.461 521.446 166.167 521.04 165.579 521.04ZM169.149 527.984C169.149 527.303 169.345 526.771 169.737 526.388C170.139 525.996 170.652 525.8 171.277 525.8C171.893 525.8 172.397 525.996 172.789 526.388C173.191 526.771 173.391 527.303 173.391 527.984C173.391 528.665 173.191 529.202 172.789 529.594C172.397 529.986 171.893 530.182 171.277 530.182C170.652 530.182 170.139 529.986 169.737 529.594C169.345 529.202 169.149 528.665 169.149 527.984ZM171.263 526.766C170.675 526.766 170.381 527.172 170.381 527.984C170.381 528.796 170.675 529.202 171.263 529.202C171.851 529.202 172.145 528.796 172.145 527.984C172.145 527.172 171.851 526.766 171.263 526.766ZM188.913 520.27V530H187.317V523.336L184.349 530H183.243L180.261 523.336V530H178.665V520.27H180.387L183.803 527.9L187.205 520.27H188.913ZM196.877 528.012H192.803L192.103 530H190.437L193.923 520.256H195.771L199.257 530H197.577L196.877 528.012ZM196.429 526.71L194.847 522.188L193.251 526.71H196.429ZM205.827 530L203.587 526.108H202.369V530H200.773V520.27H204.133C204.879 520.27 205.509 520.401 206.023 520.662C206.545 520.923 206.933 521.273 207.185 521.712C207.446 522.151 207.577 522.641 207.577 523.182C207.577 523.817 207.39 524.395 207.017 524.918C206.653 525.431 206.088 525.781 205.323 525.968L207.731 530H205.827ZM202.369 524.834H204.133C204.73 524.834 205.178 524.685 205.477 524.386C205.785 524.087 205.939 523.686 205.939 523.182C205.939 522.678 205.789 522.286 205.491 522.006C205.192 521.717 204.739 521.572 204.133 521.572H202.369V524.834ZM214.98 530L211.214 525.646V530H209.618V520.27H211.214V524.708L214.994 520.27H216.996L212.768 525.142L217.066 530H214.98ZM220.074 521.558V524.414H223.434V525.716H220.074V528.698H223.854V530H218.478V520.256H223.854V521.558H220.074ZM232.106 520.27V521.572H229.516V530H227.92V521.572H225.316V520.27H232.106ZM235.318 520.27V530H233.722V520.27H235.318ZM245.407 530H243.811L239.009 522.734V530H237.413V520.256H239.009L243.811 527.508V520.256H245.407V530ZM254.545 523.07C254.293 522.585 253.943 522.221 253.495 521.978C253.047 521.726 252.529 521.6 251.941 521.6C251.297 521.6 250.723 521.745 250.219 522.034C249.715 522.323 249.318 522.734 249.029 523.266C248.749 523.798 248.609 524.414 248.609 525.114C248.609 525.814 248.749 526.435 249.029 526.976C249.318 527.508 249.715 527.919 250.219 528.208C250.723 528.497 251.297 528.642 251.941 528.642C252.809 528.642 253.514 528.399 254.055 527.914C254.596 527.429 254.928 526.771 255.049 525.94H251.395V524.666H256.757V525.912C256.654 526.668 256.384 527.363 255.945 527.998C255.516 528.633 254.951 529.141 254.251 529.524C253.56 529.897 252.79 530.084 251.941 530.084C251.026 530.084 250.191 529.874 249.435 529.454C248.679 529.025 248.077 528.432 247.629 527.676C247.19 526.92 246.971 526.066 246.971 525.114C246.971 524.162 247.19 523.308 247.629 522.552C248.077 521.796 248.679 521.208 249.435 520.788C250.2 520.359 251.036 520.144 251.941 520.144C252.977 520.144 253.896 520.401 254.699 520.914C255.511 521.418 256.099 522.137 256.463 523.07H254.545Z" fill="white"/>
<path d="M149.63 571.25V569.794H152.542V580H150.932V571.25H149.63ZM154.735 574.764C154.735 573.149 155.005 571.889 155.547 570.984C156.097 570.069 157.04 569.612 158.375 569.612C159.709 569.612 160.647 570.069 161.189 570.984C161.739 571.889 162.015 573.149 162.015 574.764C162.015 576.397 161.739 577.676 161.189 578.6C160.647 579.515 159.709 579.972 158.375 579.972C157.04 579.972 156.097 579.515 155.547 578.6C155.005 577.676 154.735 576.397 154.735 574.764ZM160.447 574.764C160.447 574.008 160.395 573.369 160.293 572.846C160.199 572.323 160.003 571.899 159.705 571.572C159.406 571.236 158.963 571.068 158.375 571.068C157.787 571.068 157.343 571.236 157.045 571.572C156.746 571.899 156.545 572.323 156.443 572.846C156.349 573.369 156.303 574.008 156.303 574.764C156.303 575.548 156.349 576.206 156.443 576.738C156.536 577.27 156.732 577.699 157.031 578.026C157.339 578.353 157.787 578.516 158.375 578.516C158.963 578.516 159.406 578.353 159.705 578.026C160.013 577.699 160.213 577.27 160.307 576.738C160.4 576.206 160.447 575.548 160.447 574.764ZM163.451 572.258C163.451 571.577 163.647 571.045 164.039 570.662C164.441 570.27 164.954 570.074 165.579 570.074C166.205 570.074 166.713 570.27 167.105 570.662C167.507 571.045 167.707 571.577 167.707 572.258C167.707 572.939 167.507 573.476 167.105 573.868C166.713 574.26 166.205 574.456 165.579 574.456C164.954 574.456 164.441 574.26 164.039 573.868C163.647 573.476 163.451 572.939 163.451 572.258ZM171.991 570.256L166.405 580H164.837L170.423 570.256H171.991ZM165.579 571.04C164.991 571.04 164.697 571.446 164.697 572.258C164.697 573.079 164.991 573.49 165.579 573.49C165.859 573.49 166.074 573.392 166.223 573.196C166.382 572.991 166.461 572.678 166.461 572.258C166.461 571.446 166.167 571.04 165.579 571.04ZM169.149 577.984C169.149 577.303 169.345 576.771 169.737 576.388C170.139 575.996 170.652 575.8 171.277 575.8C171.893 575.8 172.397 575.996 172.789 576.388C173.191 576.771 173.391 577.303 173.391 577.984C173.391 578.665 173.191 579.202 172.789 579.594C172.397 579.986 171.893 580.182 171.277 580.182C170.652 580.182 170.139 579.986 169.737 579.594C169.345 579.202 169.149 578.665 169.149 577.984ZM171.263 576.766C170.675 576.766 170.381 577.172 170.381 577.984C170.381 578.796 170.675 579.202 171.263 579.202C171.851 579.202 172.145 578.796 172.145 577.984C172.145 577.172 171.851 576.766 171.263 576.766ZM180.247 570.27V576.472C180.247 577.209 180.439 577.765 180.821 578.138C181.213 578.511 181.755 578.698 182.445 578.698C183.145 578.698 183.687 578.511 184.069 578.138C184.461 577.765 184.657 577.209 184.657 576.472V570.27H186.253V576.444C186.253 577.237 186.081 577.909 185.735 578.46C185.39 579.011 184.928 579.421 184.349 579.692C183.771 579.963 183.131 580.098 182.431 580.098C181.731 580.098 181.092 579.963 180.513 579.692C179.944 579.421 179.491 579.011 179.155 578.46C178.819 577.909 178.651 577.237 178.651 576.444V570.27H180.247ZM193.539 575.002C194.062 575.095 194.505 575.371 194.869 575.828C195.233 576.285 195.415 576.803 195.415 577.382C195.415 577.877 195.285 578.325 195.023 578.726C194.771 579.118 194.403 579.431 193.917 579.664C193.432 579.888 192.867 580 192.223 580H188.331V570.27H192.041C192.704 570.27 193.273 570.382 193.749 570.606C194.225 570.83 194.585 571.133 194.827 571.516C195.07 571.889 195.191 572.309 195.191 572.776C195.191 573.336 195.042 573.803 194.743 574.176C194.445 574.549 194.043 574.825 193.539 575.002ZM189.927 574.358H191.901C192.424 574.358 192.83 574.241 193.119 574.008C193.418 573.765 193.567 573.42 193.567 572.972C193.567 572.533 193.418 572.193 193.119 571.95C192.83 571.698 192.424 571.572 191.901 571.572H189.927V574.358ZM192.083 578.698C192.625 578.698 193.049 578.567 193.357 578.306C193.665 578.045 193.819 577.681 193.819 577.214C193.819 576.738 193.656 576.36 193.329 576.08C193.003 575.8 192.569 575.66 192.027 575.66H189.927V578.698H192.083ZM198.732 570.27V576.472C198.732 577.209 198.923 577.765 199.306 578.138C199.698 578.511 200.239 578.698 200.93 578.698C201.63 578.698 202.171 578.511 202.554 578.138C202.946 577.765 203.142 577.209 203.142 576.472V570.27H204.738V576.444C204.738 577.237 204.565 577.909 204.22 578.46C203.874 579.011 203.412 579.421 202.834 579.692C202.255 579.963 201.616 580.098 200.916 580.098C200.216 580.098 199.576 579.963 198.998 579.692C198.428 579.421 197.976 579.011 197.64 578.46C197.304 577.909 197.136 577.237 197.136 576.444V570.27H198.732ZM214.81 580H213.214L208.412 572.734V580H206.816V570.256H208.412L213.214 577.508V570.256H214.81V580ZM223.191 570.27V571.572H220.601V580H219.005V571.572H216.401V570.27H223.191ZM226.39 570.27V576.472C226.39 577.209 226.581 577.765 226.964 578.138C227.356 578.511 227.897 578.698 228.588 578.698C229.288 578.698 229.829 578.511 230.212 578.138C230.604 577.765 230.8 577.209 230.8 576.472V570.27H232.396V576.444C232.396 577.237 232.223 577.909 231.878 578.46C231.532 579.011 231.07 579.421 230.492 579.692C229.913 579.963 229.274 580.098 228.574 580.098C227.874 580.098 227.234 579.963 226.656 579.692C226.086 579.421 225.634 579.011 225.298 578.46C224.962 577.909 224.794 577.237 224.794 576.444V570.27H226.39ZM243.837 570.27V571.572H239.707V574.442H242.927V575.744H239.707V580H238.111V570.27H243.837ZM249.754 580.098C248.848 580.098 248.013 579.888 247.248 579.468C246.492 579.039 245.89 578.446 245.442 577.69C245.003 576.925 244.784 576.066 244.784 575.114C244.784 574.162 245.003 573.308 245.442 572.552C245.89 571.796 246.492 571.208 247.248 570.788C248.013 570.359 248.848 570.144 249.754 570.144C250.668 570.144 251.504 570.359 252.26 570.788C253.025 571.208 253.627 571.796 254.066 572.552C254.504 573.308 254.724 574.162 254.724 575.114C254.724 576.066 254.504 576.925 254.066 577.69C253.627 578.446 253.025 579.039 252.26 579.468C251.504 579.888 250.668 580.098 249.754 580.098ZM249.754 578.712C250.398 578.712 250.972 578.567 251.476 578.278C251.98 577.979 252.372 577.559 252.652 577.018C252.941 576.467 253.086 575.833 253.086 575.114C253.086 574.395 252.941 573.765 252.652 573.224C252.372 572.683 251.98 572.267 251.476 571.978C250.972 571.689 250.398 571.544 249.754 571.544C249.11 571.544 248.536 571.689 248.032 571.978C247.528 572.267 247.131 572.683 246.842 573.224C246.562 573.765 246.422 574.395 246.422 575.114C246.422 575.833 246.562 576.467 246.842 577.018C247.131 577.559 247.528 577.979 248.032 578.278C248.536 578.567 249.11 578.712 249.754 578.712ZM257.876 570.27V576.472C257.876 577.209 258.067 577.765 258.45 578.138C258.842 578.511 259.383 578.698 260.074 578.698C260.774 578.698 261.315 578.511 261.698 578.138C262.09 577.765 262.286 577.209 262.286 576.472V570.27H263.882V576.444C263.882 577.237 263.709 577.909 263.364 578.46C263.019 579.011 262.557 579.421 261.978 579.692C261.399 579.963 260.76 580.098 260.06 580.098C259.36 580.098 258.721 579.963 258.142 579.692C257.573 579.421 257.12 579.011 256.784 578.46C256.448 577.909 256.28 577.237 256.28 576.444V570.27H257.876ZM273.954 580H272.358L267.556 572.734V580H265.96V570.256H267.556L272.358 577.508V570.256H273.954V580ZM279.228 570.27C280.264 570.27 281.169 570.471 281.944 570.872C282.728 571.264 283.33 571.833 283.75 572.58C284.179 573.317 284.394 574.181 284.394 575.17C284.394 576.159 284.179 577.018 283.75 577.746C283.33 578.474 282.728 579.034 281.944 579.426C281.169 579.809 280.264 580 279.228 580H276.05V570.27H279.228ZM279.228 578.698C280.367 578.698 281.239 578.39 281.846 577.774C282.453 577.158 282.756 576.29 282.756 575.17C282.756 574.041 282.453 573.159 281.846 572.524C281.239 571.889 280.367 571.572 279.228 571.572H277.646V578.698H279.228ZM291.842 578.012H287.768L287.068 580H285.402L288.888 570.256H290.736L294.222 580H292.542L291.842 578.012ZM291.394 576.71L289.812 572.188L288.216 576.71H291.394ZM302.024 570.27V571.572H299.434V580H297.838V571.572H295.234V570.27H302.024ZM305.236 570.27V580H303.64V570.27H305.236ZM311.769 580.098C310.864 580.098 310.029 579.888 309.263 579.468C308.507 579.039 307.905 578.446 307.457 577.69C307.019 576.925 306.799 576.066 306.799 575.114C306.799 574.162 307.019 573.308 307.457 572.552C307.905 571.796 308.507 571.208 309.263 570.788C310.029 570.359 310.864 570.144 311.769 570.144C312.684 570.144 313.519 570.359 314.275 570.788C315.041 571.208 315.643 571.796 316.081 572.552C316.52 573.308 316.739 574.162 316.739 575.114C316.739 576.066 316.52 576.925 316.081 577.69C315.643 578.446 315.041 579.039 314.275 579.468C313.519 579.888 312.684 580.098 311.769 580.098ZM311.769 578.712C312.413 578.712 312.987 578.567 313.491 578.278C313.995 577.979 314.387 577.559 314.667 577.018C314.957 576.467 315.101 575.833 315.101 575.114C315.101 574.395 314.957 573.765 314.667 573.224C314.387 572.683 313.995 572.267 313.491 571.978C312.987 571.689 312.413 571.544 311.769 571.544C311.125 571.544 310.551 571.689 310.047 571.978C309.543 572.267 309.147 572.683 308.857 573.224C308.577 573.765 308.437 574.395 308.437 575.114C308.437 575.833 308.577 576.467 308.857 577.018C309.147 577.559 309.543 577.979 310.047 578.278C310.551 578.567 311.125 578.712 311.769 578.712ZM326.304 580H324.708L319.906 572.734V580H318.31V570.256H319.906L324.708 577.508V570.256H326.304V580Z" fill="white"/>
<path d="M151.562 624.666C150.591 624.181 150.106 623.415 150.106 622.37C150.106 621.866 150.232 621.404 150.484 620.984C150.736 620.564 151.114 620.233 151.618 619.99C152.122 619.738 152.738 619.612 153.466 619.612C154.185 619.612 154.796 619.738 155.3 619.99C155.813 620.233 156.196 620.564 156.448 620.984C156.7 621.404 156.826 621.866 156.826 622.37C156.826 622.893 156.691 623.355 156.42 623.756C156.159 624.148 155.809 624.451 155.37 624.666C155.902 624.862 156.322 625.184 156.63 625.632C156.938 626.071 157.092 626.589 157.092 627.186C157.092 627.793 156.938 628.329 156.63 628.796C156.322 629.263 155.893 629.622 155.342 629.874C154.791 630.126 154.166 630.252 153.466 630.252C152.766 630.252 152.141 630.126 151.59 629.874C151.049 629.622 150.624 629.263 150.316 628.796C150.008 628.329 149.854 627.793 149.854 627.186C149.854 626.579 150.008 626.057 150.316 625.618C150.624 625.179 151.039 624.862 151.562 624.666ZM155.3 622.566C155.3 622.043 155.137 621.642 154.81 621.362C154.483 621.082 154.035 620.942 153.466 620.942C152.906 620.942 152.463 621.082 152.136 621.362C151.809 621.642 151.646 622.048 151.646 622.58C151.646 623.047 151.814 623.429 152.15 623.728C152.495 624.017 152.934 624.162 153.466 624.162C153.998 624.162 154.437 624.013 154.782 623.714C155.127 623.415 155.3 623.033 155.3 622.566ZM153.466 625.366C152.85 625.366 152.346 625.52 151.954 625.828C151.571 626.127 151.38 626.561 151.38 627.13C151.38 627.662 151.567 628.096 151.94 628.432C152.313 628.759 152.822 628.922 153.466 628.922C154.101 628.922 154.6 628.754 154.964 628.418C155.337 628.082 155.524 627.653 155.524 627.13C155.524 626.57 155.333 626.136 154.95 625.828C154.577 625.52 154.082 625.366 153.466 625.366ZM159.622 630.098C159.332 630.098 159.09 630 158.894 629.804C158.698 629.608 158.6 629.365 158.6 629.076C158.6 628.787 158.698 628.544 158.894 628.348C159.09 628.152 159.332 628.054 159.622 628.054C159.902 628.054 160.14 628.152 160.336 628.348C160.532 628.544 160.63 628.787 160.63 629.076C160.63 629.365 160.532 629.608 160.336 629.804C160.14 630 159.902 630.098 159.622 630.098ZM162.117 622.314C162.173 621.446 162.504 620.769 163.111 620.284C163.727 619.799 164.511 619.556 165.463 619.556C166.116 619.556 166.681 619.673 167.157 619.906C167.633 620.139 167.992 620.457 168.235 620.858C168.477 621.259 168.599 621.712 168.599 622.216C168.599 622.795 168.445 623.289 168.137 623.7C167.829 624.111 167.46 624.386 167.031 624.526V624.582C167.581 624.75 168.011 625.058 168.319 625.506C168.627 625.945 168.781 626.509 168.781 627.2C168.781 627.751 168.655 628.241 168.403 628.67C168.151 629.099 167.777 629.44 167.283 629.692C166.788 629.935 166.195 630.056 165.505 630.056C164.497 630.056 163.666 629.799 163.013 629.286C162.369 628.763 162.023 628.017 161.977 627.046H163.517C163.554 627.541 163.745 627.947 164.091 628.264C164.436 628.572 164.903 628.726 165.491 628.726C166.06 628.726 166.499 628.572 166.807 628.264C167.115 627.947 167.269 627.541 167.269 627.046C167.269 626.393 167.059 625.931 166.639 625.66C166.228 625.38 165.593 625.24 164.735 625.24H164.371V623.924H164.749C165.505 623.915 166.079 623.789 166.471 623.546C166.872 623.303 167.073 622.921 167.073 622.398C167.073 621.95 166.928 621.595 166.639 621.334C166.349 621.063 165.939 620.928 165.407 620.928C164.884 620.928 164.478 621.063 164.189 621.334C163.899 621.595 163.727 621.922 163.671 622.314H162.117ZM170.429 622.314C170.485 621.446 170.817 620.769 171.423 620.284C172.039 619.799 172.823 619.556 173.775 619.556C174.429 619.556 174.993 619.673 175.469 619.906C175.945 620.139 176.305 620.457 176.547 620.858C176.79 621.259 176.911 621.712 176.911 622.216C176.911 622.795 176.757 623.289 176.449 623.7C176.141 624.111 175.773 624.386 175.343 624.526V624.582C175.894 624.75 176.323 625.058 176.631 625.506C176.939 625.945 177.093 626.509 177.093 627.2C177.093 627.751 176.967 628.241 176.715 628.67C176.463 629.099 176.09 629.44 175.595 629.692C175.101 629.935 174.508 630.056 173.817 630.056C172.809 630.056 171.979 629.799 171.325 629.286C170.681 628.763 170.336 628.017 170.289 627.046H171.829C171.867 627.541 172.058 627.947 172.403 628.264C172.749 628.572 173.215 628.726 173.803 628.726C174.373 628.726 174.811 628.572 175.119 628.264C175.427 627.947 175.581 627.541 175.581 627.046C175.581 626.393 175.371 625.931 174.951 625.66C174.541 625.38 173.906 625.24 173.047 625.24H172.683V623.924H173.061C173.817 623.915 174.391 623.789 174.783 623.546C175.185 623.303 175.385 622.921 175.385 622.398C175.385 621.95 175.241 621.595 174.951 621.334C174.662 621.063 174.251 620.928 173.719 620.928C173.197 620.928 172.791 621.063 172.501 621.334C172.212 621.595 172.039 621.922 171.983 622.314H170.429ZM178.518 622.258C178.518 621.577 178.714 621.045 179.106 620.662C179.507 620.27 180.02 620.074 180.646 620.074C181.271 620.074 181.78 620.27 182.172 620.662C182.573 621.045 182.774 621.577 182.774 622.258C182.774 622.939 182.573 623.476 182.172 623.868C181.78 624.26 181.271 624.456 180.646 624.456C180.02 624.456 179.507 624.26 179.106 623.868C178.714 623.476 178.518 622.939 178.518 622.258ZM187.058 620.256L181.472 630H179.904L185.49 620.256H187.058ZM180.646 621.04C180.058 621.04 179.764 621.446 179.764 622.258C179.764 623.079 180.058 623.49 180.646 623.49C180.926 623.49 181.14 623.392 181.29 623.196C181.448 622.991 181.528 622.678 181.528 622.258C181.528 621.446 181.234 621.04 180.646 621.04ZM184.216 627.984C184.216 627.303 184.412 626.771 184.804 626.388C185.205 625.996 185.718 625.8 186.344 625.8C186.96 625.8 187.464 625.996 187.856 626.388C188.257 626.771 188.458 627.303 188.458 627.984C188.458 628.665 188.257 629.202 187.856 629.594C187.464 629.986 186.96 630.182 186.344 630.182C185.718 630.182 185.205 629.986 184.804 629.594C184.412 629.202 184.216 628.665 184.216 627.984ZM186.33 626.766C185.742 626.766 185.448 627.172 185.448 627.984C185.448 628.796 185.742 629.202 186.33 629.202C186.918 629.202 187.212 628.796 187.212 627.984C187.212 627.172 186.918 626.766 186.33 626.766ZM193.2 625.114C193.2 624.162 193.419 623.308 193.858 622.552C194.306 621.796 194.908 621.208 195.664 620.788C196.429 620.359 197.264 620.144 198.17 620.144C199.206 620.144 200.125 620.401 200.928 620.914C201.74 621.418 202.328 622.137 202.692 623.07H200.774C200.522 622.557 200.172 622.174 199.724 621.922C199.276 621.67 198.758 621.544 198.17 621.544C197.526 621.544 196.952 621.689 196.448 621.978C195.944 622.267 195.547 622.683 195.258 623.224C194.978 623.765 194.838 624.395 194.838 625.114C194.838 625.833 194.978 626.463 195.258 627.004C195.547 627.545 195.944 627.965 196.448 628.264C196.952 628.553 197.526 628.698 198.17 628.698C198.758 628.698 199.276 628.572 199.724 628.32C200.172 628.068 200.522 627.685 200.774 627.172H202.692C202.328 628.105 201.74 628.824 200.928 629.328C200.125 629.832 199.206 630.084 198.17 630.084C197.255 630.084 196.42 629.874 195.664 629.454C194.908 629.025 194.306 628.432 193.858 627.676C193.419 626.92 193.2 626.066 193.2 625.114ZM212.33 620.27V630H210.734V625.744H206.156V630H204.56V620.27H206.156V624.442H210.734V620.27H212.33ZM220.297 628.012H216.223L215.523 630H213.857L217.343 620.256H219.191L222.677 630H220.997L220.297 628.012ZM219.849 626.71L218.267 622.188L216.671 626.71H219.849ZM229.247 630L227.007 626.108H225.789V630H224.193V620.27H227.553C228.299 620.27 228.929 620.401 229.443 620.662C229.965 620.923 230.353 621.273 230.605 621.712C230.866 622.151 230.997 622.641 230.997 623.182C230.997 623.817 230.81 624.395 230.437 624.918C230.073 625.431 229.508 625.781 228.743 625.968L231.151 630H229.247ZM225.789 624.834H227.553C228.15 624.834 228.598 624.685 228.897 624.386C229.205 624.087 229.359 623.686 229.359 623.182C229.359 622.678 229.209 622.286 228.911 622.006C228.612 621.717 228.159 621.572 227.553 621.572H225.789V624.834ZM234.634 620.27V630H233.038V620.27H234.634ZM243.016 620.27V621.572H240.426V630H238.83V621.572H236.226V620.27H243.016ZM251.842 620.27L248.622 626.472V630H247.026V626.472L243.792 620.27H245.57L247.824 625.044L250.078 620.27H251.842Z" fill="white"/>
</svg>
