<svg width="351" height="680" viewBox="0 0 351 680" fill="none" xmlns="http://www.w3.org/2000/svg">
<path d="M30 159C30 238.529 94.471 303 174 303C253.529 303 318 238.529 318 159C318 79.471 253.529 15 174 15C94.471 15 30 79.471 30 159ZM253.67 159C253.67 203.001 218.001 238.67 174 238.67C129.999 238.67 94.3295 203.001 94.3295 159C94.3295 114.999 129.999 79.3295 174 79.3295C218.001 79.3295 253.67 114.999 253.67 159Z" fill="#CE6828"/>
<path d="M30 159C30 194.337 42.9932 228.44 66.5065 254.818C90.0197 281.197 122.411 298.008 157.516 302.053C192.62 306.099 227.987 297.095 256.883 276.756C285.78 256.416 306.189 226.162 314.226 191.752C322.263 157.341 317.367 121.176 300.469 90.1414C283.572 59.1066 255.853 35.3683 222.588 23.445C189.324 11.5216 152.837 12.2458 120.071 25.4796C87.3063 38.7133 60.5509 63.5327 44.8981 95.2136L102.974 123.908C111.585 106.478 126.305 92.8237 144.331 85.5431C162.357 78.2625 182.431 77.8641 200.731 84.4238C219.032 90.9834 234.281 104.043 243.578 121.117C252.874 138.191 255.568 158.087 251.146 177.018C246.724 195.95 235.496 212.594 219.599 223.784C203.701 234.973 184.244 239.927 164.931 237.701C145.618 235.476 127.798 226.227 114.862 211.715C101.926 197.203 94.7777 178.441 94.7777 159H30Z" fill="#FFD764"/>
<path d="M30 159C30 190.141 40.095 220.443 58.7712 245.362C77.4474 270.281 103.698 288.474 133.588 297.213C163.477 305.952 195.394 304.767 224.553 293.835C253.712 282.902 278.541 262.812 295.317 236.576C312.094 210.341 319.913 179.374 317.603 148.318C315.293 117.263 302.978 87.7939 282.505 64.329C262.032 40.8641 234.504 24.6682 204.049 18.17C173.593 11.6718 141.852 15.2215 113.584 28.2867L140.885 87.3524C156.379 80.191 173.777 78.2453 190.47 81.8072C207.164 85.369 222.253 94.2464 233.475 107.108C244.697 119.97 251.447 136.123 252.713 153.145C253.979 170.167 249.693 187.141 240.497 201.522C231.302 215.902 217.692 226.914 201.71 232.907C185.727 238.899 168.232 239.549 151.849 234.758C135.466 229.968 121.077 219.996 110.84 206.337C100.603 192.678 95.0696 176.069 95.0696 159H30Z" fill="#9E2224"/>
<path d="M30 159C30 185.512 37.3192 211.51 51.1511 234.128C64.983 256.745 84.7905 275.106 108.391 287.185C131.991 299.265 158.468 304.594 184.904 302.587C211.34 300.579 236.709 291.312 258.215 275.807C279.72 260.302 296.528 239.161 306.785 214.714C317.043 190.267 320.352 163.462 316.349 137.254C312.345 111.046 301.184 86.4518 284.095 66.1821C267.006 45.9124 244.653 30.7538 219.499 22.377L198.987 83.9691C212.801 88.5695 225.077 96.8943 234.462 108.026C243.847 119.158 249.976 132.664 252.175 147.057C254.374 161.45 252.557 176.171 246.923 189.597C241.29 203.023 232.06 214.633 220.249 223.148C208.439 231.663 194.507 236.753 179.988 237.855C165.47 238.958 150.93 236.031 137.969 229.397C125.008 222.763 114.13 212.68 106.534 200.259C98.9374 187.837 94.9178 173.56 94.9178 159H30Z" fill="#D7A933"/>
<path d="M30 159C30 180.298 34.7245 201.332 43.8331 220.584C52.9417 239.836 66.2076 256.829 82.6748 270.336C99.142 283.844 118.401 293.53 139.063 298.697C159.725 303.865 181.276 304.385 202.163 300.219C223.05 296.054 242.753 287.307 259.852 274.609C276.951 261.911 291.021 245.578 301.047 226.787C311.073 207.996 316.806 187.215 317.833 165.942C318.859 144.668 315.154 123.431 306.984 103.762L247.313 128.548C251.817 139.391 253.86 151.099 253.294 162.827C252.728 174.555 249.567 186.011 244.04 196.37C238.513 206.73 230.756 215.734 221.329 222.734C211.903 229.735 201.041 234.557 189.526 236.853C178.011 239.149 166.13 238.863 154.739 236.014C143.348 233.165 132.731 227.825 123.653 220.379C114.575 212.932 107.262 203.564 102.24 192.951C97.2186 182.337 94.614 170.742 94.614 159H30Z" fill="#347B5D"/>
<path d="M30 159C30 189.035 39.3914 218.318 56.8596 242.75C74.3279 267.183 98.9986 285.542 127.419 295.258C155.839 304.973 186.585 305.56 215.355 296.934C244.124 288.308 269.477 270.903 287.863 247.154L236.8 207.62C226.659 220.719 212.676 230.318 196.809 235.076C180.941 239.833 163.983 239.51 148.309 234.151C132.634 228.793 119.027 218.667 109.393 205.191C99.7584 191.716 94.5787 175.565 94.5787 159H30Z" fill="#92804C"/>
<path d="M30 159C30 189.859 39.9134 219.902 58.2791 244.701C76.6448 269.5 102.491 287.743 132.009 296.742L150.899 234.779C134.66 229.828 120.44 219.792 110.336 206.148C100.232 192.505 94.7784 175.977 94.7784 159H30Z" fill="#88451B"/>
<ellipse rx="15" ry="15.5" transform="matrix(-1 0 0 1 66 493.5)" fill="#88451B"/>
<ellipse rx="15" ry="15.5" transform="matrix(-1 0 0 1 66 445.5)" fill="#92804C"/>
<ellipse rx="15" ry="16" transform="matrix(-1 0 0 1 66 397)" fill="#347B5D"/>
<ellipse rx="15" ry="16" transform="matrix(-1 0 0 1 66 541)" fill="#9E2224"/>
<ellipse rx="15" ry="15.5" transform="matrix(-1 0 0 1 66 590.5)" fill="#FFD764"/>
<ellipse rx="15" ry="15.5" transform="matrix(-1 0 0 1 66 640.5)" fill="#CE6828"/>
<path d="M96.722 494.83C97.618 494.055 98.3227 493.421 98.836 492.926C99.3587 492.422 99.7927 491.899 100.138 491.358C100.483 490.817 100.656 490.275 100.656 489.734C100.656 489.174 100.521 488.735 100.25 488.418C99.9887 488.101 99.5733 487.942 99.004 487.942C98.4533 487.942 98.024 488.119 97.716 488.474C97.4173 488.819 97.2587 489.286 97.24 489.874H95.7C95.728 488.81 96.0453 487.998 96.652 487.438C97.268 486.869 98.0473 486.584 98.99 486.584C100.007 486.584 100.801 486.864 101.37 487.424C101.949 487.984 102.238 488.731 102.238 489.664C102.238 490.336 102.065 490.985 101.72 491.61C101.384 492.226 100.978 492.781 100.502 493.276C100.035 493.761 99.438 494.326 98.71 494.97L98.08 495.53H102.518V496.86H95.714V495.698L96.722 494.83ZM103.92 491.764C103.92 490.149 104.191 488.889 104.732 487.984C105.283 487.069 106.225 486.612 107.56 486.612C108.895 486.612 109.833 487.069 110.374 487.984C110.925 488.889 111.2 490.149 111.2 491.764C111.2 493.397 110.925 494.676 110.374 495.6C109.833 496.515 108.895 496.972 107.56 496.972C106.225 496.972 105.283 496.515 104.732 495.6C104.191 494.676 103.92 493.397 103.92 491.764ZM109.632 491.764C109.632 491.008 109.581 490.369 109.478 489.846C109.385 489.323 109.189 488.899 108.89 488.572C108.591 488.236 108.148 488.068 107.56 488.068C106.972 488.068 106.529 488.236 106.23 488.572C105.931 488.899 105.731 489.323 105.628 489.846C105.535 490.369 105.488 491.008 105.488 491.764C105.488 492.548 105.535 493.206 105.628 493.738C105.721 494.27 105.917 494.699 106.216 495.026C106.524 495.353 106.972 495.516 107.56 495.516C108.148 495.516 108.591 495.353 108.89 495.026C109.198 494.699 109.399 494.27 109.492 493.738C109.585 493.206 109.632 492.548 109.632 491.764ZM112.637 489.258C112.637 488.577 112.833 488.045 113.225 487.662C113.626 487.27 114.139 487.074 114.765 487.074C115.39 487.074 115.899 487.27 116.291 487.662C116.692 488.045 116.893 488.577 116.893 489.258C116.893 489.939 116.692 490.476 116.291 490.868C115.899 491.26 115.39 491.456 114.765 491.456C114.139 491.456 113.626 491.26 113.225 490.868C112.833 490.476 112.637 489.939 112.637 489.258ZM121.177 487.256L115.591 497H114.023L119.609 487.256H121.177ZM114.765 488.04C114.177 488.04 113.883 488.446 113.883 489.258C113.883 490.079 114.177 490.49 114.765 490.49C115.045 490.49 115.259 490.392 115.409 490.196C115.567 489.991 115.647 489.678 115.647 489.258C115.647 488.446 115.353 488.04 114.765 488.04ZM118.335 494.984C118.335 494.303 118.531 493.771 118.923 493.388C119.324 492.996 119.837 492.8 120.463 492.8C121.079 492.8 121.583 492.996 121.975 493.388C122.376 493.771 122.577 494.303 122.577 494.984C122.577 495.665 122.376 496.202 121.975 496.594C121.583 496.986 121.079 497.182 120.463 497.182C119.837 497.182 119.324 496.986 118.923 496.594C118.531 496.202 118.335 495.665 118.335 494.984ZM120.449 493.766C119.861 493.766 119.567 494.172 119.567 494.984C119.567 495.796 119.861 496.202 120.449 496.202C121.037 496.202 121.331 495.796 121.331 494.984C121.331 494.172 121.037 493.766 120.449 493.766ZM129.447 495.712H132.737V497H127.851V487.27H129.447V495.712ZM135.667 487.27V497H134.071V487.27H135.667ZM145.295 498.764L143.587 496.916C143.167 497.037 142.705 497.098 142.201 497.098C141.296 497.098 140.46 496.888 139.695 496.468C138.939 496.039 138.337 495.446 137.889 494.69C137.45 493.925 137.231 493.066 137.231 492.114C137.231 491.162 137.45 490.308 137.889 489.552C138.337 488.796 138.939 488.208 139.695 487.788C140.46 487.359 141.296 487.144 142.201 487.144C143.116 487.144 143.951 487.359 144.707 487.788C145.472 488.208 146.074 488.796 146.513 489.552C146.952 490.308 147.171 491.162 147.171 492.114C147.171 493.01 146.975 493.822 146.583 494.55C146.2 495.269 145.668 495.847 144.987 496.286L147.325 498.764H145.295ZM138.869 492.114C138.869 492.833 139.009 493.467 139.289 494.018C139.578 494.559 139.975 494.979 140.479 495.278C140.983 495.567 141.557 495.712 142.201 495.712C142.845 495.712 143.419 495.567 143.923 495.278C144.427 494.979 144.819 494.559 145.099 494.018C145.388 493.467 145.533 492.833 145.533 492.114C145.533 491.395 145.388 490.765 145.099 490.224C144.819 489.683 144.427 489.267 143.923 488.978C143.419 488.689 142.845 488.544 142.201 488.544C141.557 488.544 140.983 488.689 140.479 488.978C139.975 489.267 139.578 489.683 139.289 490.224C139.009 490.765 138.869 491.395 138.869 492.114ZM150.364 487.27V493.472C150.364 494.209 150.556 494.765 150.938 495.138C151.33 495.511 151.872 495.698 152.562 495.698C153.262 495.698 153.804 495.511 154.186 495.138C154.578 494.765 154.774 494.209 154.774 493.472V487.27H156.37V493.444C156.37 494.237 156.198 494.909 155.852 495.46C155.507 496.011 155.045 496.421 154.466 496.692C153.888 496.963 153.248 497.098 152.548 497.098C151.848 497.098 151.209 496.963 150.63 496.692C150.061 496.421 149.608 496.011 149.272 495.46C148.936 494.909 148.768 494.237 148.768 493.444V487.27H150.364ZM160.044 487.27V497H158.448V487.27H160.044ZM165.318 487.27C166.354 487.27 167.259 487.471 168.034 487.872C168.818 488.264 169.42 488.833 169.84 489.58C170.269 490.317 170.484 491.181 170.484 492.17C170.484 493.159 170.269 494.018 169.84 494.746C169.42 495.474 168.818 496.034 168.034 496.426C167.259 496.809 166.354 497 165.318 497H162.14V487.27H165.318ZM165.318 495.698C166.457 495.698 167.329 495.39 167.936 494.774C168.543 494.158 168.846 493.29 168.846 492.17C168.846 491.041 168.543 490.159 167.936 489.524C167.329 488.889 166.457 488.572 165.318 488.572H163.736V495.698H165.318ZM173.662 487.27V497H172.066V487.27H173.662ZM182.043 487.27V488.572H179.453V497H177.857V488.572H175.253V487.27H182.043ZM190.869 487.27L187.649 493.472V497H186.053V493.472L182.819 487.27H184.597L186.851 492.044L189.105 487.27H190.869Z" fill="#333333"/>
<path d="M96.722 446.83C97.618 446.055 98.3227 445.421 98.836 444.926C99.3587 444.422 99.7927 443.899 100.138 443.358C100.483 442.817 100.656 442.275 100.656 441.734C100.656 441.174 100.521 440.735 100.25 440.418C99.9887 440.101 99.5733 439.942 99.004 439.942C98.4533 439.942 98.024 440.119 97.716 440.474C97.4173 440.819 97.2587 441.286 97.24 441.874H95.7C95.728 440.81 96.0453 439.998 96.652 439.438C97.268 438.869 98.0473 438.584 98.99 438.584C100.007 438.584 100.801 438.864 101.37 439.424C101.949 439.984 102.238 440.731 102.238 441.664C102.238 442.336 102.065 442.985 101.72 443.61C101.384 444.226 100.978 444.781 100.502 445.276C100.035 445.761 99.438 446.326 98.71 446.97L98.08 447.53H102.518V448.86H95.714V447.698L96.722 446.83ZM103.92 443.764C103.92 442.149 104.191 440.889 104.732 439.984C105.283 439.069 106.225 438.612 107.56 438.612C108.895 438.612 109.833 439.069 110.374 439.984C110.925 440.889 111.2 442.149 111.2 443.764C111.2 445.397 110.925 446.676 110.374 447.6C109.833 448.515 108.895 448.972 107.56 448.972C106.225 448.972 105.283 448.515 104.732 447.6C104.191 446.676 103.92 445.397 103.92 443.764ZM109.632 443.764C109.632 443.008 109.581 442.369 109.478 441.846C109.385 441.323 109.189 440.899 108.89 440.572C108.591 440.236 108.148 440.068 107.56 440.068C106.972 440.068 106.529 440.236 106.23 440.572C105.931 440.899 105.731 441.323 105.628 441.846C105.535 442.369 105.488 443.008 105.488 443.764C105.488 444.548 105.535 445.206 105.628 445.738C105.721 446.27 105.917 446.699 106.216 447.026C106.524 447.353 106.972 447.516 107.56 447.516C108.148 447.516 108.591 447.353 108.89 447.026C109.198 446.699 109.399 446.27 109.492 445.738C109.585 445.206 109.632 444.548 109.632 443.764ZM112.637 441.258C112.637 440.577 112.833 440.045 113.225 439.662C113.626 439.27 114.139 439.074 114.765 439.074C115.39 439.074 115.899 439.27 116.291 439.662C116.692 440.045 116.893 440.577 116.893 441.258C116.893 441.939 116.692 442.476 116.291 442.868C115.899 443.26 115.39 443.456 114.765 443.456C114.139 443.456 113.626 443.26 113.225 442.868C112.833 442.476 112.637 441.939 112.637 441.258ZM121.177 439.256L115.591 449H114.023L119.609 439.256H121.177ZM114.765 440.04C114.177 440.04 113.883 440.446 113.883 441.258C113.883 442.079 114.177 442.49 114.765 442.49C115.045 442.49 115.259 442.392 115.409 442.196C115.567 441.991 115.647 441.678 115.647 441.258C115.647 440.446 115.353 440.04 114.765 440.04ZM118.335 446.984C118.335 446.303 118.531 445.771 118.923 445.388C119.324 444.996 119.837 444.8 120.463 444.8C121.079 444.8 121.583 444.996 121.975 445.388C122.376 445.771 122.577 446.303 122.577 446.984C122.577 447.665 122.376 448.202 121.975 448.594C121.583 448.986 121.079 449.182 120.463 449.182C119.837 449.182 119.324 448.986 118.923 448.594C118.531 448.202 118.335 447.665 118.335 446.984ZM120.449 445.766C119.861 445.766 119.567 446.172 119.567 446.984C119.567 447.796 119.861 448.202 120.449 448.202C121.037 448.202 121.331 447.796 121.331 446.984C121.331 446.172 121.037 445.766 120.449 445.766ZM129.447 440.558V443.414H132.807V444.716H129.447V447.698H133.227V449H127.851V439.256H133.227V440.558H129.447ZM134.661 444.114C134.661 443.162 134.88 442.308 135.319 441.552C135.767 440.796 136.369 440.208 137.125 439.788C137.89 439.359 138.725 439.144 139.631 439.144C140.667 439.144 141.586 439.401 142.389 439.914C143.201 440.418 143.789 441.137 144.153 442.07H142.235C141.983 441.557 141.633 441.174 141.185 440.922C140.737 440.67 140.219 440.544 139.631 440.544C138.987 440.544 138.413 440.689 137.909 440.978C137.405 441.267 137.008 441.683 136.719 442.224C136.439 442.765 136.299 443.395 136.299 444.114C136.299 444.833 136.439 445.463 136.719 446.004C137.008 446.545 137.405 446.965 137.909 447.264C138.413 447.553 138.987 447.698 139.631 447.698C140.219 447.698 140.737 447.572 141.185 447.32C141.633 447.068 141.983 446.685 142.235 446.172H144.153C143.789 447.105 143.201 447.824 142.389 448.328C141.586 448.832 140.667 449.084 139.631 449.084C138.716 449.084 137.881 448.874 137.125 448.454C136.369 448.025 135.767 447.432 135.319 446.676C134.88 445.92 134.661 445.066 134.661 444.114ZM150.459 449.098C149.553 449.098 148.718 448.888 147.953 448.468C147.197 448.039 146.595 447.446 146.147 446.69C145.708 445.925 145.489 445.066 145.489 444.114C145.489 443.162 145.708 442.308 146.147 441.552C146.595 440.796 147.197 440.208 147.953 439.788C148.718 439.359 149.553 439.144 150.459 439.144C151.373 439.144 152.209 439.359 152.965 439.788C153.73 440.208 154.332 440.796 154.771 441.552C155.209 442.308 155.429 443.162 155.429 444.114C155.429 445.066 155.209 445.925 154.771 446.69C154.332 447.446 153.73 448.039 152.965 448.468C152.209 448.888 151.373 449.098 150.459 449.098ZM150.459 447.712C151.103 447.712 151.677 447.567 152.181 447.278C152.685 446.979 153.077 446.559 153.357 446.018C153.646 445.467 153.791 444.833 153.791 444.114C153.791 443.395 153.646 442.765 153.357 442.224C153.077 441.683 152.685 441.267 152.181 440.978C151.677 440.689 151.103 440.544 150.459 440.544C149.815 440.544 149.241 440.689 148.737 440.978C148.233 441.267 147.836 441.683 147.547 442.224C147.267 442.765 147.127 443.395 147.127 444.114C147.127 444.833 147.267 445.467 147.547 446.018C147.836 446.559 148.233 446.979 148.737 447.278C149.241 447.567 149.815 447.712 150.459 447.712ZM160.205 449.098C159.552 449.098 158.964 448.986 158.441 448.762C157.919 448.529 157.508 448.202 157.209 447.782C156.911 447.362 156.761 446.872 156.761 446.312H158.469C158.507 446.732 158.67 447.077 158.959 447.348C159.258 447.619 159.673 447.754 160.205 447.754C160.756 447.754 161.185 447.623 161.493 447.362C161.801 447.091 161.955 446.746 161.955 446.326C161.955 445.999 161.857 445.733 161.661 445.528C161.475 445.323 161.237 445.164 160.947 445.052C160.667 444.94 160.275 444.819 159.771 444.688C159.137 444.52 158.619 444.352 158.217 444.184C157.825 444.007 157.489 443.736 157.209 443.372C156.929 443.008 156.789 442.523 156.789 441.916C156.789 441.356 156.929 440.866 157.209 440.446C157.489 440.026 157.881 439.704 158.385 439.48C158.889 439.256 159.473 439.144 160.135 439.144C161.078 439.144 161.848 439.382 162.445 439.858C163.052 440.325 163.388 440.969 163.453 441.79H161.689C161.661 441.435 161.493 441.132 161.185 440.88C160.877 440.628 160.471 440.502 159.967 440.502C159.51 440.502 159.137 440.619 158.847 440.852C158.558 441.085 158.413 441.421 158.413 441.86C158.413 442.159 158.502 442.406 158.679 442.602C158.866 442.789 159.099 442.938 159.379 443.05C159.659 443.162 160.042 443.283 160.527 443.414C161.171 443.591 161.694 443.769 162.095 443.946C162.506 444.123 162.851 444.399 163.131 444.772C163.421 445.136 163.565 445.626 163.565 446.242C163.565 446.737 163.43 447.203 163.159 447.642C162.898 448.081 162.511 448.435 161.997 448.706C161.493 448.967 160.896 449.098 160.205 449.098ZM172.658 439.27L169.438 445.472V449H167.842V445.472L164.608 439.27H166.386L168.64 444.044L170.894 439.27H172.658ZM177.131 449.098C176.478 449.098 175.89 448.986 175.367 448.762C174.844 448.529 174.434 448.202 174.135 447.782C173.836 447.362 173.687 446.872 173.687 446.312H175.395C175.432 446.732 175.596 447.077 175.885 447.348C176.184 447.619 176.599 447.754 177.131 447.754C177.682 447.754 178.111 447.623 178.419 447.362C178.727 447.091 178.881 446.746 178.881 446.326C178.881 445.999 178.783 445.733 178.587 445.528C178.4 445.323 178.162 445.164 177.873 445.052C177.593 444.94 177.201 444.819 176.697 444.688C176.062 444.52 175.544 444.352 175.143 444.184C174.751 444.007 174.415 443.736 174.135 443.372C173.855 443.008 173.715 442.523 173.715 441.916C173.715 441.356 173.855 440.866 174.135 440.446C174.415 440.026 174.807 439.704 175.311 439.48C175.815 439.256 176.398 439.144 177.061 439.144C178.004 439.144 178.774 439.382 179.371 439.858C179.978 440.325 180.314 440.969 180.379 441.79H178.615C178.587 441.435 178.419 441.132 178.111 440.88C177.803 440.628 177.397 440.502 176.893 440.502C176.436 440.502 176.062 440.619 175.773 440.852C175.484 441.085 175.339 441.421 175.339 441.86C175.339 442.159 175.428 442.406 175.605 442.602C175.792 442.789 176.025 442.938 176.305 443.05C176.585 443.162 176.968 443.283 177.453 443.414C178.097 443.591 178.62 443.769 179.021 443.946C179.432 444.123 179.777 444.399 180.057 444.772C180.346 445.136 180.491 445.626 180.491 446.242C180.491 446.737 180.356 447.203 180.085 447.642C179.824 448.081 179.436 448.435 178.923 448.706C178.419 448.967 177.822 449.098 177.131 449.098ZM188.66 439.27V440.572H186.07V449H184.474V440.572H181.87V439.27H188.66ZM191.873 440.558V443.414H195.233V444.716H191.873V447.698H195.653V449H190.277V439.256H195.653V440.558H191.873ZM207.866 439.27V449H206.27V442.336L203.302 449H202.196L199.214 442.336V449H197.618V439.27H199.34L202.756 446.9L206.158 439.27H207.866ZM216.779 439.27C217.815 439.27 218.72 439.471 219.495 439.872C220.279 440.264 220.881 440.833 221.301 441.58C221.73 442.317 221.945 443.181 221.945 444.17C221.945 445.159 221.73 446.018 221.301 446.746C220.881 447.474 220.279 448.034 219.495 448.426C218.72 448.809 217.815 449 216.779 449H213.601V439.27H216.779ZM216.779 447.698C217.917 447.698 218.79 447.39 219.397 446.774C220.003 446.158 220.307 445.29 220.307 444.17C220.307 443.041 220.003 442.159 219.397 441.524C218.79 440.889 217.917 440.572 216.779 440.572H215.197V447.698H216.779ZM225.123 440.558V443.414H228.483V444.716H225.123V447.698H228.903V449H223.527V439.256H228.903V440.558H225.123ZM239.254 439.27L235.6 449H233.752L230.084 439.27H231.792L234.676 447.362L237.574 439.27H239.254ZM242.185 440.558V443.414H245.545V444.716H242.185V447.698H245.965V449H240.589V439.256H245.965V440.558H242.185ZM249.527 447.712H252.817V449H247.931V439.27H249.527V447.712ZM258.59 449.098C257.684 449.098 256.849 448.888 256.084 448.468C255.328 448.039 254.726 447.446 254.278 446.69C253.839 445.925 253.62 445.066 253.62 444.114C253.62 443.162 253.839 442.308 254.278 441.552C254.726 440.796 255.328 440.208 256.084 439.788C256.849 439.359 257.684 439.144 258.59 439.144C259.504 439.144 260.34 439.359 261.096 439.788C261.861 440.208 262.463 440.796 262.902 441.552C263.34 442.308 263.56 443.162 263.56 444.114C263.56 445.066 263.34 445.925 262.902 446.69C262.463 447.446 261.861 448.039 261.096 448.468C260.34 448.888 259.504 449.098 258.59 449.098ZM258.59 447.712C259.234 447.712 259.808 447.567 260.312 447.278C260.816 446.979 261.208 446.559 261.488 446.018C261.777 445.467 261.922 444.833 261.922 444.114C261.922 443.395 261.777 442.765 261.488 442.224C261.208 441.683 260.816 441.267 260.312 440.978C259.808 440.689 259.234 440.544 258.59 440.544C257.946 440.544 257.372 440.689 256.868 440.978C256.364 441.267 255.967 441.683 255.678 442.224C255.398 442.765 255.258 443.395 255.258 444.114C255.258 444.833 255.398 445.467 255.678 446.018C255.967 446.559 256.364 446.979 256.868 447.278C257.372 447.567 257.946 447.712 258.59 447.712ZM271.934 442.168C271.934 442.663 271.817 443.129 271.584 443.568C271.351 444.007 270.977 444.366 270.464 444.646C269.951 444.917 269.293 445.052 268.49 445.052H266.726V449H265.13V439.27H268.49C269.237 439.27 269.867 439.401 270.38 439.662C270.903 439.914 271.29 440.259 271.542 440.698C271.803 441.137 271.934 441.627 271.934 442.168ZM268.49 443.75C269.097 443.75 269.549 443.615 269.848 443.344C270.147 443.064 270.296 442.672 270.296 442.168C270.296 441.104 269.694 440.572 268.49 440.572H266.726V443.75H268.49ZM283.704 439.27V449H282.108V442.336L279.14 449H278.034L275.052 442.336V449H273.456V439.27H275.178L278.594 446.9L281.996 439.27H283.704ZM287.398 440.558V443.414H290.758V444.716H287.398V447.698H291.178V449H285.802V439.256H291.178V440.558H287.398ZM301.138 449H299.542L294.74 441.734V449H293.144V439.256H294.74L299.542 446.508V439.256H301.138V449ZM309.52 439.27V440.572H306.93V449H305.334V440.572H302.73V439.27H309.52Z" fill="#333333"/>
<path d="M94.812 393.314C94.868 392.446 95.1993 391.769 95.806 391.284C96.422 390.799 97.206 390.556 98.158 390.556C98.8113 390.556 99.376 390.673 99.852 390.906C100.328 391.139 100.687 391.457 100.93 391.858C101.173 392.259 101.294 392.712 101.294 393.216C101.294 393.795 101.14 394.289 100.832 394.7C100.524 395.111 100.155 395.386 99.726 395.526V395.582C100.277 395.75 100.706 396.058 101.014 396.506C101.322 396.945 101.476 397.509 101.476 398.2C101.476 398.751 101.35 399.241 101.098 399.67C100.846 400.099 100.473 400.44 99.978 400.692C99.4833 400.935 98.8907 401.056 98.2 401.056C97.192 401.056 96.3613 400.799 95.708 400.286C95.064 399.763 94.7187 399.017 94.672 398.046H96.212C96.2493 398.541 96.4407 398.947 96.786 399.264C97.1313 399.572 97.598 399.726 98.186 399.726C98.7553 399.726 99.194 399.572 99.502 399.264C99.81 398.947 99.964 398.541 99.964 398.046C99.964 397.393 99.754 396.931 99.334 396.66C98.9233 396.38 98.2887 396.24 97.43 396.24H97.066V394.924H97.444C98.2 394.915 98.774 394.789 99.166 394.546C99.5673 394.303 99.768 393.921 99.768 393.398C99.768 392.95 99.6233 392.595 99.334 392.334C99.0447 392.063 98.634 391.928 98.102 391.928C97.5793 391.928 97.1733 392.063 96.884 392.334C96.5947 392.595 96.422 392.922 96.366 393.314H94.812ZM103.153 395.764C103.153 394.149 103.423 392.889 103.965 391.984C104.515 391.069 105.458 390.612 106.793 390.612C108.127 390.612 109.065 391.069 109.607 391.984C110.157 392.889 110.433 394.149 110.433 395.764C110.433 397.397 110.157 398.676 109.607 399.6C109.065 400.515 108.127 400.972 106.793 400.972C105.458 400.972 104.515 400.515 103.965 399.6C103.423 398.676 103.153 397.397 103.153 395.764ZM108.865 395.764C108.865 395.008 108.813 394.369 108.711 393.846C108.617 393.323 108.421 392.899 108.123 392.572C107.824 392.236 107.381 392.068 106.793 392.068C106.205 392.068 105.761 392.236 105.463 392.572C105.164 392.899 104.963 393.323 104.861 393.846C104.767 394.369 104.721 395.008 104.721 395.764C104.721 396.548 104.767 397.206 104.861 397.738C104.954 398.27 105.15 398.699 105.449 399.026C105.757 399.353 106.205 399.516 106.793 399.516C107.381 399.516 107.824 399.353 108.123 399.026C108.431 398.699 108.631 398.27 108.725 397.738C108.818 397.206 108.865 396.548 108.865 395.764ZM115.506 393.258C115.506 392.577 115.702 392.045 116.094 391.662C116.495 391.27 117.009 391.074 117.634 391.074C118.259 391.074 118.768 391.27 119.16 391.662C119.561 392.045 119.762 392.577 119.762 393.258C119.762 393.939 119.561 394.476 119.16 394.868C118.768 395.26 118.259 395.456 117.634 395.456C117.009 395.456 116.495 395.26 116.094 394.868C115.702 394.476 115.506 393.939 115.506 393.258ZM124.046 391.256L118.46 401H116.892L122.478 391.256H124.046ZM117.634 392.04C117.046 392.04 116.752 392.446 116.752 393.258C116.752 394.079 117.046 394.49 117.634 394.49C117.914 394.49 118.129 394.392 118.278 394.196C118.437 393.991 118.516 393.678 118.516 393.258C118.516 392.446 118.222 392.04 117.634 392.04ZM121.204 398.984C121.204 398.303 121.4 397.771 121.792 397.388C122.193 396.996 122.707 396.8 123.332 396.8C123.948 396.8 124.452 396.996 124.844 397.388C125.245 397.771 125.446 398.303 125.446 398.984C125.446 399.665 125.245 400.202 124.844 400.594C124.452 400.986 123.948 401.182 123.332 401.182C122.707 401.182 122.193 400.986 121.792 400.594C121.4 400.202 121.204 399.665 121.204 398.984ZM123.318 397.766C122.73 397.766 122.436 398.172 122.436 398.984C122.436 399.796 122.73 400.202 123.318 400.202C123.906 400.202 124.2 399.796 124.2 398.984C124.2 398.172 123.906 397.766 123.318 397.766ZM137.524 394.168C137.524 394.663 137.407 395.129 137.174 395.568C136.941 396.007 136.567 396.366 136.054 396.646C135.541 396.917 134.883 397.052 134.08 397.052H132.316V401H130.72V391.27H134.08C134.827 391.27 135.457 391.401 135.97 391.662C136.493 391.914 136.88 392.259 137.132 392.698C137.393 393.137 137.524 393.627 137.524 394.168ZM134.08 395.75C134.687 395.75 135.139 395.615 135.438 395.344C135.737 395.064 135.886 394.672 135.886 394.168C135.886 393.104 135.284 392.572 134.08 392.572H132.316V395.75H134.08ZM144.1 401L141.86 397.108H140.642V401H139.046V391.27H142.406C143.153 391.27 143.783 391.401 144.296 391.662C144.819 391.923 145.206 392.273 145.458 392.712C145.719 393.151 145.85 393.641 145.85 394.182C145.85 394.817 145.663 395.395 145.29 395.918C144.926 396.431 144.361 396.781 143.596 396.968L146.004 401H144.1ZM140.642 395.834H142.406C143.003 395.834 143.451 395.685 143.75 395.386C144.058 395.087 144.212 394.686 144.212 394.182C144.212 393.678 144.063 393.286 143.764 393.006C143.465 392.717 143.013 392.572 142.406 392.572H140.642V395.834ZM149.488 392.558V395.414H152.848V396.716H149.488V399.698H153.268V401H147.892V391.256H153.268V392.558H149.488ZM158.44 401.098C157.786 401.098 157.198 400.986 156.676 400.762C156.153 400.529 155.742 400.202 155.444 399.782C155.145 399.362 154.996 398.872 154.996 398.312H156.704C156.741 398.732 156.904 399.077 157.194 399.348C157.492 399.619 157.908 399.754 158.44 399.754C158.99 399.754 159.42 399.623 159.728 399.362C160.036 399.091 160.19 398.746 160.19 398.326C160.19 397.999 160.092 397.733 159.896 397.528C159.709 397.323 159.471 397.164 159.182 397.052C158.902 396.94 158.51 396.819 158.006 396.688C157.371 396.52 156.853 396.352 156.452 396.184C156.06 396.007 155.724 395.736 155.444 395.372C155.164 395.008 155.024 394.523 155.024 393.916C155.024 393.356 155.164 392.866 155.444 392.446C155.724 392.026 156.116 391.704 156.62 391.48C157.124 391.256 157.707 391.144 158.37 391.144C159.312 391.144 160.082 391.382 160.68 391.858C161.286 392.325 161.622 392.969 161.688 393.79H159.924C159.896 393.435 159.728 393.132 159.42 392.88C159.112 392.628 158.706 392.502 158.202 392.502C157.744 392.502 157.371 392.619 157.082 392.852C156.792 393.085 156.648 393.421 156.648 393.86C156.648 394.159 156.736 394.406 156.914 394.602C157.1 394.789 157.334 394.938 157.614 395.05C157.894 395.162 158.276 395.283 158.762 395.414C159.406 395.591 159.928 395.769 160.33 395.946C160.74 396.123 161.086 396.399 161.366 396.772C161.655 397.136 161.8 397.626 161.8 398.242C161.8 398.737 161.664 399.203 161.394 399.642C161.132 400.081 160.745 400.435 160.232 400.706C159.728 400.967 159.13 401.098 158.44 401.098ZM169.549 399.012H165.475L164.775 401H163.109L166.595 391.256H168.443L171.929 401H170.249L169.549 399.012ZM169.101 397.71L167.519 393.188L165.923 397.71H169.101ZM175.041 399.712H178.331V401H173.445V391.27H175.041V399.712ZM181.261 392.558V395.414H184.621V396.716H181.261V399.698H185.041V401H179.665V391.256H185.041V392.558H181.261Z" fill="#333333"/>
<path d="M95.63 536.25V534.794H98.542V545H96.932V536.25H95.63ZM100.735 539.764C100.735 538.149 101.005 536.889 101.547 535.984C102.097 535.069 103.04 534.612 104.375 534.612C105.709 534.612 106.647 535.069 107.189 535.984C107.739 536.889 108.015 538.149 108.015 539.764C108.015 541.397 107.739 542.676 107.189 543.6C106.647 544.515 105.709 544.972 104.375 544.972C103.04 544.972 102.097 544.515 101.547 543.6C101.005 542.676 100.735 541.397 100.735 539.764ZM106.447 539.764C106.447 539.008 106.395 538.369 106.293 537.846C106.199 537.323 106.003 536.899 105.705 536.572C105.406 536.236 104.963 536.068 104.375 536.068C103.787 536.068 103.343 536.236 103.045 536.572C102.746 536.899 102.545 537.323 102.443 537.846C102.349 538.369 102.303 539.008 102.303 539.764C102.303 540.548 102.349 541.206 102.443 541.738C102.536 542.27 102.732 542.699 103.031 543.026C103.339 543.353 103.787 543.516 104.375 543.516C104.963 543.516 105.406 543.353 105.705 543.026C106.013 542.699 106.213 542.27 106.307 541.738C106.4 541.206 106.447 540.548 106.447 539.764ZM109.451 537.258C109.451 536.577 109.647 536.045 110.039 535.662C110.441 535.27 110.954 535.074 111.579 535.074C112.205 535.074 112.713 535.27 113.105 535.662C113.507 536.045 113.707 536.577 113.707 537.258C113.707 537.939 113.507 538.476 113.105 538.868C112.713 539.26 112.205 539.456 111.579 539.456C110.954 539.456 110.441 539.26 110.039 538.868C109.647 538.476 109.451 537.939 109.451 537.258ZM117.991 535.256L112.405 545H110.837L116.423 535.256H117.991ZM111.579 536.04C110.991 536.04 110.697 536.446 110.697 537.258C110.697 538.079 110.991 538.49 111.579 538.49C111.859 538.49 112.074 538.392 112.223 538.196C112.382 537.991 112.461 537.678 112.461 537.258C112.461 536.446 112.167 536.04 111.579 536.04ZM115.149 542.984C115.149 542.303 115.345 541.771 115.737 541.388C116.139 540.996 116.652 540.8 117.277 540.8C117.893 540.8 118.397 540.996 118.789 541.388C119.191 541.771 119.391 542.303 119.391 542.984C119.391 543.665 119.191 544.202 118.789 544.594C118.397 544.986 117.893 545.182 117.277 545.182C116.652 545.182 116.139 544.986 115.737 544.594C115.345 544.202 115.149 543.665 115.149 542.984ZM117.263 541.766C116.675 541.766 116.381 542.172 116.381 542.984C116.381 543.796 116.675 544.202 117.263 544.202C117.851 544.202 118.145 543.796 118.145 542.984C118.145 542.172 117.851 541.766 117.263 541.766ZM134.913 535.27V545H133.317V538.336L130.349 545H129.243L126.261 538.336V545H124.665V535.27H126.387L129.803 542.9L133.205 535.27H134.913ZM142.877 543.012H138.803L138.103 545H136.437L139.923 535.256H141.771L145.257 545H143.577L142.877 543.012ZM142.429 541.71L140.847 537.188L139.251 541.71H142.429ZM151.827 545L149.587 541.108H148.369V545H146.773V535.27H150.133C150.879 535.27 151.509 535.401 152.023 535.662C152.545 535.923 152.933 536.273 153.185 536.712C153.446 537.151 153.577 537.641 153.577 538.182C153.577 538.817 153.39 539.395 153.017 539.918C152.653 540.431 152.088 540.781 151.323 540.968L153.731 545H151.827ZM148.369 539.834H150.133C150.73 539.834 151.178 539.685 151.477 539.386C151.785 539.087 151.939 538.686 151.939 538.182C151.939 537.678 151.789 537.286 151.491 537.006C151.192 536.717 150.739 536.572 150.133 536.572H148.369V539.834ZM160.98 545L157.214 540.646V545H155.618V535.27H157.214V539.708L160.994 535.27H162.996L158.768 540.142L163.066 545H160.98ZM166.074 536.558V539.414H169.434V540.716H166.074V543.698H169.854V545H164.478V535.256H169.854V536.558H166.074ZM178.106 535.27V536.572H175.516V545H173.92V536.572H171.316V535.27H178.106ZM181.318 535.27V545H179.722V535.27H181.318ZM191.407 545H189.811L185.009 537.734V545H183.413V535.256H185.009L189.811 542.508V535.256H191.407V545ZM200.545 538.07C200.293 537.585 199.943 537.221 199.495 536.978C199.047 536.726 198.529 536.6 197.941 536.6C197.297 536.6 196.723 536.745 196.219 537.034C195.715 537.323 195.318 537.734 195.029 538.266C194.749 538.798 194.609 539.414 194.609 540.114C194.609 540.814 194.749 541.435 195.029 541.976C195.318 542.508 195.715 542.919 196.219 543.208C196.723 543.497 197.297 543.642 197.941 543.642C198.809 543.642 199.514 543.399 200.055 542.914C200.596 542.429 200.928 541.771 201.049 540.94H197.395V539.666H202.757V540.912C202.654 541.668 202.384 542.363 201.945 542.998C201.516 543.633 200.951 544.141 200.251 544.524C199.56 544.897 198.79 545.084 197.941 545.084C197.026 545.084 196.191 544.874 195.435 544.454C194.679 544.025 194.077 543.432 193.629 542.676C193.19 541.92 192.971 541.066 192.971 540.114C192.971 539.162 193.19 538.308 193.629 537.552C194.077 536.796 194.679 536.208 195.435 535.788C196.2 535.359 197.036 535.144 197.941 535.144C198.977 535.144 199.896 535.401 200.699 535.914C201.511 536.418 202.099 537.137 202.463 538.07H200.545Z" fill="#333333"/>
<path d="M95.63 586.25V584.794H98.542V595H96.932V586.25H95.63ZM100.735 589.764C100.735 588.149 101.005 586.889 101.547 585.984C102.097 585.069 103.04 584.612 104.375 584.612C105.709 584.612 106.647 585.069 107.189 585.984C107.739 586.889 108.015 588.149 108.015 589.764C108.015 591.397 107.739 592.676 107.189 593.6C106.647 594.515 105.709 594.972 104.375 594.972C103.04 594.972 102.097 594.515 101.547 593.6C101.005 592.676 100.735 591.397 100.735 589.764ZM106.447 589.764C106.447 589.008 106.395 588.369 106.293 587.846C106.199 587.323 106.003 586.899 105.705 586.572C105.406 586.236 104.963 586.068 104.375 586.068C103.787 586.068 103.343 586.236 103.045 586.572C102.746 586.899 102.545 587.323 102.443 587.846C102.349 588.369 102.303 589.008 102.303 589.764C102.303 590.548 102.349 591.206 102.443 591.738C102.536 592.27 102.732 592.699 103.031 593.026C103.339 593.353 103.787 593.516 104.375 593.516C104.963 593.516 105.406 593.353 105.705 593.026C106.013 592.699 106.213 592.27 106.307 591.738C106.4 591.206 106.447 590.548 106.447 589.764ZM109.451 587.258C109.451 586.577 109.647 586.045 110.039 585.662C110.441 585.27 110.954 585.074 111.579 585.074C112.205 585.074 112.713 585.27 113.105 585.662C113.507 586.045 113.707 586.577 113.707 587.258C113.707 587.939 113.507 588.476 113.105 588.868C112.713 589.26 112.205 589.456 111.579 589.456C110.954 589.456 110.441 589.26 110.039 588.868C109.647 588.476 109.451 587.939 109.451 587.258ZM117.991 585.256L112.405 595H110.837L116.423 585.256H117.991ZM111.579 586.04C110.991 586.04 110.697 586.446 110.697 587.258C110.697 588.079 110.991 588.49 111.579 588.49C111.859 588.49 112.074 588.392 112.223 588.196C112.382 587.991 112.461 587.678 112.461 587.258C112.461 586.446 112.167 586.04 111.579 586.04ZM115.149 592.984C115.149 592.303 115.345 591.771 115.737 591.388C116.139 590.996 116.652 590.8 117.277 590.8C117.893 590.8 118.397 590.996 118.789 591.388C119.191 591.771 119.391 592.303 119.391 592.984C119.391 593.665 119.191 594.202 118.789 594.594C118.397 594.986 117.893 595.182 117.277 595.182C116.652 595.182 116.139 594.986 115.737 594.594C115.345 594.202 115.149 593.665 115.149 592.984ZM117.263 591.766C116.675 591.766 116.381 592.172 116.381 592.984C116.381 593.796 116.675 594.202 117.263 594.202C117.851 594.202 118.145 593.796 118.145 592.984C118.145 592.172 117.851 591.766 117.263 591.766ZM126.247 585.27V591.472C126.247 592.209 126.439 592.765 126.821 593.138C127.213 593.511 127.755 593.698 128.445 593.698C129.145 593.698 129.687 593.511 130.069 593.138C130.461 592.765 130.657 592.209 130.657 591.472V585.27H132.253V591.444C132.253 592.237 132.081 592.909 131.735 593.46C131.39 594.011 130.928 594.421 130.349 594.692C129.771 594.963 129.131 595.098 128.431 595.098C127.731 595.098 127.092 594.963 126.513 594.692C125.944 594.421 125.491 594.011 125.155 593.46C124.819 592.909 124.651 592.237 124.651 591.444V585.27H126.247ZM139.539 590.002C140.062 590.095 140.505 590.371 140.869 590.828C141.233 591.285 141.415 591.803 141.415 592.382C141.415 592.877 141.285 593.325 141.023 593.726C140.771 594.118 140.403 594.431 139.917 594.664C139.432 594.888 138.867 595 138.223 595H134.331V585.27H138.041C138.704 585.27 139.273 585.382 139.749 585.606C140.225 585.83 140.585 586.133 140.827 586.516C141.07 586.889 141.191 587.309 141.191 587.776C141.191 588.336 141.042 588.803 140.743 589.176C140.445 589.549 140.043 589.825 139.539 590.002ZM135.927 589.358H137.901C138.424 589.358 138.83 589.241 139.119 589.008C139.418 588.765 139.567 588.42 139.567 587.972C139.567 587.533 139.418 587.193 139.119 586.95C138.83 586.698 138.424 586.572 137.901 586.572H135.927V589.358ZM138.083 593.698C138.625 593.698 139.049 593.567 139.357 593.306C139.665 593.045 139.819 592.681 139.819 592.214C139.819 591.738 139.656 591.36 139.329 591.08C139.003 590.8 138.569 590.66 138.027 590.66H135.927V593.698H138.083ZM144.732 585.27V591.472C144.732 592.209 144.923 592.765 145.306 593.138C145.698 593.511 146.239 593.698 146.93 593.698C147.63 593.698 148.171 593.511 148.554 593.138C148.946 592.765 149.142 592.209 149.142 591.472V585.27H150.738V591.444C150.738 592.237 150.565 592.909 150.22 593.46C149.874 594.011 149.412 594.421 148.834 594.692C148.255 594.963 147.616 595.098 146.916 595.098C146.216 595.098 145.576 594.963 144.998 594.692C144.428 594.421 143.976 594.011 143.64 593.46C143.304 592.909 143.136 592.237 143.136 591.444V585.27H144.732ZM160.81 595H159.214L154.412 587.734V595H152.816V585.256H154.412L159.214 592.508V585.256H160.81V595ZM169.191 585.27V586.572H166.601V595H165.005V586.572H162.401V585.27H169.191ZM172.39 585.27V591.472C172.39 592.209 172.581 592.765 172.964 593.138C173.356 593.511 173.897 593.698 174.588 593.698C175.288 593.698 175.829 593.511 176.212 593.138C176.604 592.765 176.8 592.209 176.8 591.472V585.27H178.396V591.444C178.396 592.237 178.223 592.909 177.878 593.46C177.532 594.011 177.07 594.421 176.492 594.692C175.913 594.963 175.274 595.098 174.574 595.098C173.874 595.098 173.234 594.963 172.656 594.692C172.086 594.421 171.634 594.011 171.298 593.46C170.962 592.909 170.794 592.237 170.794 591.444V585.27H172.39ZM189.837 585.27V586.572H185.707V589.442H188.927V590.744H185.707V595H184.111V585.27H189.837ZM195.754 595.098C194.848 595.098 194.013 594.888 193.248 594.468C192.492 594.039 191.89 593.446 191.442 592.69C191.003 591.925 190.784 591.066 190.784 590.114C190.784 589.162 191.003 588.308 191.442 587.552C191.89 586.796 192.492 586.208 193.248 585.788C194.013 585.359 194.848 585.144 195.754 585.144C196.668 585.144 197.504 585.359 198.26 585.788C199.025 586.208 199.627 586.796 200.066 587.552C200.504 588.308 200.724 589.162 200.724 590.114C200.724 591.066 200.504 591.925 200.066 592.69C199.627 593.446 199.025 594.039 198.26 594.468C197.504 594.888 196.668 595.098 195.754 595.098ZM195.754 593.712C196.398 593.712 196.972 593.567 197.476 593.278C197.98 592.979 198.372 592.559 198.652 592.018C198.941 591.467 199.086 590.833 199.086 590.114C199.086 589.395 198.941 588.765 198.652 588.224C198.372 587.683 197.98 587.267 197.476 586.978C196.972 586.689 196.398 586.544 195.754 586.544C195.11 586.544 194.536 586.689 194.032 586.978C193.528 587.267 193.131 587.683 192.842 588.224C192.562 588.765 192.422 589.395 192.422 590.114C192.422 590.833 192.562 591.467 192.842 592.018C193.131 592.559 193.528 592.979 194.032 593.278C194.536 593.567 195.11 593.712 195.754 593.712ZM203.876 585.27V591.472C203.876 592.209 204.067 592.765 204.45 593.138C204.842 593.511 205.383 593.698 206.074 593.698C206.774 593.698 207.315 593.511 207.698 593.138C208.09 592.765 208.286 592.209 208.286 591.472V585.27H209.882V591.444C209.882 592.237 209.709 592.909 209.364 593.46C209.019 594.011 208.557 594.421 207.978 594.692C207.399 594.963 206.76 595.098 206.06 595.098C205.36 595.098 204.721 594.963 204.142 594.692C203.573 594.421 203.12 594.011 202.784 593.46C202.448 592.909 202.28 592.237 202.28 591.444V585.27H203.876ZM219.954 595H218.358L213.556 587.734V595H211.96V585.256H213.556L218.358 592.508V585.256H219.954V595ZM225.228 585.27C226.264 585.27 227.169 585.471 227.944 585.872C228.728 586.264 229.33 586.833 229.75 587.58C230.179 588.317 230.394 589.181 230.394 590.17C230.394 591.159 230.179 592.018 229.75 592.746C229.33 593.474 228.728 594.034 227.944 594.426C227.169 594.809 226.264 595 225.228 595H222.05V585.27H225.228ZM225.228 593.698C226.367 593.698 227.239 593.39 227.846 592.774C228.453 592.158 228.756 591.29 228.756 590.17C228.756 589.041 228.453 588.159 227.846 587.524C227.239 586.889 226.367 586.572 225.228 586.572H223.646V593.698H225.228ZM237.842 593.012H233.768L233.068 595H231.402L234.888 585.256H236.736L240.222 595H238.542L237.842 593.012ZM237.394 591.71L235.812 587.188L234.216 591.71H237.394ZM248.024 585.27V586.572H245.434V595H243.838V586.572H241.234V585.27H248.024ZM251.236 585.27V595H249.64V585.27H251.236ZM257.769 595.098C256.864 595.098 256.029 594.888 255.263 594.468C254.507 594.039 253.905 593.446 253.457 592.69C253.019 591.925 252.799 591.066 252.799 590.114C252.799 589.162 253.019 588.308 253.457 587.552C253.905 586.796 254.507 586.208 255.263 585.788C256.029 585.359 256.864 585.144 257.769 585.144C258.684 585.144 259.519 585.359 260.275 585.788C261.041 586.208 261.643 586.796 262.081 587.552C262.52 588.308 262.739 589.162 262.739 590.114C262.739 591.066 262.52 591.925 262.081 592.69C261.643 593.446 261.041 594.039 260.275 594.468C259.519 594.888 258.684 595.098 257.769 595.098ZM257.769 593.712C258.413 593.712 258.987 593.567 259.491 593.278C259.995 592.979 260.387 592.559 260.667 592.018C260.957 591.467 261.101 590.833 261.101 590.114C261.101 589.395 260.957 588.765 260.667 588.224C260.387 587.683 259.995 587.267 259.491 586.978C258.987 586.689 258.413 586.544 257.769 586.544C257.125 586.544 256.551 586.689 256.047 586.978C255.543 587.267 255.147 587.683 254.857 588.224C254.577 588.765 254.437 589.395 254.437 590.114C254.437 590.833 254.577 591.467 254.857 592.018C255.147 592.559 255.543 592.979 256.047 593.278C256.551 593.567 257.125 593.712 257.769 593.712ZM272.304 595H270.708L265.906 587.734V595H264.31V585.256H265.906L270.708 592.508V585.256H272.304V595Z" fill="#333333"/>
<path d="M95.63 636.25V634.794H98.542V645H96.932V636.25H95.63ZM100.735 639.764C100.735 638.149 101.005 636.889 101.547 635.984C102.097 635.069 103.04 634.612 104.375 634.612C105.709 634.612 106.647 635.069 107.189 635.984C107.739 636.889 108.015 638.149 108.015 639.764C108.015 641.397 107.739 642.676 107.189 643.6C106.647 644.515 105.709 644.972 104.375 644.972C103.04 644.972 102.097 644.515 101.547 643.6C101.005 642.676 100.735 641.397 100.735 639.764ZM106.447 639.764C106.447 639.008 106.395 638.369 106.293 637.846C106.199 637.323 106.003 636.899 105.705 636.572C105.406 636.236 104.963 636.068 104.375 636.068C103.787 636.068 103.343 636.236 103.045 636.572C102.746 636.899 102.545 637.323 102.443 637.846C102.349 638.369 102.303 639.008 102.303 639.764C102.303 640.548 102.349 641.206 102.443 641.738C102.536 642.27 102.732 642.699 103.031 643.026C103.339 643.353 103.787 643.516 104.375 643.516C104.963 643.516 105.406 643.353 105.705 643.026C106.013 642.699 106.213 642.27 106.307 641.738C106.4 641.206 106.447 640.548 106.447 639.764ZM109.451 637.258C109.451 636.577 109.647 636.045 110.039 635.662C110.441 635.27 110.954 635.074 111.579 635.074C112.205 635.074 112.713 635.27 113.105 635.662C113.507 636.045 113.707 636.577 113.707 637.258C113.707 637.939 113.507 638.476 113.105 638.868C112.713 639.26 112.205 639.456 111.579 639.456C110.954 639.456 110.441 639.26 110.039 638.868C109.647 638.476 109.451 637.939 109.451 637.258ZM117.991 635.256L112.405 645H110.837L116.423 635.256H117.991ZM111.579 636.04C110.991 636.04 110.697 636.446 110.697 637.258C110.697 638.079 110.991 638.49 111.579 638.49C111.859 638.49 112.074 638.392 112.223 638.196C112.382 637.991 112.461 637.678 112.461 637.258C112.461 636.446 112.167 636.04 111.579 636.04ZM115.149 642.984C115.149 642.303 115.345 641.771 115.737 641.388C116.139 640.996 116.652 640.8 117.277 640.8C117.893 640.8 118.397 640.996 118.789 641.388C119.191 641.771 119.391 642.303 119.391 642.984C119.391 643.665 119.191 644.202 118.789 644.594C118.397 644.986 117.893 645.182 117.277 645.182C116.652 645.182 116.139 644.986 115.737 644.594C115.345 644.202 115.149 643.665 115.149 642.984ZM117.263 641.766C116.675 641.766 116.381 642.172 116.381 642.984C116.381 643.796 116.675 644.202 117.263 644.202C117.851 644.202 118.145 643.796 118.145 642.984C118.145 642.172 117.851 641.766 117.263 641.766ZM124.133 640.114C124.133 639.162 124.353 638.308 124.791 637.552C125.239 636.796 125.841 636.208 126.597 635.788C127.363 635.359 128.198 635.144 129.103 635.144C130.139 635.144 131.059 635.401 131.861 635.914C132.673 636.418 133.261 637.137 133.625 638.07H131.707C131.455 637.557 131.105 637.174 130.657 636.922C130.209 636.67 129.691 636.544 129.103 636.544C128.459 636.544 127.885 636.689 127.381 636.978C126.877 637.267 126.481 637.683 126.191 638.224C125.911 638.765 125.771 639.395 125.771 640.114C125.771 640.833 125.911 641.463 126.191 642.004C126.481 642.545 126.877 642.965 127.381 643.264C127.885 643.553 128.459 643.698 129.103 643.698C129.691 643.698 130.209 643.572 130.657 643.32C131.105 643.068 131.455 642.685 131.707 642.172H133.625C133.261 643.105 132.673 643.824 131.861 644.328C131.059 644.832 130.139 645.084 129.103 645.084C128.189 645.084 127.353 644.874 126.597 644.454C125.841 644.025 125.239 643.432 124.791 642.676C124.353 641.92 124.133 641.066 124.133 640.114ZM143.263 635.27V645H141.667V640.744H137.089V645H135.493V635.27H137.089V639.442H141.667V635.27H143.263ZM151.23 643.012H147.156L146.456 645H144.79L148.276 635.256H150.124L153.61 645H151.93L151.23 643.012ZM150.782 641.71L149.2 637.188L147.604 641.71H150.782ZM160.18 645L157.94 641.108H156.722V645H155.126V635.27H158.486C159.233 635.27 159.863 635.401 160.376 635.662C160.899 635.923 161.286 636.273 161.538 636.712C161.8 637.151 161.93 637.641 161.93 638.182C161.93 638.817 161.744 639.395 161.37 639.918C161.006 640.431 160.442 640.781 159.676 640.968L162.084 645H160.18ZM156.722 639.834H158.486C159.084 639.834 159.532 639.685 159.83 639.386C160.138 639.087 160.292 638.686 160.292 638.182C160.292 637.678 160.143 637.286 159.844 637.006C159.546 636.717 159.093 636.572 158.486 636.572H156.722V639.834ZM165.568 635.27V645H163.972V635.27H165.568ZM173.949 635.27V636.572H171.359V645H169.763V636.572H167.159V635.27H173.949ZM182.776 635.27L179.556 641.472V645H177.96V641.472L174.726 635.27H176.504L178.758 640.044L181.012 635.27H182.776Z" fill="#333333"/>
</svg>
