<svg width="767" height="193" viewBox="0 0 767 193" fill="none" xmlns="http://www.w3.org/2000/svg">
<g clip-path="url(#clip0_39_195)">
<path opacity="0.1" d="M84.824 138.672C78.488 138.672 72.664 137.2 67.352 134.256C62.04 131.248 57.816 127.12 54.68 121.872C51.608 116.56 50.072 110.576 50.072 103.92C50.072 97.264 51.608 91.312 54.68 86.064C57.816 80.752 62.04 76.624 67.352 73.68C72.664 70.736 78.488 69.264 84.824 69.264C91.224 69.264 97.048 70.736 102.296 73.68C107.608 76.624 111.8 80.752 114.872 86.064C117.944 91.312 119.48 97.264 119.48 103.92C119.48 110.576 117.944 116.56 114.872 121.872C111.8 127.12 107.608 131.248 102.296 134.256C96.984 137.2 91.16 138.672 84.824 138.672ZM84.824 121.2C89.624 121.2 93.4 119.632 96.152 116.496C98.968 113.36 100.376 109.168 100.376 103.92C100.376 98.544 98.968 94.32 96.152 91.248C93.4 88.112 89.624 86.544 84.824 86.544C79.96 86.544 76.152 88.112 73.4 91.248C70.648 94.32 69.272 98.544 69.272 103.92C69.272 109.232 70.648 113.456 73.4 116.592C76.152 119.664 79.96 121.2 84.824 121.2ZM179.779 103.248C183.747 104.144 186.883 106.128 189.187 109.2C191.555 112.208 192.739 115.664 192.739 119.568C192.739 125.328 190.755 129.84 186.787 133.104C182.819 136.368 177.251 138 170.083 138H136.578V70.32H169.027C175.939 70.32 181.347 71.856 185.251 74.928C189.219 78 191.202 82.32 191.202 87.888C191.202 91.856 190.146 95.184 188.035 97.872C185.986 100.496 183.235 102.288 179.779 103.248ZM155.394 97.2H164.899C169.635 97.2 172.003 95.248 172.003 91.344C172.003 87.312 169.635 85.296 164.899 85.296H155.394V97.2ZM166.339 122.832C171.075 122.832 173.443 120.848 173.443 116.88C173.443 114.832 172.803 113.264 171.523 112.176C170.307 111.088 168.547 110.544 166.243 110.544H155.394V122.832H166.339ZM254.457 70.32V115.152C254.457 122.768 252.377 128.592 248.217 132.624C244.121 136.656 238.457 138.672 231.225 138.672C223.545 138.672 217.401 136.528 212.793 132.24C208.249 127.952 205.977 121.776 205.977 113.712H224.601C224.665 119.024 226.617 121.68 230.457 121.68C233.913 121.68 235.641 119.504 235.641 115.152V70.32H254.457ZM293.143 85.392V96.432H314.743V110.736H293.143V122.928H317.623V138H274.327V70.32H317.623V85.392H293.143ZM333.257 104.016C333.257 97.36 334.633 91.44 337.385 86.256C340.201 81.008 344.169 76.944 349.289 74.064C354.409 71.12 360.297 69.648 366.953 69.648C375.401 69.648 382.505 71.92 388.265 76.464C394.025 80.944 397.737 87.056 399.401 94.8H379.145C377.929 92.24 376.233 90.288 374.057 88.944C371.945 87.6 369.481 86.928 366.665 86.928C362.313 86.928 358.825 88.496 356.201 91.632C353.641 94.704 352.361 98.832 352.361 104.016C352.361 109.264 353.641 113.456 356.201 116.592C358.825 119.664 362.313 121.2 366.665 121.2C369.481 121.2 371.945 120.528 374.057 119.184C376.233 117.84 377.929 115.888 379.145 113.328H399.401C397.737 121.072 394.025 127.216 388.265 131.76C382.505 136.24 375.401 138.48 366.953 138.48C360.297 138.48 354.409 137.04 349.289 134.16C344.169 131.216 340.201 127.152 337.385 121.968C334.633 116.72 333.257 110.736 333.257 104.016ZM467.927 70.32V85.296H449.879V138H431.063V85.296H413.207V70.32H467.927ZM502.344 70.32V138H483.528V70.32H502.344ZM587.556 70.32L564.228 138H540.132L516.708 70.32H536.868L552.228 119.184L567.492 70.32H587.556ZM620.874 85.392V96.432H642.474V110.736H620.874V122.928H645.354V138H602.058V70.32H645.354V85.392H620.874ZM688.828 138.672C680.956 138.672 674.492 136.816 669.436 133.104C664.38 129.328 661.66 123.952 661.276 116.976H681.34C681.532 119.344 682.236 121.072 683.452 122.16C684.668 123.248 686.236 123.792 688.156 123.792C689.884 123.792 691.292 123.376 692.38 122.544C693.532 121.648 694.108 120.432 694.108 118.896C694.108 116.912 693.18 115.376 691.324 114.288C689.468 113.2 686.46 111.984 682.3 110.64C677.884 109.168 674.3 107.76 671.548 106.416C668.86 105.008 666.492 102.992 664.444 100.368C662.46 97.68 661.468 94.192 661.468 89.904C661.468 85.552 662.556 81.84 664.732 78.768C666.908 75.632 669.916 73.264 673.756 71.664C677.596 70.064 681.948 69.264 686.812 69.264C694.684 69.264 700.956 71.12 705.628 74.832C710.364 78.48 712.892 83.632 713.212 90.288H692.764C692.7 88.24 692.06 86.704 690.844 85.68C689.692 84.656 688.188 84.144 686.332 84.144C684.924 84.144 683.772 84.56 682.876 85.392C681.98 86.224 681.532 87.408 681.532 88.944C681.532 90.224 682.012 91.344 682.972 92.304C683.996 93.2 685.244 94 686.716 94.704C688.188 95.344 690.364 96.176 693.244 97.2C697.532 98.672 701.052 100.144 703.804 101.616C706.62 103.024 709.02 105.04 711.004 107.664C713.052 110.224 714.076 113.488 714.076 117.456C714.076 121.488 713.052 125.104 711.004 128.304C709.02 131.504 706.108 134.032 702.268 135.888C698.492 137.744 694.012 138.672 688.828 138.672Z" fill="#620C0B"/>
<path d="M70.5386 155.252C68.1866 155.252 66.0266 154.7 64.0586 153.596C62.0906 152.492 60.5306 150.968 59.3786 149.024C58.2266 147.056 57.6506 144.836 57.6506 142.364C57.6506 139.916 58.2266 137.72 59.3786 135.776C60.5306 133.808 62.0906 132.272 64.0586 131.168C66.0266 130.064 68.1866 129.512 70.5386 129.512C72.9146 129.512 75.0746 130.064 77.0186 131.168C78.9866 132.272 80.5346 133.808 81.6626 135.776C82.8146 137.72 83.3906 139.916 83.3906 142.364C83.3906 144.836 82.8146 147.056 81.6626 149.024C80.5346 150.968 78.9866 152.492 77.0186 153.596C75.0506 154.7 72.8906 155.252 70.5386 155.252ZM70.5386 150.752C72.0506 150.752 73.3826 150.416 74.5346 149.744C75.6866 149.048 76.5866 148.064 77.2346 146.792C77.8826 145.52 78.2066 144.044 78.2066 142.364C78.2066 140.684 77.8826 139.22 77.2346 137.972C76.5866 136.7 75.6866 135.728 74.5346 135.056C73.3826 134.384 72.0506 134.048 70.5386 134.048C69.0266 134.048 67.6826 134.384 66.5066 135.056C65.3546 135.728 64.4546 136.7 63.8066 137.972C63.1586 139.22 62.8346 140.684 62.8346 142.364C62.8346 144.044 63.1586 145.52 63.8066 146.792C64.4546 148.064 65.3546 149.048 66.5066 149.744C67.6826 150.416 69.0266 150.752 70.5386 150.752ZM92.1083 129.872V145.424C92.1083 147.128 92.5523 148.436 93.4403 149.348C94.3283 150.236 95.5763 150.68 97.1843 150.68C98.8163 150.68 100.076 150.236 100.964 149.348C101.852 148.436 102.296 147.128 102.296 145.424V129.872H107.372V145.388C107.372 147.524 106.904 149.336 105.968 150.824C105.056 152.288 103.82 153.392 102.26 154.136C100.724 154.88 99.0083 155.252 97.1123 155.252C95.2403 155.252 93.5363 154.88 92.0003 154.136C90.4883 153.392 89.2883 152.288 88.4003 150.824C87.5123 149.336 87.0683 147.524 87.0683 145.388V129.872H92.1083ZM125.202 155L119.658 145.208H117.282V155H112.242V129.872H121.674C123.618 129.872 125.274 130.22 126.642 130.916C128.01 131.588 129.03 132.512 129.702 133.688C130.398 134.84 130.746 136.136 130.746 137.576C130.746 139.232 130.266 140.732 129.306 142.076C128.346 143.396 126.918 144.308 125.022 144.812L131.034 155H125.202ZM117.282 141.428H121.494C122.862 141.428 123.882 141.104 124.554 140.456C125.226 139.784 125.562 138.86 125.562 137.684C125.562 136.532 125.226 135.644 124.554 135.02C123.882 134.372 122.862 134.048 121.494 134.048H117.282V141.428ZM155.546 155.252C153.194 155.252 151.034 154.7 149.066 153.596C147.098 152.492 145.538 150.968 144.386 149.024C143.234 147.056 142.658 144.836 142.658 142.364C142.658 139.916 143.234 137.72 144.386 135.776C145.538 133.808 147.098 132.272 149.066 131.168C151.034 130.064 153.194 129.512 155.546 129.512C157.922 129.512 160.082 130.064 162.026 131.168C163.994 132.272 165.542 133.808 166.67 135.776C167.822 137.72 168.398 139.916 168.398 142.364C168.398 144.836 167.822 147.056 166.67 149.024C165.542 150.968 163.994 152.492 162.026 153.596C160.058 154.7 157.898 155.252 155.546 155.252ZM155.546 150.752C157.058 150.752 158.39 150.416 159.542 149.744C160.694 149.048 161.594 148.064 162.242 146.792C162.89 145.52 163.214 144.044 163.214 142.364C163.214 140.684 162.89 139.22 162.242 137.972C161.594 136.7 160.694 135.728 159.542 135.056C158.39 134.384 157.058 134.048 155.546 134.048C154.034 134.048 152.69 134.384 151.514 135.056C150.362 135.728 149.462 136.7 148.814 137.972C148.166 139.22 147.842 140.684 147.842 142.364C147.842 144.044 148.166 145.52 148.814 146.792C149.462 148.064 150.362 149.048 151.514 149.744C152.69 150.416 154.034 150.752 155.546 150.752ZM186.404 142.112C187.82 142.376 188.984 143.084 189.896 144.236C190.808 145.388 191.264 146.708 191.264 148.196C191.264 149.54 190.928 150.728 190.256 151.76C189.608 152.768 188.66 153.56 187.412 154.136C186.164 154.712 184.688 155 182.984 155H172.148V129.872H182.516C184.22 129.872 185.684 130.148 186.908 130.7C188.156 131.252 189.092 132.02 189.716 133.004C190.364 133.988 190.688 135.104 190.688 136.352C190.688 137.816 190.292 139.04 189.5 140.024C188.732 141.008 187.7 141.704 186.404 142.112ZM177.188 140.24H181.796C182.996 140.24 183.92 139.976 184.568 139.448C185.216 138.896 185.54 138.116 185.54 137.108C185.54 136.1 185.216 135.32 184.568 134.768C183.92 134.216 182.996 133.94 181.796 133.94H177.188V140.24ZM182.264 150.896C183.488 150.896 184.436 150.608 185.108 150.032C185.804 149.456 186.152 148.64 186.152 147.584C186.152 146.504 185.792 145.664 185.072 145.064C184.352 144.44 183.38 144.128 182.156 144.128H177.188V150.896H182.264ZM209.933 129.872V147.512C209.933 149.96 209.225 151.868 207.809 153.236C206.393 154.58 204.497 155.252 202.121 155.252C199.721 155.252 197.777 154.556 196.289 153.164C194.825 151.772 194.093 149.828 194.093 147.332H199.133C199.157 148.412 199.409 149.252 199.889 149.852C200.393 150.452 201.113 150.752 202.049 150.752C202.961 150.752 203.657 150.464 204.137 149.888C204.617 149.312 204.857 148.52 204.857 147.512V129.872H209.933ZM220.852 133.94V140.24H229.312V144.236H220.852V150.896H230.392V155H215.812V129.836H230.392V133.94H220.852ZM233.748 142.4C233.748 139.928 234.3 137.72 235.404 135.776C236.532 133.808 238.056 132.284 239.976 131.204C241.92 130.1 244.092 129.548 246.492 129.548C249.3 129.548 251.76 130.268 253.872 131.708C255.984 133.148 257.46 135.14 258.3 137.684H252.504C251.928 136.484 251.112 135.584 250.056 134.984C249.024 134.384 247.824 134.084 246.456 134.084C244.992 134.084 243.684 134.432 242.532 135.128C241.404 135.8 240.516 136.76 239.868 138.008C239.244 139.256 238.932 140.72 238.932 142.4C238.932 144.056 239.244 145.52 239.868 146.792C240.516 148.04 241.404 149.012 242.532 149.708C243.684 150.38 244.992 150.716 246.456 150.716C247.824 150.716 249.024 150.416 250.056 149.816C251.112 149.192 251.928 148.28 252.504 147.08H258.3C257.46 149.648 255.984 151.652 253.872 153.092C251.784 154.508 249.324 155.216 246.492 155.216C244.092 155.216 241.92 154.676 239.976 153.596C238.056 152.492 236.532 150.968 235.404 149.024C234.3 147.08 233.748 144.872 233.748 142.4ZM279.705 129.872V133.94H273.009V155H267.969V133.94H261.273V129.872H279.705ZM288.422 129.872V155H283.382V129.872H288.422ZM315.974 129.872L306.758 155H300.638L291.422 129.872H296.822L303.734 149.852L310.61 129.872H315.974ZM324.036 133.94V140.24H332.496V144.236H324.036V150.896H333.576V155H318.996V129.836H333.576V133.94H324.036ZM346.832 155.252C345.08 155.252 343.496 154.952 342.08 154.352C340.688 153.752 339.584 152.888 338.768 151.76C337.952 150.632 337.532 149.3 337.508 147.764H342.908C342.98 148.796 343.34 149.612 343.988 150.212C344.66 150.812 345.572 151.112 346.724 151.112C347.9 151.112 348.824 150.836 349.496 150.284C350.168 149.708 350.504 148.964 350.504 148.052C350.504 147.308 350.276 146.696 349.82 146.216C349.364 145.736 348.788 145.364 348.092 145.1C347.42 144.812 346.484 144.5 345.284 144.164C343.652 143.684 342.32 143.216 341.288 142.76C340.28 142.28 339.404 141.572 338.66 140.636C337.94 139.676 337.58 138.404 337.58 136.82C337.58 135.332 337.952 134.036 338.696 132.932C339.44 131.828 340.484 130.988 341.828 130.412C343.172 129.812 344.708 129.512 346.436 129.512C349.028 129.512 351.128 130.148 352.736 131.42C354.368 132.668 355.268 134.42 355.436 136.676H349.892C349.844 135.812 349.472 135.104 348.776 134.552C348.104 133.976 347.204 133.688 346.076 133.688C345.092 133.688 344.3 133.94 343.7 134.444C343.124 134.948 342.836 135.68 342.836 136.64C342.836 137.312 343.052 137.876 343.484 138.332C343.94 138.764 344.492 139.124 345.14 139.412C345.812 139.676 346.748 139.988 347.948 140.348C349.58 140.828 350.912 141.308 351.944 141.788C352.976 142.268 353.864 142.988 354.608 143.948C355.352 144.908 355.724 146.168 355.724 147.728C355.724 149.072 355.376 150.32 354.68 151.472C353.984 152.624 352.964 153.548 351.62 154.244C350.276 154.916 348.68 155.252 346.832 155.252Z" fill="#352C2C"/>
</g>
<defs>
<clipPath id="clip0_39_195">
<rect width="767" height="193" fill="white"/>
</clipPath>
</defs>
</svg>
