<svg width="656" height="456" viewBox="0 0 656 456" fill="none" xmlns="http://www.w3.org/2000/svg">
<g clip-path="url(#clip0_21_175)">
<mask id="mask0_21_175" style="mask-type:alpha" maskUnits="userSpaceOnUse" x="390" y="22" width="235" height="226">
<rect x="390" y="22" width="235" height="226"/>
</mask>
<g mask="url(#mask0_21_175)">
<ellipse cx="540.5" cy="182.5" rx="100.5" ry="95.5" fill="#620C0D" fill-opacity="0.45"/>
</g>
<mask id="mask1_21_175" style="mask-type:alpha" maskUnits="userSpaceOnUse" x="-4" y="118" width="235" height="226">
<rect x="-4" y="118" width="235" height="226"/>
</mask>
<g mask="url(#mask1_21_175)">
<ellipse cx="146.5" cy="278.5" rx="100.5" ry="95.5" fill="#620C0D" fill-opacity="0.45"/>
</g>
<g filter="url(#filter0_d_21_175)">
<path d="M12 82C12 76.4771 16.4772 72 22 72H265C270.523 72 275 76.4772 275 82V207C275 212.523 270.523 217 265 217H22C16.4772 217 12 212.523 12 207V82Z" fill="white"/>
<path d="M12.5 82C12.5 76.7533 16.7533 72.5 22 72.5H265C270.247 72.5 274.5 76.7533 274.5 82V207C274.5 212.247 270.247 216.5 265 216.5H22C16.7533 216.5 12.5 212.247 12.5 207V82Z" stroke="#EEEEEE"/>
</g>
<path d="M98.971 115.49V128H96.919V119.432L93.103 128H91.681L87.847 119.432V128H85.795V115.49H88.009L92.401 125.3L96.775 115.49H98.971ZM110.38 125.444H105.142L104.242 128H102.1L106.582 115.472H108.958L113.44 128H111.28L110.38 125.444ZM109.804 123.77L107.77 117.956L105.718 123.77H109.804ZM122.301 121.754L126.189 128H123.885L121.059 123.464L118.413 128H116.127L120.015 121.754L116.109 115.49H118.413L121.257 120.062L123.921 115.49H126.207L122.301 121.754ZM139.579 128.126C138.739 128.126 137.983 127.982 137.311 127.694C136.639 127.394 136.111 126.974 135.727 126.434C135.343 125.894 135.151 125.264 135.151 124.544H137.347C137.395 125.084 137.605 125.528 137.977 125.876C138.361 126.224 138.895 126.398 139.579 126.398C140.287 126.398 140.839 126.23 141.235 125.894C141.631 125.546 141.829 125.102 141.829 124.562C141.829 124.142 141.703 123.8 141.451 123.536C141.211 123.272 140.905 123.068 140.533 122.924C140.173 122.78 139.669 122.624 139.021 122.456C138.205 122.24 137.539 122.024 137.023 121.808C136.519 121.58 136.087 121.232 135.727 120.764C135.367 120.296 135.187 119.672 135.187 118.892C135.187 118.172 135.367 117.542 135.727 117.002C136.087 116.462 136.591 116.048 137.239 115.76C137.887 115.472 138.637 115.328 139.489 115.328C140.701 115.328 141.691 115.634 142.459 116.246C143.239 116.846 143.671 117.674 143.755 118.73H141.487C141.451 118.274 141.235 117.884 140.839 117.56C140.443 117.236 139.921 117.074 139.273 117.074C138.685 117.074 138.205 117.224 137.833 117.524C137.461 117.824 137.275 118.256 137.275 118.82C137.275 119.204 137.389 119.522 137.617 119.774C137.857 120.014 138.157 120.206 138.517 120.35C138.877 120.494 139.369 120.65 139.993 120.818C140.821 121.046 141.493 121.274 142.009 121.502C142.537 121.73 142.981 122.084 143.341 122.564C143.713 123.032 143.899 123.662 143.899 124.454C143.899 125.09 143.725 125.69 143.377 126.254C143.041 126.818 142.543 127.274 141.883 127.622C141.235 127.958 140.467 128.126 139.579 128.126ZM149.525 115.49V123.464C149.525 124.412 149.771 125.126 150.263 125.606C150.767 126.086 151.463 126.326 152.351 126.326C153.251 126.326 153.947 126.086 154.439 125.606C154.943 125.126 155.195 124.412 155.195 123.464V115.49H157.247V123.428C157.247 124.448 157.025 125.312 156.581 126.02C156.137 126.728 155.543 127.256 154.799 127.604C154.055 127.952 153.233 128.126 152.333 128.126C151.433 128.126 150.611 127.952 149.867 127.604C149.135 127.256 148.553 126.728 148.121 126.02C147.689 125.312 147.473 124.448 147.473 123.428V115.49H149.525ZM169.836 119.216C169.836 119.852 169.686 120.452 169.386 121.016C169.086 121.58 168.606 122.042 167.946 122.402C167.286 122.75 166.44 122.924 165.408 122.924H163.14V128H161.088V115.49H165.408C166.368 115.49 167.178 115.658 167.838 115.994C168.51 116.318 169.008 116.762 169.332 117.326C169.668 117.89 169.836 118.52 169.836 119.216ZM165.408 121.25C166.188 121.25 166.77 121.076 167.154 120.728C167.538 120.368 167.73 119.864 167.73 119.216C167.73 117.848 166.956 117.164 165.408 117.164H163.14V121.25H165.408ZM181.711 119.216C181.711 119.852 181.561 120.452 181.261 121.016C180.961 121.58 180.481 122.042 179.821 122.402C179.161 122.75 178.315 122.924 177.283 122.924H175.015V128H172.963V115.49H177.283C178.243 115.49 179.053 115.658 179.713 115.994C180.385 116.318 180.883 116.762 181.207 117.326C181.543 117.89 181.711 118.52 181.711 119.216ZM177.283 121.25C178.063 121.25 178.645 121.076 179.029 120.728C179.413 120.368 179.605 119.864 179.605 119.216C179.605 117.848 178.831 117.164 177.283 117.164H175.015V121.25H177.283ZM186.891 126.344H191.121V128H184.839V115.49H186.891V126.344ZM203.277 115.49L199.137 123.464V128H197.085V123.464L192.927 115.49H195.213L198.111 121.628L201.009 115.49H203.277Z" fill="#620C0D"/>
<path d="M50.9768 159.408H44.6588V163.512C44.9348 163.128 45.3428 162.816 45.8828 162.576C46.4228 162.324 47.0048 162.198 47.6288 162.198C48.6248 162.198 49.4348 162.408 50.0588 162.828C50.6828 163.236 51.1268 163.77 51.3908 164.43C51.6668 165.078 51.8048 165.768 51.8048 166.5C51.8048 167.364 51.6428 168.138 51.3188 168.822C50.9948 169.506 50.4968 170.046 49.8248 170.442C49.1648 170.838 48.3428 171.036 47.3588 171.036C46.0988 171.036 45.0788 170.712 44.2988 170.064C43.5188 169.416 43.0448 168.552 42.8768 167.472H44.4788C44.6348 168.156 44.9648 168.69 45.4688 169.074C45.9728 169.458 46.6088 169.65 47.3768 169.65C48.3248 169.65 49.0388 169.368 49.5188 168.804C49.9988 168.228 50.2388 167.472 50.2388 166.536C50.2388 165.6 49.9988 164.88 49.5188 164.376C49.0388 163.86 48.3308 163.602 47.3948 163.602C46.7588 163.602 46.2008 163.758 45.7208 164.07C45.2528 164.37 44.9108 164.784 44.6948 165.312H43.1468V157.968H50.9768V159.408ZM55.1515 164.358C55.1515 162.294 55.4875 160.686 56.1595 159.534C56.8315 158.37 58.0075 157.788 59.6875 157.788C61.3555 157.788 62.5255 158.37 63.1975 159.534C63.8695 160.686 64.2055 162.294 64.2055 164.358C64.2055 166.458 63.8695 168.09 63.1975 169.254C62.5255 170.418 61.3555 171 59.6875 171C58.0075 171 56.8315 170.418 56.1595 169.254C55.4875 168.09 55.1515 166.458 55.1515 164.358ZM62.5855 164.358C62.5855 163.314 62.5135 162.432 62.3695 161.712C62.2375 160.98 61.9555 160.392 61.5235 159.948C61.1035 159.504 60.4915 159.282 59.6875 159.282C58.8715 159.282 58.2475 159.504 57.8155 159.948C57.3955 160.392 57.1135 160.98 56.9695 161.712C56.8375 162.432 56.7715 163.314 56.7715 164.358C56.7715 165.438 56.8375 166.344 56.9695 167.076C57.1135 167.808 57.3955 168.396 57.8155 168.84C58.2475 169.284 58.8715 169.506 59.6875 169.506C60.4915 169.506 61.1035 169.284 61.5235 168.84C61.9555 168.396 62.2375 167.808 62.3695 167.076C62.5135 166.344 62.5855 165.438 62.5855 164.358ZM67.6242 164.358C67.6242 162.294 67.9602 160.686 68.6322 159.534C69.3042 158.37 70.4802 157.788 72.1602 157.788C73.8282 157.788 74.9982 158.37 75.6702 159.534C76.3422 160.686 76.6782 162.294 76.6782 164.358C76.6782 166.458 76.3422 168.09 75.6702 169.254C74.9982 170.418 73.8282 171 72.1602 171C70.4802 171 69.3042 170.418 68.6322 169.254C67.9602 168.09 67.6242 166.458 67.6242 164.358ZM75.0582 164.358C75.0582 163.314 74.9862 162.432 74.8422 161.712C74.7102 160.98 74.4282 160.392 73.9962 159.948C73.5762 159.504 72.9642 159.282 72.1602 159.282C71.3442 159.282 70.7202 159.504 70.2882 159.948C69.8682 160.392 69.5862 160.98 69.4422 161.712C69.3102 162.432 69.2442 163.314 69.2442 164.358C69.2442 165.438 69.3102 166.344 69.4422 167.076C69.5862 167.808 69.8682 168.396 70.2882 168.84C70.7202 169.284 71.3442 169.506 72.1602 169.506C72.9642 169.506 73.5762 169.284 73.9962 168.84C74.4282 168.396 74.7102 167.808 74.8422 167.076C74.9862 166.344 75.0582 165.438 75.0582 164.358ZM82.059 168.732L80.043 173.574H78.945L80.259 168.732H82.059ZM84.8353 164.358C84.8353 162.294 85.1713 160.686 85.8433 159.534C86.5153 158.37 87.6913 157.788 89.3713 157.788C91.0393 157.788 92.2093 158.37 92.8813 159.534C93.5533 160.686 93.8893 162.294 93.8893 164.358C93.8893 166.458 93.5533 168.09 92.8813 169.254C92.2093 170.418 91.0393 171 89.3713 171C87.6913 171 86.5153 170.418 85.8433 169.254C85.1713 168.09 84.8353 166.458 84.8353 164.358ZM92.2693 164.358C92.2693 163.314 92.1973 162.432 92.0533 161.712C91.9213 160.98 91.6393 160.392 91.2073 159.948C90.7873 159.504 90.1753 159.282 89.3713 159.282C88.5553 159.282 87.9313 159.504 87.4993 159.948C87.0793 160.392 86.7973 160.98 86.6533 161.712C86.5213 162.432 86.4553 163.314 86.4553 164.358C86.4553 165.438 86.5213 166.344 86.6533 167.076C86.7973 167.808 87.0793 168.396 87.4993 168.84C87.9313 169.284 88.5553 169.506 89.3713 169.506C90.1753 169.506 90.7873 169.284 91.2073 168.84C91.6393 168.396 91.9213 167.808 92.0533 167.076C92.1973 166.344 92.2693 165.438 92.2693 164.358ZM97.3081 164.358C97.3081 162.294 97.6441 160.686 98.3161 159.534C98.9881 158.37 100.164 157.788 101.844 157.788C103.512 157.788 104.682 158.37 105.354 159.534C106.026 160.686 106.362 162.294 106.362 164.358C106.362 166.458 106.026 168.09 105.354 169.254C104.682 170.418 103.512 171 101.844 171C100.164 171 98.9881 170.418 98.3161 169.254C97.6441 168.09 97.3081 166.458 97.3081 164.358ZM104.742 164.358C104.742 163.314 104.67 162.432 104.526 161.712C104.394 160.98 104.112 160.392 103.68 159.948C103.26 159.504 102.648 159.282 101.844 159.282C101.028 159.282 100.404 159.504 99.9721 159.948C99.5521 160.392 99.2701 160.98 99.1261 161.712C98.9941 162.432 98.9281 163.314 98.9281 164.358C98.9281 165.438 98.9941 166.344 99.1261 167.076C99.2701 167.808 99.5521 168.396 99.9721 168.84C100.404 169.284 101.028 169.506 101.844 169.506C102.648 169.506 103.26 169.284 103.68 168.84C104.112 168.396 104.394 167.808 104.526 167.076C104.67 166.344 104.742 165.438 104.742 164.358ZM109.781 164.358C109.781 162.294 110.117 160.686 110.789 159.534C111.461 158.37 112.637 157.788 114.317 157.788C115.985 157.788 117.155 158.37 117.827 159.534C118.499 160.686 118.835 162.294 118.835 164.358C118.835 166.458 118.499 168.09 117.827 169.254C117.155 170.418 115.985 171 114.317 171C112.637 171 111.461 170.418 110.789 169.254C110.117 168.09 109.781 166.458 109.781 164.358ZM117.215 164.358C117.215 163.314 117.143 162.432 116.999 161.712C116.867 160.98 116.585 160.392 116.153 159.948C115.733 159.504 115.121 159.282 114.317 159.282C113.501 159.282 112.877 159.504 112.445 159.948C112.025 160.392 111.743 160.98 111.599 161.712C111.467 162.432 111.401 163.314 111.401 164.358C111.401 165.438 111.467 166.344 111.599 167.076C111.743 167.808 112.025 168.396 112.445 168.84C112.877 169.284 113.501 169.506 114.317 169.506C115.121 169.506 115.733 169.284 116.153 168.84C116.585 168.396 116.867 167.808 116.999 167.076C117.143 166.344 117.215 165.438 117.215 164.358ZM124.216 168.732L122.2 173.574H121.102L122.416 168.732H124.216ZM126.992 164.358C126.992 162.294 127.328 160.686 128 159.534C128.672 158.37 129.848 157.788 131.528 157.788C133.196 157.788 134.366 158.37 135.038 159.534C135.71 160.686 136.046 162.294 136.046 164.358C136.046 166.458 135.71 168.09 135.038 169.254C134.366 170.418 133.196 171 131.528 171C129.848 171 128.672 170.418 128 169.254C127.328 168.09 126.992 166.458 126.992 164.358ZM134.426 164.358C134.426 163.314 134.354 162.432 134.21 161.712C134.078 160.98 133.796 160.392 133.364 159.948C132.944 159.504 132.332 159.282 131.528 159.282C130.712 159.282 130.088 159.504 129.656 159.948C129.236 160.392 128.954 160.98 128.81 161.712C128.678 162.432 128.612 163.314 128.612 164.358C128.612 165.438 128.678 166.344 128.81 167.076C128.954 167.808 129.236 168.396 129.656 168.84C130.088 169.284 130.712 169.506 131.528 169.506C132.332 169.506 132.944 169.284 133.364 168.84C133.796 168.396 134.078 167.808 134.21 167.076C134.354 166.344 134.426 165.438 134.426 164.358ZM139.465 164.358C139.465 162.294 139.801 160.686 140.473 159.534C141.145 158.37 142.321 157.788 144.001 157.788C145.669 157.788 146.839 158.37 147.511 159.534C148.183 160.686 148.519 162.294 148.519 164.358C148.519 166.458 148.183 168.09 147.511 169.254C146.839 170.418 145.669 171 144.001 171C142.321 171 141.145 170.418 140.473 169.254C139.801 168.09 139.465 166.458 139.465 164.358ZM146.899 164.358C146.899 163.314 146.827 162.432 146.683 161.712C146.551 160.98 146.269 160.392 145.837 159.948C145.417 159.504 144.805 159.282 144.001 159.282C143.185 159.282 142.561 159.504 142.129 159.948C141.709 160.392 141.427 160.98 141.283 161.712C141.151 162.432 141.085 163.314 141.085 164.358C141.085 165.438 141.151 166.344 141.283 167.076C141.427 167.808 141.709 168.396 142.129 168.84C142.561 169.284 143.185 169.506 144.001 169.506C144.805 169.506 145.417 169.284 145.837 168.84C146.269 168.396 146.551 167.808 146.683 167.076C146.827 166.344 146.899 165.438 146.899 164.358ZM151.937 164.358C151.937 162.294 152.273 160.686 152.945 159.534C153.617 158.37 154.793 157.788 156.473 157.788C158.141 157.788 159.311 158.37 159.983 159.534C160.655 160.686 160.991 162.294 160.991 164.358C160.991 166.458 160.655 168.09 159.983 169.254C159.311 170.418 158.141 171 156.473 171C154.793 171 153.617 170.418 152.945 169.254C152.273 168.09 151.937 166.458 151.937 164.358ZM159.371 164.358C159.371 163.314 159.299 162.432 159.155 161.712C159.023 160.98 158.741 160.392 158.309 159.948C157.889 159.504 157.277 159.282 156.473 159.282C155.657 159.282 155.033 159.504 154.601 159.948C154.181 160.392 153.899 160.98 153.755 161.712C153.623 162.432 153.557 163.314 153.557 164.358C153.557 165.438 153.623 166.344 153.755 167.076C153.899 167.808 154.181 168.396 154.601 168.84C155.033 169.284 155.657 169.506 156.473 169.506C157.277 169.506 157.889 169.284 158.309 168.84C158.741 168.396 159.023 167.808 159.155 167.076C159.299 166.344 159.371 165.438 159.371 164.358ZM166.372 168.732L164.356 173.574H163.258L164.572 168.732H166.372ZM169.148 164.358C169.148 162.294 169.484 160.686 170.156 159.534C170.828 158.37 172.004 157.788 173.684 157.788C175.352 157.788 176.522 158.37 177.194 159.534C177.866 160.686 178.202 162.294 178.202 164.358C178.202 166.458 177.866 168.09 177.194 169.254C176.522 170.418 175.352 171 173.684 171C172.004 171 170.828 170.418 170.156 169.254C169.484 168.09 169.148 166.458 169.148 164.358ZM176.582 164.358C176.582 163.314 176.51 162.432 176.366 161.712C176.234 160.98 175.952 160.392 175.52 159.948C175.1 159.504 174.488 159.282 173.684 159.282C172.868 159.282 172.244 159.504 171.812 159.948C171.392 160.392 171.11 160.98 170.966 161.712C170.834 162.432 170.768 163.314 170.768 164.358C170.768 165.438 170.834 166.344 170.966 167.076C171.11 167.808 171.392 168.396 171.812 168.84C172.244 169.284 172.868 169.506 173.684 169.506C174.488 169.506 175.1 169.284 175.52 168.84C175.952 168.396 176.234 167.808 176.366 167.076C176.51 166.344 176.582 165.438 176.582 164.358ZM181.621 164.358C181.621 162.294 181.957 160.686 182.629 159.534C183.301 158.37 184.477 157.788 186.157 157.788C187.825 157.788 188.995 158.37 189.667 159.534C190.339 160.686 190.675 162.294 190.675 164.358C190.675 166.458 190.339 168.09 189.667 169.254C188.995 170.418 187.825 171 186.157 171C184.477 171 183.301 170.418 182.629 169.254C181.957 168.09 181.621 166.458 181.621 164.358ZM189.055 164.358C189.055 163.314 188.983 162.432 188.839 161.712C188.707 160.98 188.425 160.392 187.993 159.948C187.573 159.504 186.961 159.282 186.157 159.282C185.341 159.282 184.717 159.504 184.285 159.948C183.865 160.392 183.583 160.98 183.439 161.712C183.307 162.432 183.241 163.314 183.241 164.358C183.241 165.438 183.307 166.344 183.439 167.076C183.583 167.808 183.865 168.396 184.285 168.84C184.717 169.284 185.341 169.506 186.157 169.506C186.961 169.506 187.573 169.284 187.993 168.84C188.425 168.396 188.707 167.808 188.839 167.076C188.983 166.344 189.055 165.438 189.055 164.358ZM194.094 164.358C194.094 162.294 194.43 160.686 195.102 159.534C195.774 158.37 196.95 157.788 198.63 157.788C200.298 157.788 201.468 158.37 202.14 159.534C202.812 160.686 203.148 162.294 203.148 164.358C203.148 166.458 202.812 168.09 202.14 169.254C201.468 170.418 200.298 171 198.63 171C196.95 171 195.774 170.418 195.102 169.254C194.43 168.09 194.094 166.458 194.094 164.358ZM201.528 164.358C201.528 163.314 201.456 162.432 201.312 161.712C201.18 160.98 200.898 160.392 200.466 159.948C200.046 159.504 199.434 159.282 198.63 159.282C197.814 159.282 197.19 159.504 196.758 159.948C196.338 160.392 196.056 160.98 195.912 161.712C195.78 162.432 195.714 163.314 195.714 164.358C195.714 165.438 195.78 166.344 195.912 167.076C196.056 167.808 196.338 168.396 196.758 168.84C197.19 169.284 197.814 169.506 198.63 169.506C199.434 169.506 200.046 169.284 200.466 168.84C200.898 168.396 201.18 167.808 201.312 167.076C201.456 166.344 201.528 165.438 201.528 164.358ZM208.529 168.732L206.513 173.574H205.415L206.729 168.732H208.529ZM211.305 164.358C211.305 162.294 211.641 160.686 212.313 159.534C212.985 158.37 214.161 157.788 215.841 157.788C217.509 157.788 218.679 158.37 219.351 159.534C220.023 160.686 220.359 162.294 220.359 164.358C220.359 166.458 220.023 168.09 219.351 169.254C218.679 170.418 217.509 171 215.841 171C214.161 171 212.985 170.418 212.313 169.254C211.641 168.09 211.305 166.458 211.305 164.358ZM218.739 164.358C218.739 163.314 218.667 162.432 218.523 161.712C218.391 160.98 218.109 160.392 217.677 159.948C217.257 159.504 216.645 159.282 215.841 159.282C215.025 159.282 214.401 159.504 213.969 159.948C213.549 160.392 213.267 160.98 213.123 161.712C212.991 162.432 212.925 163.314 212.925 164.358C212.925 165.438 212.991 166.344 213.123 167.076C213.267 167.808 213.549 168.396 213.969 168.84C214.401 169.284 215.025 169.506 215.841 169.506C216.645 169.506 217.257 169.284 217.677 168.84C218.109 168.396 218.391 167.808 218.523 167.076C218.667 166.344 218.739 165.438 218.739 164.358ZM223.778 164.358C223.778 162.294 224.114 160.686 224.786 159.534C225.458 158.37 226.634 157.788 228.314 157.788C229.982 157.788 231.152 158.37 231.824 159.534C232.496 160.686 232.832 162.294 232.832 164.358C232.832 166.458 232.496 168.09 231.824 169.254C231.152 170.418 229.982 171 228.314 171C226.634 171 225.458 170.418 224.786 169.254C224.114 168.09 223.778 166.458 223.778 164.358ZM231.212 164.358C231.212 163.314 231.14 162.432 230.996 161.712C230.864 160.98 230.582 160.392 230.15 159.948C229.73 159.504 229.118 159.282 228.314 159.282C227.498 159.282 226.874 159.504 226.442 159.948C226.022 160.392 225.74 160.98 225.596 161.712C225.464 162.432 225.398 163.314 225.398 164.358C225.398 165.438 225.464 166.344 225.596 167.076C225.74 167.808 226.022 168.396 226.442 168.84C226.874 169.284 227.498 169.506 228.314 169.506C229.118 169.506 229.73 169.284 230.15 168.84C230.582 168.396 230.864 167.808 230.996 167.076C231.14 166.344 231.212 165.438 231.212 164.358ZM236.25 164.358C236.25 162.294 236.586 160.686 237.258 159.534C237.93 158.37 239.106 157.788 240.786 157.788C242.454 157.788 243.624 158.37 244.296 159.534C244.968 160.686 245.304 162.294 245.304 164.358C245.304 166.458 244.968 168.09 244.296 169.254C243.624 170.418 242.454 171 240.786 171C239.106 171 237.93 170.418 237.258 169.254C236.586 168.09 236.25 166.458 236.25 164.358ZM243.684 164.358C243.684 163.314 243.612 162.432 243.468 161.712C243.336 160.98 243.054 160.392 242.622 159.948C242.202 159.504 241.59 159.282 240.786 159.282C239.97 159.282 239.346 159.504 238.914 159.948C238.494 160.392 238.212 160.98 238.068 161.712C237.936 162.432 237.87 163.314 237.87 164.358C237.87 165.438 237.936 166.344 238.068 167.076C238.212 167.808 238.494 168.396 238.914 168.84C239.346 169.284 239.97 169.506 240.786 169.506C241.59 169.506 242.202 169.284 242.622 168.84C243.054 168.396 243.336 167.808 243.468 167.076C243.612 166.344 243.684 165.438 243.684 164.358Z" fill="#333333"/>
<g filter="url(#filter1_d_21_175)">
<path d="M320 30C320 24.4771 324.477 20 330 20H573C578.523 20 583 24.4772 583 30V155C583 160.523 578.523 165 573 165H330C324.477 165 320 160.523 320 155V30Z" fill="white"/>
</g>
<g filter="url(#filter2_d_21_175)">
<path fill-rule="evenodd" clip-rule="evenodd" d="M573 21H330C325.029 21 321 25.0294 321 30V155C321 159.971 325.029 164 330 164H573C577.971 164 582 159.971 582 155V30C582 25.0294 577.971 21 573 21ZM330 20C324.477 20 320 24.4771 320 30V155C320 160.523 324.477 165 330 165H573C578.523 165 583 160.523 583 155V30C583 24.4772 578.523 20 573 20H330Z" fill="#620C0D" fill-opacity="0.24" shape-rendering="crispEdges"/>
</g>
<path d="M350.274 117.102V115.86L356.592 107.112H358.554V115.68H360.354V117.102H358.554V120H356.934V117.102H350.274ZM357.006 108.822L352.164 115.68H357.006V108.822Z" fill="#333333"/>
<path d="M363.16 113.358C363.16 111.294 363.496 109.686 364.168 108.534C364.84 107.37 366.016 106.788 367.696 106.788C369.364 106.788 370.534 107.37 371.206 108.534C371.878 109.686 372.214 111.294 372.214 113.358C372.214 115.458 371.878 117.09 371.206 118.254C370.534 119.418 369.364 120 367.696 120C366.016 120 364.84 119.418 364.168 118.254C363.496 117.09 363.16 115.458 363.16 113.358ZM370.594 113.358C370.594 112.314 370.522 111.432 370.378 110.712C370.246 109.98 369.964 109.392 369.532 108.948C369.112 108.504 368.5 108.282 367.696 108.282C366.88 108.282 366.256 108.504 365.824 108.948C365.404 109.392 365.122 109.98 364.978 110.712C364.846 111.432 364.78 112.314 364.78 113.358C364.78 114.438 364.846 115.344 364.978 116.076C365.122 116.808 365.404 117.396 365.824 117.84C366.256 118.284 366.88 118.506 367.696 118.506C368.5 118.506 369.112 118.284 369.532 117.84C369.964 117.396 370.246 116.808 370.378 116.076C370.522 115.344 370.594 114.438 370.594 113.358Z" fill="#333333"/>
<path d="M375.633 113.358C375.633 111.294 375.969 109.686 376.641 108.534C377.313 107.37 378.489 106.788 380.169 106.788C381.837 106.788 383.007 107.37 383.679 108.534C384.351 109.686 384.687 111.294 384.687 113.358C384.687 115.458 384.351 117.09 383.679 118.254C383.007 119.418 381.837 120 380.169 120C378.489 120 377.313 119.418 376.641 118.254C375.969 117.09 375.633 115.458 375.633 113.358ZM383.067 113.358C383.067 112.314 382.995 111.432 382.851 110.712C382.719 109.98 382.437 109.392 382.005 108.948C381.585 108.504 380.973 108.282 380.169 108.282C379.353 108.282 378.729 108.504 378.297 108.948C377.877 109.392 377.595 109.98 377.451 110.712C377.319 111.432 377.253 112.314 377.253 113.358C377.253 114.438 377.319 115.344 377.451 116.076C377.595 116.808 377.877 117.396 378.297 117.84C378.729 118.284 379.353 118.506 380.169 118.506C380.973 118.506 381.585 118.284 382.005 117.84C382.437 117.396 382.719 116.808 382.851 116.076C382.995 115.344 383.067 114.438 383.067 113.358Z" fill="#333333"/>
<path d="M390.068 117.732L388.052 122.574H386.954L388.268 117.732H390.068Z" fill="#333333"/>
<path d="M392.844 113.358C392.844 111.294 393.18 109.686 393.852 108.534C394.524 107.37 395.7 106.788 397.38 106.788C399.048 106.788 400.218 107.37 400.89 108.534C401.562 109.686 401.898 111.294 401.898 113.358C401.898 115.458 401.562 117.09 400.89 118.254C400.218 119.418 399.048 120 397.38 120C395.7 120 394.524 119.418 393.852 118.254C393.18 117.09 392.844 115.458 392.844 113.358ZM400.278 113.358C400.278 112.314 400.206 111.432 400.062 110.712C399.93 109.98 399.648 109.392 399.216 108.948C398.796 108.504 398.184 108.282 397.38 108.282C396.564 108.282 395.94 108.504 395.508 108.948C395.088 109.392 394.806 109.98 394.662 110.712C394.53 111.432 394.464 112.314 394.464 113.358C394.464 114.438 394.53 115.344 394.662 116.076C394.806 116.808 395.088 117.396 395.508 117.84C395.94 118.284 396.564 118.506 397.38 118.506C398.184 118.506 398.796 118.284 399.216 117.84C399.648 117.396 399.93 116.808 400.062 116.076C400.206 115.344 400.278 114.438 400.278 113.358Z" fill="#333333"/>
<path d="M405.317 113.358C405.317 111.294 405.653 109.686 406.325 108.534C406.997 107.37 408.173 106.788 409.853 106.788C411.521 106.788 412.691 107.37 413.363 108.534C414.035 109.686 414.371 111.294 414.371 113.358C414.371 115.458 414.035 117.09 413.363 118.254C412.691 119.418 411.521 120 409.853 120C408.173 120 406.997 119.418 406.325 118.254C405.653 117.09 405.317 115.458 405.317 113.358ZM412.751 113.358C412.751 112.314 412.679 111.432 412.535 110.712C412.403 109.98 412.121 109.392 411.689 108.948C411.269 108.504 410.657 108.282 409.853 108.282C409.037 108.282 408.413 108.504 407.981 108.948C407.561 109.392 407.279 109.98 407.135 110.712C407.003 111.432 406.937 112.314 406.937 113.358C406.937 114.438 407.003 115.344 407.135 116.076C407.279 116.808 407.561 117.396 407.981 117.84C408.413 118.284 409.037 118.506 409.853 118.506C410.657 118.506 411.269 118.284 411.689 117.84C412.121 117.396 412.403 116.808 412.535 116.076C412.679 115.344 412.751 114.438 412.751 113.358Z" fill="#333333"/>
<path d="M417.79 113.358C417.79 111.294 418.126 109.686 418.798 108.534C419.47 107.37 420.646 106.788 422.326 106.788C423.994 106.788 425.164 107.37 425.836 108.534C426.508 109.686 426.844 111.294 426.844 113.358C426.844 115.458 426.508 117.09 425.836 118.254C425.164 119.418 423.994 120 422.326 120C420.646 120 419.47 119.418 418.798 118.254C418.126 117.09 417.79 115.458 417.79 113.358ZM425.224 113.358C425.224 112.314 425.152 111.432 425.008 110.712C424.876 109.98 424.594 109.392 424.162 108.948C423.742 108.504 423.13 108.282 422.326 108.282C421.51 108.282 420.886 108.504 420.454 108.948C420.034 109.392 419.752 109.98 419.608 110.712C419.476 111.432 419.41 112.314 419.41 113.358C419.41 114.438 419.476 115.344 419.608 116.076C419.752 116.808 420.034 117.396 420.454 117.84C420.886 118.284 421.51 118.506 422.326 118.506C423.13 118.506 423.742 118.284 424.162 117.84C424.594 117.396 424.876 116.808 425.008 116.076C425.152 115.344 425.224 114.438 425.224 113.358Z" fill="#333333"/>
<path d="M432.224 117.732L430.208 122.574H429.11L430.424 117.732H432.224Z" fill="#333333"/>
<path d="M435.001 113.358C435.001 111.294 435.337 109.686 436.009 108.534C436.681 107.37 437.857 106.788 439.537 106.788C441.205 106.788 442.375 107.37 443.047 108.534C443.719 109.686 444.055 111.294 444.055 113.358C444.055 115.458 443.719 117.09 443.047 118.254C442.375 119.418 441.205 120 439.537 120C437.857 120 436.681 119.418 436.009 118.254C435.337 117.09 435.001 115.458 435.001 113.358ZM442.435 113.358C442.435 112.314 442.363 111.432 442.219 110.712C442.087 109.98 441.805 109.392 441.373 108.948C440.953 108.504 440.341 108.282 439.537 108.282C438.721 108.282 438.097 108.504 437.665 108.948C437.245 109.392 436.963 109.98 436.819 110.712C436.687 111.432 436.621 112.314 436.621 113.358C436.621 114.438 436.687 115.344 436.819 116.076C436.963 116.808 437.245 117.396 437.665 117.84C438.097 118.284 438.721 118.506 439.537 118.506C440.341 118.506 440.953 118.284 441.373 117.84C441.805 117.396 442.087 116.808 442.219 116.076C442.363 115.344 442.435 114.438 442.435 113.358Z" fill="#333333"/>
<path d="M447.473 113.358C447.473 111.294 447.809 109.686 448.481 108.534C449.153 107.37 450.329 106.788 452.009 106.788C453.677 106.788 454.847 107.37 455.519 108.534C456.191 109.686 456.527 111.294 456.527 113.358C456.527 115.458 456.191 117.09 455.519 118.254C454.847 119.418 453.677 120 452.009 120C450.329 120 449.153 119.418 448.481 118.254C447.809 117.09 447.473 115.458 447.473 113.358ZM454.907 113.358C454.907 112.314 454.835 111.432 454.691 110.712C454.559 109.98 454.277 109.392 453.845 108.948C453.425 108.504 452.813 108.282 452.009 108.282C451.193 108.282 450.569 108.504 450.137 108.948C449.717 109.392 449.435 109.98 449.291 110.712C449.159 111.432 449.093 112.314 449.093 113.358C449.093 114.438 449.159 115.344 449.291 116.076C449.435 116.808 449.717 117.396 450.137 117.84C450.569 118.284 451.193 118.506 452.009 118.506C452.813 118.506 453.425 118.284 453.845 117.84C454.277 117.396 454.559 116.808 454.691 116.076C454.835 115.344 454.907 114.438 454.907 113.358Z" fill="#333333"/>
<path d="M459.946 113.358C459.946 111.294 460.282 109.686 460.954 108.534C461.626 107.37 462.802 106.788 464.482 106.788C466.15 106.788 467.32 107.37 467.992 108.534C468.664 109.686 469 111.294 469 113.358C469 115.458 468.664 117.09 467.992 118.254C467.32 119.418 466.15 120 464.482 120C462.802 120 461.626 119.418 460.954 118.254C460.282 117.09 459.946 115.458 459.946 113.358ZM467.38 113.358C467.38 112.314 467.308 111.432 467.164 110.712C467.032 109.98 466.75 109.392 466.318 108.948C465.898 108.504 465.286 108.282 464.482 108.282C463.666 108.282 463.042 108.504 462.61 108.948C462.19 109.392 461.908 109.98 461.764 110.712C461.632 111.432 461.566 112.314 461.566 113.358C461.566 114.438 461.632 115.344 461.764 116.076C461.908 116.808 462.19 117.396 462.61 117.84C463.042 118.284 463.666 118.506 464.482 118.506C465.286 118.506 465.898 118.284 466.318 117.84C466.75 117.396 467.032 116.808 467.164 116.076C467.308 115.344 467.38 114.438 467.38 113.358Z" fill="#333333"/>
<path d="M474.381 117.732L472.365 122.574H471.267L472.581 117.732H474.381Z" fill="#333333"/>
<path d="M477.157 113.358C477.157 111.294 477.493 109.686 478.165 108.534C478.837 107.37 480.013 106.788 481.693 106.788C483.361 106.788 484.531 107.37 485.203 108.534C485.875 109.686 486.211 111.294 486.211 113.358C486.211 115.458 485.875 117.09 485.203 118.254C484.531 119.418 483.361 120 481.693 120C480.013 120 478.837 119.418 478.165 118.254C477.493 117.09 477.157 115.458 477.157 113.358ZM484.591 113.358C484.591 112.314 484.519 111.432 484.375 110.712C484.243 109.98 483.961 109.392 483.529 108.948C483.109 108.504 482.497 108.282 481.693 108.282C480.877 108.282 480.253 108.504 479.821 108.948C479.401 109.392 479.119 109.98 478.975 110.712C478.843 111.432 478.777 112.314 478.777 113.358C478.777 114.438 478.843 115.344 478.975 116.076C479.119 116.808 479.401 117.396 479.821 117.84C480.253 118.284 480.877 118.506 481.693 118.506C482.497 118.506 483.109 118.284 483.529 117.84C483.961 117.396 484.243 116.808 484.375 116.076C484.519 115.344 484.591 114.438 484.591 113.358Z" fill="#333333"/>
<path d="M489.63 113.358C489.63 111.294 489.966 109.686 490.638 108.534C491.31 107.37 492.486 106.788 494.166 106.788C495.834 106.788 497.004 107.37 497.676 108.534C498.348 109.686 498.684 111.294 498.684 113.358C498.684 115.458 498.348 117.09 497.676 118.254C497.004 119.418 495.834 120 494.166 120C492.486 120 491.31 119.418 490.638 118.254C489.966 117.09 489.63 115.458 489.63 113.358ZM497.064 113.358C497.064 112.314 496.992 111.432 496.848 110.712C496.716 109.98 496.434 109.392 496.002 108.948C495.582 108.504 494.97 108.282 494.166 108.282C493.35 108.282 492.726 108.504 492.294 108.948C491.874 109.392 491.592 109.98 491.448 110.712C491.316 111.432 491.25 112.314 491.25 113.358C491.25 114.438 491.316 115.344 491.448 116.076C491.592 116.808 491.874 117.396 492.294 117.84C492.726 118.284 493.35 118.506 494.166 118.506C494.97 118.506 495.582 118.284 496.002 117.84C496.434 117.396 496.716 116.808 496.848 116.076C496.992 115.344 497.064 114.438 497.064 113.358Z" fill="#333333"/>
<path d="M502.103 113.358C502.103 111.294 502.439 109.686 503.111 108.534C503.783 107.37 504.959 106.788 506.639 106.788C508.307 106.788 509.477 107.37 510.149 108.534C510.821 109.686 511.157 111.294 511.157 113.358C511.157 115.458 510.821 117.09 510.149 118.254C509.477 119.418 508.307 120 506.639 120C504.959 120 503.783 119.418 503.111 118.254C502.439 117.09 502.103 115.458 502.103 113.358ZM509.537 113.358C509.537 112.314 509.465 111.432 509.321 110.712C509.189 109.98 508.907 109.392 508.475 108.948C508.055 108.504 507.443 108.282 506.639 108.282C505.823 108.282 505.199 108.504 504.767 108.948C504.347 109.392 504.065 109.98 503.921 110.712C503.789 111.432 503.723 112.314 503.723 113.358C503.723 114.438 503.789 115.344 503.921 116.076C504.065 116.808 504.347 117.396 504.767 117.84C505.199 118.284 505.823 118.506 506.639 118.506C507.443 118.506 508.055 118.284 508.475 117.84C508.907 117.396 509.189 116.808 509.321 116.076C509.465 115.344 509.537 114.438 509.537 113.358Z" fill="#333333"/>
<path d="M516.537 117.732L514.521 122.574H513.423L514.737 117.732H516.537Z" fill="#333333"/>
<path d="M519.314 113.358C519.314 111.294 519.65 109.686 520.322 108.534C520.994 107.37 522.17 106.788 523.85 106.788C525.518 106.788 526.688 107.37 527.36 108.534C528.032 109.686 528.368 111.294 528.368 113.358C528.368 115.458 528.032 117.09 527.36 118.254C526.688 119.418 525.518 120 523.85 120C522.17 120 520.994 119.418 520.322 118.254C519.65 117.09 519.314 115.458 519.314 113.358ZM526.748 113.358C526.748 112.314 526.676 111.432 526.532 110.712C526.4 109.98 526.118 109.392 525.686 108.948C525.266 108.504 524.654 108.282 523.85 108.282C523.034 108.282 522.41 108.504 521.978 108.948C521.558 109.392 521.276 109.98 521.132 110.712C521 111.432 520.934 112.314 520.934 113.358C520.934 114.438 521 115.344 521.132 116.076C521.276 116.808 521.558 117.396 521.978 117.84C522.41 118.284 523.034 118.506 523.85 118.506C524.654 118.506 525.266 118.284 525.686 117.84C526.118 117.396 526.4 116.808 526.532 116.076C526.676 115.344 526.748 114.438 526.748 113.358Z" fill="#333333"/>
<path d="M531.787 113.358C531.787 111.294 532.123 109.686 532.795 108.534C533.467 107.37 534.643 106.788 536.323 106.788C537.991 106.788 539.161 107.37 539.833 108.534C540.505 109.686 540.841 111.294 540.841 113.358C540.841 115.458 540.505 117.09 539.833 118.254C539.161 119.418 537.991 120 536.323 120C534.643 120 533.467 119.418 532.795 118.254C532.123 117.09 531.787 115.458 531.787 113.358ZM539.221 113.358C539.221 112.314 539.149 111.432 539.005 110.712C538.873 109.98 538.591 109.392 538.159 108.948C537.739 108.504 537.127 108.282 536.323 108.282C535.507 108.282 534.883 108.504 534.451 108.948C534.031 109.392 533.749 109.98 533.605 110.712C533.473 111.432 533.407 112.314 533.407 113.358C533.407 114.438 533.473 115.344 533.605 116.076C533.749 116.808 534.031 117.396 534.451 117.84C534.883 118.284 535.507 118.506 536.323 118.506C537.127 118.506 537.739 118.284 538.159 117.84C538.591 117.396 538.873 116.808 539.005 116.076C539.149 115.344 539.221 114.438 539.221 113.358Z" fill="#333333"/>
<path d="M544.259 113.358C544.259 111.294 544.595 109.686 545.267 108.534C545.939 107.37 547.115 106.788 548.795 106.788C550.463 106.788 551.633 107.37 552.305 108.534C552.977 109.686 553.313 111.294 553.313 113.358C553.313 115.458 552.977 117.09 552.305 118.254C551.633 119.418 550.463 120 548.795 120C547.115 120 545.939 119.418 545.267 118.254C544.595 117.09 544.259 115.458 544.259 113.358ZM551.693 113.358C551.693 112.314 551.621 111.432 551.477 110.712C551.345 109.98 551.063 109.392 550.631 108.948C550.211 108.504 549.599 108.282 548.795 108.282C547.979 108.282 547.355 108.504 546.923 108.948C546.503 109.392 546.221 109.98 546.077 110.712C545.945 111.432 545.879 112.314 545.879 113.358C545.879 114.438 545.945 115.344 546.077 116.076C546.221 116.808 546.503 117.396 546.923 117.84C547.355 118.284 547.979 118.506 548.795 118.506C549.599 118.506 550.211 118.284 550.631 117.84C551.063 117.396 551.345 116.808 551.477 116.076C551.621 115.344 551.693 114.438 551.693 113.358Z" fill="#333333"/>
<path d="M412.794 68.49V70.164H409.464V81H407.412V70.164H404.064V68.49H412.794Z" fill="#88451B"/>
<path d="M422.54 81L419.66 75.996H418.094V81H416.042V68.49H420.362C421.322 68.49 422.132 68.658 422.792 68.994C423.464 69.33 423.962 69.78 424.286 70.344C424.622 70.908 424.79 71.538 424.79 72.234C424.79 73.05 424.55 73.794 424.07 74.466C423.602 75.126 422.876 75.576 421.892 75.816L424.988 81H422.54ZM418.094 74.358H420.362C421.13 74.358 421.706 74.166 422.09 73.782C422.486 73.398 422.684 72.882 422.684 72.234C422.684 71.586 422.492 71.082 422.108 70.722C421.724 70.35 421.142 70.164 420.362 70.164H418.094V74.358Z" fill="#88451B"/>
<path d="M430.637 70.146V73.818H434.957V75.492H430.637V79.326H435.497V81H428.585V68.472H435.497V70.146H430.637Z" fill="#88451B"/>
<path d="M446.737 78.444H441.499L440.599 81H438.457L442.939 68.472H445.315L449.797 81H447.637L446.737 78.444ZM446.161 76.77L444.127 70.956L442.075 76.77H446.161Z" fill="#88451B"/>
<path d="M457.037 81.126C456.197 81.126 455.441 80.982 454.769 80.694C454.097 80.394 453.569 79.974 453.185 79.434C452.801 78.894 452.609 78.264 452.609 77.544H454.805C454.853 78.084 455.063 78.528 455.435 78.876C455.819 79.224 456.353 79.398 457.037 79.398C457.745 79.398 458.297 79.23 458.693 78.894C459.089 78.546 459.287 78.102 459.287 77.562C459.287 77.142 459.161 76.8 458.909 76.536C458.669 76.272 458.363 76.068 457.991 75.924C457.631 75.78 457.127 75.624 456.479 75.456C455.663 75.24 454.997 75.024 454.481 74.808C453.977 74.58 453.545 74.232 453.185 73.764C452.825 73.296 452.645 72.672 452.645 71.892C452.645 71.172 452.825 70.542 453.185 70.002C453.545 69.462 454.049 69.048 454.697 68.76C455.345 68.472 456.095 68.328 456.947 68.328C458.159 68.328 459.149 68.634 459.917 69.246C460.697 69.846 461.129 70.674 461.213 71.73H458.945C458.909 71.274 458.693 70.884 458.297 70.56C457.901 70.236 457.379 70.074 456.731 70.074C456.143 70.074 455.663 70.224 455.291 70.524C454.919 70.824 454.733 71.256 454.733 71.82C454.733 72.204 454.847 72.522 455.075 72.774C455.315 73.014 455.615 73.206 455.975 73.35C456.335 73.494 456.827 73.65 457.451 73.818C458.279 74.046 458.951 74.274 459.467 74.502C459.995 74.73 460.439 75.084 460.799 75.564C461.171 76.032 461.357 76.662 461.357 77.454C461.357 78.09 461.183 78.69 460.835 79.254C460.499 79.818 460.001 80.274 459.341 80.622C458.693 80.958 457.925 81.126 457.037 81.126Z" fill="#88451B"/>
<path d="M466.983 68.49V76.464C466.983 77.412 467.229 78.126 467.721 78.606C468.225 79.086 468.921 79.326 469.809 79.326C470.709 79.326 471.405 79.086 471.897 78.606C472.401 78.126 472.653 77.412 472.653 76.464V68.49H474.705V76.428C474.705 77.448 474.483 78.312 474.039 79.02C473.595 79.728 473.001 80.256 472.257 80.604C471.513 80.952 470.691 81.126 469.791 81.126C468.891 81.126 468.069 80.952 467.325 80.604C466.593 80.256 466.011 79.728 465.579 79.02C465.147 78.312 464.931 77.448 464.931 76.428V68.49H466.983Z" fill="#88451B"/>
<path d="M485.044 81L482.164 75.996H480.598V81H478.546V68.49H482.866C483.826 68.49 484.636 68.658 485.296 68.994C485.968 69.33 486.466 69.78 486.79 70.344C487.126 70.908 487.294 71.538 487.294 72.234C487.294 73.05 487.054 73.794 486.574 74.466C486.106 75.126 485.38 75.576 484.396 75.816L487.492 81H485.044ZM480.598 74.358H482.866C483.634 74.358 484.21 74.166 484.594 73.782C484.99 73.398 485.188 72.882 485.188 72.234C485.188 71.586 484.996 71.082 484.612 70.722C484.228 70.35 483.646 70.164 482.866 70.164H480.598V74.358Z" fill="#88451B"/>
<path d="M500.36 68.49L496.22 76.464V81H494.168V76.464L490.01 68.49H492.296L495.194 74.628L498.092 68.49H500.36Z" fill="#88451B"/>
<g filter="url(#filter3_d_21_175)">
<path d="M362 229C362 223.477 366.477 219 372 219H615C620.523 219 625 223.477 625 229V354C625 359.523 620.523 364 615 364H372C366.477 364 362 359.523 362 354V229Z" fill="white"/>
<path d="M362.5 229C362.5 223.753 366.753 219.5 372 219.5H615C620.247 219.5 624.5 223.753 624.5 229V354C624.5 359.247 620.247 363.5 615 363.5H372C366.753 363.5 362.5 359.247 362.5 354V229Z" stroke="#EEEEEE"/>
</g>
<path d="M442.75 306.358C442.75 304.294 443.086 302.686 443.758 301.534C444.43 300.37 445.606 299.788 447.286 299.788C448.954 299.788 450.124 300.37 450.796 301.534C451.468 302.686 451.804 304.294 451.804 306.358C451.804 308.458 451.468 310.09 450.796 311.254C450.124 312.418 448.954 313 447.286 313C445.606 313 444.43 312.418 443.758 311.254C443.086 310.09 442.75 308.458 442.75 306.358ZM450.184 306.358C450.184 305.314 450.112 304.432 449.968 303.712C449.836 302.98 449.554 302.392 449.122 301.948C448.702 301.504 448.09 301.282 447.286 301.282C446.47 301.282 445.846 301.504 445.414 301.948C444.994 302.392 444.712 302.98 444.568 303.712C444.436 304.432 444.37 305.314 444.37 306.358C444.37 307.438 444.436 308.344 444.568 309.076C444.712 309.808 444.994 310.396 445.414 310.84C445.846 311.284 446.47 311.506 447.286 311.506C448.09 311.506 448.702 311.284 449.122 310.84C449.554 310.396 449.836 309.808 449.968 309.076C450.112 308.344 450.184 307.438 450.184 306.358ZM456.015 313.108C455.703 313.108 455.439 313 455.223 312.784C455.007 312.568 454.899 312.304 454.899 311.992C454.899 311.68 455.007 311.416 455.223 311.2C455.439 310.984 455.703 310.876 456.015 310.876C456.315 310.876 456.567 310.984 456.771 311.2C456.987 311.416 457.095 311.68 457.095 311.992C457.095 312.304 456.987 312.568 456.771 312.784C456.567 313 456.315 313.108 456.015 313.108ZM460.172 306.358C460.172 304.294 460.508 302.686 461.18 301.534C461.852 300.37 463.028 299.788 464.708 299.788C466.376 299.788 467.546 300.37 468.218 301.534C468.89 302.686 469.226 304.294 469.226 306.358C469.226 308.458 468.89 310.09 468.218 311.254C467.546 312.418 466.376 313 464.708 313C463.028 313 461.852 312.418 461.18 311.254C460.508 310.09 460.172 308.458 460.172 306.358ZM467.606 306.358C467.606 305.314 467.534 304.432 467.39 303.712C467.258 302.98 466.976 302.392 466.544 301.948C466.124 301.504 465.512 301.282 464.708 301.282C463.892 301.282 463.268 301.504 462.836 301.948C462.416 302.392 462.134 302.98 461.99 303.712C461.858 304.432 461.792 305.314 461.792 306.358C461.792 307.438 461.858 308.344 461.99 309.076C462.134 309.808 462.416 310.396 462.836 310.84C463.268 311.284 463.892 311.506 464.708 311.506C465.512 311.506 466.124 311.284 466.544 310.84C466.976 310.396 467.258 309.808 467.39 309.076C467.534 308.344 467.606 307.438 467.606 306.358ZM472.645 306.358C472.645 304.294 472.981 302.686 473.653 301.534C474.325 300.37 475.501 299.788 477.181 299.788C478.849 299.788 480.019 300.37 480.691 301.534C481.363 302.686 481.699 304.294 481.699 306.358C481.699 308.458 481.363 310.09 480.691 311.254C480.019 312.418 478.849 313 477.181 313C475.501 313 474.325 312.418 473.653 311.254C472.981 310.09 472.645 308.458 472.645 306.358ZM480.079 306.358C480.079 305.314 480.007 304.432 479.863 303.712C479.731 302.98 479.449 302.392 479.017 301.948C478.597 301.504 477.985 301.282 477.181 301.282C476.365 301.282 475.741 301.504 475.309 301.948C474.889 302.392 474.607 302.98 474.463 303.712C474.331 304.432 474.265 305.314 474.265 306.358C474.265 307.438 474.331 308.344 474.463 309.076C474.607 309.808 474.889 310.396 475.309 310.84C475.741 311.284 476.365 311.506 477.181 311.506C477.985 311.506 478.597 311.284 479.017 310.84C479.449 310.396 479.731 309.808 479.863 309.076C480.007 308.344 480.079 307.438 480.079 306.358ZM485.118 306.358C485.118 304.294 485.454 302.686 486.126 301.534C486.798 300.37 487.974 299.788 489.654 299.788C491.322 299.788 492.492 300.37 493.164 301.534C493.836 302.686 494.172 304.294 494.172 306.358C494.172 308.458 493.836 310.09 493.164 311.254C492.492 312.418 491.322 313 489.654 313C487.974 313 486.798 312.418 486.126 311.254C485.454 310.09 485.118 308.458 485.118 306.358ZM492.552 306.358C492.552 305.314 492.48 304.432 492.336 303.712C492.204 302.98 491.922 302.392 491.49 301.948C491.07 301.504 490.458 301.282 489.654 301.282C488.838 301.282 488.214 301.504 487.782 301.948C487.362 302.392 487.08 302.98 486.936 303.712C486.804 304.432 486.738 305.314 486.738 306.358C486.738 307.438 486.804 308.344 486.936 309.076C487.08 309.808 487.362 310.396 487.782 310.84C488.214 311.284 488.838 311.506 489.654 311.506C490.458 311.506 491.07 311.284 491.49 310.84C491.922 310.396 492.204 309.808 492.336 309.076C492.48 308.344 492.552 307.438 492.552 306.358ZM497.591 306.358C497.591 304.294 497.927 302.686 498.599 301.534C499.271 300.37 500.447 299.788 502.127 299.788C503.795 299.788 504.965 300.37 505.637 301.534C506.309 302.686 506.645 304.294 506.645 306.358C506.645 308.458 506.309 310.09 505.637 311.254C504.965 312.418 503.795 313 502.127 313C500.447 313 499.271 312.418 498.599 311.254C497.927 310.09 497.591 308.458 497.591 306.358ZM505.025 306.358C505.025 305.314 504.953 304.432 504.809 303.712C504.677 302.98 504.395 302.392 503.963 301.948C503.543 301.504 502.931 301.282 502.127 301.282C501.311 301.282 500.687 301.504 500.255 301.948C499.835 302.392 499.553 302.98 499.409 303.712C499.277 304.432 499.211 305.314 499.211 306.358C499.211 307.438 499.277 308.344 499.409 309.076C499.553 309.808 499.835 310.396 500.255 310.84C500.687 311.284 501.311 311.506 502.127 311.506C502.931 311.506 503.543 311.284 503.963 310.84C504.395 310.396 504.677 309.808 504.809 309.076C504.953 308.344 505.025 307.438 505.025 306.358ZM510.063 306.358C510.063 304.294 510.399 302.686 511.071 301.534C511.743 300.37 512.919 299.788 514.599 299.788C516.267 299.788 517.437 300.37 518.109 301.534C518.781 302.686 519.117 304.294 519.117 306.358C519.117 308.458 518.781 310.09 518.109 311.254C517.437 312.418 516.267 313 514.599 313C512.919 313 511.743 312.418 511.071 311.254C510.399 310.09 510.063 308.458 510.063 306.358ZM517.497 306.358C517.497 305.314 517.425 304.432 517.281 303.712C517.149 302.98 516.867 302.392 516.435 301.948C516.015 301.504 515.403 301.282 514.599 301.282C513.783 301.282 513.159 301.504 512.727 301.948C512.307 302.392 512.025 302.98 511.881 303.712C511.749 304.432 511.683 305.314 511.683 306.358C511.683 307.438 511.749 308.344 511.881 309.076C512.025 309.808 512.307 310.396 512.727 310.84C513.159 311.284 513.783 311.506 514.599 311.506C515.403 311.506 516.015 311.284 516.435 310.84C516.867 310.396 517.149 309.808 517.281 309.076C517.425 308.344 517.497 307.438 517.497 306.358ZM522.536 306.358C522.536 304.294 522.872 302.686 523.544 301.534C524.216 300.37 525.392 299.788 527.072 299.788C528.74 299.788 529.91 300.37 530.582 301.534C531.254 302.686 531.59 304.294 531.59 306.358C531.59 308.458 531.254 310.09 530.582 311.254C529.91 312.418 528.74 313 527.072 313C525.392 313 524.216 312.418 523.544 311.254C522.872 310.09 522.536 308.458 522.536 306.358ZM529.97 306.358C529.97 305.314 529.898 304.432 529.754 303.712C529.622 302.98 529.34 302.392 528.908 301.948C528.488 301.504 527.876 301.282 527.072 301.282C526.256 301.282 525.632 301.504 525.2 301.948C524.78 302.392 524.498 302.98 524.354 303.712C524.222 304.432 524.156 305.314 524.156 306.358C524.156 307.438 524.222 308.344 524.354 309.076C524.498 309.808 524.78 310.396 525.2 310.84C525.632 311.284 526.256 311.506 527.072 311.506C527.876 311.506 528.488 311.284 528.908 310.84C529.34 310.396 529.622 309.808 529.754 309.076C529.898 308.344 529.97 307.438 529.97 306.358ZM543.307 301.408H536.989V305.512C537.265 305.128 537.673 304.816 538.213 304.576C538.753 304.324 539.335 304.198 539.959 304.198C540.955 304.198 541.765 304.408 542.389 304.828C543.013 305.236 543.457 305.77 543.721 306.43C543.997 307.078 544.135 307.768 544.135 308.5C544.135 309.364 543.973 310.138 543.649 310.822C543.325 311.506 542.827 312.046 542.155 312.442C541.495 312.838 540.673 313.036 539.689 313.036C538.429 313.036 537.409 312.712 536.629 312.064C535.849 311.416 535.375 310.552 535.207 309.472H536.809C536.965 310.156 537.295 310.69 537.799 311.074C538.303 311.458 538.939 311.65 539.707 311.65C540.655 311.65 541.369 311.368 541.849 310.804C542.329 310.228 542.569 309.472 542.569 308.536C542.569 307.6 542.329 306.88 541.849 306.376C541.369 305.86 540.661 305.602 539.725 305.602C539.089 305.602 538.531 305.758 538.051 306.07C537.583 306.37 537.241 306.784 537.025 307.312H535.477V299.968H543.307V301.408Z" fill="#333333"/>
<path d="M433.463 269.216C433.463 269.852 433.313 270.452 433.013 271.016C432.713 271.58 432.233 272.042 431.573 272.402C430.913 272.75 430.067 272.924 429.035 272.924H426.767V278H424.715V265.49H429.035C429.995 265.49 430.805 265.658 431.465 265.994C432.137 266.318 432.635 266.762 432.959 267.326C433.295 267.89 433.463 268.52 433.463 269.216ZM429.035 271.25C429.815 271.25 430.397 271.076 430.781 270.728C431.165 270.368 431.357 269.864 431.357 269.216C431.357 267.848 430.583 267.164 429.035 267.164H426.767V271.25H429.035ZM443.088 278L440.208 272.996H438.642V278H436.59V265.49H440.91C441.87 265.49 442.68 265.658 443.34 265.994C444.012 266.33 444.51 266.78 444.834 267.344C445.17 267.908 445.338 268.538 445.338 269.234C445.338 270.05 445.098 270.794 444.618 271.466C444.15 272.126 443.424 272.576 442.44 272.816L445.536 278H443.088ZM438.642 271.358H440.91C441.678 271.358 442.254 271.166 442.638 270.782C443.034 270.398 443.232 269.882 443.232 269.234C443.232 268.586 443.04 268.082 442.656 267.722C442.272 267.35 441.69 267.164 440.91 267.164H438.642V271.358ZM451.185 267.146V270.818H455.505V272.492H451.185V276.326H456.045V278H449.133V265.472H456.045V267.146H451.185ZM463.864 278.126C463.024 278.126 462.268 277.982 461.596 277.694C460.924 277.394 460.396 276.974 460.012 276.434C459.628 275.894 459.436 275.264 459.436 274.544H461.632C461.68 275.084 461.89 275.528 462.262 275.876C462.646 276.224 463.18 276.398 463.864 276.398C464.572 276.398 465.124 276.23 465.52 275.894C465.916 275.546 466.114 275.102 466.114 274.562C466.114 274.142 465.988 273.8 465.736 273.536C465.496 273.272 465.19 273.068 464.818 272.924C464.458 272.78 463.954 272.624 463.306 272.456C462.49 272.24 461.824 272.024 461.308 271.808C460.804 271.58 460.372 271.232 460.012 270.764C459.652 270.296 459.472 269.672 459.472 268.892C459.472 268.172 459.652 267.542 460.012 267.002C460.372 266.462 460.876 266.048 461.524 265.76C462.172 265.472 462.922 265.328 463.774 265.328C464.986 265.328 465.976 265.634 466.744 266.246C467.524 266.846 467.956 267.674 468.04 268.73H465.772C465.736 268.274 465.52 267.884 465.124 267.56C464.728 267.236 464.206 267.074 463.558 267.074C462.97 267.074 462.49 267.224 462.118 267.524C461.746 267.824 461.56 268.256 461.56 268.82C461.56 269.204 461.674 269.522 461.902 269.774C462.142 270.014 462.442 270.206 462.802 270.35C463.162 270.494 463.654 270.65 464.278 270.818C465.106 271.046 465.778 271.274 466.294 271.502C466.822 271.73 467.266 272.084 467.626 272.564C467.998 273.032 468.184 273.662 468.184 274.454C468.184 275.09 468.01 275.69 467.662 276.254C467.326 276.818 466.828 277.274 466.168 277.622C465.52 277.958 464.752 278.126 463.864 278.126ZM479.318 275.444H474.08L473.18 278H471.038L475.52 265.472H477.896L482.378 278H480.218L479.318 275.444ZM478.742 273.77L476.708 267.956L474.656 273.77H478.742ZM487.548 276.344H491.778V278H485.496V265.49H487.548V276.344ZM496.716 267.146V270.818H501.036V272.492H496.716V276.326H501.576V278H494.664V265.472H501.576V267.146H496.716ZM519.868 269.216C519.868 269.852 519.718 270.452 519.418 271.016C519.118 271.58 518.638 272.042 517.978 272.402C517.318 272.75 516.472 272.924 515.44 272.924H513.172V278H511.12V265.49H515.44C516.4 265.49 517.21 265.658 517.87 265.994C518.542 266.318 519.04 266.762 519.364 267.326C519.7 267.89 519.868 268.52 519.868 269.216ZM515.44 271.25C516.22 271.25 516.802 271.076 517.186 270.728C517.57 270.368 517.762 269.864 517.762 269.216C517.762 267.848 516.988 267.164 515.44 267.164H513.172V271.25H515.44ZM529.493 278L526.613 272.996H525.047V278H522.995V265.49H527.315C528.275 265.49 529.085 265.658 529.745 265.994C530.417 266.33 530.915 266.78 531.239 267.344C531.575 267.908 531.743 268.538 531.743 269.234C531.743 270.05 531.503 270.794 531.023 271.466C530.555 272.126 529.829 272.576 528.845 272.816L531.941 278H529.493ZM525.047 271.358H527.315C528.083 271.358 528.659 271.166 529.043 270.782C529.439 270.398 529.637 269.882 529.637 269.234C529.637 268.586 529.445 268.082 529.061 267.722C528.677 267.35 528.095 267.164 527.315 267.164H525.047V271.358ZM537.59 265.49V278H535.538V265.49H537.59ZM540.77 271.718C540.77 270.494 541.052 269.396 541.616 268.424C542.192 267.452 542.966 266.696 543.938 266.156C544.922 265.604 545.996 265.328 547.16 265.328C548.492 265.328 549.674 265.658 550.706 266.318C551.75 266.966 552.506 267.89 552.974 269.09H550.508C550.184 268.43 549.734 267.938 549.158 267.614C548.582 267.29 547.916 267.128 547.16 267.128C546.332 267.128 545.594 267.314 544.946 267.686C544.298 268.058 543.788 268.592 543.416 269.288C543.056 269.984 542.876 270.794 542.876 271.718C542.876 272.642 543.056 273.452 543.416 274.148C543.788 274.844 544.298 275.384 544.946 275.768C545.594 276.14 546.332 276.326 547.16 276.326C547.916 276.326 548.582 276.164 549.158 275.84C549.734 275.516 550.184 275.024 550.508 274.364H552.974C552.506 275.564 551.75 276.488 550.706 277.136C549.674 277.784 548.492 278.108 547.16 278.108C545.984 278.108 544.91 277.838 543.938 277.298C542.966 276.746 542.192 275.984 541.616 275.012C541.052 274.04 540.77 272.942 540.77 271.718ZM558.598 267.146V270.818H562.918V272.492H558.598V276.326H563.458V278H556.546V265.472H563.458V267.146H558.598Z" fill="#620C0D"/>
<g filter="url(#filter4_d_21_175)">
<path d="M46 262C46 256.477 50.4772 252 56 252H299C304.523 252 309 256.477 309 262V387C309 392.523 304.523 397 299 397H56C50.4772 397 46 392.523 46 387V262Z" fill="white"/>
<path d="M46.5 262C46.5 256.753 50.7533 252.5 56 252.5H299C304.247 252.5 308.5 256.753 308.5 262V387C308.5 392.247 304.247 396.5 299 396.5H56C50.7533 396.5 46.5 392.247 46.5 387V262Z" stroke="#620C0D" stroke-opacity="0.24"/>
</g>
<path d="M83.0153 332.48V330.986H86.3993V344H84.7433V332.48H83.0153ZM98.681 332.408H92.363V336.512C92.639 336.128 93.047 335.816 93.587 335.576C94.127 335.324 94.709 335.198 95.333 335.198C96.329 335.198 97.139 335.408 97.763 335.828C98.387 336.236 98.831 336.77 99.095 337.43C99.371 338.078 99.509 338.768 99.509 339.5C99.509 340.364 99.347 341.138 99.023 341.822C98.699 342.506 98.201 343.046 97.529 343.442C96.869 343.838 96.047 344.036 95.063 344.036C93.803 344.036 92.783 343.712 92.003 343.064C91.223 342.416 90.749 341.552 90.581 340.472H92.183C92.339 341.156 92.669 341.69 93.173 342.074C93.677 342.458 94.313 342.65 95.081 342.65C96.029 342.65 96.743 342.368 97.223 341.804C97.703 341.228 97.943 340.472 97.943 339.536C97.943 338.6 97.703 337.88 97.223 337.376C96.743 336.86 96.035 336.602 95.099 336.602C94.463 336.602 93.905 336.758 93.425 337.07C92.957 337.37 92.615 337.784 92.399 338.312H90.851V330.968H98.681V332.408ZM102.856 337.358C102.856 335.294 103.192 333.686 103.864 332.534C104.536 331.37 105.712 330.788 107.392 330.788C109.06 330.788 110.23 331.37 110.902 332.534C111.574 333.686 111.91 335.294 111.91 337.358C111.91 339.458 111.574 341.09 110.902 342.254C110.23 343.418 109.06 344 107.392 344C105.712 344 104.536 343.418 103.864 342.254C103.192 341.09 102.856 339.458 102.856 337.358ZM110.29 337.358C110.29 336.314 110.218 335.432 110.074 334.712C109.942 333.98 109.66 333.392 109.228 332.948C108.808 332.504 108.196 332.282 107.392 332.282C106.576 332.282 105.952 332.504 105.52 332.948C105.1 333.392 104.818 333.98 104.674 334.712C104.542 335.432 104.476 336.314 104.476 337.358C104.476 338.438 104.542 339.344 104.674 340.076C104.818 340.808 105.1 341.396 105.52 341.84C105.952 342.284 106.576 342.506 107.392 342.506C108.196 342.506 108.808 342.284 109.228 341.84C109.66 341.396 109.942 340.808 110.074 340.076C110.218 339.344 110.29 338.438 110.29 337.358ZM117.29 341.732L115.274 346.574H114.176L115.49 341.732H117.29ZM120.067 337.358C120.067 335.294 120.403 333.686 121.075 332.534C121.747 331.37 122.923 330.788 124.603 330.788C126.271 330.788 127.441 331.37 128.113 332.534C128.785 333.686 129.121 335.294 129.121 337.358C129.121 339.458 128.785 341.09 128.113 342.254C127.441 343.418 126.271 344 124.603 344C122.923 344 121.747 343.418 121.075 342.254C120.403 341.09 120.067 339.458 120.067 337.358ZM127.501 337.358C127.501 336.314 127.429 335.432 127.285 334.712C127.153 333.98 126.871 333.392 126.439 332.948C126.019 332.504 125.407 332.282 124.603 332.282C123.787 332.282 123.163 332.504 122.731 332.948C122.311 333.392 122.029 333.98 121.885 334.712C121.753 335.432 121.687 336.314 121.687 337.358C121.687 338.438 121.753 339.344 121.885 340.076C122.029 340.808 122.311 341.396 122.731 341.84C123.163 342.284 123.787 342.506 124.603 342.506C125.407 342.506 126.019 342.284 126.439 341.84C126.871 341.396 127.153 340.808 127.285 340.076C127.429 339.344 127.501 338.438 127.501 337.358ZM132.54 337.358C132.54 335.294 132.876 333.686 133.548 332.534C134.22 331.37 135.396 330.788 137.076 330.788C138.744 330.788 139.914 331.37 140.586 332.534C141.258 333.686 141.594 335.294 141.594 337.358C141.594 339.458 141.258 341.09 140.586 342.254C139.914 343.418 138.744 344 137.076 344C135.396 344 134.22 343.418 133.548 342.254C132.876 341.09 132.54 339.458 132.54 337.358ZM139.974 337.358C139.974 336.314 139.902 335.432 139.758 334.712C139.626 333.98 139.344 333.392 138.912 332.948C138.492 332.504 137.88 332.282 137.076 332.282C136.26 332.282 135.636 332.504 135.204 332.948C134.784 333.392 134.502 333.98 134.358 334.712C134.226 335.432 134.16 336.314 134.16 337.358C134.16 338.438 134.226 339.344 134.358 340.076C134.502 340.808 134.784 341.396 135.204 341.84C135.636 342.284 136.26 342.506 137.076 342.506C137.88 342.506 138.492 342.284 138.912 341.84C139.344 341.396 139.626 340.808 139.758 340.076C139.902 339.344 139.974 338.438 139.974 337.358ZM145.012 337.358C145.012 335.294 145.348 333.686 146.02 332.534C146.692 331.37 147.868 330.788 149.548 330.788C151.216 330.788 152.386 331.37 153.058 332.534C153.73 333.686 154.066 335.294 154.066 337.358C154.066 339.458 153.73 341.09 153.058 342.254C152.386 343.418 151.216 344 149.548 344C147.868 344 146.692 343.418 146.02 342.254C145.348 341.09 145.012 339.458 145.012 337.358ZM152.446 337.358C152.446 336.314 152.374 335.432 152.23 334.712C152.098 333.98 151.816 333.392 151.384 332.948C150.964 332.504 150.352 332.282 149.548 332.282C148.732 332.282 148.108 332.504 147.676 332.948C147.256 333.392 146.974 333.98 146.83 334.712C146.698 335.432 146.632 336.314 146.632 337.358C146.632 338.438 146.698 339.344 146.83 340.076C146.974 340.808 147.256 341.396 147.676 341.84C148.108 342.284 148.732 342.506 149.548 342.506C150.352 342.506 150.964 342.284 151.384 341.84C151.816 341.396 152.098 340.808 152.23 340.076C152.374 339.344 152.446 338.438 152.446 337.358ZM159.447 341.732L157.431 346.574H156.333L157.647 341.732H159.447ZM162.223 337.358C162.223 335.294 162.559 333.686 163.231 332.534C163.903 331.37 165.079 330.788 166.759 330.788C168.427 330.788 169.597 331.37 170.269 332.534C170.941 333.686 171.277 335.294 171.277 337.358C171.277 339.458 170.941 341.09 170.269 342.254C169.597 343.418 168.427 344 166.759 344C165.079 344 163.903 343.418 163.231 342.254C162.559 341.09 162.223 339.458 162.223 337.358ZM169.657 337.358C169.657 336.314 169.585 335.432 169.441 334.712C169.309 333.98 169.027 333.392 168.595 332.948C168.175 332.504 167.563 332.282 166.759 332.282C165.943 332.282 165.319 332.504 164.887 332.948C164.467 333.392 164.185 333.98 164.041 334.712C163.909 335.432 163.843 336.314 163.843 337.358C163.843 338.438 163.909 339.344 164.041 340.076C164.185 340.808 164.467 341.396 164.887 341.84C165.319 342.284 165.943 342.506 166.759 342.506C167.563 342.506 168.175 342.284 168.595 341.84C169.027 341.396 169.309 340.808 169.441 340.076C169.585 339.344 169.657 338.438 169.657 337.358ZM174.696 337.358C174.696 335.294 175.032 333.686 175.704 332.534C176.376 331.37 177.552 330.788 179.232 330.788C180.9 330.788 182.07 331.37 182.742 332.534C183.414 333.686 183.75 335.294 183.75 337.358C183.75 339.458 183.414 341.09 182.742 342.254C182.07 343.418 180.9 344 179.232 344C177.552 344 176.376 343.418 175.704 342.254C175.032 341.09 174.696 339.458 174.696 337.358ZM182.13 337.358C182.13 336.314 182.058 335.432 181.914 334.712C181.782 333.98 181.5 333.392 181.068 332.948C180.648 332.504 180.036 332.282 179.232 332.282C178.416 332.282 177.792 332.504 177.36 332.948C176.94 333.392 176.658 333.98 176.514 334.712C176.382 335.432 176.316 336.314 176.316 337.358C176.316 338.438 176.382 339.344 176.514 340.076C176.658 340.808 176.94 341.396 177.36 341.84C177.792 342.284 178.416 342.506 179.232 342.506C180.036 342.506 180.648 342.284 181.068 341.84C181.5 341.396 181.782 340.808 181.914 340.076C182.058 339.344 182.13 338.438 182.13 337.358ZM187.169 337.358C187.169 335.294 187.505 333.686 188.177 332.534C188.849 331.37 190.025 330.788 191.705 330.788C193.373 330.788 194.543 331.37 195.215 332.534C195.887 333.686 196.223 335.294 196.223 337.358C196.223 339.458 195.887 341.09 195.215 342.254C194.543 343.418 193.373 344 191.705 344C190.025 344 188.849 343.418 188.177 342.254C187.505 341.09 187.169 339.458 187.169 337.358ZM194.603 337.358C194.603 336.314 194.531 335.432 194.387 334.712C194.255 333.98 193.973 333.392 193.541 332.948C193.121 332.504 192.509 332.282 191.705 332.282C190.889 332.282 190.265 332.504 189.833 332.948C189.413 333.392 189.131 333.98 188.987 334.712C188.855 335.432 188.789 336.314 188.789 337.358C188.789 338.438 188.855 339.344 188.987 340.076C189.131 340.808 189.413 341.396 189.833 341.84C190.265 342.284 190.889 342.506 191.705 342.506C192.509 342.506 193.121 342.284 193.541 341.84C193.973 341.396 194.255 340.808 194.387 340.076C194.531 339.344 194.603 338.438 194.603 337.358ZM201.604 341.732L199.588 346.574H198.49L199.804 341.732H201.604ZM204.38 337.358C204.38 335.294 204.716 333.686 205.388 332.534C206.06 331.37 207.236 330.788 208.916 330.788C210.584 330.788 211.754 331.37 212.426 332.534C213.098 333.686 213.434 335.294 213.434 337.358C213.434 339.458 213.098 341.09 212.426 342.254C211.754 343.418 210.584 344 208.916 344C207.236 344 206.06 343.418 205.388 342.254C204.716 341.09 204.38 339.458 204.38 337.358ZM211.814 337.358C211.814 336.314 211.742 335.432 211.598 334.712C211.466 333.98 211.184 333.392 210.752 332.948C210.332 332.504 209.72 332.282 208.916 332.282C208.1 332.282 207.476 332.504 207.044 332.948C206.624 333.392 206.342 333.98 206.198 334.712C206.066 335.432 206 336.314 206 337.358C206 338.438 206.066 339.344 206.198 340.076C206.342 340.808 206.624 341.396 207.044 341.84C207.476 342.284 208.1 342.506 208.916 342.506C209.72 342.506 210.332 342.284 210.752 341.84C211.184 341.396 211.466 340.808 211.598 340.076C211.742 339.344 211.814 338.438 211.814 337.358ZM216.853 337.358C216.853 335.294 217.189 333.686 217.861 332.534C218.533 331.37 219.709 330.788 221.389 330.788C223.057 330.788 224.227 331.37 224.899 332.534C225.571 333.686 225.907 335.294 225.907 337.358C225.907 339.458 225.571 341.09 224.899 342.254C224.227 343.418 223.057 344 221.389 344C219.709 344 218.533 343.418 217.861 342.254C217.189 341.09 216.853 339.458 216.853 337.358ZM224.287 337.358C224.287 336.314 224.215 335.432 224.071 334.712C223.939 333.98 223.657 333.392 223.225 332.948C222.805 332.504 222.193 332.282 221.389 332.282C220.573 332.282 219.949 332.504 219.517 332.948C219.097 333.392 218.815 333.98 218.671 334.712C218.539 335.432 218.473 336.314 218.473 337.358C218.473 338.438 218.539 339.344 218.671 340.076C218.815 340.808 219.097 341.396 219.517 341.84C219.949 342.284 220.573 342.506 221.389 342.506C222.193 342.506 222.805 342.284 223.225 341.84C223.657 341.396 223.939 340.808 224.071 340.076C224.215 339.344 224.287 338.438 224.287 337.358ZM229.325 337.358C229.325 335.294 229.661 333.686 230.333 332.534C231.005 331.37 232.181 330.788 233.861 330.788C235.529 330.788 236.699 331.37 237.371 332.534C238.043 333.686 238.379 335.294 238.379 337.358C238.379 339.458 238.043 341.09 237.371 342.254C236.699 343.418 235.529 344 233.861 344C232.181 344 231.005 343.418 230.333 342.254C229.661 341.09 229.325 339.458 229.325 337.358ZM236.759 337.358C236.759 336.314 236.687 335.432 236.543 334.712C236.411 333.98 236.129 333.392 235.697 332.948C235.277 332.504 234.665 332.282 233.861 332.282C233.045 332.282 232.421 332.504 231.989 332.948C231.569 333.392 231.287 333.98 231.143 334.712C231.011 335.432 230.945 336.314 230.945 337.358C230.945 338.438 231.011 339.344 231.143 340.076C231.287 340.808 231.569 341.396 231.989 341.84C232.421 342.284 233.045 342.506 233.861 342.506C234.665 342.506 235.277 342.284 235.697 341.84C236.129 341.396 236.411 340.808 236.543 340.076C236.687 339.344 236.759 338.438 236.759 337.358ZM243.76 341.732L241.744 346.574H240.646L241.96 341.732H243.76ZM246.536 337.358C246.536 335.294 246.872 333.686 247.544 332.534C248.216 331.37 249.392 330.788 251.072 330.788C252.74 330.788 253.91 331.37 254.582 332.534C255.254 333.686 255.59 335.294 255.59 337.358C255.59 339.458 255.254 341.09 254.582 342.254C253.91 343.418 252.74 344 251.072 344C249.392 344 248.216 343.418 247.544 342.254C246.872 341.09 246.536 339.458 246.536 337.358ZM253.97 337.358C253.97 336.314 253.898 335.432 253.754 334.712C253.622 333.98 253.34 333.392 252.908 332.948C252.488 332.504 251.876 332.282 251.072 332.282C250.256 332.282 249.632 332.504 249.2 332.948C248.78 333.392 248.498 333.98 248.354 334.712C248.222 335.432 248.156 336.314 248.156 337.358C248.156 338.438 248.222 339.344 248.354 340.076C248.498 340.808 248.78 341.396 249.2 341.84C249.632 342.284 250.256 342.506 251.072 342.506C251.876 342.506 252.488 342.284 252.908 341.84C253.34 341.396 253.622 340.808 253.754 340.076C253.898 339.344 253.97 338.438 253.97 337.358ZM259.009 337.358C259.009 335.294 259.345 333.686 260.017 332.534C260.689 331.37 261.865 330.788 263.545 330.788C265.213 330.788 266.383 331.37 267.055 332.534C267.727 333.686 268.063 335.294 268.063 337.358C268.063 339.458 267.727 341.09 267.055 342.254C266.383 343.418 265.213 344 263.545 344C261.865 344 260.689 343.418 260.017 342.254C259.345 341.09 259.009 339.458 259.009 337.358ZM266.443 337.358C266.443 336.314 266.371 335.432 266.227 334.712C266.095 333.98 265.813 333.392 265.381 332.948C264.961 332.504 264.349 332.282 263.545 332.282C262.729 332.282 262.105 332.504 261.673 332.948C261.253 333.392 260.971 333.98 260.827 334.712C260.695 335.432 260.629 336.314 260.629 337.358C260.629 338.438 260.695 339.344 260.827 340.076C260.971 340.808 261.253 341.396 261.673 341.84C262.105 342.284 262.729 342.506 263.545 342.506C264.349 342.506 264.961 342.284 265.381 341.84C265.813 341.396 266.095 340.808 266.227 340.076C266.371 339.344 266.443 338.438 266.443 337.358ZM271.482 337.358C271.482 335.294 271.818 333.686 272.49 332.534C273.162 331.37 274.338 330.788 276.018 330.788C277.686 330.788 278.856 331.37 279.528 332.534C280.2 333.686 280.536 335.294 280.536 337.358C280.536 339.458 280.2 341.09 279.528 342.254C278.856 343.418 277.686 344 276.018 344C274.338 344 273.162 343.418 272.49 342.254C271.818 341.09 271.482 339.458 271.482 337.358ZM278.916 337.358C278.916 336.314 278.844 335.432 278.7 334.712C278.568 333.98 278.286 333.392 277.854 332.948C277.434 332.504 276.822 332.282 276.018 332.282C275.202 332.282 274.578 332.504 274.146 332.948C273.726 333.392 273.444 333.98 273.3 334.712C273.168 335.432 273.102 336.314 273.102 337.358C273.102 338.438 273.168 339.344 273.3 340.076C273.444 340.808 273.726 341.396 274.146 341.84C274.578 342.284 275.202 342.506 276.018 342.506C276.822 342.506 277.434 342.284 277.854 341.84C278.286 341.396 278.568 340.808 278.7 340.076C278.844 339.344 278.916 338.438 278.916 337.358Z" fill="#333333"/>
<path d="M123.368 293.49V295.164H120.038V306H117.986V295.164H114.638V293.49H123.368ZM132.322 306.126C131.158 306.126 130.084 305.856 129.1 305.316C128.128 304.764 127.354 304.002 126.778 303.03C126.214 302.046 125.932 300.942 125.932 299.718C125.932 298.494 126.214 297.396 126.778 296.424C127.354 295.452 128.128 294.696 129.1 294.156C130.084 293.604 131.158 293.328 132.322 293.328C133.498 293.328 134.572 293.604 135.544 294.156C136.528 294.696 137.302 295.452 137.866 296.424C138.43 297.396 138.712 298.494 138.712 299.718C138.712 300.942 138.43 302.046 137.866 303.03C137.302 304.002 136.528 304.764 135.544 305.316C134.572 305.856 133.498 306.126 132.322 306.126ZM132.322 304.344C133.15 304.344 133.888 304.158 134.536 303.786C135.184 303.402 135.688 302.862 136.048 302.166C136.42 301.458 136.606 300.642 136.606 299.718C136.606 298.794 136.42 297.984 136.048 297.288C135.688 296.592 135.184 296.058 134.536 295.686C133.888 295.314 133.15 295.128 132.322 295.128C131.494 295.128 130.756 295.314 130.108 295.686C129.46 296.058 128.95 296.592 128.578 297.288C128.218 297.984 128.038 298.794 128.038 299.718C128.038 300.642 128.218 301.458 128.578 302.166C128.95 302.862 129.46 303.402 130.108 303.786C130.756 304.158 131.494 304.344 132.322 304.344ZM149.983 293.49V295.164H146.653V306H144.601V295.164H141.253V293.49H149.983ZM160.774 303.444H155.536L154.636 306H152.494L156.976 293.472H159.352L163.834 306H161.674L160.774 303.444ZM160.198 301.77L158.164 295.956L156.112 301.77H160.198ZM169.004 304.344H173.234V306H166.952V293.49H169.004V304.344ZM186.088 306.126C185.248 306.126 184.492 305.982 183.82 305.694C183.148 305.394 182.62 304.974 182.236 304.434C181.852 303.894 181.66 303.264 181.66 302.544H183.856C183.904 303.084 184.114 303.528 184.486 303.876C184.87 304.224 185.404 304.398 186.088 304.398C186.796 304.398 187.348 304.23 187.744 303.894C188.14 303.546 188.338 303.102 188.338 302.562C188.338 302.142 188.212 301.8 187.96 301.536C187.72 301.272 187.414 301.068 187.042 300.924C186.682 300.78 186.178 300.624 185.53 300.456C184.714 300.24 184.048 300.024 183.532 299.808C183.028 299.58 182.596 299.232 182.236 298.764C181.876 298.296 181.696 297.672 181.696 296.892C181.696 296.172 181.876 295.542 182.236 295.002C182.596 294.462 183.1 294.048 183.748 293.76C184.396 293.472 185.146 293.328 185.998 293.328C187.21 293.328 188.2 293.634 188.968 294.246C189.748 294.846 190.18 295.674 190.264 296.73H187.996C187.96 296.274 187.744 295.884 187.348 295.56C186.952 295.236 186.43 295.074 185.782 295.074C185.194 295.074 184.714 295.224 184.342 295.524C183.97 295.824 183.784 296.256 183.784 296.82C183.784 297.204 183.898 297.522 184.126 297.774C184.366 298.014 184.666 298.206 185.026 298.35C185.386 298.494 185.878 298.65 186.502 298.818C187.33 299.046 188.002 299.274 188.518 299.502C189.046 299.73 189.49 300.084 189.85 300.564C190.222 301.032 190.408 301.662 190.408 302.454C190.408 303.09 190.234 303.69 189.886 304.254C189.55 304.818 189.052 305.274 188.392 305.622C187.744 305.958 186.976 306.126 186.088 306.126ZM196.034 293.49V301.464C196.034 302.412 196.28 303.126 196.772 303.606C197.276 304.086 197.972 304.326 198.86 304.326C199.76 304.326 200.456 304.086 200.948 303.606C201.452 303.126 201.704 302.412 201.704 301.464V293.49H203.756V301.428C203.756 302.448 203.534 303.312 203.09 304.02C202.646 304.728 202.052 305.256 201.308 305.604C200.564 305.952 199.742 306.126 198.842 306.126C197.942 306.126 197.12 305.952 196.376 305.604C195.644 305.256 195.062 304.728 194.63 304.02C194.198 303.312 193.982 302.448 193.982 301.428V293.49H196.034ZM216.345 297.216C216.345 297.852 216.195 298.452 215.895 299.016C215.595 299.58 215.115 300.042 214.455 300.402C213.795 300.75 212.949 300.924 211.917 300.924H209.649V306H207.597V293.49H211.917C212.877 293.49 213.687 293.658 214.347 293.994C215.019 294.318 215.517 294.762 215.841 295.326C216.177 295.89 216.345 296.52 216.345 297.216ZM211.917 299.25C212.697 299.25 213.279 299.076 213.663 298.728C214.047 298.368 214.239 297.864 214.239 297.216C214.239 295.848 213.465 295.164 211.917 295.164H209.649V299.25H211.917ZM228.22 297.216C228.22 297.852 228.07 298.452 227.77 299.016C227.47 299.58 226.99 300.042 226.33 300.402C225.67 300.75 224.824 300.924 223.792 300.924H221.524V306H219.472V293.49H223.792C224.752 293.49 225.562 293.658 226.222 293.994C226.894 294.318 227.392 294.762 227.716 295.326C228.052 295.89 228.22 296.52 228.22 297.216ZM223.792 299.25C224.572 299.25 225.154 299.076 225.538 298.728C225.922 298.368 226.114 297.864 226.114 297.216C226.114 295.848 225.34 295.164 223.792 295.164H221.524V299.25H223.792ZM233.399 304.344H237.629V306H231.347V293.49H233.399V304.344ZM249.785 293.49L245.645 301.464V306H243.593V301.464L239.435 293.49H241.721L244.619 299.628L247.517 293.49H249.785Z" fill="#620C0D"/>
</g>
<defs>
<filter id="filter0_d_21_175" x="-8" y="56" width="303" height="185" filterUnits="userSpaceOnUse" color-interpolation-filters="sRGB">
<feFlood flood-opacity="0" result="BackgroundImageFix"/>
<feColorMatrix in="SourceAlpha" type="matrix" values="0 0 0 0 0 0 0 0 0 0 0 0 0 0 0 0 0 0 127 0" result="hardAlpha"/>
<feOffset dy="4"/>
<feGaussianBlur stdDeviation="10"/>
<feComposite in2="hardAlpha" operator="out"/>
<feColorMatrix type="matrix" values="0 0 0 0 0.384314 0 0 0 0 0.0470588 0 0 0 0 0.0509804 0 0 0 0.1 0"/>
<feBlend mode="normal" in2="BackgroundImageFix" result="effect1_dropShadow_21_175"/>
<feBlend mode="normal" in="SourceGraphic" in2="effect1_dropShadow_21_175" result="shape"/>
</filter>
<filter id="filter1_d_21_175" x="300" y="4" width="303" height="185" filterUnits="userSpaceOnUse" color-interpolation-filters="sRGB">
<feFlood flood-opacity="0" result="BackgroundImageFix"/>
<feColorMatrix in="SourceAlpha" type="matrix" values="0 0 0 0 0 0 0 0 0 0 0 0 0 0 0 0 0 0 127 0" result="hardAlpha"/>
<feOffset dy="4"/>
<feGaussianBlur stdDeviation="10"/>
<feComposite in2="hardAlpha" operator="out"/>
<feColorMatrix type="matrix" values="0 0 0 0 0.384314 0 0 0 0 0.0470588 0 0 0 0 0.0509804 0 0 0 0.1 0"/>
<feBlend mode="normal" in2="BackgroundImageFix" result="effect1_dropShadow_21_175"/>
<feBlend mode="normal" in="SourceGraphic" in2="effect1_dropShadow_21_175" result="shape"/>
</filter>
<filter id="filter2_d_21_175" x="300" y="4" width="303" height="185" filterUnits="userSpaceOnUse" color-interpolation-filters="sRGB">
<feFlood flood-opacity="0" result="BackgroundImageFix"/>
<feColorMatrix in="SourceAlpha" type="matrix" values="0 0 0 0 0 0 0 0 0 0 0 0 0 0 0 0 0 0 127 0" result="hardAlpha"/>
<feOffset dy="4"/>
<feGaussianBlur stdDeviation="10"/>
<feComposite in2="hardAlpha" operator="out"/>
<feColorMatrix type="matrix" values="0 0 0 0 0.384314 0 0 0 0 0.0470588 0 0 0 0 0.0509804 0 0 0 0.1 0"/>
<feBlend mode="normal" in2="BackgroundImageFix" result="effect1_dropShadow_21_175"/>
<feBlend mode="normal" in="SourceGraphic" in2="effect1_dropShadow_21_175" result="shape"/>
</filter>
<filter id="filter3_d_21_175" x="342" y="203" width="303" height="185" filterUnits="userSpaceOnUse" color-interpolation-filters="sRGB">
<feFlood flood-opacity="0" result="BackgroundImageFix"/>
<feColorMatrix in="SourceAlpha" type="matrix" values="0 0 0 0 0 0 0 0 0 0 0 0 0 0 0 0 0 0 127 0" result="hardAlpha"/>
<feOffset dy="4"/>
<feGaussianBlur stdDeviation="10"/>
<feComposite in2="hardAlpha" operator="out"/>
<feColorMatrix type="matrix" values="0 0 0 0 0.384314 0 0 0 0 0.0470588 0 0 0 0 0.0509804 0 0 0 0.1 0"/>
<feBlend mode="normal" in2="BackgroundImageFix" result="effect1_dropShadow_21_175"/>
<feBlend mode="normal" in="SourceGraphic" in2="effect1_dropShadow_21_175" result="shape"/>
</filter>
<filter id="filter4_d_21_175" x="26" y="236" width="303" height="185" filterUnits="userSpaceOnUse" color-interpolation-filters="sRGB">
<feFlood flood-opacity="0" result="BackgroundImageFix"/>
<feColorMatrix in="SourceAlpha" type="matrix" values="0 0 0 0 0 0 0 0 0 0 0 0 0 0 0 0 0 0 127 0" result="hardAlpha"/>
<feOffset dy="4"/>
<feGaussianBlur stdDeviation="10"/>
<feComposite in2="hardAlpha" operator="out"/>
<feColorMatrix type="matrix" values="0 0 0 0 0.384314 0 0 0 0 0.0470588 0 0 0 0 0.0509804 0 0 0 0.1 0"/>
<feBlend mode="normal" in2="BackgroundImageFix" result="effect1_dropShadow_21_175"/>
<feBlend mode="normal" in="SourceGraphic" in2="effect1_dropShadow_21_175" result="shape"/>
</filter>
<clipPath id="clip0_21_175">
<rect width="656" height="456" fill="white"/>
</clipPath>
</defs>
</svg>
