<svg width="786" height="183" viewBox="0 0 786 183" fill="none" xmlns="http://www.w3.org/2000/svg">
<g clip-path="url(#clip0_39_196)">
<path opacity="0.1" d="M66.352 16.32V31.296H48.304V84H29.488V31.296H11.632V16.32H66.352ZM114.402 84.672C108.066 84.672 102.242 83.2 96.9295 80.256C91.6175 77.248 87.3935 73.12 84.2575 67.872C81.1855 62.56 79.6495 56.576 79.6495 49.92C79.6495 43.264 81.1855 37.312 84.2575 32.064C87.3935 26.752 91.6175 22.624 96.9295 19.68C102.242 16.736 108.066 15.264 114.402 15.264C120.802 15.264 126.626 16.736 131.874 19.68C137.186 22.624 141.378 26.752 144.45 32.064C147.522 37.312 149.058 43.264 149.058 49.92C149.058 56.576 147.522 62.56 144.45 67.872C141.378 73.12 137.186 77.248 131.874 80.256C126.562 83.2 120.738 84.672 114.402 84.672ZM114.402 67.2C119.202 67.2 122.978 65.632 125.73 62.496C128.546 59.36 129.954 55.168 129.954 49.92C129.954 44.544 128.546 40.32 125.73 37.248C122.978 34.112 119.202 32.544 114.402 32.544C109.538 32.544 105.73 34.112 102.977 37.248C100.226 40.32 98.8495 44.544 98.8495 49.92C98.8495 55.232 100.226 59.456 102.977 62.592C105.73 65.664 109.538 67.2 114.402 67.2ZM206.188 84L184.972 54.336V84H166.156V16.32H184.972V45.504L205.996 16.32H227.692L202.828 49.152L228.94 84H206.188ZM263.268 31.392V42.432H284.868V56.736H263.268V68.928H287.748V84H244.452V16.32H287.748V31.392H263.268ZM368.374 84H349.558L324.502 46.176V84H305.686V16.32H324.502L349.558 54.624V16.32H368.374V84ZM420.18 84.672C413.844 84.672 408.02 83.2 402.708 80.256C397.396 77.248 393.172 73.12 390.036 67.872C386.964 62.56 385.428 56.576 385.428 49.92C385.428 43.264 386.964 37.312 390.036 32.064C393.172 26.752 397.396 22.624 402.708 19.68C408.02 16.736 413.844 15.264 420.18 15.264C426.58 15.264 432.404 16.736 437.652 19.68C442.964 22.624 447.156 26.752 450.228 32.064C453.3 37.312 454.836 43.264 454.836 49.92C454.836 56.576 453.3 62.56 450.228 67.872C447.156 73.12 442.964 77.248 437.652 80.256C432.34 83.2 426.516 84.672 420.18 84.672ZM420.18 67.2C424.98 67.2 428.756 65.632 431.508 62.496C434.324 59.36 435.732 55.168 435.732 49.92C435.732 44.544 434.324 40.32 431.508 37.248C428.756 34.112 424.98 32.544 420.18 32.544C415.316 32.544 411.508 34.112 408.756 37.248C406.004 40.32 404.628 44.544 404.628 49.92C404.628 55.232 406.004 59.456 408.756 62.592C411.508 65.664 415.316 67.2 420.18 67.2ZM550.943 16.32V84H532.127V46.656L519.359 84H503.615L490.751 46.368V84H471.935V16.32H494.687L511.679 60.288L528.287 16.32H550.943ZM589.109 16.32V84H570.293V16.32H589.109ZM606.161 50.016C606.161 43.36 607.537 37.44 610.289 32.256C613.105 27.008 617.073 22.944 622.193 20.064C627.313 17.12 633.201 15.648 639.857 15.648C648.305 15.648 655.409 17.92 661.169 22.464C666.929 26.944 670.641 33.056 672.305 40.8H652.049C650.833 38.24 649.137 36.288 646.961 34.944C644.849 33.6 642.385 32.928 639.569 32.928C635.217 32.928 631.729 34.496 629.105 37.632C626.545 40.704 625.265 44.832 625.265 50.016C625.265 55.264 626.545 59.456 629.105 62.592C631.729 65.664 635.217 67.2 639.569 67.2C642.385 67.2 644.849 66.528 646.961 65.184C649.137 63.84 650.833 61.888 652.049 59.328H672.305C670.641 67.072 666.929 73.216 661.169 77.76C655.409 82.24 648.305 84.48 639.857 84.48C633.201 84.48 627.313 83.04 622.193 80.16C617.073 77.216 613.105 73.152 610.289 67.968C607.537 62.72 606.161 56.736 606.161 50.016ZM715.391 84.672C707.519 84.672 701.055 82.816 695.999 79.104C690.943 75.328 688.223 69.952 687.839 62.976H707.903C708.095 65.344 708.799 67.072 710.015 68.16C711.231 69.248 712.799 69.792 714.719 69.792C716.447 69.792 717.855 69.376 718.943 68.544C720.095 67.648 720.671 66.432 720.671 64.896C720.671 62.912 719.743 61.376 717.887 60.288C716.031 59.2 713.023 57.984 708.863 56.64C704.447 55.168 700.863 53.76 698.111 52.416C695.423 51.008 693.055 48.992 691.007 46.368C689.023 43.68 688.031 40.192 688.031 35.904C688.031 31.552 689.119 27.84 691.295 24.768C693.471 21.632 696.479 19.264 700.319 17.664C704.159 16.064 708.511 15.264 713.375 15.264C721.247 15.264 727.519 17.12 732.191 20.832C736.927 24.48 739.455 29.632 739.775 36.288H719.327C719.263 34.24 718.623 32.704 717.407 31.68C716.255 30.656 714.751 30.144 712.895 30.144C711.487 30.144 710.335 30.56 709.439 31.392C708.543 32.224 708.095 33.408 708.095 34.944C708.095 36.224 708.575 37.344 709.535 38.304C710.559 39.2 711.807 40 713.279 40.704C714.751 41.344 716.927 42.176 719.807 43.2C724.095 44.672 727.615 46.144 730.367 47.616C733.183 49.024 735.583 51.04 737.567 53.664C739.615 56.224 740.639 59.488 740.639 63.456C740.639 67.488 739.615 71.104 737.567 74.304C735.583 77.504 732.671 80.032 728.831 81.888C725.055 83.744 720.575 84.672 715.391 84.672Z" fill="#620C0B"/>
<path d="M29.584 101.872V105.94H22.888V127H17.848V105.94H11.152V101.872H29.584ZM44.9253 127.252C42.5733 127.252 40.4133 126.7 38.4453 125.596C36.4773 124.492 34.9173 122.968 33.7653 121.024C32.6133 119.056 32.0373 116.836 32.0373 114.364C32.0373 111.916 32.6133 109.72 33.7653 107.776C34.9173 105.808 36.4773 104.272 38.4453 103.168C40.4133 102.064 42.5733 101.512 44.9253 101.512C47.3013 101.512 49.4613 102.064 51.4053 103.168C53.3733 104.272 54.9213 105.808 56.0493 107.776C57.2013 109.72 57.7773 111.916 57.7773 114.364C57.7773 116.836 57.2013 119.056 56.0493 121.024C54.9213 122.968 53.3733 124.492 51.4053 125.596C49.4373 126.7 47.2773 127.252 44.9253 127.252ZM44.9253 122.752C46.4373 122.752 47.7693 122.416 48.9213 121.744C50.0733 121.048 50.9733 120.064 51.6213 118.792C52.2693 117.52 52.5933 116.044 52.5933 114.364C52.5933 112.684 52.2693 111.22 51.6213 109.972C50.9733 108.7 50.0733 107.728 48.9213 107.056C47.7693 106.384 46.4373 106.048 44.9253 106.048C43.4133 106.048 42.0693 106.384 40.8933 107.056C39.7413 107.728 38.8413 108.7 38.1933 109.972C37.5453 111.22 37.2213 112.684 37.2213 114.364C37.2213 116.044 37.5453 117.52 38.1933 118.792C38.8413 120.064 39.7413 121.048 40.8933 121.744C42.0693 122.416 43.4133 122.752 44.9253 122.752ZM75.711 127L66.567 115.804V127H61.527V101.872H66.567V113.14L75.711 101.872H81.795L71.427 114.328L82.083 127H75.711ZM90.4381 105.94V112.24H98.8981V116.236H90.4381V122.896H99.9781V127H85.3981V101.836H99.9781V105.94H90.4381ZM126.05 127H121.01L109.598 109.756V127H104.558V101.836H109.598L121.01 119.116V101.836H126.05V127ZM142.695 127.252C140.343 127.252 138.183 126.7 136.215 125.596C134.247 124.492 132.687 122.968 131.535 121.024C130.383 119.056 129.807 116.836 129.807 114.364C129.807 111.916 130.383 109.72 131.535 107.776C132.687 105.808 134.247 104.272 136.215 103.168C138.183 102.064 140.343 101.512 142.695 101.512C145.071 101.512 147.231 102.064 149.175 103.168C151.143 104.272 152.691 105.808 153.819 107.776C154.971 109.72 155.547 111.916 155.547 114.364C155.547 116.836 154.971 119.056 153.819 121.024C152.691 122.968 151.143 124.492 149.175 125.596C147.207 126.7 145.047 127.252 142.695 127.252ZM142.695 122.752C144.207 122.752 145.539 122.416 146.691 121.744C147.843 121.048 148.743 120.064 149.391 118.792C150.039 117.52 150.363 116.044 150.363 114.364C150.363 112.684 150.039 111.22 149.391 109.972C148.743 108.7 147.843 107.728 146.691 107.056C145.539 106.384 144.207 106.048 142.695 106.048C141.183 106.048 139.839 106.384 138.663 107.056C137.511 107.728 136.611 108.7 135.963 109.972C135.315 111.22 134.991 112.684 134.991 114.364C134.991 116.044 135.315 117.52 135.963 118.792C136.611 120.064 137.511 121.048 138.663 121.744C139.839 122.416 141.183 122.752 142.695 122.752ZM186.693 101.872V127H181.653V110.656L174.921 127H171.105L164.337 110.656V127H159.297V101.872H165.021L173.013 120.556L181.005 101.872H186.693ZM196.715 101.872V127H191.675V101.872H196.715ZM200.471 114.4C200.471 111.928 201.023 109.72 202.127 107.776C203.255 105.808 204.779 104.284 206.699 103.204C208.643 102.1 210.815 101.548 213.215 101.548C216.023 101.548 218.483 102.268 220.595 103.708C222.707 105.148 224.183 107.14 225.023 109.684H219.227C218.651 108.484 217.835 107.584 216.779 106.984C215.747 106.384 214.547 106.084 213.179 106.084C211.715 106.084 210.407 106.432 209.255 107.128C208.127 107.8 207.239 108.76 206.591 110.008C205.967 111.256 205.655 112.72 205.655 114.4C205.655 116.056 205.967 117.52 206.591 118.792C207.239 120.04 208.127 121.012 209.255 121.708C210.407 122.38 211.715 122.716 213.179 122.716C214.547 122.716 215.747 122.416 216.779 121.816C217.835 121.192 218.651 120.28 219.227 119.08H225.023C224.183 121.648 222.707 123.652 220.595 125.092C218.507 126.508 216.047 127.216 213.215 127.216C210.815 127.216 208.643 126.676 206.699 125.596C204.779 124.492 203.255 122.968 202.127 121.024C201.023 119.08 200.471 116.872 200.471 114.4ZM238.004 127.252C236.252 127.252 234.668 126.952 233.252 126.352C231.86 125.752 230.756 124.888 229.94 123.76C229.124 122.632 228.704 121.3 228.68 119.764H234.08C234.152 120.796 234.512 121.612 235.16 122.212C235.832 122.812 236.744 123.112 237.896 123.112C239.072 123.112 239.996 122.836 240.668 122.284C241.34 121.708 241.676 120.964 241.676 120.052C241.676 119.308 241.448 118.696 240.992 118.216C240.536 117.736 239.96 117.364 239.264 117.1C238.592 116.812 237.656 116.5 236.456 116.164C234.824 115.684 233.492 115.216 232.46 114.76C231.452 114.28 230.576 113.572 229.832 112.636C229.112 111.676 228.752 110.404 228.752 108.82C228.752 107.332 229.124 106.036 229.868 104.932C230.612 103.828 231.656 102.988 233 102.412C234.344 101.812 235.88 101.512 237.608 101.512C240.2 101.512 242.3 102.148 243.908 103.42C245.54 104.668 246.44 106.42 246.608 108.676H241.064C241.016 107.812 240.644 107.104 239.948 106.552C239.276 105.976 238.376 105.688 237.248 105.688C236.264 105.688 235.472 105.94 234.872 106.444C234.296 106.948 234.008 107.68 234.008 108.64C234.008 109.312 234.224 109.876 234.656 110.332C235.112 110.764 235.664 111.124 236.312 111.412C236.984 111.676 237.92 111.988 239.12 112.348C240.752 112.828 242.084 113.308 243.116 113.788C244.148 114.268 245.036 114.988 245.78 115.948C246.524 116.908 246.896 118.168 246.896 119.728C246.896 121.072 246.548 122.32 245.852 123.472C245.156 124.624 244.136 125.548 242.792 126.244C241.448 126.916 239.852 127.252 238.004 127.252Z" fill="#352C2C"/>
</g>
<defs>
<clipPath id="clip0_39_196">
<rect width="786" height="183" fill="white"/>
</clipPath>
</defs>
</svg>
