<svg width="70" height="70" viewBox="0 0 70 70" fill="none" xmlns="http://www.w3.org/2000/svg">
<path d="M63.2187 40.4961L51.8437 14.6016C51.7805 14.4861 51.7073 14.3763 51.625 14.2735C50.1856 12.8441 48.2394 12.042 46.2109 12.042C44.1824 12.042 42.2362 12.8441 40.7969 14.2735C40.6936 14.3725 40.6113 14.4914 40.555 14.6229C40.4986 14.7545 40.4693 14.896 40.4687 15.0391V24.0625H29.5312V15.0391C29.5307 14.896 29.5014 14.7545 29.445 14.6229C29.3886 14.4914 29.3064 14.3725 29.2031 14.2735C27.7637 12.8441 25.8175 12.042 23.7891 12.042C21.7606 12.042 19.8144 12.8441 18.375 14.2735C18.2927 14.3763 18.2195 14.4861 18.1562 14.6016L6.78124 40.4961C5.91208 42.1778 5.46182 44.0445 5.46874 45.9375C5.46874 49.1284 6.73631 52.1886 8.99261 54.4449C11.2489 56.7012 14.3091 57.9688 17.5 57.9688C20.6909 57.9688 23.7511 56.7012 26.0074 54.4449C28.2637 52.1886 29.5312 49.1284 29.5312 45.9375V26.25H40.4687V45.9375C40.4687 49.1284 41.7363 52.1886 43.9926 54.4449C46.2489 56.7012 49.3091 57.9688 52.5 57.9688C55.6909 57.9688 58.7511 56.7012 61.0074 54.4449C63.2637 52.1886 64.5312 49.1284 64.5312 45.9375C64.5382 44.0445 64.0879 42.1778 63.2187 40.4961ZM17.5 55.7813C14.8893 55.7813 12.3855 54.7442 10.5394 52.8981C8.69334 51.0521 7.65624 48.5483 7.65624 45.9375C7.66202 44.8015 7.85605 43.6742 8.23046 42.6016L8.74999 41.4258C9.55102 39.8725 10.7512 38.5604 12.2271 37.6244C13.7031 36.6885 15.4016 36.1623 17.1482 36.1C18.8948 36.0378 20.6265 36.4416 22.1653 37.2701C23.7042 38.0986 24.9947 39.3219 25.9043 40.8142C26.814 42.3066 27.3099 44.0142 27.3411 45.7616C27.3723 47.509 26.9378 49.2333 26.0821 50.7572C25.2264 52.2811 23.9804 53.5497 22.4721 54.4326C20.9638 55.3156 19.2477 55.7811 17.5 55.7813ZM17.5 33.9063C15.3129 33.9057 13.1669 34.5012 11.293 35.6289L20.0703 15.6953C21.0487 14.7752 22.3328 14.2493 23.6756 14.219C25.0183 14.1888 26.3249 14.6562 27.3437 15.5313V39.0196C26.2336 37.44 24.7596 36.1508 23.0463 35.2608C21.333 34.3708 19.4307 33.9062 17.5 33.9063ZM42.6562 15.5313C43.6751 14.6562 44.9816 14.1888 46.3244 14.219C47.6672 14.2493 48.9513 14.7752 49.9297 15.6953L58.707 35.6289C56.099 34.0586 52.9927 33.5352 50.0141 34.1644C47.0356 34.7936 44.4063 36.5286 42.6562 39.0196V15.5313ZM52.5 55.7813C50.7523 55.7811 49.0361 55.3156 47.5279 54.4326C46.0196 53.5497 44.7736 52.2811 43.9179 50.7572C43.0622 49.2333 42.6276 47.509 42.6589 45.7616C42.6901 44.0142 43.186 42.3066 44.0956 40.8142C45.0052 39.3219 46.2958 38.0986 47.8346 37.2701C49.3735 36.4416 51.1052 36.0378 52.8518 36.1C54.5984 36.1623 56.2969 36.6885 57.7729 37.6244C59.2488 38.5604 60.449 39.8725 61.25 41.4258L61.7695 42.6016C62.1439 43.6742 62.338 44.8015 62.3437 45.9375C62.3437 48.5483 61.3066 51.0521 59.4606 52.8981C57.6145 54.7442 55.1107 55.7813 52.5 55.7813Z" fill="#333333"/>
</svg>
