<svg width="232" height="55" viewBox="0 0 232 55" fill="none" xmlns="http://www.w3.org/2000/svg">
<path d="M10.4954 27.3921L5.24542 33.569L0 27.3921L5.24542 21.2152L10.4954 27.3921ZM23.2232 12.3934L32.2121 22.9838L37.4576 16.8069L23.2232 0.0449219L8.9889 16.8069L14.2343 22.9838L23.2232 12.3934ZM41.2056 21.2152L35.9602 27.3921L41.2056 33.569L46.4465 27.3921L41.2056 21.2152ZM23.2232 42.3908L14.2343 31.8057L8.9889 37.9772L23.2232 54.7393L37.4576 37.9772L32.2121 31.8057L23.2232 42.3908ZM23.2232 33.569L28.4686 27.3921L23.2232 21.2152L17.9778 27.3921L23.2232 33.569ZM78.5815 34.1621V34.0766C78.5815 30.0477 76.7664 28.0333 73.8125 26.7081C75.6275 25.5059 77.1612 23.6197 77.1612 20.2374V20.1519C77.1612 15.4391 73.9577 12.3934 68.7531 12.3934H56.9373V42.3908H69.0526C74.8017 42.3908 78.5905 39.6497 78.5905 34.1621H78.5815ZM71.5936 21.3381C71.5936 23.5663 70.0282 24.512 67.5552 24.512H62.396V18.1802H67.9273C70.2913 18.1802 71.6027 19.2916 71.6027 21.2633L71.5936 21.3381ZM73.0139 33.3392C73.0139 35.5674 71.521 36.5933 69.0435 36.5933H62.396V30.005H68.8711C71.7479 30.005 73.0229 31.25 73.0229 33.2644L73.0139 33.3392ZM90.3564 42.3908V12.3934H84.7344V42.3908H90.3564ZM120.481 42.3908V12.3934H114.932V30.8652L102.998 12.3934H97.8298V42.3908H103.361V23.3205L115.694 42.3908H120.481ZM151.523 42.3908L140.587 12.1796H135.419L124.506 42.3908H130.219L132.556 35.6636H143.328L145.656 42.3908H151.523ZM141.336 29.834H134.548L137.933 20.1091L141.336 29.834ZM178.235 42.3908V12.3934H172.686V30.8652L160.748 12.3934H155.584V42.3908H161.111V23.3205L173.448 42.3908H178.235ZM207.162 37.5498L203.6 33.3072C201.599 35.4445 199.816 36.8177 196.903 36.8177C192.538 36.8177 189.516 32.5431 189.516 27.3921V27.3066C189.516 22.1663 192.61 17.9665 196.903 17.9665C199.448 17.9665 201.44 19.2489 203.419 21.3488L206.972 16.5077C204.608 13.7666 201.735 11.8804 196.93 11.8804C189.107 11.8804 183.649 18.8641 183.649 27.3761V27.4616C183.649 36.075 189.216 42.8878 196.712 42.8878C201.617 42.9038 204.526 40.8466 207.144 37.5498H207.162ZM231.075 42.3908V36.5132H217.227V30.2027H229.238V24.325H217.227V18.2657H230.876V12.388H211.659V42.3855L231.075 42.3908Z" fill="#6E6E6E"/>
</svg>
