<svg width="30" height="30" viewBox="0 0 30 30" fill="none" xmlns="http://www.w3.org/2000/svg">
<path d="M11.9912 13.7139C11.3137 13.7139 10.78 14.3076 10.78 15.0326C10.78 15.7551 11.3262 16.3514 11.9912 16.3514C12.6675 16.3514 13.2012 15.7551 13.2012 15.0326C13.215 14.3064 12.6675 13.7139 11.9912 13.7139ZM16.3262 13.7139C15.6487 13.7139 15.115 14.3076 15.115 15.0326C15.115 15.7551 15.6612 16.3514 16.3262 16.3514C17.0025 16.3514 17.5362 15.7551 17.5362 15.0326C17.535 14.3064 17.0025 13.7139 16.3262 13.7139Z" fill="white"/>
<path d="M22.0975 3.75H6.18376C5.86333 3.75082 5.54621 3.81474 5.25049 3.93812C4.95476 4.0615 4.68624 4.24192 4.46025 4.46908C4.23425 4.69623 4.05521 4.96568 3.93335 5.26203C3.81149 5.55837 3.74919 5.87582 3.75001 6.19625V22.2512C3.75001 23.605 4.84251 24.6975 6.18376 24.6975H19.65L19.0188 22.4987L20.54 23.9125L21.9763 25.2425L24.5313 27.5V6.19625C24.5321 5.87582 24.4698 5.55837 24.3479 5.26203C24.2261 4.96568 24.047 4.69623 23.821 4.46908C23.595 4.24192 23.3265 4.0615 23.0308 3.93812C22.7351 3.81474 22.4179 3.75082 22.0975 3.75ZM17.5125 19.2587C17.5125 19.2587 17.085 18.7487 16.73 18.295C18.285 17.855 18.8788 16.8825 18.8788 16.8825C18.3913 17.2025 17.9288 17.43 17.5125 17.585C15.9971 18.2192 14.3283 18.3923 12.715 18.0825C12.1189 17.9654 11.5348 17.7939 10.97 17.57C10.6722 17.4569 10.3827 17.3228 10.1038 17.1687C10.0675 17.1425 10.0325 17.1325 9.99751 17.1087C9.97878 17.0998 9.96217 17.0871 9.94876 17.0712C9.73501 16.9537 9.61626 16.8712 9.61626 16.8712C9.61626 16.8712 10.1863 17.8212 11.695 18.2725C11.3388 18.7225 10.8988 19.2587 10.8988 19.2587C8.27501 19.175 7.27876 17.4537 7.27876 17.4537C7.27876 13.63 8.98876 10.5312 8.98876 10.5312C10.6988 9.2475 12.325 9.28375 12.325 9.28375L12.4438 9.42625C10.3063 10.045 9.32001 10.9825 9.32001 10.9825C9.32001 10.9825 9.58251 10.84 10.0213 10.6387C11.2913 10.0812 12.3 9.92625 12.7163 9.89C12.7875 9.87875 12.8475 9.86625 12.9188 9.86625C14.9778 9.58877 17.0715 9.98008 18.8913 10.9825C18.8913 10.9825 17.9525 10.0925 15.9338 9.475L16.1 9.285C16.1 9.285 17.7275 9.24875 19.4363 10.5325C19.4363 10.5325 21.1463 13.6312 21.1463 17.455C21.1463 17.4537 20.1375 19.175 17.5125 19.2587Z" fill="white"/>
</svg>
