<svg width="70" height="70" viewBox="0 0 70 70" fill="none" xmlns="http://www.w3.org/2000/svg">
<path d="M59.6914 23.2149C62.6442 29.3671 63.1973 36.3992 61.2427 42.9375C59.288 49.4757 54.9661 55.0504 49.1211 58.5725C43.2761 62.0946 36.328 63.3111 29.634 61.9844C22.9401 60.6577 16.9812 56.883 12.9214 51.3978C8.86163 45.9126 6.99263 39.1109 7.67951 32.3214C8.36638 25.5319 11.5598 19.2423 16.6359 14.6814C21.712 10.1204 28.3062 7.61576 35.1302 7.65662C41.9543 7.69748 48.518 10.281 53.5391 14.9024L60.4844 7.98439C60.695 7.82643 60.9556 7.74973 61.2182 7.7684C61.4808 7.78706 61.7279 7.89983 61.914 8.086C62.1002 8.27217 62.213 8.51924 62.2317 8.78186C62.2503 9.04448 62.1736 9.30502 62.0157 9.51564L45.0625 26.4961L35.7656 35.7656C35.6662 35.8682 35.5472 35.9497 35.4157 36.0054C35.2842 36.061 35.1428 36.0897 35 36.0897C34.8572 36.0897 34.7158 36.061 34.5843 36.0054C34.4528 35.9497 34.3338 35.8682 34.2344 35.7656C34.1319 35.6662 34.0503 35.5472 33.9947 35.4157C33.939 35.2842 33.9103 35.1428 33.9103 35C33.9103 34.8572 33.939 34.7158 33.9947 34.5843C34.0503 34.4528 34.1319 34.3338 34.2344 34.2344L42.711 25.7578C40.5852 23.976 37.9103 22.9815 35.1368 22.9419C32.3634 22.9024 29.6611 23.8201 27.4854 25.5405C25.3097 27.2608 23.7936 29.6787 23.1926 32.3865C22.5916 35.0943 22.9424 37.9266 24.1861 40.4058C25.4297 42.8851 27.49 44.8599 30.0197 45.9974C32.5495 47.1348 35.394 47.3653 38.074 46.6502C40.7539 45.935 43.1053 44.3178 44.732 42.0711C46.3586 39.8244 47.161 37.0857 47.0039 34.3164C46.9966 34.1728 47.0176 34.029 47.0659 33.8935C47.1142 33.758 47.1887 33.6333 47.2852 33.5266C47.3817 33.42 47.4983 33.3334 47.6284 33.2718C47.7584 33.2103 47.8993 33.175 48.043 33.168C48.1853 33.1568 48.3284 33.1744 48.4638 33.2195C48.5992 33.2647 48.7241 33.3366 48.8312 33.431C48.9383 33.5253 49.0254 33.6402 49.0872 33.7688C49.1491 33.8974 49.1845 34.0371 49.1914 34.1797C49.3557 37.0223 48.6628 39.8487 47.2023 42.293C45.7419 44.7372 43.5813 46.6867 41.0003 47.889C38.4192 49.0913 35.5367 49.491 32.7259 49.0363C29.9151 48.5817 27.3056 47.2936 25.2352 45.3389C23.1648 43.3842 21.729 40.853 21.1136 38.0729C20.4983 35.2929 20.7318 32.3921 21.7838 29.7463C22.8359 27.1005 24.6581 24.8315 27.0144 23.2331C29.3707 21.6347 32.1527 20.7805 35 20.7813C38.3919 20.7704 41.6737 21.984 44.2422 24.1992L52.0078 16.461C47.3936 12.2254 41.3666 9.86135 35.1032 9.83021C28.8398 9.79906 22.7896 12.1031 18.1334 16.2925C13.4773 20.4819 10.5494 26.2561 9.92131 32.488C9.29319 38.7199 11.0099 44.9622 14.7364 49.9966C18.4629 55.0309 23.9316 58.4959 30.0753 59.7153C36.2189 60.9346 42.5965 59.8208 47.9631 56.5912C53.3298 53.3617 57.3003 48.2481 59.0998 42.2487C60.8993 36.2493 60.3986 29.7946 57.6953 24.1446C57.5721 23.8799 57.559 23.577 57.659 23.3027C57.759 23.0283 57.9638 22.8049 58.2285 22.6817C58.4932 22.5584 58.7961 22.5453 59.0704 22.6453C59.3448 22.7453 59.5681 22.9502 59.6914 23.2149Z" fill="#333333"/>
</svg>
