<svg width="428" height="776" viewBox="0 0 428 776" fill="none" xmlns="http://www.w3.org/2000/svg">
<ellipse rx="15" ry="15.5" transform="matrix(-1 0 0 1 83 396.5)" fill="#88451B"/>
<ellipse rx="15" ry="15.5" transform="matrix(-1 0 0 1 83 446.5)" fill="#92804C"/>
<ellipse rx="15" ry="16" transform="matrix(-1 0 0 1 83 496)" fill="#347B5D"/>
<circle r="15" transform="matrix(-1 0 0 1 83 546)" fill="#D7A933"/>
<ellipse rx="15" ry="16" transform="matrix(-1 0 0 1 83 596)" fill="#9E2224"/>
<ellipse rx="15" ry="15.5" transform="matrix(-1 0 0 1 83 645.5)" fill="#FFD764"/>
<ellipse rx="15" ry="15.5" transform="matrix(-1 0 0 1 83 695.5)" fill="#CE6828"/>
<path d="M113.722 397.83C114.618 397.055 115.323 396.421 115.836 395.926C116.359 395.422 116.793 394.899 117.138 394.358C117.483 393.817 117.656 393.275 117.656 392.734C117.656 392.174 117.521 391.735 117.25 391.418C116.989 391.101 116.573 390.942 116.004 390.942C115.453 390.942 115.024 391.119 114.716 391.474C114.417 391.819 114.259 392.286 114.24 392.874H112.7C112.728 391.81 113.045 390.998 113.652 390.438C114.268 389.869 115.047 389.584 115.99 389.584C117.007 389.584 117.801 389.864 118.37 390.424C118.949 390.984 119.238 391.731 119.238 392.664C119.238 393.336 119.065 393.985 118.72 394.61C118.384 395.226 117.978 395.781 117.502 396.276C117.035 396.761 116.438 397.326 115.71 397.97L115.08 398.53H119.518V399.86H112.714V398.698L113.722 397.83ZM120.92 394.764C120.92 393.149 121.191 391.889 121.732 390.984C122.283 390.069 123.225 389.612 124.56 389.612C125.895 389.612 126.833 390.069 127.374 390.984C127.925 391.889 128.2 393.149 128.2 394.764C128.2 396.397 127.925 397.676 127.374 398.6C126.833 399.515 125.895 399.972 124.56 399.972C123.225 399.972 122.283 399.515 121.732 398.6C121.191 397.676 120.92 396.397 120.92 394.764ZM126.632 394.764C126.632 394.008 126.581 393.369 126.478 392.846C126.385 392.323 126.189 391.899 125.89 391.572C125.591 391.236 125.148 391.068 124.56 391.068C123.972 391.068 123.529 391.236 123.23 391.572C122.931 391.899 122.731 392.323 122.628 392.846C122.535 393.369 122.488 394.008 122.488 394.764C122.488 395.548 122.535 396.206 122.628 396.738C122.721 397.27 122.917 397.699 123.216 398.026C123.524 398.353 123.972 398.516 124.56 398.516C125.148 398.516 125.591 398.353 125.89 398.026C126.198 397.699 126.399 397.27 126.492 396.738C126.585 396.206 126.632 395.548 126.632 394.764ZM129.637 392.258C129.637 391.577 129.833 391.045 130.225 390.662C130.626 390.27 131.139 390.074 131.765 390.074C132.39 390.074 132.899 390.27 133.291 390.662C133.692 391.045 133.893 391.577 133.893 392.258C133.893 392.939 133.692 393.476 133.291 393.868C132.899 394.26 132.39 394.456 131.765 394.456C131.139 394.456 130.626 394.26 130.225 393.868C129.833 393.476 129.637 392.939 129.637 392.258ZM138.177 390.256L132.591 400H131.023L136.609 390.256H138.177ZM131.765 391.04C131.177 391.04 130.883 391.446 130.883 392.258C130.883 393.079 131.177 393.49 131.765 393.49C132.045 393.49 132.259 393.392 132.409 393.196C132.567 392.991 132.647 392.678 132.647 392.258C132.647 391.446 132.353 391.04 131.765 391.04ZM135.335 397.984C135.335 397.303 135.531 396.771 135.923 396.388C136.324 395.996 136.837 395.8 137.463 395.8C138.079 395.8 138.583 395.996 138.975 396.388C139.376 396.771 139.577 397.303 139.577 397.984C139.577 398.665 139.376 399.202 138.975 399.594C138.583 399.986 138.079 400.182 137.463 400.182C136.837 400.182 136.324 399.986 135.923 399.594C135.531 399.202 135.335 398.665 135.335 397.984ZM137.449 396.766C136.861 396.766 136.567 397.172 136.567 397.984C136.567 398.796 136.861 399.202 137.449 399.202C138.037 399.202 138.331 398.796 138.331 397.984C138.331 397.172 138.037 396.766 137.449 396.766ZM146.447 398.712H149.737V400H144.851V390.27H146.447V398.712ZM152.667 390.27V400H151.071V390.27H152.667ZM162.295 401.764L160.587 399.916C160.167 400.037 159.705 400.098 159.201 400.098C158.296 400.098 157.46 399.888 156.695 399.468C155.939 399.039 155.337 398.446 154.889 397.69C154.45 396.925 154.231 396.066 154.231 395.114C154.231 394.162 154.45 393.308 154.889 392.552C155.337 391.796 155.939 391.208 156.695 390.788C157.46 390.359 158.296 390.144 159.201 390.144C160.116 390.144 160.951 390.359 161.707 390.788C162.472 391.208 163.074 391.796 163.513 392.552C163.952 393.308 164.171 394.162 164.171 395.114C164.171 396.01 163.975 396.822 163.583 397.55C163.2 398.269 162.668 398.847 161.987 399.286L164.325 401.764H162.295ZM155.869 395.114C155.869 395.833 156.009 396.467 156.289 397.018C156.578 397.559 156.975 397.979 157.479 398.278C157.983 398.567 158.557 398.712 159.201 398.712C159.845 398.712 160.419 398.567 160.923 398.278C161.427 397.979 161.819 397.559 162.099 397.018C162.388 396.467 162.533 395.833 162.533 395.114C162.533 394.395 162.388 393.765 162.099 393.224C161.819 392.683 161.427 392.267 160.923 391.978C160.419 391.689 159.845 391.544 159.201 391.544C158.557 391.544 157.983 391.689 157.479 391.978C156.975 392.267 156.578 392.683 156.289 393.224C156.009 393.765 155.869 394.395 155.869 395.114ZM167.364 390.27V396.472C167.364 397.209 167.556 397.765 167.938 398.138C168.33 398.511 168.872 398.698 169.562 398.698C170.262 398.698 170.804 398.511 171.186 398.138C171.578 397.765 171.774 397.209 171.774 396.472V390.27H173.37V396.444C173.37 397.237 173.198 397.909 172.852 398.46C172.507 399.011 172.045 399.421 171.466 399.692C170.888 399.963 170.248 400.098 169.548 400.098C168.848 400.098 168.209 399.963 167.63 399.692C167.061 399.421 166.608 399.011 166.272 398.46C165.936 397.909 165.768 397.237 165.768 396.444V390.27H167.364ZM177.044 390.27V400H175.448V390.27H177.044ZM182.318 390.27C183.354 390.27 184.259 390.471 185.034 390.872C185.818 391.264 186.42 391.833 186.84 392.58C187.269 393.317 187.484 394.181 187.484 395.17C187.484 396.159 187.269 397.018 186.84 397.746C186.42 398.474 185.818 399.034 185.034 399.426C184.259 399.809 183.354 400 182.318 400H179.14V390.27H182.318ZM182.318 398.698C183.457 398.698 184.329 398.39 184.936 397.774C185.543 397.158 185.846 396.29 185.846 395.17C185.846 394.041 185.543 393.159 184.936 392.524C184.329 391.889 183.457 391.572 182.318 391.572H180.736V398.698H182.318ZM190.662 390.27V400H189.066V390.27H190.662ZM199.043 390.27V391.572H196.453V400H194.857V391.572H192.253V390.27H199.043ZM207.869 390.27L204.649 396.472V400H203.053V396.472L199.819 390.27H201.597L203.851 395.044L206.105 390.27H207.869Z" fill="white"/>
<path d="M113.722 447.83C114.618 447.055 115.323 446.421 115.836 445.926C116.359 445.422 116.793 444.899 117.138 444.358C117.483 443.817 117.656 443.275 117.656 442.734C117.656 442.174 117.521 441.735 117.25 441.418C116.989 441.101 116.573 440.942 116.004 440.942C115.453 440.942 115.024 441.119 114.716 441.474C114.417 441.819 114.259 442.286 114.24 442.874H112.7C112.728 441.81 113.045 440.998 113.652 440.438C114.268 439.869 115.047 439.584 115.99 439.584C117.007 439.584 117.801 439.864 118.37 440.424C118.949 440.984 119.238 441.731 119.238 442.664C119.238 443.336 119.065 443.985 118.72 444.61C118.384 445.226 117.978 445.781 117.502 446.276C117.035 446.761 116.438 447.326 115.71 447.97L115.08 448.53H119.518V449.86H112.714V448.698L113.722 447.83ZM120.92 444.764C120.92 443.149 121.191 441.889 121.732 440.984C122.283 440.069 123.225 439.612 124.56 439.612C125.895 439.612 126.833 440.069 127.374 440.984C127.925 441.889 128.2 443.149 128.2 444.764C128.2 446.397 127.925 447.676 127.374 448.6C126.833 449.515 125.895 449.972 124.56 449.972C123.225 449.972 122.283 449.515 121.732 448.6C121.191 447.676 120.92 446.397 120.92 444.764ZM126.632 444.764C126.632 444.008 126.581 443.369 126.478 442.846C126.385 442.323 126.189 441.899 125.89 441.572C125.591 441.236 125.148 441.068 124.56 441.068C123.972 441.068 123.529 441.236 123.23 441.572C122.931 441.899 122.731 442.323 122.628 442.846C122.535 443.369 122.488 444.008 122.488 444.764C122.488 445.548 122.535 446.206 122.628 446.738C122.721 447.27 122.917 447.699 123.216 448.026C123.524 448.353 123.972 448.516 124.56 448.516C125.148 448.516 125.591 448.353 125.89 448.026C126.198 447.699 126.399 447.27 126.492 446.738C126.585 446.206 126.632 445.548 126.632 444.764ZM129.637 442.258C129.637 441.577 129.833 441.045 130.225 440.662C130.626 440.27 131.139 440.074 131.765 440.074C132.39 440.074 132.899 440.27 133.291 440.662C133.692 441.045 133.893 441.577 133.893 442.258C133.893 442.939 133.692 443.476 133.291 443.868C132.899 444.26 132.39 444.456 131.765 444.456C131.139 444.456 130.626 444.26 130.225 443.868C129.833 443.476 129.637 442.939 129.637 442.258ZM138.177 440.256L132.591 450H131.023L136.609 440.256H138.177ZM131.765 441.04C131.177 441.04 130.883 441.446 130.883 442.258C130.883 443.079 131.177 443.49 131.765 443.49C132.045 443.49 132.259 443.392 132.409 443.196C132.567 442.991 132.647 442.678 132.647 442.258C132.647 441.446 132.353 441.04 131.765 441.04ZM135.335 447.984C135.335 447.303 135.531 446.771 135.923 446.388C136.324 445.996 136.837 445.8 137.463 445.8C138.079 445.8 138.583 445.996 138.975 446.388C139.376 446.771 139.577 447.303 139.577 447.984C139.577 448.665 139.376 449.202 138.975 449.594C138.583 449.986 138.079 450.182 137.463 450.182C136.837 450.182 136.324 449.986 135.923 449.594C135.531 449.202 135.335 448.665 135.335 447.984ZM137.449 446.766C136.861 446.766 136.567 447.172 136.567 447.984C136.567 448.796 136.861 449.202 137.449 449.202C138.037 449.202 138.331 448.796 138.331 447.984C138.331 447.172 138.037 446.766 137.449 446.766ZM146.447 441.558V444.414H149.807V445.716H146.447V448.698H150.227V450H144.851V440.256H150.227V441.558H146.447ZM151.661 445.114C151.661 444.162 151.88 443.308 152.319 442.552C152.767 441.796 153.369 441.208 154.125 440.788C154.89 440.359 155.725 440.144 156.631 440.144C157.667 440.144 158.586 440.401 159.389 440.914C160.201 441.418 160.789 442.137 161.153 443.07H159.235C158.983 442.557 158.633 442.174 158.185 441.922C157.737 441.67 157.219 441.544 156.631 441.544C155.987 441.544 155.413 441.689 154.909 441.978C154.405 442.267 154.008 442.683 153.719 443.224C153.439 443.765 153.299 444.395 153.299 445.114C153.299 445.833 153.439 446.463 153.719 447.004C154.008 447.545 154.405 447.965 154.909 448.264C155.413 448.553 155.987 448.698 156.631 448.698C157.219 448.698 157.737 448.572 158.185 448.32C158.633 448.068 158.983 447.685 159.235 447.172H161.153C160.789 448.105 160.201 448.824 159.389 449.328C158.586 449.832 157.667 450.084 156.631 450.084C155.716 450.084 154.881 449.874 154.125 449.454C153.369 449.025 152.767 448.432 152.319 447.676C151.88 446.92 151.661 446.066 151.661 445.114ZM167.459 450.098C166.553 450.098 165.718 449.888 164.953 449.468C164.197 449.039 163.595 448.446 163.147 447.69C162.708 446.925 162.489 446.066 162.489 445.114C162.489 444.162 162.708 443.308 163.147 442.552C163.595 441.796 164.197 441.208 164.953 440.788C165.718 440.359 166.553 440.144 167.459 440.144C168.373 440.144 169.209 440.359 169.965 440.788C170.73 441.208 171.332 441.796 171.771 442.552C172.209 443.308 172.429 444.162 172.429 445.114C172.429 446.066 172.209 446.925 171.771 447.69C171.332 448.446 170.73 449.039 169.965 449.468C169.209 449.888 168.373 450.098 167.459 450.098ZM167.459 448.712C168.103 448.712 168.677 448.567 169.181 448.278C169.685 447.979 170.077 447.559 170.357 447.018C170.646 446.467 170.791 445.833 170.791 445.114C170.791 444.395 170.646 443.765 170.357 443.224C170.077 442.683 169.685 442.267 169.181 441.978C168.677 441.689 168.103 441.544 167.459 441.544C166.815 441.544 166.241 441.689 165.737 441.978C165.233 442.267 164.836 442.683 164.547 443.224C164.267 443.765 164.127 444.395 164.127 445.114C164.127 445.833 164.267 446.467 164.547 447.018C164.836 447.559 165.233 447.979 165.737 448.278C166.241 448.567 166.815 448.712 167.459 448.712ZM177.205 450.098C176.552 450.098 175.964 449.986 175.441 449.762C174.919 449.529 174.508 449.202 174.209 448.782C173.911 448.362 173.761 447.872 173.761 447.312H175.469C175.507 447.732 175.67 448.077 175.959 448.348C176.258 448.619 176.673 448.754 177.205 448.754C177.756 448.754 178.185 448.623 178.493 448.362C178.801 448.091 178.955 447.746 178.955 447.326C178.955 446.999 178.857 446.733 178.661 446.528C178.475 446.323 178.237 446.164 177.947 446.052C177.667 445.94 177.275 445.819 176.771 445.688C176.137 445.52 175.619 445.352 175.217 445.184C174.825 445.007 174.489 444.736 174.209 444.372C173.929 444.008 173.789 443.523 173.789 442.916C173.789 442.356 173.929 441.866 174.209 441.446C174.489 441.026 174.881 440.704 175.385 440.48C175.889 440.256 176.473 440.144 177.135 440.144C178.078 440.144 178.848 440.382 179.445 440.858C180.052 441.325 180.388 441.969 180.453 442.79H178.689C178.661 442.435 178.493 442.132 178.185 441.88C177.877 441.628 177.471 441.502 176.967 441.502C176.51 441.502 176.137 441.619 175.847 441.852C175.558 442.085 175.413 442.421 175.413 442.86C175.413 443.159 175.502 443.406 175.679 443.602C175.866 443.789 176.099 443.938 176.379 444.05C176.659 444.162 177.042 444.283 177.527 444.414C178.171 444.591 178.694 444.769 179.095 444.946C179.506 445.123 179.851 445.399 180.131 445.772C180.421 446.136 180.565 446.626 180.565 447.242C180.565 447.737 180.43 448.203 180.159 448.642C179.898 449.081 179.511 449.435 178.997 449.706C178.493 449.967 177.896 450.098 177.205 450.098ZM189.658 440.27L186.438 446.472V450H184.842V446.472L181.608 440.27H183.386L185.64 445.044L187.894 440.27H189.658ZM194.131 450.098C193.478 450.098 192.89 449.986 192.367 449.762C191.844 449.529 191.434 449.202 191.135 448.782C190.836 448.362 190.687 447.872 190.687 447.312H192.395C192.432 447.732 192.596 448.077 192.885 448.348C193.184 448.619 193.599 448.754 194.131 448.754C194.682 448.754 195.111 448.623 195.419 448.362C195.727 448.091 195.881 447.746 195.881 447.326C195.881 446.999 195.783 446.733 195.587 446.528C195.4 446.323 195.162 446.164 194.873 446.052C194.593 445.94 194.201 445.819 193.697 445.688C193.062 445.52 192.544 445.352 192.143 445.184C191.751 445.007 191.415 444.736 191.135 444.372C190.855 444.008 190.715 443.523 190.715 442.916C190.715 442.356 190.855 441.866 191.135 441.446C191.415 441.026 191.807 440.704 192.311 440.48C192.815 440.256 193.398 440.144 194.061 440.144C195.004 440.144 195.774 440.382 196.371 440.858C196.978 441.325 197.314 441.969 197.379 442.79H195.615C195.587 442.435 195.419 442.132 195.111 441.88C194.803 441.628 194.397 441.502 193.893 441.502C193.436 441.502 193.062 441.619 192.773 441.852C192.484 442.085 192.339 442.421 192.339 442.86C192.339 443.159 192.428 443.406 192.605 443.602C192.792 443.789 193.025 443.938 193.305 444.05C193.585 444.162 193.968 444.283 194.453 444.414C195.097 444.591 195.62 444.769 196.021 444.946C196.432 445.123 196.777 445.399 197.057 445.772C197.346 446.136 197.491 446.626 197.491 447.242C197.491 447.737 197.356 448.203 197.085 448.642C196.824 449.081 196.436 449.435 195.923 449.706C195.419 449.967 194.822 450.098 194.131 450.098ZM205.66 440.27V441.572H203.07V450H201.474V441.572H198.87V440.27H205.66ZM208.873 441.558V444.414H212.233V445.716H208.873V448.698H212.653V450H207.277V440.256H212.653V441.558H208.873ZM224.866 440.27V450H223.27V443.336L220.302 450H219.196L216.214 443.336V450H214.618V440.27H216.34L219.756 447.9L223.158 440.27H224.866ZM233.779 440.27C234.815 440.27 235.72 440.471 236.495 440.872C237.279 441.264 237.881 441.833 238.301 442.58C238.73 443.317 238.945 444.181 238.945 445.17C238.945 446.159 238.73 447.018 238.301 447.746C237.881 448.474 237.279 449.034 236.495 449.426C235.72 449.809 234.815 450 233.779 450H230.601V440.27H233.779ZM233.779 448.698C234.917 448.698 235.79 448.39 236.397 447.774C237.003 447.158 237.307 446.29 237.307 445.17C237.307 444.041 237.003 443.159 236.397 442.524C235.79 441.889 234.917 441.572 233.779 441.572H232.197V448.698H233.779ZM242.123 441.558V444.414H245.483V445.716H242.123V448.698H245.903V450H240.527V440.256H245.903V441.558H242.123ZM256.254 440.27L252.6 450H250.752L247.084 440.27H248.792L251.676 448.362L254.574 440.27H256.254ZM259.185 441.558V444.414H262.545V445.716H259.185V448.698H262.965V450H257.589V440.256H262.965V441.558H259.185ZM266.527 448.712H269.817V450H264.931V440.27H266.527V448.712ZM275.59 450.098C274.684 450.098 273.849 449.888 273.084 449.468C272.328 449.039 271.726 448.446 271.278 447.69C270.839 446.925 270.62 446.066 270.62 445.114C270.62 444.162 270.839 443.308 271.278 442.552C271.726 441.796 272.328 441.208 273.084 440.788C273.849 440.359 274.684 440.144 275.59 440.144C276.504 440.144 277.34 440.359 278.096 440.788C278.861 441.208 279.463 441.796 279.902 442.552C280.34 443.308 280.56 444.162 280.56 445.114C280.56 446.066 280.34 446.925 279.902 447.69C279.463 448.446 278.861 449.039 278.096 449.468C277.34 449.888 276.504 450.098 275.59 450.098ZM275.59 448.712C276.234 448.712 276.808 448.567 277.312 448.278C277.816 447.979 278.208 447.559 278.488 447.018C278.777 446.467 278.922 445.833 278.922 445.114C278.922 444.395 278.777 443.765 278.488 443.224C278.208 442.683 277.816 442.267 277.312 441.978C276.808 441.689 276.234 441.544 275.59 441.544C274.946 441.544 274.372 441.689 273.868 441.978C273.364 442.267 272.967 442.683 272.678 443.224C272.398 443.765 272.258 444.395 272.258 445.114C272.258 445.833 272.398 446.467 272.678 447.018C272.967 447.559 273.364 447.979 273.868 448.278C274.372 448.567 274.946 448.712 275.59 448.712ZM288.934 443.168C288.934 443.663 288.817 444.129 288.584 444.568C288.351 445.007 287.977 445.366 287.464 445.646C286.951 445.917 286.293 446.052 285.49 446.052H283.726V450H282.13V440.27H285.49C286.237 440.27 286.867 440.401 287.38 440.662C287.903 440.914 288.29 441.259 288.542 441.698C288.803 442.137 288.934 442.627 288.934 443.168ZM285.49 444.75C286.097 444.75 286.549 444.615 286.848 444.344C287.147 444.064 287.296 443.672 287.296 443.168C287.296 442.104 286.694 441.572 285.49 441.572H283.726V444.75H285.49ZM300.704 440.27V450H299.108V443.336L296.14 450H295.034L292.052 443.336V450H290.456V440.27H292.178L295.594 447.9L298.996 440.27H300.704ZM304.398 441.558V444.414H307.758V445.716H304.398V448.698H308.178V450H302.802V440.256H308.178V441.558H304.398ZM318.138 450H316.542L311.74 442.734V450H310.144V440.256H311.74L316.542 447.508V440.256H318.138V450ZM326.52 440.27V441.572H323.93V450H322.334V441.572H319.73V440.27H326.52Z" fill="white"/>
<path d="M111.63 491.25V489.794H114.542V500H112.932V491.25H111.63ZM122.223 492.16C122.12 491.731 121.933 491.409 121.663 491.194C121.392 490.979 121.014 490.872 120.529 490.872C119.791 490.872 119.241 491.157 118.877 491.726C118.513 492.286 118.321 493.219 118.303 494.526C118.545 494.115 118.9 493.798 119.367 493.574C119.833 493.35 120.337 493.238 120.879 493.238C121.495 493.238 122.036 493.373 122.503 493.644C122.979 493.905 123.347 494.288 123.609 494.792C123.879 495.296 124.015 495.898 124.015 496.598C124.015 497.251 123.884 497.835 123.623 498.348C123.371 498.861 122.993 499.267 122.489 499.566C121.985 499.855 121.378 500 120.669 500C119.707 500 118.951 499.79 118.401 499.37C117.859 498.941 117.477 498.339 117.253 497.564C117.038 496.789 116.931 495.823 116.931 494.666C116.931 491.25 118.135 489.542 120.543 489.542C121.476 489.542 122.209 489.794 122.741 490.298C123.282 490.802 123.599 491.423 123.693 492.16H122.223ZM120.529 494.582C119.959 494.582 119.474 494.755 119.073 495.1C118.681 495.436 118.485 495.926 118.485 496.57C118.485 497.214 118.667 497.727 119.031 498.11C119.404 498.483 119.922 498.67 120.585 498.67C121.173 498.67 121.635 498.488 121.971 498.124C122.316 497.76 122.489 497.275 122.489 496.668C122.489 496.033 122.321 495.529 121.985 495.156C121.658 494.773 121.173 494.582 120.529 494.582ZM126.571 500.098C126.282 500.098 126.039 500 125.843 499.804C125.647 499.608 125.549 499.365 125.549 499.076C125.549 498.787 125.647 498.544 125.843 498.348C126.039 498.152 126.282 498.054 126.571 498.054C126.851 498.054 127.089 498.152 127.285 498.348C127.481 498.544 127.579 498.787 127.579 499.076C127.579 499.365 127.481 499.608 127.285 499.804C127.089 500 126.851 500.098 126.571 500.098ZM134.582 492.16C134.479 491.731 134.293 491.409 134.022 491.194C133.751 490.979 133.373 490.872 132.888 490.872C132.151 490.872 131.6 491.157 131.236 491.726C130.872 492.286 130.681 493.219 130.662 494.526C130.905 494.115 131.259 493.798 131.726 493.574C132.193 493.35 132.697 493.238 133.238 493.238C133.854 493.238 134.395 493.373 134.862 493.644C135.338 493.905 135.707 494.288 135.968 494.792C136.239 495.296 136.374 495.898 136.374 496.598C136.374 497.251 136.243 497.835 135.982 498.348C135.73 498.861 135.352 499.267 134.848 499.566C134.344 499.855 133.737 500 133.028 500C132.067 500 131.311 499.79 130.76 499.37C130.219 498.941 129.836 498.339 129.612 497.564C129.397 496.789 129.29 495.823 129.29 494.666C129.29 491.25 130.494 489.542 132.902 489.542C133.835 489.542 134.568 489.794 135.1 490.298C135.641 490.802 135.959 491.423 136.052 492.16H134.582ZM132.888 494.582C132.319 494.582 131.833 494.755 131.432 495.1C131.04 495.436 130.844 495.926 130.844 496.57C130.844 497.214 131.026 497.727 131.39 498.11C131.763 498.483 132.281 498.67 132.944 498.67C133.532 498.67 133.994 498.488 134.33 498.124C134.675 497.76 134.848 497.275 134.848 496.668C134.848 496.033 134.68 495.529 134.344 495.156C134.017 494.773 133.532 494.582 132.888 494.582ZM144.544 491.026L140.652 500H139.042L142.976 491.194H137.796V489.836H144.544V491.026ZM145.658 492.258C145.658 491.577 145.854 491.045 146.246 490.662C146.648 490.27 147.161 490.074 147.786 490.074C148.412 490.074 148.92 490.27 149.312 490.662C149.714 491.045 149.914 491.577 149.914 492.258C149.914 492.939 149.714 493.476 149.312 493.868C148.92 494.26 148.412 494.456 147.786 494.456C147.161 494.456 146.648 494.26 146.246 493.868C145.854 493.476 145.658 492.939 145.658 492.258ZM154.198 490.256L148.612 500H147.044L152.63 490.256H154.198ZM147.786 491.04C147.198 491.04 146.904 491.446 146.904 492.258C146.904 493.079 147.198 493.49 147.786 493.49C148.066 493.49 148.281 493.392 148.43 493.196C148.589 492.991 148.668 492.678 148.668 492.258C148.668 491.446 148.374 491.04 147.786 491.04ZM151.356 497.984C151.356 497.303 151.552 496.771 151.944 496.388C152.346 495.996 152.859 495.8 153.484 495.8C154.1 495.8 154.604 495.996 154.996 496.388C155.398 496.771 155.598 497.303 155.598 497.984C155.598 498.665 155.398 499.202 154.996 499.594C154.604 499.986 154.1 500.182 153.484 500.182C152.859 500.182 152.346 499.986 151.944 499.594C151.552 499.202 151.356 498.665 151.356 497.984ZM153.47 496.766C152.882 496.766 152.588 497.172 152.588 497.984C152.588 498.796 152.882 499.202 153.47 499.202C154.058 499.202 154.352 498.796 154.352 497.984C154.352 497.172 154.058 496.766 153.47 496.766ZM167.676 493.168C167.676 493.663 167.56 494.129 167.326 494.568C167.093 495.007 166.72 495.366 166.206 495.646C165.693 495.917 165.035 496.052 164.232 496.052H162.468V500H160.872V490.27H164.232C164.979 490.27 165.609 490.401 166.122 490.662C166.645 490.914 167.032 491.259 167.284 491.698C167.546 492.137 167.676 492.627 167.676 493.168ZM164.232 494.75C164.839 494.75 165.292 494.615 165.59 494.344C165.889 494.064 166.038 493.672 166.038 493.168C166.038 492.104 165.436 491.572 164.232 491.572H162.468V494.75H164.232ZM174.252 500L172.012 496.108H170.794V500H169.198V490.27H172.558C173.305 490.27 173.935 490.401 174.448 490.662C174.971 490.923 175.358 491.273 175.61 491.712C175.872 492.151 176.002 492.641 176.002 493.182C176.002 493.817 175.816 494.395 175.442 494.918C175.078 495.431 174.514 495.781 173.748 495.968L176.156 500H174.252ZM170.794 494.834H172.558C173.156 494.834 173.604 494.685 173.902 494.386C174.21 494.087 174.364 493.686 174.364 493.182C174.364 492.678 174.215 492.286 173.916 492.006C173.618 491.717 173.165 491.572 172.558 491.572H170.794V494.834ZM179.64 491.558V494.414H183V495.716H179.64V498.698H183.42V500H178.044V490.256H183.42V491.558H179.64ZM188.592 500.098C187.939 500.098 187.351 499.986 186.828 499.762C186.305 499.529 185.895 499.202 185.596 498.782C185.297 498.362 185.148 497.872 185.148 497.312H186.856C186.893 497.732 187.057 498.077 187.346 498.348C187.645 498.619 188.06 498.754 188.592 498.754C189.143 498.754 189.572 498.623 189.88 498.362C190.188 498.091 190.342 497.746 190.342 497.326C190.342 496.999 190.244 496.733 190.048 496.528C189.861 496.323 189.623 496.164 189.334 496.052C189.054 495.94 188.662 495.819 188.158 495.688C187.523 495.52 187.005 495.352 186.604 495.184C186.212 495.007 185.876 494.736 185.596 494.372C185.316 494.008 185.176 493.523 185.176 492.916C185.176 492.356 185.316 491.866 185.596 491.446C185.876 491.026 186.268 490.704 186.772 490.48C187.276 490.256 187.859 490.144 188.522 490.144C189.465 490.144 190.235 490.382 190.832 490.858C191.439 491.325 191.775 491.969 191.84 492.79H190.076C190.048 492.435 189.88 492.132 189.572 491.88C189.264 491.628 188.858 491.502 188.354 491.502C187.897 491.502 187.523 491.619 187.234 491.852C186.945 492.085 186.8 492.421 186.8 492.86C186.8 493.159 186.889 493.406 187.066 493.602C187.253 493.789 187.486 493.938 187.766 494.05C188.046 494.162 188.429 494.283 188.914 494.414C189.558 494.591 190.081 494.769 190.482 494.946C190.893 495.123 191.238 495.399 191.518 495.772C191.807 496.136 191.952 496.626 191.952 497.242C191.952 497.737 191.817 498.203 191.546 498.642C191.285 499.081 190.897 499.435 190.384 499.706C189.88 499.967 189.283 500.098 188.592 500.098ZM199.701 498.012H195.627L194.927 500H193.261L196.747 490.256H198.595L202.081 500H200.401L199.701 498.012ZM199.253 496.71L197.671 492.188L196.075 496.71H199.253ZM205.193 498.712H208.483V500H203.597V490.27H205.193V498.712ZM211.414 491.558V494.414H214.774V495.716H211.414V498.698H215.194V500H209.818V490.256H215.194V491.558H211.414Z" fill="white"/>
<path d="M112.63 541.25V539.794H115.542V550H113.932V541.25H112.63ZM124.315 541.166H119.625V543.952C119.821 543.691 120.11 543.471 120.493 543.294C120.885 543.117 121.3 543.028 121.739 543.028C122.523 543.028 123.157 543.196 123.643 543.532C124.137 543.868 124.487 544.293 124.693 544.806C124.907 545.319 125.015 545.861 125.015 546.43C125.015 547.121 124.879 547.737 124.609 548.278C124.347 548.81 123.951 549.23 123.419 549.538C122.896 549.846 122.252 550 121.487 550C120.469 550 119.653 549.748 119.037 549.244C118.421 548.74 118.052 548.073 117.931 547.242H119.485C119.587 547.681 119.816 548.031 120.171 548.292C120.525 548.544 120.969 548.67 121.501 548.67C122.163 548.67 122.658 548.469 122.985 548.068C123.321 547.667 123.489 547.135 123.489 546.472C123.489 545.8 123.321 545.287 122.985 544.932C122.649 544.568 122.154 544.386 121.501 544.386C121.043 544.386 120.656 544.503 120.339 544.736C120.031 544.96 119.807 545.268 119.667 545.66H118.155V539.766H124.315V541.166ZM126.424 542.258C126.424 541.577 126.62 541.045 127.012 540.662C127.413 540.27 127.927 540.074 128.552 540.074C129.177 540.074 129.686 540.27 130.078 540.662C130.479 541.045 130.68 541.577 130.68 542.258C130.68 542.939 130.479 543.476 130.078 543.868C129.686 544.26 129.177 544.456 128.552 544.456C127.927 544.456 127.413 544.26 127.012 543.868C126.62 543.476 126.424 542.939 126.424 542.258ZM134.964 540.256L129.378 550H127.81L133.396 540.256H134.964ZM128.552 541.04C127.964 541.04 127.67 541.446 127.67 542.258C127.67 543.079 127.964 543.49 128.552 543.49C128.832 543.49 129.047 543.392 129.196 543.196C129.355 542.991 129.434 542.678 129.434 542.258C129.434 541.446 129.14 541.04 128.552 541.04ZM132.122 547.984C132.122 547.303 132.318 546.771 132.71 546.388C133.111 545.996 133.625 545.8 134.25 545.8C134.866 545.8 135.37 545.996 135.762 546.388C136.163 546.771 136.364 547.303 136.364 547.984C136.364 548.665 136.163 549.202 135.762 549.594C135.37 549.986 134.866 550.182 134.25 550.182C133.625 550.182 133.111 549.986 132.71 549.594C132.318 549.202 132.122 548.665 132.122 547.984ZM134.236 546.766C133.648 546.766 133.354 547.172 133.354 547.984C133.354 548.796 133.648 549.202 134.236 549.202C134.824 549.202 135.118 548.796 135.118 547.984C135.118 547.172 134.824 546.766 134.236 546.766ZM147.504 548.012H143.43L142.73 550H141.064L144.55 540.256H146.398L149.884 550H148.204L147.504 548.012ZM147.056 546.71L145.474 542.188L143.878 546.71H147.056ZM152.996 540.27V550H151.4V540.27H152.996ZM160.145 550L157.905 546.108H156.687V550H155.091V540.27H158.451C159.198 540.27 159.828 540.401 160.341 540.662C160.864 540.923 161.251 541.273 161.503 541.712C161.764 542.151 161.895 542.641 161.895 543.182C161.895 543.817 161.708 544.395 161.335 544.918C160.971 545.431 160.406 545.781 159.641 545.968L162.049 550H160.145ZM156.687 544.834H158.451C159.048 544.834 159.496 544.685 159.795 544.386C160.103 544.087 160.257 543.686 160.257 543.182C160.257 542.678 160.108 542.286 159.809 542.006C159.51 541.717 159.058 541.572 158.451 541.572H156.687V544.834ZM167.115 540.27C168.151 540.27 169.056 540.471 169.831 540.872C170.615 541.264 171.217 541.833 171.637 542.58C172.066 543.317 172.281 544.181 172.281 545.17C172.281 546.159 172.066 547.018 171.637 547.746C171.217 548.474 170.615 549.034 169.831 549.426C169.056 549.809 168.151 550 167.115 550H163.937V540.27H167.115ZM167.115 548.698C168.253 548.698 169.126 548.39 169.733 547.774C170.339 547.158 170.643 546.29 170.643 545.17C170.643 544.041 170.339 543.159 169.733 542.524C169.126 541.889 168.253 541.572 167.115 541.572H165.533V548.698H167.115ZM178.917 550L176.677 546.108H175.459V550H173.863V540.27H177.223C177.969 540.27 178.599 540.401 179.113 540.662C179.635 540.923 180.023 541.273 180.275 541.712C180.536 542.151 180.667 542.641 180.667 543.182C180.667 543.817 180.48 544.395 180.107 544.918C179.743 545.431 179.178 545.781 178.413 545.968L180.821 550H178.917ZM175.459 544.834H177.223C177.82 544.834 178.268 544.685 178.567 544.386C178.875 544.087 179.029 543.686 179.029 543.182C179.029 542.678 178.879 542.286 178.581 542.006C178.282 541.717 177.829 541.572 177.223 541.572H175.459V544.834ZM187.146 550.098C186.241 550.098 185.406 549.888 184.64 549.468C183.884 549.039 183.282 548.446 182.834 547.69C182.396 546.925 182.176 546.066 182.176 545.114C182.176 544.162 182.396 543.308 182.834 542.552C183.282 541.796 183.884 541.208 184.64 540.788C185.406 540.359 186.241 540.144 187.146 540.144C188.061 540.144 188.896 540.359 189.652 540.788C190.418 541.208 191.02 541.796 191.458 542.552C191.897 543.308 192.116 544.162 192.116 545.114C192.116 546.066 191.897 546.925 191.458 547.69C191.02 548.446 190.418 549.039 189.652 549.468C188.896 549.888 188.061 550.098 187.146 550.098ZM187.146 548.712C187.79 548.712 188.364 548.567 188.868 548.278C189.372 547.979 189.764 547.559 190.044 547.018C190.334 546.467 190.478 545.833 190.478 545.114C190.478 544.395 190.334 543.765 190.044 543.224C189.764 542.683 189.372 542.267 188.868 541.978C188.364 541.689 187.79 541.544 187.146 541.544C186.502 541.544 185.928 541.689 185.424 541.978C184.92 542.267 184.524 542.683 184.234 543.224C183.954 543.765 183.814 544.395 183.814 545.114C183.814 545.833 183.954 546.467 184.234 547.018C184.524 547.559 184.92 547.979 185.424 548.278C185.928 548.567 186.502 548.712 187.146 548.712ZM200.491 543.168C200.491 543.663 200.374 544.129 200.141 544.568C199.907 545.007 199.534 545.366 199.021 545.646C198.507 545.917 197.849 546.052 197.047 546.052H195.283V550H193.687V540.27H197.047C197.793 540.27 198.423 540.401 198.937 540.662C199.459 540.914 199.847 541.259 200.099 541.698C200.36 542.137 200.491 542.627 200.491 543.168ZM197.047 544.75C197.653 544.75 198.106 544.615 198.405 544.344C198.703 544.064 198.853 543.672 198.853 543.168C198.853 542.104 198.251 541.572 197.047 541.572H195.283V544.75H197.047Z" fill="white"/>
<path d="M112.63 591.25V589.794H115.542V600H113.932V591.25H112.63ZM117.735 594.764C117.735 593.149 118.005 591.889 118.547 590.984C119.097 590.069 120.04 589.612 121.375 589.612C122.709 589.612 123.647 590.069 124.189 590.984C124.739 591.889 125.015 593.149 125.015 594.764C125.015 596.397 124.739 597.676 124.189 598.6C123.647 599.515 122.709 599.972 121.375 599.972C120.04 599.972 119.097 599.515 118.547 598.6C118.005 597.676 117.735 596.397 117.735 594.764ZM123.447 594.764C123.447 594.008 123.395 593.369 123.293 592.846C123.199 592.323 123.003 591.899 122.705 591.572C122.406 591.236 121.963 591.068 121.375 591.068C120.787 591.068 120.343 591.236 120.045 591.572C119.746 591.899 119.545 592.323 119.443 592.846C119.349 593.369 119.303 594.008 119.303 594.764C119.303 595.548 119.349 596.206 119.443 596.738C119.536 597.27 119.732 597.699 120.031 598.026C120.339 598.353 120.787 598.516 121.375 598.516C121.963 598.516 122.406 598.353 122.705 598.026C123.013 597.699 123.213 597.27 123.307 596.738C123.4 596.206 123.447 595.548 123.447 594.764ZM126.451 592.258C126.451 591.577 126.647 591.045 127.039 590.662C127.441 590.27 127.954 590.074 128.579 590.074C129.205 590.074 129.713 590.27 130.105 590.662C130.507 591.045 130.707 591.577 130.707 592.258C130.707 592.939 130.507 593.476 130.105 593.868C129.713 594.26 129.205 594.456 128.579 594.456C127.954 594.456 127.441 594.26 127.039 593.868C126.647 593.476 126.451 592.939 126.451 592.258ZM134.991 590.256L129.405 600H127.837L133.423 590.256H134.991ZM128.579 591.04C127.991 591.04 127.697 591.446 127.697 592.258C127.697 593.079 127.991 593.49 128.579 593.49C128.859 593.49 129.074 593.392 129.223 593.196C129.382 592.991 129.461 592.678 129.461 592.258C129.461 591.446 129.167 591.04 128.579 591.04ZM132.149 597.984C132.149 597.303 132.345 596.771 132.737 596.388C133.139 595.996 133.652 595.8 134.277 595.8C134.893 595.8 135.397 595.996 135.789 596.388C136.191 596.771 136.391 597.303 136.391 597.984C136.391 598.665 136.191 599.202 135.789 599.594C135.397 599.986 134.893 600.182 134.277 600.182C133.652 600.182 133.139 599.986 132.737 599.594C132.345 599.202 132.149 598.665 132.149 597.984ZM134.263 596.766C133.675 596.766 133.381 597.172 133.381 597.984C133.381 598.796 133.675 599.202 134.263 599.202C134.851 599.202 135.145 598.796 135.145 597.984C135.145 597.172 134.851 596.766 134.263 596.766ZM151.913 590.27V600H150.317V593.336L147.349 600H146.243L143.261 593.336V600H141.665V590.27H143.387L146.803 597.9L150.205 590.27H151.913ZM159.877 598.012H155.803L155.103 600H153.437L156.923 590.256H158.771L162.257 600H160.577L159.877 598.012ZM159.429 596.71L157.847 592.188L156.251 596.71H159.429ZM168.827 600L166.587 596.108H165.369V600H163.773V590.27H167.133C167.879 590.27 168.509 590.401 169.023 590.662C169.545 590.923 169.933 591.273 170.185 591.712C170.446 592.151 170.577 592.641 170.577 593.182C170.577 593.817 170.39 594.395 170.017 594.918C169.653 595.431 169.088 595.781 168.323 595.968L170.731 600H168.827ZM165.369 594.834H167.133C167.73 594.834 168.178 594.685 168.477 594.386C168.785 594.087 168.939 593.686 168.939 593.182C168.939 592.678 168.789 592.286 168.491 592.006C168.192 591.717 167.739 591.572 167.133 591.572H165.369V594.834ZM177.98 600L174.214 595.646V600H172.618V590.27H174.214V594.708L177.994 590.27H179.996L175.768 595.142L180.066 600H177.98ZM183.074 591.558V594.414H186.434V595.716H183.074V598.698H186.854V600H181.478V590.256H186.854V591.558H183.074ZM195.106 590.27V591.572H192.516V600H190.92V591.572H188.316V590.27H195.106ZM198.318 590.27V600H196.722V590.27H198.318ZM208.407 600H206.811L202.009 592.734V600H200.413V590.256H202.009L206.811 597.508V590.256H208.407V600ZM217.545 593.07C217.293 592.585 216.943 592.221 216.495 591.978C216.047 591.726 215.529 591.6 214.941 591.6C214.297 591.6 213.723 591.745 213.219 592.034C212.715 592.323 212.318 592.734 212.029 593.266C211.749 593.798 211.609 594.414 211.609 595.114C211.609 595.814 211.749 596.435 212.029 596.976C212.318 597.508 212.715 597.919 213.219 598.208C213.723 598.497 214.297 598.642 214.941 598.642C215.809 598.642 216.514 598.399 217.055 597.914C217.596 597.429 217.928 596.771 218.049 595.94H214.395V594.666H219.757V595.912C219.654 596.668 219.384 597.363 218.945 597.998C218.516 598.633 217.951 599.141 217.251 599.524C216.56 599.897 215.79 600.084 214.941 600.084C214.026 600.084 213.191 599.874 212.435 599.454C211.679 599.025 211.077 598.432 210.629 597.676C210.19 596.92 209.971 596.066 209.971 595.114C209.971 594.162 210.19 593.308 210.629 592.552C211.077 591.796 211.679 591.208 212.435 590.788C213.2 590.359 214.036 590.144 214.941 590.144C215.977 590.144 216.896 590.401 217.699 590.914C218.511 591.418 219.099 592.137 219.463 593.07H217.545Z" fill="white"/>
<path d="M112.63 641.25V639.794H115.542V650H113.932V641.25H112.63ZM117.735 644.764C117.735 643.149 118.005 641.889 118.547 640.984C119.097 640.069 120.04 639.612 121.375 639.612C122.709 639.612 123.647 640.069 124.189 640.984C124.739 641.889 125.015 643.149 125.015 644.764C125.015 646.397 124.739 647.676 124.189 648.6C123.647 649.515 122.709 649.972 121.375 649.972C120.04 649.972 119.097 649.515 118.547 648.6C118.005 647.676 117.735 646.397 117.735 644.764ZM123.447 644.764C123.447 644.008 123.395 643.369 123.293 642.846C123.199 642.323 123.003 641.899 122.705 641.572C122.406 641.236 121.963 641.068 121.375 641.068C120.787 641.068 120.343 641.236 120.045 641.572C119.746 641.899 119.545 642.323 119.443 642.846C119.349 643.369 119.303 644.008 119.303 644.764C119.303 645.548 119.349 646.206 119.443 646.738C119.536 647.27 119.732 647.699 120.031 648.026C120.339 648.353 120.787 648.516 121.375 648.516C121.963 648.516 122.406 648.353 122.705 648.026C123.013 647.699 123.213 647.27 123.307 646.738C123.4 646.206 123.447 645.548 123.447 644.764ZM126.451 642.258C126.451 641.577 126.647 641.045 127.039 640.662C127.441 640.27 127.954 640.074 128.579 640.074C129.205 640.074 129.713 640.27 130.105 640.662C130.507 641.045 130.707 641.577 130.707 642.258C130.707 642.939 130.507 643.476 130.105 643.868C129.713 644.26 129.205 644.456 128.579 644.456C127.954 644.456 127.441 644.26 127.039 643.868C126.647 643.476 126.451 642.939 126.451 642.258ZM134.991 640.256L129.405 650H127.837L133.423 640.256H134.991ZM128.579 641.04C127.991 641.04 127.697 641.446 127.697 642.258C127.697 643.079 127.991 643.49 128.579 643.49C128.859 643.49 129.074 643.392 129.223 643.196C129.382 642.991 129.461 642.678 129.461 642.258C129.461 641.446 129.167 641.04 128.579 641.04ZM132.149 647.984C132.149 647.303 132.345 646.771 132.737 646.388C133.139 645.996 133.652 645.8 134.277 645.8C134.893 645.8 135.397 645.996 135.789 646.388C136.191 646.771 136.391 647.303 136.391 647.984C136.391 648.665 136.191 649.202 135.789 649.594C135.397 649.986 134.893 650.182 134.277 650.182C133.652 650.182 133.139 649.986 132.737 649.594C132.345 649.202 132.149 648.665 132.149 647.984ZM134.263 646.766C133.675 646.766 133.381 647.172 133.381 647.984C133.381 648.796 133.675 649.202 134.263 649.202C134.851 649.202 135.145 648.796 135.145 647.984C135.145 647.172 134.851 646.766 134.263 646.766ZM143.247 640.27V646.472C143.247 647.209 143.439 647.765 143.821 648.138C144.213 648.511 144.755 648.698 145.445 648.698C146.145 648.698 146.687 648.511 147.069 648.138C147.461 647.765 147.657 647.209 147.657 646.472V640.27H149.253V646.444C149.253 647.237 149.081 647.909 148.735 648.46C148.39 649.011 147.928 649.421 147.349 649.692C146.771 649.963 146.131 650.098 145.431 650.098C144.731 650.098 144.092 649.963 143.513 649.692C142.944 649.421 142.491 649.011 142.155 648.46C141.819 647.909 141.651 647.237 141.651 646.444V640.27H143.247ZM156.539 645.002C157.062 645.095 157.505 645.371 157.869 645.828C158.233 646.285 158.415 646.803 158.415 647.382C158.415 647.877 158.285 648.325 158.023 648.726C157.771 649.118 157.403 649.431 156.917 649.664C156.432 649.888 155.867 650 155.223 650H151.331V640.27H155.041C155.704 640.27 156.273 640.382 156.749 640.606C157.225 640.83 157.585 641.133 157.827 641.516C158.07 641.889 158.191 642.309 158.191 642.776C158.191 643.336 158.042 643.803 157.743 644.176C157.445 644.549 157.043 644.825 156.539 645.002ZM152.927 644.358H154.901C155.424 644.358 155.83 644.241 156.119 644.008C156.418 643.765 156.567 643.42 156.567 642.972C156.567 642.533 156.418 642.193 156.119 641.95C155.83 641.698 155.424 641.572 154.901 641.572H152.927V644.358ZM155.083 648.698C155.625 648.698 156.049 648.567 156.357 648.306C156.665 648.045 156.819 647.681 156.819 647.214C156.819 646.738 156.656 646.36 156.329 646.08C156.003 645.8 155.569 645.66 155.027 645.66H152.927V648.698H155.083ZM161.732 640.27V646.472C161.732 647.209 161.923 647.765 162.306 648.138C162.698 648.511 163.239 648.698 163.93 648.698C164.63 648.698 165.171 648.511 165.554 648.138C165.946 647.765 166.142 647.209 166.142 646.472V640.27H167.738V646.444C167.738 647.237 167.565 647.909 167.22 648.46C166.874 649.011 166.412 649.421 165.834 649.692C165.255 649.963 164.616 650.098 163.916 650.098C163.216 650.098 162.576 649.963 161.998 649.692C161.428 649.421 160.976 649.011 160.64 648.46C160.304 647.909 160.136 647.237 160.136 646.444V640.27H161.732ZM177.81 650H176.214L171.412 642.734V650H169.816V640.256H171.412L176.214 647.508V640.256H177.81V650ZM186.191 640.27V641.572H183.601V650H182.005V641.572H179.401V640.27H186.191ZM189.39 640.27V646.472C189.39 647.209 189.581 647.765 189.964 648.138C190.356 648.511 190.897 648.698 191.588 648.698C192.288 648.698 192.829 648.511 193.212 648.138C193.604 647.765 193.8 647.209 193.8 646.472V640.27H195.396V646.444C195.396 647.237 195.223 647.909 194.878 648.46C194.532 649.011 194.07 649.421 193.492 649.692C192.913 649.963 192.274 650.098 191.574 650.098C190.874 650.098 190.234 649.963 189.656 649.692C189.086 649.421 188.634 649.011 188.298 648.46C187.962 647.909 187.794 647.237 187.794 646.444V640.27H189.39ZM206.837 640.27V641.572H202.707V644.442H205.927V645.744H202.707V650H201.111V640.27H206.837ZM212.754 650.098C211.848 650.098 211.013 649.888 210.248 649.468C209.492 649.039 208.89 648.446 208.442 647.69C208.003 646.925 207.784 646.066 207.784 645.114C207.784 644.162 208.003 643.308 208.442 642.552C208.89 641.796 209.492 641.208 210.248 640.788C211.013 640.359 211.848 640.144 212.754 640.144C213.668 640.144 214.504 640.359 215.26 640.788C216.025 641.208 216.627 641.796 217.066 642.552C217.504 643.308 217.724 644.162 217.724 645.114C217.724 646.066 217.504 646.925 217.066 647.69C216.627 648.446 216.025 649.039 215.26 649.468C214.504 649.888 213.668 650.098 212.754 650.098ZM212.754 648.712C213.398 648.712 213.972 648.567 214.476 648.278C214.98 647.979 215.372 647.559 215.652 647.018C215.941 646.467 216.086 645.833 216.086 645.114C216.086 644.395 215.941 643.765 215.652 643.224C215.372 642.683 214.98 642.267 214.476 641.978C213.972 641.689 213.398 641.544 212.754 641.544C212.11 641.544 211.536 641.689 211.032 641.978C210.528 642.267 210.131 642.683 209.842 643.224C209.562 643.765 209.422 644.395 209.422 645.114C209.422 645.833 209.562 646.467 209.842 647.018C210.131 647.559 210.528 647.979 211.032 648.278C211.536 648.567 212.11 648.712 212.754 648.712ZM220.876 640.27V646.472C220.876 647.209 221.067 647.765 221.45 648.138C221.842 648.511 222.383 648.698 223.074 648.698C223.774 648.698 224.315 648.511 224.698 648.138C225.09 647.765 225.286 647.209 225.286 646.472V640.27H226.882V646.444C226.882 647.237 226.709 647.909 226.364 648.46C226.019 649.011 225.557 649.421 224.978 649.692C224.399 649.963 223.76 650.098 223.06 650.098C222.36 650.098 221.721 649.963 221.142 649.692C220.573 649.421 220.12 649.011 219.784 648.46C219.448 647.909 219.28 647.237 219.28 646.444V640.27H220.876ZM236.954 650H235.358L230.556 642.734V650H228.96V640.256H230.556L235.358 647.508V640.256H236.954V650ZM242.228 640.27C243.264 640.27 244.169 640.471 244.944 640.872C245.728 641.264 246.33 641.833 246.75 642.58C247.179 643.317 247.394 644.181 247.394 645.17C247.394 646.159 247.179 647.018 246.75 647.746C246.33 648.474 245.728 649.034 244.944 649.426C244.169 649.809 243.264 650 242.228 650H239.05V640.27H242.228ZM242.228 648.698C243.367 648.698 244.239 648.39 244.846 647.774C245.453 647.158 245.756 646.29 245.756 645.17C245.756 644.041 245.453 643.159 244.846 642.524C244.239 641.889 243.367 641.572 242.228 641.572H240.646V648.698H242.228ZM254.842 648.012H250.768L250.068 650H248.402L251.888 640.256H253.736L257.222 650H255.542L254.842 648.012ZM254.394 646.71L252.812 642.188L251.216 646.71H254.394ZM265.024 640.27V641.572H262.434V650H260.838V641.572H258.234V640.27H265.024ZM268.236 640.27V650H266.64V640.27H268.236ZM274.769 650.098C273.864 650.098 273.029 649.888 272.263 649.468C271.507 649.039 270.905 648.446 270.457 647.69C270.019 646.925 269.799 646.066 269.799 645.114C269.799 644.162 270.019 643.308 270.457 642.552C270.905 641.796 271.507 641.208 272.263 640.788C273.029 640.359 273.864 640.144 274.769 640.144C275.684 640.144 276.519 640.359 277.275 640.788C278.041 641.208 278.643 641.796 279.081 642.552C279.52 643.308 279.739 644.162 279.739 645.114C279.739 646.066 279.52 646.925 279.081 647.69C278.643 648.446 278.041 649.039 277.275 649.468C276.519 649.888 275.684 650.098 274.769 650.098ZM274.769 648.712C275.413 648.712 275.987 648.567 276.491 648.278C276.995 647.979 277.387 647.559 277.667 647.018C277.957 646.467 278.101 645.833 278.101 645.114C278.101 644.395 277.957 643.765 277.667 643.224C277.387 642.683 276.995 642.267 276.491 641.978C275.987 641.689 275.413 641.544 274.769 641.544C274.125 641.544 273.551 641.689 273.047 641.978C272.543 642.267 272.147 642.683 271.857 643.224C271.577 643.765 271.437 644.395 271.437 645.114C271.437 645.833 271.577 646.467 271.857 647.018C272.147 647.559 272.543 647.979 273.047 648.278C273.551 648.567 274.125 648.712 274.769 648.712ZM289.304 650H287.708L282.906 642.734V650H281.31V640.256H282.906L287.708 647.508V640.256H289.304V650Z" fill="white"/>
<path d="M114.562 694.666C113.591 694.181 113.106 693.415 113.106 692.37C113.106 691.866 113.232 691.404 113.484 690.984C113.736 690.564 114.114 690.233 114.618 689.99C115.122 689.738 115.738 689.612 116.466 689.612C117.185 689.612 117.796 689.738 118.3 689.99C118.813 690.233 119.196 690.564 119.448 690.984C119.7 691.404 119.826 691.866 119.826 692.37C119.826 692.893 119.691 693.355 119.42 693.756C119.159 694.148 118.809 694.451 118.37 694.666C118.902 694.862 119.322 695.184 119.63 695.632C119.938 696.071 120.092 696.589 120.092 697.186C120.092 697.793 119.938 698.329 119.63 698.796C119.322 699.263 118.893 699.622 118.342 699.874C117.791 700.126 117.166 700.252 116.466 700.252C115.766 700.252 115.141 700.126 114.59 699.874C114.049 699.622 113.624 699.263 113.316 698.796C113.008 698.329 112.854 697.793 112.854 697.186C112.854 696.579 113.008 696.057 113.316 695.618C113.624 695.179 114.039 694.862 114.562 694.666ZM118.3 692.566C118.3 692.043 118.137 691.642 117.81 691.362C117.483 691.082 117.035 690.942 116.466 690.942C115.906 690.942 115.463 691.082 115.136 691.362C114.809 691.642 114.646 692.048 114.646 692.58C114.646 693.047 114.814 693.429 115.15 693.728C115.495 694.017 115.934 694.162 116.466 694.162C116.998 694.162 117.437 694.013 117.782 693.714C118.127 693.415 118.3 693.033 118.3 692.566ZM116.466 695.366C115.85 695.366 115.346 695.52 114.954 695.828C114.571 696.127 114.38 696.561 114.38 697.13C114.38 697.662 114.567 698.096 114.94 698.432C115.313 698.759 115.822 698.922 116.466 698.922C117.101 698.922 117.6 698.754 117.964 698.418C118.337 698.082 118.524 697.653 118.524 697.13C118.524 696.57 118.333 696.136 117.95 695.828C117.577 695.52 117.082 695.366 116.466 695.366ZM122.622 700.098C122.332 700.098 122.09 700 121.894 699.804C121.698 699.608 121.6 699.365 121.6 699.076C121.6 698.787 121.698 698.544 121.894 698.348C122.09 698.152 122.332 698.054 122.622 698.054C122.902 698.054 123.14 698.152 123.336 698.348C123.532 698.544 123.63 698.787 123.63 699.076C123.63 699.365 123.532 699.608 123.336 699.804C123.14 700 122.902 700.098 122.622 700.098ZM125.117 692.314C125.173 691.446 125.504 690.769 126.111 690.284C126.727 689.799 127.511 689.556 128.463 689.556C129.116 689.556 129.681 689.673 130.157 689.906C130.633 690.139 130.992 690.457 131.235 690.858C131.477 691.259 131.599 691.712 131.599 692.216C131.599 692.795 131.445 693.289 131.137 693.7C130.829 694.111 130.46 694.386 130.031 694.526V694.582C130.581 694.75 131.011 695.058 131.319 695.506C131.627 695.945 131.781 696.509 131.781 697.2C131.781 697.751 131.655 698.241 131.403 698.67C131.151 699.099 130.777 699.44 130.283 699.692C129.788 699.935 129.195 700.056 128.505 700.056C127.497 700.056 126.666 699.799 126.013 699.286C125.369 698.763 125.023 698.017 124.977 697.046H126.517C126.554 697.541 126.745 697.947 127.091 698.264C127.436 698.572 127.903 698.726 128.491 698.726C129.06 698.726 129.499 698.572 129.807 698.264C130.115 697.947 130.269 697.541 130.269 697.046C130.269 696.393 130.059 695.931 129.639 695.66C129.228 695.38 128.593 695.24 127.735 695.24H127.371V693.924H127.749C128.505 693.915 129.079 693.789 129.471 693.546C129.872 693.303 130.073 692.921 130.073 692.398C130.073 691.95 129.928 691.595 129.639 691.334C129.349 691.063 128.939 690.928 128.407 690.928C127.884 690.928 127.478 691.063 127.189 691.334C126.899 691.595 126.727 691.922 126.671 692.314H125.117ZM133.429 692.314C133.485 691.446 133.817 690.769 134.423 690.284C135.039 689.799 135.823 689.556 136.775 689.556C137.429 689.556 137.993 689.673 138.469 689.906C138.945 690.139 139.305 690.457 139.547 690.858C139.79 691.259 139.911 691.712 139.911 692.216C139.911 692.795 139.757 693.289 139.449 693.7C139.141 694.111 138.773 694.386 138.343 694.526V694.582C138.894 694.75 139.323 695.058 139.631 695.506C139.939 695.945 140.093 696.509 140.093 697.2C140.093 697.751 139.967 698.241 139.715 698.67C139.463 699.099 139.09 699.44 138.595 699.692C138.101 699.935 137.508 700.056 136.817 700.056C135.809 700.056 134.979 699.799 134.325 699.286C133.681 698.763 133.336 698.017 133.289 697.046H134.829C134.867 697.541 135.058 697.947 135.403 698.264C135.749 698.572 136.215 698.726 136.803 698.726C137.373 698.726 137.811 698.572 138.119 698.264C138.427 697.947 138.581 697.541 138.581 697.046C138.581 696.393 138.371 695.931 137.951 695.66C137.541 695.38 136.906 695.24 136.047 695.24H135.683V693.924H136.061C136.817 693.915 137.391 693.789 137.783 693.546C138.185 693.303 138.385 692.921 138.385 692.398C138.385 691.95 138.241 691.595 137.951 691.334C137.662 691.063 137.251 690.928 136.719 690.928C136.197 690.928 135.791 691.063 135.501 691.334C135.212 691.595 135.039 691.922 134.983 692.314H133.429ZM141.518 692.258C141.518 691.577 141.714 691.045 142.106 690.662C142.507 690.27 143.02 690.074 143.646 690.074C144.271 690.074 144.78 690.27 145.172 690.662C145.573 691.045 145.774 691.577 145.774 692.258C145.774 692.939 145.573 693.476 145.172 693.868C144.78 694.26 144.271 694.456 143.646 694.456C143.02 694.456 142.507 694.26 142.106 693.868C141.714 693.476 141.518 692.939 141.518 692.258ZM150.058 690.256L144.472 700H142.904L148.49 690.256H150.058ZM143.646 691.04C143.058 691.04 142.764 691.446 142.764 692.258C142.764 693.079 143.058 693.49 143.646 693.49C143.926 693.49 144.14 693.392 144.29 693.196C144.448 692.991 144.528 692.678 144.528 692.258C144.528 691.446 144.234 691.04 143.646 691.04ZM147.216 697.984C147.216 697.303 147.412 696.771 147.804 696.388C148.205 695.996 148.718 695.8 149.344 695.8C149.96 695.8 150.464 695.996 150.856 696.388C151.257 696.771 151.458 697.303 151.458 697.984C151.458 698.665 151.257 699.202 150.856 699.594C150.464 699.986 149.96 700.182 149.344 700.182C148.718 700.182 148.205 699.986 147.804 699.594C147.412 699.202 147.216 698.665 147.216 697.984ZM149.33 696.766C148.742 696.766 148.448 697.172 148.448 697.984C148.448 698.796 148.742 699.202 149.33 699.202C149.918 699.202 150.212 698.796 150.212 697.984C150.212 697.172 149.918 696.766 149.33 696.766ZM156.2 695.114C156.2 694.162 156.419 693.308 156.858 692.552C157.306 691.796 157.908 691.208 158.664 690.788C159.429 690.359 160.264 690.144 161.17 690.144C162.206 690.144 163.125 690.401 163.928 690.914C164.74 691.418 165.328 692.137 165.692 693.07H163.774C163.522 692.557 163.172 692.174 162.724 691.922C162.276 691.67 161.758 691.544 161.17 691.544C160.526 691.544 159.952 691.689 159.448 691.978C158.944 692.267 158.547 692.683 158.258 693.224C157.978 693.765 157.838 694.395 157.838 695.114C157.838 695.833 157.978 696.463 158.258 697.004C158.547 697.545 158.944 697.965 159.448 698.264C159.952 698.553 160.526 698.698 161.17 698.698C161.758 698.698 162.276 698.572 162.724 698.32C163.172 698.068 163.522 697.685 163.774 697.172H165.692C165.328 698.105 164.74 698.824 163.928 699.328C163.125 699.832 162.206 700.084 161.17 700.084C160.255 700.084 159.42 699.874 158.664 699.454C157.908 699.025 157.306 698.432 156.858 697.676C156.419 696.92 156.2 696.066 156.2 695.114ZM175.33 690.27V700H173.734V695.744H169.156V700H167.56V690.27H169.156V694.442H173.734V690.27H175.33ZM183.297 698.012H179.223L178.523 700H176.857L180.343 690.256H182.191L185.677 700H183.997L183.297 698.012ZM182.849 696.71L181.267 692.188L179.671 696.71H182.849ZM192.247 700L190.007 696.108H188.789V700H187.193V690.27H190.553C191.299 690.27 191.929 690.401 192.443 690.662C192.965 690.923 193.353 691.273 193.605 691.712C193.866 692.151 193.997 692.641 193.997 693.182C193.997 693.817 193.81 694.395 193.437 694.918C193.073 695.431 192.508 695.781 191.743 695.968L194.151 700H192.247ZM188.789 694.834H190.553C191.15 694.834 191.598 694.685 191.897 694.386C192.205 694.087 192.359 693.686 192.359 693.182C192.359 692.678 192.209 692.286 191.911 692.006C191.612 691.717 191.159 691.572 190.553 691.572H188.789V694.834ZM197.634 690.27V700H196.038V690.27H197.634ZM206.016 690.27V691.572H203.426V700H201.83V691.572H199.226V690.27H206.016ZM214.842 690.27L211.622 696.472V700H210.026V696.472L206.792 690.27H208.57L210.824 695.044L213.078 690.27H214.842Z" fill="white"/>
</svg>
