<svg width="630" height="130" viewBox="0 0 630 130" fill="none" xmlns="http://www.w3.org/2000/svg">
<path opacity="0.1" d="M60.824 106.672C54.488 106.672 48.664 105.2 43.352 102.256C38.04 99.248 33.816 95.12 30.68 89.872C27.608 84.56 26.072 78.576 26.072 71.92C26.072 65.264 27.608 59.312 30.68 54.064C33.816 48.752 38.04 44.624 43.352 41.68C48.664 38.736 54.488 37.264 60.824 37.264C67.224 37.264 73.048 38.736 78.296 41.68C83.608 44.624 87.8 48.752 90.872 54.064C93.944 59.312 95.48 65.264 95.48 71.92C95.48 78.576 93.944 84.56 90.872 89.872C87.8 95.12 83.608 99.248 78.296 102.256C72.984 105.2 67.16 106.672 60.824 106.672ZM60.824 89.2C65.624 89.2 69.4 87.632 72.152 84.496C74.968 81.36 76.376 77.168 76.376 71.92C76.376 66.544 74.968 62.32 72.152 59.248C69.4 56.112 65.624 54.544 60.824 54.544C55.96 54.544 52.152 56.112 49.4 59.248C46.648 62.32 45.272 66.544 45.272 71.92C45.272 77.232 46.648 81.456 49.4 84.592C52.152 87.664 55.96 89.2 60.824 89.2ZM178.435 38.32L155.107 106H131.011L107.586 38.32H127.747L143.107 87.184L158.371 38.32H178.435ZM211.753 53.392V64.432H233.353V78.736H211.753V90.928H236.233V106H192.937V38.32H236.233V53.392H211.753ZM288.443 106L275.003 81.04H272.987V106H254.171V38.32H283.835C289.275 38.32 293.883 39.28 297.659 41.2C301.435 43.056 304.283 45.648 306.203 48.976C308.123 52.24 309.083 55.92 309.083 60.016C309.083 64.624 307.803 68.688 305.243 72.208C302.747 75.664 299.067 78.128 294.203 79.6L309.467 106H288.443ZM272.987 68.176H282.299C284.859 68.176 286.779 67.568 288.059 66.352C289.339 65.136 289.979 63.376 289.979 61.072C289.979 58.896 289.307 57.2 287.963 55.984C286.683 54.704 284.795 54.064 282.299 54.064H272.987V68.176ZM392.136 38.32L368.808 106H344.712L321.288 38.32H341.448L356.808 87.184L372.072 38.32H392.136ZM425.455 38.32V106H406.639V38.32H425.455ZM463.626 53.392V64.432H485.226V78.736H463.626V90.928H488.106V106H444.81V38.32H488.106V53.392H463.626ZM601.372 38.32L584.764 106H561.628L552.316 64.528L542.812 106H519.676L503.26 38.32H523.612L531.484 84.592L542.14 38.32H562.78L573.148 84.208L581.02 38.32H601.372Z" fill="#620C0B"/>
<path d="M52.072 87.872L45.052 113H39.112L34.396 95.108L29.464 113L23.56 113.036L16.792 87.872H22.192L26.62 107.384L31.732 87.872H37.348L42.172 107.276L46.636 87.872H52.072ZM76.2069 87.872V113H71.1669V102.308H60.4029V113H55.3629V87.872H60.4029V98.204H71.1669V87.872H76.2069ZM96.5756 108.212H86.5676L84.9116 113H79.6196L88.6556 87.836H94.5236L103.56 113H98.2316L96.5756 108.212ZM95.2076 104.18L91.5716 93.668L87.9356 104.18H95.2076ZM124.037 87.872V91.94H117.341V113H112.301V91.94H105.605V87.872H124.037ZM141.333 87.872V113H136.293V87.872H141.333ZM154.988 113.252C153.236 113.252 151.652 112.952 150.236 112.352C148.844 111.752 147.74 110.888 146.924 109.76C146.108 108.632 145.688 107.3 145.664 105.764H151.064C151.136 106.796 151.496 107.612 152.144 108.212C152.816 108.812 153.728 109.112 154.88 109.112C156.056 109.112 156.98 108.836 157.652 108.284C158.324 107.708 158.66 106.964 158.66 106.052C158.66 105.308 158.432 104.696 157.976 104.216C157.52 103.736 156.944 103.364 156.248 103.1C155.576 102.812 154.64 102.5 153.44 102.164C151.808 101.684 150.476 101.216 149.444 100.76C148.436 100.28 147.56 99.572 146.816 98.636C146.096 97.676 145.736 96.404 145.736 94.82C145.736 93.332 146.108 92.036 146.852 90.932C147.596 89.828 148.64 88.988 149.984 88.412C151.328 87.812 152.864 87.512 154.592 87.512C157.184 87.512 159.284 88.148 160.892 89.42C162.524 90.668 163.424 92.42 163.592 94.676H158.048C158 93.812 157.628 93.104 156.932 92.552C156.26 91.976 155.36 91.688 154.232 91.688C153.248 91.688 152.456 91.94 151.856 92.444C151.28 92.948 150.992 93.68 150.992 94.64C150.992 95.312 151.208 95.876 151.64 96.332C152.096 96.764 152.648 97.124 153.296 97.412C153.968 97.676 154.904 97.988 156.104 98.348C157.736 98.828 159.068 99.308 160.1 99.788C161.132 100.268 162.02 100.988 162.764 101.948C163.508 102.908 163.88 104.168 163.88 105.728C163.88 107.072 163.532 108.32 162.836 109.472C162.14 110.624 161.12 111.548 159.776 112.244C158.432 112.916 156.836 113.252 154.988 113.252ZM181.796 87.872V103.424C181.796 105.128 182.24 106.436 183.128 107.348C184.016 108.236 185.264 108.68 186.872 108.68C188.504 108.68 189.764 108.236 190.652 107.348C191.54 106.436 191.984 105.128 191.984 103.424V87.872H197.06V103.388C197.06 105.524 196.592 107.336 195.656 108.824C194.744 110.288 193.508 111.392 191.948 112.136C190.412 112.88 188.696 113.252 186.8 113.252C184.928 113.252 183.224 112.88 181.688 112.136C180.176 111.392 178.976 110.288 178.088 108.824C177.2 107.336 176.756 105.524 176.756 103.388V87.872H181.796ZM216.185 100.112C217.601 100.376 218.765 101.084 219.677 102.236C220.589 103.388 221.045 104.708 221.045 106.196C221.045 107.54 220.709 108.728 220.037 109.76C219.389 110.768 218.441 111.56 217.193 112.136C215.945 112.712 214.469 113 212.765 113H201.929V87.872H212.297C214.001 87.872 215.465 88.148 216.689 88.7C217.937 89.252 218.873 90.02 219.497 91.004C220.145 91.988 220.469 93.104 220.469 94.352C220.469 95.816 220.073 97.04 219.281 98.024C218.513 99.008 217.481 99.704 216.185 100.112ZM206.969 98.24H211.577C212.777 98.24 213.701 97.976 214.349 97.448C214.997 96.896 215.321 96.116 215.321 95.108C215.321 94.1 214.997 93.32 214.349 92.768C213.701 92.216 212.777 91.94 211.577 91.94H206.969V98.24ZM212.045 108.896C213.269 108.896 214.217 108.608 214.889 108.032C215.585 107.456 215.933 106.64 215.933 105.584C215.933 104.504 215.573 103.664 214.853 103.064C214.133 102.44 213.161 102.128 211.937 102.128H206.969V108.896H212.045ZM230.03 87.872V103.424C230.03 105.128 230.474 106.436 231.362 107.348C232.25 108.236 233.498 108.68 235.106 108.68C236.738 108.68 237.998 108.236 238.886 107.348C239.774 106.436 240.218 105.128 240.218 103.424V87.872H245.294V103.388C245.294 105.524 244.826 107.336 243.89 108.824C242.978 110.288 241.742 111.392 240.182 112.136C238.646 112.88 236.93 113.252 235.034 113.252C233.162 113.252 231.458 112.88 229.922 112.136C228.41 111.392 227.21 110.288 226.322 108.824C225.434 107.336 224.99 105.524 224.99 103.388V87.872H230.03ZM271.656 113H266.616L255.204 95.756V113H250.164V87.836H255.204L266.616 105.116V87.836H271.656V113ZM293.736 87.872V91.94H287.04V113H282V91.94H275.304V87.872H293.736ZM302.382 87.872V103.424C302.382 105.128 302.826 106.436 303.714 107.348C304.602 108.236 305.85 108.68 307.458 108.68C309.09 108.68 310.35 108.236 311.238 107.348C312.126 106.436 312.57 105.128 312.57 103.424V87.872H317.646V103.388C317.646 105.524 317.178 107.336 316.242 108.824C315.33 110.288 314.094 111.392 312.534 112.136C310.998 112.88 309.282 113.252 307.386 113.252C305.514 113.252 303.81 112.88 302.274 112.136C300.762 111.392 299.562 110.288 298.674 108.824C297.786 107.336 297.342 105.524 297.342 103.388V87.872H302.382ZM339.877 87.872C342.517 87.872 344.833 88.388 346.825 89.42C348.841 90.452 350.389 91.928 351.469 93.848C352.573 95.744 353.125 97.952 353.125 100.472C353.125 102.992 352.573 105.2 351.469 107.096C350.389 108.968 348.841 110.42 346.825 111.452C344.833 112.484 342.517 113 339.877 113H331.093V87.872H339.877ZM339.697 108.716C342.337 108.716 344.377 107.996 345.817 106.556C347.257 105.116 347.977 103.088 347.977 100.472C347.977 97.856 347.257 95.816 345.817 94.352C344.377 92.864 342.337 92.12 339.697 92.12H336.133V108.716H339.697ZM372.306 108.212H362.298L360.642 113H355.35L364.386 87.836H370.254L379.29 113H373.962L372.306 108.212ZM370.938 104.18L367.302 93.668L363.666 104.18H370.938ZM394.332 113.252C391.98 113.252 389.82 112.7 387.852 111.596C385.884 110.492 384.324 108.968 383.172 107.024C382.02 105.056 381.444 102.836 381.444 100.364C381.444 97.916 382.02 95.72 383.172 93.776C384.324 91.808 385.884 90.272 387.852 89.168C389.82 88.064 391.98 87.512 394.332 87.512C396.708 87.512 398.868 88.064 400.812 89.168C402.78 90.272 404.328 91.808 405.456 93.776C406.608 95.72 407.184 97.916 407.184 100.364C407.184 102.836 406.608 105.056 405.456 107.024C404.328 108.968 402.78 110.492 400.812 111.596C398.844 112.7 396.684 113.252 394.332 113.252ZM394.332 108.752C395.844 108.752 397.176 108.416 398.328 107.744C399.48 107.048 400.38 106.064 401.028 104.792C401.676 103.52 402 102.044 402 100.364C402 98.684 401.676 97.22 401.028 95.972C400.38 94.7 399.48 93.728 398.328 93.056C397.176 92.384 395.844 92.048 394.332 92.048C392.82 92.048 391.476 92.384 390.3 93.056C389.148 93.728 388.248 94.7 387.6 95.972C386.952 97.22 386.628 98.684 386.628 100.364C386.628 102.044 386.952 103.52 387.6 104.792C388.248 106.064 389.148 107.048 390.3 107.744C391.476 108.416 392.82 108.752 394.332 108.752ZM417.953 87.008C420.449 87.008 422.453 87.692 423.965 89.06C425.501 90.404 426.269 92.264 426.269 94.64C426.269 96.992 425.513 98.792 424.001 100.04C422.489 101.264 420.485 101.876 417.989 101.876L417.845 104.648H413.417L413.237 98.528H414.857C416.945 98.528 418.553 98.252 419.681 97.7C420.809 97.148 421.373 96.14 421.373 94.676C421.373 93.62 421.061 92.78 420.437 92.156C419.837 91.532 419.009 91.22 417.953 91.22C416.849 91.22 415.985 91.52 415.361 92.12C414.761 92.72 414.461 93.548 414.461 94.604H409.709C409.685 93.14 409.997 91.832 410.645 90.68C411.293 89.528 412.241 88.628 413.489 87.98C414.761 87.332 416.249 87.008 417.953 87.008ZM415.613 113.252C414.701 113.252 413.945 112.976 413.345 112.424C412.769 111.848 412.481 111.14 412.481 110.3C412.481 109.46 412.769 108.764 413.345 108.212C413.945 107.636 414.701 107.348 415.613 107.348C416.501 107.348 417.233 107.636 417.809 108.212C418.385 108.764 418.673 109.46 418.673 110.3C418.673 111.14 418.385 111.848 417.809 112.424C417.233 112.976 416.501 113.252 415.613 113.252Z" fill="#352C2C"/>
</svg>
