<svg width="30" height="30" viewBox="0 0 30 30" fill="none" xmlns="http://www.w3.org/2000/svg">
<path fill-rule="evenodd" clip-rule="evenodd" d="M30 15C30 23.2838 23.2838 30 15 30C6.71625 30 0 23.2838 0 15C0 6.71625 6.71625 0 15 0C23.2838 0 30 6.71625 30 15ZM24.61 13.8225C24.8525 14.1687 24.99 14.5775 25.005 15C25.0115 15.4133 24.9009 15.8201 24.6859 16.1731C24.4709 16.5262 24.1602 16.8111 23.79 16.995C23.8075 17.215 23.8075 17.435 23.79 17.655C23.79 21.015 19.875 23.745 15.045 23.745C10.215 23.745 6.3 21.015 6.3 17.655C6.28311 17.4353 6.28311 17.2147 6.3 16.995C6.01396 16.8611 5.76032 16.6669 5.55649 16.4256C5.35266 16.1844 5.20348 15.9018 5.11922 15.5975C5.03495 15.2931 5.01759 14.9741 5.06834 14.6624C5.11908 14.3506 5.23672 14.0536 5.41317 13.7917C5.58962 13.5297 5.82069 13.3091 6.09051 13.145C6.36033 12.9808 6.66249 12.8771 6.97623 12.8408C7.28996 12.8045 7.60783 12.8366 7.90798 12.9349C8.20813 13.0331 8.48345 13.1952 8.715 13.41C10.4434 12.2378 12.4768 11.5965 14.565 11.565L15.675 6.36C15.6875 6.29974 15.7118 6.24256 15.7465 6.19176C15.7812 6.14097 15.8257 6.09757 15.8773 6.06408C15.9289 6.0306 15.9867 6.00769 16.0472 5.99669C16.1078 5.98569 16.1699 5.98681 16.23 6L19.905 6.735C20.0845 6.42666 20.368 6.19238 20.7046 6.07422C21.0412 5.95606 21.409 5.96175 21.7418 6.09028C22.0746 6.21881 22.3507 6.46175 22.5205 6.77551C22.6904 7.08926 22.7428 7.45328 22.6684 7.80221C22.5941 8.15114 22.3978 8.46215 22.1148 8.6794C21.8318 8.89664 21.4806 9.00591 21.1243 8.98758C20.768 8.96925 20.4299 8.82452 20.1707 8.57938C19.9115 8.33423 19.7482 8.00472 19.71 7.65L16.5 6.975L15.525 11.655C17.5878 11.6993 19.5936 12.3401 21.3 13.5C21.5278 13.281 21.8003 13.1139 22.0988 13.0102C22.3973 12.9065 22.7147 12.8687 23.0292 12.8993C23.3437 12.93 23.6479 13.0284 23.9208 13.1877C24.1936 13.3471 24.4288 13.5636 24.61 13.8225ZM10.2575 15.6663C10.148 15.8301 10.0719 16.0139 10.0334 16.2071C9.99494 16.4004 9.99491 16.5993 10.0333 16.7926C10.1109 17.1829 10.3404 17.5264 10.6712 17.7475C11.0021 17.9686 11.4073 18.0493 11.7976 17.9717C11.9908 17.9332 12.1746 17.8571 12.3385 17.7477C12.5023 17.6382 12.643 17.4976 12.7525 17.3337C12.9736 17.0029 13.0543 16.5977 12.9767 16.2074C12.8991 15.8171 12.6696 15.4736 12.3388 15.2525C12.0079 15.0314 11.6027 14.9507 11.2124 15.0283C10.8221 15.1059 10.4786 15.3354 10.2575 15.6663ZM15.015 21.78C16.3463 21.835 17.6562 21.4875 18.72 20.685C18.7996 20.6074 18.8451 20.5014 18.8465 20.3903C18.8479 20.2792 18.8051 20.1721 18.7275 20.0925C18.6891 20.0531 18.6433 20.0217 18.5927 20C18.5422 19.9783 18.4878 19.9667 18.4328 19.966C18.3217 19.9646 18.2146 20.0074 18.135 20.085C17.2247 20.738 16.1187 21.0608 15 21C13.8827 21.0499 12.7818 20.7165 11.88 20.055C11.8023 19.9912 11.7036 19.9586 11.6032 19.9636C11.5028 19.9685 11.4078 20.0106 11.3367 20.0817C11.2656 20.1528 11.2235 20.2478 11.2185 20.3482C11.2136 20.4486 11.2462 20.5473 11.31 20.625C12.3742 21.427 13.6836 21.8352 15.015 21.78ZM17.6163 17.8075C17.8638 17.9725 18.1388 18.12 18.435 18.12C18.6384 18.1224 18.8402 18.0833 19.0281 18.0052C19.216 17.927 19.3859 17.8115 19.5277 17.6655C19.6694 17.5196 19.78 17.3463 19.8526 17.1562C19.9252 16.9661 19.9583 16.7633 19.95 16.56C19.9499 16.3009 19.8827 16.0462 19.7549 15.8208C19.6271 15.5954 19.4432 15.407 19.2209 15.2738C18.9986 15.1407 18.7457 15.0673 18.4866 15.061C18.2276 15.0547 17.9714 15.1156 17.7429 15.2377C17.5144 15.3598 17.3214 15.5391 17.1828 15.758C17.0441 15.9769 16.9646 16.228 16.9518 16.4867C16.9391 16.7455 16.9936 17.0032 17.11 17.2347C17.2264 17.4661 17.4009 17.6635 17.6163 17.8075Z" fill="white"/>
</svg>
