<svg width="1139" height="664" viewBox="0 0 1139 664" fill="none" xmlns="http://www.w3.org/2000/svg">
<path d="M60 309C60 439.891 166.109 546 297 546C427.891 546 534 439.891 534 309C534 178.109 427.891 72 297 72C166.109 72 60 178.109 60 309ZM428.124 309C428.124 381.418 369.418 440.124 297 440.124C224.582 440.124 165.876 381.418 165.876 309C165.876 236.582 224.582 177.876 297 177.876C369.418 177.876 428.124 236.582 428.124 309Z" fill="#CE6828"/>
<path d="M60 309C60 367.158 81.3846 423.287 120.084 466.701C158.782 510.115 212.094 537.784 269.87 544.442C327.646 551.1 385.853 536.281 433.412 502.806C480.971 469.331 514.561 419.538 527.789 362.904C541.016 306.269 532.958 246.748 505.147 195.67C477.337 144.592 431.716 105.523 376.968 85.899C322.221 66.2752 262.169 67.467 208.243 89.2476C154.317 111.028 110.282 151.877 84.5198 204.018L180.103 251.244C194.276 222.558 218.502 200.085 248.17 188.102C277.837 176.12 310.875 175.464 340.995 186.26C371.115 197.056 396.213 218.55 411.513 246.651C426.813 274.752 431.247 307.498 423.969 338.655C416.692 369.813 398.212 397.207 372.048 415.623C345.883 434.04 313.86 442.192 282.074 438.53C250.288 434.867 220.959 419.644 199.669 395.76C178.378 371.875 166.613 340.996 166.613 309H60Z" fill="#FFD764"/>
<path d="M60 309C60 360.253 76.6147 410.124 107.353 451.137C138.091 492.149 181.295 522.092 230.488 536.476C279.681 550.859 332.211 548.908 380.202 530.915C428.193 512.922 469.057 479.857 496.668 436.678C524.279 393.498 537.149 342.531 533.347 291.42C529.545 240.308 509.277 191.807 475.582 153.187C441.886 114.568 396.579 87.9123 346.455 77.2173C296.331 66.5224 244.09 72.3645 197.566 93.8677L242.498 191.08C267.998 179.294 296.633 176.091 324.108 181.953C351.582 187.816 376.416 202.426 394.886 223.595C413.355 244.763 424.465 271.348 426.548 299.364C428.632 327.38 421.578 355.316 406.444 378.984C391.309 402.652 368.91 420.776 342.605 430.638C316.3 440.5 287.507 441.57 260.543 433.686C233.579 425.802 209.897 409.389 193.049 386.909C176.201 364.429 167.094 337.093 167.094 309H60Z" fill="#9E2224"/>
<path d="M60 309C60 352.634 72.0462 395.422 94.8112 432.647C117.576 469.873 150.176 500.091 189.018 519.971C227.861 539.852 271.438 548.624 314.947 545.32C358.456 542.015 400.208 526.764 435.603 501.245C470.998 475.727 498.66 440.932 515.543 400.696C532.425 360.46 537.871 316.344 531.282 273.21C524.693 230.075 506.323 189.598 478.197 156.237C450.072 122.877 413.283 97.9282 371.883 84.1412L338.125 185.512C360.86 193.083 381.064 206.784 396.51 225.105C411.956 243.426 422.045 265.656 425.663 289.345C429.282 313.033 426.291 337.261 417.02 359.358C407.748 381.455 392.556 400.563 373.118 414.578C353.68 428.592 330.751 436.968 306.856 438.782C282.962 440.597 259.03 435.78 237.698 424.862C216.367 413.944 198.464 397.348 185.962 376.905C173.459 356.461 166.844 332.963 166.844 309H60Z" fill="#D7A933"/>
<path d="M60 309C60 344.054 67.7758 378.671 82.767 410.357C97.7583 442.043 119.592 470.009 146.694 492.241C173.796 514.472 205.493 530.414 239.499 538.919C273.505 547.423 308.974 548.279 343.351 541.423C377.728 534.568 410.156 520.172 438.298 499.273C466.441 478.374 489.597 451.493 506.098 420.566C522.599 389.64 532.035 355.438 533.724 320.425C535.414 285.412 529.316 250.46 515.87 218.088L417.661 258.881C425.074 276.727 428.436 295.996 427.504 315.298C426.573 334.601 421.371 353.456 412.274 370.506C403.177 387.555 390.411 402.375 374.896 413.896C359.382 425.417 341.505 433.354 322.553 437.133C303.601 440.912 284.047 440.441 265.3 435.752C246.553 431.064 229.079 422.275 214.138 410.019C199.196 397.763 187.16 382.346 178.895 364.877C170.631 347.409 166.344 328.325 166.344 309H60Z" fill="#347B5D"/>
<path d="M60 309C60 358.432 75.4567 406.627 104.207 446.839C132.956 487.051 173.56 517.267 220.335 533.258C267.109 549.248 317.713 550.213 365.063 536.016C412.413 521.82 454.139 493.174 484.4 454.087L400.358 389.021C383.668 410.579 360.655 426.378 334.539 434.208C308.424 442.038 280.514 441.506 254.716 432.686C228.918 423.867 206.524 407.202 190.667 385.023C174.811 362.845 166.286 336.264 166.286 309H60Z" fill="#92804C"/>
<path d="M60 309C60 359.789 76.3158 409.235 106.543 450.05C136.77 490.865 179.309 520.89 227.89 535.7L258.979 433.719C232.252 425.571 208.849 409.053 192.22 386.598C175.591 364.144 166.614 336.942 166.614 309H60Z" fill="#88451B"/>
<circle cx="627" cy="101" r="20" fill="#88451B"/>
<circle cx="627" cy="172" r="20" fill="#92804C"/>
<circle cx="627" cy="243" r="20" fill="#347B5D"/>
<circle cx="627" cy="314" r="20" fill="#D7A933"/>
<circle cx="627" cy="385" r="20" fill="#9E2224"/>
<circle cx="627" cy="456" r="20" fill="#FFD764"/>
<circle cx="627" cy="527" r="20" fill="#CE6828"/>
<path d="M680.198 106.97C681.862 105.531 683.171 104.353 684.124 103.434C685.095 102.498 685.901 101.527 686.542 100.522C687.183 99.5167 687.504 98.5113 687.504 97.506C687.504 96.466 687.253 95.6513 686.75 95.062C686.265 94.4727 685.493 94.178 684.436 94.178C683.413 94.178 682.616 94.5073 682.044 95.166C681.489 95.8073 681.195 96.674 681.16 97.766H678.3C678.352 95.79 678.941 94.282 680.068 93.242C681.212 92.1847 682.659 91.656 684.41 91.656C686.299 91.656 687.773 92.176 688.83 93.216C689.905 94.256 690.442 95.6427 690.442 97.376C690.442 98.624 690.121 99.8287 689.48 100.99C688.856 102.134 688.102 103.165 687.218 104.084C686.351 104.985 685.242 106.034 683.89 107.23L682.72 108.27H690.962V110.74H678.326V108.582L680.198 106.97ZM693.566 101.276C693.566 98.2773 694.069 95.9373 695.074 94.256C696.097 92.5573 697.847 91.708 700.326 91.708C702.805 91.708 704.547 92.5573 705.552 94.256C706.575 95.9373 707.086 98.2773 707.086 101.276C707.086 104.309 706.575 106.684 705.552 108.4C704.547 110.099 702.805 110.948 700.326 110.948C697.847 110.948 696.097 110.099 695.074 108.4C694.069 106.684 693.566 104.309 693.566 101.276ZM704.174 101.276C704.174 99.872 704.079 98.6847 703.888 97.714C703.715 96.7433 703.351 95.9547 702.796 95.348C702.241 94.724 701.418 94.412 700.326 94.412C699.234 94.412 698.411 94.724 697.856 95.348C697.301 95.9547 696.929 96.7433 696.738 97.714C696.565 98.6847 696.478 99.872 696.478 101.276C696.478 102.732 696.565 103.954 696.738 104.942C696.911 105.93 697.275 106.727 697.83 107.334C698.402 107.941 699.234 108.244 700.326 108.244C701.418 108.244 702.241 107.941 702.796 107.334C703.368 106.727 703.741 105.93 703.914 104.942C704.087 103.954 704.174 102.732 704.174 101.276ZM709.754 96.622C709.754 95.3567 710.118 94.3687 710.846 93.658C711.591 92.93 712.545 92.566 713.706 92.566C714.867 92.566 715.812 92.93 716.54 93.658C717.285 94.3687 717.658 95.3567 717.658 96.622C717.658 97.8873 717.285 98.884 716.54 99.612C715.812 100.34 714.867 100.704 713.706 100.704C712.545 100.704 711.591 100.34 710.846 99.612C710.118 98.884 709.754 97.8873 709.754 96.622ZM725.614 92.904L715.24 111H712.328L722.702 92.904H725.614ZM713.706 94.36C712.614 94.36 712.068 95.114 712.068 96.622C712.068 98.1473 712.614 98.91 713.706 98.91C714.226 98.91 714.625 98.728 714.902 98.364C715.197 97.9827 715.344 97.402 715.344 96.622C715.344 95.114 714.798 94.36 713.706 94.36ZM720.336 107.256C720.336 105.991 720.7 105.003 721.428 104.292C722.173 103.564 723.127 103.2 724.288 103.2C725.432 103.2 726.368 103.564 727.096 104.292C727.841 105.003 728.214 105.991 728.214 107.256C728.214 108.521 727.841 109.518 727.096 110.246C726.368 110.974 725.432 111.338 724.288 111.338C723.127 111.338 722.173 110.974 721.428 110.246C720.7 109.518 720.336 108.521 720.336 107.256ZM724.262 104.994C723.17 104.994 722.624 105.748 722.624 107.256C722.624 108.764 723.17 109.518 724.262 109.518C725.354 109.518 725.9 108.764 725.9 107.256C725.9 105.748 725.354 104.994 724.262 104.994ZM740.973 108.608H747.083V111H738.009V92.93H740.973V108.608ZM752.525 92.93V111H749.561V92.93H752.525ZM770.405 114.276L767.233 110.844C766.453 111.069 765.595 111.182 764.659 111.182C762.977 111.182 761.426 110.792 760.005 110.012C758.601 109.215 757.483 108.114 756.651 106.71C755.836 105.289 755.429 103.694 755.429 101.926C755.429 100.158 755.836 98.572 756.651 97.168C757.483 95.764 758.601 94.672 760.005 93.892C761.426 93.0947 762.977 92.696 764.659 92.696C766.357 92.696 767.909 93.0947 769.313 93.892C770.734 94.672 771.852 95.764 772.667 97.168C773.481 98.572 773.889 100.158 773.889 101.926C773.889 103.59 773.525 105.098 772.797 106.45C772.086 107.785 771.098 108.859 769.833 109.674L774.175 114.276H770.405ZM758.471 101.926C758.471 103.261 758.731 104.439 759.251 105.462C759.788 106.467 760.525 107.247 761.461 107.802C762.397 108.339 763.463 108.608 764.659 108.608C765.855 108.608 766.921 108.339 767.857 107.802C768.793 107.247 769.521 106.467 770.041 105.462C770.578 104.439 770.847 103.261 770.847 101.926C770.847 100.591 770.578 99.4213 770.041 98.416C769.521 97.4107 768.793 96.6393 767.857 96.102C766.921 95.5647 765.855 95.296 764.659 95.296C763.463 95.296 762.397 95.5647 761.461 96.102C760.525 96.6393 759.788 97.4107 759.251 98.416C758.731 99.4213 758.471 100.591 758.471 101.926ZM779.82 92.93V104.448C779.82 105.817 780.175 106.849 780.886 107.542C781.614 108.235 782.619 108.582 783.902 108.582C785.202 108.582 786.207 108.235 786.918 107.542C787.646 106.849 788.01 105.817 788.01 104.448V92.93H790.974V104.396C790.974 105.869 790.653 107.117 790.012 108.14C789.37 109.163 788.512 109.925 787.438 110.428C786.363 110.931 785.176 111.182 783.876 111.182C782.576 111.182 781.388 110.931 780.314 110.428C779.256 109.925 778.416 109.163 777.792 108.14C777.168 107.117 776.856 105.869 776.856 104.396V92.93H779.82ZM797.797 92.93V111H794.833V92.93H797.797ZM807.59 92.93C809.514 92.93 811.196 93.3027 812.634 94.048C814.09 94.776 815.208 95.8333 815.988 97.22C816.786 98.5893 817.184 100.193 817.184 102.03C817.184 103.867 816.786 105.462 815.988 106.814C815.208 108.166 814.09 109.206 812.634 109.934C811.196 110.645 809.514 111 807.59 111H801.688V92.93H807.59ZM807.59 108.582C809.705 108.582 811.326 108.01 812.452 106.866C813.579 105.722 814.142 104.11 814.142 102.03C814.142 99.9327 813.579 98.2947 812.452 97.116C811.326 95.9373 809.705 95.348 807.59 95.348H804.652V108.582H807.59ZM823.086 92.93V111H820.122V92.93H823.086ZM838.651 92.93V95.348H833.841V111H830.877V95.348H826.041V92.93H838.651ZM855.043 92.93L849.063 104.448V111H846.099V104.448L840.093 92.93H843.395L847.581 101.796L851.767 92.93H855.043Z" fill="white"/>
<path d="M680.198 177.97C681.862 176.531 683.171 175.353 684.124 174.434C685.095 173.498 685.901 172.527 686.542 171.522C687.183 170.517 687.504 169.511 687.504 168.506C687.504 167.466 687.253 166.651 686.75 166.062C686.265 165.473 685.493 165.178 684.436 165.178C683.413 165.178 682.616 165.507 682.044 166.166C681.489 166.807 681.195 167.674 681.16 168.766H678.3C678.352 166.79 678.941 165.282 680.068 164.242C681.212 163.185 682.659 162.656 684.41 162.656C686.299 162.656 687.773 163.176 688.83 164.216C689.905 165.256 690.442 166.643 690.442 168.376C690.442 169.624 690.121 170.829 689.48 171.99C688.856 173.134 688.102 174.165 687.218 175.084C686.351 175.985 685.242 177.034 683.89 178.23L682.72 179.27H690.962V181.74H678.326V179.582L680.198 177.97ZM693.566 172.276C693.566 169.277 694.069 166.937 695.074 165.256C696.097 163.557 697.847 162.708 700.326 162.708C702.805 162.708 704.547 163.557 705.552 165.256C706.575 166.937 707.086 169.277 707.086 172.276C707.086 175.309 706.575 177.684 705.552 179.4C704.547 181.099 702.805 181.948 700.326 181.948C697.847 181.948 696.097 181.099 695.074 179.4C694.069 177.684 693.566 175.309 693.566 172.276ZM704.174 172.276C704.174 170.872 704.079 169.685 703.888 168.714C703.715 167.743 703.351 166.955 702.796 166.348C702.241 165.724 701.418 165.412 700.326 165.412C699.234 165.412 698.411 165.724 697.856 166.348C697.301 166.955 696.929 167.743 696.738 168.714C696.565 169.685 696.478 170.872 696.478 172.276C696.478 173.732 696.565 174.954 696.738 175.942C696.911 176.93 697.275 177.727 697.83 178.334C698.402 178.941 699.234 179.244 700.326 179.244C701.418 179.244 702.241 178.941 702.796 178.334C703.368 177.727 703.741 176.93 703.914 175.942C704.087 174.954 704.174 173.732 704.174 172.276ZM709.754 167.622C709.754 166.357 710.118 165.369 710.846 164.658C711.591 163.93 712.545 163.566 713.706 163.566C714.867 163.566 715.812 163.93 716.54 164.658C717.285 165.369 717.658 166.357 717.658 167.622C717.658 168.887 717.285 169.884 716.54 170.612C715.812 171.34 714.867 171.704 713.706 171.704C712.545 171.704 711.591 171.34 710.846 170.612C710.118 169.884 709.754 168.887 709.754 167.622ZM725.614 163.904L715.24 182H712.328L722.702 163.904H725.614ZM713.706 165.36C712.614 165.36 712.068 166.114 712.068 167.622C712.068 169.147 712.614 169.91 713.706 169.91C714.226 169.91 714.625 169.728 714.902 169.364C715.197 168.983 715.344 168.402 715.344 167.622C715.344 166.114 714.798 165.36 713.706 165.36ZM720.336 178.256C720.336 176.991 720.7 176.003 721.428 175.292C722.173 174.564 723.127 174.2 724.288 174.2C725.432 174.2 726.368 174.564 727.096 175.292C727.841 176.003 728.214 176.991 728.214 178.256C728.214 179.521 727.841 180.518 727.096 181.246C726.368 181.974 725.432 182.338 724.288 182.338C723.127 182.338 722.173 181.974 721.428 181.246C720.7 180.518 720.336 179.521 720.336 178.256ZM724.262 175.994C723.17 175.994 722.624 176.748 722.624 178.256C722.624 179.764 723.17 180.518 724.262 180.518C725.354 180.518 725.9 179.764 725.9 178.256C725.9 176.748 725.354 175.994 724.262 175.994ZM740.973 166.322V171.626H747.213V174.044H740.973V179.582H747.993V182H738.009V163.904H747.993V166.322H740.973ZM750.655 172.926C750.655 171.158 751.063 169.572 751.877 168.168C752.709 166.764 753.827 165.672 755.231 164.892C756.653 164.095 758.204 163.696 759.885 163.696C761.809 163.696 763.517 164.173 765.007 165.126C766.515 166.062 767.607 167.397 768.283 169.13H764.721C764.253 168.177 763.603 167.466 762.771 166.998C761.939 166.53 760.977 166.296 759.885 166.296C758.689 166.296 757.623 166.565 756.687 167.102C755.751 167.639 755.015 168.411 754.477 169.416C753.957 170.421 753.697 171.591 753.697 172.926C753.697 174.261 753.957 175.431 754.477 176.436C755.015 177.441 755.751 178.221 756.687 178.776C757.623 179.313 758.689 179.582 759.885 179.582C760.977 179.582 761.939 179.348 762.771 178.88C763.603 178.412 764.253 177.701 764.721 176.748H768.283C767.607 178.481 766.515 179.816 765.007 180.752C763.517 181.688 761.809 182.156 759.885 182.156C758.187 182.156 756.635 181.766 755.231 180.986C753.827 180.189 752.709 179.088 751.877 177.684C751.063 176.28 750.655 174.694 750.655 172.926ZM779.995 182.182C778.313 182.182 776.762 181.792 775.341 181.012C773.937 180.215 772.819 179.114 771.987 177.71C771.172 176.289 770.765 174.694 770.765 172.926C770.765 171.158 771.172 169.572 771.987 168.168C772.819 166.764 773.937 165.672 775.341 164.892C776.762 164.095 778.313 163.696 779.995 163.696C781.693 163.696 783.245 164.095 784.649 164.892C786.07 165.672 787.188 166.764 788.003 168.168C788.817 169.572 789.225 171.158 789.225 172.926C789.225 174.694 788.817 176.289 788.003 177.71C787.188 179.114 786.07 180.215 784.649 181.012C783.245 181.792 781.693 182.182 779.995 182.182ZM779.995 179.608C781.191 179.608 782.257 179.339 783.193 178.802C784.129 178.247 784.857 177.467 785.377 176.462C785.914 175.439 786.183 174.261 786.183 172.926C786.183 171.591 785.914 170.421 785.377 169.416C784.857 168.411 784.129 167.639 783.193 167.102C782.257 166.565 781.191 166.296 779.995 166.296C778.799 166.296 777.733 166.565 776.797 167.102C775.861 167.639 775.124 168.411 774.587 169.416C774.067 170.421 773.807 171.591 773.807 172.926C773.807 174.261 774.067 175.439 774.587 176.462C775.124 177.467 775.861 178.247 776.797 178.802C777.733 179.339 778.799 179.608 779.995 179.608ZM798.095 182.182C796.882 182.182 795.79 181.974 794.819 181.558C793.849 181.125 793.086 180.518 792.531 179.738C791.977 178.958 791.699 178.048 791.699 177.008H794.871C794.941 177.788 795.244 178.429 795.781 178.932C796.336 179.435 797.107 179.686 798.095 179.686C799.118 179.686 799.915 179.443 800.487 178.958C801.059 178.455 801.345 177.814 801.345 177.034C801.345 176.427 801.163 175.933 800.799 175.552C800.453 175.171 800.011 174.876 799.473 174.668C798.953 174.46 798.225 174.235 797.289 173.992C796.111 173.68 795.149 173.368 794.403 173.056C793.675 172.727 793.051 172.224 792.531 171.548C792.011 170.872 791.751 169.971 791.751 168.844C791.751 167.804 792.011 166.894 792.531 166.114C793.051 165.334 793.779 164.736 794.715 164.32C795.651 163.904 796.735 163.696 797.965 163.696C799.716 163.696 801.146 164.138 802.255 165.022C803.382 165.889 804.006 167.085 804.127 168.61H800.851C800.799 167.951 800.487 167.388 799.915 166.92C799.343 166.452 798.589 166.218 797.653 166.218C796.804 166.218 796.111 166.435 795.573 166.868C795.036 167.301 794.767 167.925 794.767 168.74C794.767 169.295 794.932 169.754 795.261 170.118C795.608 170.465 796.041 170.742 796.561 170.95C797.081 171.158 797.792 171.383 798.693 171.626C799.889 171.955 800.86 172.285 801.605 172.614C802.368 172.943 803.009 173.455 803.529 174.148C804.067 174.824 804.335 175.734 804.335 176.878C804.335 177.797 804.084 178.663 803.581 179.478C803.096 180.293 802.377 180.951 801.423 181.454C800.487 181.939 799.378 182.182 798.095 182.182ZM821.223 163.93L815.243 175.448V182H812.279V175.448L806.273 163.93H809.575L813.761 172.796L817.947 163.93H821.223ZM829.529 182.182C828.316 182.182 827.224 181.974 826.253 181.558C825.282 181.125 824.52 180.518 823.965 179.738C823.41 178.958 823.133 178.048 823.133 177.008H826.305C826.374 177.788 826.678 178.429 827.215 178.932C827.77 179.435 828.541 179.686 829.529 179.686C830.552 179.686 831.349 179.443 831.921 178.958C832.493 178.455 832.779 177.814 832.779 177.034C832.779 176.427 832.597 175.933 832.233 175.552C831.886 175.171 831.444 174.876 830.907 174.668C830.387 174.46 829.659 174.235 828.723 173.992C827.544 173.68 826.582 173.368 825.837 173.056C825.109 172.727 824.485 172.224 823.965 171.548C823.445 170.872 823.185 169.971 823.185 168.844C823.185 167.804 823.445 166.894 823.965 166.114C824.485 165.334 825.213 164.736 826.149 164.32C827.085 163.904 828.168 163.696 829.399 163.696C831.15 163.696 832.58 164.138 833.689 165.022C834.816 165.889 835.44 167.085 835.561 168.61H832.285C832.233 167.951 831.921 167.388 831.349 166.92C830.777 166.452 830.023 166.218 829.087 166.218C828.238 166.218 827.544 166.435 827.007 166.868C826.47 167.301 826.201 167.925 826.201 168.74C826.201 169.295 826.366 169.754 826.695 170.118C827.042 170.465 827.475 170.742 827.995 170.95C828.515 171.158 829.226 171.383 830.127 171.626C831.323 171.955 832.294 172.285 833.039 172.614C833.802 172.943 834.443 173.455 834.963 174.148C835.5 174.824 835.769 175.734 835.769 176.878C835.769 177.797 835.518 178.663 835.015 179.478C834.53 180.293 833.81 180.951 832.857 181.454C831.921 181.939 830.812 182.182 829.529 182.182ZM850.94 163.93V166.348H846.13V182H843.166V166.348H838.33V163.93H850.94ZM856.906 166.322V171.626H863.146V174.044H856.906V179.582H863.926V182H853.942V163.904H863.926V166.322H856.906ZM886.609 163.93V182H883.645V169.624L878.133 182H876.079L870.541 169.624V182H867.577V163.93H870.775L877.119 178.1L883.437 163.93H886.609ZM903.161 163.93C905.085 163.93 906.766 164.303 908.205 165.048C909.661 165.776 910.779 166.833 911.559 168.22C912.356 169.589 912.755 171.193 912.755 173.03C912.755 174.867 912.356 176.462 911.559 177.814C910.779 179.166 909.661 180.206 908.205 180.934C906.766 181.645 905.085 182 903.161 182H897.259V163.93H903.161ZM903.161 179.582C905.275 179.582 906.896 179.01 908.023 177.866C909.149 176.722 909.713 175.11 909.713 173.03C909.713 170.933 909.149 169.295 908.023 168.116C906.896 166.937 905.275 166.348 903.161 166.348H900.223V179.582H903.161ZM918.656 166.322V171.626H924.896V174.044H918.656V179.582H925.676V182H915.692V163.904H925.676V166.322H918.656ZM944.901 163.93L938.115 182H934.683L927.871 163.93H931.043L936.399 178.958L941.781 163.93H944.901ZM950.344 166.322V171.626H956.584V174.044H950.344V179.582H957.364V182H947.38V163.904H957.364V166.322H950.344ZM963.978 179.608H970.088V182H961.014V163.93H963.978V179.608ZM980.809 182.182C979.128 182.182 977.577 181.792 976.155 181.012C974.751 180.215 973.633 179.114 972.801 177.71C971.987 176.289 971.579 174.694 971.579 172.926C971.579 171.158 971.987 169.572 972.801 168.168C973.633 166.764 974.751 165.672 976.155 164.892C977.577 164.095 979.128 163.696 980.809 163.696C982.508 163.696 984.059 164.095 985.463 164.892C986.885 165.672 988.003 166.764 988.817 168.168C989.632 169.572 990.039 171.158 990.039 172.926C990.039 174.694 989.632 176.289 988.817 177.71C988.003 179.114 986.885 180.215 985.463 181.012C984.059 181.792 982.508 182.182 980.809 182.182ZM980.809 179.608C982.005 179.608 983.071 179.339 984.007 178.802C984.943 178.247 985.671 177.467 986.191 176.462C986.729 175.439 986.997 174.261 986.997 172.926C986.997 171.591 986.729 170.421 986.191 169.416C985.671 168.411 984.943 167.639 984.007 167.102C983.071 166.565 982.005 166.296 980.809 166.296C979.613 166.296 978.547 166.565 977.611 167.102C976.675 167.639 975.939 168.411 975.401 169.416C974.881 170.421 974.621 171.591 974.621 172.926C974.621 174.261 974.881 175.439 975.401 176.462C975.939 177.467 976.675 178.247 977.611 178.802C978.547 179.339 979.613 179.608 980.809 179.608ZM1005.59 169.312C1005.59 170.231 1005.38 171.097 1004.94 171.912C1004.51 172.727 1003.82 173.394 1002.86 173.914C1001.91 174.417 1000.69 174.668 999.196 174.668H995.92V182H992.956V163.93H999.196C1000.58 163.93 1001.75 164.173 1002.71 164.658C1003.68 165.126 1004.4 165.767 1004.86 166.582C1005.35 167.397 1005.59 168.307 1005.59 169.312ZM999.196 172.25C1000.32 172.25 1001.16 171.999 1001.72 171.496C1002.27 170.976 1002.55 170.248 1002.55 169.312C1002.55 167.336 1001.43 166.348 999.196 166.348H995.92V172.25H999.196ZM1027.45 163.93V182H1024.49V169.624L1018.97 182H1016.92L1011.38 169.624V182H1008.42V163.93H1011.62L1017.96 178.1L1024.28 163.93H1027.45ZM1034.31 166.322V171.626H1040.55V174.044H1034.31V179.582H1041.33V182H1031.35V163.904H1041.33V166.322H1034.31ZM1059.83 182H1056.86L1047.95 168.506V182H1044.98V163.904H1047.95L1056.86 177.372V163.904H1059.83V182ZM1075.39 163.93V166.348H1070.58V182H1067.62V166.348H1062.78V163.93H1075.39Z" fill="white"/>
<path d="M676.17 236.75V234.046H681.578V253H678.588V236.75H676.17ZM695.842 238.44C695.651 237.643 695.305 237.045 694.802 236.646C694.299 236.247 693.597 236.048 692.696 236.048C691.327 236.048 690.304 236.577 689.628 237.634C688.952 238.674 688.597 240.407 688.562 242.834C689.013 242.071 689.671 241.482 690.538 241.066C691.405 240.65 692.341 240.442 693.346 240.442C694.49 240.442 695.495 240.693 696.362 241.196C697.246 241.681 697.931 242.392 698.416 243.328C698.919 244.264 699.17 245.382 699.17 246.682C699.17 247.895 698.927 248.979 698.442 249.932C697.974 250.885 697.272 251.639 696.336 252.194C695.4 252.731 694.273 253 692.956 253C691.171 253 689.767 252.61 688.744 251.83C687.739 251.033 687.028 249.915 686.612 248.476C686.213 247.037 686.014 245.243 686.014 243.094C686.014 236.75 688.25 233.578 692.722 233.578C694.455 233.578 695.816 234.046 696.804 234.982C697.809 235.918 698.399 237.071 698.572 238.44H695.842ZM692.696 242.938C691.639 242.938 690.737 243.259 689.992 243.9C689.264 244.524 688.9 245.434 688.9 246.63C688.9 247.826 689.238 248.779 689.914 249.49C690.607 250.183 691.569 250.53 692.8 250.53C693.892 250.53 694.75 250.192 695.374 249.516C696.015 248.84 696.336 247.939 696.336 246.812C696.336 245.633 696.024 244.697 695.4 244.004C694.793 243.293 693.892 242.938 692.696 242.938ZM703.917 253.182C703.38 253.182 702.929 253 702.565 252.636C702.201 252.272 702.019 251.821 702.019 251.284C702.019 250.747 702.201 250.296 702.565 249.932C702.929 249.568 703.38 249.386 703.917 249.386C704.437 249.386 704.879 249.568 705.243 249.932C705.607 250.296 705.789 250.747 705.789 251.284C705.789 251.821 705.607 252.272 705.243 252.636C704.879 253 704.437 253.182 703.917 253.182ZM718.795 238.44C718.604 237.643 718.258 237.045 717.755 236.646C717.252 236.247 716.55 236.048 715.649 236.048C714.28 236.048 713.257 236.577 712.581 237.634C711.905 238.674 711.55 240.407 711.515 242.834C711.966 242.071 712.624 241.482 713.491 241.066C714.358 240.65 715.294 240.442 716.299 240.442C717.443 240.442 718.448 240.693 719.315 241.196C720.199 241.681 720.884 242.392 721.369 243.328C721.872 244.264 722.123 245.382 722.123 246.682C722.123 247.895 721.88 248.979 721.395 249.932C720.927 250.885 720.225 251.639 719.289 252.194C718.353 252.731 717.226 253 715.909 253C714.124 253 712.72 252.61 711.697 251.83C710.692 251.033 709.981 249.915 709.565 248.476C709.166 247.037 708.967 245.243 708.967 243.094C708.967 236.75 711.203 233.578 715.675 233.578C717.408 233.578 718.769 234.046 719.757 234.982C720.762 235.918 721.352 237.071 721.525 238.44H718.795ZM715.649 242.938C714.592 242.938 713.69 243.259 712.945 243.9C712.217 244.524 711.853 245.434 711.853 246.63C711.853 247.826 712.191 248.779 712.867 249.49C713.56 250.183 714.522 250.53 715.753 250.53C716.845 250.53 717.703 250.192 718.327 249.516C718.968 248.84 719.289 247.939 719.289 246.812C719.289 245.633 718.977 244.697 718.353 244.004C717.746 243.293 716.845 242.938 715.649 242.938ZM737.297 236.334L730.069 253H727.079L734.385 236.646H724.765V234.124H737.297V236.334ZM739.365 238.622C739.365 237.357 739.729 236.369 740.457 235.658C741.203 234.93 742.156 234.566 743.317 234.566C744.479 234.566 745.423 234.93 746.151 235.658C746.897 236.369 747.269 237.357 747.269 238.622C747.269 239.887 746.897 240.884 746.151 241.612C745.423 242.34 744.479 242.704 743.317 242.704C742.156 242.704 741.203 242.34 740.457 241.612C739.729 240.884 739.365 239.887 739.365 238.622ZM755.225 234.904L744.851 253H741.939L752.313 234.904H755.225ZM743.317 236.36C742.225 236.36 741.679 237.114 741.679 238.622C741.679 240.147 742.225 240.91 743.317 240.91C743.837 240.91 744.236 240.728 744.513 240.364C744.808 239.983 744.955 239.402 744.955 238.622C744.955 237.114 744.409 236.36 743.317 236.36ZM749.947 249.256C749.947 247.991 750.311 247.003 751.039 246.292C751.785 245.564 752.738 245.2 753.899 245.2C755.043 245.2 755.979 245.564 756.707 246.292C757.453 247.003 757.825 247.991 757.825 249.256C757.825 250.521 757.453 251.518 756.707 252.246C755.979 252.974 755.043 253.338 753.899 253.338C752.738 253.338 751.785 252.974 751.039 252.246C750.311 251.518 749.947 250.521 749.947 249.256ZM753.873 246.994C752.781 246.994 752.235 247.748 752.235 249.256C752.235 250.764 752.781 251.518 753.873 251.518C754.965 251.518 755.511 250.764 755.511 249.256C755.511 247.748 754.965 246.994 753.873 246.994ZM780.256 240.312C780.256 241.231 780.039 242.097 779.606 242.912C779.173 243.727 778.479 244.394 777.526 244.914C776.573 245.417 775.351 245.668 773.86 245.668H770.584V253H767.62V234.93H773.86C775.247 234.93 776.417 235.173 777.37 235.658C778.341 236.126 779.06 236.767 779.528 237.582C780.013 238.397 780.256 239.307 780.256 240.312ZM773.86 243.25C774.987 243.25 775.827 242.999 776.382 242.496C776.937 241.976 777.214 241.248 777.214 240.312C777.214 238.336 776.096 237.348 773.86 237.348H770.584V243.25H773.86ZM792.469 253L788.309 245.772H786.047V253H783.083V234.93H789.323C790.709 234.93 791.879 235.173 792.833 235.658C793.803 236.143 794.523 236.793 794.991 237.608C795.476 238.423 795.719 239.333 795.719 240.338C795.719 241.517 795.372 242.591 794.679 243.562C794.003 244.515 792.954 245.165 791.533 245.512L796.005 253H792.469ZM786.047 243.406H789.323C790.432 243.406 791.264 243.129 791.819 242.574C792.391 242.019 792.677 241.274 792.677 240.338C792.677 239.402 792.399 238.674 791.845 238.154C791.29 237.617 790.449 237.348 789.323 237.348H786.047V243.406ZM802.475 237.322V242.626H808.715V245.044H802.475V250.582H809.495V253H799.511V234.904H809.495V237.322H802.475ZM819.099 253.182C817.886 253.182 816.794 252.974 815.823 252.558C814.853 252.125 814.09 251.518 813.535 250.738C812.981 249.958 812.703 249.048 812.703 248.008H815.875C815.945 248.788 816.248 249.429 816.785 249.932C817.34 250.435 818.111 250.686 819.099 250.686C820.122 250.686 820.919 250.443 821.491 249.958C822.063 249.455 822.349 248.814 822.349 248.034C822.349 247.427 822.167 246.933 821.803 246.552C821.457 246.171 821.015 245.876 820.477 245.668C819.957 245.46 819.229 245.235 818.293 244.992C817.115 244.68 816.153 244.368 815.407 244.056C814.679 243.727 814.055 243.224 813.535 242.548C813.015 241.872 812.755 240.971 812.755 239.844C812.755 238.804 813.015 237.894 813.535 237.114C814.055 236.334 814.783 235.736 815.719 235.32C816.655 234.904 817.739 234.696 818.969 234.696C820.72 234.696 822.15 235.138 823.259 236.022C824.386 236.889 825.01 238.085 825.131 239.61H821.855C821.803 238.951 821.491 238.388 820.919 237.92C820.347 237.452 819.593 237.218 818.657 237.218C817.808 237.218 817.115 237.435 816.577 237.868C816.04 238.301 815.771 238.925 815.771 239.74C815.771 240.295 815.936 240.754 816.265 241.118C816.612 241.465 817.045 241.742 817.565 241.95C818.085 242.158 818.796 242.383 819.697 242.626C820.893 242.955 821.864 243.285 822.609 243.614C823.372 243.943 824.013 244.455 824.533 245.148C825.071 245.824 825.339 246.734 825.339 247.878C825.339 248.797 825.088 249.663 824.585 250.478C824.1 251.293 823.381 251.951 822.427 252.454C821.491 252.939 820.382 253.182 819.099 253.182ZM839.731 249.308H832.165L830.865 253H827.771L834.245 234.904H837.677L844.151 253H841.031L839.731 249.308ZM838.899 246.89L835.961 238.492L832.997 246.89H838.899ZM849.93 250.608H856.04V253H846.966V234.93H849.93V250.608ZM861.482 237.322V242.626H867.722V245.044H861.482V250.582H868.502V253H858.518V234.904H868.502V237.322H861.482Z" fill="white"/>
<path d="M678.17 307.75V305.046H683.578V324H680.588V307.75H678.17ZM699.87 307.594H691.16V312.768C691.524 312.283 692.061 311.875 692.772 311.546C693.5 311.217 694.271 311.052 695.086 311.052C696.542 311.052 697.721 311.364 698.622 311.988C699.541 312.612 700.191 313.401 700.572 314.354C700.971 315.307 701.17 316.313 701.17 317.37C701.17 318.653 700.919 319.797 700.416 320.802C699.931 321.79 699.194 322.57 698.206 323.142C697.235 323.714 696.039 324 694.618 324C692.729 324 691.212 323.532 690.068 322.596C688.924 321.66 688.239 320.421 688.014 318.878H690.9C691.091 319.693 691.515 320.343 692.174 320.828C692.833 321.296 693.656 321.53 694.644 321.53C695.875 321.53 696.793 321.157 697.4 320.412C698.024 319.667 698.336 318.679 698.336 317.448C698.336 316.2 698.024 315.247 697.4 314.588C696.776 313.912 695.857 313.574 694.644 313.574C693.795 313.574 693.075 313.791 692.486 314.224C691.914 314.64 691.498 315.212 691.238 315.94H688.43V304.994H699.87V307.594ZM703.787 309.622C703.787 308.357 704.151 307.369 704.879 306.658C705.625 305.93 706.578 305.566 707.739 305.566C708.901 305.566 709.845 305.93 710.573 306.658C711.319 307.369 711.691 308.357 711.691 309.622C711.691 310.887 711.319 311.884 710.573 312.612C709.845 313.34 708.901 313.704 707.739 313.704C706.578 313.704 705.625 313.34 704.879 312.612C704.151 311.884 703.787 310.887 703.787 309.622ZM719.647 305.904L709.273 324H706.361L716.735 305.904H719.647ZM707.739 307.36C706.647 307.36 706.101 308.114 706.101 309.622C706.101 311.147 706.647 311.91 707.739 311.91C708.259 311.91 708.658 311.728 708.935 311.364C709.23 310.983 709.377 310.402 709.377 309.622C709.377 308.114 708.831 307.36 707.739 307.36ZM714.369 320.256C714.369 318.991 714.733 318.003 715.461 317.292C716.207 316.564 717.16 316.2 718.321 316.2C719.465 316.2 720.401 316.564 721.129 317.292C721.875 318.003 722.247 318.991 722.247 320.256C722.247 321.521 721.875 322.518 721.129 323.246C720.401 323.974 719.465 324.338 718.321 324.338C717.16 324.338 716.207 323.974 715.461 323.246C714.733 322.518 714.369 321.521 714.369 320.256ZM718.295 317.994C717.203 317.994 716.657 318.748 716.657 320.256C716.657 321.764 717.203 322.518 718.295 322.518C719.387 322.518 719.933 321.764 719.933 320.256C719.933 318.748 719.387 317.994 718.295 317.994ZM742.936 320.308H735.37L734.07 324H730.976L737.45 305.904H740.882L747.356 324H744.236L742.936 320.308ZM742.104 317.89L739.166 309.492L736.202 317.89H742.104ZM753.135 305.93V324H750.171V305.93H753.135ZM766.412 324L762.252 316.772H759.99V324H757.026V305.93H763.266C764.653 305.93 765.823 306.173 766.776 306.658C767.747 307.143 768.466 307.793 768.934 308.608C769.42 309.423 769.662 310.333 769.662 311.338C769.662 312.517 769.316 313.591 768.622 314.562C767.946 315.515 766.898 316.165 765.476 316.512L769.948 324H766.412ZM759.99 314.406H763.266C764.376 314.406 765.208 314.129 765.762 313.574C766.334 313.019 766.62 312.274 766.62 311.338C766.62 310.402 766.343 309.674 765.788 309.154C765.234 308.617 764.393 308.348 763.266 308.348H759.99V314.406ZM779.356 305.93C781.28 305.93 782.961 306.303 784.4 307.048C785.856 307.776 786.974 308.833 787.754 310.22C788.551 311.589 788.95 313.193 788.95 315.03C788.95 316.867 788.551 318.462 787.754 319.814C786.974 321.166 785.856 322.206 784.4 322.934C782.961 323.645 781.28 324 779.356 324H773.454V305.93H779.356ZM779.356 321.582C781.471 321.582 783.091 321.01 784.218 319.866C785.345 318.722 785.908 317.11 785.908 315.03C785.908 312.933 785.345 311.295 784.218 310.116C783.091 308.937 781.471 308.348 779.356 308.348H776.418V321.582H779.356ZM801.274 324L797.114 316.772H794.852V324H791.888V305.93H798.128C799.514 305.93 800.684 306.173 801.638 306.658C802.608 307.143 803.328 307.793 803.796 308.608C804.281 309.423 804.524 310.333 804.524 311.338C804.524 312.517 804.177 313.591 803.484 314.562C802.808 315.515 801.759 316.165 800.338 316.512L804.81 324H801.274ZM794.852 314.406H798.128C799.237 314.406 800.069 314.129 800.624 313.574C801.196 313.019 801.482 312.274 801.482 311.338C801.482 310.402 801.204 309.674 800.65 309.154C800.095 308.617 799.254 308.348 798.128 308.348H794.852V314.406ZM816.557 324.182C814.876 324.182 813.325 323.792 811.903 323.012C810.499 322.215 809.381 321.114 808.549 319.71C807.735 318.289 807.327 316.694 807.327 314.926C807.327 313.158 807.735 311.572 808.549 310.168C809.381 308.764 810.499 307.672 811.903 306.892C813.325 306.095 814.876 305.696 816.557 305.696C818.256 305.696 819.807 306.095 821.211 306.892C822.633 307.672 823.751 308.764 824.565 310.168C825.38 311.572 825.787 313.158 825.787 314.926C825.787 316.694 825.38 318.289 824.565 319.71C823.751 321.114 822.633 322.215 821.211 323.012C819.807 323.792 818.256 324.182 816.557 324.182ZM816.557 321.608C817.753 321.608 818.819 321.339 819.755 320.802C820.691 320.247 821.419 319.467 821.939 318.462C822.477 317.439 822.745 316.261 822.745 314.926C822.745 313.591 822.477 312.421 821.939 311.416C821.419 310.411 820.691 309.639 819.755 309.102C818.819 308.565 817.753 308.296 816.557 308.296C815.361 308.296 814.295 308.565 813.359 309.102C812.423 309.639 811.687 310.411 811.149 311.416C810.629 312.421 810.369 313.591 810.369 314.926C810.369 316.261 810.629 317.439 811.149 318.462C811.687 319.467 812.423 320.247 813.359 320.802C814.295 321.339 815.361 321.608 816.557 321.608ZM841.34 311.312C841.34 312.231 841.123 313.097 840.69 313.912C840.257 314.727 839.563 315.394 838.61 315.914C837.657 316.417 836.435 316.668 834.944 316.668H831.668V324H828.704V305.93H834.944C836.331 305.93 837.501 306.173 838.454 306.658C839.425 307.126 840.144 307.767 840.612 308.582C841.097 309.397 841.34 310.307 841.34 311.312ZM834.944 314.25C836.071 314.25 836.911 313.999 837.466 313.496C838.021 312.976 838.298 312.248 838.298 311.312C838.298 309.336 837.18 308.348 834.944 308.348H831.668V314.25H834.944Z" fill="white"/>
<path d="M678.17 378.75V376.046H683.578V395H680.588V378.75H678.17ZM687.65 385.276C687.65 382.277 688.153 379.937 689.158 378.256C690.181 376.557 691.931 375.708 694.41 375.708C696.889 375.708 698.631 376.557 699.636 378.256C700.659 379.937 701.17 382.277 701.17 385.276C701.17 388.309 700.659 390.684 699.636 392.4C698.631 394.099 696.889 394.948 694.41 394.948C691.931 394.948 690.181 394.099 689.158 392.4C688.153 390.684 687.65 388.309 687.65 385.276ZM698.258 385.276C698.258 383.872 698.163 382.685 697.972 381.714C697.799 380.743 697.435 379.955 696.88 379.348C696.325 378.724 695.502 378.412 694.41 378.412C693.318 378.412 692.495 378.724 691.94 379.348C691.385 379.955 691.013 380.743 690.822 381.714C690.649 382.685 690.562 383.872 690.562 385.276C690.562 386.732 690.649 387.954 690.822 388.942C690.995 389.93 691.359 390.727 691.914 391.334C692.486 391.941 693.318 392.244 694.41 392.244C695.502 392.244 696.325 391.941 696.88 391.334C697.452 390.727 697.825 389.93 697.998 388.942C698.171 387.954 698.258 386.732 698.258 385.276ZM703.838 380.622C703.838 379.357 704.202 378.369 704.93 377.658C705.675 376.93 706.629 376.566 707.79 376.566C708.951 376.566 709.896 376.93 710.624 377.658C711.369 378.369 711.742 379.357 711.742 380.622C711.742 381.887 711.369 382.884 710.624 383.612C709.896 384.34 708.951 384.704 707.79 384.704C706.629 384.704 705.675 384.34 704.93 383.612C704.202 382.884 703.838 381.887 703.838 380.622ZM719.698 376.904L709.324 395H706.412L716.786 376.904H719.698ZM707.79 378.36C706.698 378.36 706.152 379.114 706.152 380.622C706.152 382.147 706.698 382.91 707.79 382.91C708.31 382.91 708.709 382.728 708.986 382.364C709.281 381.983 709.428 381.402 709.428 380.622C709.428 379.114 708.882 378.36 707.79 378.36ZM714.42 391.256C714.42 389.991 714.784 389.003 715.512 388.292C716.257 387.564 717.211 387.2 718.372 387.2C719.516 387.2 720.452 387.564 721.18 388.292C721.925 389.003 722.298 389.991 722.298 391.256C722.298 392.521 721.925 393.518 721.18 394.246C720.452 394.974 719.516 395.338 718.372 395.338C717.211 395.338 716.257 394.974 715.512 394.246C714.784 393.518 714.42 392.521 714.42 391.256ZM718.346 388.994C717.254 388.994 716.708 389.748 716.708 391.256C716.708 392.764 717.254 393.518 718.346 393.518C719.438 393.518 719.984 392.764 719.984 391.256C719.984 389.748 719.438 388.994 718.346 388.994ZM751.125 376.93V395H748.161V382.624L742.649 395H740.595L735.057 382.624V395H732.093V376.93H735.291L741.635 391.1L747.953 376.93H751.125ZM765.914 391.308H758.348L757.048 395H753.954L760.428 376.904H763.86L770.334 395H767.214L765.914 391.308ZM765.082 388.89L762.144 380.492L759.18 388.89H765.082ZM782.535 395L778.375 387.772H776.113V395H773.149V376.93H779.389C780.776 376.93 781.946 377.173 782.899 377.658C783.87 378.143 784.589 378.793 785.057 379.608C785.543 380.423 785.785 381.333 785.785 382.338C785.785 383.517 785.439 384.591 784.745 385.562C784.069 386.515 783.021 387.165 781.599 387.512L786.071 395H782.535ZM776.113 385.406H779.389C780.499 385.406 781.331 385.129 781.885 384.574C782.457 384.019 782.743 383.274 782.743 382.338C782.743 381.402 782.466 380.674 781.911 380.154C781.357 379.617 780.516 379.348 779.389 379.348H776.113V385.406ZM799.535 395L792.541 386.914V395H789.577V376.93H792.541V385.172L799.561 376.93H803.279L795.427 385.978L803.409 395H799.535ZM808.994 379.322V384.626H815.234V387.044H808.994V392.582H816.014V395H806.03V376.904H816.014V379.322H808.994ZM831.339 376.93V379.348H826.529V395H823.565V379.348H818.729V376.93H831.339ZM837.305 376.93V395H834.341V376.93H837.305ZM856.042 395H853.078L844.16 381.506V395H841.196V376.904H844.16L853.078 390.372V376.904H856.042V395ZM873.012 382.13C872.544 381.229 871.894 380.553 871.062 380.102C870.23 379.634 869.268 379.4 868.176 379.4C866.98 379.4 865.914 379.669 864.978 380.206C864.042 380.743 863.306 381.506 862.768 382.494C862.248 383.482 861.988 384.626 861.988 385.926C861.988 387.226 862.248 388.379 862.768 389.384C863.306 390.372 864.042 391.135 864.978 391.672C865.914 392.209 866.98 392.478 868.176 392.478C869.788 392.478 871.097 392.027 872.102 391.126C873.108 390.225 873.723 389.003 873.948 387.46H867.162V385.094H877.12V387.408C876.93 388.812 876.427 390.103 875.612 391.282C874.815 392.461 873.766 393.405 872.466 394.116C871.184 394.809 869.754 395.156 868.176 395.156C866.478 395.156 864.926 394.766 863.522 393.986C862.118 393.189 861 392.088 860.168 390.684C859.354 389.28 858.946 387.694 858.946 385.926C858.946 384.158 859.354 382.572 860.168 381.168C861 379.764 862.118 378.672 863.522 377.892C864.944 377.095 866.495 376.696 868.176 376.696C870.1 376.696 871.808 377.173 873.298 378.126C874.806 379.062 875.898 380.397 876.574 382.13H873.012Z" fill="white"/>
<path d="M678.17 449.75V447.046H683.578V466H680.588V449.75H678.17ZM687.65 456.276C687.65 453.277 688.153 450.937 689.158 449.256C690.181 447.557 691.931 446.708 694.41 446.708C696.889 446.708 698.631 447.557 699.636 449.256C700.659 450.937 701.17 453.277 701.17 456.276C701.17 459.309 700.659 461.684 699.636 463.4C698.631 465.099 696.889 465.948 694.41 465.948C691.931 465.948 690.181 465.099 689.158 463.4C688.153 461.684 687.65 459.309 687.65 456.276ZM698.258 456.276C698.258 454.872 698.163 453.685 697.972 452.714C697.799 451.743 697.435 450.955 696.88 450.348C696.325 449.724 695.502 449.412 694.41 449.412C693.318 449.412 692.495 449.724 691.94 450.348C691.385 450.955 691.013 451.743 690.822 452.714C690.649 453.685 690.562 454.872 690.562 456.276C690.562 457.732 690.649 458.954 690.822 459.942C690.995 460.93 691.359 461.727 691.914 462.334C692.486 462.941 693.318 463.244 694.41 463.244C695.502 463.244 696.325 462.941 696.88 462.334C697.452 461.727 697.825 460.93 697.998 459.942C698.171 458.954 698.258 457.732 698.258 456.276ZM703.838 451.622C703.838 450.357 704.202 449.369 704.93 448.658C705.675 447.93 706.629 447.566 707.79 447.566C708.951 447.566 709.896 447.93 710.624 448.658C711.369 449.369 711.742 450.357 711.742 451.622C711.742 452.887 711.369 453.884 710.624 454.612C709.896 455.34 708.951 455.704 707.79 455.704C706.629 455.704 705.675 455.34 704.93 454.612C704.202 453.884 703.838 452.887 703.838 451.622ZM719.698 447.904L709.324 466H706.412L716.786 447.904H719.698ZM707.79 449.36C706.698 449.36 706.152 450.114 706.152 451.622C706.152 453.147 706.698 453.91 707.79 453.91C708.31 453.91 708.709 453.728 708.986 453.364C709.281 452.983 709.428 452.402 709.428 451.622C709.428 450.114 708.882 449.36 707.79 449.36ZM714.42 462.256C714.42 460.991 714.784 460.003 715.512 459.292C716.257 458.564 717.211 458.2 718.372 458.2C719.516 458.2 720.452 458.564 721.18 459.292C721.925 460.003 722.298 460.991 722.298 462.256C722.298 463.521 721.925 464.518 721.18 465.246C720.452 465.974 719.516 466.338 718.372 466.338C717.211 466.338 716.257 465.974 715.512 465.246C714.784 464.518 714.42 463.521 714.42 462.256ZM718.346 459.994C717.254 459.994 716.708 460.748 716.708 462.256C716.708 463.764 717.254 464.518 718.346 464.518C719.438 464.518 719.984 463.764 719.984 462.256C719.984 460.748 719.438 459.994 718.346 459.994ZM735.031 447.93V459.448C735.031 460.817 735.386 461.849 736.097 462.542C736.825 463.235 737.83 463.582 739.113 463.582C740.413 463.582 741.418 463.235 742.129 462.542C742.857 461.849 743.221 460.817 743.221 459.448V447.93H746.185V459.396C746.185 460.869 745.864 462.117 745.223 463.14C744.581 464.163 743.723 464.925 742.649 465.428C741.574 465.931 740.387 466.182 739.087 466.182C737.787 466.182 736.599 465.931 735.525 465.428C734.467 464.925 733.627 464.163 733.003 463.14C732.379 462.117 732.067 460.869 732.067 459.396V447.93H735.031ZM759.716 456.718C760.686 456.891 761.51 457.403 762.186 458.252C762.862 459.101 763.2 460.063 763.2 461.138C763.2 462.057 762.957 462.889 762.472 463.634C762.004 464.362 761.319 464.943 760.418 465.376C759.516 465.792 758.468 466 757.272 466H750.044V447.93H756.934C758.164 447.93 759.222 448.138 760.106 448.554C760.99 448.97 761.657 449.533 762.108 450.244C762.558 450.937 762.784 451.717 762.784 452.584C762.784 453.624 762.506 454.491 761.952 455.184C761.397 455.877 760.652 456.389 759.716 456.718ZM753.008 455.522H756.674C757.644 455.522 758.398 455.305 758.936 454.872C759.49 454.421 759.768 453.78 759.768 452.948C759.768 452.133 759.49 451.501 758.936 451.05C758.398 450.582 757.644 450.348 756.674 450.348H753.008V455.522ZM757.012 463.582C758.017 463.582 758.806 463.339 759.378 462.854C759.95 462.369 760.236 461.693 760.236 460.826C760.236 459.942 759.932 459.24 759.326 458.72C758.719 458.2 757.913 457.94 756.908 457.94H753.008V463.582H757.012ZM769.359 447.93V459.448C769.359 460.817 769.714 461.849 770.425 462.542C771.153 463.235 772.158 463.582 773.441 463.582C774.741 463.582 775.746 463.235 776.457 462.542C777.185 461.849 777.549 460.817 777.549 459.448V447.93H780.513V459.396C780.513 460.869 780.192 462.117 779.551 463.14C778.909 464.163 778.051 464.925 776.977 465.428C775.902 465.931 774.715 466.182 773.415 466.182C772.115 466.182 770.927 465.931 769.853 465.428C768.795 464.925 767.955 464.163 767.331 463.14C766.707 462.117 766.395 460.869 766.395 459.396V447.93H769.359ZM799.218 466H796.254L787.336 452.506V466H784.372V447.904H787.336L796.254 461.372V447.904H799.218V466ZM814.784 447.93V450.348H809.974V466H807.01V450.348H802.174V447.93H814.784ZM820.724 447.93V459.448C820.724 460.817 821.079 461.849 821.79 462.542C822.518 463.235 823.523 463.582 824.806 463.582C826.106 463.582 827.111 463.235 827.822 462.542C828.55 461.849 828.914 460.817 828.914 459.448V447.93H831.878V459.396C831.878 460.869 831.557 462.117 830.916 463.14C830.275 464.163 829.417 464.925 828.342 465.428C827.267 465.931 826.08 466.182 824.78 466.182C823.48 466.182 822.293 465.931 821.218 465.428C820.161 464.925 819.32 464.163 818.696 463.14C818.072 462.117 817.76 460.869 817.76 459.396V447.93H820.724ZM853.125 447.93V450.348H845.455V455.678H851.435V458.096H845.455V466H842.491V447.93H853.125ZM864.114 466.182C862.433 466.182 860.881 465.792 859.46 465.012C858.056 464.215 856.938 463.114 856.106 461.71C855.291 460.289 854.884 458.694 854.884 456.926C854.884 455.158 855.291 453.572 856.106 452.168C856.938 450.764 858.056 449.672 859.46 448.892C860.881 448.095 862.433 447.696 864.114 447.696C865.813 447.696 867.364 448.095 868.768 448.892C870.189 449.672 871.307 450.764 872.122 452.168C872.937 453.572 873.344 455.158 873.344 456.926C873.344 458.694 872.937 460.289 872.122 461.71C871.307 463.114 870.189 464.215 868.768 465.012C867.364 465.792 865.813 466.182 864.114 466.182ZM864.114 463.608C865.31 463.608 866.376 463.339 867.312 462.802C868.248 462.247 868.976 461.467 869.496 460.462C870.033 459.439 870.302 458.261 870.302 456.926C870.302 455.591 870.033 454.421 869.496 453.416C868.976 452.411 868.248 451.639 867.312 451.102C866.376 450.565 865.31 450.296 864.114 450.296C862.918 450.296 861.852 450.565 860.916 451.102C859.98 451.639 859.243 452.411 858.706 453.416C858.186 454.421 857.926 455.591 857.926 456.926C857.926 458.261 858.186 459.439 858.706 460.462C859.243 461.467 859.98 462.247 860.916 462.802C861.852 463.339 862.918 463.608 864.114 463.608ZM879.199 447.93V459.448C879.199 460.817 879.554 461.849 880.265 462.542C880.993 463.235 881.998 463.582 883.281 463.582C884.581 463.582 885.586 463.235 886.297 462.542C887.025 461.849 887.389 460.817 887.389 459.448V447.93H890.353V459.396C890.353 460.869 890.032 462.117 889.391 463.14C888.749 464.163 887.891 464.925 886.817 465.428C885.742 465.931 884.555 466.182 883.255 466.182C881.955 466.182 880.767 465.931 879.693 465.428C878.635 464.925 877.795 464.163 877.171 463.14C876.547 462.117 876.235 460.869 876.235 459.396V447.93H879.199ZM909.058 466H906.094L897.176 452.506V466H894.212V447.904H897.176L906.094 461.372V447.904H909.058V466ZM918.852 447.93C920.776 447.93 922.457 448.303 923.896 449.048C925.352 449.776 926.47 450.833 927.25 452.22C928.047 453.589 928.446 455.193 928.446 457.03C928.446 458.867 928.047 460.462 927.25 461.814C926.47 463.166 925.352 464.206 923.896 464.934C922.457 465.645 920.776 466 918.852 466H912.95V447.93H918.852ZM918.852 463.582C920.967 463.582 922.587 463.01 923.714 461.866C924.841 460.722 925.404 459.11 925.404 457.03C925.404 454.933 924.841 453.295 923.714 452.116C922.587 450.937 920.967 450.348 918.852 450.348H915.914V463.582H918.852ZM942.278 462.308H934.712L933.412 466H930.318L936.792 447.904H940.224L946.698 466H943.578L942.278 462.308ZM941.446 459.89L938.508 451.492L935.544 459.89H941.446ZM961.187 447.93V450.348H956.377V466H953.413V450.348H948.577V447.93H961.187ZM967.152 447.93V466H964.188V447.93H967.152ZM979.286 466.182C977.604 466.182 976.053 465.792 974.632 465.012C973.228 464.215 972.11 463.114 971.278 461.71C970.463 460.289 970.056 458.694 970.056 456.926C970.056 455.158 970.463 453.572 971.278 452.168C972.11 450.764 973.228 449.672 974.632 448.892C976.053 448.095 977.604 447.696 979.286 447.696C980.984 447.696 982.536 448.095 983.94 448.892C985.361 449.672 986.479 450.764 987.294 452.168C988.108 453.572 988.516 455.158 988.516 456.926C988.516 458.694 988.108 460.289 987.294 461.71C986.479 463.114 985.361 464.215 983.94 465.012C982.536 465.792 980.984 466.182 979.286 466.182ZM979.286 463.608C980.482 463.608 981.548 463.339 982.484 462.802C983.42 462.247 984.148 461.467 984.668 460.462C985.205 459.439 985.474 458.261 985.474 456.926C985.474 455.591 985.205 454.421 984.668 453.416C984.148 452.411 983.42 451.639 982.484 451.102C981.548 450.565 980.482 450.296 979.286 450.296C978.09 450.296 977.024 450.565 976.088 451.102C975.152 451.639 974.415 452.411 973.878 453.416C973.358 454.421 973.098 455.591 973.098 456.926C973.098 458.261 973.358 459.439 973.878 460.462C974.415 461.467 975.152 462.247 976.088 462.802C977.024 463.339 978.09 463.608 979.286 463.608ZM1006.28 466H1003.31L994.396 452.506V466H991.432V447.904H994.396L1003.31 461.372V447.904H1006.28V466Z" fill="white"/>
<path d="M681.758 527.094C679.955 526.193 679.054 524.771 679.054 522.83C679.054 521.894 679.288 521.036 679.756 520.256C680.224 519.476 680.926 518.861 681.862 518.41C682.798 517.942 683.942 517.708 685.294 517.708C686.629 517.708 687.764 517.942 688.7 518.41C689.653 518.861 690.364 519.476 690.832 520.256C691.3 521.036 691.534 521.894 691.534 522.83C691.534 523.801 691.283 524.659 690.78 525.404C690.295 526.132 689.645 526.695 688.83 527.094C689.818 527.458 690.598 528.056 691.17 528.888C691.742 529.703 692.028 530.665 692.028 531.774C692.028 532.901 691.742 533.897 691.17 534.764C690.598 535.631 689.801 536.298 688.778 536.766C687.755 537.234 686.594 537.468 685.294 537.468C683.994 537.468 682.833 537.234 681.81 536.766C680.805 536.298 680.016 535.631 679.444 534.764C678.872 533.897 678.586 532.901 678.586 531.774C678.586 530.647 678.872 529.677 679.444 528.862C680.016 528.047 680.787 527.458 681.758 527.094ZM688.7 523.194C688.7 522.223 688.397 521.478 687.79 520.958C687.183 520.438 686.351 520.178 685.294 520.178C684.254 520.178 683.431 520.438 682.824 520.958C682.217 521.478 681.914 522.232 681.914 523.22C681.914 524.087 682.226 524.797 682.85 525.352C683.491 525.889 684.306 526.158 685.294 526.158C686.282 526.158 687.097 525.881 687.738 525.326C688.379 524.771 688.7 524.061 688.7 523.194ZM685.294 528.394C684.15 528.394 683.214 528.68 682.486 529.252C681.775 529.807 681.42 530.613 681.42 531.67C681.42 532.658 681.767 533.464 682.46 534.088C683.153 534.695 684.098 534.998 685.294 534.998C686.473 534.998 687.4 534.686 688.076 534.062C688.769 533.438 689.116 532.641 689.116 531.67C689.116 530.63 688.761 529.824 688.05 529.252C687.357 528.68 686.438 528.394 685.294 528.394ZM696.726 537.182C696.189 537.182 695.738 537 695.374 536.636C695.01 536.272 694.828 535.821 694.828 535.284C694.828 534.747 695.01 534.296 695.374 533.932C695.738 533.568 696.189 533.386 696.726 533.386C697.246 533.386 697.688 533.568 698.052 533.932C698.416 534.296 698.598 534.747 698.598 535.284C698.598 535.821 698.416 536.272 698.052 536.636C697.688 537 697.246 537.182 696.726 537.182ZM701.36 522.726C701.464 521.114 702.079 519.857 703.206 518.956C704.35 518.055 705.806 517.604 707.574 517.604C708.787 517.604 709.836 517.821 710.72 518.254C711.604 518.687 712.271 519.277 712.722 520.022C713.172 520.767 713.398 521.608 713.398 522.544C713.398 523.619 713.112 524.537 712.54 525.3C711.968 526.063 711.283 526.574 710.486 526.834V526.938C711.508 527.25 712.306 527.822 712.878 528.654C713.45 529.469 713.736 530.517 713.736 531.8C713.736 532.823 713.502 533.733 713.034 534.53C712.566 535.327 711.872 535.96 710.954 536.428C710.035 536.879 708.934 537.104 707.652 537.104C705.78 537.104 704.237 536.627 703.024 535.674C701.828 534.703 701.186 533.317 701.1 531.514H703.96C704.029 532.433 704.384 533.187 705.026 533.776C705.667 534.348 706.534 534.634 707.626 534.634C708.683 534.634 709.498 534.348 710.07 533.776C710.642 533.187 710.928 532.433 710.928 531.514C710.928 530.301 710.538 529.443 709.758 528.94C708.995 528.42 707.816 528.16 706.222 528.16H705.546V525.716H706.248C707.652 525.699 708.718 525.465 709.446 525.014C710.191 524.563 710.564 523.853 710.564 522.882C710.564 522.05 710.295 521.391 709.758 520.906C709.22 520.403 708.458 520.152 707.47 520.152C706.499 520.152 705.745 520.403 705.208 520.906C704.67 521.391 704.35 521.998 704.246 522.726H701.36ZM716.797 522.726C716.901 521.114 717.516 519.857 718.643 518.956C719.787 518.055 721.243 517.604 723.011 517.604C724.224 517.604 725.273 517.821 726.157 518.254C727.041 518.687 727.708 519.277 728.159 520.022C728.61 520.767 728.835 521.608 728.835 522.544C728.835 523.619 728.549 524.537 727.977 525.3C727.405 526.063 726.72 526.574 725.923 526.834V526.938C726.946 527.25 727.743 527.822 728.315 528.654C728.887 529.469 729.173 530.517 729.173 531.8C729.173 532.823 728.939 533.733 728.471 534.53C728.003 535.327 727.31 535.96 726.391 536.428C725.472 536.879 724.372 537.104 723.089 537.104C721.217 537.104 719.674 536.627 718.461 535.674C717.265 534.703 716.624 533.317 716.537 531.514H719.397C719.466 532.433 719.822 533.187 720.463 533.776C721.104 534.348 721.971 534.634 723.063 534.634C724.12 534.634 724.935 534.348 725.507 533.776C726.079 533.187 726.365 532.433 726.365 531.514C726.365 530.301 725.975 529.443 725.195 528.94C724.432 528.42 723.254 528.16 721.659 528.16H720.983V525.716H721.685C723.089 525.699 724.155 525.465 724.883 525.014C725.628 524.563 726.001 523.853 726.001 522.882C726.001 522.05 725.732 521.391 725.195 520.906C724.658 520.403 723.895 520.152 722.907 520.152C721.936 520.152 721.182 520.403 720.645 520.906C720.108 521.391 719.787 521.998 719.683 522.726H716.797ZM731.819 522.622C731.819 521.357 732.183 520.369 732.911 519.658C733.656 518.93 734.609 518.566 735.771 518.566C736.932 518.566 737.877 518.93 738.605 519.658C739.35 520.369 739.723 521.357 739.723 522.622C739.723 523.887 739.35 524.884 738.605 525.612C737.877 526.34 736.932 526.704 735.771 526.704C734.609 526.704 733.656 526.34 732.911 525.612C732.183 524.884 731.819 523.887 731.819 522.622ZM747.679 518.904L737.305 537H734.393L744.767 518.904H747.679ZM735.771 520.36C734.679 520.36 734.133 521.114 734.133 522.622C734.133 524.147 734.679 524.91 735.771 524.91C736.291 524.91 736.689 524.728 736.967 524.364C737.261 523.983 737.409 523.402 737.409 522.622C737.409 521.114 736.863 520.36 735.771 520.36ZM742.401 533.256C742.401 531.991 742.765 531.003 743.493 530.292C744.238 529.564 745.191 529.2 746.353 529.2C747.497 529.2 748.433 529.564 749.161 530.292C749.906 531.003 750.279 531.991 750.279 533.256C750.279 534.521 749.906 535.518 749.161 536.246C748.433 536.974 747.497 537.338 746.353 537.338C745.191 537.338 744.238 536.974 743.493 536.246C742.765 535.518 742.401 534.521 742.401 533.256ZM746.327 530.994C745.235 530.994 744.689 531.748 744.689 533.256C744.689 534.764 745.235 535.518 746.327 535.518C747.419 535.518 747.965 534.764 747.965 533.256C747.965 531.748 747.419 530.994 746.327 530.994ZM759.085 527.926C759.085 526.158 759.492 524.572 760.307 523.168C761.139 521.764 762.257 520.672 763.661 519.892C765.082 519.095 766.634 518.696 768.315 518.696C770.239 518.696 771.946 519.173 773.437 520.126C774.945 521.062 776.037 522.397 776.713 524.13H773.151C772.683 523.177 772.033 522.466 771.201 521.998C770.369 521.53 769.407 521.296 768.315 521.296C767.119 521.296 766.053 521.565 765.117 522.102C764.181 522.639 763.444 523.411 762.907 524.416C762.387 525.421 762.127 526.591 762.127 527.926C762.127 529.261 762.387 530.431 762.907 531.436C763.444 532.441 764.181 533.221 765.117 533.776C766.053 534.313 767.119 534.582 768.315 534.582C769.407 534.582 770.369 534.348 771.201 533.88C772.033 533.412 772.683 532.701 773.151 531.748H776.713C776.037 533.481 774.945 534.816 773.437 535.752C771.946 536.688 770.239 537.156 768.315 537.156C766.616 537.156 765.065 536.766 763.661 535.986C762.257 535.189 761.139 534.088 760.307 532.684C759.492 531.28 759.085 529.694 759.085 527.926ZM794.612 518.93V537H791.648V529.096H783.146V537H780.182V518.93H783.146V526.678H791.648V518.93H794.612ZM809.408 533.308H801.842L800.542 537H797.448L803.922 518.904H807.354L813.828 537H810.708L809.408 533.308ZM808.576 530.89L805.638 522.492L802.674 530.89H808.576ZM826.029 537L821.869 529.772H819.607V537H816.643V518.93H822.883C824.27 518.93 825.44 519.173 826.393 519.658C827.364 520.143 828.083 520.793 828.551 521.608C829.037 522.423 829.279 523.333 829.279 524.338C829.279 525.517 828.933 526.591 828.239 527.562C827.563 528.515 826.515 529.165 825.093 529.512L829.565 537H826.029ZM819.607 527.406H822.883C823.993 527.406 824.825 527.129 825.379 526.574C825.951 526.019 826.237 525.274 826.237 524.338C826.237 523.402 825.96 522.674 825.405 522.154C824.851 521.617 824.01 521.348 822.883 521.348H819.607V527.406ZM836.035 518.93V537H833.071V518.93H836.035ZM851.601 518.93V521.348H846.791V537H843.827V521.348H838.991V518.93H851.601ZM867.992 518.93L862.012 530.448V537H859.048V530.448L853.042 518.93H856.344L860.53 527.796L864.716 518.93H867.992Z" fill="white"/>
</svg>
