<svg width="816" height="540" viewBox="0 0 816 540" fill="none" xmlns="http://www.w3.org/2000/svg">
<g clip-path="url(#clip0_119_212)">
<path d="M11 249C11 344.545 88.4547 422 184 422C279.545 422 357 344.545 357 249C357 153.455 279.545 76 184 76C88.4547 76 11 153.455 11 249ZM279.715 249C279.715 301.862 236.862 344.715 184 344.715C131.138 344.715 88.2848 301.862 88.2848 249C88.2848 196.138 131.138 153.285 184 153.285C236.862 153.285 279.715 196.138 279.715 249Z" fill="#CE6828"/>
<path d="M11 249C11 291.453 26.6099 332.424 54.8585 364.115C83.1071 395.806 122.022 416.003 164.196 420.863C206.37 425.723 248.859 414.905 283.575 390.47C318.291 366.035 342.81 329.688 352.466 288.347C362.122 247.007 356.239 203.559 335.939 166.274C315.638 128.989 282.337 100.47 242.374 86.1457C202.41 71.8211 158.575 72.6911 119.211 88.59C79.8471 104.489 47.7036 134.307 28.8984 172.368L98.6702 206.84C109.016 185.901 126.7 169.497 148.356 160.75C170.012 152.003 194.128 151.524 216.114 159.405C238.101 167.286 256.421 182.975 267.59 203.488C278.758 224 281.994 247.903 276.682 270.647C271.37 293.391 257.881 313.387 238.782 326.83C219.683 340.274 196.307 346.225 173.105 343.551C149.903 340.877 128.493 329.766 112.952 312.331C97.4111 294.896 88.8232 272.356 88.8232 249H11Z" fill="#FFD764"/>
<path d="M11 249C11 286.412 23.128 322.817 45.5654 352.754C68.0028 382.691 99.5404 404.548 135.449 415.048C171.358 425.547 209.703 424.123 244.734 410.989C279.765 397.855 309.594 373.719 329.749 342.199C349.904 310.68 359.299 273.477 356.523 236.167C353.748 198.858 338.953 163.454 314.357 135.263C289.761 107.073 256.689 87.6153 220.1 79.8084C183.511 72.0016 145.378 76.2661 111.417 91.9625L144.215 162.923C162.83 154.32 183.732 151.982 203.787 156.261C223.843 160.541 241.97 171.206 255.452 186.658C268.934 202.11 277.044 221.516 278.565 241.966C280.086 262.416 274.937 282.809 263.889 300.085C252.842 317.362 236.491 330.591 217.29 337.791C198.088 344.99 177.071 345.77 157.388 340.015C137.705 334.26 120.419 322.28 108.12 305.87C95.8216 289.461 89.1739 269.507 89.1739 249H11Z" fill="#9E2224"/>
<path d="M11 249C11 280.851 19.7932 312.084 36.4107 339.257C53.0281 366.43 76.8247 388.488 105.178 403C133.531 417.512 165.34 423.915 197.1 421.503C228.86 419.091 259.338 407.958 285.174 389.331C311.011 370.703 331.204 345.305 343.527 315.934C355.85 286.563 359.826 254.361 355.016 222.874C350.206 191.388 336.797 161.841 316.267 137.49C295.736 113.138 268.881 94.9265 238.662 84.8626L214.019 158.859C230.615 164.386 245.363 174.387 256.638 187.761C267.913 201.134 275.277 217.361 277.919 234.652C280.56 251.944 278.377 269.629 271.609 285.759C264.841 301.889 253.752 315.837 239.563 326.067C225.374 336.297 208.636 342.411 191.194 343.736C173.753 345.06 156.283 341.544 140.712 333.574C125.141 325.604 112.073 313.491 102.947 298.568C93.8206 283.645 88.9915 266.492 88.9915 249H11Z" fill="#D7A933"/>
<path d="M11 249C11 274.588 16.676 299.857 27.619 322.986C38.562 346.116 54.4994 366.53 74.283 382.758C94.0665 398.986 117.203 410.623 142.027 416.831C166.85 423.039 192.741 423.663 217.834 418.659C242.928 413.655 266.599 403.147 287.142 387.891C307.684 372.636 324.587 353.014 336.633 330.439C348.678 307.864 355.565 282.897 356.799 257.34C358.032 231.782 353.581 206.268 343.766 182.638L272.077 212.415C277.489 225.442 279.943 239.508 279.263 253.598C278.583 267.687 274.785 281.451 268.145 293.896C261.505 306.342 252.186 317.16 240.861 325.57C229.536 333.98 216.486 339.773 202.653 342.532C188.819 345.29 174.545 344.946 160.86 341.524C147.176 338.101 134.42 331.686 123.514 322.74C112.607 313.793 103.821 302.539 97.7885 289.788C91.7557 277.037 88.6266 263.106 88.6266 249H11Z" fill="#347B5D"/>
<path d="M11 249C11 285.083 22.2827 320.264 43.2689 349.617C64.255 378.97 93.8942 401.026 128.038 412.699C162.181 424.371 199.12 425.075 233.683 414.712C268.247 404.35 298.705 383.439 320.794 354.907L259.447 307.412C247.264 323.148 230.465 334.681 211.402 340.397C192.339 346.112 171.966 345.724 153.135 339.286C134.303 332.848 117.956 320.683 106.382 304.494C94.8069 288.305 88.5841 268.901 88.5841 249H11Z" fill="#92804C"/>
<path d="M11 249C11 286.074 22.9098 322.167 44.9742 351.96C67.0386 381.754 98.0903 403.671 133.553 414.481L156.247 340.04C136.737 334.092 119.654 322.034 107.515 305.644C95.3763 289.253 88.824 269.396 88.824 249H11Z" fill="#88451B"/>
<circle r="14" transform="matrix(-1 0 0 1 455 102)" fill="#88451B"/>
<circle r="14" transform="matrix(-1 0 0 1 455 151)" fill="#92804C"/>
<circle r="14" transform="matrix(-1 0 0 1 455 200)" fill="#347B5D"/>
<circle r="14" transform="matrix(-1 0 0 1 455 249)" fill="#D7A933"/>
<circle r="14" transform="matrix(-1 0 0 1 455 298)" fill="#9E2224"/>
<circle r="14" transform="matrix(-1 0 0 1 455 347)" fill="#FFD764"/>
<circle r="14" transform="matrix(-1 0 0 1 455 396)" fill="#CE6828"/>
<path d="M507.214 103.21C508.366 102.214 509.272 101.398 509.932 100.762C510.604 100.114 511.162 99.442 511.606 98.746C512.05 98.05 512.272 97.354 512.272 96.658C512.272 95.938 512.098 95.374 511.75 94.966C511.414 94.558 510.88 94.354 510.148 94.354C509.44 94.354 508.888 94.582 508.492 95.038C508.108 95.482 507.904 96.082 507.88 96.838H505.9C505.936 95.47 506.344 94.426 507.124 93.706C507.916 92.974 508.918 92.608 510.13 92.608C511.438 92.608 512.458 92.968 513.19 93.688C513.934 94.408 514.306 95.368 514.306 96.568C514.306 97.432 514.084 98.266 513.64 99.07C513.208 99.862 512.686 100.576 512.074 101.212C511.474 101.836 510.706 102.562 509.77 103.39L508.96 104.11H514.666V105.82H505.918V104.326L507.214 103.21ZM516.469 99.268C516.469 97.192 516.817 95.572 517.513 94.408C518.221 93.232 519.433 92.644 521.149 92.644C522.865 92.644 524.071 93.232 524.767 94.408C525.475 95.572 525.829 97.192 525.829 99.268C525.829 101.368 525.475 103.012 524.767 104.2C524.071 105.376 522.865 105.964 521.149 105.964C519.433 105.964 518.221 105.376 517.513 104.2C516.817 103.012 516.469 101.368 516.469 99.268ZM523.813 99.268C523.813 98.296 523.747 97.474 523.615 96.802C523.495 96.13 523.243 95.584 522.859 95.164C522.475 94.732 521.905 94.516 521.149 94.516C520.393 94.516 519.823 94.732 519.439 95.164C519.055 95.584 518.797 96.13 518.665 96.802C518.545 97.474 518.485 98.296 518.485 99.268C518.485 100.276 518.545 101.122 518.665 101.806C518.785 102.49 519.037 103.042 519.421 103.462C519.817 103.882 520.393 104.092 521.149 104.092C521.905 104.092 522.475 103.882 522.859 103.462C523.255 103.042 523.513 102.49 523.633 101.806C523.753 101.122 523.813 100.276 523.813 99.268ZM527.676 96.046C527.676 95.17 527.928 94.486 528.432 93.994C528.948 93.49 529.608 93.238 530.412 93.238C531.216 93.238 531.87 93.49 532.374 93.994C532.89 94.486 533.148 95.17 533.148 96.046C533.148 96.922 532.89 97.612 532.374 98.116C531.87 98.62 531.216 98.872 530.412 98.872C529.608 98.872 528.948 98.62 528.432 98.116C527.928 97.612 527.676 96.922 527.676 96.046ZM538.656 93.472L531.474 106H529.458L536.64 93.472H538.656ZM530.412 94.48C529.656 94.48 529.278 95.002 529.278 96.046C529.278 97.102 529.656 97.63 530.412 97.63C530.772 97.63 531.048 97.504 531.24 97.252C531.444 96.988 531.546 96.586 531.546 96.046C531.546 95.002 531.168 94.48 530.412 94.48ZM535.002 103.408C535.002 102.532 535.254 101.848 535.758 101.356C536.274 100.852 536.934 100.6 537.738 100.6C538.53 100.6 539.178 100.852 539.682 101.356C540.198 101.848 540.456 102.532 540.456 103.408C540.456 104.284 540.198 104.974 539.682 105.478C539.178 105.982 538.53 106.234 537.738 106.234C536.934 106.234 536.274 105.982 535.758 105.478C535.254 104.974 535.002 104.284 535.002 103.408ZM537.72 101.842C536.964 101.842 536.586 102.364 536.586 103.408C536.586 104.452 536.964 104.974 537.72 104.974C538.476 104.974 538.854 104.452 538.854 103.408C538.854 102.364 538.476 101.842 537.72 101.842ZM549.289 104.344H553.519V106H547.237V93.49H549.289V104.344ZM557.287 93.49V106H555.235V93.49H557.287ZM569.665 108.268L567.469 105.892C566.929 106.048 566.335 106.126 565.687 106.126C564.523 106.126 563.449 105.856 562.465 105.316C561.493 104.764 560.719 104.002 560.143 103.03C559.579 102.046 559.297 100.942 559.297 99.718C559.297 98.494 559.579 97.396 560.143 96.424C560.719 95.452 561.493 94.696 562.465 94.156C563.449 93.604 564.523 93.328 565.687 93.328C566.863 93.328 567.937 93.604 568.909 94.156C569.893 94.696 570.667 95.452 571.231 96.424C571.795 97.396 572.077 98.494 572.077 99.718C572.077 100.87 571.825 101.914 571.321 102.85C570.829 103.774 570.145 104.518 569.269 105.082L572.275 108.268H569.665ZM561.403 99.718C561.403 100.642 561.583 101.458 561.943 102.166C562.315 102.862 562.825 103.402 563.473 103.786C564.121 104.158 564.859 104.344 565.687 104.344C566.515 104.344 567.253 104.158 567.901 103.786C568.549 103.402 569.053 102.862 569.413 102.166C569.785 101.458 569.971 100.642 569.971 99.718C569.971 98.794 569.785 97.984 569.413 97.288C569.053 96.592 568.549 96.058 567.901 95.686C567.253 95.314 566.515 95.128 565.687 95.128C564.859 95.128 564.121 95.314 563.473 95.686C562.825 96.058 562.315 96.592 561.943 97.288C561.583 97.984 561.403 98.794 561.403 99.718ZM576.183 93.49V101.464C576.183 102.412 576.429 103.126 576.921 103.606C577.425 104.086 578.121 104.326 579.009 104.326C579.909 104.326 580.605 104.086 581.097 103.606C581.601 103.126 581.853 102.412 581.853 101.464V93.49H583.905V101.428C583.905 102.448 583.683 103.312 583.239 104.02C582.795 104.728 582.201 105.256 581.457 105.604C580.713 105.952 579.891 106.126 578.991 106.126C578.091 106.126 577.269 105.952 576.525 105.604C575.793 105.256 575.211 104.728 574.779 104.02C574.347 103.312 574.131 102.448 574.131 101.428V93.49H576.183ZM588.629 93.49V106H586.577V93.49H588.629ZM595.409 93.49C596.741 93.49 597.905 93.748 598.901 94.264C599.909 94.768 600.683 95.5 601.223 96.46C601.775 97.408 602.051 98.518 602.051 99.79C602.051 101.062 601.775 102.166 601.223 103.102C600.683 104.038 599.909 104.758 598.901 105.262C597.905 105.754 596.741 106 595.409 106H591.323V93.49H595.409ZM595.409 104.326C596.873 104.326 597.995 103.93 598.775 103.138C599.555 102.346 599.945 101.23 599.945 99.79C599.945 98.338 599.555 97.204 598.775 96.388C597.995 95.572 596.873 95.164 595.409 95.164H593.375V104.326H595.409ZM606.136 93.49V106H604.084V93.49H606.136ZM616.912 93.49V95.164H613.582V106H611.53V95.164H608.182V93.49H616.912ZM628.261 93.49L624.121 101.464V106H622.069V101.464L617.911 93.49H620.197L623.095 99.628L625.993 93.49H628.261Z" fill="#333333"/>
<path d="M507.214 153.21C508.366 152.214 509.272 151.398 509.932 150.762C510.604 150.114 511.162 149.442 511.606 148.746C512.05 148.05 512.272 147.354 512.272 146.658C512.272 145.938 512.098 145.374 511.75 144.966C511.414 144.558 510.88 144.354 510.148 144.354C509.44 144.354 508.888 144.582 508.492 145.038C508.108 145.482 507.904 146.082 507.88 146.838H505.9C505.936 145.47 506.344 144.426 507.124 143.706C507.916 142.974 508.918 142.608 510.13 142.608C511.438 142.608 512.458 142.968 513.19 143.688C513.934 144.408 514.306 145.368 514.306 146.568C514.306 147.432 514.084 148.266 513.64 149.07C513.208 149.862 512.686 150.576 512.074 151.212C511.474 151.836 510.706 152.562 509.77 153.39L508.96 154.11H514.666V155.82H505.918V154.326L507.214 153.21ZM516.469 149.268C516.469 147.192 516.817 145.572 517.513 144.408C518.221 143.232 519.433 142.644 521.149 142.644C522.865 142.644 524.071 143.232 524.767 144.408C525.475 145.572 525.829 147.192 525.829 149.268C525.829 151.368 525.475 153.012 524.767 154.2C524.071 155.376 522.865 155.964 521.149 155.964C519.433 155.964 518.221 155.376 517.513 154.2C516.817 153.012 516.469 151.368 516.469 149.268ZM523.813 149.268C523.813 148.296 523.747 147.474 523.615 146.802C523.495 146.13 523.243 145.584 522.859 145.164C522.475 144.732 521.905 144.516 521.149 144.516C520.393 144.516 519.823 144.732 519.439 145.164C519.055 145.584 518.797 146.13 518.665 146.802C518.545 147.474 518.485 148.296 518.485 149.268C518.485 150.276 518.545 151.122 518.665 151.806C518.785 152.49 519.037 153.042 519.421 153.462C519.817 153.882 520.393 154.092 521.149 154.092C521.905 154.092 522.475 153.882 522.859 153.462C523.255 153.042 523.513 152.49 523.633 151.806C523.753 151.122 523.813 150.276 523.813 149.268ZM527.676 146.046C527.676 145.17 527.928 144.486 528.432 143.994C528.948 143.49 529.608 143.238 530.412 143.238C531.216 143.238 531.87 143.49 532.374 143.994C532.89 144.486 533.148 145.17 533.148 146.046C533.148 146.922 532.89 147.612 532.374 148.116C531.87 148.62 531.216 148.872 530.412 148.872C529.608 148.872 528.948 148.62 528.432 148.116C527.928 147.612 527.676 146.922 527.676 146.046ZM538.656 143.472L531.474 156H529.458L536.64 143.472H538.656ZM530.412 144.48C529.656 144.48 529.278 145.002 529.278 146.046C529.278 147.102 529.656 147.63 530.412 147.63C530.772 147.63 531.048 147.504 531.24 147.252C531.444 146.988 531.546 146.586 531.546 146.046C531.546 145.002 531.168 144.48 530.412 144.48ZM535.002 153.408C535.002 152.532 535.254 151.848 535.758 151.356C536.274 150.852 536.934 150.6 537.738 150.6C538.53 150.6 539.178 150.852 539.682 151.356C540.198 151.848 540.456 152.532 540.456 153.408C540.456 154.284 540.198 154.974 539.682 155.478C539.178 155.982 538.53 156.234 537.738 156.234C536.934 156.234 536.274 155.982 535.758 155.478C535.254 154.974 535.002 154.284 535.002 153.408ZM537.72 151.842C536.964 151.842 536.586 152.364 536.586 153.408C536.586 154.452 536.964 154.974 537.72 154.974C538.476 154.974 538.854 154.452 538.854 153.408C538.854 152.364 538.476 151.842 537.72 151.842ZM549.289 145.146V148.818H553.609V150.492H549.289V154.326H554.149V156H547.237V143.472H554.149V145.146H549.289ZM555.992 149.718C555.992 148.494 556.274 147.396 556.838 146.424C557.414 145.452 558.188 144.696 559.16 144.156C560.144 143.604 561.218 143.328 562.382 143.328C563.714 143.328 564.896 143.658 565.928 144.318C566.972 144.966 567.728 145.89 568.196 147.09H565.73C565.406 146.43 564.956 145.938 564.38 145.614C563.804 145.29 563.138 145.128 562.382 145.128C561.554 145.128 560.816 145.314 560.168 145.686C559.52 146.058 559.01 146.592 558.638 147.288C558.278 147.984 558.098 148.794 558.098 149.718C558.098 150.642 558.278 151.452 558.638 152.148C559.01 152.844 559.52 153.384 560.168 153.768C560.816 154.14 561.554 154.326 562.382 154.326C563.138 154.326 563.804 154.164 564.38 153.84C564.956 153.516 565.406 153.024 565.73 152.364H568.196C567.728 153.564 566.972 154.488 565.928 155.136C564.896 155.784 563.714 156.108 562.382 156.108C561.206 156.108 560.132 155.838 559.16 155.298C558.188 154.746 557.414 153.984 556.838 153.012C556.274 152.04 555.992 150.942 555.992 149.718ZM576.304 156.126C575.14 156.126 574.066 155.856 573.082 155.316C572.11 154.764 571.336 154.002 570.76 153.03C570.196 152.046 569.914 150.942 569.914 149.718C569.914 148.494 570.196 147.396 570.76 146.424C571.336 145.452 572.11 144.696 573.082 144.156C574.066 143.604 575.14 143.328 576.304 143.328C577.48 143.328 578.554 143.604 579.526 144.156C580.51 144.696 581.284 145.452 581.848 146.424C582.412 147.396 582.694 148.494 582.694 149.718C582.694 150.942 582.412 152.046 581.848 153.03C581.284 154.002 580.51 154.764 579.526 155.316C578.554 155.856 577.48 156.126 576.304 156.126ZM576.304 154.344C577.132 154.344 577.87 154.158 578.518 153.786C579.166 153.402 579.67 152.862 580.03 152.166C580.402 151.458 580.588 150.642 580.588 149.718C580.588 148.794 580.402 147.984 580.03 147.288C579.67 146.592 579.166 146.058 578.518 145.686C577.87 145.314 577.132 145.128 576.304 145.128C575.476 145.128 574.738 145.314 574.09 145.686C573.442 146.058 572.932 146.592 572.56 147.288C572.2 147.984 572.02 148.794 572.02 149.718C572.02 150.642 572.2 151.458 572.56 152.166C572.932 152.862 573.442 153.402 574.09 153.786C574.738 154.158 575.476 154.344 576.304 154.344ZM588.835 156.126C587.995 156.126 587.239 155.982 586.567 155.694C585.895 155.394 585.367 154.974 584.983 154.434C584.599 153.894 584.407 153.264 584.407 152.544H586.603C586.651 153.084 586.861 153.528 587.233 153.876C587.617 154.224 588.151 154.398 588.835 154.398C589.543 154.398 590.095 154.23 590.491 153.894C590.887 153.546 591.085 153.102 591.085 152.562C591.085 152.142 590.959 151.8 590.707 151.536C590.467 151.272 590.161 151.068 589.789 150.924C589.429 150.78 588.925 150.624 588.277 150.456C587.461 150.24 586.795 150.024 586.279 149.808C585.775 149.58 585.343 149.232 584.983 148.764C584.623 148.296 584.443 147.672 584.443 146.892C584.443 146.172 584.623 145.542 584.983 145.002C585.343 144.462 585.847 144.048 586.495 143.76C587.143 143.472 587.893 143.328 588.745 143.328C589.957 143.328 590.947 143.634 591.715 144.246C592.495 144.846 592.927 145.674 593.011 146.73H590.743C590.707 146.274 590.491 145.884 590.095 145.56C589.699 145.236 589.177 145.074 588.529 145.074C587.941 145.074 587.461 145.224 587.089 145.524C586.717 145.824 586.531 146.256 586.531 146.82C586.531 147.204 586.645 147.522 586.873 147.774C587.113 148.014 587.413 148.206 587.773 148.35C588.133 148.494 588.625 148.65 589.249 148.818C590.077 149.046 590.749 149.274 591.265 149.502C591.793 149.73 592.237 150.084 592.597 150.564C592.969 151.032 593.155 151.662 593.155 152.454C593.155 153.09 592.981 153.69 592.633 154.254C592.297 154.818 591.799 155.274 591.139 155.622C590.491 155.958 589.723 156.126 588.835 156.126ZM604.847 143.49L600.707 151.464V156H598.655V151.464L594.497 143.49H596.783L599.681 149.628L602.579 143.49H604.847ZM610.597 156.126C609.757 156.126 609.001 155.982 608.329 155.694C607.657 155.394 607.129 154.974 606.745 154.434C606.361 153.894 606.169 153.264 606.169 152.544H608.365C608.413 153.084 608.623 153.528 608.995 153.876C609.379 154.224 609.913 154.398 610.597 154.398C611.305 154.398 611.857 154.23 612.253 153.894C612.649 153.546 612.847 153.102 612.847 152.562C612.847 152.142 612.721 151.8 612.469 151.536C612.229 151.272 611.923 151.068 611.551 150.924C611.191 150.78 610.687 150.624 610.039 150.456C609.223 150.24 608.557 150.024 608.041 149.808C607.537 149.58 607.105 149.232 606.745 148.764C606.385 148.296 606.205 147.672 606.205 146.892C606.205 146.172 606.385 145.542 606.745 145.002C607.105 144.462 607.609 144.048 608.257 143.76C608.905 143.472 609.655 143.328 610.507 143.328C611.719 143.328 612.709 143.634 613.477 144.246C614.257 144.846 614.689 145.674 614.773 146.73H612.505C612.469 146.274 612.253 145.884 611.857 145.56C611.461 145.236 610.939 145.074 610.291 145.074C609.703 145.074 609.223 145.224 608.851 145.524C608.479 145.824 608.293 146.256 608.293 146.82C608.293 147.204 608.407 147.522 608.635 147.774C608.875 148.014 609.175 148.206 609.535 148.35C609.895 148.494 610.387 148.65 611.011 148.818C611.839 149.046 612.511 149.274 613.027 149.502C613.555 149.73 613.999 150.084 614.359 150.564C614.731 151.032 614.917 151.662 614.917 152.454C614.917 153.09 614.743 153.69 614.395 154.254C614.059 154.818 613.561 155.274 612.901 155.622C612.253 155.958 611.485 156.126 610.597 156.126ZM625.42 143.49V145.164H622.09V156H620.038V145.164H616.69V143.49H625.42ZM629.55 145.146V148.818H633.87V150.492H629.55V154.326H634.41V156H627.498V143.472H634.41V145.146H629.55ZM650.114 143.49V156H648.062V147.432L644.246 156H642.824L638.99 147.432V156H636.938V143.49H639.152L643.544 153.3L647.918 143.49H650.114ZM661.573 143.49C662.905 143.49 664.069 143.748 665.065 144.264C666.073 144.768 666.847 145.5 667.387 146.46C667.939 147.408 668.215 148.518 668.215 149.79C668.215 151.062 667.939 152.166 667.387 153.102C666.847 154.038 666.073 154.758 665.065 155.262C664.069 155.754 662.905 156 661.573 156H657.487V143.49H661.573ZM661.573 154.326C663.037 154.326 664.159 153.93 664.939 153.138C665.719 152.346 666.109 151.23 666.109 149.79C666.109 148.338 665.719 147.204 664.939 146.388C664.159 145.572 663.037 145.164 661.573 145.164H659.539V154.326H661.573ZM672.3 145.146V148.818H676.62V150.492H672.3V154.326H677.16V156H670.248V143.472H677.16V145.146H672.3ZM690.47 143.49L685.772 156H683.396L678.68 143.49H680.876L684.584 153.894L688.31 143.49H690.47ZM694.238 145.146V148.818H698.558V150.492H694.238V154.326H699.098V156H692.186V143.472H699.098V145.146H694.238ZM703.677 154.344H707.907V156H701.625V143.49H703.677V154.344ZM715.329 156.126C714.165 156.126 713.091 155.856 712.107 155.316C711.135 154.764 710.361 154.002 709.785 153.03C709.221 152.046 708.939 150.942 708.939 149.718C708.939 148.494 709.221 147.396 709.785 146.424C710.361 145.452 711.135 144.696 712.107 144.156C713.091 143.604 714.165 143.328 715.329 143.328C716.505 143.328 717.579 143.604 718.551 144.156C719.535 144.696 720.309 145.452 720.873 146.424C721.437 147.396 721.719 148.494 721.719 149.718C721.719 150.942 721.437 152.046 720.873 153.03C720.309 154.002 719.535 154.764 718.551 155.316C717.579 155.856 716.505 156.126 715.329 156.126ZM715.329 154.344C716.157 154.344 716.895 154.158 717.543 153.786C718.191 153.402 718.695 152.862 719.055 152.166C719.427 151.458 719.613 150.642 719.613 149.718C719.613 148.794 719.427 147.984 719.055 147.288C718.695 146.592 718.191 146.058 717.543 145.686C716.895 145.314 716.157 145.128 715.329 145.128C714.501 145.128 713.763 145.314 713.115 145.686C712.467 146.058 711.957 146.592 711.585 147.288C711.225 147.984 711.045 148.794 711.045 149.718C711.045 150.642 711.225 151.458 711.585 152.166C711.957 152.862 712.467 153.402 713.115 153.786C713.763 154.158 714.501 154.344 715.329 154.344ZM732.487 147.216C732.487 147.852 732.337 148.452 732.037 149.016C731.737 149.58 731.257 150.042 730.597 150.402C729.937 150.75 729.091 150.924 728.059 150.924H725.791V156H723.739V143.49H728.059C729.019 143.49 729.829 143.658 730.489 143.994C731.161 144.318 731.659 144.762 731.983 145.326C732.319 145.89 732.487 146.52 732.487 147.216ZM728.059 149.25C728.839 149.25 729.421 149.076 729.805 148.728C730.189 148.368 730.381 147.864 730.381 147.216C730.381 145.848 729.607 145.164 728.059 145.164H725.791V149.25H728.059ZM747.62 143.49V156H745.568V147.432L741.752 156H740.33L736.496 147.432V156H734.444V143.49H736.658L741.05 153.3L745.424 143.49H747.62ZM752.369 145.146V148.818H756.689V150.492H752.369V154.326H757.229V156H750.317V143.472H757.229V145.146H752.369ZM770.034 156H767.982L761.808 146.658V156H759.756V143.472H761.808L767.982 152.796V143.472H770.034V156ZM780.811 143.49V145.164H777.481V156H775.429V145.164H772.081V143.49H780.811Z" fill="#333333"/>
<path d="M503.81 194.75V192.878H507.554V206H505.484V194.75H503.81ZM517.429 195.92C517.297 195.368 517.057 194.954 516.709 194.678C516.361 194.402 515.875 194.264 515.251 194.264C514.303 194.264 513.595 194.63 513.127 195.362C512.659 196.082 512.413 197.282 512.389 198.962C512.701 198.434 513.157 198.026 513.757 197.738C514.357 197.45 515.005 197.306 515.701 197.306C516.493 197.306 517.189 197.48 517.789 197.828C518.401 198.164 518.875 198.656 519.211 199.304C519.559 199.952 519.733 200.726 519.733 201.626C519.733 202.466 519.565 203.216 519.229 203.876C518.905 204.536 518.419 205.058 517.771 205.442C517.123 205.814 516.343 206 515.431 206C514.195 206 513.223 205.73 512.515 205.19C511.819 204.638 511.327 203.864 511.039 202.868C510.763 201.872 510.625 200.63 510.625 199.142C510.625 194.75 512.173 192.554 515.269 192.554C516.469 192.554 517.411 192.878 518.095 193.526C518.791 194.174 519.199 194.972 519.319 195.92H517.429ZM515.251 199.034C514.519 199.034 513.895 199.256 513.379 199.7C512.875 200.132 512.623 200.762 512.623 201.59C512.623 202.418 512.857 203.078 513.325 203.57C513.805 204.05 514.471 204.29 515.323 204.29C516.079 204.29 516.673 204.056 517.105 203.588C517.549 203.12 517.771 202.496 517.771 201.716C517.771 200.9 517.555 200.252 517.123 199.772C516.703 199.28 516.079 199.034 515.251 199.034ZM523.02 206.126C522.648 206.126 522.336 206 522.084 205.748C521.832 205.496 521.706 205.184 521.706 204.812C521.706 204.44 521.832 204.128 522.084 203.876C522.336 203.624 522.648 203.498 523.02 203.498C523.38 203.498 523.686 203.624 523.938 203.876C524.19 204.128 524.316 204.44 524.316 204.812C524.316 205.184 524.19 205.496 523.938 205.748C523.686 206 523.38 206.126 523.02 206.126ZM533.32 195.92C533.188 195.368 532.948 194.954 532.6 194.678C532.252 194.402 531.766 194.264 531.142 194.264C530.194 194.264 529.486 194.63 529.018 195.362C528.55 196.082 528.304 197.282 528.28 198.962C528.592 198.434 529.048 198.026 529.648 197.738C530.248 197.45 530.896 197.306 531.592 197.306C532.384 197.306 533.08 197.48 533.68 197.828C534.292 198.164 534.766 198.656 535.102 199.304C535.45 199.952 535.624 200.726 535.624 201.626C535.624 202.466 535.456 203.216 535.12 203.876C534.796 204.536 534.31 205.058 533.662 205.442C533.014 205.814 532.234 206 531.322 206C530.086 206 529.114 205.73 528.406 205.19C527.71 204.638 527.218 203.864 526.93 202.868C526.654 201.872 526.516 200.63 526.516 199.142C526.516 194.75 528.064 192.554 531.16 192.554C532.36 192.554 533.302 192.878 533.986 193.526C534.682 194.174 535.09 194.972 535.21 195.92H533.32ZM531.142 199.034C530.41 199.034 529.786 199.256 529.27 199.7C528.766 200.132 528.514 200.762 528.514 201.59C528.514 202.418 528.748 203.078 529.216 203.57C529.696 204.05 530.362 204.29 531.214 204.29C531.97 204.29 532.564 204.056 532.996 203.588C533.44 203.12 533.662 202.496 533.662 201.716C533.662 200.9 533.446 200.252 533.014 199.772C532.594 199.28 531.97 199.034 531.142 199.034ZM546.128 194.462L541.124 206H539.054L544.112 194.678H537.452V192.932H546.128V194.462ZM547.561 196.046C547.561 195.17 547.813 194.486 548.317 193.994C548.833 193.49 549.493 193.238 550.297 193.238C551.101 193.238 551.755 193.49 552.259 193.994C552.775 194.486 553.033 195.17 553.033 196.046C553.033 196.922 552.775 197.612 552.259 198.116C551.755 198.62 551.101 198.872 550.297 198.872C549.493 198.872 548.833 198.62 548.317 198.116C547.813 197.612 547.561 196.922 547.561 196.046ZM558.541 193.472L551.359 206H549.343L556.525 193.472H558.541ZM550.297 194.48C549.541 194.48 549.163 195.002 549.163 196.046C549.163 197.102 549.541 197.63 550.297 197.63C550.657 197.63 550.933 197.504 551.125 197.252C551.329 196.988 551.431 196.586 551.431 196.046C551.431 195.002 551.053 194.48 550.297 194.48ZM554.887 203.408C554.887 202.532 555.139 201.848 555.643 201.356C556.159 200.852 556.819 200.6 557.623 200.6C558.415 200.6 559.063 200.852 559.567 201.356C560.083 201.848 560.341 202.532 560.341 203.408C560.341 204.284 560.083 204.974 559.567 205.478C559.063 205.982 558.415 206.234 557.623 206.234C556.819 206.234 556.159 205.982 555.643 205.478C555.139 204.974 554.887 204.284 554.887 203.408ZM557.605 201.842C556.849 201.842 556.471 202.364 556.471 203.408C556.471 204.452 556.849 204.974 557.605 204.974C558.361 204.974 558.739 204.452 558.739 203.408C558.739 202.364 558.361 201.842 557.605 201.842ZM575.869 197.216C575.869 197.852 575.719 198.452 575.419 199.016C575.119 199.58 574.639 200.042 573.979 200.402C573.319 200.75 572.473 200.924 571.441 200.924H569.173V206H567.121V193.49H571.441C572.401 193.49 573.211 193.658 573.871 193.994C574.543 194.318 575.041 194.762 575.365 195.326C575.701 195.89 575.869 196.52 575.869 197.216ZM571.441 199.25C572.221 199.25 572.803 199.076 573.187 198.728C573.571 198.368 573.763 197.864 573.763 197.216C573.763 195.848 572.989 195.164 571.441 195.164H569.173V199.25H571.441ZM584.325 206L581.445 200.996H579.879V206H577.827V193.49H582.147C583.107 193.49 583.917 193.658 584.577 193.994C585.249 194.33 585.747 194.78 586.071 195.344C586.407 195.908 586.575 196.538 586.575 197.234C586.575 198.05 586.335 198.794 585.855 199.466C585.387 200.126 584.661 200.576 583.677 200.816L586.773 206H584.325ZM579.879 199.358H582.147C582.915 199.358 583.491 199.166 583.875 198.782C584.271 198.398 584.469 197.882 584.469 197.234C584.469 196.586 584.277 196.082 583.893 195.722C583.509 195.35 582.927 195.164 582.147 195.164H579.879V199.358ZM591.252 195.146V198.818H595.572V200.492H591.252V204.326H596.112V206H589.2V193.472H596.112V195.146H591.252ZM602.761 206.126C601.921 206.126 601.165 205.982 600.493 205.694C599.821 205.394 599.293 204.974 598.909 204.434C598.525 203.894 598.333 203.264 598.333 202.544H600.529C600.577 203.084 600.787 203.528 601.159 203.876C601.543 204.224 602.077 204.398 602.761 204.398C603.469 204.398 604.021 204.23 604.417 203.894C604.813 203.546 605.011 203.102 605.011 202.562C605.011 202.142 604.885 201.8 604.633 201.536C604.393 201.272 604.087 201.068 603.715 200.924C603.355 200.78 602.851 200.624 602.203 200.456C601.387 200.24 600.721 200.024 600.205 199.808C599.701 199.58 599.269 199.232 598.909 198.764C598.549 198.296 598.369 197.672 598.369 196.892C598.369 196.172 598.549 195.542 598.909 195.002C599.269 194.462 599.773 194.048 600.421 193.76C601.069 193.472 601.819 193.328 602.671 193.328C603.883 193.328 604.873 193.634 605.641 194.246C606.421 194.846 606.853 195.674 606.937 196.73H604.669C604.633 196.274 604.417 195.884 604.021 195.56C603.625 195.236 603.103 195.074 602.455 195.074C601.867 195.074 601.387 195.224 601.015 195.524C600.643 195.824 600.457 196.256 600.457 196.82C600.457 197.204 600.571 197.522 600.799 197.774C601.039 198.014 601.339 198.206 601.699 198.35C602.059 198.494 602.551 198.65 603.175 198.818C604.003 199.046 604.675 199.274 605.191 199.502C605.719 199.73 606.163 200.084 606.523 200.564C606.895 201.032 607.081 201.662 607.081 202.454C607.081 203.09 606.907 203.69 606.559 204.254C606.223 204.818 605.725 205.274 605.065 205.622C604.417 205.958 603.649 206.126 602.761 206.126ZM617.044 203.444H611.806L610.906 206H608.764L613.246 193.472H615.622L620.104 206H617.944L617.044 203.444ZM616.468 201.77L614.434 195.956L612.382 201.77H616.468ZM624.105 204.344H628.335V206H622.053V193.49H624.105V204.344ZM632.103 195.146V198.818H636.423V200.492H632.103V204.326H636.963V206H630.051V193.472H636.963V195.146H632.103Z" fill="#333333"/>
<path d="M505.81 244.75V242.878H509.554V256H507.484V244.75H505.81ZM520.833 244.642H514.803V248.224C515.055 247.888 515.427 247.606 515.919 247.378C516.423 247.15 516.957 247.036 517.521 247.036C518.529 247.036 519.345 247.252 519.969 247.684C520.605 248.116 521.055 248.662 521.319 249.322C521.595 249.982 521.733 250.678 521.733 251.41C521.733 252.298 521.559 253.09 521.211 253.786C520.875 254.47 520.365 255.01 519.681 255.406C519.009 255.802 518.181 256 517.197 256C515.889 256 514.839 255.676 514.047 255.028C513.255 254.38 512.781 253.522 512.625 252.454H514.623C514.755 253.018 515.049 253.468 515.505 253.804C515.961 254.128 516.531 254.29 517.215 254.29C518.067 254.29 518.703 254.032 519.123 253.516C519.555 253 519.771 252.316 519.771 251.464C519.771 250.6 519.555 249.94 519.123 249.484C518.691 249.016 518.055 248.782 517.215 248.782C516.627 248.782 516.129 248.932 515.721 249.232C515.325 249.52 515.037 249.916 514.857 250.42H512.913V242.842H520.833V244.642ZM523.545 246.046C523.545 245.17 523.797 244.486 524.301 243.994C524.817 243.49 525.477 243.238 526.281 243.238C527.085 243.238 527.739 243.49 528.243 243.994C528.759 244.486 529.017 245.17 529.017 246.046C529.017 246.922 528.759 247.612 528.243 248.116C527.739 248.62 527.085 248.872 526.281 248.872C525.477 248.872 524.817 248.62 524.301 248.116C523.797 247.612 523.545 246.922 523.545 246.046ZM534.525 243.472L527.343 256H525.327L532.509 243.472H534.525ZM526.281 244.48C525.525 244.48 525.147 245.002 525.147 246.046C525.147 247.102 525.525 247.63 526.281 247.63C526.641 247.63 526.917 247.504 527.109 247.252C527.313 246.988 527.415 246.586 527.415 246.046C527.415 245.002 527.037 244.48 526.281 244.48ZM530.871 253.408C530.871 252.532 531.123 251.848 531.627 251.356C532.143 250.852 532.803 250.6 533.607 250.6C534.399 250.6 535.047 250.852 535.551 251.356C536.067 251.848 536.325 252.532 536.325 253.408C536.325 254.284 536.067 254.974 535.551 255.478C535.047 255.982 534.399 256.234 533.607 256.234C532.803 256.234 532.143 255.982 531.627 255.478C531.123 254.974 530.871 254.284 530.871 253.408ZM533.589 251.842C532.833 251.842 532.455 252.364 532.455 253.408C532.455 254.452 532.833 254.974 533.589 254.974C534.345 254.974 534.723 254.452 534.723 253.408C534.723 252.364 534.345 251.842 533.589 251.842ZM550.648 253.444H545.41L544.51 256H542.368L546.85 243.472H549.226L553.708 256H551.548L550.648 253.444ZM550.072 251.77L548.038 245.956L545.986 251.77H550.072ZM557.709 243.49V256H555.657V243.49H557.709ZM566.901 256L564.021 250.996H562.455V256H560.403V243.49H564.723C565.683 243.49 566.493 243.658 567.153 243.994C567.825 244.33 568.323 244.78 568.647 245.344C568.983 245.908 569.151 246.538 569.151 247.234C569.151 248.05 568.911 248.794 568.431 249.466C567.963 250.126 567.237 250.576 566.253 250.816L569.349 256H566.901ZM562.455 249.358H564.723C565.491 249.358 566.067 249.166 566.451 248.782C566.847 248.398 567.045 247.882 567.045 247.234C567.045 246.586 566.853 246.082 566.469 245.722C566.085 245.35 565.503 245.164 564.723 245.164H562.455V249.358ZM575.862 243.49C577.194 243.49 578.358 243.748 579.354 244.264C580.362 244.768 581.136 245.5 581.676 246.46C582.228 247.408 582.504 248.518 582.504 249.79C582.504 251.062 582.228 252.166 581.676 253.102C581.136 254.038 580.362 254.758 579.354 255.262C578.358 255.754 577.194 256 575.862 256H571.776V243.49H575.862ZM575.862 254.326C577.326 254.326 578.448 253.93 579.228 253.138C580.008 252.346 580.398 251.23 580.398 249.79C580.398 248.338 580.008 247.204 579.228 246.388C578.448 245.572 577.326 245.164 575.862 245.164H573.828V254.326H575.862ZM591.036 256L588.156 250.996H586.59V256H584.538V243.49H588.858C589.818 243.49 590.628 243.658 591.288 243.994C591.96 244.33 592.458 244.78 592.782 245.344C593.118 245.908 593.286 246.538 593.286 247.234C593.286 248.05 593.046 248.794 592.566 249.466C592.098 250.126 591.372 250.576 590.388 250.816L593.484 256H591.036ZM586.59 249.358H588.858C589.626 249.358 590.202 249.166 590.586 248.782C590.982 248.398 591.18 247.882 591.18 247.234C591.18 246.586 590.988 246.082 590.604 245.722C590.22 245.35 589.638 245.164 588.858 245.164H586.59V249.358ZM601.617 256.126C600.453 256.126 599.379 255.856 598.395 255.316C597.423 254.764 596.649 254.002 596.073 253.03C595.509 252.046 595.227 250.942 595.227 249.718C595.227 248.494 595.509 247.396 596.073 246.424C596.649 245.452 597.423 244.696 598.395 244.156C599.379 243.604 600.453 243.328 601.617 243.328C602.793 243.328 603.867 243.604 604.839 244.156C605.823 244.696 606.597 245.452 607.161 246.424C607.725 247.396 608.007 248.494 608.007 249.718C608.007 250.942 607.725 252.046 607.161 253.03C606.597 254.002 605.823 254.764 604.839 255.316C603.867 255.856 602.793 256.126 601.617 256.126ZM601.617 254.344C602.445 254.344 603.183 254.158 603.831 253.786C604.479 253.402 604.983 252.862 605.343 252.166C605.715 251.458 605.901 250.642 605.901 249.718C605.901 248.794 605.715 247.984 605.343 247.288C604.983 246.592 604.479 246.058 603.831 245.686C603.183 245.314 602.445 245.128 601.617 245.128C600.789 245.128 600.051 245.314 599.403 245.686C598.755 246.058 598.245 246.592 597.873 247.288C597.513 247.984 597.333 248.794 597.333 249.718C597.333 250.642 597.513 251.458 597.873 252.166C598.245 252.862 598.755 253.402 599.403 253.786C600.051 254.158 600.789 254.344 601.617 254.344ZM618.774 247.216C618.774 247.852 618.624 248.452 618.324 249.016C618.024 249.58 617.544 250.042 616.884 250.402C616.224 250.75 615.378 250.924 614.346 250.924H612.078V256H610.026V243.49H614.346C615.306 243.49 616.116 243.658 616.776 243.994C617.448 244.318 617.946 244.762 618.27 245.326C618.606 245.89 618.774 246.52 618.774 247.216ZM614.346 249.25C615.126 249.25 615.708 249.076 616.092 248.728C616.476 248.368 616.668 247.864 616.668 247.216C616.668 245.848 615.894 245.164 614.346 245.164H612.078V249.25H614.346Z" fill="#333333"/>
<path d="M505.81 294.75V292.878H509.554V306H507.484V294.75H505.81ZM512.373 299.268C512.373 297.192 512.721 295.572 513.417 294.408C514.125 293.232 515.337 292.644 517.053 292.644C518.769 292.644 519.975 293.232 520.671 294.408C521.379 295.572 521.733 297.192 521.733 299.268C521.733 301.368 521.379 303.012 520.671 304.2C519.975 305.376 518.769 305.964 517.053 305.964C515.337 305.964 514.125 305.376 513.417 304.2C512.721 303.012 512.373 301.368 512.373 299.268ZM519.717 299.268C519.717 298.296 519.651 297.474 519.519 296.802C519.399 296.13 519.147 295.584 518.763 295.164C518.379 294.732 517.809 294.516 517.053 294.516C516.297 294.516 515.727 294.732 515.343 295.164C514.959 295.584 514.701 296.13 514.569 296.802C514.449 297.474 514.389 298.296 514.389 299.268C514.389 300.276 514.449 301.122 514.569 301.806C514.689 302.49 514.941 303.042 515.325 303.462C515.721 303.882 516.297 304.092 517.053 304.092C517.809 304.092 518.379 303.882 518.763 303.462C519.159 303.042 519.417 302.49 519.537 301.806C519.657 301.122 519.717 300.276 519.717 299.268ZM523.58 296.046C523.58 295.17 523.832 294.486 524.336 293.994C524.852 293.49 525.512 293.238 526.316 293.238C527.12 293.238 527.774 293.49 528.278 293.994C528.794 294.486 529.052 295.17 529.052 296.046C529.052 296.922 528.794 297.612 528.278 298.116C527.774 298.62 527.12 298.872 526.316 298.872C525.512 298.872 524.852 298.62 524.336 298.116C523.832 297.612 523.58 296.922 523.58 296.046ZM534.56 293.472L527.378 306H525.362L532.544 293.472H534.56ZM526.316 294.48C525.56 294.48 525.182 295.002 525.182 296.046C525.182 297.102 525.56 297.63 526.316 297.63C526.676 297.63 526.952 297.504 527.144 297.252C527.348 296.988 527.45 296.586 527.45 296.046C527.45 295.002 527.072 294.48 526.316 294.48ZM530.906 303.408C530.906 302.532 531.158 301.848 531.662 301.356C532.178 300.852 532.838 300.6 533.642 300.6C534.434 300.6 535.082 300.852 535.586 301.356C536.102 301.848 536.36 302.532 536.36 303.408C536.36 304.284 536.102 304.974 535.586 305.478C535.082 305.982 534.434 306.234 533.642 306.234C532.838 306.234 532.178 305.982 531.662 305.478C531.158 304.974 530.906 304.284 530.906 303.408ZM533.624 301.842C532.868 301.842 532.49 302.364 532.49 303.408C532.49 304.452 532.868 304.974 533.624 304.974C534.38 304.974 534.758 304.452 534.758 303.408C534.758 302.364 534.38 301.842 533.624 301.842ZM556.317 293.49V306H554.265V297.432L550.449 306H549.027L545.193 297.432V306H543.141V293.49H545.355L549.747 303.3L554.121 293.49H556.317ZM566.556 303.444H561.318L560.418 306H558.276L562.758 293.472H565.134L569.616 306H567.456L566.556 303.444ZM565.98 301.77L563.946 295.956L561.894 301.77H565.98ZM578.063 306L575.183 300.996H573.617V306H571.565V293.49H575.885C576.845 293.49 577.655 293.658 578.315 293.994C578.987 294.33 579.485 294.78 579.809 295.344C580.145 295.908 580.313 296.538 580.313 297.234C580.313 298.05 580.073 298.794 579.593 299.466C579.125 300.126 578.399 300.576 577.415 300.816L580.511 306H578.063ZM573.617 299.358H575.885C576.653 299.358 577.229 299.166 577.613 298.782C578.009 298.398 578.207 297.882 578.207 297.234C578.207 296.586 578.015 296.082 577.631 295.722C577.247 295.35 576.665 295.164 575.885 295.164H573.617V299.358ZM589.832 306L584.99 300.402V306H582.938V293.49H584.99V299.196L589.85 293.49H592.424L586.988 299.754L592.514 306H589.832ZM596.381 295.146V298.818H600.701V300.492H596.381V304.326H601.241V306H594.329V293.472H601.241V295.146H596.381ZM611.85 293.49V295.164H608.52V306H606.468V295.164H603.12V293.49H611.85ZM615.98 293.49V306H613.928V293.49H615.98ZM628.952 306H626.9L620.726 296.658V306H618.674V293.472H620.726L626.9 302.796V293.472H628.952V306ZM640.701 297.09C640.377 296.466 639.927 295.998 639.351 295.686C638.775 295.362 638.109 295.2 637.353 295.2C636.525 295.2 635.787 295.386 635.139 295.758C634.491 296.13 633.981 296.658 633.609 297.342C633.249 298.026 633.069 298.818 633.069 299.718C633.069 300.618 633.249 301.416 633.609 302.112C633.981 302.796 634.491 303.324 635.139 303.696C635.787 304.068 636.525 304.254 637.353 304.254C638.469 304.254 639.375 303.942 640.071 303.318C640.767 302.694 641.193 301.848 641.349 300.78H636.651V299.142H643.545V300.744C643.413 301.716 643.065 302.61 642.501 303.426C641.949 304.242 641.223 304.896 640.323 305.388C639.435 305.868 638.445 306.108 637.353 306.108C636.177 306.108 635.103 305.838 634.131 305.298C633.159 304.746 632.385 303.984 631.809 303.012C631.245 302.04 630.963 300.942 630.963 299.718C630.963 298.494 631.245 297.396 631.809 296.424C632.385 295.452 633.159 294.696 634.131 294.156C635.115 293.604 636.189 293.328 637.353 293.328C638.685 293.328 639.867 293.658 640.899 294.318C641.943 294.966 642.699 295.89 643.167 297.09H640.701Z" fill="#333333"/>
<path d="M505.81 344.75V342.878H509.554V356H507.484V344.75H505.81ZM512.373 349.268C512.373 347.192 512.721 345.572 513.417 344.408C514.125 343.232 515.337 342.644 517.053 342.644C518.769 342.644 519.975 343.232 520.671 344.408C521.379 345.572 521.733 347.192 521.733 349.268C521.733 351.368 521.379 353.012 520.671 354.2C519.975 355.376 518.769 355.964 517.053 355.964C515.337 355.964 514.125 355.376 513.417 354.2C512.721 353.012 512.373 351.368 512.373 349.268ZM519.717 349.268C519.717 348.296 519.651 347.474 519.519 346.802C519.399 346.13 519.147 345.584 518.763 345.164C518.379 344.732 517.809 344.516 517.053 344.516C516.297 344.516 515.727 344.732 515.343 345.164C514.959 345.584 514.701 346.13 514.569 346.802C514.449 347.474 514.389 348.296 514.389 349.268C514.389 350.276 514.449 351.122 514.569 351.806C514.689 352.49 514.941 353.042 515.325 353.462C515.721 353.882 516.297 354.092 517.053 354.092C517.809 354.092 518.379 353.882 518.763 353.462C519.159 353.042 519.417 352.49 519.537 351.806C519.657 351.122 519.717 350.276 519.717 349.268ZM523.58 346.046C523.58 345.17 523.832 344.486 524.336 343.994C524.852 343.49 525.512 343.238 526.316 343.238C527.12 343.238 527.774 343.49 528.278 343.994C528.794 344.486 529.052 345.17 529.052 346.046C529.052 346.922 528.794 347.612 528.278 348.116C527.774 348.62 527.12 348.872 526.316 348.872C525.512 348.872 524.852 348.62 524.336 348.116C523.832 347.612 523.58 346.922 523.58 346.046ZM534.56 343.472L527.378 356H525.362L532.544 343.472H534.56ZM526.316 344.48C525.56 344.48 525.182 345.002 525.182 346.046C525.182 347.102 525.56 347.63 526.316 347.63C526.676 347.63 526.952 347.504 527.144 347.252C527.348 346.988 527.45 346.586 527.45 346.046C527.45 345.002 527.072 344.48 526.316 344.48ZM530.906 353.408C530.906 352.532 531.158 351.848 531.662 351.356C532.178 350.852 532.838 350.6 533.642 350.6C534.434 350.6 535.082 350.852 535.586 351.356C536.102 351.848 536.36 352.532 536.36 353.408C536.36 354.284 536.102 354.974 535.586 355.478C535.082 355.982 534.434 356.234 533.642 356.234C532.838 356.234 532.178 355.982 531.662 355.478C531.158 354.974 530.906 354.284 530.906 353.408ZM533.624 351.842C532.868 351.842 532.49 352.364 532.49 353.408C532.49 354.452 532.868 354.974 533.624 354.974C534.38 354.974 534.758 354.452 534.758 353.408C534.758 352.364 534.38 351.842 533.624 351.842ZM545.175 343.49V351.464C545.175 352.412 545.421 353.126 545.913 353.606C546.417 354.086 547.113 354.326 548.001 354.326C548.901 354.326 549.597 354.086 550.089 353.606C550.593 353.126 550.845 352.412 550.845 351.464V343.49H552.897V351.428C552.897 352.448 552.675 353.312 552.231 354.02C551.787 354.728 551.193 355.256 550.449 355.604C549.705 355.952 548.883 356.126 547.983 356.126C547.083 356.126 546.261 355.952 545.517 355.604C544.785 355.256 544.203 354.728 543.771 354.02C543.339 353.312 543.123 352.448 543.123 351.428V343.49H545.175ZM562.265 349.574C562.937 349.694 563.507 350.048 563.975 350.636C564.443 351.224 564.677 351.89 564.677 352.634C564.677 353.27 564.509 353.846 564.173 354.362C563.849 354.866 563.375 355.268 562.751 355.568C562.127 355.856 561.401 356 560.573 356H555.569V343.49H560.339C561.191 343.49 561.923 343.634 562.535 343.922C563.147 344.21 563.609 344.6 563.921 345.092C564.233 345.572 564.389 346.112 564.389 346.712C564.389 347.432 564.197 348.032 563.813 348.512C563.429 348.992 562.913 349.346 562.265 349.574ZM557.621 348.746H560.159C560.831 348.746 561.353 348.596 561.725 348.296C562.109 347.984 562.301 347.54 562.301 346.964C562.301 346.4 562.109 345.962 561.725 345.65C561.353 345.326 560.831 345.164 560.159 345.164H557.621V348.746ZM560.393 354.326C561.089 354.326 561.635 354.158 562.031 353.822C562.427 353.486 562.625 353.018 562.625 352.418C562.625 351.806 562.415 351.32 561.995 350.96C561.575 350.6 561.017 350.42 560.321 350.42H557.621V354.326H560.393ZM568.941 343.49V351.464C568.941 352.412 569.187 353.126 569.679 353.606C570.183 354.086 570.879 354.326 571.767 354.326C572.667 354.326 573.363 354.086 573.855 353.606C574.359 353.126 574.611 352.412 574.611 351.464V343.49H576.663V351.428C576.663 352.448 576.441 353.312 575.997 354.02C575.553 354.728 574.959 355.256 574.215 355.604C573.471 355.952 572.649 356.126 571.749 356.126C570.849 356.126 570.027 355.952 569.283 355.604C568.551 355.256 567.969 354.728 567.537 354.02C567.105 353.312 566.889 352.448 566.889 351.428V343.49H568.941ZM589.612 356H587.56L581.386 346.658V356H579.334V343.472H581.386L587.56 352.796V343.472H589.612V356ZM600.389 343.49V345.164H597.059V356H595.007V345.164H591.659V343.49H600.389ZM604.501 343.49V351.464C604.501 352.412 604.747 353.126 605.239 353.606C605.743 354.086 606.439 354.326 607.327 354.326C608.227 354.326 608.923 354.086 609.415 353.606C609.919 353.126 610.171 352.412 610.171 351.464V343.49H612.223V351.428C612.223 352.448 612.001 353.312 611.557 354.02C611.113 354.728 610.519 355.256 609.775 355.604C609.031 355.952 608.209 356.126 607.309 356.126C606.409 356.126 605.587 355.952 604.843 355.604C604.111 355.256 603.529 354.728 603.097 354.02C602.665 353.312 602.449 352.448 602.449 351.428V343.49H604.501ZM626.933 343.49V345.164H621.623V348.854H625.763V350.528H621.623V356H619.571V343.49H626.933ZM634.54 356.126C633.376 356.126 632.302 355.856 631.318 355.316C630.346 354.764 629.572 354.002 628.996 353.03C628.432 352.046 628.15 350.942 628.15 349.718C628.15 348.494 628.432 347.396 628.996 346.424C629.572 345.452 630.346 344.696 631.318 344.156C632.302 343.604 633.376 343.328 634.54 343.328C635.716 343.328 636.79 343.604 637.762 344.156C638.746 344.696 639.52 345.452 640.084 346.424C640.648 347.396 640.93 348.494 640.93 349.718C640.93 350.942 640.648 352.046 640.084 353.03C639.52 354.002 638.746 354.764 637.762 355.316C636.79 355.856 635.716 356.126 634.54 356.126ZM634.54 354.344C635.368 354.344 636.106 354.158 636.754 353.786C637.402 353.402 637.906 352.862 638.266 352.166C638.638 351.458 638.824 350.642 638.824 349.718C638.824 348.794 638.638 347.984 638.266 347.288C637.906 346.592 637.402 346.058 636.754 345.686C636.106 345.314 635.368 345.128 634.54 345.128C633.712 345.128 632.974 345.314 632.326 345.686C631.678 346.058 631.168 346.592 630.796 347.288C630.436 347.984 630.256 348.794 630.256 349.718C630.256 350.642 630.436 351.458 630.796 352.166C631.168 352.862 631.678 353.402 632.326 353.786C632.974 354.158 633.712 354.344 634.54 354.344ZM644.984 343.49V351.464C644.984 352.412 645.23 353.126 645.722 353.606C646.226 354.086 646.922 354.326 647.81 354.326C648.71 354.326 649.406 354.086 649.898 353.606C650.402 353.126 650.654 352.412 650.654 351.464V343.49H652.706V351.428C652.706 352.448 652.484 353.312 652.04 354.02C651.596 354.728 651.002 355.256 650.258 355.604C649.514 355.952 648.692 356.126 647.792 356.126C646.892 356.126 646.07 355.952 645.326 355.604C644.594 355.256 644.012 354.728 643.58 354.02C643.148 353.312 642.932 352.448 642.932 351.428V343.49H644.984ZM665.655 356H663.603L657.429 346.658V356H655.377V343.472H657.429L663.603 352.796V343.472H665.655V356ZM672.436 343.49C673.768 343.49 674.932 343.748 675.928 344.264C676.936 344.768 677.71 345.5 678.25 346.46C678.802 347.408 679.078 348.518 679.078 349.79C679.078 351.062 678.802 352.166 678.25 353.102C677.71 354.038 676.936 354.758 675.928 355.262C674.932 355.754 673.768 356 672.436 356H668.35V343.49H672.436ZM672.436 354.326C673.9 354.326 675.022 353.93 675.802 353.138C676.582 352.346 676.972 351.23 676.972 349.79C676.972 348.338 676.582 347.204 675.802 346.388C675.022 345.572 673.9 345.164 672.436 345.164H670.402V354.326H672.436ZM688.654 353.444H683.416L682.516 356H680.374L684.856 343.472H687.232L691.714 356H689.554L688.654 353.444ZM688.078 351.77L686.044 345.956L683.992 351.77H688.078ZM701.745 343.49V345.164H698.415V356H696.363V345.164H693.015V343.49H701.745ZM705.875 343.49V356H703.823V343.49H705.875ZM714.275 356.126C713.111 356.126 712.037 355.856 711.053 355.316C710.081 354.764 709.307 354.002 708.731 353.03C708.167 352.046 707.885 350.942 707.885 349.718C707.885 348.494 708.167 347.396 708.731 346.424C709.307 345.452 710.081 344.696 711.053 344.156C712.037 343.604 713.111 343.328 714.275 343.328C715.451 343.328 716.525 343.604 717.497 344.156C718.481 344.696 719.255 345.452 719.819 346.424C720.383 347.396 720.665 348.494 720.665 349.718C720.665 350.942 720.383 352.046 719.819 353.03C719.255 354.002 718.481 354.764 717.497 355.316C716.525 355.856 715.451 356.126 714.275 356.126ZM714.275 354.344C715.103 354.344 715.841 354.158 716.489 353.786C717.137 353.402 717.641 352.862 718.001 352.166C718.373 351.458 718.559 350.642 718.559 349.718C718.559 348.794 718.373 347.984 718.001 347.288C717.641 346.592 717.137 346.058 716.489 345.686C715.841 345.314 715.103 345.128 714.275 345.128C713.447 345.128 712.709 345.314 712.061 345.686C711.413 346.058 710.903 346.592 710.531 347.288C710.171 347.984 709.991 348.794 709.991 349.718C709.991 350.642 710.171 351.458 710.531 352.166C710.903 352.862 711.413 353.402 712.061 353.786C712.709 354.158 713.447 354.344 714.275 354.344ZM732.962 356H730.91L724.736 346.658V356H722.684V343.472H724.736L730.91 352.796V343.472H732.962V356Z" fill="#333333"/>
<path d="M508.294 399.142C507.046 398.518 506.422 397.534 506.422 396.19C506.422 395.542 506.584 394.948 506.908 394.408C507.232 393.868 507.718 393.442 508.366 393.13C509.014 392.806 509.806 392.644 510.742 392.644C511.666 392.644 512.452 392.806 513.1 393.13C513.76 393.442 514.252 393.868 514.576 394.408C514.9 394.948 515.062 395.542 515.062 396.19C515.062 396.862 514.888 397.456 514.54 397.972C514.204 398.476 513.754 398.866 513.19 399.142C513.874 399.394 514.414 399.808 514.81 400.384C515.206 400.948 515.404 401.614 515.404 402.382C515.404 403.162 515.206 403.852 514.81 404.452C514.414 405.052 513.862 405.514 513.154 405.838C512.446 406.162 511.642 406.324 510.742 406.324C509.842 406.324 509.038 406.162 508.33 405.838C507.634 405.514 507.088 405.052 506.692 404.452C506.296 403.852 506.098 403.162 506.098 402.382C506.098 401.602 506.296 400.93 506.692 400.366C507.088 399.802 507.622 399.394 508.294 399.142ZM513.1 396.442C513.1 395.77 512.89 395.254 512.47 394.894C512.05 394.534 511.474 394.354 510.742 394.354C510.022 394.354 509.452 394.534 509.032 394.894C508.612 395.254 508.402 395.776 508.402 396.46C508.402 397.06 508.618 397.552 509.05 397.936C509.494 398.308 510.058 398.494 510.742 398.494C511.426 398.494 511.99 398.302 512.434 397.918C512.878 397.534 513.1 397.042 513.1 396.442ZM510.742 400.042C509.95 400.042 509.302 400.24 508.798 400.636C508.306 401.02 508.06 401.578 508.06 402.31C508.06 402.994 508.3 403.552 508.78 403.984C509.26 404.404 509.914 404.614 510.742 404.614C511.558 404.614 512.2 404.398 512.668 403.966C513.148 403.534 513.388 402.982 513.388 402.31C513.388 401.59 513.142 401.032 512.65 400.636C512.17 400.24 511.534 400.042 510.742 400.042ZM518.657 406.126C518.285 406.126 517.973 406 517.721 405.748C517.469 405.496 517.343 405.184 517.343 404.812C517.343 404.44 517.469 404.128 517.721 403.876C517.973 403.624 518.285 403.498 518.657 403.498C519.017 403.498 519.323 403.624 519.575 403.876C519.827 404.128 519.953 404.44 519.953 404.812C519.953 405.184 519.827 405.496 519.575 405.748C519.323 406 519.017 406.126 518.657 406.126ZM521.864 396.118C521.936 395.002 522.362 394.132 523.142 393.508C523.934 392.884 524.942 392.572 526.166 392.572C527.006 392.572 527.732 392.722 528.344 393.022C528.956 393.322 529.418 393.73 529.73 394.246C530.042 394.762 530.198 395.344 530.198 395.992C530.198 396.736 530 397.372 529.604 397.9C529.208 398.428 528.734 398.782 528.182 398.962V399.034C528.89 399.25 529.442 399.646 529.838 400.222C530.234 400.786 530.432 401.512 530.432 402.4C530.432 403.108 530.27 403.738 529.946 404.29C529.622 404.842 529.142 405.28 528.506 405.604C527.87 405.916 527.108 406.072 526.22 406.072C524.924 406.072 523.856 405.742 523.016 405.082C522.188 404.41 521.744 403.45 521.684 402.202H523.664C523.712 402.838 523.958 403.36 524.402 403.768C524.846 404.164 525.446 404.362 526.202 404.362C526.934 404.362 527.498 404.164 527.894 403.768C528.29 403.36 528.488 402.838 528.488 402.202C528.488 401.362 528.218 400.768 527.678 400.42C527.15 400.06 526.334 399.88 525.23 399.88H524.762V398.188H525.248C526.22 398.176 526.958 398.014 527.462 397.702C527.978 397.39 528.236 396.898 528.236 396.226C528.236 395.65 528.05 395.194 527.678 394.858C527.306 394.51 526.778 394.336 526.094 394.336C525.422 394.336 524.9 394.51 524.528 394.858C524.156 395.194 523.934 395.614 523.862 396.118H521.864ZM532.552 396.118C532.624 395.002 533.05 394.132 533.83 393.508C534.622 392.884 535.63 392.572 536.854 392.572C537.694 392.572 538.42 392.722 539.032 393.022C539.644 393.322 540.106 393.73 540.418 394.246C540.73 394.762 540.886 395.344 540.886 395.992C540.886 396.736 540.688 397.372 540.292 397.9C539.896 398.428 539.422 398.782 538.87 398.962V399.034C539.578 399.25 540.13 399.646 540.526 400.222C540.922 400.786 541.12 401.512 541.12 402.4C541.12 403.108 540.958 403.738 540.634 404.29C540.31 404.842 539.83 405.28 539.194 405.604C538.558 405.916 537.796 406.072 536.908 406.072C535.612 406.072 534.544 405.742 533.704 405.082C532.876 404.41 532.432 403.45 532.372 402.202H534.352C534.4 402.838 534.646 403.36 535.09 403.768C535.534 404.164 536.134 404.362 536.89 404.362C537.622 404.362 538.186 404.164 538.582 403.768C538.978 403.36 539.176 402.838 539.176 402.202C539.176 401.362 538.906 400.768 538.366 400.42C537.838 400.06 537.022 399.88 535.918 399.88H535.45V398.188H535.936C536.908 398.176 537.646 398.014 538.15 397.702C538.666 397.39 538.924 396.898 538.924 396.226C538.924 395.65 538.738 395.194 538.366 394.858C537.994 394.51 537.466 394.336 536.782 394.336C536.11 394.336 535.588 394.51 535.216 394.858C534.844 395.194 534.622 395.614 534.55 396.118H532.552ZM542.951 396.046C542.951 395.17 543.203 394.486 543.707 393.994C544.223 393.49 544.883 393.238 545.687 393.238C546.491 393.238 547.145 393.49 547.649 393.994C548.165 394.486 548.423 395.17 548.423 396.046C548.423 396.922 548.165 397.612 547.649 398.116C547.145 398.62 546.491 398.872 545.687 398.872C544.883 398.872 544.223 398.62 543.707 398.116C543.203 397.612 542.951 396.922 542.951 396.046ZM553.931 393.472L546.749 406H544.733L551.915 393.472H553.931ZM545.687 394.48C544.931 394.48 544.553 395.002 544.553 396.046C544.553 397.102 544.931 397.63 545.687 397.63C546.047 397.63 546.323 397.504 546.515 397.252C546.719 396.988 546.821 396.586 546.821 396.046C546.821 395.002 546.443 394.48 545.687 394.48ZM550.277 403.408C550.277 402.532 550.529 401.848 551.033 401.356C551.549 400.852 552.209 400.6 553.013 400.6C553.805 400.6 554.453 400.852 554.957 401.356C555.473 401.848 555.731 402.532 555.731 403.408C555.731 404.284 555.473 404.974 554.957 405.478C554.453 405.982 553.805 406.234 553.013 406.234C552.209 406.234 551.549 405.982 551.033 405.478C550.529 404.974 550.277 404.284 550.277 403.408ZM552.995 401.842C552.239 401.842 551.861 402.364 551.861 403.408C551.861 404.452 552.239 404.974 552.995 404.974C553.751 404.974 554.129 404.452 554.129 403.408C554.129 402.364 553.751 401.842 552.995 401.842ZM561.828 399.718C561.828 398.494 562.11 397.396 562.674 396.424C563.25 395.452 564.024 394.696 564.996 394.156C565.98 393.604 567.054 393.328 568.218 393.328C569.55 393.328 570.732 393.658 571.764 394.318C572.808 394.966 573.564 395.89 574.032 397.09H571.566C571.242 396.43 570.792 395.938 570.216 395.614C569.64 395.29 568.974 395.128 568.218 395.128C567.39 395.128 566.652 395.314 566.004 395.686C565.356 396.058 564.846 396.592 564.474 397.288C564.114 397.984 563.934 398.794 563.934 399.718C563.934 400.642 564.114 401.452 564.474 402.148C564.846 402.844 565.356 403.384 566.004 403.768C566.652 404.14 567.39 404.326 568.218 404.326C568.974 404.326 569.64 404.164 570.216 403.84C570.792 403.516 571.242 403.024 571.566 402.364H574.032C573.564 403.564 572.808 404.488 571.764 405.136C570.732 405.784 569.55 406.108 568.218 406.108C567.042 406.108 565.968 405.838 564.996 405.298C564.024 404.746 563.25 403.984 562.674 403.012C562.11 402.04 561.828 400.942 561.828 399.718ZM586.424 393.49V406H584.372V400.528H578.486V406H576.434V393.49H578.486V398.854H584.372V393.49H586.424ZM596.667 403.444H591.429L590.529 406H588.387L592.869 393.472H595.245L599.727 406H597.567L596.667 403.444ZM596.091 401.77L594.057 395.956L592.005 401.77H596.091ZM608.174 406L605.294 400.996H603.728V406H601.676V393.49H605.996C606.956 393.49 607.766 393.658 608.426 393.994C609.098 394.33 609.596 394.78 609.92 395.344C610.256 395.908 610.424 396.538 610.424 397.234C610.424 398.05 610.184 398.794 609.704 399.466C609.236 400.126 608.51 400.576 607.526 400.816L610.622 406H608.174ZM603.728 399.358H605.996C606.764 399.358 607.34 399.166 607.724 398.782C608.12 398.398 608.318 397.882 608.318 397.234C608.318 396.586 608.126 396.082 607.742 395.722C607.358 395.35 606.776 395.164 605.996 395.164H603.728V399.358ZM615.101 393.49V406H613.049V393.49H615.101ZM625.877 393.49V395.164H622.547V406H620.495V395.164H617.147V393.49H625.877ZM637.225 393.49L633.085 401.464V406H631.033V401.464L626.875 393.49H629.161L632.059 399.628L634.957 393.49H637.225Z" fill="#333333"/>
</g>
<defs>
<clipPath id="clip0_119_212">
<rect width="816" height="540" fill="white"/>
</clipPath>
</defs>
</svg>
