<svg width="980" height="568" viewBox="0 0 980 568" fill="none" xmlns="http://www.w3.org/2000/svg">
<g clip-path="url(#clip0_471_716)">
<g clip-path="url(#clip1_471_716)">
<path d="M124 309C124 404.545 201.455 482 297 482C392.545 482 470 404.545 470 309C470 213.455 392.545 136 297 136C201.455 136 124 213.455 124 309ZM392.715 309C392.715 361.862 349.862 404.715 297 404.715C244.138 404.715 201.285 361.862 201.285 309C201.285 256.138 244.138 213.285 297 213.285C349.862 213.285 392.715 256.138 392.715 309Z" fill="#CE6828"/>
<path d="M124 309C124 350.649 139.025 390.9 166.317 422.362C193.608 453.823 231.333 474.383 272.565 480.266C313.796 486.148 355.766 476.959 390.767 454.385C425.768 431.811 451.45 397.368 463.097 357.381C474.745 317.394 471.575 274.547 454.172 236.708C436.768 198.87 406.297 168.58 368.356 151.401C330.415 134.223 287.55 131.308 247.633 143.193C207.715 155.078 173.426 180.965 151.06 216.099L216.71 257.89C229.015 238.561 247.88 224.319 269.84 217.781C291.801 211.242 315.383 212.845 336.257 222.296C357.13 231.747 373.894 248.411 383.469 269.228C393.044 290.045 394.787 313.618 388.379 335.617C381.971 357.616 367.842 376.565 348.586 388.984C329.33 401.403 306.24 406.459 283.557 403.223C260.873 399.986 240.118 388.675 225.104 371.366C210.089 354.058 201.823 331.913 201.823 309H124Z" fill="#FFD764"/>
<path d="M124 309C124 345.753 135.705 381.551 157.418 411.205C179.131 440.858 209.723 462.826 244.761 473.924C279.798 485.022 317.46 484.674 352.286 472.928C387.111 461.183 417.292 438.652 438.452 408.601C459.612 378.55 470.651 342.542 469.97 305.795C469.289 269.048 456.923 233.473 434.665 204.227C412.406 174.981 381.412 153.583 346.175 143.136C310.938 132.689 273.289 133.736 238.687 146.124L265.037 219.723C284.003 212.933 304.64 212.359 323.954 218.085C343.268 223.812 360.257 235.54 372.458 251.571C384.658 267.602 391.437 287.101 391.81 307.243C392.183 327.385 386.132 347.123 374.534 363.594C362.935 380.066 346.393 392.416 327.304 398.854C308.215 405.292 287.571 405.483 268.366 399.4C249.161 393.317 232.393 381.275 220.491 365.021C208.59 348.767 202.174 329.145 202.174 309H124Z" fill="#9E2224"/>
<path d="M124 309C124 340.947 132.846 372.27 149.558 399.498C166.27 426.725 190.194 448.793 218.68 463.256C247.166 477.719 279.1 484.012 310.944 481.437C342.787 478.862 373.295 467.52 399.087 448.668C424.879 429.816 444.947 404.191 457.067 374.632C469.187 345.073 472.885 312.736 467.752 281.204C462.619 249.672 448.855 220.177 427.986 195.988C407.117 171.8 379.957 153.862 349.517 144.164L325.952 218.127C342.733 223.474 357.706 233.363 369.211 246.698C380.717 260.032 388.304 276.293 391.134 293.676C393.964 311.059 391.925 328.887 385.244 345.182C378.562 361.478 367.499 375.605 353.28 385.998C339.061 396.391 322.242 402.644 304.687 404.063C287.132 405.483 269.527 402.013 253.823 394.04C238.119 386.067 224.93 373.901 215.716 358.891C206.503 343.88 201.627 326.612 201.627 309H124Z" fill="#347B5D"/>
<path d="M124 309C124 331.719 128.475 354.215 137.169 375.204C145.863 396.194 158.606 415.265 174.671 431.329C190.735 447.394 209.806 460.137 230.796 468.831C251.785 477.525 274.281 482 297 482C319.719 482 342.215 477.525 363.204 468.831C384.194 460.137 403.265 447.394 419.329 431.329C435.394 415.265 448.137 396.194 456.831 375.204C465.525 354.215 470 331.719 470 309H392.416C392.416 321.53 389.948 333.938 385.153 345.514C380.358 357.09 373.329 367.609 364.469 376.469C355.609 385.329 345.09 392.358 333.514 397.153C321.938 401.948 309.53 404.416 297 404.416C284.47 404.416 272.062 401.948 260.486 397.153C248.91 392.358 238.391 385.329 229.531 376.469C220.671 367.609 213.642 357.09 208.847 345.514C204.052 333.938 201.584 321.53 201.584 309H124Z" fill="#92804C"/>
<path d="M124 309C124 338.723 131.658 367.945 146.236 393.848C160.814 419.751 181.82 441.461 207.228 456.885C232.637 472.309 261.59 480.926 291.297 481.906C321.005 482.886 350.463 476.195 376.833 462.479L340.92 393.436C326.413 400.982 310.206 404.663 293.863 404.124C277.519 403.585 261.59 398.844 247.612 390.359C233.634 381.874 222.077 369.93 214.057 355.679C206.037 341.429 201.824 325.352 201.824 309H124Z" fill="#88451B"/>
<circle r="14" transform="matrix(-1 0 0 1 568 162)" fill="#88451B"/>
<circle r="14" transform="matrix(-1 0 0 1 568 211)" fill="#92804C"/>
<circle r="14" transform="matrix(-1 0 0 1 568 260)" fill="#347B5D"/>
<circle r="14" transform="matrix(-1 0 0 1 568 310)" fill="#9E2224"/>
<circle r="14" transform="matrix(-1 0 0 1 568 359)" fill="#FFD764"/>
<circle r="14" transform="matrix(-1 0 0 1 568 408)" fill="#CE6828"/>
<path d="M619.044 156.118C619.116 155.002 619.542 154.132 620.322 153.508C621.114 152.884 622.122 152.572 623.346 152.572C624.186 152.572 624.912 152.722 625.524 153.022C626.136 153.322 626.598 153.73 626.91 154.246C627.222 154.762 627.378 155.344 627.378 155.992C627.378 156.736 627.18 157.372 626.784 157.9C626.388 158.428 625.914 158.782 625.362 158.962V159.034C626.07 159.25 626.622 159.646 627.018 160.222C627.414 160.786 627.612 161.512 627.612 162.4C627.612 163.108 627.45 163.738 627.126 164.29C626.802 164.842 626.322 165.28 625.686 165.604C625.05 165.916 624.288 166.072 623.4 166.072C622.104 166.072 621.036 165.742 620.196 165.082C619.368 164.41 618.924 163.45 618.864 162.202H620.844C620.892 162.838 621.138 163.36 621.582 163.768C622.026 164.164 622.626 164.362 623.382 164.362C624.114 164.362 624.678 164.164 625.074 163.768C625.47 163.36 625.668 162.838 625.668 162.202C625.668 161.362 625.398 160.768 624.858 160.42C624.33 160.06 623.514 159.88 622.41 159.88H621.942V158.188H622.428C623.4 158.176 624.138 158.014 624.642 157.702C625.158 157.39 625.416 156.898 625.416 156.226C625.416 155.65 625.23 155.194 624.858 154.858C624.486 154.51 623.958 154.336 623.274 154.336C622.602 154.336 622.08 154.51 621.708 154.858C621.336 155.194 621.114 155.614 621.042 156.118H619.044ZM629.768 159.268C629.768 157.192 630.116 155.572 630.812 154.408C631.52 153.232 632.732 152.644 634.448 152.644C636.164 152.644 637.37 153.232 638.066 154.408C638.774 155.572 639.128 157.192 639.128 159.268C639.128 161.368 638.774 163.012 638.066 164.2C637.37 165.376 636.164 165.964 634.448 165.964C632.732 165.964 631.52 165.376 630.812 164.2C630.116 163.012 629.768 161.368 629.768 159.268ZM637.112 159.268C637.112 158.296 637.046 157.474 636.914 156.802C636.794 156.13 636.542 155.584 636.158 155.164C635.774 154.732 635.204 154.516 634.448 154.516C633.692 154.516 633.122 154.732 632.738 155.164C632.354 155.584 632.096 156.13 631.964 156.802C631.844 157.474 631.784 158.296 631.784 159.268C631.784 160.276 631.844 161.122 631.964 161.806C632.084 162.49 632.336 163.042 632.72 163.462C633.116 163.882 633.692 164.092 634.448 164.092C635.204 164.092 635.774 163.882 636.158 163.462C636.554 163.042 636.812 162.49 636.932 161.806C637.052 161.122 637.112 160.276 637.112 159.268ZM640.975 156.046C640.975 155.17 641.227 154.486 641.731 153.994C642.247 153.49 642.907 153.238 643.711 153.238C644.515 153.238 645.169 153.49 645.673 153.994C646.189 154.486 646.447 155.17 646.447 156.046C646.447 156.922 646.189 157.612 645.673 158.116C645.169 158.62 644.515 158.872 643.711 158.872C642.907 158.872 642.247 158.62 641.731 158.116C641.227 157.612 640.975 156.922 640.975 156.046ZM651.955 153.472L644.773 166H642.757L649.939 153.472H651.955ZM643.711 154.48C642.955 154.48 642.577 155.002 642.577 156.046C642.577 157.102 642.955 157.63 643.711 157.63C644.071 157.63 644.347 157.504 644.539 157.252C644.743 156.988 644.845 156.586 644.845 156.046C644.845 155.002 644.467 154.48 643.711 154.48ZM648.301 163.408C648.301 162.532 648.553 161.848 649.057 161.356C649.573 160.852 650.233 160.6 651.037 160.6C651.829 160.6 652.477 160.852 652.981 161.356C653.497 161.848 653.755 162.532 653.755 163.408C653.755 164.284 653.497 164.974 652.981 165.478C652.477 165.982 651.829 166.234 651.037 166.234C650.233 166.234 649.573 165.982 649.057 165.478C648.553 164.974 648.301 164.284 648.301 163.408ZM651.019 161.842C650.263 161.842 649.885 162.364 649.885 163.408C649.885 164.452 650.263 164.974 651.019 164.974C651.775 164.974 652.153 164.452 652.153 163.408C652.153 162.364 651.775 161.842 651.019 161.842ZM669.284 157.216C669.284 157.852 669.134 158.452 668.834 159.016C668.534 159.58 668.054 160.042 667.394 160.402C666.734 160.75 665.888 160.924 664.856 160.924H662.588V166H660.536V153.49H664.856C665.816 153.49 666.626 153.658 667.286 153.994C667.958 154.318 668.456 154.762 668.78 155.326C669.116 155.89 669.284 156.52 669.284 157.216ZM664.856 159.25C665.636 159.25 666.218 159.076 666.602 158.728C666.986 158.368 667.178 157.864 667.178 157.216C667.178 155.848 666.404 155.164 664.856 155.164H662.588V159.25H664.856ZM677.739 166L674.859 160.996H673.293V166H671.241V153.49H675.561C676.521 153.49 677.331 153.658 677.991 153.994C678.663 154.33 679.161 154.78 679.485 155.344C679.821 155.908 679.989 156.538 679.989 157.234C679.989 158.05 679.749 158.794 679.269 159.466C678.801 160.126 678.075 160.576 677.091 160.816L680.187 166H677.739ZM673.293 159.358H675.561C676.329 159.358 676.905 159.166 677.289 158.782C677.685 158.398 677.883 157.882 677.883 157.234C677.883 156.586 677.691 156.082 677.307 155.722C676.923 155.35 676.341 155.164 675.561 155.164H673.293V159.358ZM684.666 155.146V158.818H688.986V160.492H684.666V164.326H689.526V166H682.614V153.472H689.526V155.146H684.666ZM696.175 166.126C695.335 166.126 694.579 165.982 693.907 165.694C693.235 165.394 692.707 164.974 692.323 164.434C691.939 163.894 691.747 163.264 691.747 162.544H693.943C693.991 163.084 694.201 163.528 694.573 163.876C694.957 164.224 695.491 164.398 696.175 164.398C696.883 164.398 697.435 164.23 697.831 163.894C698.227 163.546 698.425 163.102 698.425 162.562C698.425 162.142 698.299 161.8 698.047 161.536C697.807 161.272 697.501 161.068 697.129 160.924C696.769 160.78 696.265 160.624 695.617 160.456C694.801 160.24 694.135 160.024 693.619 159.808C693.115 159.58 692.683 159.232 692.323 158.764C691.963 158.296 691.783 157.672 691.783 156.892C691.783 156.172 691.963 155.542 692.323 155.002C692.683 154.462 693.187 154.048 693.835 153.76C694.483 153.472 695.233 153.328 696.085 153.328C697.297 153.328 698.287 153.634 699.055 154.246C699.835 154.846 700.267 155.674 700.351 156.73H698.083C698.047 156.274 697.831 155.884 697.435 155.56C697.039 155.236 696.517 155.074 695.869 155.074C695.281 155.074 694.801 155.224 694.429 155.524C694.057 155.824 693.871 156.256 693.871 156.82C693.871 157.204 693.985 157.522 694.213 157.774C694.453 158.014 694.753 158.206 695.113 158.35C695.473 158.494 695.965 158.65 696.589 158.818C697.417 159.046 698.089 159.274 698.605 159.502C699.133 159.73 699.577 160.084 699.937 160.564C700.309 161.032 700.495 161.662 700.495 162.454C700.495 163.09 700.321 163.69 699.973 164.254C699.637 164.818 699.139 165.274 698.479 165.622C697.831 165.958 697.063 166.126 696.175 166.126ZM710.458 163.444H705.22L704.32 166H702.178L706.66 153.472H709.036L713.518 166H711.358L710.458 163.444ZM709.882 161.77L707.848 155.956L705.796 161.77H709.882ZM717.519 164.344H721.749V166H715.467V153.49H717.519V164.344ZM725.517 155.146V158.818H729.837V160.492H725.517V164.326H730.377V166H723.465V153.472H730.377V155.146H725.517Z" fill="#333333"/>
<path d="M620.214 213.21C621.366 212.214 622.272 211.398 622.932 210.762C623.604 210.114 624.162 209.442 624.606 208.746C625.05 208.05 625.272 207.354 625.272 206.658C625.272 205.938 625.098 205.374 624.75 204.966C624.414 204.558 623.88 204.354 623.148 204.354C622.44 204.354 621.888 204.582 621.492 205.038C621.108 205.482 620.904 206.082 620.88 206.838H618.9C618.936 205.47 619.344 204.426 620.124 203.706C620.916 202.974 621.918 202.608 623.13 202.608C624.438 202.608 625.458 202.968 626.19 203.688C626.934 204.408 627.306 205.368 627.306 206.568C627.306 207.432 627.084 208.266 626.64 209.07C626.208 209.862 625.686 210.576 625.074 211.212C624.474 211.836 623.706 212.562 622.77 213.39L621.96 214.11H627.666V215.82H618.918V214.326L620.214 213.21ZM629.469 209.268C629.469 207.192 629.817 205.572 630.513 204.408C631.221 203.232 632.433 202.644 634.149 202.644C635.865 202.644 637.071 203.232 637.767 204.408C638.475 205.572 638.829 207.192 638.829 209.268C638.829 211.368 638.475 213.012 637.767 214.2C637.071 215.376 635.865 215.964 634.149 215.964C632.433 215.964 631.221 215.376 630.513 214.2C629.817 213.012 629.469 211.368 629.469 209.268ZM636.813 209.268C636.813 208.296 636.747 207.474 636.615 206.802C636.495 206.13 636.243 205.584 635.859 205.164C635.475 204.732 634.905 204.516 634.149 204.516C633.393 204.516 632.823 204.732 632.439 205.164C632.055 205.584 631.797 206.13 631.665 206.802C631.545 207.474 631.485 208.296 631.485 209.268C631.485 210.276 631.545 211.122 631.665 211.806C631.785 212.49 632.037 213.042 632.421 213.462C632.817 213.882 633.393 214.092 634.149 214.092C634.905 214.092 635.475 213.882 635.859 213.462C636.255 213.042 636.513 212.49 636.633 211.806C636.753 211.122 636.813 210.276 636.813 209.268ZM640.676 206.046C640.676 205.17 640.928 204.486 641.432 203.994C641.948 203.49 642.608 203.238 643.412 203.238C644.216 203.238 644.87 203.49 645.374 203.994C645.89 204.486 646.148 205.17 646.148 206.046C646.148 206.922 645.89 207.612 645.374 208.116C644.87 208.62 644.216 208.872 643.412 208.872C642.608 208.872 641.948 208.62 641.432 208.116C640.928 207.612 640.676 206.922 640.676 206.046ZM651.656 203.472L644.474 216H642.458L649.64 203.472H651.656ZM643.412 204.48C642.656 204.48 642.278 205.002 642.278 206.046C642.278 207.102 642.656 207.63 643.412 207.63C643.772 207.63 644.048 207.504 644.24 207.252C644.444 206.988 644.546 206.586 644.546 206.046C644.546 205.002 644.168 204.48 643.412 204.48ZM648.002 213.408C648.002 212.532 648.254 211.848 648.758 211.356C649.274 210.852 649.934 210.6 650.738 210.6C651.53 210.6 652.178 210.852 652.682 211.356C653.198 211.848 653.456 212.532 653.456 213.408C653.456 214.284 653.198 214.974 652.682 215.478C652.178 215.982 651.53 216.234 650.738 216.234C649.934 216.234 649.274 215.982 648.758 215.478C648.254 214.974 648.002 214.284 648.002 213.408ZM650.72 211.842C649.964 211.842 649.586 212.364 649.586 213.408C649.586 214.452 649.964 214.974 650.72 214.974C651.476 214.974 651.854 214.452 651.854 213.408C651.854 212.364 651.476 211.842 650.72 211.842ZM662.289 205.146V208.818H666.609V210.492H662.289V214.326H667.149V216H660.237V203.472H667.149V205.146H662.289ZM668.992 209.718C668.992 208.494 669.274 207.396 669.838 206.424C670.414 205.452 671.188 204.696 672.16 204.156C673.144 203.604 674.218 203.328 675.382 203.328C676.714 203.328 677.896 203.658 678.928 204.318C679.972 204.966 680.728 205.89 681.196 207.09H678.73C678.406 206.43 677.956 205.938 677.38 205.614C676.804 205.29 676.138 205.128 675.382 205.128C674.554 205.128 673.816 205.314 673.168 205.686C672.52 206.058 672.01 206.592 671.638 207.288C671.278 207.984 671.098 208.794 671.098 209.718C671.098 210.642 671.278 211.452 671.638 212.148C672.01 212.844 672.52 213.384 673.168 213.768C673.816 214.14 674.554 214.326 675.382 214.326C676.138 214.326 676.804 214.164 677.38 213.84C677.956 213.516 678.406 213.024 678.73 212.364H681.196C680.728 213.564 679.972 214.488 678.928 215.136C677.896 215.784 676.714 216.108 675.382 216.108C674.206 216.108 673.132 215.838 672.16 215.298C671.188 214.746 670.414 213.984 669.838 213.012C669.274 212.04 668.992 210.942 668.992 209.718ZM689.304 216.126C688.14 216.126 687.066 215.856 686.082 215.316C685.11 214.764 684.336 214.002 683.76 213.03C683.196 212.046 682.914 210.942 682.914 209.718C682.914 208.494 683.196 207.396 683.76 206.424C684.336 205.452 685.11 204.696 686.082 204.156C687.066 203.604 688.14 203.328 689.304 203.328C690.48 203.328 691.554 203.604 692.526 204.156C693.51 204.696 694.284 205.452 694.848 206.424C695.412 207.396 695.694 208.494 695.694 209.718C695.694 210.942 695.412 212.046 694.848 213.03C694.284 214.002 693.51 214.764 692.526 215.316C691.554 215.856 690.48 216.126 689.304 216.126ZM689.304 214.344C690.132 214.344 690.87 214.158 691.518 213.786C692.166 213.402 692.67 212.862 693.03 212.166C693.402 211.458 693.588 210.642 693.588 209.718C693.588 208.794 693.402 207.984 693.03 207.288C692.67 206.592 692.166 206.058 691.518 205.686C690.87 205.314 690.132 205.128 689.304 205.128C688.476 205.128 687.738 205.314 687.09 205.686C686.442 206.058 685.932 206.592 685.56 207.288C685.2 207.984 685.02 208.794 685.02 209.718C685.02 210.642 685.2 211.458 685.56 212.166C685.932 212.862 686.442 213.402 687.09 213.786C687.738 214.158 688.476 214.344 689.304 214.344ZM701.835 216.126C700.995 216.126 700.239 215.982 699.567 215.694C698.895 215.394 698.367 214.974 697.983 214.434C697.599 213.894 697.407 213.264 697.407 212.544H699.603C699.651 213.084 699.861 213.528 700.233 213.876C700.617 214.224 701.151 214.398 701.835 214.398C702.543 214.398 703.095 214.23 703.491 213.894C703.887 213.546 704.085 213.102 704.085 212.562C704.085 212.142 703.959 211.8 703.707 211.536C703.467 211.272 703.161 211.068 702.789 210.924C702.429 210.78 701.925 210.624 701.277 210.456C700.461 210.24 699.795 210.024 699.279 209.808C698.775 209.58 698.343 209.232 697.983 208.764C697.623 208.296 697.443 207.672 697.443 206.892C697.443 206.172 697.623 205.542 697.983 205.002C698.343 204.462 698.847 204.048 699.495 203.76C700.143 203.472 700.893 203.328 701.745 203.328C702.957 203.328 703.947 203.634 704.715 204.246C705.495 204.846 705.927 205.674 706.011 206.73H703.743C703.707 206.274 703.491 205.884 703.095 205.56C702.699 205.236 702.177 205.074 701.529 205.074C700.941 205.074 700.461 205.224 700.089 205.524C699.717 205.824 699.531 206.256 699.531 206.82C699.531 207.204 699.645 207.522 699.873 207.774C700.113 208.014 700.413 208.206 700.773 208.35C701.133 208.494 701.625 208.65 702.249 208.818C703.077 209.046 703.749 209.274 704.265 209.502C704.793 209.73 705.237 210.084 705.597 210.564C705.969 211.032 706.155 211.662 706.155 212.454C706.155 213.09 705.981 213.69 705.633 214.254C705.297 214.818 704.799 215.274 704.139 215.622C703.491 215.958 702.723 216.126 701.835 216.126ZM717.847 203.49L713.707 211.464V216H711.655V211.464L707.497 203.49H709.783L712.681 209.628L715.579 203.49H717.847ZM723.597 216.126C722.757 216.126 722.001 215.982 721.329 215.694C720.657 215.394 720.129 214.974 719.745 214.434C719.361 213.894 719.169 213.264 719.169 212.544H721.365C721.413 213.084 721.623 213.528 721.995 213.876C722.379 214.224 722.913 214.398 723.597 214.398C724.305 214.398 724.857 214.23 725.253 213.894C725.649 213.546 725.847 213.102 725.847 212.562C725.847 212.142 725.721 211.8 725.469 211.536C725.229 211.272 724.923 211.068 724.551 210.924C724.191 210.78 723.687 210.624 723.039 210.456C722.223 210.24 721.557 210.024 721.041 209.808C720.537 209.58 720.105 209.232 719.745 208.764C719.385 208.296 719.205 207.672 719.205 206.892C719.205 206.172 719.385 205.542 719.745 205.002C720.105 204.462 720.609 204.048 721.257 203.76C721.905 203.472 722.655 203.328 723.507 203.328C724.719 203.328 725.709 203.634 726.477 204.246C727.257 204.846 727.689 205.674 727.773 206.73H725.505C725.469 206.274 725.253 205.884 724.857 205.56C724.461 205.236 723.939 205.074 723.291 205.074C722.703 205.074 722.223 205.224 721.851 205.524C721.479 205.824 721.293 206.256 721.293 206.82C721.293 207.204 721.407 207.522 721.635 207.774C721.875 208.014 722.175 208.206 722.535 208.35C722.895 208.494 723.387 208.65 724.011 208.818C724.839 209.046 725.511 209.274 726.027 209.502C726.555 209.73 726.999 210.084 727.359 210.564C727.731 211.032 727.917 211.662 727.917 212.454C727.917 213.09 727.743 213.69 727.395 214.254C727.059 214.818 726.561 215.274 725.901 215.622C725.253 215.958 724.485 216.126 723.597 216.126ZM738.42 203.49V205.164H735.09V216H733.038V205.164H729.69V203.49H738.42ZM742.55 205.146V208.818H746.87V210.492H742.55V214.326H747.41V216H740.498V203.472H747.41V205.146H742.55ZM763.114 203.49V216H761.062V207.432L757.246 216H755.824L751.99 207.432V216H749.938V203.49H752.152L756.544 213.3L760.918 203.49H763.114ZM774.573 203.49C775.905 203.49 777.069 203.748 778.065 204.264C779.073 204.768 779.847 205.5 780.387 206.46C780.939 207.408 781.215 208.518 781.215 209.79C781.215 211.062 780.939 212.166 780.387 213.102C779.847 214.038 779.073 214.758 778.065 215.262C777.069 215.754 775.905 216 774.573 216H770.487V203.49H774.573ZM774.573 214.326C776.037 214.326 777.159 213.93 777.939 213.138C778.719 212.346 779.109 211.23 779.109 209.79C779.109 208.338 778.719 207.204 777.939 206.388C777.159 205.572 776.037 205.164 774.573 205.164H772.539V214.326H774.573ZM785.3 205.146V208.818H789.62V210.492H785.3V214.326H790.16V216H783.248V203.472H790.16V205.146H785.3ZM803.47 203.49L798.772 216H796.396L791.68 203.49H793.876L797.584 213.894L801.31 203.49H803.47ZM807.238 205.146V208.818H811.558V210.492H807.238V214.326H812.098V216H805.186V203.472H812.098V205.146H807.238ZM816.677 214.344H820.907V216H814.625V203.49H816.677V214.344ZM828.329 216.126C827.165 216.126 826.091 215.856 825.107 215.316C824.135 214.764 823.361 214.002 822.785 213.03C822.221 212.046 821.939 210.942 821.939 209.718C821.939 208.494 822.221 207.396 822.785 206.424C823.361 205.452 824.135 204.696 825.107 204.156C826.091 203.604 827.165 203.328 828.329 203.328C829.505 203.328 830.579 203.604 831.551 204.156C832.535 204.696 833.309 205.452 833.873 206.424C834.437 207.396 834.719 208.494 834.719 209.718C834.719 210.942 834.437 212.046 833.873 213.03C833.309 214.002 832.535 214.764 831.551 215.316C830.579 215.856 829.505 216.126 828.329 216.126ZM828.329 214.344C829.157 214.344 829.895 214.158 830.543 213.786C831.191 213.402 831.695 212.862 832.055 212.166C832.427 211.458 832.613 210.642 832.613 209.718C832.613 208.794 832.427 207.984 832.055 207.288C831.695 206.592 831.191 206.058 830.543 205.686C829.895 205.314 829.157 205.128 828.329 205.128C827.501 205.128 826.763 205.314 826.115 205.686C825.467 206.058 824.957 206.592 824.585 207.288C824.225 207.984 824.045 208.794 824.045 209.718C824.045 210.642 824.225 211.458 824.585 212.166C824.957 212.862 825.467 213.402 826.115 213.786C826.763 214.158 827.501 214.344 828.329 214.344ZM845.487 207.216C845.487 207.852 845.337 208.452 845.037 209.016C844.737 209.58 844.257 210.042 843.597 210.402C842.937 210.75 842.091 210.924 841.059 210.924H838.791V216H836.739V203.49H841.059C842.019 203.49 842.829 203.658 843.489 203.994C844.161 204.318 844.659 204.762 844.983 205.326C845.319 205.89 845.487 206.52 845.487 207.216ZM841.059 209.25C841.839 209.25 842.421 209.076 842.805 208.728C843.189 208.368 843.381 207.864 843.381 207.216C843.381 205.848 842.607 205.164 841.059 205.164H838.791V209.25H841.059ZM860.62 203.49V216H858.568V207.432L854.752 216H853.33L849.496 207.432V216H847.444V203.49H849.658L854.05 213.3L858.424 203.49H860.62ZM865.369 205.146V208.818H869.689V210.492H865.369V214.326H870.229V216H863.317V203.472H870.229V205.146H865.369ZM883.034 216H880.982L874.808 206.658V216H872.756V203.472H874.808L880.982 212.796V203.472H883.034V216ZM893.811 203.49V205.164H890.481V216H888.429V205.164H885.081V203.49H893.811Z" fill="#333333"/>
<path d="M618.214 263.21C619.366 262.214 620.272 261.398 620.932 260.762C621.604 260.114 622.162 259.442 622.606 258.746C623.05 258.05 623.272 257.354 623.272 256.658C623.272 255.938 623.098 255.374 622.75 254.966C622.414 254.558 621.88 254.354 621.148 254.354C620.44 254.354 619.888 254.582 619.492 255.038C619.108 255.482 618.904 256.082 618.88 256.838H616.9C616.936 255.47 617.344 254.426 618.124 253.706C618.916 252.974 619.918 252.608 621.13 252.608C622.438 252.608 623.458 252.968 624.19 253.688C624.934 254.408 625.306 255.368 625.306 256.568C625.306 257.432 625.084 258.266 624.64 259.07C624.208 259.862 623.686 260.576 623.074 261.212C622.474 261.836 621.706 262.562 620.77 263.39L619.96 264.11H625.666V265.82H616.918V264.326L618.214 263.21ZM627.469 259.268C627.469 257.192 627.817 255.572 628.513 254.408C629.221 253.232 630.433 252.644 632.149 252.644C633.865 252.644 635.071 253.232 635.767 254.408C636.475 255.572 636.829 257.192 636.829 259.268C636.829 261.368 636.475 263.012 635.767 264.2C635.071 265.376 633.865 265.964 632.149 265.964C630.433 265.964 629.221 265.376 628.513 264.2C627.817 263.012 627.469 261.368 627.469 259.268ZM634.813 259.268C634.813 258.296 634.747 257.474 634.615 256.802C634.495 256.13 634.243 255.584 633.859 255.164C633.475 254.732 632.905 254.516 632.149 254.516C631.393 254.516 630.823 254.732 630.439 255.164C630.055 255.584 629.797 256.13 629.665 256.802C629.545 257.474 629.485 258.296 629.485 259.268C629.485 260.276 629.545 261.122 629.665 261.806C629.785 262.49 630.037 263.042 630.421 263.462C630.817 263.882 631.393 264.092 632.149 264.092C632.905 264.092 633.475 263.882 633.859 263.462C634.255 263.042 634.513 262.49 634.633 261.806C634.753 261.122 634.813 260.276 634.813 259.268ZM638.676 256.046C638.676 255.17 638.928 254.486 639.432 253.994C639.948 253.49 640.608 253.238 641.412 253.238C642.216 253.238 642.87 253.49 643.374 253.994C643.89 254.486 644.148 255.17 644.148 256.046C644.148 256.922 643.89 257.612 643.374 258.116C642.87 258.62 642.216 258.872 641.412 258.872C640.608 258.872 639.948 258.62 639.432 258.116C638.928 257.612 638.676 256.922 638.676 256.046ZM649.656 253.472L642.474 266H640.458L647.64 253.472H649.656ZM641.412 254.48C640.656 254.48 640.278 255.002 640.278 256.046C640.278 257.102 640.656 257.63 641.412 257.63C641.772 257.63 642.048 257.504 642.24 257.252C642.444 256.988 642.546 256.586 642.546 256.046C642.546 255.002 642.168 254.48 641.412 254.48ZM646.002 263.408C646.002 262.532 646.254 261.848 646.758 261.356C647.274 260.852 647.934 260.6 648.738 260.6C649.53 260.6 650.178 260.852 650.682 261.356C651.198 261.848 651.456 262.532 651.456 263.408C651.456 264.284 651.198 264.974 650.682 265.478C650.178 265.982 649.53 266.234 648.738 266.234C647.934 266.234 647.274 265.982 646.758 265.478C646.254 264.974 646.002 264.284 646.002 263.408ZM648.72 261.842C647.964 261.842 647.586 262.364 647.586 263.408C647.586 264.452 647.964 264.974 648.72 264.974C649.476 264.974 649.854 264.452 649.854 263.408C649.854 262.364 649.476 261.842 648.72 261.842ZM660.289 264.344H664.519V266H658.237V253.49H660.289V264.344ZM668.287 253.49V266H666.235V253.49H668.287ZM680.665 268.268L678.469 265.892C677.929 266.048 677.335 266.126 676.687 266.126C675.523 266.126 674.449 265.856 673.465 265.316C672.493 264.764 671.719 264.002 671.143 263.03C670.579 262.046 670.297 260.942 670.297 259.718C670.297 258.494 670.579 257.396 671.143 256.424C671.719 255.452 672.493 254.696 673.465 254.156C674.449 253.604 675.523 253.328 676.687 253.328C677.863 253.328 678.937 253.604 679.909 254.156C680.893 254.696 681.667 255.452 682.231 256.424C682.795 257.396 683.077 258.494 683.077 259.718C683.077 260.87 682.825 261.914 682.321 262.85C681.829 263.774 681.145 264.518 680.269 265.082L683.275 268.268H680.665ZM672.403 259.718C672.403 260.642 672.583 261.458 672.943 262.166C673.315 262.862 673.825 263.402 674.473 263.786C675.121 264.158 675.859 264.344 676.687 264.344C677.515 264.344 678.253 264.158 678.901 263.786C679.549 263.402 680.053 262.862 680.413 262.166C680.785 261.458 680.971 260.642 680.971 259.718C680.971 258.794 680.785 257.984 680.413 257.288C680.053 256.592 679.549 256.058 678.901 255.686C678.253 255.314 677.515 255.128 676.687 255.128C675.859 255.128 675.121 255.314 674.473 255.686C673.825 256.058 673.315 256.592 672.943 257.288C672.583 257.984 672.403 258.794 672.403 259.718ZM687.183 253.49V261.464C687.183 262.412 687.429 263.126 687.921 263.606C688.425 264.086 689.121 264.326 690.009 264.326C690.909 264.326 691.605 264.086 692.097 263.606C692.601 263.126 692.853 262.412 692.853 261.464V253.49H694.905V261.428C694.905 262.448 694.683 263.312 694.239 264.02C693.795 264.728 693.201 265.256 692.457 265.604C691.713 265.952 690.891 266.126 689.991 266.126C689.091 266.126 688.269 265.952 687.525 265.604C686.793 265.256 686.211 264.728 685.779 264.02C685.347 263.312 685.131 262.448 685.131 261.428V253.49H687.183ZM699.629 253.49V266H697.577V253.49H699.629ZM706.409 253.49C707.741 253.49 708.905 253.748 709.901 254.264C710.909 254.768 711.683 255.5 712.223 256.46C712.775 257.408 713.051 258.518 713.051 259.79C713.051 261.062 712.775 262.166 712.223 263.102C711.683 264.038 710.909 264.758 709.901 265.262C708.905 265.754 707.741 266 706.409 266H702.323V253.49H706.409ZM706.409 264.326C707.873 264.326 708.995 263.93 709.775 263.138C710.555 262.346 710.945 261.23 710.945 259.79C710.945 258.338 710.555 257.204 709.775 256.388C708.995 255.572 707.873 255.164 706.409 255.164H704.375V264.326H706.409ZM717.136 253.49V266H715.084V253.49H717.136ZM727.912 253.49V255.164H724.582V266H722.53V255.164H719.182V253.49H727.912ZM739.261 253.49L735.121 261.464V266H733.069V261.464L728.911 253.49H731.197L734.095 259.628L736.993 253.49H739.261Z" fill="#333333"/>
<path d="M618.81 306.75V304.878H622.554V318H620.484V306.75H618.81ZM625.373 311.268C625.373 309.192 625.721 307.572 626.417 306.408C627.125 305.232 628.337 304.644 630.053 304.644C631.769 304.644 632.975 305.232 633.671 306.408C634.379 307.572 634.733 309.192 634.733 311.268C634.733 313.368 634.379 315.012 633.671 316.2C632.975 317.376 631.769 317.964 630.053 317.964C628.337 317.964 627.125 317.376 626.417 316.2C625.721 315.012 625.373 313.368 625.373 311.268ZM632.717 311.268C632.717 310.296 632.651 309.474 632.519 308.802C632.399 308.13 632.147 307.584 631.763 307.164C631.379 306.732 630.809 306.516 630.053 306.516C629.297 306.516 628.727 306.732 628.343 307.164C627.959 307.584 627.701 308.13 627.569 308.802C627.449 309.474 627.389 310.296 627.389 311.268C627.389 312.276 627.449 313.122 627.569 313.806C627.689 314.49 627.941 315.042 628.325 315.462C628.721 315.882 629.297 316.092 630.053 316.092C630.809 316.092 631.379 315.882 631.763 315.462C632.159 315.042 632.417 314.49 632.537 313.806C632.657 313.122 632.717 312.276 632.717 311.268ZM636.58 308.046C636.58 307.17 636.832 306.486 637.336 305.994C637.852 305.49 638.512 305.238 639.316 305.238C640.12 305.238 640.774 305.49 641.278 305.994C641.794 306.486 642.052 307.17 642.052 308.046C642.052 308.922 641.794 309.612 641.278 310.116C640.774 310.62 640.12 310.872 639.316 310.872C638.512 310.872 637.852 310.62 637.336 310.116C636.832 309.612 636.58 308.922 636.58 308.046ZM647.56 305.472L640.378 318H638.362L645.544 305.472H647.56ZM639.316 306.48C638.56 306.48 638.182 307.002 638.182 308.046C638.182 309.102 638.56 309.63 639.316 309.63C639.676 309.63 639.952 309.504 640.144 309.252C640.348 308.988 640.45 308.586 640.45 308.046C640.45 307.002 640.072 306.48 639.316 306.48ZM643.906 315.408C643.906 314.532 644.158 313.848 644.662 313.356C645.178 312.852 645.838 312.6 646.642 312.6C647.434 312.6 648.082 312.852 648.586 313.356C649.102 313.848 649.36 314.532 649.36 315.408C649.36 316.284 649.102 316.974 648.586 317.478C648.082 317.982 647.434 318.234 646.642 318.234C645.838 318.234 645.178 317.982 644.662 317.478C644.158 316.974 643.906 316.284 643.906 315.408ZM646.624 313.842C645.868 313.842 645.49 314.364 645.49 315.408C645.49 316.452 645.868 316.974 646.624 316.974C647.38 316.974 647.758 316.452 647.758 315.408C647.758 314.364 647.38 313.842 646.624 313.842ZM669.317 305.49V318H667.265V309.432L663.449 318H662.027L658.193 309.432V318H656.141V305.49H658.355L662.747 315.3L667.121 305.49H669.317ZM679.556 315.444H674.318L673.418 318H671.276L675.758 305.472H678.134L682.616 318H680.456L679.556 315.444ZM678.98 313.77L676.946 307.956L674.894 313.77H678.98ZM691.063 318L688.183 312.996H686.617V318H684.565V305.49H688.885C689.845 305.49 690.655 305.658 691.315 305.994C691.987 306.33 692.485 306.78 692.809 307.344C693.145 307.908 693.313 308.538 693.313 309.234C693.313 310.05 693.073 310.794 692.593 311.466C692.125 312.126 691.399 312.576 690.415 312.816L693.511 318H691.063ZM686.617 311.358H688.885C689.653 311.358 690.229 311.166 690.613 310.782C691.009 310.398 691.207 309.882 691.207 309.234C691.207 308.586 691.015 308.082 690.631 307.722C690.247 307.35 689.665 307.164 688.885 307.164H686.617V311.358ZM702.832 318L697.99 312.402V318H695.938V305.49H697.99V311.196L702.85 305.49H705.424L699.988 311.754L705.514 318H702.832ZM709.381 307.146V310.818H713.701V312.492H709.381V316.326H714.241V318H707.329V305.472H714.241V307.146H709.381ZM724.85 305.49V307.164H721.52V318H719.468V307.164H716.12V305.49H724.85ZM728.98 305.49V318H726.928V305.49H728.98ZM741.952 318H739.9L733.726 308.658V318H731.674V305.472H733.726L739.9 314.796V305.472H741.952V318ZM753.701 309.09C753.377 308.466 752.927 307.998 752.351 307.686C751.775 307.362 751.109 307.2 750.353 307.2C749.525 307.2 748.787 307.386 748.139 307.758C747.491 308.13 746.981 308.658 746.609 309.342C746.249 310.026 746.069 310.818 746.069 311.718C746.069 312.618 746.249 313.416 746.609 314.112C746.981 314.796 747.491 315.324 748.139 315.696C748.787 316.068 749.525 316.254 750.353 316.254C751.469 316.254 752.375 315.942 753.071 315.318C753.767 314.694 754.193 313.848 754.349 312.78H749.651V311.142H756.545V312.744C756.413 313.716 756.065 314.61 755.501 315.426C754.949 316.242 754.223 316.896 753.323 317.388C752.435 317.868 751.445 318.108 750.353 318.108C749.177 318.108 748.103 317.838 747.131 317.298C746.159 316.746 745.385 315.984 744.809 315.012C744.245 314.04 743.963 312.942 743.963 311.718C743.963 310.494 744.245 309.396 744.809 308.424C745.385 307.452 746.159 306.696 747.131 306.156C748.115 305.604 749.189 305.328 750.353 305.328C751.685 305.328 752.867 305.658 753.899 306.318C754.943 306.966 755.699 307.89 756.167 309.09H753.701Z" fill="#333333"/>
<path d="M618.81 356.75V354.878H622.554V368H620.484V356.75H618.81ZM625.373 361.268C625.373 359.192 625.721 357.572 626.417 356.408C627.125 355.232 628.337 354.644 630.053 354.644C631.769 354.644 632.975 355.232 633.671 356.408C634.379 357.572 634.733 359.192 634.733 361.268C634.733 363.368 634.379 365.012 633.671 366.2C632.975 367.376 631.769 367.964 630.053 367.964C628.337 367.964 627.125 367.376 626.417 366.2C625.721 365.012 625.373 363.368 625.373 361.268ZM632.717 361.268C632.717 360.296 632.651 359.474 632.519 358.802C632.399 358.13 632.147 357.584 631.763 357.164C631.379 356.732 630.809 356.516 630.053 356.516C629.297 356.516 628.727 356.732 628.343 357.164C627.959 357.584 627.701 358.13 627.569 358.802C627.449 359.474 627.389 360.296 627.389 361.268C627.389 362.276 627.449 363.122 627.569 363.806C627.689 364.49 627.941 365.042 628.325 365.462C628.721 365.882 629.297 366.092 630.053 366.092C630.809 366.092 631.379 365.882 631.763 365.462C632.159 365.042 632.417 364.49 632.537 363.806C632.657 363.122 632.717 362.276 632.717 361.268ZM636.58 358.046C636.58 357.17 636.832 356.486 637.336 355.994C637.852 355.49 638.512 355.238 639.316 355.238C640.12 355.238 640.774 355.49 641.278 355.994C641.794 356.486 642.052 357.17 642.052 358.046C642.052 358.922 641.794 359.612 641.278 360.116C640.774 360.62 640.12 360.872 639.316 360.872C638.512 360.872 637.852 360.62 637.336 360.116C636.832 359.612 636.58 358.922 636.58 358.046ZM647.56 355.472L640.378 368H638.362L645.544 355.472H647.56ZM639.316 356.48C638.56 356.48 638.182 357.002 638.182 358.046C638.182 359.102 638.56 359.63 639.316 359.63C639.676 359.63 639.952 359.504 640.144 359.252C640.348 358.988 640.45 358.586 640.45 358.046C640.45 357.002 640.072 356.48 639.316 356.48ZM643.906 365.408C643.906 364.532 644.158 363.848 644.662 363.356C645.178 362.852 645.838 362.6 646.642 362.6C647.434 362.6 648.082 362.852 648.586 363.356C649.102 363.848 649.36 364.532 649.36 365.408C649.36 366.284 649.102 366.974 648.586 367.478C648.082 367.982 647.434 368.234 646.642 368.234C645.838 368.234 645.178 367.982 644.662 367.478C644.158 366.974 643.906 366.284 643.906 365.408ZM646.624 363.842C645.868 363.842 645.49 364.364 645.49 365.408C645.49 366.452 645.868 366.974 646.624 366.974C647.38 366.974 647.758 366.452 647.758 365.408C647.758 364.364 647.38 363.842 646.624 363.842ZM658.175 355.49V363.464C658.175 364.412 658.421 365.126 658.913 365.606C659.417 366.086 660.113 366.326 661.001 366.326C661.901 366.326 662.597 366.086 663.089 365.606C663.593 365.126 663.845 364.412 663.845 363.464V355.49H665.897V363.428C665.897 364.448 665.675 365.312 665.231 366.02C664.787 366.728 664.193 367.256 663.449 367.604C662.705 367.952 661.883 368.126 660.983 368.126C660.083 368.126 659.261 367.952 658.517 367.604C657.785 367.256 657.203 366.728 656.771 366.02C656.339 365.312 656.123 364.448 656.123 363.428V355.49H658.175ZM675.265 361.574C675.937 361.694 676.507 362.048 676.975 362.636C677.443 363.224 677.677 363.89 677.677 364.634C677.677 365.27 677.509 365.846 677.173 366.362C676.849 366.866 676.375 367.268 675.751 367.568C675.127 367.856 674.401 368 673.573 368H668.569V355.49H673.339C674.191 355.49 674.923 355.634 675.535 355.922C676.147 356.21 676.609 356.6 676.921 357.092C677.233 357.572 677.389 358.112 677.389 358.712C677.389 359.432 677.197 360.032 676.813 360.512C676.429 360.992 675.913 361.346 675.265 361.574ZM670.621 360.746H673.159C673.831 360.746 674.353 360.596 674.725 360.296C675.109 359.984 675.301 359.54 675.301 358.964C675.301 358.4 675.109 357.962 674.725 357.65C674.353 357.326 673.831 357.164 673.159 357.164H670.621V360.746ZM673.393 366.326C674.089 366.326 674.635 366.158 675.031 365.822C675.427 365.486 675.625 365.018 675.625 364.418C675.625 363.806 675.415 363.32 674.995 362.96C674.575 362.6 674.017 362.42 673.321 362.42H670.621V366.326H673.393ZM681.941 355.49V363.464C681.941 364.412 682.187 365.126 682.679 365.606C683.183 366.086 683.879 366.326 684.767 366.326C685.667 366.326 686.363 366.086 686.855 365.606C687.359 365.126 687.611 364.412 687.611 363.464V355.49H689.663V363.428C689.663 364.448 689.441 365.312 688.997 366.02C688.553 366.728 687.959 367.256 687.215 367.604C686.471 367.952 685.649 368.126 684.749 368.126C683.849 368.126 683.027 367.952 682.283 367.604C681.551 367.256 680.969 366.728 680.537 366.02C680.105 365.312 679.889 364.448 679.889 363.428V355.49H681.941ZM702.612 368H700.56L694.386 358.658V368H692.334V355.472H694.386L700.56 364.796V355.472H702.612V368ZM713.389 355.49V357.164H710.059V368H708.007V357.164H704.659V355.49H713.389ZM717.501 355.49V363.464C717.501 364.412 717.747 365.126 718.239 365.606C718.743 366.086 719.439 366.326 720.327 366.326C721.227 366.326 721.923 366.086 722.415 365.606C722.919 365.126 723.171 364.412 723.171 363.464V355.49H725.223V363.428C725.223 364.448 725.001 365.312 724.557 366.02C724.113 366.728 723.519 367.256 722.775 367.604C722.031 367.952 721.209 368.126 720.309 368.126C719.409 368.126 718.587 367.952 717.843 367.604C717.111 367.256 716.529 366.728 716.097 366.02C715.665 365.312 715.449 364.448 715.449 363.428V355.49H717.501ZM739.933 355.49V357.164H734.623V360.854H738.763V362.528H734.623V368H732.571V355.49H739.933ZM747.54 368.126C746.376 368.126 745.302 367.856 744.318 367.316C743.346 366.764 742.572 366.002 741.996 365.03C741.432 364.046 741.15 362.942 741.15 361.718C741.15 360.494 741.432 359.396 741.996 358.424C742.572 357.452 743.346 356.696 744.318 356.156C745.302 355.604 746.376 355.328 747.54 355.328C748.716 355.328 749.79 355.604 750.762 356.156C751.746 356.696 752.52 357.452 753.084 358.424C753.648 359.396 753.93 360.494 753.93 361.718C753.93 362.942 753.648 364.046 753.084 365.03C752.52 366.002 751.746 366.764 750.762 367.316C749.79 367.856 748.716 368.126 747.54 368.126ZM747.54 366.344C748.368 366.344 749.106 366.158 749.754 365.786C750.402 365.402 750.906 364.862 751.266 364.166C751.638 363.458 751.824 362.642 751.824 361.718C751.824 360.794 751.638 359.984 751.266 359.288C750.906 358.592 750.402 358.058 749.754 357.686C749.106 357.314 748.368 357.128 747.54 357.128C746.712 357.128 745.974 357.314 745.326 357.686C744.678 358.058 744.168 358.592 743.796 359.288C743.436 359.984 743.256 360.794 743.256 361.718C743.256 362.642 743.436 363.458 743.796 364.166C744.168 364.862 744.678 365.402 745.326 365.786C745.974 366.158 746.712 366.344 747.54 366.344ZM757.984 355.49V363.464C757.984 364.412 758.23 365.126 758.722 365.606C759.226 366.086 759.922 366.326 760.81 366.326C761.71 366.326 762.406 366.086 762.898 365.606C763.402 365.126 763.654 364.412 763.654 363.464V355.49H765.706V363.428C765.706 364.448 765.484 365.312 765.04 366.02C764.596 366.728 764.002 367.256 763.258 367.604C762.514 367.952 761.692 368.126 760.792 368.126C759.892 368.126 759.07 367.952 758.326 367.604C757.594 367.256 757.012 366.728 756.58 366.02C756.148 365.312 755.932 364.448 755.932 363.428V355.49H757.984ZM778.655 368H776.603L770.429 358.658V368H768.377V355.472H770.429L776.603 364.796V355.472H778.655V368ZM785.436 355.49C786.768 355.49 787.932 355.748 788.928 356.264C789.936 356.768 790.71 357.5 791.25 358.46C791.802 359.408 792.078 360.518 792.078 361.79C792.078 363.062 791.802 364.166 791.25 365.102C790.71 366.038 789.936 366.758 788.928 367.262C787.932 367.754 786.768 368 785.436 368H781.35V355.49H785.436ZM785.436 366.326C786.9 366.326 788.022 365.93 788.802 365.138C789.582 364.346 789.972 363.23 789.972 361.79C789.972 360.338 789.582 359.204 788.802 358.388C788.022 357.572 786.9 357.164 785.436 357.164H783.402V366.326H785.436ZM801.654 365.444H796.416L795.516 368H793.374L797.856 355.472H800.232L804.714 368H802.554L801.654 365.444ZM801.078 363.77L799.044 357.956L796.992 363.77H801.078ZM814.745 355.49V357.164H811.415V368H809.363V357.164H806.015V355.49H814.745ZM818.875 355.49V368H816.823V355.49H818.875ZM827.275 368.126C826.111 368.126 825.037 367.856 824.053 367.316C823.081 366.764 822.307 366.002 821.731 365.03C821.167 364.046 820.885 362.942 820.885 361.718C820.885 360.494 821.167 359.396 821.731 358.424C822.307 357.452 823.081 356.696 824.053 356.156C825.037 355.604 826.111 355.328 827.275 355.328C828.451 355.328 829.525 355.604 830.497 356.156C831.481 356.696 832.255 357.452 832.819 358.424C833.383 359.396 833.665 360.494 833.665 361.718C833.665 362.942 833.383 364.046 832.819 365.03C832.255 366.002 831.481 366.764 830.497 367.316C829.525 367.856 828.451 368.126 827.275 368.126ZM827.275 366.344C828.103 366.344 828.841 366.158 829.489 365.786C830.137 365.402 830.641 364.862 831.001 364.166C831.373 363.458 831.559 362.642 831.559 361.718C831.559 360.794 831.373 359.984 831.001 359.288C830.641 358.592 830.137 358.058 829.489 357.686C828.841 357.314 828.103 357.128 827.275 357.128C826.447 357.128 825.709 357.314 825.061 357.686C824.413 358.058 823.903 358.592 823.531 359.288C823.171 359.984 822.991 360.794 822.991 361.718C822.991 362.642 823.171 363.458 823.531 364.166C823.903 364.862 824.413 365.402 825.061 365.786C825.709 366.158 826.447 366.344 827.275 366.344ZM845.962 368H843.91L837.736 358.658V368H835.684V355.472H837.736L843.91 364.796V355.472H845.962V368Z" fill="#333333"/>
<path d="M618.81 406.75V404.878H622.554V418H620.484V406.75H618.81ZM625.373 411.268C625.373 409.192 625.721 407.572 626.417 406.408C627.125 405.232 628.337 404.644 630.053 404.644C631.769 404.644 632.975 405.232 633.671 406.408C634.379 407.572 634.733 409.192 634.733 411.268C634.733 413.368 634.379 415.012 633.671 416.2C632.975 417.376 631.769 417.964 630.053 417.964C628.337 417.964 627.125 417.376 626.417 416.2C625.721 415.012 625.373 413.368 625.373 411.268ZM632.717 411.268C632.717 410.296 632.651 409.474 632.519 408.802C632.399 408.13 632.147 407.584 631.763 407.164C631.379 406.732 630.809 406.516 630.053 406.516C629.297 406.516 628.727 406.732 628.343 407.164C627.959 407.584 627.701 408.13 627.569 408.802C627.449 409.474 627.389 410.296 627.389 411.268C627.389 412.276 627.449 413.122 627.569 413.806C627.689 414.49 627.941 415.042 628.325 415.462C628.721 415.882 629.297 416.092 630.053 416.092C630.809 416.092 631.379 415.882 631.763 415.462C632.159 415.042 632.417 414.49 632.537 413.806C632.657 413.122 632.717 412.276 632.717 411.268ZM636.58 408.046C636.58 407.17 636.832 406.486 637.336 405.994C637.852 405.49 638.512 405.238 639.316 405.238C640.12 405.238 640.774 405.49 641.278 405.994C641.794 406.486 642.052 407.17 642.052 408.046C642.052 408.922 641.794 409.612 641.278 410.116C640.774 410.62 640.12 410.872 639.316 410.872C638.512 410.872 637.852 410.62 637.336 410.116C636.832 409.612 636.58 408.922 636.58 408.046ZM647.56 405.472L640.378 418H638.362L645.544 405.472H647.56ZM639.316 406.48C638.56 406.48 638.182 407.002 638.182 408.046C638.182 409.102 638.56 409.63 639.316 409.63C639.676 409.63 639.952 409.504 640.144 409.252C640.348 408.988 640.45 408.586 640.45 408.046C640.45 407.002 640.072 406.48 639.316 406.48ZM643.906 415.408C643.906 414.532 644.158 413.848 644.662 413.356C645.178 412.852 645.838 412.6 646.642 412.6C647.434 412.6 648.082 412.852 648.586 413.356C649.102 413.848 649.36 414.532 649.36 415.408C649.36 416.284 649.102 416.974 648.586 417.478C648.082 417.982 647.434 418.234 646.642 418.234C645.838 418.234 645.178 417.982 644.662 417.478C644.158 416.974 643.906 416.284 643.906 415.408ZM646.624 413.842C645.868 413.842 645.49 414.364 645.49 415.408C645.49 416.452 645.868 416.974 646.624 416.974C647.38 416.974 647.758 416.452 647.758 415.408C647.758 414.364 647.38 413.842 646.624 413.842ZM655.457 411.718C655.457 410.494 655.739 409.396 656.303 408.424C656.879 407.452 657.653 406.696 658.625 406.156C659.609 405.604 660.683 405.328 661.847 405.328C663.179 405.328 664.361 405.658 665.393 406.318C666.437 406.966 667.193 407.89 667.661 409.09H665.195C664.871 408.43 664.421 407.938 663.845 407.614C663.269 407.29 662.603 407.128 661.847 407.128C661.019 407.128 660.281 407.314 659.633 407.686C658.985 408.058 658.475 408.592 658.103 409.288C657.743 409.984 657.563 410.794 657.563 411.718C657.563 412.642 657.743 413.452 658.103 414.148C658.475 414.844 658.985 415.384 659.633 415.768C660.281 416.14 661.019 416.326 661.847 416.326C662.603 416.326 663.269 416.164 663.845 415.84C664.421 415.516 664.871 415.024 665.195 414.364H667.661C667.193 415.564 666.437 416.488 665.393 417.136C664.361 417.784 663.179 418.108 661.847 418.108C660.671 418.108 659.597 417.838 658.625 417.298C657.653 416.746 656.879 415.984 656.303 415.012C655.739 414.04 655.457 412.942 655.457 411.718ZM680.053 405.49V418H678.001V412.528H672.115V418H670.063V405.49H672.115V410.854H678.001V405.49H680.053ZM690.296 415.444H685.058L684.158 418H682.016L686.498 405.472H688.874L693.356 418H691.196L690.296 415.444ZM689.72 413.77L687.686 407.956L685.634 413.77H689.72ZM701.803 418L698.923 412.996H697.357V418H695.305V405.49H699.625C700.585 405.49 701.395 405.658 702.055 405.994C702.727 406.33 703.225 406.78 703.549 407.344C703.885 407.908 704.053 408.538 704.053 409.234C704.053 410.05 703.813 410.794 703.333 411.466C702.865 412.126 702.139 412.576 701.155 412.816L704.251 418H701.803ZM697.357 411.358H699.625C700.393 411.358 700.969 411.166 701.353 410.782C701.749 410.398 701.947 409.882 701.947 409.234C701.947 408.586 701.755 408.082 701.371 407.722C700.987 407.35 700.405 407.164 699.625 407.164H697.357V411.358ZM708.73 405.49V418H706.678V405.49H708.73ZM719.506 405.49V407.164H716.176V418H714.124V407.164H710.776V405.49H719.506ZM730.854 405.49L726.714 413.464V418H724.662V413.464L720.504 405.49H722.79L725.688 411.628L728.586 405.49H730.854Z" fill="#333333"/>
</g>
</g>
<defs>
<clipPath id="clip0_471_716">
<rect width="980" height="568" fill="white"/>
</clipPath>
<clipPath id="clip1_471_716">
<rect width="816" height="540" fill="white" transform="translate(113 60)"/>
</clipPath>
</defs>
</svg>
