<svg width="858" height="472" viewBox="0 0 858 472" fill="none" xmlns="http://www.w3.org/2000/svg">
<g clip-path="url(#clip0_471_716)">
<g clip-path="url(#clip1_471_716)">
<path d="M42 241C42 336.545 119.455 414 215 414C310.545 414 388 336.545 388 241C388 145.455 310.545 68 215 68C119.455 68 42 145.455 42 241ZM310.715 241C310.715 293.862 267.862 336.715 215 336.715C162.138 336.715 119.285 293.862 119.285 241C119.285 188.138 162.138 145.285 215 145.285C267.862 145.285 310.715 188.138 310.715 241Z" fill="#CE6828"/>
<path d="M42 241C42 282.649 57.0253 322.9 84.3166 354.362C111.608 385.823 149.333 406.383 190.565 412.266C231.796 418.148 273.766 408.959 308.767 386.385C343.768 363.811 369.45 329.368 381.097 289.381C392.745 249.394 389.575 206.547 372.172 168.708C354.768 130.87 324.297 100.58 286.356 83.4014C248.415 66.2228 205.55 63.3083 165.633 75.1933C125.715 87.0783 91.4255 112.965 69.0601 148.099L134.71 189.89C147.015 170.561 165.88 156.319 187.84 149.781C209.801 143.242 233.383 144.845 254.257 154.296C275.13 163.747 291.894 180.411 301.469 201.228C311.044 222.045 312.787 245.618 306.379 267.617C299.971 289.616 285.842 308.565 266.586 320.984C247.33 333.403 224.24 338.459 201.557 335.223C178.873 331.986 158.118 320.675 143.104 303.366C128.089 286.058 119.823 263.913 119.823 241H42Z" fill="#FFD764"/>
<path d="M42 241C42 277.753 53.7049 313.551 75.4178 343.205C97.1308 372.858 127.723 394.826 162.761 405.924C197.798 417.022 235.46 416.674 270.286 404.928C305.111 393.183 335.292 370.652 356.452 340.601C377.612 310.55 388.651 274.542 387.97 237.795C387.289 201.048 374.923 165.473 352.665 136.227C330.406 106.981 299.412 85.583 264.175 75.136C228.938 64.6891 191.289 65.7357 156.687 78.1241L183.037 151.723C202.003 144.933 222.64 144.359 241.954 150.085C261.268 155.812 278.257 167.54 290.458 183.571C302.658 199.602 309.437 219.101 309.81 239.243C310.183 259.385 304.132 279.123 292.534 295.594C280.935 312.066 264.393 324.416 245.304 330.854C226.215 337.292 205.571 337.483 186.366 331.4C167.161 325.317 150.393 313.275 138.491 297.021C126.59 280.767 120.174 261.145 120.174 241H42Z" fill="#9E2224"/>
<path d="M42 241C42 272.947 50.8462 304.27 67.558 331.498C84.2698 358.725 108.194 380.793 136.68 395.256C165.166 409.719 197.1 416.012 228.944 413.437C260.787 410.862 291.295 399.52 317.087 380.668C342.879 361.816 362.947 336.191 375.067 306.632C387.187 277.073 390.885 244.736 385.752 213.204C380.619 181.672 366.855 152.177 345.986 127.988C325.117 103.8 297.957 85.8621 267.517 76.1639L243.952 150.127C260.733 155.474 275.706 165.363 287.211 178.698C298.717 192.032 306.304 208.293 309.134 225.676C311.964 243.059 309.925 260.887 303.244 277.182C296.562 293.478 285.499 307.605 271.28 317.998C257.061 328.391 240.242 334.644 222.687 336.063C205.132 337.483 187.527 334.013 171.823 326.04C156.119 318.067 142.93 305.901 133.716 290.891C124.503 275.88 119.627 258.612 119.627 241H42Z" fill="#347B5D"/>
<path d="M42 241C42 263.719 46.4748 286.215 55.1688 307.204C63.8629 328.194 76.606 347.265 92.6705 363.329C108.735 379.394 127.806 392.137 148.796 400.831C169.785 409.525 192.281 414 215 414C237.719 414 260.215 409.525 281.204 400.831C302.194 392.137 321.265 379.394 337.329 363.329C353.394 347.265 366.137 328.194 374.831 307.204C383.525 286.215 388 263.719 388 241L310.416 241C310.416 253.53 307.948 265.938 303.153 277.514C298.358 289.09 291.329 299.609 282.469 308.469C273.609 317.329 263.09 324.358 251.514 329.153C239.938 333.948 227.53 336.416 215 336.416C202.47 336.416 190.062 333.948 178.486 329.153C166.91 324.358 156.391 317.329 147.531 308.469C138.671 299.609 131.642 289.09 126.847 277.514C122.052 265.938 119.584 253.53 119.584 241L42 241Z" fill="#92804C"/>
<path d="M42 241C42 270.723 49.6582 299.945 64.2361 325.848C78.814 351.751 99.8198 373.461 125.228 388.885C150.637 404.309 179.59 412.926 209.297 413.906C239.005 414.886 268.463 408.195 294.833 394.479L258.92 325.436C244.413 332.982 228.206 336.663 211.863 336.124C195.519 335.585 179.59 330.844 165.612 322.359C151.634 313.874 140.077 301.93 132.057 287.679C124.037 273.429 119.824 257.352 119.824 241H42Z" fill="#88451B"/>
<circle r="14" transform="matrix(-1 0 0 1 486 94)" fill="#88451B"/>
<circle r="14" transform="matrix(-1 0 0 1 486 143)" fill="#92804C"/>
<circle r="14" transform="matrix(-1 0 0 1 486 192)" fill="#347B5D"/>
<circle r="14" transform="matrix(-1 0 0 1 486 242)" fill="#9E2224"/>
<circle r="14" transform="matrix(-1 0 0 1 486 291)" fill="#FFD764"/>
<circle r="14" transform="matrix(-1 0 0 1 486 340)" fill="#CE6828"/>
<path d="M537.044 88.118C537.116 87.002 537.542 86.132 538.322 85.508C539.114 84.884 540.122 84.572 541.346 84.572C542.186 84.572 542.912 84.722 543.524 85.022C544.136 85.322 544.598 85.73 544.91 86.246C545.222 86.762 545.378 87.344 545.378 87.992C545.378 88.736 545.18 89.372 544.784 89.9C544.388 90.428 543.914 90.782 543.362 90.962V91.034C544.07 91.25 544.622 91.646 545.018 92.222C545.414 92.786 545.612 93.512 545.612 94.4C545.612 95.108 545.45 95.738 545.126 96.29C544.802 96.842 544.322 97.28 543.686 97.604C543.05 97.916 542.288 98.072 541.4 98.072C540.104 98.072 539.036 97.742 538.196 97.082C537.368 96.41 536.924 95.45 536.864 94.202H538.844C538.892 94.838 539.138 95.36 539.582 95.768C540.026 96.164 540.626 96.362 541.382 96.362C542.114 96.362 542.678 96.164 543.074 95.768C543.47 95.36 543.668 94.838 543.668 94.202C543.668 93.362 543.398 92.768 542.858 92.42C542.33 92.06 541.514 91.88 540.41 91.88H539.942V90.188H540.428C541.4 90.176 542.138 90.014 542.642 89.702C543.158 89.39 543.416 88.898 543.416 88.226C543.416 87.65 543.23 87.194 542.858 86.858C542.486 86.51 541.958 86.336 541.274 86.336C540.602 86.336 540.08 86.51 539.708 86.858C539.336 87.194 539.114 87.614 539.042 88.118H537.044ZM547.768 91.268C547.768 89.192 548.116 87.572 548.812 86.408C549.52 85.232 550.732 84.644 552.448 84.644C554.164 84.644 555.37 85.232 556.066 86.408C556.774 87.572 557.128 89.192 557.128 91.268C557.128 93.368 556.774 95.012 556.066 96.2C555.37 97.376 554.164 97.964 552.448 97.964C550.732 97.964 549.52 97.376 548.812 96.2C548.116 95.012 547.768 93.368 547.768 91.268ZM555.112 91.268C555.112 90.296 555.046 89.474 554.914 88.802C554.794 88.13 554.542 87.584 554.158 87.164C553.774 86.732 553.204 86.516 552.448 86.516C551.692 86.516 551.122 86.732 550.738 87.164C550.354 87.584 550.096 88.13 549.964 88.802C549.844 89.474 549.784 90.296 549.784 91.268C549.784 92.276 549.844 93.122 549.964 93.806C550.084 94.49 550.336 95.042 550.72 95.462C551.116 95.882 551.692 96.092 552.448 96.092C553.204 96.092 553.774 95.882 554.158 95.462C554.554 95.042 554.812 94.49 554.932 93.806C555.052 93.122 555.112 92.276 555.112 91.268ZM558.975 88.046C558.975 87.17 559.227 86.486 559.731 85.994C560.247 85.49 560.907 85.238 561.711 85.238C562.515 85.238 563.169 85.49 563.673 85.994C564.189 86.486 564.447 87.17 564.447 88.046C564.447 88.922 564.189 89.612 563.673 90.116C563.169 90.62 562.515 90.872 561.711 90.872C560.907 90.872 560.247 90.62 559.731 90.116C559.227 89.612 558.975 88.922 558.975 88.046ZM569.955 85.472L562.773 98H560.757L567.939 85.472H569.955ZM561.711 86.48C560.955 86.48 560.577 87.002 560.577 88.046C560.577 89.102 560.955 89.63 561.711 89.63C562.071 89.63 562.347 89.504 562.539 89.252C562.743 88.988 562.845 88.586 562.845 88.046C562.845 87.002 562.467 86.48 561.711 86.48ZM566.301 95.408C566.301 94.532 566.553 93.848 567.057 93.356C567.573 92.852 568.233 92.6 569.037 92.6C569.829 92.6 570.477 92.852 570.981 93.356C571.497 93.848 571.755 94.532 571.755 95.408C571.755 96.284 571.497 96.974 570.981 97.478C570.477 97.982 569.829 98.234 569.037 98.234C568.233 98.234 567.573 97.982 567.057 97.478C566.553 96.974 566.301 96.284 566.301 95.408ZM569.019 93.842C568.263 93.842 567.885 94.364 567.885 95.408C567.885 96.452 568.263 96.974 569.019 96.974C569.775 96.974 570.153 96.452 570.153 95.408C570.153 94.364 569.775 93.842 569.019 93.842ZM587.284 89.216C587.284 89.852 587.134 90.452 586.834 91.016C586.534 91.58 586.054 92.042 585.394 92.402C584.734 92.75 583.888 92.924 582.856 92.924H580.588V98H578.536V85.49H582.856C583.816 85.49 584.626 85.658 585.286 85.994C585.958 86.318 586.456 86.762 586.78 87.326C587.116 87.89 587.284 88.52 587.284 89.216ZM582.856 91.25C583.636 91.25 584.218 91.076 584.602 90.728C584.986 90.368 585.178 89.864 585.178 89.216C585.178 87.848 584.404 87.164 582.856 87.164H580.588V91.25H582.856ZM595.739 98L592.859 92.996H591.293V98H589.241V85.49H593.561C594.521 85.49 595.331 85.658 595.991 85.994C596.663 86.33 597.161 86.78 597.485 87.344C597.821 87.908 597.989 88.538 597.989 89.234C597.989 90.05 597.749 90.794 597.269 91.466C596.801 92.126 596.075 92.576 595.091 92.816L598.187 98H595.739ZM591.293 91.358H593.561C594.329 91.358 594.905 91.166 595.289 90.782C595.685 90.398 595.883 89.882 595.883 89.234C595.883 88.586 595.691 88.082 595.307 87.722C594.923 87.35 594.341 87.164 593.561 87.164H591.293V91.358ZM602.666 87.146V90.818H606.986V92.492H602.666V96.326H607.526V98H600.614V85.472H607.526V87.146H602.666ZM614.175 98.126C613.335 98.126 612.579 97.982 611.907 97.694C611.235 97.394 610.707 96.974 610.323 96.434C609.939 95.894 609.747 95.264 609.747 94.544H611.943C611.991 95.084 612.201 95.528 612.573 95.876C612.957 96.224 613.491 96.398 614.175 96.398C614.883 96.398 615.435 96.23 615.831 95.894C616.227 95.546 616.425 95.102 616.425 94.562C616.425 94.142 616.299 93.8 616.047 93.536C615.807 93.272 615.501 93.068 615.129 92.924C614.769 92.78 614.265 92.624 613.617 92.456C612.801 92.24 612.135 92.024 611.619 91.808C611.115 91.58 610.683 91.232 610.323 90.764C609.963 90.296 609.783 89.672 609.783 88.892C609.783 88.172 609.963 87.542 610.323 87.002C610.683 86.462 611.187 86.048 611.835 85.76C612.483 85.472 613.233 85.328 614.085 85.328C615.297 85.328 616.287 85.634 617.055 86.246C617.835 86.846 618.267 87.674 618.351 88.73H616.083C616.047 88.274 615.831 87.884 615.435 87.56C615.039 87.236 614.517 87.074 613.869 87.074C613.281 87.074 612.801 87.224 612.429 87.524C612.057 87.824 611.871 88.256 611.871 88.82C611.871 89.204 611.985 89.522 612.213 89.774C612.453 90.014 612.753 90.206 613.113 90.35C613.473 90.494 613.965 90.65 614.589 90.818C615.417 91.046 616.089 91.274 616.605 91.502C617.133 91.73 617.577 92.084 617.937 92.564C618.309 93.032 618.495 93.662 618.495 94.454C618.495 95.09 618.321 95.69 617.973 96.254C617.637 96.818 617.139 97.274 616.479 97.622C615.831 97.958 615.063 98.126 614.175 98.126ZM628.458 95.444H623.22L622.32 98H620.178L624.66 85.472H627.036L631.518 98H629.358L628.458 95.444ZM627.882 93.77L625.848 87.956L623.796 93.77H627.882ZM635.519 96.344H639.749V98H633.467V85.49H635.519V96.344ZM643.517 87.146V90.818H647.837V92.492H643.517V96.326H648.377V98H641.465V85.472H648.377V87.146H643.517Z" fill="#333333"/>
<path d="M538.214 145.21C539.366 144.214 540.272 143.398 540.932 142.762C541.604 142.114 542.162 141.442 542.606 140.746C543.05 140.05 543.272 139.354 543.272 138.658C543.272 137.938 543.098 137.374 542.75 136.966C542.414 136.558 541.88 136.354 541.148 136.354C540.44 136.354 539.888 136.582 539.492 137.038C539.108 137.482 538.904 138.082 538.88 138.838H536.9C536.936 137.47 537.344 136.426 538.124 135.706C538.916 134.974 539.918 134.608 541.13 134.608C542.438 134.608 543.458 134.968 544.19 135.688C544.934 136.408 545.306 137.368 545.306 138.568C545.306 139.432 545.084 140.266 544.64 141.07C544.208 141.862 543.686 142.576 543.074 143.212C542.474 143.836 541.706 144.562 540.77 145.39L539.96 146.11H545.666V147.82H536.918V146.326L538.214 145.21ZM547.469 141.268C547.469 139.192 547.817 137.572 548.513 136.408C549.221 135.232 550.433 134.644 552.149 134.644C553.865 134.644 555.071 135.232 555.767 136.408C556.475 137.572 556.829 139.192 556.829 141.268C556.829 143.368 556.475 145.012 555.767 146.2C555.071 147.376 553.865 147.964 552.149 147.964C550.433 147.964 549.221 147.376 548.513 146.2C547.817 145.012 547.469 143.368 547.469 141.268ZM554.813 141.268C554.813 140.296 554.747 139.474 554.615 138.802C554.495 138.13 554.243 137.584 553.859 137.164C553.475 136.732 552.905 136.516 552.149 136.516C551.393 136.516 550.823 136.732 550.439 137.164C550.055 137.584 549.797 138.13 549.665 138.802C549.545 139.474 549.485 140.296 549.485 141.268C549.485 142.276 549.545 143.122 549.665 143.806C549.785 144.49 550.037 145.042 550.421 145.462C550.817 145.882 551.393 146.092 552.149 146.092C552.905 146.092 553.475 145.882 553.859 145.462C554.255 145.042 554.513 144.49 554.633 143.806C554.753 143.122 554.813 142.276 554.813 141.268ZM558.676 138.046C558.676 137.17 558.928 136.486 559.432 135.994C559.948 135.49 560.608 135.238 561.412 135.238C562.216 135.238 562.87 135.49 563.374 135.994C563.89 136.486 564.148 137.17 564.148 138.046C564.148 138.922 563.89 139.612 563.374 140.116C562.87 140.62 562.216 140.872 561.412 140.872C560.608 140.872 559.948 140.62 559.432 140.116C558.928 139.612 558.676 138.922 558.676 138.046ZM569.656 135.472L562.474 148H560.458L567.64 135.472H569.656ZM561.412 136.48C560.656 136.48 560.278 137.002 560.278 138.046C560.278 139.102 560.656 139.63 561.412 139.63C561.772 139.63 562.048 139.504 562.24 139.252C562.444 138.988 562.546 138.586 562.546 138.046C562.546 137.002 562.168 136.48 561.412 136.48ZM566.002 145.408C566.002 144.532 566.254 143.848 566.758 143.356C567.274 142.852 567.934 142.6 568.738 142.6C569.53 142.6 570.178 142.852 570.682 143.356C571.198 143.848 571.456 144.532 571.456 145.408C571.456 146.284 571.198 146.974 570.682 147.478C570.178 147.982 569.53 148.234 568.738 148.234C567.934 148.234 567.274 147.982 566.758 147.478C566.254 146.974 566.002 146.284 566.002 145.408ZM568.72 143.842C567.964 143.842 567.586 144.364 567.586 145.408C567.586 146.452 567.964 146.974 568.72 146.974C569.476 146.974 569.854 146.452 569.854 145.408C569.854 144.364 569.476 143.842 568.72 143.842ZM580.289 137.146V140.818H584.609V142.492H580.289V146.326H585.149V148H578.237V135.472H585.149V137.146H580.289ZM586.992 141.718C586.992 140.494 587.274 139.396 587.838 138.424C588.414 137.452 589.188 136.696 590.16 136.156C591.144 135.604 592.218 135.328 593.382 135.328C594.714 135.328 595.896 135.658 596.928 136.318C597.972 136.966 598.728 137.89 599.196 139.09H596.73C596.406 138.43 595.956 137.938 595.38 137.614C594.804 137.29 594.138 137.128 593.382 137.128C592.554 137.128 591.816 137.314 591.168 137.686C590.52 138.058 590.01 138.592 589.638 139.288C589.278 139.984 589.098 140.794 589.098 141.718C589.098 142.642 589.278 143.452 589.638 144.148C590.01 144.844 590.52 145.384 591.168 145.768C591.816 146.14 592.554 146.326 593.382 146.326C594.138 146.326 594.804 146.164 595.38 145.84C595.956 145.516 596.406 145.024 596.73 144.364H599.196C598.728 145.564 597.972 146.488 596.928 147.136C595.896 147.784 594.714 148.108 593.382 148.108C592.206 148.108 591.132 147.838 590.16 147.298C589.188 146.746 588.414 145.984 587.838 145.012C587.274 144.04 586.992 142.942 586.992 141.718ZM607.304 148.126C606.14 148.126 605.066 147.856 604.082 147.316C603.11 146.764 602.336 146.002 601.76 145.03C601.196 144.046 600.914 142.942 600.914 141.718C600.914 140.494 601.196 139.396 601.76 138.424C602.336 137.452 603.11 136.696 604.082 136.156C605.066 135.604 606.14 135.328 607.304 135.328C608.48 135.328 609.554 135.604 610.526 136.156C611.51 136.696 612.284 137.452 612.848 138.424C613.412 139.396 613.694 140.494 613.694 141.718C613.694 142.942 613.412 144.046 612.848 145.03C612.284 146.002 611.51 146.764 610.526 147.316C609.554 147.856 608.48 148.126 607.304 148.126ZM607.304 146.344C608.132 146.344 608.87 146.158 609.518 145.786C610.166 145.402 610.67 144.862 611.03 144.166C611.402 143.458 611.588 142.642 611.588 141.718C611.588 140.794 611.402 139.984 611.03 139.288C610.67 138.592 610.166 138.058 609.518 137.686C608.87 137.314 608.132 137.128 607.304 137.128C606.476 137.128 605.738 137.314 605.09 137.686C604.442 138.058 603.932 138.592 603.56 139.288C603.2 139.984 603.02 140.794 603.02 141.718C603.02 142.642 603.2 143.458 603.56 144.166C603.932 144.862 604.442 145.402 605.09 145.786C605.738 146.158 606.476 146.344 607.304 146.344ZM619.835 148.126C618.995 148.126 618.239 147.982 617.567 147.694C616.895 147.394 616.367 146.974 615.983 146.434C615.599 145.894 615.407 145.264 615.407 144.544H617.603C617.651 145.084 617.861 145.528 618.233 145.876C618.617 146.224 619.151 146.398 619.835 146.398C620.543 146.398 621.095 146.23 621.491 145.894C621.887 145.546 622.085 145.102 622.085 144.562C622.085 144.142 621.959 143.8 621.707 143.536C621.467 143.272 621.161 143.068 620.789 142.924C620.429 142.78 619.925 142.624 619.277 142.456C618.461 142.24 617.795 142.024 617.279 141.808C616.775 141.58 616.343 141.232 615.983 140.764C615.623 140.296 615.443 139.672 615.443 138.892C615.443 138.172 615.623 137.542 615.983 137.002C616.343 136.462 616.847 136.048 617.495 135.76C618.143 135.472 618.893 135.328 619.745 135.328C620.957 135.328 621.947 135.634 622.715 136.246C623.495 136.846 623.927 137.674 624.011 138.73H621.743C621.707 138.274 621.491 137.884 621.095 137.56C620.699 137.236 620.177 137.074 619.529 137.074C618.941 137.074 618.461 137.224 618.089 137.524C617.717 137.824 617.531 138.256 617.531 138.82C617.531 139.204 617.645 139.522 617.873 139.774C618.113 140.014 618.413 140.206 618.773 140.35C619.133 140.494 619.625 140.65 620.249 140.818C621.077 141.046 621.749 141.274 622.265 141.502C622.793 141.73 623.237 142.084 623.597 142.564C623.969 143.032 624.155 143.662 624.155 144.454C624.155 145.09 623.981 145.69 623.633 146.254C623.297 146.818 622.799 147.274 622.139 147.622C621.491 147.958 620.723 148.126 619.835 148.126ZM635.847 135.49L631.707 143.464V148H629.655V143.464L625.497 135.49H627.783L630.681 141.628L633.579 135.49H635.847ZM641.597 148.126C640.757 148.126 640.001 147.982 639.329 147.694C638.657 147.394 638.129 146.974 637.745 146.434C637.361 145.894 637.169 145.264 637.169 144.544H639.365C639.413 145.084 639.623 145.528 639.995 145.876C640.379 146.224 640.913 146.398 641.597 146.398C642.305 146.398 642.857 146.23 643.253 145.894C643.649 145.546 643.847 145.102 643.847 144.562C643.847 144.142 643.721 143.8 643.469 143.536C643.229 143.272 642.923 143.068 642.551 142.924C642.191 142.78 641.687 142.624 641.039 142.456C640.223 142.24 639.557 142.024 639.041 141.808C638.537 141.58 638.105 141.232 637.745 140.764C637.385 140.296 637.205 139.672 637.205 138.892C637.205 138.172 637.385 137.542 637.745 137.002C638.105 136.462 638.609 136.048 639.257 135.76C639.905 135.472 640.655 135.328 641.507 135.328C642.719 135.328 643.709 135.634 644.477 136.246C645.257 136.846 645.689 137.674 645.773 138.73H643.505C643.469 138.274 643.253 137.884 642.857 137.56C642.461 137.236 641.939 137.074 641.291 137.074C640.703 137.074 640.223 137.224 639.851 137.524C639.479 137.824 639.293 138.256 639.293 138.82C639.293 139.204 639.407 139.522 639.635 139.774C639.875 140.014 640.175 140.206 640.535 140.35C640.895 140.494 641.387 140.65 642.011 140.818C642.839 141.046 643.511 141.274 644.027 141.502C644.555 141.73 644.999 142.084 645.359 142.564C645.731 143.032 645.917 143.662 645.917 144.454C645.917 145.09 645.743 145.69 645.395 146.254C645.059 146.818 644.561 147.274 643.901 147.622C643.253 147.958 642.485 148.126 641.597 148.126ZM656.42 135.49V137.164H653.09V148H651.038V137.164H647.69V135.49H656.42ZM660.55 137.146V140.818H664.87V142.492H660.55V146.326H665.41V148H658.498V135.472H665.41V137.146H660.55ZM681.114 135.49V148H679.062V139.432L675.246 148H673.824L669.99 139.432V148H667.938V135.49H670.152L674.544 145.3L678.918 135.49H681.114ZM692.573 135.49C693.905 135.49 695.069 135.748 696.065 136.264C697.073 136.768 697.847 137.5 698.387 138.46C698.939 139.408 699.215 140.518 699.215 141.79C699.215 143.062 698.939 144.166 698.387 145.102C697.847 146.038 697.073 146.758 696.065 147.262C695.069 147.754 693.905 148 692.573 148H688.487V135.49H692.573ZM692.573 146.326C694.037 146.326 695.159 145.93 695.939 145.138C696.719 144.346 697.109 143.23 697.109 141.79C697.109 140.338 696.719 139.204 695.939 138.388C695.159 137.572 694.037 137.164 692.573 137.164H690.539V146.326H692.573ZM703.3 137.146V140.818H707.62V142.492H703.3V146.326H708.16V148H701.248V135.472H708.16V137.146H703.3ZM721.47 135.49L716.772 148H714.396L709.68 135.49H711.876L715.584 145.894L719.31 135.49H721.47ZM725.238 137.146V140.818H729.558V142.492H725.238V146.326H730.098V148H723.186V135.472H730.098V137.146H725.238ZM734.677 146.344H738.907V148H732.625V135.49H734.677V146.344ZM746.329 148.126C745.165 148.126 744.091 147.856 743.107 147.316C742.135 146.764 741.361 146.002 740.785 145.03C740.221 144.046 739.939 142.942 739.939 141.718C739.939 140.494 740.221 139.396 740.785 138.424C741.361 137.452 742.135 136.696 743.107 136.156C744.091 135.604 745.165 135.328 746.329 135.328C747.505 135.328 748.579 135.604 749.551 136.156C750.535 136.696 751.309 137.452 751.873 138.424C752.437 139.396 752.719 140.494 752.719 141.718C752.719 142.942 752.437 144.046 751.873 145.03C751.309 146.002 750.535 146.764 749.551 147.316C748.579 147.856 747.505 148.126 746.329 148.126ZM746.329 146.344C747.157 146.344 747.895 146.158 748.543 145.786C749.191 145.402 749.695 144.862 750.055 144.166C750.427 143.458 750.613 142.642 750.613 141.718C750.613 140.794 750.427 139.984 750.055 139.288C749.695 138.592 749.191 138.058 748.543 137.686C747.895 137.314 747.157 137.128 746.329 137.128C745.501 137.128 744.763 137.314 744.115 137.686C743.467 138.058 742.957 138.592 742.585 139.288C742.225 139.984 742.045 140.794 742.045 141.718C742.045 142.642 742.225 143.458 742.585 144.166C742.957 144.862 743.467 145.402 744.115 145.786C744.763 146.158 745.501 146.344 746.329 146.344ZM763.487 139.216C763.487 139.852 763.337 140.452 763.037 141.016C762.737 141.58 762.257 142.042 761.597 142.402C760.937 142.75 760.091 142.924 759.059 142.924H756.791V148H754.739V135.49H759.059C760.019 135.49 760.829 135.658 761.489 135.994C762.161 136.318 762.659 136.762 762.983 137.326C763.319 137.89 763.487 138.52 763.487 139.216ZM759.059 141.25C759.839 141.25 760.421 141.076 760.805 140.728C761.189 140.368 761.381 139.864 761.381 139.216C761.381 137.848 760.607 137.164 759.059 137.164H756.791V141.25H759.059ZM778.62 135.49V148H776.568V139.432L772.752 148H771.33L767.496 139.432V148H765.444V135.49H767.658L772.05 145.3L776.424 135.49H778.62ZM783.369 137.146V140.818H787.689V142.492H783.369V146.326H788.229V148H781.317V135.472H788.229V137.146H783.369ZM801.034 148H798.982L792.808 138.658V148H790.756V135.472H792.808L798.982 144.796V135.472H801.034V148ZM811.811 135.49V137.164H808.481V148H806.429V137.164H803.081V135.49H811.811Z" fill="#333333"/>
<path d="M536.214 195.21C537.366 194.214 538.272 193.398 538.932 192.762C539.604 192.114 540.162 191.442 540.606 190.746C541.05 190.05 541.272 189.354 541.272 188.658C541.272 187.938 541.098 187.374 540.75 186.966C540.414 186.558 539.88 186.354 539.148 186.354C538.44 186.354 537.888 186.582 537.492 187.038C537.108 187.482 536.904 188.082 536.88 188.838H534.9C534.936 187.47 535.344 186.426 536.124 185.706C536.916 184.974 537.918 184.608 539.13 184.608C540.438 184.608 541.458 184.968 542.19 185.688C542.934 186.408 543.306 187.368 543.306 188.568C543.306 189.432 543.084 190.266 542.64 191.07C542.208 191.862 541.686 192.576 541.074 193.212C540.474 193.836 539.706 194.562 538.77 195.39L537.96 196.11H543.666V197.82H534.918V196.326L536.214 195.21ZM545.469 191.268C545.469 189.192 545.817 187.572 546.513 186.408C547.221 185.232 548.433 184.644 550.149 184.644C551.865 184.644 553.071 185.232 553.767 186.408C554.475 187.572 554.829 189.192 554.829 191.268C554.829 193.368 554.475 195.012 553.767 196.2C553.071 197.376 551.865 197.964 550.149 197.964C548.433 197.964 547.221 197.376 546.513 196.2C545.817 195.012 545.469 193.368 545.469 191.268ZM552.813 191.268C552.813 190.296 552.747 189.474 552.615 188.802C552.495 188.13 552.243 187.584 551.859 187.164C551.475 186.732 550.905 186.516 550.149 186.516C549.393 186.516 548.823 186.732 548.439 187.164C548.055 187.584 547.797 188.13 547.665 188.802C547.545 189.474 547.485 190.296 547.485 191.268C547.485 192.276 547.545 193.122 547.665 193.806C547.785 194.49 548.037 195.042 548.421 195.462C548.817 195.882 549.393 196.092 550.149 196.092C550.905 196.092 551.475 195.882 551.859 195.462C552.255 195.042 552.513 194.49 552.633 193.806C552.753 193.122 552.813 192.276 552.813 191.268ZM556.676 188.046C556.676 187.17 556.928 186.486 557.432 185.994C557.948 185.49 558.608 185.238 559.412 185.238C560.216 185.238 560.87 185.49 561.374 185.994C561.89 186.486 562.148 187.17 562.148 188.046C562.148 188.922 561.89 189.612 561.374 190.116C560.87 190.62 560.216 190.872 559.412 190.872C558.608 190.872 557.948 190.62 557.432 190.116C556.928 189.612 556.676 188.922 556.676 188.046ZM567.656 185.472L560.474 198H558.458L565.64 185.472H567.656ZM559.412 186.48C558.656 186.48 558.278 187.002 558.278 188.046C558.278 189.102 558.656 189.63 559.412 189.63C559.772 189.63 560.048 189.504 560.24 189.252C560.444 188.988 560.546 188.586 560.546 188.046C560.546 187.002 560.168 186.48 559.412 186.48ZM564.002 195.408C564.002 194.532 564.254 193.848 564.758 193.356C565.274 192.852 565.934 192.6 566.738 192.6C567.53 192.6 568.178 192.852 568.682 193.356C569.198 193.848 569.456 194.532 569.456 195.408C569.456 196.284 569.198 196.974 568.682 197.478C568.178 197.982 567.53 198.234 566.738 198.234C565.934 198.234 565.274 197.982 564.758 197.478C564.254 196.974 564.002 196.284 564.002 195.408ZM566.72 193.842C565.964 193.842 565.586 194.364 565.586 195.408C565.586 196.452 565.964 196.974 566.72 196.974C567.476 196.974 567.854 196.452 567.854 195.408C567.854 194.364 567.476 193.842 566.72 193.842ZM578.289 196.344H582.519V198H576.237V185.49H578.289V196.344ZM586.287 185.49V198H584.235V185.49H586.287ZM598.665 200.268L596.469 197.892C595.929 198.048 595.335 198.126 594.687 198.126C593.523 198.126 592.449 197.856 591.465 197.316C590.493 196.764 589.719 196.002 589.143 195.03C588.579 194.046 588.297 192.942 588.297 191.718C588.297 190.494 588.579 189.396 589.143 188.424C589.719 187.452 590.493 186.696 591.465 186.156C592.449 185.604 593.523 185.328 594.687 185.328C595.863 185.328 596.937 185.604 597.909 186.156C598.893 186.696 599.667 187.452 600.231 188.424C600.795 189.396 601.077 190.494 601.077 191.718C601.077 192.87 600.825 193.914 600.321 194.85C599.829 195.774 599.145 196.518 598.269 197.082L601.275 200.268H598.665ZM590.403 191.718C590.403 192.642 590.583 193.458 590.943 194.166C591.315 194.862 591.825 195.402 592.473 195.786C593.121 196.158 593.859 196.344 594.687 196.344C595.515 196.344 596.253 196.158 596.901 195.786C597.549 195.402 598.053 194.862 598.413 194.166C598.785 193.458 598.971 192.642 598.971 191.718C598.971 190.794 598.785 189.984 598.413 189.288C598.053 188.592 597.549 188.058 596.901 187.686C596.253 187.314 595.515 187.128 594.687 187.128C593.859 187.128 593.121 187.314 592.473 187.686C591.825 188.058 591.315 188.592 590.943 189.288C590.583 189.984 590.403 190.794 590.403 191.718ZM605.183 185.49V193.464C605.183 194.412 605.429 195.126 605.921 195.606C606.425 196.086 607.121 196.326 608.009 196.326C608.909 196.326 609.605 196.086 610.097 195.606C610.601 195.126 610.853 194.412 610.853 193.464V185.49H612.905V193.428C612.905 194.448 612.683 195.312 612.239 196.02C611.795 196.728 611.201 197.256 610.457 197.604C609.713 197.952 608.891 198.126 607.991 198.126C607.091 198.126 606.269 197.952 605.525 197.604C604.793 197.256 604.211 196.728 603.779 196.02C603.347 195.312 603.131 194.448 603.131 193.428V185.49H605.183ZM617.629 185.49V198H615.577V185.49H617.629ZM624.409 185.49C625.741 185.49 626.905 185.748 627.901 186.264C628.909 186.768 629.683 187.5 630.223 188.46C630.775 189.408 631.051 190.518 631.051 191.79C631.051 193.062 630.775 194.166 630.223 195.102C629.683 196.038 628.909 196.758 627.901 197.262C626.905 197.754 625.741 198 624.409 198H620.323V185.49H624.409ZM624.409 196.326C625.873 196.326 626.995 195.93 627.775 195.138C628.555 194.346 628.945 193.23 628.945 191.79C628.945 190.338 628.555 189.204 627.775 188.388C626.995 187.572 625.873 187.164 624.409 187.164H622.375V196.326H624.409ZM635.136 185.49V198H633.084V185.49H635.136ZM645.912 185.49V187.164H642.582V198H640.53V187.164H637.182V185.49H645.912ZM657.261 185.49L653.121 193.464V198H651.069V193.464L646.911 185.49H649.197L652.095 191.628L654.993 185.49H657.261Z" fill="#333333"/>
<path d="M536.81 238.75V236.878H540.554V250H538.484V238.75H536.81ZM543.373 243.268C543.373 241.192 543.721 239.572 544.417 238.408C545.125 237.232 546.337 236.644 548.053 236.644C549.769 236.644 550.975 237.232 551.671 238.408C552.379 239.572 552.733 241.192 552.733 243.268C552.733 245.368 552.379 247.012 551.671 248.2C550.975 249.376 549.769 249.964 548.053 249.964C546.337 249.964 545.125 249.376 544.417 248.2C543.721 247.012 543.373 245.368 543.373 243.268ZM550.717 243.268C550.717 242.296 550.651 241.474 550.519 240.802C550.399 240.13 550.147 239.584 549.763 239.164C549.379 238.732 548.809 238.516 548.053 238.516C547.297 238.516 546.727 238.732 546.343 239.164C545.959 239.584 545.701 240.13 545.569 240.802C545.449 241.474 545.389 242.296 545.389 243.268C545.389 244.276 545.449 245.122 545.569 245.806C545.689 246.49 545.941 247.042 546.325 247.462C546.721 247.882 547.297 248.092 548.053 248.092C548.809 248.092 549.379 247.882 549.763 247.462C550.159 247.042 550.417 246.49 550.537 245.806C550.657 245.122 550.717 244.276 550.717 243.268ZM554.58 240.046C554.58 239.17 554.832 238.486 555.336 237.994C555.852 237.49 556.512 237.238 557.316 237.238C558.12 237.238 558.774 237.49 559.278 237.994C559.794 238.486 560.052 239.17 560.052 240.046C560.052 240.922 559.794 241.612 559.278 242.116C558.774 242.62 558.12 242.872 557.316 242.872C556.512 242.872 555.852 242.62 555.336 242.116C554.832 241.612 554.58 240.922 554.58 240.046ZM565.56 237.472L558.378 250H556.362L563.544 237.472H565.56ZM557.316 238.48C556.56 238.48 556.182 239.002 556.182 240.046C556.182 241.102 556.56 241.63 557.316 241.63C557.676 241.63 557.952 241.504 558.144 241.252C558.348 240.988 558.45 240.586 558.45 240.046C558.45 239.002 558.072 238.48 557.316 238.48ZM561.906 247.408C561.906 246.532 562.158 245.848 562.662 245.356C563.178 244.852 563.838 244.6 564.642 244.6C565.434 244.6 566.082 244.852 566.586 245.356C567.102 245.848 567.36 246.532 567.36 247.408C567.36 248.284 567.102 248.974 566.586 249.478C566.082 249.982 565.434 250.234 564.642 250.234C563.838 250.234 563.178 249.982 562.662 249.478C562.158 248.974 561.906 248.284 561.906 247.408ZM564.624 245.842C563.868 245.842 563.49 246.364 563.49 247.408C563.49 248.452 563.868 248.974 564.624 248.974C565.38 248.974 565.758 248.452 565.758 247.408C565.758 246.364 565.38 245.842 564.624 245.842ZM587.317 237.49V250H585.265V241.432L581.449 250H580.027L576.193 241.432V250H574.141V237.49H576.355L580.747 247.3L585.121 237.49H587.317ZM597.556 247.444H592.318L591.418 250H589.276L593.758 237.472H596.134L600.616 250H598.456L597.556 247.444ZM596.98 245.77L594.946 239.956L592.894 245.77H596.98ZM609.063 250L606.183 244.996H604.617V250H602.565V237.49H606.885C607.845 237.49 608.655 237.658 609.315 237.994C609.987 238.33 610.485 238.78 610.809 239.344C611.145 239.908 611.313 240.538 611.313 241.234C611.313 242.05 611.073 242.794 610.593 243.466C610.125 244.126 609.399 244.576 608.415 244.816L611.511 250H609.063ZM604.617 243.358H606.885C607.653 243.358 608.229 243.166 608.613 242.782C609.009 242.398 609.207 241.882 609.207 241.234C609.207 240.586 609.015 240.082 608.631 239.722C608.247 239.35 607.665 239.164 606.885 239.164H604.617V243.358ZM620.832 250L615.99 244.402V250H613.938V237.49H615.99V243.196L620.85 237.49H623.424L617.988 243.754L623.514 250H620.832ZM627.381 239.146V242.818H631.701V244.492H627.381V248.326H632.241V250H625.329V237.472H632.241V239.146H627.381ZM642.85 237.49V239.164H639.52V250H637.468V239.164H634.12V237.49H642.85ZM646.98 237.49V250H644.928V237.49H646.98ZM659.952 250H657.9L651.726 240.658V250H649.674V237.472H651.726L657.9 246.796V237.472H659.952V250ZM671.701 241.09C671.377 240.466 670.927 239.998 670.351 239.686C669.775 239.362 669.109 239.2 668.353 239.2C667.525 239.2 666.787 239.386 666.139 239.758C665.491 240.13 664.981 240.658 664.609 241.342C664.249 242.026 664.069 242.818 664.069 243.718C664.069 244.618 664.249 245.416 664.609 246.112C664.981 246.796 665.491 247.324 666.139 247.696C666.787 248.068 667.525 248.254 668.353 248.254C669.469 248.254 670.375 247.942 671.071 247.318C671.767 246.694 672.193 245.848 672.349 244.78H667.651V243.142H674.545V244.744C674.413 245.716 674.065 246.61 673.501 247.426C672.949 248.242 672.223 248.896 671.323 249.388C670.435 249.868 669.445 250.108 668.353 250.108C667.177 250.108 666.103 249.838 665.131 249.298C664.159 248.746 663.385 247.984 662.809 247.012C662.245 246.04 661.963 244.942 661.963 243.718C661.963 242.494 662.245 241.396 662.809 240.424C663.385 239.452 664.159 238.696 665.131 238.156C666.115 237.604 667.189 237.328 668.353 237.328C669.685 237.328 670.867 237.658 671.899 238.318C672.943 238.966 673.699 239.89 674.167 241.09H671.701Z" fill="#333333"/>
<path d="M536.81 288.75V286.878H540.554V300H538.484V288.75H536.81ZM543.373 293.268C543.373 291.192 543.721 289.572 544.417 288.408C545.125 287.232 546.337 286.644 548.053 286.644C549.769 286.644 550.975 287.232 551.671 288.408C552.379 289.572 552.733 291.192 552.733 293.268C552.733 295.368 552.379 297.012 551.671 298.2C550.975 299.376 549.769 299.964 548.053 299.964C546.337 299.964 545.125 299.376 544.417 298.2C543.721 297.012 543.373 295.368 543.373 293.268ZM550.717 293.268C550.717 292.296 550.651 291.474 550.519 290.802C550.399 290.13 550.147 289.584 549.763 289.164C549.379 288.732 548.809 288.516 548.053 288.516C547.297 288.516 546.727 288.732 546.343 289.164C545.959 289.584 545.701 290.13 545.569 290.802C545.449 291.474 545.389 292.296 545.389 293.268C545.389 294.276 545.449 295.122 545.569 295.806C545.689 296.49 545.941 297.042 546.325 297.462C546.721 297.882 547.297 298.092 548.053 298.092C548.809 298.092 549.379 297.882 549.763 297.462C550.159 297.042 550.417 296.49 550.537 295.806C550.657 295.122 550.717 294.276 550.717 293.268ZM554.58 290.046C554.58 289.17 554.832 288.486 555.336 287.994C555.852 287.49 556.512 287.238 557.316 287.238C558.12 287.238 558.774 287.49 559.278 287.994C559.794 288.486 560.052 289.17 560.052 290.046C560.052 290.922 559.794 291.612 559.278 292.116C558.774 292.62 558.12 292.872 557.316 292.872C556.512 292.872 555.852 292.62 555.336 292.116C554.832 291.612 554.58 290.922 554.58 290.046ZM565.56 287.472L558.378 300H556.362L563.544 287.472H565.56ZM557.316 288.48C556.56 288.48 556.182 289.002 556.182 290.046C556.182 291.102 556.56 291.63 557.316 291.63C557.676 291.63 557.952 291.504 558.144 291.252C558.348 290.988 558.45 290.586 558.45 290.046C558.45 289.002 558.072 288.48 557.316 288.48ZM561.906 297.408C561.906 296.532 562.158 295.848 562.662 295.356C563.178 294.852 563.838 294.6 564.642 294.6C565.434 294.6 566.082 294.852 566.586 295.356C567.102 295.848 567.36 296.532 567.36 297.408C567.36 298.284 567.102 298.974 566.586 299.478C566.082 299.982 565.434 300.234 564.642 300.234C563.838 300.234 563.178 299.982 562.662 299.478C562.158 298.974 561.906 298.284 561.906 297.408ZM564.624 295.842C563.868 295.842 563.49 296.364 563.49 297.408C563.49 298.452 563.868 298.974 564.624 298.974C565.38 298.974 565.758 298.452 565.758 297.408C565.758 296.364 565.38 295.842 564.624 295.842ZM576.175 287.49V295.464C576.175 296.412 576.421 297.126 576.913 297.606C577.417 298.086 578.113 298.326 579.001 298.326C579.901 298.326 580.597 298.086 581.089 297.606C581.593 297.126 581.845 296.412 581.845 295.464V287.49H583.897V295.428C583.897 296.448 583.675 297.312 583.231 298.02C582.787 298.728 582.193 299.256 581.449 299.604C580.705 299.952 579.883 300.126 578.983 300.126C578.083 300.126 577.261 299.952 576.517 299.604C575.785 299.256 575.203 298.728 574.771 298.02C574.339 297.312 574.123 296.448 574.123 295.428V287.49H576.175ZM593.265 293.574C593.937 293.694 594.507 294.048 594.975 294.636C595.443 295.224 595.677 295.89 595.677 296.634C595.677 297.27 595.509 297.846 595.173 298.362C594.849 298.866 594.375 299.268 593.751 299.568C593.127 299.856 592.401 300 591.573 300H586.569V287.49H591.339C592.191 287.49 592.923 287.634 593.535 287.922C594.147 288.21 594.609 288.6 594.921 289.092C595.233 289.572 595.389 290.112 595.389 290.712C595.389 291.432 595.197 292.032 594.813 292.512C594.429 292.992 593.913 293.346 593.265 293.574ZM588.621 292.746H591.159C591.831 292.746 592.353 292.596 592.725 292.296C593.109 291.984 593.301 291.54 593.301 290.964C593.301 290.4 593.109 289.962 592.725 289.65C592.353 289.326 591.831 289.164 591.159 289.164H588.621V292.746ZM591.393 298.326C592.089 298.326 592.635 298.158 593.031 297.822C593.427 297.486 593.625 297.018 593.625 296.418C593.625 295.806 593.415 295.32 592.995 294.96C592.575 294.6 592.017 294.42 591.321 294.42H588.621V298.326H591.393ZM599.941 287.49V295.464C599.941 296.412 600.187 297.126 600.679 297.606C601.183 298.086 601.879 298.326 602.767 298.326C603.667 298.326 604.363 298.086 604.855 297.606C605.359 297.126 605.611 296.412 605.611 295.464V287.49H607.663V295.428C607.663 296.448 607.441 297.312 606.997 298.02C606.553 298.728 605.959 299.256 605.215 299.604C604.471 299.952 603.649 300.126 602.749 300.126C601.849 300.126 601.027 299.952 600.283 299.604C599.551 299.256 598.969 298.728 598.537 298.02C598.105 297.312 597.889 296.448 597.889 295.428V287.49H599.941ZM620.612 300H618.56L612.386 290.658V300H610.334V287.472H612.386L618.56 296.796V287.472H620.612V300ZM631.389 287.49V289.164H628.059V300H626.007V289.164H622.659V287.49H631.389ZM635.501 287.49V295.464C635.501 296.412 635.747 297.126 636.239 297.606C636.743 298.086 637.439 298.326 638.327 298.326C639.227 298.326 639.923 298.086 640.415 297.606C640.919 297.126 641.171 296.412 641.171 295.464V287.49H643.223V295.428C643.223 296.448 643.001 297.312 642.557 298.02C642.113 298.728 641.519 299.256 640.775 299.604C640.031 299.952 639.209 300.126 638.309 300.126C637.409 300.126 636.587 299.952 635.843 299.604C635.111 299.256 634.529 298.728 634.097 298.02C633.665 297.312 633.449 296.448 633.449 295.428V287.49H635.501ZM657.933 287.49V289.164H652.623V292.854H656.763V294.528H652.623V300H650.571V287.49H657.933ZM665.54 300.126C664.376 300.126 663.302 299.856 662.318 299.316C661.346 298.764 660.572 298.002 659.996 297.03C659.432 296.046 659.15 294.942 659.15 293.718C659.15 292.494 659.432 291.396 659.996 290.424C660.572 289.452 661.346 288.696 662.318 288.156C663.302 287.604 664.376 287.328 665.54 287.328C666.716 287.328 667.79 287.604 668.762 288.156C669.746 288.696 670.52 289.452 671.084 290.424C671.648 291.396 671.93 292.494 671.93 293.718C671.93 294.942 671.648 296.046 671.084 297.03C670.52 298.002 669.746 298.764 668.762 299.316C667.79 299.856 666.716 300.126 665.54 300.126ZM665.54 298.344C666.368 298.344 667.106 298.158 667.754 297.786C668.402 297.402 668.906 296.862 669.266 296.166C669.638 295.458 669.824 294.642 669.824 293.718C669.824 292.794 669.638 291.984 669.266 291.288C668.906 290.592 668.402 290.058 667.754 289.686C667.106 289.314 666.368 289.128 665.54 289.128C664.712 289.128 663.974 289.314 663.326 289.686C662.678 290.058 662.168 290.592 661.796 291.288C661.436 291.984 661.256 292.794 661.256 293.718C661.256 294.642 661.436 295.458 661.796 296.166C662.168 296.862 662.678 297.402 663.326 297.786C663.974 298.158 664.712 298.344 665.54 298.344ZM675.984 287.49V295.464C675.984 296.412 676.23 297.126 676.722 297.606C677.226 298.086 677.922 298.326 678.81 298.326C679.71 298.326 680.406 298.086 680.898 297.606C681.402 297.126 681.654 296.412 681.654 295.464V287.49H683.706V295.428C683.706 296.448 683.484 297.312 683.04 298.02C682.596 298.728 682.002 299.256 681.258 299.604C680.514 299.952 679.692 300.126 678.792 300.126C677.892 300.126 677.07 299.952 676.326 299.604C675.594 299.256 675.012 298.728 674.58 298.02C674.148 297.312 673.932 296.448 673.932 295.428V287.49H675.984ZM696.655 300H694.603L688.429 290.658V300H686.377V287.472H688.429L694.603 296.796V287.472H696.655V300ZM703.436 287.49C704.768 287.49 705.932 287.748 706.928 288.264C707.936 288.768 708.71 289.5 709.25 290.46C709.802 291.408 710.078 292.518 710.078 293.79C710.078 295.062 709.802 296.166 709.25 297.102C708.71 298.038 707.936 298.758 706.928 299.262C705.932 299.754 704.768 300 703.436 300H699.35V287.49H703.436ZM703.436 298.326C704.9 298.326 706.022 297.93 706.802 297.138C707.582 296.346 707.972 295.23 707.972 293.79C707.972 292.338 707.582 291.204 706.802 290.388C706.022 289.572 704.9 289.164 703.436 289.164H701.402V298.326H703.436ZM719.654 297.444H714.416L713.516 300H711.374L715.856 287.472H718.232L722.714 300H720.554L719.654 297.444ZM719.078 295.77L717.044 289.956L714.992 295.77H719.078ZM732.745 287.49V289.164H729.415V300H727.363V289.164H724.015V287.49H732.745ZM736.875 287.49V300H734.823V287.49H736.875ZM745.275 300.126C744.111 300.126 743.037 299.856 742.053 299.316C741.081 298.764 740.307 298.002 739.731 297.03C739.167 296.046 738.885 294.942 738.885 293.718C738.885 292.494 739.167 291.396 739.731 290.424C740.307 289.452 741.081 288.696 742.053 288.156C743.037 287.604 744.111 287.328 745.275 287.328C746.451 287.328 747.525 287.604 748.497 288.156C749.481 288.696 750.255 289.452 750.819 290.424C751.383 291.396 751.665 292.494 751.665 293.718C751.665 294.942 751.383 296.046 750.819 297.03C750.255 298.002 749.481 298.764 748.497 299.316C747.525 299.856 746.451 300.126 745.275 300.126ZM745.275 298.344C746.103 298.344 746.841 298.158 747.489 297.786C748.137 297.402 748.641 296.862 749.001 296.166C749.373 295.458 749.559 294.642 749.559 293.718C749.559 292.794 749.373 291.984 749.001 291.288C748.641 290.592 748.137 290.058 747.489 289.686C746.841 289.314 746.103 289.128 745.275 289.128C744.447 289.128 743.709 289.314 743.061 289.686C742.413 290.058 741.903 290.592 741.531 291.288C741.171 291.984 740.991 292.794 740.991 293.718C740.991 294.642 741.171 295.458 741.531 296.166C741.903 296.862 742.413 297.402 743.061 297.786C743.709 298.158 744.447 298.344 745.275 298.344ZM763.962 300H761.91L755.736 290.658V300H753.684V287.472H755.736L761.91 296.796V287.472H763.962V300Z" fill="#333333"/>
<path d="M536.81 338.75V336.878H540.554V350H538.484V338.75H536.81ZM543.373 343.268C543.373 341.192 543.721 339.572 544.417 338.408C545.125 337.232 546.337 336.644 548.053 336.644C549.769 336.644 550.975 337.232 551.671 338.408C552.379 339.572 552.733 341.192 552.733 343.268C552.733 345.368 552.379 347.012 551.671 348.2C550.975 349.376 549.769 349.964 548.053 349.964C546.337 349.964 545.125 349.376 544.417 348.2C543.721 347.012 543.373 345.368 543.373 343.268ZM550.717 343.268C550.717 342.296 550.651 341.474 550.519 340.802C550.399 340.13 550.147 339.584 549.763 339.164C549.379 338.732 548.809 338.516 548.053 338.516C547.297 338.516 546.727 338.732 546.343 339.164C545.959 339.584 545.701 340.13 545.569 340.802C545.449 341.474 545.389 342.296 545.389 343.268C545.389 344.276 545.449 345.122 545.569 345.806C545.689 346.49 545.941 347.042 546.325 347.462C546.721 347.882 547.297 348.092 548.053 348.092C548.809 348.092 549.379 347.882 549.763 347.462C550.159 347.042 550.417 346.49 550.537 345.806C550.657 345.122 550.717 344.276 550.717 343.268ZM554.58 340.046C554.58 339.17 554.832 338.486 555.336 337.994C555.852 337.49 556.512 337.238 557.316 337.238C558.12 337.238 558.774 337.49 559.278 337.994C559.794 338.486 560.052 339.17 560.052 340.046C560.052 340.922 559.794 341.612 559.278 342.116C558.774 342.62 558.12 342.872 557.316 342.872C556.512 342.872 555.852 342.62 555.336 342.116C554.832 341.612 554.58 340.922 554.58 340.046ZM565.56 337.472L558.378 350H556.362L563.544 337.472H565.56ZM557.316 338.48C556.56 338.48 556.182 339.002 556.182 340.046C556.182 341.102 556.56 341.63 557.316 341.63C557.676 341.63 557.952 341.504 558.144 341.252C558.348 340.988 558.45 340.586 558.45 340.046C558.45 339.002 558.072 338.48 557.316 338.48ZM561.906 347.408C561.906 346.532 562.158 345.848 562.662 345.356C563.178 344.852 563.838 344.6 564.642 344.6C565.434 344.6 566.082 344.852 566.586 345.356C567.102 345.848 567.36 346.532 567.36 347.408C567.36 348.284 567.102 348.974 566.586 349.478C566.082 349.982 565.434 350.234 564.642 350.234C563.838 350.234 563.178 349.982 562.662 349.478C562.158 348.974 561.906 348.284 561.906 347.408ZM564.624 345.842C563.868 345.842 563.49 346.364 563.49 347.408C563.49 348.452 563.868 348.974 564.624 348.974C565.38 348.974 565.758 348.452 565.758 347.408C565.758 346.364 565.38 345.842 564.624 345.842ZM573.457 343.718C573.457 342.494 573.739 341.396 574.303 340.424C574.879 339.452 575.653 338.696 576.625 338.156C577.609 337.604 578.683 337.328 579.847 337.328C581.179 337.328 582.361 337.658 583.393 338.318C584.437 338.966 585.193 339.89 585.661 341.09H583.195C582.871 340.43 582.421 339.938 581.845 339.614C581.269 339.29 580.603 339.128 579.847 339.128C579.019 339.128 578.281 339.314 577.633 339.686C576.985 340.058 576.475 340.592 576.103 341.288C575.743 341.984 575.563 342.794 575.563 343.718C575.563 344.642 575.743 345.452 576.103 346.148C576.475 346.844 576.985 347.384 577.633 347.768C578.281 348.14 579.019 348.326 579.847 348.326C580.603 348.326 581.269 348.164 581.845 347.84C582.421 347.516 582.871 347.024 583.195 346.364H585.661C585.193 347.564 584.437 348.488 583.393 349.136C582.361 349.784 581.179 350.108 579.847 350.108C578.671 350.108 577.597 349.838 576.625 349.298C575.653 348.746 574.879 347.984 574.303 347.012C573.739 346.04 573.457 344.942 573.457 343.718ZM598.053 337.49V350H596.001V344.528H590.115V350H588.063V337.49H590.115V342.854H596.001V337.49H598.053ZM608.296 347.444H603.058L602.158 350H600.016L604.498 337.472H606.874L611.356 350H609.196L608.296 347.444ZM607.72 345.77L605.686 339.956L603.634 345.77H607.72ZM619.803 350L616.923 344.996H615.357V350H613.305V337.49H617.625C618.585 337.49 619.395 337.658 620.055 337.994C620.727 338.33 621.225 338.78 621.549 339.344C621.885 339.908 622.053 340.538 622.053 341.234C622.053 342.05 621.813 342.794 621.333 343.466C620.865 344.126 620.139 344.576 619.155 344.816L622.251 350H619.803ZM615.357 343.358H617.625C618.393 343.358 618.969 343.166 619.353 342.782C619.749 342.398 619.947 341.882 619.947 341.234C619.947 340.586 619.755 340.082 619.371 339.722C618.987 339.35 618.405 339.164 617.625 339.164H615.357V343.358ZM626.73 337.49V350H624.678V337.49H626.73ZM637.506 337.49V339.164H634.176V350H632.124V339.164H628.776V337.49H637.506ZM648.854 337.49L644.714 345.464V350H642.662V345.464L638.504 337.49H640.79L643.688 343.628L646.586 337.49H648.854Z" fill="#333333"/>
</g>
</g>
<defs>
<clipPath id="clip0_471_716">
<rect width="858" height="472" fill="white"/>
</clipPath>
<clipPath id="clip1_471_716">
<rect width="816" height="540" fill="white" transform="translate(31 -8)"/>
</clipPath>
</defs>
</svg>
