<svg width="303" height="185" viewBox="0 0 303 185" fill="none" xmlns="http://www.w3.org/2000/svg">
<g filter="url(#filter0_d_208_220)">
<path d="M20 26C20 20.4771 24.4772 16 30 16H273C278.523 16 283 20.4772 283 26V151C283 156.523 278.523 161 273 161H30C24.4772 161 20 156.523 20 151V26Z" fill="white"/>
<path d="M20.5 26C20.5 20.7533 24.7533 16.5 30 16.5H273C278.247 16.5 282.5 20.7533 282.5 26V151C282.5 156.247 278.247 160.5 273 160.5H30C24.7533 160.5 20.5 156.247 20.5 151V26Z" stroke="#EEEEEE"/>
</g>
<path d="M106.971 59.49V72H104.919V63.432L101.103 72H99.681L95.847 63.432V72H93.795V59.49H96.009L100.401 69.3L104.775 59.49H106.971ZM118.38 69.444H113.142L112.242 72H110.1L114.582 59.472H116.958L121.44 72H119.28L118.38 69.444ZM117.804 67.77L115.77 61.956L113.718 67.77H117.804ZM130.301 65.754L134.189 72H131.885L129.059 67.464L126.413 72H124.127L128.015 65.754L124.109 59.49H126.413L129.257 64.062L131.921 59.49H134.207L130.301 65.754ZM147.579 72.126C146.739 72.126 145.983 71.982 145.311 71.694C144.639 71.394 144.111 70.974 143.727 70.434C143.343 69.894 143.151 69.264 143.151 68.544H145.347C145.395 69.084 145.605 69.528 145.977 69.876C146.361 70.224 146.895 70.398 147.579 70.398C148.287 70.398 148.839 70.23 149.235 69.894C149.631 69.546 149.829 69.102 149.829 68.562C149.829 68.142 149.703 67.8 149.451 67.536C149.211 67.272 148.905 67.068 148.533 66.924C148.173 66.78 147.669 66.624 147.021 66.456C146.205 66.24 145.539 66.024 145.023 65.808C144.519 65.58 144.087 65.232 143.727 64.764C143.367 64.296 143.187 63.672 143.187 62.892C143.187 62.172 143.367 61.542 143.727 61.002C144.087 60.462 144.591 60.048 145.239 59.76C145.887 59.472 146.637 59.328 147.489 59.328C148.701 59.328 149.691 59.634 150.459 60.246C151.239 60.846 151.671 61.674 151.755 62.73H149.487C149.451 62.274 149.235 61.884 148.839 61.56C148.443 61.236 147.921 61.074 147.273 61.074C146.685 61.074 146.205 61.224 145.833 61.524C145.461 61.824 145.275 62.256 145.275 62.82C145.275 63.204 145.389 63.522 145.617 63.774C145.857 64.014 146.157 64.206 146.517 64.35C146.877 64.494 147.369 64.65 147.993 64.818C148.821 65.046 149.493 65.274 150.009 65.502C150.537 65.73 150.981 66.084 151.341 66.564C151.713 67.032 151.899 67.662 151.899 68.454C151.899 69.09 151.725 69.69 151.377 70.254C151.041 70.818 150.543 71.274 149.883 71.622C149.235 71.958 148.467 72.126 147.579 72.126ZM157.525 59.49V67.464C157.525 68.412 157.771 69.126 158.263 69.606C158.767 70.086 159.463 70.326 160.351 70.326C161.251 70.326 161.947 70.086 162.439 69.606C162.943 69.126 163.195 68.412 163.195 67.464V59.49H165.247V67.428C165.247 68.448 165.025 69.312 164.581 70.02C164.137 70.728 163.543 71.256 162.799 71.604C162.055 71.952 161.233 72.126 160.333 72.126C159.433 72.126 158.611 71.952 157.867 71.604C157.135 71.256 156.553 70.728 156.121 70.02C155.689 69.312 155.473 68.448 155.473 67.428V59.49H157.525ZM177.836 63.216C177.836 63.852 177.686 64.452 177.386 65.016C177.086 65.58 176.606 66.042 175.946 66.402C175.286 66.75 174.44 66.924 173.408 66.924H171.14V72H169.088V59.49H173.408C174.368 59.49 175.178 59.658 175.838 59.994C176.51 60.318 177.008 60.762 177.332 61.326C177.668 61.89 177.836 62.52 177.836 63.216ZM173.408 65.25C174.188 65.25 174.77 65.076 175.154 64.728C175.538 64.368 175.73 63.864 175.73 63.216C175.73 61.848 174.956 61.164 173.408 61.164H171.14V65.25H173.408ZM189.711 63.216C189.711 63.852 189.561 64.452 189.261 65.016C188.961 65.58 188.481 66.042 187.821 66.402C187.161 66.75 186.315 66.924 185.283 66.924H183.015V72H180.963V59.49H185.283C186.243 59.49 187.053 59.658 187.713 59.994C188.385 60.318 188.883 60.762 189.207 61.326C189.543 61.89 189.711 62.52 189.711 63.216ZM185.283 65.25C186.063 65.25 186.645 65.076 187.029 64.728C187.413 64.368 187.605 63.864 187.605 63.216C187.605 61.848 186.831 61.164 185.283 61.164H183.015V65.25H185.283ZM194.891 70.344H199.121V72H192.839V59.49H194.891V70.344ZM211.277 59.49L207.137 67.464V72H205.085V67.464L200.927 59.49H203.213L206.111 65.628L209.009 59.49H211.277Z" fill="#620C0D"/>
<path d="M58.9768 103.408H52.6588V107.512C52.9348 107.128 53.3428 106.816 53.8828 106.576C54.4228 106.324 55.0048 106.198 55.6288 106.198C56.6248 106.198 57.4348 106.408 58.0588 106.828C58.6828 107.236 59.1268 107.77 59.3908 108.43C59.6668 109.078 59.8048 109.768 59.8048 110.5C59.8048 111.364 59.6428 112.138 59.3188 112.822C58.9948 113.506 58.4968 114.046 57.8248 114.442C57.1648 114.838 56.3428 115.036 55.3588 115.036C54.0988 115.036 53.0788 114.712 52.2988 114.064C51.5188 113.416 51.0448 112.552 50.8768 111.472H52.4788C52.6348 112.156 52.9648 112.69 53.4688 113.074C53.9728 113.458 54.6088 113.65 55.3768 113.65C56.3248 113.65 57.0388 113.368 57.5188 112.804C57.9988 112.228 58.2388 111.472 58.2388 110.536C58.2388 109.6 57.9988 108.88 57.5188 108.376C57.0388 107.86 56.3308 107.602 55.3948 107.602C54.7588 107.602 54.2008 107.758 53.7208 108.07C53.2528 108.37 52.9108 108.784 52.6948 109.312H51.1468V101.968H58.9768V103.408ZM63.1515 108.358C63.1515 106.294 63.4875 104.686 64.1595 103.534C64.8315 102.37 66.0075 101.788 67.6875 101.788C69.3555 101.788 70.5255 102.37 71.1975 103.534C71.8695 104.686 72.2055 106.294 72.2055 108.358C72.2055 110.458 71.8695 112.09 71.1975 113.254C70.5255 114.418 69.3555 115 67.6875 115C66.0075 115 64.8315 114.418 64.1595 113.254C63.4875 112.09 63.1515 110.458 63.1515 108.358ZM70.5855 108.358C70.5855 107.314 70.5135 106.432 70.3695 105.712C70.2375 104.98 69.9555 104.392 69.5235 103.948C69.1035 103.504 68.4915 103.282 67.6875 103.282C66.8715 103.282 66.2475 103.504 65.8155 103.948C65.3955 104.392 65.1135 104.98 64.9695 105.712C64.8375 106.432 64.7715 107.314 64.7715 108.358C64.7715 109.438 64.8375 110.344 64.9695 111.076C65.1135 111.808 65.3955 112.396 65.8155 112.84C66.2475 113.284 66.8715 113.506 67.6875 113.506C68.4915 113.506 69.1035 113.284 69.5235 112.84C69.9555 112.396 70.2375 111.808 70.3695 111.076C70.5135 110.344 70.5855 109.438 70.5855 108.358ZM75.6242 108.358C75.6242 106.294 75.9602 104.686 76.6322 103.534C77.3042 102.37 78.4802 101.788 80.1602 101.788C81.8282 101.788 82.9982 102.37 83.6702 103.534C84.3422 104.686 84.6782 106.294 84.6782 108.358C84.6782 110.458 84.3422 112.09 83.6702 113.254C82.9982 114.418 81.8282 115 80.1602 115C78.4802 115 77.3042 114.418 76.6322 113.254C75.9602 112.09 75.6242 110.458 75.6242 108.358ZM83.0582 108.358C83.0582 107.314 82.9862 106.432 82.8422 105.712C82.7102 104.98 82.4282 104.392 81.9962 103.948C81.5762 103.504 80.9642 103.282 80.1602 103.282C79.3442 103.282 78.7202 103.504 78.2882 103.948C77.8682 104.392 77.5862 104.98 77.4422 105.712C77.3102 106.432 77.2442 107.314 77.2442 108.358C77.2442 109.438 77.3102 110.344 77.4422 111.076C77.5862 111.808 77.8682 112.396 78.2882 112.84C78.7202 113.284 79.3442 113.506 80.1602 113.506C80.9642 113.506 81.5762 113.284 81.9962 112.84C82.4282 112.396 82.7102 111.808 82.8422 111.076C82.9862 110.344 83.0582 109.438 83.0582 108.358ZM90.059 112.732L88.043 117.574H86.945L88.259 112.732H90.059ZM92.8353 108.358C92.8353 106.294 93.1713 104.686 93.8433 103.534C94.5153 102.37 95.6913 101.788 97.3713 101.788C99.0393 101.788 100.209 102.37 100.881 103.534C101.553 104.686 101.889 106.294 101.889 108.358C101.889 110.458 101.553 112.09 100.881 113.254C100.209 114.418 99.0393 115 97.3713 115C95.6913 115 94.5153 114.418 93.8433 113.254C93.1713 112.09 92.8353 110.458 92.8353 108.358ZM100.269 108.358C100.269 107.314 100.197 106.432 100.053 105.712C99.9213 104.98 99.6393 104.392 99.2073 103.948C98.7873 103.504 98.1753 103.282 97.3713 103.282C96.5553 103.282 95.9313 103.504 95.4993 103.948C95.0793 104.392 94.7973 104.98 94.6533 105.712C94.5213 106.432 94.4553 107.314 94.4553 108.358C94.4553 109.438 94.5213 110.344 94.6533 111.076C94.7973 111.808 95.0793 112.396 95.4993 112.84C95.9313 113.284 96.5553 113.506 97.3713 113.506C98.1753 113.506 98.7873 113.284 99.2073 112.84C99.6393 112.396 99.9213 111.808 100.053 111.076C100.197 110.344 100.269 109.438 100.269 108.358ZM105.308 108.358C105.308 106.294 105.644 104.686 106.316 103.534C106.988 102.37 108.164 101.788 109.844 101.788C111.512 101.788 112.682 102.37 113.354 103.534C114.026 104.686 114.362 106.294 114.362 108.358C114.362 110.458 114.026 112.09 113.354 113.254C112.682 114.418 111.512 115 109.844 115C108.164 115 106.988 114.418 106.316 113.254C105.644 112.09 105.308 110.458 105.308 108.358ZM112.742 108.358C112.742 107.314 112.67 106.432 112.526 105.712C112.394 104.98 112.112 104.392 111.68 103.948C111.26 103.504 110.648 103.282 109.844 103.282C109.028 103.282 108.404 103.504 107.972 103.948C107.552 104.392 107.27 104.98 107.126 105.712C106.994 106.432 106.928 107.314 106.928 108.358C106.928 109.438 106.994 110.344 107.126 111.076C107.27 111.808 107.552 112.396 107.972 112.84C108.404 113.284 109.028 113.506 109.844 113.506C110.648 113.506 111.26 113.284 111.68 112.84C112.112 112.396 112.394 111.808 112.526 111.076C112.67 110.344 112.742 109.438 112.742 108.358ZM117.781 108.358C117.781 106.294 118.117 104.686 118.789 103.534C119.461 102.37 120.637 101.788 122.317 101.788C123.985 101.788 125.155 102.37 125.827 103.534C126.499 104.686 126.835 106.294 126.835 108.358C126.835 110.458 126.499 112.09 125.827 113.254C125.155 114.418 123.985 115 122.317 115C120.637 115 119.461 114.418 118.789 113.254C118.117 112.09 117.781 110.458 117.781 108.358ZM125.215 108.358C125.215 107.314 125.143 106.432 124.999 105.712C124.867 104.98 124.585 104.392 124.153 103.948C123.733 103.504 123.121 103.282 122.317 103.282C121.501 103.282 120.877 103.504 120.445 103.948C120.025 104.392 119.743 104.98 119.599 105.712C119.467 106.432 119.401 107.314 119.401 108.358C119.401 109.438 119.467 110.344 119.599 111.076C119.743 111.808 120.025 112.396 120.445 112.84C120.877 113.284 121.501 113.506 122.317 113.506C123.121 113.506 123.733 113.284 124.153 112.84C124.585 112.396 124.867 111.808 124.999 111.076C125.143 110.344 125.215 109.438 125.215 108.358ZM132.216 112.732L130.2 117.574H129.102L130.416 112.732H132.216ZM134.992 108.358C134.992 106.294 135.328 104.686 136 103.534C136.672 102.37 137.848 101.788 139.528 101.788C141.196 101.788 142.366 102.37 143.038 103.534C143.71 104.686 144.046 106.294 144.046 108.358C144.046 110.458 143.71 112.09 143.038 113.254C142.366 114.418 141.196 115 139.528 115C137.848 115 136.672 114.418 136 113.254C135.328 112.09 134.992 110.458 134.992 108.358ZM142.426 108.358C142.426 107.314 142.354 106.432 142.21 105.712C142.078 104.98 141.796 104.392 141.364 103.948C140.944 103.504 140.332 103.282 139.528 103.282C138.712 103.282 138.088 103.504 137.656 103.948C137.236 104.392 136.954 104.98 136.81 105.712C136.678 106.432 136.612 107.314 136.612 108.358C136.612 109.438 136.678 110.344 136.81 111.076C136.954 111.808 137.236 112.396 137.656 112.84C138.088 113.284 138.712 113.506 139.528 113.506C140.332 113.506 140.944 113.284 141.364 112.84C141.796 112.396 142.078 111.808 142.21 111.076C142.354 110.344 142.426 109.438 142.426 108.358ZM147.465 108.358C147.465 106.294 147.801 104.686 148.473 103.534C149.145 102.37 150.321 101.788 152.001 101.788C153.669 101.788 154.839 102.37 155.511 103.534C156.183 104.686 156.519 106.294 156.519 108.358C156.519 110.458 156.183 112.09 155.511 113.254C154.839 114.418 153.669 115 152.001 115C150.321 115 149.145 114.418 148.473 113.254C147.801 112.09 147.465 110.458 147.465 108.358ZM154.899 108.358C154.899 107.314 154.827 106.432 154.683 105.712C154.551 104.98 154.269 104.392 153.837 103.948C153.417 103.504 152.805 103.282 152.001 103.282C151.185 103.282 150.561 103.504 150.129 103.948C149.709 104.392 149.427 104.98 149.283 105.712C149.151 106.432 149.085 107.314 149.085 108.358C149.085 109.438 149.151 110.344 149.283 111.076C149.427 111.808 149.709 112.396 150.129 112.84C150.561 113.284 151.185 113.506 152.001 113.506C152.805 113.506 153.417 113.284 153.837 112.84C154.269 112.396 154.551 111.808 154.683 111.076C154.827 110.344 154.899 109.438 154.899 108.358ZM159.937 108.358C159.937 106.294 160.273 104.686 160.945 103.534C161.617 102.37 162.793 101.788 164.473 101.788C166.141 101.788 167.311 102.37 167.983 103.534C168.655 104.686 168.991 106.294 168.991 108.358C168.991 110.458 168.655 112.09 167.983 113.254C167.311 114.418 166.141 115 164.473 115C162.793 115 161.617 114.418 160.945 113.254C160.273 112.09 159.937 110.458 159.937 108.358ZM167.371 108.358C167.371 107.314 167.299 106.432 167.155 105.712C167.023 104.98 166.741 104.392 166.309 103.948C165.889 103.504 165.277 103.282 164.473 103.282C163.657 103.282 163.033 103.504 162.601 103.948C162.181 104.392 161.899 104.98 161.755 105.712C161.623 106.432 161.557 107.314 161.557 108.358C161.557 109.438 161.623 110.344 161.755 111.076C161.899 111.808 162.181 112.396 162.601 112.84C163.033 113.284 163.657 113.506 164.473 113.506C165.277 113.506 165.889 113.284 166.309 112.84C166.741 112.396 167.023 111.808 167.155 111.076C167.299 110.344 167.371 109.438 167.371 108.358ZM174.372 112.732L172.356 117.574H171.258L172.572 112.732H174.372ZM177.148 108.358C177.148 106.294 177.484 104.686 178.156 103.534C178.828 102.37 180.004 101.788 181.684 101.788C183.352 101.788 184.522 102.37 185.194 103.534C185.866 104.686 186.202 106.294 186.202 108.358C186.202 110.458 185.866 112.09 185.194 113.254C184.522 114.418 183.352 115 181.684 115C180.004 115 178.828 114.418 178.156 113.254C177.484 112.09 177.148 110.458 177.148 108.358ZM184.582 108.358C184.582 107.314 184.51 106.432 184.366 105.712C184.234 104.98 183.952 104.392 183.52 103.948C183.1 103.504 182.488 103.282 181.684 103.282C180.868 103.282 180.244 103.504 179.812 103.948C179.392 104.392 179.11 104.98 178.966 105.712C178.834 106.432 178.768 107.314 178.768 108.358C178.768 109.438 178.834 110.344 178.966 111.076C179.11 111.808 179.392 112.396 179.812 112.84C180.244 113.284 180.868 113.506 181.684 113.506C182.488 113.506 183.1 113.284 183.52 112.84C183.952 112.396 184.234 111.808 184.366 111.076C184.51 110.344 184.582 109.438 184.582 108.358ZM189.621 108.358C189.621 106.294 189.957 104.686 190.629 103.534C191.301 102.37 192.477 101.788 194.157 101.788C195.825 101.788 196.995 102.37 197.667 103.534C198.339 104.686 198.675 106.294 198.675 108.358C198.675 110.458 198.339 112.09 197.667 113.254C196.995 114.418 195.825 115 194.157 115C192.477 115 191.301 114.418 190.629 113.254C189.957 112.09 189.621 110.458 189.621 108.358ZM197.055 108.358C197.055 107.314 196.983 106.432 196.839 105.712C196.707 104.98 196.425 104.392 195.993 103.948C195.573 103.504 194.961 103.282 194.157 103.282C193.341 103.282 192.717 103.504 192.285 103.948C191.865 104.392 191.583 104.98 191.439 105.712C191.307 106.432 191.241 107.314 191.241 108.358C191.241 109.438 191.307 110.344 191.439 111.076C191.583 111.808 191.865 112.396 192.285 112.84C192.717 113.284 193.341 113.506 194.157 113.506C194.961 113.506 195.573 113.284 195.993 112.84C196.425 112.396 196.707 111.808 196.839 111.076C196.983 110.344 197.055 109.438 197.055 108.358ZM202.094 108.358C202.094 106.294 202.43 104.686 203.102 103.534C203.774 102.37 204.95 101.788 206.63 101.788C208.298 101.788 209.468 102.37 210.14 103.534C210.812 104.686 211.148 106.294 211.148 108.358C211.148 110.458 210.812 112.09 210.14 113.254C209.468 114.418 208.298 115 206.63 115C204.95 115 203.774 114.418 203.102 113.254C202.43 112.09 202.094 110.458 202.094 108.358ZM209.528 108.358C209.528 107.314 209.456 106.432 209.312 105.712C209.18 104.98 208.898 104.392 208.466 103.948C208.046 103.504 207.434 103.282 206.63 103.282C205.814 103.282 205.19 103.504 204.758 103.948C204.338 104.392 204.056 104.98 203.912 105.712C203.78 106.432 203.714 107.314 203.714 108.358C203.714 109.438 203.78 110.344 203.912 111.076C204.056 111.808 204.338 112.396 204.758 112.84C205.19 113.284 205.814 113.506 206.63 113.506C207.434 113.506 208.046 113.284 208.466 112.84C208.898 112.396 209.18 111.808 209.312 111.076C209.456 110.344 209.528 109.438 209.528 108.358ZM216.529 112.732L214.513 117.574H213.415L214.729 112.732H216.529ZM219.305 108.358C219.305 106.294 219.641 104.686 220.313 103.534C220.985 102.37 222.161 101.788 223.841 101.788C225.509 101.788 226.679 102.37 227.351 103.534C228.023 104.686 228.359 106.294 228.359 108.358C228.359 110.458 228.023 112.09 227.351 113.254C226.679 114.418 225.509 115 223.841 115C222.161 115 220.985 114.418 220.313 113.254C219.641 112.09 219.305 110.458 219.305 108.358ZM226.739 108.358C226.739 107.314 226.667 106.432 226.523 105.712C226.391 104.98 226.109 104.392 225.677 103.948C225.257 103.504 224.645 103.282 223.841 103.282C223.025 103.282 222.401 103.504 221.969 103.948C221.549 104.392 221.267 104.98 221.123 105.712C220.991 106.432 220.925 107.314 220.925 108.358C220.925 109.438 220.991 110.344 221.123 111.076C221.267 111.808 221.549 112.396 221.969 112.84C222.401 113.284 223.025 113.506 223.841 113.506C224.645 113.506 225.257 113.284 225.677 112.84C226.109 112.396 226.391 111.808 226.523 111.076C226.667 110.344 226.739 109.438 226.739 108.358ZM231.778 108.358C231.778 106.294 232.114 104.686 232.786 103.534C233.458 102.37 234.634 101.788 236.314 101.788C237.982 101.788 239.152 102.37 239.824 103.534C240.496 104.686 240.832 106.294 240.832 108.358C240.832 110.458 240.496 112.09 239.824 113.254C239.152 114.418 237.982 115 236.314 115C234.634 115 233.458 114.418 232.786 113.254C232.114 112.09 231.778 110.458 231.778 108.358ZM239.212 108.358C239.212 107.314 239.14 106.432 238.996 105.712C238.864 104.98 238.582 104.392 238.15 103.948C237.73 103.504 237.118 103.282 236.314 103.282C235.498 103.282 234.874 103.504 234.442 103.948C234.022 104.392 233.74 104.98 233.596 105.712C233.464 106.432 233.398 107.314 233.398 108.358C233.398 109.438 233.464 110.344 233.596 111.076C233.74 111.808 234.022 112.396 234.442 112.84C234.874 113.284 235.498 113.506 236.314 113.506C237.118 113.506 237.73 113.284 238.15 112.84C238.582 112.396 238.864 111.808 238.996 111.076C239.14 110.344 239.212 109.438 239.212 108.358ZM244.25 108.358C244.25 106.294 244.586 104.686 245.258 103.534C245.93 102.37 247.106 101.788 248.786 101.788C250.454 101.788 251.624 102.37 252.296 103.534C252.968 104.686 253.304 106.294 253.304 108.358C253.304 110.458 252.968 112.09 252.296 113.254C251.624 114.418 250.454 115 248.786 115C247.106 115 245.93 114.418 245.258 113.254C244.586 112.09 244.25 110.458 244.25 108.358ZM251.684 108.358C251.684 107.314 251.612 106.432 251.468 105.712C251.336 104.98 251.054 104.392 250.622 103.948C250.202 103.504 249.59 103.282 248.786 103.282C247.97 103.282 247.346 103.504 246.914 103.948C246.494 104.392 246.212 104.98 246.068 105.712C245.936 106.432 245.87 107.314 245.87 108.358C245.87 109.438 245.936 110.344 246.068 111.076C246.212 111.808 246.494 112.396 246.914 112.84C247.346 113.284 247.97 113.506 248.786 113.506C249.59 113.506 250.202 113.284 250.622 112.84C251.054 112.396 251.336 111.808 251.468 111.076C251.612 110.344 251.684 109.438 251.684 108.358Z" fill="#333333"/>
<defs>
<filter id="filter0_d_208_220" x="0" y="0" width="303" height="185" filterUnits="userSpaceOnUse" color-interpolation-filters="sRGB">
<feFlood flood-opacity="0" result="BackgroundImageFix"/>
<feColorMatrix in="SourceAlpha" type="matrix" values="0 0 0 0 0 0 0 0 0 0 0 0 0 0 0 0 0 0 127 0" result="hardAlpha"/>
<feOffset dy="4"/>
<feGaussianBlur stdDeviation="10"/>
<feComposite in2="hardAlpha" operator="out"/>
<feColorMatrix type="matrix" values="0 0 0 0 0.384314 0 0 0 0 0.0470588 0 0 0 0 0.0509804 0 0 0 0.1 0"/>
<feBlend mode="normal" in2="BackgroundImageFix" result="effect1_dropShadow_208_220"/>
<feBlend mode="normal" in="SourceGraphic" in2="effect1_dropShadow_208_220" result="shape"/>
</filter>
</defs>
</svg>
