<svg width="318" height="438" viewBox="0 0 318 438" fill="none" xmlns="http://www.w3.org/2000/svg">
<g filter="url(#filter0_d_208_312)">
<path d="M20 107.076C20 92.3379 30.7056 79.7826 45.2586 77.4532L263.259 42.5606C281.487 39.6431 298 53.7235 298 72.1836V388C298 404.569 284.569 418 268 418H50C33.4315 418 20 404.569 20 388V107.076Z" fill="white"/>
</g>
<path d="M99.821 158.94V163.02H104.621V164.88H99.821V169.14H105.221V171H97.541V157.08H105.221V158.94H99.821ZM121.369 159.8C122.236 159.8 123.009 159.98 123.689 160.34C124.383 160.7 124.923 161.233 125.309 161.94C125.709 162.647 125.909 163.5 125.909 164.5V171H123.649V164.84C123.649 163.853 123.403 163.1 122.909 162.58C122.416 162.047 121.743 161.78 120.889 161.78C120.036 161.78 119.356 162.047 118.849 162.58C118.356 163.1 118.109 163.853 118.109 164.84V171H115.849V164.84C115.849 163.853 115.603 163.1 115.109 162.58C114.616 162.047 113.943 161.78 113.089 161.78C112.236 161.78 111.556 162.047 111.049 162.58C110.556 163.1 110.309 163.853 110.309 164.84V171H108.029V159.98H110.309V161.24C110.683 160.787 111.156 160.433 111.729 160.18C112.303 159.927 112.916 159.8 113.569 159.8C114.449 159.8 115.236 159.987 115.929 160.36C116.623 160.733 117.156 161.273 117.529 161.98C117.863 161.313 118.383 160.787 119.089 160.4C119.796 160 120.556 159.8 121.369 159.8ZM131.091 161.6C131.477 161.093 132.004 160.667 132.671 160.32C133.337 159.973 134.091 159.8 134.931 159.8C135.891 159.8 136.764 160.04 137.551 160.52C138.351 160.987 138.977 161.647 139.431 162.5C139.884 163.353 140.111 164.333 140.111 165.44C140.111 166.547 139.884 167.54 139.431 168.42C138.977 169.287 138.351 169.967 137.551 170.46C136.764 170.94 135.891 171.18 134.931 171.18C134.091 171.18 133.344 171.013 132.691 170.68C132.037 170.333 131.504 169.907 131.091 169.4V176.24H128.811V159.98H131.091V161.6ZM137.791 165.44C137.791 164.68 137.631 164.027 137.311 163.48C137.004 162.92 136.591 162.5 136.071 162.22C135.564 161.927 135.017 161.78 134.431 161.78C133.857 161.78 133.311 161.927 132.791 162.22C132.284 162.513 131.871 162.94 131.551 163.5C131.244 164.06 131.091 164.72 131.091 165.48C131.091 166.24 131.244 166.907 131.551 167.48C131.871 168.04 132.284 168.467 132.791 168.76C133.311 169.053 133.857 169.2 134.431 169.2C135.017 169.2 135.564 169.053 136.071 168.76C136.591 168.453 137.004 168.013 137.311 167.44C137.631 166.867 137.791 166.2 137.791 165.44ZM147.145 171.18C146.105 171.18 145.165 170.947 144.325 170.48C143.485 170 142.825 169.333 142.345 168.48C141.865 167.613 141.625 166.613 141.625 165.48C141.625 164.36 141.872 163.367 142.365 162.5C142.859 161.633 143.532 160.967 144.385 160.5C145.239 160.033 146.192 159.8 147.245 159.8C148.299 159.8 149.252 160.033 150.105 160.5C150.959 160.967 151.632 161.633 152.125 162.5C152.619 163.367 152.865 164.36 152.865 165.48C152.865 166.6 152.612 167.593 152.105 168.46C151.599 169.327 150.905 170 150.025 170.48C149.159 170.947 148.199 171.18 147.145 171.18ZM147.145 169.2C147.732 169.2 148.279 169.06 148.785 168.78C149.305 168.5 149.725 168.08 150.045 167.52C150.365 166.96 150.525 166.28 150.525 165.48C150.525 164.68 150.372 164.007 150.065 163.46C149.759 162.9 149.352 162.48 148.845 162.2C148.339 161.92 147.792 161.78 147.205 161.78C146.619 161.78 146.072 161.92 145.565 162.2C145.072 162.48 144.679 162.9 144.385 163.46C144.092 164.007 143.945 164.68 143.945 165.48C143.945 166.667 144.245 167.587 144.845 168.24C145.459 168.88 146.225 169.2 147.145 169.2ZM169.919 159.98L166.499 171H164.099L161.879 162.86L159.659 171H157.259L153.819 159.98H156.139L158.439 168.84L160.779 159.98H163.159L165.399 168.8L167.679 159.98H169.919ZM181.723 165.22C181.723 165.633 181.696 166.007 181.643 166.34H173.223C173.29 167.22 173.616 167.927 174.203 168.46C174.79 168.993 175.51 169.26 176.363 169.26C177.59 169.26 178.456 168.747 178.963 167.72H181.423C181.09 168.733 180.483 169.567 179.603 170.22C178.736 170.86 177.656 171.18 176.363 171.18C175.31 171.18 174.363 170.947 173.523 170.48C172.696 170 172.043 169.333 171.563 168.48C171.096 167.613 170.863 166.613 170.863 165.48C170.863 164.347 171.09 163.353 171.543 162.5C172.01 161.633 172.656 160.967 173.483 160.5C174.323 160.033 175.283 159.8 176.363 159.8C177.403 159.8 178.33 160.027 179.143 160.48C179.956 160.933 180.59 161.573 181.043 162.4C181.496 163.213 181.723 164.153 181.723 165.22ZM179.343 164.5C179.33 163.66 179.03 162.987 178.443 162.48C177.856 161.973 177.13 161.72 176.263 161.72C175.476 161.72 174.803 161.973 174.243 162.48C173.683 162.973 173.35 163.647 173.243 164.5H179.343ZM186.247 161.58C186.58 161.02 187.02 160.587 187.567 160.28C188.127 159.96 188.787 159.8 189.547 159.8V162.16H188.967C188.073 162.16 187.393 162.387 186.927 162.84C186.473 163.293 186.247 164.08 186.247 165.2V171H183.967V159.98H186.247V161.58ZM192.803 158.52C192.389 158.52 192.043 158.38 191.763 158.1C191.483 157.82 191.343 157.473 191.343 157.06C191.343 156.647 191.483 156.3 191.763 156.02C192.043 155.74 192.389 155.6 192.803 155.6C193.203 155.6 193.543 155.74 193.823 156.02C194.103 156.3 194.243 156.647 194.243 157.06C194.243 157.473 194.103 157.82 193.823 158.1C193.543 158.38 193.203 158.52 192.803 158.52ZM193.923 159.98V171H191.643V159.98H193.923ZM202.476 159.8C203.343 159.8 204.116 159.98 204.796 160.34C205.489 160.7 206.029 161.233 206.416 161.94C206.803 162.647 206.996 163.5 206.996 164.5V171H204.736V164.84C204.736 163.853 204.489 163.1 203.996 162.58C203.503 162.047 202.829 161.78 201.976 161.78C201.123 161.78 200.443 162.047 199.936 162.58C199.443 163.1 199.196 163.853 199.196 164.84V171H196.916V159.98H199.196V161.24C199.569 160.787 200.043 160.433 200.616 160.18C201.203 159.927 201.823 159.8 202.476 159.8ZM214.344 159.8C215.198 159.8 215.951 159.973 216.604 160.32C217.271 160.653 217.791 161.073 218.164 161.58V159.98H220.464V171.18C220.464 172.193 220.251 173.093 219.824 173.88C219.398 174.68 218.778 175.307 217.964 175.76C217.164 176.213 216.204 176.44 215.084 176.44C213.591 176.44 212.351 176.087 211.364 175.38C210.378 174.687 209.818 173.74 209.684 172.54H211.944C212.118 173.113 212.484 173.573 213.044 173.92C213.618 174.28 214.298 174.46 215.084 174.46C216.004 174.46 216.744 174.18 217.304 173.62C217.878 173.06 218.164 172.247 218.164 171.18V169.34C217.778 169.86 217.251 170.3 216.584 170.66C215.931 171.007 215.184 171.18 214.344 171.18C213.384 171.18 212.504 170.94 211.704 170.46C210.918 169.967 210.291 169.287 209.824 168.42C209.371 167.54 209.144 166.547 209.144 165.44C209.144 164.333 209.371 163.353 209.824 162.5C210.291 161.647 210.918 160.987 211.704 160.52C212.504 160.04 213.384 159.8 214.344 159.8ZM218.164 165.48C218.164 164.72 218.004 164.06 217.684 163.5C217.378 162.94 216.971 162.513 216.464 162.22C215.958 161.927 215.411 161.78 214.824 161.78C214.238 161.78 213.691 161.927 213.184 162.22C212.678 162.5 212.264 162.92 211.944 163.48C211.638 164.027 211.484 164.68 211.484 165.44C211.484 166.2 211.638 166.867 211.944 167.44C212.264 168.013 212.678 168.453 213.184 168.76C213.704 169.053 214.251 169.2 214.824 169.2C215.411 169.2 215.958 169.053 216.464 168.76C216.971 168.467 217.378 168.04 217.684 167.48C218.004 166.907 218.164 166.24 218.164 165.48Z" fill="#620C0D"/>
<path d="M60.711 227.939V228.901H58.241V237H57.058V228.901H54.575V227.939H60.711ZM65.7292 237.117C65.0619 237.117 64.4552 236.965 63.9092 236.662C63.3719 236.359 62.9472 235.93 62.6352 235.375C62.3319 234.812 62.1802 234.162 62.1802 233.425C62.1802 232.697 62.3362 232.056 62.6482 231.501C62.9689 230.938 63.4022 230.509 63.9482 230.214C64.4942 229.911 65.1052 229.759 65.7812 229.759C66.4572 229.759 67.0682 229.911 67.6142 230.214C68.1602 230.509 68.5892 230.933 68.9012 231.488C69.2219 232.043 69.3822 232.688 69.3822 233.425C69.3822 234.162 69.2175 234.812 68.8882 235.375C68.5675 235.93 68.1299 236.359 67.5752 236.662C67.0205 236.965 66.4052 237.117 65.7292 237.117ZM65.7292 236.077C66.1539 236.077 66.5525 235.977 66.9252 235.778C67.2979 235.579 67.5969 235.28 67.8222 234.881C68.0562 234.482 68.1732 233.997 68.1732 233.425C68.1732 232.853 68.0605 232.368 67.8352 231.969C67.6099 231.57 67.3152 231.276 66.9512 231.085C66.5872 230.886 66.1929 230.786 65.7682 230.786C65.3349 230.786 64.9362 230.886 64.5722 231.085C64.2169 231.276 63.9309 231.57 63.7142 231.969C63.4975 232.368 63.3892 232.853 63.3892 233.425C63.3892 234.006 63.4932 234.495 63.7012 234.894C63.9179 235.293 64.2039 235.592 64.5592 235.791C64.9145 235.982 65.3045 236.077 65.7292 236.077ZM76.4965 231.189C76.7305 230.782 77.0771 230.444 77.5365 230.175C78.0045 229.898 78.5461 229.759 79.1615 229.759C79.7941 229.759 80.3661 229.911 80.8775 230.214C81.3975 230.517 81.8048 230.946 82.0995 231.501C82.3941 232.047 82.5415 232.684 82.5415 233.412C82.5415 234.131 82.3941 234.773 82.0995 235.336C81.8048 235.899 81.3975 236.337 80.8775 236.649C80.3661 236.961 79.7941 237.117 79.1615 237.117C78.5548 237.117 78.0175 236.983 77.5495 236.714C77.0901 236.437 76.7391 236.094 76.4965 235.687V240.38H75.3135V229.876H76.4965V231.189ZM81.3325 233.412C81.3325 232.875 81.2241 232.407 81.0075 232.008C80.7908 231.609 80.4961 231.306 80.1235 231.098C79.7595 230.89 79.3565 230.786 78.9145 230.786C78.4811 230.786 78.0781 230.894 77.7055 231.111C77.3415 231.319 77.0468 231.627 76.8215 232.034C76.6048 232.433 76.4965 232.896 76.4965 233.425C76.4965 233.962 76.6048 234.435 76.8215 234.842C77.0468 235.241 77.3415 235.548 77.7055 235.765C78.0781 235.973 78.4811 236.077 78.9145 236.077C79.3565 236.077 79.7595 235.973 80.1235 235.765C80.4961 235.548 80.7908 235.241 81.0075 234.842C81.2241 234.435 81.3325 233.958 81.3325 233.412ZM87.6606 237.117C86.9933 237.117 86.3866 236.965 85.8406 236.662C85.3033 236.359 84.8786 235.93 84.5666 235.375C84.2633 234.812 84.1116 234.162 84.1116 233.425C84.1116 232.697 84.2676 232.056 84.5796 231.501C84.9003 230.938 85.3336 230.509 85.8796 230.214C86.4256 229.911 87.0366 229.759 87.7126 229.759C88.3886 229.759 88.9996 229.911 89.5456 230.214C90.0916 230.509 90.5206 230.933 90.8326 231.488C91.1533 232.043 91.3136 232.688 91.3136 233.425C91.3136 234.162 91.149 234.812 90.8196 235.375C90.499 235.93 90.0613 236.359 89.5066 236.662C88.952 236.965 88.3366 237.117 87.6606 237.117ZM87.6606 236.077C88.0853 236.077 88.484 235.977 88.8566 235.778C89.2293 235.579 89.5283 235.28 89.7536 234.881C89.9876 234.482 90.1046 233.997 90.1046 233.425C90.1046 232.853 89.992 232.368 89.7666 231.969C89.5413 231.57 89.2466 231.276 88.8826 231.085C88.5186 230.886 88.1243 230.786 87.6996 230.786C87.2663 230.786 86.8676 230.886 86.5036 231.085C86.1483 231.276 85.8623 231.57 85.6456 231.969C85.429 232.368 85.3206 232.853 85.3206 233.425C85.3206 234.006 85.4246 234.495 85.6326 234.894C85.8493 235.293 86.1353 235.592 86.4906 235.791C86.846 235.982 87.236 236.077 87.6606 236.077ZM102.814 229.876L100.591 237H99.3691L97.6531 231.345L95.9371 237H94.7151L92.4791 229.876H93.6881L95.3261 235.856L97.0941 229.876H98.3031L100.032 235.869L101.644 229.876H102.814ZM110.943 233.165C110.943 233.39 110.93 233.629 110.904 233.88H105.21C105.253 234.582 105.492 235.132 105.925 235.531C106.367 235.921 106.9 236.116 107.524 236.116C108.035 236.116 108.46 235.999 108.798 235.765C109.145 235.522 109.387 235.202 109.526 234.803H110.8C110.609 235.488 110.228 236.047 109.656 236.48C109.084 236.905 108.373 237.117 107.524 237.117C106.848 237.117 106.241 236.965 105.704 236.662C105.175 236.359 104.759 235.93 104.456 235.375C104.153 234.812 104.001 234.162 104.001 233.425C104.001 232.688 104.148 232.043 104.443 231.488C104.738 230.933 105.149 230.509 105.678 230.214C106.215 229.911 106.831 229.759 107.524 229.759C108.2 229.759 108.798 229.906 109.318 230.201C109.838 230.496 110.237 230.903 110.514 231.423C110.8 231.934 110.943 232.515 110.943 233.165ZM109.721 232.918C109.721 232.467 109.621 232.082 109.422 231.761C109.223 231.432 108.95 231.185 108.603 231.02C108.265 230.847 107.888 230.76 107.472 230.76C106.874 230.76 106.363 230.951 105.938 231.332C105.522 231.713 105.284 232.242 105.223 232.918H109.721ZM114.143 231.033C114.351 230.626 114.645 230.309 115.027 230.084C115.417 229.859 115.889 229.746 116.444 229.746V230.968H116.132C114.806 230.968 114.143 231.687 114.143 233.126V237H112.96V229.876H114.143V231.033ZM123.628 230.851V235.05C123.628 235.397 123.702 235.644 123.849 235.791C123.996 235.93 124.252 235.999 124.616 235.999H125.487V237H124.421C123.762 237 123.268 236.848 122.939 236.545C122.61 236.242 122.445 235.743 122.445 235.05V230.851H121.522V229.876H122.445V228.082H123.628V229.876H125.487V230.851H123.628ZM130.911 229.746C131.449 229.746 131.934 229.863 132.367 230.097C132.801 230.322 133.139 230.665 133.381 231.124C133.633 231.583 133.758 232.142 133.758 232.801V237H132.588V232.97C132.588 232.259 132.411 231.718 132.055 231.345C131.7 230.964 131.215 230.773 130.599 230.773C129.975 230.773 129.477 230.968 129.104 231.358C128.74 231.748 128.558 232.316 128.558 233.061V237H127.375V227.38H128.558V230.89C128.792 230.526 129.113 230.244 129.52 230.045C129.936 229.846 130.4 229.746 130.911 229.746ZM142.646 233.165C142.646 233.39 142.633 233.629 142.607 233.88H136.913C136.956 234.582 137.195 235.132 137.628 235.531C138.07 235.921 138.603 236.116 139.227 236.116C139.738 236.116 140.163 235.999 140.501 235.765C140.848 235.522 141.09 235.202 141.229 234.803H142.503C142.312 235.488 141.931 236.047 141.359 236.48C140.787 236.905 140.076 237.117 139.227 237.117C138.551 237.117 137.944 236.965 137.407 236.662C136.878 236.359 136.462 235.93 136.159 235.375C135.856 234.812 135.704 234.162 135.704 233.425C135.704 232.688 135.851 232.043 136.146 231.488C136.441 230.933 136.852 230.509 137.381 230.214C137.918 229.911 138.534 229.759 139.227 229.759C139.903 229.759 140.501 229.906 141.021 230.201C141.541 230.496 141.94 230.903 142.217 231.423C142.503 231.934 142.646 232.515 142.646 233.165ZM141.424 232.918C141.424 232.467 141.324 232.082 141.125 231.761C140.926 231.432 140.653 231.185 140.306 231.02C139.968 230.847 139.591 230.76 139.175 230.76C138.577 230.76 138.066 230.951 137.641 231.332C137.225 231.713 136.987 232.242 136.926 232.918H141.424ZM151.105 237.117C150.559 237.117 150.07 237.026 149.636 236.844C149.203 236.653 148.861 236.393 148.609 236.064C148.358 235.726 148.219 235.34 148.193 234.907H149.415C149.45 235.262 149.615 235.553 149.909 235.778C150.213 236.003 150.607 236.116 151.092 236.116C151.543 236.116 151.898 236.016 152.158 235.817C152.418 235.618 152.548 235.366 152.548 235.063C152.548 234.751 152.41 234.521 152.132 234.374C151.855 234.218 151.426 234.066 150.845 233.919C150.317 233.78 149.883 233.642 149.545 233.503C149.216 233.356 148.93 233.143 148.687 232.866C148.453 232.58 148.336 232.207 148.336 231.748C148.336 231.384 148.445 231.05 148.661 230.747C148.878 230.444 149.186 230.205 149.584 230.032C149.983 229.85 150.438 229.759 150.949 229.759C151.738 229.759 152.375 229.958 152.86 230.357C153.346 230.756 153.606 231.302 153.64 231.995H152.457C152.431 231.622 152.28 231.323 152.002 231.098C151.734 230.873 151.37 230.76 150.91 230.76C150.486 230.76 150.148 230.851 149.896 231.033C149.645 231.215 149.519 231.453 149.519 231.748C149.519 231.982 149.593 232.177 149.74 232.333C149.896 232.48 150.087 232.602 150.312 232.697C150.546 232.784 150.867 232.883 151.274 232.996C151.786 233.135 152.202 233.273 152.522 233.412C152.843 233.542 153.116 233.741 153.341 234.01C153.575 234.279 153.697 234.63 153.705 235.063C153.705 235.453 153.597 235.804 153.38 236.116C153.164 236.428 152.856 236.675 152.457 236.857C152.067 237.03 151.617 237.117 151.105 237.117ZM157.273 230.851V235.05C157.273 235.397 157.347 235.644 157.494 235.791C157.642 235.93 157.897 235.999 158.261 235.999H159.132V237H158.066C157.408 237 156.914 236.848 156.584 236.545C156.255 236.242 156.09 235.743 156.09 235.05V230.851H155.167V229.876H156.09V228.082H157.273V229.876H159.132V230.851H157.273ZM160.579 233.412C160.579 232.684 160.726 232.047 161.021 231.501C161.315 230.946 161.718 230.517 162.23 230.214C162.75 229.911 163.326 229.759 163.959 229.759C164.583 229.759 165.124 229.893 165.584 230.162C166.043 230.431 166.385 230.769 166.611 231.176V229.876H167.807V237H166.611V235.674C166.377 236.09 166.026 236.437 165.558 236.714C165.098 236.983 164.561 237.117 163.946 237.117C163.313 237.117 162.741 236.961 162.23 236.649C161.718 236.337 161.315 235.899 161.021 235.336C160.726 234.773 160.579 234.131 160.579 233.412ZM166.611 233.425C166.611 232.888 166.502 232.42 166.286 232.021C166.069 231.622 165.774 231.319 165.402 231.111C165.038 230.894 164.635 230.786 164.193 230.786C163.751 230.786 163.348 230.89 162.984 231.098C162.62 231.306 162.329 231.609 162.113 232.008C161.896 232.407 161.788 232.875 161.788 233.412C161.788 233.958 161.896 234.435 162.113 234.842C162.329 235.241 162.62 235.548 162.984 235.765C163.348 235.973 163.751 236.077 164.193 236.077C164.635 236.077 165.038 235.973 165.402 235.765C165.774 235.548 166.069 235.241 166.286 234.842C166.502 234.435 166.611 233.962 166.611 233.425ZM171.444 231.033C171.652 230.626 171.946 230.309 172.328 230.084C172.718 229.859 173.19 229.746 173.745 229.746V230.968H173.433C172.107 230.968 171.444 231.687 171.444 233.126V237H170.261V229.876H171.444V231.033ZM177.008 230.851V235.05C177.008 235.397 177.082 235.644 177.229 235.791C177.377 235.93 177.632 235.999 177.996 235.999H178.867V237H177.801C177.143 237 176.649 236.848 176.319 236.545C175.99 236.242 175.825 235.743 175.825 235.05V230.851H174.902V229.876H175.825V228.082H177.008V229.876H178.867V230.851H177.008ZM187.074 229.876V237H185.891V235.947C185.665 236.311 185.349 236.597 184.942 236.805C184.543 237.004 184.101 237.104 183.616 237.104C183.061 237.104 182.563 236.991 182.121 236.766C181.679 236.532 181.328 236.185 181.068 235.726C180.816 235.267 180.691 234.708 180.691 234.049V229.876H181.861V233.893C181.861 234.595 182.038 235.137 182.394 235.518C182.749 235.891 183.234 236.077 183.85 236.077C184.482 236.077 184.981 235.882 185.345 235.492C185.709 235.102 185.891 234.534 185.891 233.789V229.876H187.074ZM190.709 231.189C190.943 230.782 191.29 230.444 191.749 230.175C192.217 229.898 192.759 229.759 193.374 229.759C194.007 229.759 194.579 229.911 195.09 230.214C195.61 230.517 196.017 230.946 196.312 231.501C196.607 232.047 196.754 232.684 196.754 233.412C196.754 234.131 196.607 234.773 196.312 235.336C196.017 235.899 195.61 236.337 195.09 236.649C194.579 236.961 194.007 237.117 193.374 237.117C192.767 237.117 192.23 236.983 191.762 236.714C191.303 236.437 190.952 236.094 190.709 235.687V240.38H189.526V229.876H190.709V231.189ZM195.545 233.412C195.545 232.875 195.437 232.407 195.22 232.008C195.003 231.609 194.709 231.306 194.336 231.098C193.972 230.89 193.569 230.786 193.127 230.786C192.694 230.786 192.291 230.894 191.918 231.111C191.554 231.319 191.259 231.627 191.034 232.034C190.817 232.433 190.709 232.896 190.709 233.425C190.709 233.962 190.817 234.435 191.034 234.842C191.259 235.241 191.554 235.548 191.918 235.765C192.291 235.973 192.694 236.077 193.127 236.077C193.569 236.077 193.972 235.973 194.336 235.765C194.709 235.548 195.003 235.241 195.22 234.842C195.437 234.435 195.545 233.958 195.545 233.412ZM202.245 233.412C202.245 232.684 202.392 232.047 202.687 231.501C202.982 230.946 203.385 230.517 203.896 230.214C204.416 229.911 204.992 229.759 205.625 229.759C206.249 229.759 206.791 229.893 207.25 230.162C207.709 230.431 208.052 230.769 208.277 231.176V229.876H209.473V237H208.277V235.674C208.043 236.09 207.692 236.437 207.224 236.714C206.765 236.983 206.227 237.117 205.612 237.117C204.979 237.117 204.407 236.961 203.896 236.649C203.385 236.337 202.982 235.899 202.687 235.336C202.392 234.773 202.245 234.131 202.245 233.412ZM208.277 233.425C208.277 232.888 208.169 232.42 207.952 232.021C207.735 231.622 207.441 231.319 207.068 231.111C206.704 230.894 206.301 230.786 205.859 230.786C205.417 230.786 205.014 230.89 204.65 231.098C204.286 231.306 203.996 231.609 203.779 232.008C203.562 232.407 203.454 232.875 203.454 233.412C203.454 233.958 203.562 234.435 203.779 234.842C203.996 235.241 204.286 235.548 204.65 235.765C205.014 235.973 205.417 236.077 205.859 236.077C206.301 236.077 206.704 235.973 207.068 235.765C207.441 235.548 207.735 235.241 207.952 234.842C208.169 234.435 208.277 233.962 208.277 233.425ZM215.398 229.746C216.265 229.746 216.967 230.01 217.504 230.539C218.042 231.059 218.31 231.813 218.31 232.801V237H217.14V232.97C217.14 232.259 216.963 231.718 216.607 231.345C216.252 230.964 215.767 230.773 215.151 230.773C214.527 230.773 214.029 230.968 213.656 231.358C213.292 231.748 213.11 232.316 213.11 233.061V237H211.927V229.876H213.11V230.89C213.344 230.526 213.661 230.244 214.059 230.045C214.467 229.846 214.913 229.746 215.398 229.746ZM220.256 233.412C220.256 232.684 220.403 232.047 220.698 231.501C220.992 230.946 221.395 230.517 221.907 230.214C222.427 229.911 223.007 229.759 223.649 229.759C224.203 229.759 224.719 229.889 225.196 230.149C225.672 230.4 226.036 230.734 226.288 231.15V227.38H227.484V237H226.288V235.661C226.054 236.086 225.707 236.437 225.248 236.714C224.788 236.983 224.251 237.117 223.636 237.117C223.003 237.117 222.427 236.961 221.907 236.649C221.395 236.337 220.992 235.899 220.698 235.336C220.403 234.773 220.256 234.131 220.256 233.412ZM226.288 233.425C226.288 232.888 226.179 232.42 225.963 232.021C225.746 231.622 225.451 231.319 225.079 231.111C224.715 230.894 224.312 230.786 223.87 230.786C223.428 230.786 223.025 230.89 222.661 231.098C222.297 231.306 222.006 231.609 221.79 232.008C221.573 232.407 221.465 232.875 221.465 233.412C221.465 233.958 221.573 234.435 221.79 234.842C222.006 235.241 222.297 235.548 222.661 235.765C223.025 235.973 223.428 236.077 223.87 236.077C224.312 236.077 224.715 235.973 225.079 235.765C225.451 235.548 225.746 235.241 225.963 234.842C226.179 234.435 226.288 233.962 226.288 233.425ZM236.381 237.117C235.835 237.117 235.345 237.026 234.912 236.844C234.478 236.653 234.136 236.393 233.885 236.064C233.633 235.726 233.495 235.34 233.469 234.907H234.691C234.725 235.262 234.89 235.553 235.185 235.778C235.488 236.003 235.882 236.116 236.368 236.116C236.818 236.116 237.174 236.016 237.434 235.817C237.694 235.618 237.824 235.366 237.824 235.063C237.824 234.751 237.685 234.521 237.408 234.374C237.13 234.218 236.701 234.066 236.121 233.919C235.592 233.78 235.159 233.642 234.821 233.503C234.491 233.356 234.205 233.143 233.963 232.866C233.729 232.58 233.612 232.207 233.612 231.748C233.612 231.384 233.72 231.05 233.937 230.747C234.153 230.444 234.461 230.205 234.86 230.032C235.258 229.85 235.713 229.759 236.225 229.759C237.013 229.759 237.65 229.958 238.136 230.357C238.621 230.756 238.881 231.302 238.916 231.995H237.733C237.707 231.622 237.555 231.323 237.278 231.098C237.009 230.873 236.645 230.76 236.186 230.76C235.761 230.76 235.423 230.851 235.172 231.033C234.92 231.215 234.795 231.453 234.795 231.748C234.795 231.982 234.868 232.177 235.016 232.333C235.172 232.48 235.362 232.602 235.588 232.697C235.822 232.784 236.142 232.883 236.55 232.996C237.061 233.135 237.477 233.273 237.798 233.412C238.118 233.542 238.391 233.741 238.617 234.01C238.851 234.279 238.972 234.63 238.981 235.063C238.981 235.453 238.872 235.804 238.656 236.116C238.439 236.428 238.131 236.675 237.733 236.857C237.343 237.03 236.892 237.117 236.381 237.117ZM240.664 233.425C240.664 232.688 240.811 232.047 241.106 231.501C241.4 230.946 241.808 230.517 242.328 230.214C242.856 229.911 243.459 229.759 244.135 229.759C245.01 229.759 245.729 229.971 246.293 230.396C246.865 230.821 247.242 231.41 247.424 232.164H246.15C246.028 231.731 245.79 231.388 245.435 231.137C245.088 230.886 244.655 230.76 244.135 230.76C243.459 230.76 242.913 230.994 242.497 231.462C242.081 231.921 241.873 232.576 241.873 233.425C241.873 234.283 242.081 234.946 242.497 235.414C242.913 235.882 243.459 236.116 244.135 236.116C244.655 236.116 245.088 235.995 245.435 235.752C245.781 235.509 246.02 235.163 246.15 234.712H247.424C247.233 235.44 246.852 236.025 246.28 236.467C245.708 236.9 244.993 237.117 244.135 237.117C243.459 237.117 242.856 236.965 242.328 236.662C241.808 236.359 241.4 235.93 241.106 235.375C240.811 234.82 240.664 234.17 240.664 233.425ZM249.015 233.412C249.015 232.684 249.162 232.047 249.457 231.501C249.752 230.946 250.155 230.517 250.666 230.214C251.186 229.911 251.762 229.759 252.395 229.759C253.019 229.759 253.561 229.893 254.02 230.162C254.479 230.431 254.822 230.769 255.047 231.176V229.876H256.243V237H255.047V235.674C254.813 236.09 254.462 236.437 253.994 236.714C253.535 236.983 252.997 237.117 252.382 237.117C251.749 237.117 251.177 236.961 250.666 236.649C250.155 236.337 249.752 235.899 249.457 235.336C249.162 234.773 249.015 234.131 249.015 233.412ZM255.047 233.425C255.047 232.888 254.939 232.42 254.722 232.021C254.505 231.622 254.211 231.319 253.838 231.111C253.474 230.894 253.071 230.786 252.629 230.786C252.187 230.786 251.784 230.89 251.42 231.098C251.056 231.306 250.766 231.609 250.549 232.008C250.332 232.407 250.224 232.875 250.224 233.412C250.224 233.958 250.332 234.435 250.549 234.842C250.766 235.241 251.056 235.548 251.42 235.765C251.784 235.973 252.187 236.077 252.629 236.077C253.071 236.077 253.474 235.973 253.838 235.765C254.211 235.548 254.505 235.241 254.722 234.842C254.939 234.435 255.047 233.962 255.047 233.425ZM259.88 227.38V237H258.697V227.38H259.88ZM268.851 233.165C268.851 233.39 268.838 233.629 268.812 233.88H263.118C263.162 234.582 263.4 235.132 263.833 235.531C264.275 235.921 264.808 236.116 265.432 236.116C265.944 236.116 266.368 235.999 266.706 235.765C267.053 235.522 267.296 235.202 267.434 234.803H268.708C268.518 235.488 268.136 236.047 267.564 236.48C266.992 236.905 266.282 237.117 265.432 237.117C264.756 237.117 264.15 236.965 263.612 236.662C263.084 236.359 262.668 235.93 262.364 235.375C262.061 234.812 261.909 234.162 261.909 233.425C261.909 232.688 262.057 232.043 262.351 231.488C262.646 230.933 263.058 230.509 263.586 230.214C264.124 229.911 264.739 229.759 265.432 229.759C266.108 229.759 266.706 229.906 267.226 230.201C267.746 230.496 268.145 230.903 268.422 231.423C268.708 231.934 268.851 232.515 268.851 233.165ZM267.629 232.918C267.629 232.467 267.53 232.082 267.33 231.761C267.131 231.432 266.858 231.185 266.511 231.02C266.173 230.847 265.796 230.76 265.38 230.76C264.782 230.76 264.271 230.951 263.846 231.332C263.43 231.713 263.192 232.242 263.131 232.918H267.629ZM62.5765 265.117C61.9091 265.117 61.3025 264.965 60.7565 264.662C60.2191 264.359 59.7945 263.93 59.4825 263.375C59.1791 262.812 59.0275 262.162 59.0275 261.425C59.0275 260.697 59.1835 260.056 59.4955 259.501C59.8161 258.938 60.2495 258.509 60.7955 258.214C61.3415 257.911 61.9525 257.759 62.6285 257.759C63.3045 257.759 63.9155 257.911 64.4615 258.214C65.0075 258.509 65.4365 258.933 65.7485 259.488C66.0691 260.043 66.2295 260.688 66.2295 261.425C66.2295 262.162 66.0648 262.812 65.7355 263.375C65.4148 263.93 64.9771 264.359 64.4225 264.662C63.8678 264.965 63.2525 265.117 62.5765 265.117ZM62.5765 264.077C63.0011 264.077 63.3998 263.977 63.7725 263.778C64.1451 263.579 64.4441 263.28 64.6695 262.881C64.9035 262.482 65.0205 261.997 65.0205 261.425C65.0205 260.853 64.9078 260.368 64.6825 259.969C64.4571 259.57 64.1625 259.276 63.7985 259.085C63.4345 258.886 63.0401 258.786 62.6155 258.786C62.1821 258.786 61.7835 258.886 61.4195 259.085C61.0641 259.276 60.7781 259.57 60.5615 259.969C60.3448 260.368 60.2365 260.853 60.2365 261.425C60.2365 262.006 60.3405 262.495 60.5485 262.894C60.7651 263.293 61.0511 263.592 61.4065 263.791C61.7618 263.982 62.1518 264.077 62.5765 264.077ZM71.1389 258.851H69.6439V265H68.4609V258.851H67.5379V257.876H68.4609V257.369C68.4609 256.572 68.6646 255.991 69.0719 255.627C69.4879 255.254 70.1509 255.068 71.0609 255.068V256.056C70.5409 256.056 70.1726 256.16 69.9559 256.368C69.7479 256.567 69.6439 256.901 69.6439 257.369V257.876H71.1389V258.851ZM79.416 265.117C78.87 265.117 78.3804 265.026 77.947 264.844C77.5137 264.653 77.1714 264.393 76.92 264.064C76.6687 263.726 76.53 263.34 76.504 262.907H77.726C77.7607 263.262 77.9254 263.553 78.22 263.778C78.5234 264.003 78.9177 264.116 79.403 264.116C79.8537 264.116 80.209 264.016 80.469 263.817C80.729 263.618 80.859 263.366 80.859 263.063C80.859 262.751 80.7204 262.521 80.443 262.374C80.1657 262.218 79.7367 262.066 79.156 261.919C78.6274 261.78 78.194 261.642 77.856 261.503C77.5267 261.356 77.2407 261.143 76.998 260.866C76.764 260.58 76.647 260.207 76.647 259.748C76.647 259.384 76.7554 259.05 76.972 258.747C77.1887 258.444 77.4964 258.205 77.895 258.032C78.2937 257.85 78.7487 257.759 79.26 257.759C80.0487 257.759 80.6857 257.958 81.171 258.357C81.6564 258.756 81.9164 259.302 81.951 259.995H80.768C80.742 259.622 80.5904 259.323 80.313 259.098C80.0444 258.873 79.6804 258.76 79.221 258.76C78.7964 258.76 78.4584 258.851 78.207 259.033C77.9557 259.215 77.83 259.453 77.83 259.748C77.83 259.982 77.9037 260.177 78.051 260.333C78.207 260.48 78.3977 260.602 78.623 260.697C78.857 260.784 79.1777 260.883 79.585 260.996C80.0964 261.135 80.5124 261.273 80.833 261.412C81.1537 261.542 81.4267 261.741 81.652 262.01C81.886 262.279 82.0074 262.63 82.016 263.063C82.016 263.453 81.9077 263.804 81.691 264.116C81.4744 264.428 81.1667 264.675 80.768 264.857C80.378 265.03 79.9274 265.117 79.416 265.117ZM87.248 265.117C86.5807 265.117 85.974 264.965 85.428 264.662C84.8907 264.359 84.466 263.93 84.154 263.375C83.8507 262.812 83.699 262.162 83.699 261.425C83.699 260.697 83.855 260.056 84.167 259.501C84.4877 258.938 84.921 258.509 85.467 258.214C86.013 257.911 86.624 257.759 87.3 257.759C87.976 257.759 88.587 257.911 89.133 258.214C89.679 258.509 90.108 258.933 90.42 259.488C90.7407 260.043 90.901 260.688 90.901 261.425C90.901 262.162 90.7364 262.812 90.407 263.375C90.0864 263.93 89.6487 264.359 89.094 264.662C88.5394 264.965 87.924 265.117 87.248 265.117ZM87.248 264.077C87.6727 264.077 88.0714 263.977 88.444 263.778C88.8167 263.579 89.1157 263.28 89.341 262.881C89.575 262.482 89.692 261.997 89.692 261.425C89.692 260.853 89.5794 260.368 89.354 259.969C89.1287 259.57 88.834 259.276 88.47 259.085C88.106 258.886 87.7117 258.786 87.287 258.786C86.8537 258.786 86.455 258.886 86.091 259.085C85.7357 259.276 85.4497 259.57 85.233 259.969C85.0164 260.368 84.908 260.853 84.908 261.425C84.908 262.006 85.012 262.495 85.22 262.894C85.4367 263.293 85.7227 263.592 86.078 263.791C86.4334 263.982 86.8234 264.077 87.248 264.077ZM94.0945 255.38V265H92.9115V255.38H94.0945ZM102.884 257.876V265H101.701V263.947C101.475 264.311 101.159 264.597 100.752 264.805C100.353 265.004 99.911 265.104 99.4257 265.104C98.871 265.104 98.3727 264.991 97.9307 264.766C97.4887 264.532 97.1377 264.185 96.8777 263.726C96.6263 263.267 96.5007 262.708 96.5007 262.049V257.876H97.6707V261.893C97.6707 262.595 97.8483 263.137 98.2037 263.518C98.559 263.891 99.0443 264.077 99.6597 264.077C100.292 264.077 100.791 263.882 101.155 263.492C101.519 263.102 101.701 262.534 101.701 261.789V257.876H102.884ZM106.779 258.851V263.05C106.779 263.397 106.853 263.644 107 263.791C107.147 263.93 107.403 263.999 107.767 263.999H108.638V265H107.572C106.913 265 106.419 264.848 106.09 264.545C105.761 264.242 105.596 263.743 105.596 263.05V258.851H104.673V257.876H105.596V256.082H106.779V257.876H108.638V258.851H106.779ZM111.137 256.719C110.912 256.719 110.721 256.641 110.565 256.485C110.409 256.329 110.331 256.138 110.331 255.913C110.331 255.688 110.409 255.497 110.565 255.341C110.721 255.185 110.912 255.107 111.137 255.107C111.354 255.107 111.536 255.185 111.683 255.341C111.839 255.497 111.917 255.688 111.917 255.913C111.917 256.138 111.839 256.329 111.683 256.485C111.536 256.641 111.354 256.719 111.137 256.719ZM111.709 257.876V265H110.526V257.876H111.709ZM117.288 265.117C116.62 265.117 116.014 264.965 115.468 264.662C114.93 264.359 114.506 263.93 114.194 263.375C113.89 262.812 113.739 262.162 113.739 261.425C113.739 260.697 113.895 260.056 114.207 259.501C114.527 258.938 114.961 258.509 115.507 258.214C116.053 257.911 116.664 257.759 117.34 257.759C118.016 257.759 118.627 257.911 119.173 258.214C119.719 258.509 120.148 258.933 120.46 259.488C120.78 260.043 120.941 260.688 120.941 261.425C120.941 262.162 120.776 262.812 120.447 263.375C120.126 263.93 119.688 264.359 119.134 264.662C118.579 264.965 117.964 265.117 117.288 265.117ZM117.288 264.077C117.712 264.077 118.111 263.977 118.484 263.778C118.856 263.579 119.155 263.28 119.381 262.881C119.615 262.482 119.732 261.997 119.732 261.425C119.732 260.853 119.619 260.368 119.394 259.969C119.168 259.57 118.874 259.276 118.51 259.085C118.146 258.886 117.751 258.786 117.327 258.786C116.893 258.786 116.495 258.886 116.131 259.085C115.775 259.276 115.489 259.57 115.273 259.969C115.056 260.368 114.948 260.853 114.948 261.425C114.948 262.006 115.052 262.495 115.26 262.894C115.476 263.293 115.762 263.592 116.118 263.791C116.473 263.982 116.863 264.077 117.288 264.077ZM126.422 257.746C127.289 257.746 127.991 258.01 128.528 258.539C129.065 259.059 129.334 259.813 129.334 260.801V265H128.164V260.97C128.164 260.259 127.986 259.718 127.631 259.345C127.276 258.964 126.79 258.773 126.175 258.773C125.551 258.773 125.053 258.968 124.68 259.358C124.316 259.748 124.134 260.316 124.134 261.061V265H122.951V257.876H124.134V258.89C124.368 258.526 124.684 258.244 125.083 258.045C125.49 257.846 125.937 257.746 126.422 257.746ZM136.662 259.735V260.736H131.475V259.735H136.662ZM138.895 261.425C138.895 260.688 139.042 260.047 139.337 259.501C139.631 258.946 140.039 258.517 140.559 258.214C141.087 257.911 141.69 257.759 142.366 257.759C143.241 257.759 143.96 257.971 144.524 258.396C145.096 258.821 145.473 259.41 145.655 260.164H144.381C144.259 259.731 144.021 259.388 143.666 259.137C143.319 258.886 142.886 258.76 142.366 258.76C141.69 258.76 141.144 258.994 140.728 259.462C140.312 259.921 140.104 260.576 140.104 261.425C140.104 262.283 140.312 262.946 140.728 263.414C141.144 263.882 141.69 264.116 142.366 264.116C142.886 264.116 143.319 263.995 143.666 263.752C144.012 263.509 144.251 263.163 144.381 262.712H145.655C145.464 263.44 145.083 264.025 144.511 264.467C143.939 264.9 143.224 265.117 142.366 265.117C141.69 265.117 141.087 264.965 140.559 264.662C140.039 264.359 139.631 263.93 139.337 263.375C139.042 262.82 138.895 262.17 138.895 261.425ZM154.188 261.165C154.188 261.39 154.175 261.629 154.149 261.88H148.455C148.499 262.582 148.737 263.132 149.17 263.531C149.612 263.921 150.145 264.116 150.769 264.116C151.281 264.116 151.705 263.999 152.043 263.765C152.39 263.522 152.633 263.202 152.771 262.803H154.045C153.855 263.488 153.473 264.047 152.901 264.48C152.329 264.905 151.619 265.117 150.769 265.117C150.093 265.117 149.487 264.965 148.949 264.662C148.421 264.359 148.005 263.93 147.701 263.375C147.398 262.812 147.246 262.162 147.246 261.425C147.246 260.688 147.394 260.043 147.688 259.488C147.983 258.933 148.395 258.509 148.923 258.214C149.461 257.911 150.076 257.759 150.769 257.759C151.445 257.759 152.043 257.906 152.563 258.201C153.083 258.496 153.482 258.903 153.759 259.423C154.045 259.934 154.188 260.515 154.188 261.165ZM152.966 260.918C152.966 260.467 152.867 260.082 152.667 259.761C152.468 259.432 152.195 259.185 151.848 259.02C151.51 258.847 151.133 258.76 150.717 258.76C150.119 258.76 149.608 258.951 149.183 259.332C148.767 259.713 148.529 260.242 148.468 260.918H152.966ZM159.676 257.746C160.542 257.746 161.244 258.01 161.782 258.539C162.319 259.059 162.588 259.813 162.588 260.801V265H161.418V260.97C161.418 260.259 161.24 259.718 160.885 259.345C160.529 258.964 160.044 258.773 159.429 258.773C158.805 258.773 158.306 258.968 157.934 259.358C157.57 259.748 157.388 260.316 157.388 261.061V265H156.205V257.876H157.388V258.89C157.622 258.526 157.938 258.244 158.337 258.045C158.744 257.846 159.19 257.746 159.676 257.746ZM166.418 258.851V263.05C166.418 263.397 166.492 263.644 166.639 263.791C166.786 263.93 167.042 263.999 167.406 263.999H168.277V265H167.211C166.552 265 166.058 264.848 165.729 264.545C165.4 264.242 165.235 263.743 165.235 263.05V258.851H164.312V257.876H165.235V256.082H166.418V257.876H168.277V258.851H166.418ZM171.348 259.033C171.556 258.626 171.851 258.309 172.232 258.084C172.622 257.859 173.095 257.746 173.649 257.746V258.968H173.337C172.011 258.968 171.348 259.687 171.348 261.126V265H170.165V257.876H171.348V259.033ZM176.081 256.719C175.856 256.719 175.665 256.641 175.509 256.485C175.353 256.329 175.275 256.138 175.275 255.913C175.275 255.688 175.353 255.497 175.509 255.341C175.665 255.185 175.856 255.107 176.081 255.107C176.298 255.107 176.48 255.185 176.627 255.341C176.783 255.497 176.861 255.688 176.861 255.913C176.861 256.138 176.783 256.329 176.627 256.485C176.48 256.641 176.298 256.719 176.081 256.719ZM176.653 257.876V265H175.47V257.876H176.653ZM178.682 261.425C178.682 260.688 178.83 260.047 179.124 259.501C179.419 258.946 179.826 258.517 180.346 258.214C180.875 257.911 181.477 257.759 182.153 257.759C183.029 257.759 183.748 257.971 184.311 258.396C184.883 258.821 185.26 259.41 185.442 260.164H184.168C184.047 259.731 183.809 259.388 183.453 259.137C183.107 258.886 182.673 258.76 182.153 258.76C181.477 258.76 180.931 258.994 180.515 259.462C180.099 259.921 179.891 260.576 179.891 261.425C179.891 262.283 180.099 262.946 180.515 263.414C180.931 263.882 181.477 264.116 182.153 264.116C182.673 264.116 183.107 263.995 183.453 263.752C183.8 263.509 184.038 263.163 184.168 262.712H185.442C185.252 263.44 184.87 264.025 184.298 264.467C183.726 264.9 183.011 265.117 182.153 265.117C181.477 265.117 180.875 264.965 180.346 264.662C179.826 264.359 179.419 263.93 179.124 263.375C178.83 262.82 178.682 262.17 178.682 261.425ZM195.934 260.333C196.263 260.385 196.562 260.519 196.831 260.736C197.108 260.953 197.325 261.221 197.481 261.542C197.645 261.863 197.728 262.205 197.728 262.569C197.728 263.028 197.611 263.444 197.377 263.817C197.143 264.181 196.8 264.471 196.35 264.688C195.908 264.896 195.383 265 194.777 265H191.397V255.939H194.647C195.262 255.939 195.786 256.043 196.22 256.251C196.653 256.45 196.978 256.723 197.195 257.07C197.411 257.417 197.52 257.807 197.52 258.24C197.52 258.777 197.372 259.224 197.078 259.579C196.792 259.926 196.41 260.177 195.934 260.333ZM192.58 259.852H194.569C195.123 259.852 195.552 259.722 195.856 259.462C196.159 259.202 196.311 258.842 196.311 258.383C196.311 257.924 196.159 257.564 195.856 257.304C195.552 257.044 195.115 256.914 194.543 256.914H192.58V259.852ZM194.673 264.025C195.262 264.025 195.721 263.886 196.051 263.609C196.38 263.332 196.545 262.946 196.545 262.452C196.545 261.949 196.371 261.555 196.025 261.269C195.678 260.974 195.214 260.827 194.634 260.827H192.58V264.025H194.673ZM201.007 255.38V265H199.824V255.38H201.007ZM206.585 265.117C205.918 265.117 205.311 264.965 204.765 264.662C204.228 264.359 203.803 263.93 203.491 263.375C203.188 262.812 203.036 262.162 203.036 261.425C203.036 260.697 203.192 260.056 203.504 259.501C203.825 258.938 204.258 258.509 204.804 258.214C205.35 257.911 205.961 257.759 206.637 257.759C207.313 257.759 207.924 257.911 208.47 258.214C209.016 258.509 209.445 258.933 209.757 259.488C210.078 260.043 210.238 260.688 210.238 261.425C210.238 262.162 210.074 262.812 209.744 263.375C209.424 263.93 208.986 264.359 208.431 264.662C207.877 264.965 207.261 265.117 206.585 265.117ZM206.585 264.077C207.01 264.077 207.409 263.977 207.781 263.778C208.154 263.579 208.453 263.28 208.678 262.881C208.912 262.482 209.029 261.997 209.029 261.425C209.029 260.853 208.917 260.368 208.691 259.969C208.466 259.57 208.171 259.276 207.807 259.085C207.443 258.886 207.049 258.786 206.624 258.786C206.191 258.786 205.792 258.886 205.428 259.085C205.073 259.276 204.787 259.57 204.57 259.969C204.354 260.368 204.245 260.853 204.245 261.425C204.245 262.006 204.349 262.495 204.557 262.894C204.774 263.293 205.06 263.592 205.415 263.791C205.771 263.982 206.161 264.077 206.585 264.077ZM211.807 261.425C211.807 260.688 211.954 260.047 212.249 259.501C212.544 258.946 212.951 258.517 213.471 258.214C214 257.911 214.602 257.759 215.278 257.759C216.153 257.759 216.873 257.971 217.436 258.396C218.008 258.821 218.385 259.41 218.567 260.164H217.293C217.172 259.731 216.933 259.388 216.578 259.137C216.231 258.886 215.798 258.76 215.278 258.76C214.602 258.76 214.056 258.994 213.64 259.462C213.224 259.921 213.016 260.576 213.016 261.425C213.016 262.283 213.224 262.946 213.64 263.414C214.056 263.882 214.602 264.116 215.278 264.116C215.798 264.116 216.231 263.995 216.578 263.752C216.925 263.509 217.163 263.163 217.293 262.712H218.567C218.376 263.44 217.995 264.025 217.423 264.467C216.851 264.9 216.136 265.117 215.278 265.117C214.602 265.117 214 264.965 213.471 264.662C212.951 264.359 212.544 263.93 212.249 263.375C211.954 262.82 211.807 262.17 211.807 261.425ZM224.578 265L221.783 261.854V265H220.6V255.38H221.783V261.035L224.526 257.876H226.177L222.823 261.425L226.19 265H224.578ZM227.304 261.425C227.304 260.688 227.451 260.047 227.746 259.501C228.04 258.946 228.448 258.517 228.968 258.214C229.496 257.911 230.099 257.759 230.775 257.759C231.65 257.759 232.369 257.971 232.933 258.396C233.505 258.821 233.882 259.41 234.064 260.164H232.79C232.668 259.731 232.43 259.388 232.075 259.137C231.728 258.886 231.295 258.76 230.775 258.76C230.099 258.76 229.553 258.994 229.137 259.462C228.721 259.921 228.513 260.576 228.513 261.425C228.513 262.283 228.721 262.946 229.137 263.414C229.553 263.882 230.099 264.116 230.775 264.116C231.295 264.116 231.728 263.995 232.075 263.752C232.421 263.509 232.66 263.163 232.79 262.712H234.064C233.873 263.44 233.492 264.025 232.92 264.467C232.348 264.9 231.633 265.117 230.775 265.117C230.099 265.117 229.496 264.965 228.968 264.662C228.448 264.359 228.04 263.93 227.746 263.375C227.451 262.82 227.304 262.17 227.304 261.425ZM239.633 257.746C240.171 257.746 240.656 257.863 241.089 258.097C241.523 258.322 241.861 258.665 242.103 259.124C242.355 259.583 242.48 260.142 242.48 260.801V265H241.31V260.97C241.31 260.259 241.133 259.718 240.777 259.345C240.422 258.964 239.937 258.773 239.321 258.773C238.697 258.773 238.199 258.968 237.826 259.358C237.462 259.748 237.28 260.316 237.28 261.061V265H236.097V255.38H237.28V258.89C237.514 258.526 237.835 258.244 238.242 258.045C238.658 257.846 239.122 257.746 239.633 257.746ZM244.426 261.412C244.426 260.684 244.573 260.047 244.868 259.501C245.162 258.946 245.565 258.517 246.077 258.214C246.597 257.911 247.173 257.759 247.806 257.759C248.43 257.759 248.971 257.893 249.431 258.162C249.89 258.431 250.232 258.769 250.458 259.176V257.876H251.654V265H250.458V263.674C250.224 264.09 249.873 264.437 249.405 264.714C248.945 264.983 248.408 265.117 247.793 265.117C247.16 265.117 246.588 264.961 246.077 264.649C245.565 264.337 245.162 263.899 244.868 263.336C244.573 262.773 244.426 262.131 244.426 261.412ZM250.458 261.425C250.458 260.888 250.349 260.42 250.133 260.021C249.916 259.622 249.621 259.319 249.249 259.111C248.885 258.894 248.482 258.786 248.04 258.786C247.598 258.786 247.195 258.89 246.831 259.098C246.467 259.306 246.176 259.609 245.96 260.008C245.743 260.407 245.635 260.875 245.635 261.412C245.635 261.958 245.743 262.435 245.96 262.842C246.176 263.241 246.467 263.548 246.831 263.765C247.195 263.973 247.598 264.077 248.04 264.077C248.482 264.077 248.885 263.973 249.249 263.765C249.621 263.548 249.916 263.241 250.133 262.842C250.349 262.435 250.458 261.962 250.458 261.425ZM254.719 256.719C254.494 256.719 254.303 256.641 254.147 256.485C253.991 256.329 253.913 256.138 253.913 255.913C253.913 255.688 253.991 255.497 254.147 255.341C254.303 255.185 254.494 255.107 254.719 255.107C254.936 255.107 255.118 255.185 255.265 255.341C255.421 255.497 255.499 255.688 255.499 255.913C255.499 256.138 255.421 256.329 255.265 256.485C255.118 256.641 254.936 256.719 254.719 256.719ZM255.291 257.876V265H254.108V257.876H255.291ZM261.233 257.746C262.1 257.746 262.802 258.01 263.339 258.539C263.876 259.059 264.145 259.813 264.145 260.801V265H262.975V260.97C262.975 260.259 262.797 259.718 262.442 259.345C262.087 258.964 261.601 258.773 260.986 258.773C260.362 258.773 259.864 258.968 259.491 259.358C259.127 259.748 258.945 260.316 258.945 261.061V265H257.762V257.876H258.945V258.89C259.179 258.526 259.495 258.244 259.894 258.045C260.301 257.846 260.748 257.746 261.233 257.746ZM109.563 286.591C109.563 287.345 109.303 287.973 108.783 288.476C108.271 288.97 107.487 289.217 106.43 289.217H104.688V293H103.505V283.939H106.43C107.452 283.939 108.228 284.186 108.757 284.68C109.294 285.174 109.563 285.811 109.563 286.591ZM106.43 288.242C107.088 288.242 107.574 288.099 107.886 287.813C108.198 287.527 108.354 287.12 108.354 286.591C108.354 285.473 107.712 284.914 106.43 284.914H104.688V288.242H106.43ZM112.671 287.033C112.879 286.626 113.174 286.309 113.555 286.084C113.945 285.859 114.417 285.746 114.972 285.746V286.968H114.66C113.334 286.968 112.671 287.687 112.671 289.126V293H111.488V285.876H112.671V287.033ZM119.9 293.117C119.232 293.117 118.626 292.965 118.08 292.662C117.542 292.359 117.118 291.93 116.806 291.375C116.502 290.812 116.351 290.162 116.351 289.425C116.351 288.697 116.507 288.056 116.819 287.501C117.139 286.938 117.573 286.509 118.119 286.214C118.665 285.911 119.276 285.759 119.952 285.759C120.628 285.759 121.239 285.911 121.785 286.214C122.331 286.509 122.76 286.933 123.072 287.488C123.392 288.043 123.553 288.688 123.553 289.425C123.553 290.162 123.388 290.812 123.059 291.375C122.738 291.93 122.3 292.359 121.746 292.662C121.191 292.965 120.576 293.117 119.9 293.117ZM119.9 292.077C120.324 292.077 120.723 291.977 121.096 291.778C121.468 291.579 121.767 291.28 121.993 290.881C122.227 290.482 122.344 289.997 122.344 289.425C122.344 288.853 122.231 288.368 122.006 287.969C121.78 287.57 121.486 287.276 121.122 287.085C120.758 286.886 120.363 286.786 119.939 286.786C119.505 286.786 119.107 286.886 118.743 287.085C118.387 287.276 118.101 287.57 117.885 287.969C117.668 288.368 117.56 288.853 117.56 289.425C117.56 290.006 117.664 290.495 117.872 290.894C118.088 291.293 118.374 291.592 118.73 291.791C119.085 291.982 119.475 292.077 119.9 292.077ZM126.2 284.719C125.975 284.719 125.784 284.641 125.628 284.485C125.481 284.329 125.407 284.138 125.407 283.913C125.407 283.688 125.481 283.497 125.628 283.341C125.784 283.185 125.975 283.107 126.2 283.107C126.425 283.107 126.612 283.185 126.759 283.341C126.915 283.497 126.993 283.688 126.993 283.913C126.993 284.138 126.915 284.329 126.759 284.485C126.612 284.641 126.425 284.719 126.2 284.719ZM126.785 294.547C126.785 295.18 126.625 295.643 126.304 295.938C125.983 296.233 125.515 296.38 124.9 296.38H124.211V295.379H124.705C125.034 295.379 125.264 295.314 125.394 295.184C125.533 295.054 125.602 294.833 125.602 294.521V285.876H126.785V294.547ZM135.743 289.165C135.743 289.39 135.73 289.629 135.704 289.88H130.01C130.053 290.582 130.291 291.132 130.725 291.531C131.167 291.921 131.7 292.116 132.324 292.116C132.835 292.116 133.26 291.999 133.598 291.765C133.944 291.522 134.187 291.202 134.326 290.803H135.6C135.409 291.488 135.028 292.047 134.456 292.48C133.884 292.905 133.173 293.117 132.324 293.117C131.648 293.117 131.041 292.965 130.504 292.662C129.975 292.359 129.559 291.93 129.256 291.375C128.952 290.812 128.801 290.162 128.801 289.425C128.801 288.688 128.948 288.043 129.243 287.488C129.537 286.933 129.949 286.509 130.478 286.214C131.015 285.911 131.63 285.759 132.324 285.759C133 285.759 133.598 285.906 134.118 286.201C134.638 286.496 135.036 286.903 135.314 287.423C135.6 287.934 135.743 288.515 135.743 289.165ZM134.521 288.918C134.521 288.467 134.421 288.082 134.222 287.761C134.022 287.432 133.749 287.185 133.403 287.02C133.065 286.847 132.688 286.76 132.272 286.76C131.674 286.76 131.162 286.951 130.738 287.332C130.322 287.713 130.083 288.242 130.023 288.918H134.521ZM137.317 289.425C137.317 288.688 137.464 288.047 137.759 287.501C138.054 286.946 138.461 286.517 138.981 286.214C139.51 285.911 140.112 285.759 140.788 285.759C141.663 285.759 142.383 285.971 142.946 286.396C143.518 286.821 143.895 287.41 144.077 288.164H142.803C142.682 287.731 142.443 287.388 142.088 287.137C141.741 286.886 141.308 286.76 140.788 286.76C140.112 286.76 139.566 286.994 139.15 287.462C138.734 287.921 138.526 288.576 138.526 289.425C138.526 290.283 138.734 290.946 139.15 291.414C139.566 291.882 140.112 292.116 140.788 292.116C141.308 292.116 141.741 291.995 142.088 291.752C142.435 291.509 142.673 291.163 142.803 290.712H144.077C143.886 291.44 143.505 292.025 142.933 292.467C142.361 292.9 141.646 293.117 140.788 293.117C140.112 293.117 139.51 292.965 138.981 292.662C138.461 292.359 138.054 291.93 137.759 291.375C137.464 290.82 137.317 290.17 137.317 289.425ZM147.554 286.851V291.05C147.554 291.397 147.627 291.644 147.775 291.791C147.922 291.93 148.178 291.999 148.542 291.999H149.413V293H148.347C147.688 293 147.194 292.848 146.865 292.545C146.535 292.242 146.371 291.743 146.371 291.05V286.851H145.448V285.876H146.371V284.082H147.554V285.876H149.413V286.851H147.554ZM153.823 293.117C153.277 293.117 152.787 293.026 152.354 292.844C151.921 292.653 151.578 292.393 151.327 292.064C151.076 291.726 150.937 291.34 150.911 290.907H152.133C152.168 291.262 152.332 291.553 152.627 291.778C152.93 292.003 153.325 292.116 153.81 292.116C154.261 292.116 154.616 292.016 154.876 291.817C155.136 291.618 155.266 291.366 155.266 291.063C155.266 290.751 155.127 290.521 154.85 290.374C154.573 290.218 154.144 290.066 153.563 289.919C153.034 289.78 152.601 289.642 152.263 289.503C151.934 289.356 151.648 289.143 151.405 288.866C151.171 288.58 151.054 288.207 151.054 287.748C151.054 287.384 151.162 287.05 151.379 286.747C151.596 286.444 151.903 286.205 152.302 286.032C152.701 285.85 153.156 285.759 153.667 285.759C154.456 285.759 155.093 285.958 155.578 286.357C156.063 286.756 156.323 287.302 156.358 287.995H155.175C155.149 287.622 154.997 287.323 154.72 287.098C154.451 286.873 154.087 286.76 153.628 286.76C153.203 286.76 152.865 286.851 152.614 287.033C152.363 287.215 152.237 287.453 152.237 287.748C152.237 287.982 152.311 288.177 152.458 288.333C152.614 288.48 152.805 288.602 153.03 288.697C153.264 288.784 153.585 288.883 153.992 288.996C154.503 289.135 154.919 289.273 155.24 289.412C155.561 289.542 155.834 289.741 156.059 290.01C156.293 290.279 156.414 290.63 156.423 291.063C156.423 291.453 156.315 291.804 156.098 292.116C155.881 292.428 155.574 292.675 155.175 292.857C154.785 293.03 154.334 293.117 153.823 293.117ZM163.08 284.719C162.854 284.719 162.664 284.641 162.508 284.485C162.352 284.329 162.274 284.138 162.274 283.913C162.274 283.688 162.352 283.497 162.508 283.341C162.664 283.185 162.854 283.107 163.08 283.107C163.296 283.107 163.478 283.185 163.626 283.341C163.782 283.497 163.86 283.688 163.86 283.913C163.86 284.138 163.782 284.329 163.626 284.485C163.478 284.641 163.296 284.719 163.08 284.719ZM163.652 285.876V293H162.469V285.876H163.652ZM169.594 285.746C170.461 285.746 171.163 286.01 171.7 286.539C172.237 287.059 172.506 287.813 172.506 288.801V293H171.336V288.97C171.336 288.259 171.158 287.718 170.803 287.345C170.448 286.964 169.962 286.773 169.347 286.773C168.723 286.773 168.225 286.968 167.852 287.358C167.488 287.748 167.306 288.316 167.306 289.061V293H166.123V285.876H167.306V286.89C167.54 286.526 167.856 286.244 168.255 286.045C168.662 285.846 169.109 285.746 169.594 285.746ZM184.17 290.985H180.218L179.49 293H178.242L181.518 283.991H182.883L186.146 293H184.898L184.17 290.985ZM183.832 290.023L182.194 285.447L180.556 290.023H183.832ZM190.928 286.851H189.433V293H188.25V286.851H187.327V285.876H188.25V285.369C188.25 284.572 188.454 283.991 188.861 283.627C189.277 283.254 189.94 283.068 190.85 283.068V284.056C190.33 284.056 189.962 284.16 189.745 284.368C189.537 284.567 189.433 284.901 189.433 285.369V285.876H190.928V286.851ZM193.945 287.033C194.153 286.626 194.448 286.309 194.829 286.084C195.219 285.859 195.692 285.746 196.246 285.746V286.968H195.934C194.608 286.968 193.945 287.687 193.945 289.126V293H192.762V285.876H193.945V287.033ZM198.678 284.719C198.453 284.719 198.262 284.641 198.106 284.485C197.95 284.329 197.872 284.138 197.872 283.913C197.872 283.688 197.95 283.497 198.106 283.341C198.262 283.185 198.453 283.107 198.678 283.107C198.895 283.107 199.077 283.185 199.224 283.341C199.38 283.497 199.458 283.688 199.458 283.913C199.458 284.138 199.38 284.329 199.224 284.485C199.077 284.641 198.895 284.719 198.678 284.719ZM199.25 285.876V293H198.067V285.876H199.25ZM201.279 289.425C201.279 288.688 201.427 288.047 201.721 287.501C202.016 286.946 202.423 286.517 202.943 286.214C203.472 285.911 204.074 285.759 204.75 285.759C205.626 285.759 206.345 285.971 206.908 286.396C207.48 286.821 207.857 287.41 208.039 288.164H206.765C206.644 287.731 206.406 287.388 206.05 287.137C205.704 286.886 205.27 286.76 204.75 286.76C204.074 286.76 203.528 286.994 203.112 287.462C202.696 287.921 202.488 288.576 202.488 289.425C202.488 290.283 202.696 290.946 203.112 291.414C203.528 291.882 204.074 292.116 204.75 292.116C205.27 292.116 205.704 291.995 206.05 291.752C206.397 291.509 206.635 291.163 206.765 290.712H208.039C207.849 291.44 207.467 292.025 206.895 292.467C206.323 292.9 205.608 293.117 204.75 293.117C204.074 293.117 203.472 292.965 202.943 292.662C202.423 292.359 202.016 291.93 201.721 291.375C201.427 290.82 201.279 290.17 201.279 289.425ZM209.631 289.412C209.631 288.684 209.778 288.047 210.073 287.501C210.367 286.946 210.77 286.517 211.282 286.214C211.802 285.911 212.378 285.759 213.011 285.759C213.635 285.759 214.176 285.893 214.636 286.162C215.095 286.431 215.437 286.769 215.663 287.176V285.876H216.859V293H215.663V291.674C215.429 292.09 215.078 292.437 214.61 292.714C214.15 292.983 213.613 293.117 212.998 293.117C212.365 293.117 211.793 292.961 211.282 292.649C210.77 292.337 210.367 291.899 210.073 291.336C209.778 290.773 209.631 290.131 209.631 289.412ZM215.663 289.425C215.663 288.888 215.554 288.42 215.338 288.021C215.121 287.622 214.826 287.319 214.454 287.111C214.09 286.894 213.687 286.786 213.245 286.786C212.803 286.786 212.4 286.89 212.036 287.098C211.672 287.306 211.381 287.609 211.165 288.008C210.948 288.407 210.84 288.875 210.84 289.412C210.84 289.958 210.948 290.435 211.165 290.842C211.381 291.241 211.672 291.548 212.036 291.765C212.4 291.973 212.803 292.077 213.245 292.077C213.687 292.077 214.09 291.973 214.454 291.765C214.826 291.548 215.121 291.241 215.338 290.842C215.554 290.435 215.663 289.962 215.663 289.425ZM219.69 293.078C219.465 293.078 219.274 293 219.118 292.844C218.962 292.688 218.884 292.497 218.884 292.272C218.884 292.047 218.962 291.856 219.118 291.7C219.274 291.544 219.465 291.466 219.69 291.466C219.907 291.466 220.089 291.544 220.236 291.7C220.392 291.856 220.47 292.047 220.47 292.272C220.47 292.497 220.392 292.688 220.236 292.844C220.089 293 219.907 293.078 219.69 293.078Z" fill="#352C2C"/>
<g filter="url(#filter1_d_208_312)">
<circle cx="159" cy="69" r="49" fill="white"/>
</g>
<defs>
<filter id="filter0_d_208_312" x="0" y="22.1758" width="318" height="415.824" filterUnits="userSpaceOnUse" color-interpolation-filters="sRGB">
<feFlood flood-opacity="0" result="BackgroundImageFix"/>
<feColorMatrix in="SourceAlpha" type="matrix" values="0 0 0 0 0 0 0 0 0 0 0 0 0 0 0 0 0 0 127 0" result="hardAlpha"/>
<feOffset/>
<feGaussianBlur stdDeviation="10"/>
<feComposite in2="hardAlpha" operator="out"/>
<feColorMatrix type="matrix" values="0 0 0 0 0 0 0 0 0 0 0 0 0 0 0 0 0 0 0.25 0"/>
<feBlend mode="normal" in2="BackgroundImageFix" result="effect1_dropShadow_208_312"/>
<feBlend mode="normal" in="SourceGraphic" in2="effect1_dropShadow_208_312" result="shape"/>
</filter>
<filter id="filter1_d_208_312" x="90" y="0" width="138" height="138" filterUnits="userSpaceOnUse" color-interpolation-filters="sRGB">
<feFlood flood-opacity="0" result="BackgroundImageFix"/>
<feColorMatrix in="SourceAlpha" type="matrix" values="0 0 0 0 0 0 0 0 0 0 0 0 0 0 0 0 0 0 127 0" result="hardAlpha"/>
<feOffset/>
<feGaussianBlur stdDeviation="10"/>
<feComposite in2="hardAlpha" operator="out"/>
<feColorMatrix type="matrix" values="0 0 0 0 0 0 0 0 0 0 0 0 0 0 0 0 0 0 0.25 0"/>
<feBlend mode="normal" in2="BackgroundImageFix" result="effect1_dropShadow_208_312"/>
<feBlend mode="normal" in="SourceGraphic" in2="effect1_dropShadow_208_312" result="shape"/>
</filter>
</defs>
</svg>
