<svg width="318" height="438" viewBox="0 0 318 438" fill="none" xmlns="http://www.w3.org/2000/svg">
<g filter="url(#filter0_d_208_313)">
<path d="M20 107.076C20 92.3379 30.7056 79.7826 45.2586 77.4532L263.259 42.5606C281.487 39.6431 298 53.7235 298 72.1836V388C298 404.569 284.569 418 268 418H50C33.4315 418 20 404.569 20 388V107.076Z" fill="white"/>
</g>
<path d="M110.922 164.02C110.922 162.66 111.235 161.44 111.862 160.36C112.502 159.28 113.362 158.44 114.442 157.84C115.535 157.227 116.728 156.92 118.022 156.92C119.502 156.92 120.815 157.287 121.962 158.02C123.122 158.74 123.962 159.767 124.482 161.1H121.742C121.382 160.367 120.882 159.82 120.242 159.46C119.602 159.1 118.862 158.92 118.022 158.92C117.102 158.92 116.282 159.127 115.562 159.54C114.842 159.953 114.275 160.547 113.862 161.32C113.462 162.093 113.262 162.993 113.262 164.02C113.262 165.047 113.462 165.947 113.862 166.72C114.275 167.493 114.842 168.093 115.562 168.52C116.282 168.933 117.102 169.14 118.022 169.14C118.862 169.14 119.602 168.96 120.242 168.6C120.882 168.24 121.382 167.693 121.742 166.96H124.482C123.962 168.293 123.122 169.32 121.962 170.04C120.815 170.76 119.502 171.12 118.022 171.12C116.715 171.12 115.522 170.82 114.442 170.22C113.362 169.607 112.502 168.76 111.862 167.68C111.235 166.6 110.922 165.38 110.922 164.02ZM129.43 161.58C129.764 161.02 130.204 160.587 130.75 160.28C131.31 159.96 131.97 159.8 132.73 159.8V162.16H132.15C131.257 162.16 130.577 162.387 130.11 162.84C129.657 163.293 129.43 164.08 129.43 165.2V171H127.15V159.98H129.43V161.58ZM144.926 165.22C144.926 165.633 144.9 166.007 144.846 166.34H136.426C136.493 167.22 136.82 167.927 137.406 168.46C137.993 168.993 138.713 169.26 139.566 169.26C140.793 169.26 141.66 168.747 142.166 167.72H144.626C144.293 168.733 143.686 169.567 142.806 170.22C141.94 170.86 140.86 171.18 139.566 171.18C138.513 171.18 137.566 170.947 136.726 170.48C135.9 170 135.246 169.333 134.766 168.48C134.3 167.613 134.066 166.613 134.066 165.48C134.066 164.347 134.293 163.353 134.746 162.5C135.213 161.633 135.86 160.967 136.686 160.5C137.526 160.033 138.486 159.8 139.566 159.8C140.606 159.8 141.533 160.027 142.346 160.48C143.16 160.933 143.793 161.573 144.246 162.4C144.7 163.213 144.926 164.153 144.926 165.22ZM142.546 164.5C142.533 163.66 142.233 162.987 141.646 162.48C141.06 161.973 140.333 161.72 139.466 161.72C138.68 161.72 138.006 161.973 137.446 162.48C136.886 162.973 136.553 163.647 136.446 164.5H142.546ZM146.41 165.44C146.41 164.333 146.637 163.353 147.09 162.5C147.557 161.647 148.183 160.987 148.97 160.52C149.77 160.04 150.65 159.8 151.61 159.8C152.477 159.8 153.23 159.973 153.87 160.32C154.523 160.653 155.043 161.073 155.43 161.58V159.98H157.73V171H155.43V169.36C155.043 169.88 154.517 170.313 153.85 170.66C153.183 171.007 152.423 171.18 151.57 171.18C150.623 171.18 149.757 170.94 148.97 170.46C148.183 169.967 147.557 169.287 147.09 168.42C146.637 167.54 146.41 166.547 146.41 165.44ZM155.43 165.48C155.43 164.72 155.27 164.06 154.95 163.5C154.643 162.94 154.237 162.513 153.73 162.22C153.223 161.927 152.677 161.78 152.09 161.78C151.503 161.78 150.957 161.927 150.45 162.22C149.943 162.5 149.53 162.92 149.21 163.48C148.903 164.027 148.75 164.68 148.75 165.44C148.75 166.2 148.903 166.867 149.21 167.44C149.53 168.013 149.943 168.453 150.45 168.76C150.97 169.053 151.517 169.2 152.09 169.2C152.677 169.2 153.223 169.053 153.73 168.76C154.237 168.467 154.643 168.04 154.95 167.48C155.27 166.907 155.43 166.24 155.43 165.48ZM163.385 161.84V167.94C163.385 168.353 163.478 168.653 163.665 168.84C163.865 169.013 164.198 169.1 164.665 169.1H166.065V171H164.265C163.238 171 162.451 170.76 161.905 170.28C161.358 169.8 161.085 169.02 161.085 167.94V161.84H159.785V159.98H161.085V157.24H163.385V159.98H166.065V161.84H163.385ZM169.326 158.52C168.913 158.52 168.566 158.38 168.286 158.1C168.006 157.82 167.866 157.473 167.866 157.06C167.866 156.647 168.006 156.3 168.286 156.02C168.566 155.74 168.913 155.6 169.326 155.6C169.726 155.6 170.066 155.74 170.346 156.02C170.626 156.3 170.766 156.647 170.766 157.06C170.766 157.473 170.626 157.82 170.346 158.1C170.066 158.38 169.726 158.52 169.326 158.52ZM170.446 159.98V171H168.166V159.98H170.446ZM177.699 168.96L180.819 159.98H183.239L179.039 171H176.319L172.139 159.98H174.579L177.699 168.96ZM186.123 158.52C185.71 158.52 185.363 158.38 185.083 158.1C184.803 157.82 184.663 157.473 184.663 157.06C184.663 156.647 184.803 156.3 185.083 156.02C185.363 155.74 185.71 155.6 186.123 155.6C186.523 155.6 186.863 155.74 187.143 156.02C187.423 156.3 187.563 156.647 187.563 157.06C187.563 157.473 187.423 157.82 187.143 158.1C186.863 158.38 186.523 158.52 186.123 158.52ZM187.243 159.98V171H184.963V159.98H187.243ZM192.896 161.84V167.94C192.896 168.353 192.99 168.653 193.176 168.84C193.376 169.013 193.71 169.1 194.176 169.1H195.576V171H193.776C192.75 171 191.963 170.76 191.416 170.28C190.87 169.8 190.596 169.02 190.596 167.94V161.84H189.296V159.98H190.596V157.24H192.896V159.98H195.576V161.84H192.896ZM207.598 159.98L200.838 176.18H198.478L200.718 170.82L196.378 159.98H198.918L202.018 168.38L205.238 159.98H207.598Z" fill="#620C0D"/>
<path d="M78.6151 227.939V228.901H76.1451V237H74.9621V228.901H72.4791V227.939H78.6151ZM83.6333 237.117C82.966 237.117 82.3593 236.965 81.8133 236.662C81.276 236.359 80.8513 235.93 80.5393 235.375C80.236 234.812 80.0843 234.162 80.0843 233.425C80.0843 232.697 80.2403 232.056 80.5523 231.501C80.873 230.938 81.3063 230.509 81.8523 230.214C82.3983 229.911 83.0093 229.759 83.6853 229.759C84.3613 229.759 84.9723 229.911 85.5183 230.214C86.0643 230.509 86.4933 230.933 86.8053 231.488C87.126 232.043 87.2863 232.688 87.2863 233.425C87.2863 234.162 87.1216 234.812 86.7923 235.375C86.4716 235.93 86.034 236.359 85.4793 236.662C84.9246 236.965 84.3093 237.117 83.6333 237.117ZM83.6333 236.077C84.058 236.077 84.4566 235.977 84.8293 235.778C85.202 235.579 85.501 235.28 85.7263 234.881C85.9603 234.482 86.0773 233.997 86.0773 233.425C86.0773 232.853 85.9646 232.368 85.7393 231.969C85.514 231.57 85.2193 231.276 84.8553 231.085C84.4913 230.886 84.097 230.786 83.6723 230.786C83.239 230.786 82.8403 230.886 82.4763 231.085C82.121 231.276 81.835 231.57 81.6183 231.969C81.4016 232.368 81.2933 232.853 81.2933 233.425C81.2933 234.006 81.3973 234.495 81.6053 234.894C81.822 235.293 82.108 235.592 82.4633 235.791C82.8186 235.982 83.2086 236.077 83.6333 236.077ZM92.7756 233.412C92.7756 232.684 92.9229 232.047 93.2176 231.501C93.5122 230.946 93.9152 230.517 94.4266 230.214C94.9466 229.911 95.5272 229.759 96.1686 229.759C96.7232 229.759 97.2389 229.889 97.7156 230.149C98.1922 230.4 98.5562 230.734 98.8076 231.15V227.38H100.004V237H98.8076V235.661C98.5736 236.086 98.2269 236.437 97.7676 236.714C97.3082 236.983 96.7709 237.117 96.1556 237.117C95.5229 237.117 94.9466 236.961 94.4266 236.649C93.9152 236.337 93.5122 235.899 93.2176 235.336C92.9229 234.773 92.7756 234.131 92.7756 233.412ZM98.8076 233.425C98.8076 232.888 98.6992 232.42 98.4826 232.021C98.2659 231.622 97.9712 231.319 97.5986 231.111C97.2346 230.894 96.8316 230.786 96.3896 230.786C95.9476 230.786 95.5446 230.89 95.1806 231.098C94.8166 231.306 94.5262 231.609 94.3096 232.008C94.0929 232.407 93.9846 232.875 93.9846 233.412C93.9846 233.958 94.0929 234.435 94.3096 234.842C94.5262 235.241 94.8166 235.548 95.1806 235.765C95.5446 235.973 95.9476 236.077 96.3896 236.077C96.8316 236.077 97.2346 235.973 97.5986 235.765C97.9712 235.548 98.2659 235.241 98.4826 234.842C98.6992 234.435 98.8076 233.962 98.8076 233.425ZM103.641 231.033C103.849 230.626 104.143 230.309 104.525 230.084C104.915 229.859 105.387 229.746 105.942 229.746V230.968H105.63C104.304 230.968 103.641 231.687 103.641 233.126V237H102.458V229.876H103.641V231.033ZM108.373 228.719C108.148 228.719 107.957 228.641 107.801 228.485C107.645 228.329 107.567 228.138 107.567 227.913C107.567 227.688 107.645 227.497 107.801 227.341C107.957 227.185 108.148 227.107 108.373 227.107C108.59 227.107 108.772 227.185 108.919 227.341C109.075 227.497 109.153 227.688 109.153 227.913C109.153 228.138 109.075 228.329 108.919 228.485C108.772 228.641 108.59 228.719 108.373 228.719ZM108.945 229.876V237H107.762V229.876H108.945ZM114.069 235.908L116.279 229.876H117.54L114.745 237H113.367L110.572 229.876H111.846L114.069 235.908ZM125.659 233.165C125.659 233.39 125.646 233.629 125.62 233.88H119.926C119.969 234.582 120.207 235.132 120.641 235.531C121.083 235.921 121.616 236.116 122.24 236.116C122.751 236.116 123.176 235.999 123.514 235.765C123.86 235.522 124.103 235.202 124.242 234.803H125.516C125.325 235.488 124.944 236.047 124.372 236.48C123.8 236.905 123.089 237.117 122.24 237.117C121.564 237.117 120.957 236.965 120.42 236.662C119.891 236.359 119.475 235.93 119.172 235.375C118.868 234.812 118.717 234.162 118.717 233.425C118.717 232.688 118.864 232.043 119.159 231.488C119.453 230.933 119.865 230.509 120.394 230.214C120.931 229.911 121.546 229.759 122.24 229.759C122.916 229.759 123.514 229.906 124.034 230.201C124.554 230.496 124.952 230.903 125.23 231.423C125.516 231.934 125.659 232.515 125.659 233.165ZM124.437 232.918C124.437 232.467 124.337 232.082 124.138 231.761C123.938 231.432 123.665 231.185 123.319 231.02C122.981 230.847 122.604 230.76 122.188 230.76C121.59 230.76 121.078 230.951 120.654 231.332C120.238 231.713 119.999 232.242 119.939 232.918H124.437ZM133.039 230.851V235.05C133.039 235.397 133.113 235.644 133.26 235.791C133.407 235.93 133.663 235.999 134.027 235.999H134.898V237H133.832C133.173 237 132.679 236.848 132.35 236.545C132.021 236.242 131.856 235.743 131.856 235.05V230.851H130.933V229.876H131.856V228.082H133.039V229.876H134.898V230.851H133.039ZM140.322 229.746C140.86 229.746 141.345 229.863 141.778 230.097C142.212 230.322 142.55 230.665 142.792 231.124C143.044 231.583 143.169 232.142 143.169 232.801V237H141.999V232.97C141.999 232.259 141.822 231.718 141.466 231.345C141.111 230.964 140.626 230.773 140.01 230.773C139.386 230.773 138.888 230.968 138.515 231.358C138.151 231.748 137.969 232.316 137.969 233.061V237H136.786V227.38H137.969V230.89C138.203 230.526 138.524 230.244 138.931 230.045C139.347 229.846 139.811 229.746 140.322 229.746ZM152.057 233.165C152.057 233.39 152.044 233.629 152.018 233.88H146.324C146.367 234.582 146.605 235.132 147.039 235.531C147.481 235.921 148.014 236.116 148.638 236.116C149.149 236.116 149.574 235.999 149.912 235.765C150.258 235.522 150.501 235.202 150.64 234.803H151.914C151.723 235.488 151.342 236.047 150.77 236.48C150.198 236.905 149.487 237.117 148.638 237.117C147.962 237.117 147.355 236.965 146.818 236.662C146.289 236.359 145.873 235.93 145.57 235.375C145.266 234.812 145.115 234.162 145.115 233.425C145.115 232.688 145.262 232.043 145.557 231.488C145.851 230.933 146.263 230.509 146.792 230.214C147.329 229.911 147.944 229.759 148.638 229.759C149.314 229.759 149.912 229.906 150.432 230.201C150.952 230.496 151.35 230.903 151.628 231.423C151.914 231.934 152.057 232.515 152.057 233.165ZM150.835 232.918C150.835 232.467 150.735 232.082 150.536 231.761C150.336 231.432 150.063 231.185 149.717 231.02C149.379 230.847 149.002 230.76 148.586 230.76C147.988 230.76 147.476 230.951 147.052 231.332C146.636 231.713 146.397 232.242 146.337 232.918H150.835ZM157.552 233.425C157.552 232.688 157.699 232.047 157.994 231.501C158.289 230.946 158.696 230.517 159.216 230.214C159.745 229.911 160.347 229.759 161.023 229.759C161.898 229.759 162.618 229.971 163.181 230.396C163.753 230.821 164.13 231.41 164.312 232.164H163.038C162.917 231.731 162.678 231.388 162.323 231.137C161.976 230.886 161.543 230.76 161.023 230.76C160.347 230.76 159.801 230.994 159.385 231.462C158.969 231.921 158.761 232.576 158.761 233.425C158.761 234.283 158.969 234.946 159.385 235.414C159.801 235.882 160.347 236.116 161.023 236.116C161.543 236.116 161.976 235.995 162.323 235.752C162.67 235.509 162.908 235.163 163.038 234.712H164.312C164.121 235.44 163.74 236.025 163.168 236.467C162.596 236.9 161.881 237.117 161.023 237.117C160.347 237.117 159.745 236.965 159.216 236.662C158.696 236.359 158.289 235.93 157.994 235.375C157.699 234.82 157.552 234.17 157.552 233.425ZM167.529 231.033C167.737 230.626 168.031 230.309 168.413 230.084C168.803 229.859 169.275 229.746 169.83 229.746V230.968H169.518C168.192 230.968 167.529 231.687 167.529 233.126V237H166.346V229.876H167.529V231.033ZM178.15 233.165C178.15 233.39 178.137 233.629 178.111 233.88H172.417C172.461 234.582 172.699 235.132 173.132 235.531C173.574 235.921 174.107 236.116 174.731 236.116C175.243 236.116 175.667 235.999 176.005 235.765C176.352 235.522 176.595 235.202 176.733 234.803H178.007C177.817 235.488 177.435 236.047 176.863 236.48C176.291 236.905 175.581 237.117 174.731 237.117C174.055 237.117 173.449 236.965 172.911 236.662C172.383 236.359 171.967 235.93 171.663 235.375C171.36 234.812 171.208 234.162 171.208 233.425C171.208 232.688 171.356 232.043 171.65 231.488C171.945 230.933 172.357 230.509 172.885 230.214C173.423 229.911 174.038 229.759 174.731 229.759C175.407 229.759 176.005 229.906 176.525 230.201C177.045 230.496 177.444 230.903 177.721 231.423C178.007 231.934 178.15 232.515 178.15 233.165ZM176.928 232.918C176.928 232.467 176.829 232.082 176.629 231.761C176.43 231.432 176.157 231.185 175.81 231.02C175.472 230.847 175.095 230.76 174.679 230.76C174.081 230.76 173.57 230.951 173.145 231.332C172.729 231.713 172.491 232.242 172.43 232.918H176.928ZM179.725 233.412C179.725 232.684 179.872 232.047 180.167 231.501C180.461 230.946 180.864 230.517 181.376 230.214C181.896 229.911 182.472 229.759 183.105 229.759C183.729 229.759 184.27 229.893 184.73 230.162C185.189 230.431 185.531 230.769 185.757 231.176V229.876H186.953V237H185.757V235.674C185.523 236.09 185.172 236.437 184.704 236.714C184.244 236.983 183.707 237.117 183.092 237.117C182.459 237.117 181.887 236.961 181.376 236.649C180.864 236.337 180.461 235.899 180.167 235.336C179.872 234.773 179.725 234.131 179.725 233.412ZM185.757 233.425C185.757 232.888 185.648 232.42 185.432 232.021C185.215 231.622 184.92 231.319 184.548 231.111C184.184 230.894 183.781 230.786 183.339 230.786C182.897 230.786 182.494 230.89 182.13 231.098C181.766 231.306 181.475 231.609 181.259 232.008C181.042 232.407 180.934 232.875 180.934 233.412C180.934 233.958 181.042 234.435 181.259 234.842C181.475 235.241 181.766 235.548 182.13 235.765C182.494 235.973 182.897 236.077 183.339 236.077C183.781 236.077 184.184 235.973 184.548 235.765C184.92 235.548 185.215 235.241 185.432 234.842C185.648 234.435 185.757 233.962 185.757 233.425ZM190.85 230.851V235.05C190.85 235.397 190.924 235.644 191.071 235.791C191.218 235.93 191.474 235.999 191.838 235.999H192.709V237H191.643C190.984 237 190.49 236.848 190.161 236.545C189.832 236.242 189.667 235.743 189.667 235.05V230.851H188.744V229.876H189.667V228.082H190.85V229.876H192.709V230.851H190.85ZM195.208 228.719C194.983 228.719 194.792 228.641 194.636 228.485C194.48 228.329 194.402 228.138 194.402 227.913C194.402 227.688 194.48 227.497 194.636 227.341C194.792 227.185 194.983 227.107 195.208 227.107C195.425 227.107 195.607 227.185 195.754 227.341C195.91 227.497 195.988 227.688 195.988 227.913C195.988 228.138 195.91 228.329 195.754 228.485C195.607 228.641 195.425 228.719 195.208 228.719ZM195.78 229.876V237H194.597V229.876H195.78ZM201.358 237.117C200.691 237.117 200.084 236.965 199.538 236.662C199.001 236.359 198.576 235.93 198.264 235.375C197.961 234.812 197.809 234.162 197.809 233.425C197.809 232.697 197.965 232.056 198.277 231.501C198.598 230.938 199.031 230.509 199.577 230.214C200.123 229.911 200.734 229.759 201.41 229.759C202.086 229.759 202.697 229.911 203.243 230.214C203.789 230.509 204.218 230.933 204.53 231.488C204.851 232.043 205.011 232.688 205.011 233.425C205.011 234.162 204.847 234.812 204.517 235.375C204.197 235.93 203.759 236.359 203.204 236.662C202.65 236.965 202.034 237.117 201.358 237.117ZM201.358 236.077C201.783 236.077 202.182 235.977 202.554 235.778C202.927 235.579 203.226 235.28 203.451 234.881C203.685 234.482 203.802 233.997 203.802 233.425C203.802 232.853 203.69 232.368 203.464 231.969C203.239 231.57 202.944 231.276 202.58 231.085C202.216 230.886 201.822 230.786 201.397 230.786C200.964 230.786 200.565 230.886 200.201 231.085C199.846 231.276 199.56 231.57 199.343 231.969C199.127 232.368 199.018 232.853 199.018 233.425C199.018 234.006 199.122 234.495 199.33 234.894C199.547 235.293 199.833 235.592 200.188 235.791C200.544 235.982 200.934 236.077 201.358 236.077ZM210.493 229.746C211.36 229.746 212.062 230.01 212.599 230.539C213.136 231.059 213.405 231.813 213.405 232.801V237H212.235V232.97C212.235 232.259 212.057 231.718 211.702 231.345C211.347 230.964 210.861 230.773 210.246 230.773C209.622 230.773 209.124 230.968 208.751 231.358C208.387 231.748 208.205 232.316 208.205 233.061V237H207.022V229.876H208.205V230.89C208.439 230.526 208.755 230.244 209.154 230.045C209.561 229.846 210.008 229.746 210.493 229.746ZM219.271 233.412C219.271 232.684 219.418 232.047 219.713 231.501C220.008 230.946 220.411 230.517 220.922 230.214C221.442 229.911 222.018 229.759 222.651 229.759C223.275 229.759 223.817 229.893 224.276 230.162C224.735 230.431 225.078 230.769 225.303 231.176V229.876H226.499V237H225.303V235.674C225.069 236.09 224.718 236.437 224.25 236.714C223.791 236.983 223.253 237.117 222.638 237.117C222.005 237.117 221.433 236.961 220.922 236.649C220.411 236.337 220.008 235.899 219.713 235.336C219.418 234.773 219.271 234.131 219.271 233.412ZM225.303 233.425C225.303 232.888 225.195 232.42 224.978 232.021C224.761 231.622 224.467 231.319 224.094 231.111C223.73 230.894 223.327 230.786 222.885 230.786C222.443 230.786 222.04 230.89 221.676 231.098C221.312 231.306 221.022 231.609 220.805 232.008C220.588 232.407 220.48 232.875 220.48 233.412C220.48 233.958 220.588 234.435 220.805 234.842C221.022 235.241 221.312 235.548 221.676 235.765C222.04 235.973 222.443 236.077 222.885 236.077C223.327 236.077 223.73 235.973 224.094 235.765C224.467 235.548 224.761 235.241 224.978 234.842C225.195 234.435 225.303 233.962 225.303 233.425ZM232.424 229.746C233.291 229.746 233.993 230.01 234.53 230.539C235.068 231.059 235.336 231.813 235.336 232.801V237H234.166V232.97C234.166 232.259 233.989 231.718 233.633 231.345C233.278 230.964 232.793 230.773 232.177 230.773C231.553 230.773 231.055 230.968 230.682 231.358C230.318 231.748 230.136 232.316 230.136 233.061V237H228.953V229.876H230.136V230.89C230.37 230.526 230.687 230.244 231.085 230.045C231.493 229.846 231.939 229.746 232.424 229.746ZM237.282 233.412C237.282 232.684 237.429 232.047 237.724 231.501C238.018 230.946 238.421 230.517 238.933 230.214C239.453 229.911 240.033 229.759 240.675 229.759C241.229 229.759 241.745 229.889 242.222 230.149C242.698 230.4 243.062 230.734 243.314 231.15V227.38H244.51V237H243.314V235.661C243.08 236.086 242.733 236.437 242.274 236.714C241.814 236.983 241.277 237.117 240.662 237.117C240.029 237.117 239.453 236.961 238.933 236.649C238.421 236.337 238.018 235.899 237.724 235.336C237.429 234.773 237.282 234.131 237.282 233.412ZM243.314 233.425C243.314 232.888 243.205 232.42 242.989 232.021C242.772 231.622 242.477 231.319 242.105 231.111C241.741 230.894 241.338 230.786 240.896 230.786C240.454 230.786 240.051 230.89 239.687 231.098C239.323 231.306 239.032 231.609 238.816 232.008C238.599 232.407 238.491 232.875 238.491 233.412C238.491 233.958 238.599 234.435 238.816 234.842C239.032 235.241 239.323 235.548 239.687 235.765C240.051 235.973 240.454 236.077 240.896 236.077C241.338 236.077 241.741 235.973 242.105 235.765C242.477 235.548 242.772 235.241 242.989 234.842C243.205 234.435 243.314 233.962 243.314 233.425ZM59.7959 261.412C59.7959 260.684 59.9433 260.047 60.2379 259.501C60.5326 258.946 60.9356 258.517 61.4469 258.214C61.9669 257.911 62.5433 257.759 63.1759 257.759C63.7999 257.759 64.3416 257.893 64.8009 258.162C65.2603 258.431 65.6026 258.769 65.8279 259.176V257.876H67.0239V265H65.8279V263.674C65.5939 264.09 65.2429 264.437 64.7749 264.714C64.3156 264.983 63.7783 265.117 63.1629 265.117C62.5303 265.117 61.9583 264.961 61.4469 264.649C60.9356 264.337 60.5326 263.899 60.2379 263.336C59.9433 262.773 59.7959 262.131 59.7959 261.412ZM65.8279 261.425C65.8279 260.888 65.7196 260.42 65.5029 260.021C65.2863 259.622 64.9916 259.319 64.6189 259.111C64.2549 258.894 63.8519 258.786 63.4099 258.786C62.9679 258.786 62.5649 258.89 62.2009 259.098C61.8369 259.306 61.5466 259.609 61.3299 260.008C61.1133 260.407 61.0049 260.875 61.0049 261.412C61.0049 261.958 61.1133 262.435 61.3299 262.842C61.5466 263.241 61.8369 263.548 62.2009 263.765C62.5649 263.973 62.9679 264.077 63.4099 264.077C63.8519 264.077 64.2549 263.973 64.6189 263.765C64.9916 263.548 65.2863 263.241 65.5029 262.842C65.7196 262.435 65.8279 261.962 65.8279 261.425ZM69.0361 261.412C69.0361 260.684 69.1834 260.047 69.4781 259.501C69.7728 258.946 70.1758 258.517 70.6871 258.214C71.2071 257.911 71.7878 257.759 72.4291 257.759C72.9838 257.759 73.4994 257.889 73.9761 258.149C74.4528 258.4 74.8168 258.734 75.0681 259.15V255.38H76.2641V265H75.0681V263.661C74.8341 264.086 74.4874 264.437 74.0281 264.714C73.5688 264.983 73.0314 265.117 72.4161 265.117C71.7834 265.117 71.2071 264.961 70.6871 264.649C70.1758 264.337 69.7728 263.899 69.4781 263.336C69.1834 262.773 69.0361 262.131 69.0361 261.412ZM75.0681 261.425C75.0681 260.888 74.9598 260.42 74.7431 260.021C74.5264 259.622 74.2318 259.319 73.8591 259.111C73.4951 258.894 73.0921 258.786 72.6501 258.786C72.2081 258.786 71.8051 258.89 71.4411 259.098C71.0771 259.306 70.7868 259.609 70.5701 260.008C70.3534 260.407 70.2451 260.875 70.2451 261.412C70.2451 261.958 70.3534 262.435 70.5701 262.842C70.7868 263.241 71.0771 263.548 71.4411 263.765C71.8051 263.973 72.2081 264.077 72.6501 264.077C73.0921 264.077 73.4951 263.973 73.8591 263.765C74.2318 263.548 74.5264 263.241 74.7431 262.842C74.9598 262.435 75.0681 261.962 75.0681 261.425ZM81.8252 265.117C81.1579 265.117 80.5512 264.965 80.0052 264.662C79.4679 264.359 79.0432 263.93 78.7312 263.375C78.4279 262.812 78.2762 262.162 78.2762 261.425C78.2762 260.697 78.4322 260.056 78.7442 259.501C79.0649 258.938 79.4982 258.509 80.0442 258.214C80.5902 257.911 81.2012 257.759 81.8772 257.759C82.5532 257.759 83.1642 257.911 83.7102 258.214C84.2562 258.509 84.6852 258.933 84.9972 259.488C85.3179 260.043 85.4782 260.688 85.4782 261.425C85.4782 262.162 85.3136 262.812 84.9842 263.375C84.6636 263.93 84.2259 264.359 83.6712 264.662C83.1166 264.965 82.5012 265.117 81.8252 265.117ZM81.8252 264.077C82.2499 264.077 82.6486 263.977 83.0212 263.778C83.3939 263.579 83.6929 263.28 83.9182 262.881C84.1522 262.482 84.2692 261.997 84.2692 261.425C84.2692 260.853 84.1566 260.368 83.9312 259.969C83.7059 259.57 83.4112 259.276 83.0472 259.085C82.6832 258.886 82.2889 258.786 81.8642 258.786C81.4309 258.786 81.0322 258.886 80.6682 259.085C80.3129 259.276 80.0269 259.57 79.8102 259.969C79.5936 260.368 79.4852 260.853 79.4852 261.425C79.4852 262.006 79.5892 262.495 79.7972 262.894C80.0139 263.293 80.2999 263.592 80.6552 263.791C81.0106 263.982 81.4006 264.077 81.8252 264.077ZM88.6717 259.189C88.9057 258.782 89.2523 258.444 89.7117 258.175C90.1797 257.898 90.7213 257.759 91.3367 257.759C91.9693 257.759 92.5413 257.911 93.0527 258.214C93.5727 258.517 93.98 258.946 94.2747 259.501C94.5693 260.047 94.7167 260.684 94.7167 261.412C94.7167 262.131 94.5693 262.773 94.2747 263.336C93.98 263.899 93.5727 264.337 93.0527 264.649C92.5413 264.961 91.9693 265.117 91.3367 265.117C90.73 265.117 90.1927 264.983 89.7247 264.714C89.2653 264.437 88.9143 264.094 88.6717 263.687V268.38H87.4887V257.876H88.6717V259.189ZM93.5077 261.412C93.5077 260.875 93.3993 260.407 93.1827 260.008C92.966 259.609 92.6713 259.306 92.2987 259.098C91.9347 258.89 91.5317 258.786 91.0897 258.786C90.6563 258.786 90.2533 258.894 89.8807 259.111C89.5167 259.319 89.222 259.627 88.9967 260.034C88.78 260.433 88.6717 260.896 88.6717 261.425C88.6717 261.962 88.78 262.435 88.9967 262.842C89.222 263.241 89.5167 263.548 89.8807 263.765C90.2533 263.973 90.6563 264.077 91.0897 264.077C91.5317 264.077 91.9347 263.973 92.2987 263.765C92.6713 263.548 92.966 263.241 93.1827 262.842C93.3993 262.435 93.5077 261.958 93.5077 261.412ZM98.1718 258.851V263.05C98.1718 263.397 98.2455 263.644 98.3928 263.791C98.5402 263.93 98.7958 263.999 99.1598 263.999H100.031V265H98.9648C98.3062 265 97.8122 264.848 97.4828 264.545C97.1535 264.242 96.9888 263.743 96.9888 263.05V258.851H96.0658V257.876H96.9888V256.082H98.1718V257.876H100.031V258.851H98.1718ZM102.53 256.719C102.305 256.719 102.114 256.641 101.958 256.485C101.802 256.329 101.724 256.138 101.724 255.913C101.724 255.688 101.802 255.497 101.958 255.341C102.114 255.185 102.305 255.107 102.53 255.107C102.747 255.107 102.929 255.185 103.076 255.341C103.232 255.497 103.31 255.688 103.31 255.913C103.31 256.138 103.232 256.329 103.076 256.485C102.929 256.641 102.747 256.719 102.53 256.719ZM103.102 257.876V265H101.919V257.876H103.102ZM108.68 265.117C108.013 265.117 107.406 264.965 106.86 264.662C106.323 264.359 105.898 263.93 105.586 263.375C105.283 262.812 105.131 262.162 105.131 261.425C105.131 260.697 105.287 260.056 105.599 259.501C105.92 258.938 106.353 258.509 106.899 258.214C107.445 257.911 108.056 257.759 108.732 257.759C109.408 257.759 110.019 257.911 110.565 258.214C111.111 258.509 111.54 258.933 111.852 259.488C112.173 260.043 112.333 260.688 112.333 261.425C112.333 262.162 112.169 262.812 111.839 263.375C111.519 263.93 111.081 264.359 110.526 264.662C109.972 264.965 109.356 265.117 108.68 265.117ZM108.68 264.077C109.105 264.077 109.504 263.977 109.876 263.778C110.249 263.579 110.548 263.28 110.773 262.881C111.007 262.482 111.124 261.997 111.124 261.425C111.124 260.853 111.012 260.368 110.786 259.969C110.561 259.57 110.266 259.276 109.902 259.085C109.538 258.886 109.144 258.786 108.719 258.786C108.286 258.786 107.887 258.886 107.523 259.085C107.168 259.276 106.882 259.57 106.665 259.969C106.449 260.368 106.34 260.853 106.34 261.425C106.34 262.006 106.444 262.495 106.652 262.894C106.869 263.293 107.155 263.592 107.51 263.791C107.866 263.982 108.256 264.077 108.68 264.077ZM117.815 257.746C118.682 257.746 119.384 258.01 119.921 258.539C120.458 259.059 120.727 259.813 120.727 260.801V265H119.557V260.97C119.557 260.259 119.379 259.718 119.024 259.345C118.669 258.964 118.183 258.773 117.568 258.773C116.944 258.773 116.446 258.968 116.073 259.358C115.709 259.748 115.527 260.316 115.527 261.061V265H114.344V257.876H115.527V258.89C115.761 258.526 116.077 258.244 116.476 258.045C116.883 257.846 117.33 257.746 117.815 257.746ZM130.142 265.117C129.475 265.117 128.868 264.965 128.322 264.662C127.785 264.359 127.36 263.93 127.048 263.375C126.745 262.812 126.593 262.162 126.593 261.425C126.593 260.697 126.749 260.056 127.061 259.501C127.382 258.938 127.815 258.509 128.361 258.214C128.907 257.911 129.518 257.759 130.194 257.759C130.87 257.759 131.481 257.911 132.027 258.214C132.573 258.509 133.002 258.933 133.314 259.488C133.635 260.043 133.795 260.688 133.795 261.425C133.795 262.162 133.63 262.812 133.301 263.375C132.98 263.93 132.543 264.359 131.988 264.662C131.433 264.965 130.818 265.117 130.142 265.117ZM130.142 264.077C130.567 264.077 130.965 263.977 131.338 263.778C131.711 263.579 132.01 263.28 132.235 262.881C132.469 262.482 132.586 261.997 132.586 261.425C132.586 260.853 132.473 260.368 132.248 259.969C132.023 259.57 131.728 259.276 131.364 259.085C131 258.886 130.606 258.786 130.181 258.786C129.748 258.786 129.349 258.886 128.985 259.085C128.63 259.276 128.344 259.57 128.127 259.969C127.91 260.368 127.802 260.853 127.802 261.425C127.802 262.006 127.906 262.495 128.114 262.894C128.331 263.293 128.617 263.592 128.972 263.791C129.327 263.982 129.717 264.077 130.142 264.077ZM138.705 258.851H137.21V265H136.027V258.851H135.104V257.876H136.027V257.369C136.027 256.572 136.23 255.991 136.638 255.627C137.054 255.254 137.717 255.068 138.627 255.068V256.056C138.107 256.056 137.738 256.16 137.522 256.368C137.314 256.567 137.21 256.901 137.21 257.369V257.876H138.705V258.851ZM149.816 262.985H145.864L145.136 265H143.888L147.164 255.991H148.529L151.792 265H150.544L149.816 262.985ZM149.478 262.023L147.84 257.447L146.202 262.023H149.478ZM156.573 258.851H155.078V265H153.895V258.851H152.972V257.876H153.895V257.369C153.895 256.572 154.099 255.991 154.506 255.627C154.922 255.254 155.585 255.068 156.495 255.068V256.056C155.975 256.056 155.607 256.16 155.39 256.368C155.182 256.567 155.078 256.901 155.078 257.369V257.876H156.573V258.851ZM159.591 259.033C159.799 258.626 160.093 258.309 160.475 258.084C160.865 257.859 161.337 257.746 161.892 257.746V258.968H161.58C160.254 258.968 159.591 259.687 159.591 261.126V265H158.408V257.876H159.591V259.033ZM164.323 256.719C164.098 256.719 163.907 256.641 163.751 256.485C163.595 256.329 163.517 256.138 163.517 255.913C163.517 255.688 163.595 255.497 163.751 255.341C163.907 255.185 164.098 255.107 164.323 255.107C164.54 255.107 164.722 255.185 164.869 255.341C165.025 255.497 165.103 255.688 165.103 255.913C165.103 256.138 165.025 256.329 164.869 256.485C164.722 256.641 164.54 256.719 164.323 256.719ZM164.895 257.876V265H163.712V257.876H164.895ZM166.925 261.425C166.925 260.688 167.072 260.047 167.367 259.501C167.661 258.946 168.069 258.517 168.589 258.214C169.117 257.911 169.72 257.759 170.396 257.759C171.271 257.759 171.99 257.971 172.554 258.396C173.126 258.821 173.503 259.41 173.685 260.164H172.411C172.289 259.731 172.051 259.388 171.696 259.137C171.349 258.886 170.916 258.76 170.396 258.76C169.72 258.76 169.174 258.994 168.758 259.462C168.342 259.921 168.134 260.576 168.134 261.425C168.134 262.283 168.342 262.946 168.758 263.414C169.174 263.882 169.72 264.116 170.396 264.116C170.916 264.116 171.349 263.995 171.696 263.752C172.042 263.509 172.281 263.163 172.411 262.712H173.685C173.494 263.44 173.113 264.025 172.541 264.467C171.969 264.9 171.254 265.117 170.396 265.117C169.72 265.117 169.117 264.965 168.589 264.662C168.069 264.359 167.661 263.93 167.367 263.375C167.072 262.82 166.925 262.17 166.925 261.425ZM175.276 261.412C175.276 260.684 175.423 260.047 175.718 259.501C176.013 258.946 176.416 258.517 176.927 258.214C177.447 257.911 178.023 257.759 178.656 257.759C179.28 257.759 179.822 257.893 180.281 258.162C180.74 258.431 181.083 258.769 181.308 259.176V257.876H182.504V265H181.308V263.674C181.074 264.09 180.723 264.437 180.255 264.714C179.796 264.983 179.258 265.117 178.643 265.117C178.01 265.117 177.438 264.961 176.927 264.649C176.416 264.337 176.013 263.899 175.718 263.336C175.423 262.773 175.276 262.131 175.276 261.412ZM181.308 261.425C181.308 260.888 181.2 260.42 180.983 260.021C180.766 259.622 180.472 259.319 180.099 259.111C179.735 258.894 179.332 258.786 178.89 258.786C178.448 258.786 178.045 258.89 177.681 259.098C177.317 259.306 177.027 259.609 176.81 260.008C176.593 260.407 176.485 260.875 176.485 261.412C176.485 261.958 176.593 262.435 176.81 262.842C177.027 263.241 177.317 263.548 177.681 263.765C178.045 263.973 178.448 264.077 178.89 264.077C179.332 264.077 179.735 263.973 180.099 263.765C180.472 263.548 180.766 263.241 180.983 262.842C181.2 262.435 181.308 261.962 181.308 261.425ZM188.429 257.746C189.296 257.746 189.998 258.01 190.535 258.539C191.073 259.059 191.341 259.813 191.341 260.801V265H190.171V260.97C190.171 260.259 189.994 259.718 189.638 259.345C189.283 258.964 188.798 258.773 188.182 258.773C187.558 258.773 187.06 258.968 186.687 259.358C186.323 259.748 186.141 260.316 186.141 261.061V265H184.958V257.876H186.141V258.89C186.375 258.526 186.692 258.244 187.09 258.045C187.498 257.846 187.944 257.746 188.429 257.746ZM198.832 259.189C199.066 258.782 199.413 258.444 199.872 258.175C200.34 257.898 200.882 257.759 201.497 257.759C202.13 257.759 202.702 257.911 203.213 258.214C203.733 258.517 204.141 258.946 204.435 259.501C204.73 260.047 204.877 260.684 204.877 261.412C204.877 262.131 204.73 262.773 204.435 263.336C204.141 263.899 203.733 264.337 203.213 264.649C202.702 264.961 202.13 265.117 201.497 265.117C200.891 265.117 200.353 264.983 199.885 264.714C199.426 264.437 199.075 264.094 198.832 263.687V268.38H197.649V257.876H198.832V259.189ZM203.668 261.412C203.668 260.875 203.56 260.407 203.343 260.008C203.127 259.609 202.832 259.306 202.459 259.098C202.095 258.89 201.692 258.786 201.25 258.786C200.817 258.786 200.414 258.894 200.041 259.111C199.677 259.319 199.383 259.627 199.157 260.034C198.941 260.433 198.832 260.896 198.832 261.425C198.832 261.962 198.941 262.435 199.157 262.842C199.383 263.241 199.677 263.548 200.041 263.765C200.414 263.973 200.817 264.077 201.25 264.077C201.692 264.077 202.095 263.973 202.459 263.765C202.832 263.548 203.127 263.241 203.343 262.842C203.56 262.435 203.668 261.958 203.668 261.412ZM208.073 259.033C208.281 258.626 208.575 258.309 208.957 258.084C209.347 257.859 209.819 257.746 210.374 257.746V258.968H210.062C208.736 258.968 208.073 259.687 208.073 261.126V265H206.89V257.876H208.073V259.033ZM215.301 265.117C214.634 265.117 214.027 264.965 213.481 264.662C212.944 264.359 212.519 263.93 212.207 263.375C211.904 262.812 211.752 262.162 211.752 261.425C211.752 260.697 211.908 260.056 212.22 259.501C212.541 258.938 212.974 258.509 213.52 258.214C214.066 257.911 214.677 257.759 215.353 257.759C216.029 257.759 216.64 257.911 217.186 258.214C217.732 258.509 218.161 258.933 218.473 259.488C218.794 260.043 218.954 260.688 218.954 261.425C218.954 262.162 218.79 262.812 218.46 263.375C218.14 263.93 217.702 264.359 217.147 264.662C216.593 264.965 215.977 265.117 215.301 265.117ZM215.301 264.077C215.726 264.077 216.125 263.977 216.497 263.778C216.87 263.579 217.169 263.28 217.394 262.881C217.628 262.482 217.745 261.997 217.745 261.425C217.745 260.853 217.633 260.368 217.407 259.969C217.182 259.57 216.887 259.276 216.523 259.085C216.159 258.886 215.765 258.786 215.34 258.786C214.907 258.786 214.508 258.886 214.144 259.085C213.789 259.276 213.503 259.57 213.286 259.969C213.07 260.368 212.961 260.853 212.961 261.425C212.961 262.006 213.065 262.495 213.273 262.894C213.49 263.293 213.776 263.592 214.131 263.791C214.487 263.982 214.877 264.077 215.301 264.077ZM220.523 261.412C220.523 260.684 220.67 260.047 220.965 259.501C221.259 258.946 221.662 258.517 222.174 258.214C222.694 257.911 223.274 257.759 223.916 257.759C224.47 257.759 224.986 257.889 225.463 258.149C225.939 258.4 226.303 258.734 226.555 259.15V255.38H227.751V265H226.555V263.661C226.321 264.086 225.974 264.437 225.515 264.714C225.055 264.983 224.518 265.117 223.903 265.117C223.27 265.117 222.694 264.961 222.174 264.649C221.662 264.337 221.259 263.899 220.965 263.336C220.67 262.773 220.523 262.131 220.523 261.412ZM226.555 261.425C226.555 260.888 226.446 260.42 226.23 260.021C226.013 259.622 225.718 259.319 225.346 259.111C224.982 258.894 224.579 258.786 224.137 258.786C223.695 258.786 223.292 258.89 222.928 259.098C222.564 259.306 222.273 259.609 222.057 260.008C221.84 260.407 221.732 260.875 221.732 261.412C221.732 261.958 221.84 262.435 222.057 262.842C222.273 263.241 222.564 263.548 222.928 263.765C223.292 263.973 223.695 264.077 224.137 264.077C224.579 264.077 224.982 263.973 225.346 263.765C225.718 263.548 226.013 263.241 226.23 262.842C226.446 262.435 226.555 261.962 226.555 261.425ZM236.523 257.876V265H235.34V263.947C235.114 264.311 234.798 264.597 234.391 264.805C233.992 265.004 233.55 265.104 233.065 265.104C232.51 265.104 232.012 264.991 231.57 264.766C231.128 264.532 230.777 264.185 230.517 263.726C230.265 263.267 230.14 262.708 230.14 262.049V257.876H231.31V261.893C231.31 262.595 231.487 263.137 231.843 263.518C232.198 263.891 232.683 264.077 233.299 264.077C233.931 264.077 234.43 263.882 234.794 263.492C235.158 263.102 235.34 262.534 235.34 261.789V257.876H236.523ZM238.533 261.425C238.533 260.688 238.681 260.047 238.975 259.501C239.27 258.946 239.677 258.517 240.197 258.214C240.726 257.911 241.328 257.759 242.004 257.759C242.88 257.759 243.599 257.971 244.162 258.396C244.734 258.821 245.111 259.41 245.293 260.164H244.019C243.898 259.731 243.66 259.388 243.304 259.137C242.958 258.886 242.524 258.76 242.004 258.76C241.328 258.76 240.782 258.994 240.366 259.462C239.95 259.921 239.742 260.576 239.742 261.425C239.742 262.283 239.95 262.946 240.366 263.414C240.782 263.882 241.328 264.116 242.004 264.116C242.524 264.116 242.958 263.995 243.304 263.752C243.651 263.509 243.889 263.163 244.019 262.712H245.293C245.103 263.44 244.721 264.025 244.149 264.467C243.577 264.9 242.862 265.117 242.004 265.117C241.328 265.117 240.726 264.965 240.197 264.662C239.677 264.359 239.27 263.93 238.975 263.375C238.681 262.82 238.533 262.17 238.533 261.425ZM248.77 258.851V263.05C248.77 263.397 248.843 263.644 248.991 263.791C249.138 263.93 249.394 263.999 249.758 263.999H250.629V265H249.563C248.904 265 248.41 264.848 248.081 264.545C247.751 264.242 247.587 263.743 247.587 263.05V258.851H246.664V257.876H247.587V256.082H248.77V257.876H250.629V258.851H248.77ZM255.039 265.117C254.493 265.117 254.003 265.026 253.57 264.844C253.137 264.653 252.794 264.393 252.543 264.064C252.292 263.726 252.153 263.34 252.127 262.907H253.349C253.384 263.262 253.548 263.553 253.843 263.778C254.146 264.003 254.541 264.116 255.026 264.116C255.477 264.116 255.832 264.016 256.092 263.817C256.352 263.618 256.482 263.366 256.482 263.063C256.482 262.751 256.343 262.521 256.066 262.374C255.789 262.218 255.36 262.066 254.779 261.919C254.25 261.78 253.817 261.642 253.479 261.503C253.15 261.356 252.864 261.143 252.621 260.866C252.387 260.58 252.27 260.207 252.27 259.748C252.27 259.384 252.378 259.05 252.595 258.747C252.812 258.444 253.119 258.205 253.518 258.032C253.917 257.85 254.372 257.759 254.883 257.759C255.672 257.759 256.309 257.958 256.794 258.357C257.279 258.756 257.539 259.302 257.574 259.995H256.391C256.365 259.622 256.213 259.323 255.936 259.098C255.667 258.873 255.303 258.76 254.844 258.76C254.419 258.76 254.081 258.851 253.83 259.033C253.579 259.215 253.453 259.453 253.453 259.748C253.453 259.982 253.527 260.177 253.674 260.333C253.83 260.48 254.021 260.602 254.246 260.697C254.48 260.784 254.801 260.883 255.208 260.996C255.719 261.135 256.135 261.273 256.456 261.412C256.777 261.542 257.05 261.741 257.275 262.01C257.509 262.279 257.63 262.63 257.639 263.063C257.639 263.453 257.531 263.804 257.314 264.116C257.097 264.428 256.79 264.675 256.391 264.857C256.001 265.03 255.55 265.117 255.039 265.117ZM125.11 285.876L122.887 293H121.665L119.949 287.345L118.233 293H117.011L114.775 285.876H115.984L117.622 291.856L119.39 285.876H120.599L122.328 291.869L123.94 285.876H125.11ZM127.35 284.719C127.124 284.719 126.934 284.641 126.778 284.485C126.622 284.329 126.544 284.138 126.544 283.913C126.544 283.688 126.622 283.497 126.778 283.341C126.934 283.185 127.124 283.107 127.35 283.107C127.566 283.107 127.748 283.185 127.896 283.341C128.052 283.497 128.13 283.688 128.13 283.913C128.13 284.138 128.052 284.329 127.896 284.485C127.748 284.641 127.566 284.719 127.35 284.719ZM127.922 285.876V293H126.739V285.876H127.922ZM131.836 286.851V291.05C131.836 291.397 131.91 291.644 132.057 291.791C132.204 291.93 132.46 291.999 132.824 291.999H133.695V293H132.629C131.97 293 131.476 292.848 131.147 292.545C130.818 292.242 130.653 291.743 130.653 291.05V286.851H129.73V285.876H130.653V284.082H131.836V285.876H133.695V286.851H131.836ZM139.119 285.746C139.657 285.746 140.142 285.863 140.575 286.097C141.009 286.322 141.347 286.665 141.589 287.124C141.841 287.583 141.966 288.142 141.966 288.801V293H140.796V288.97C140.796 288.259 140.619 287.718 140.263 287.345C139.908 286.964 139.423 286.773 138.807 286.773C138.183 286.773 137.685 286.968 137.312 287.358C136.948 287.748 136.766 288.316 136.766 289.061V293H135.583V283.38H136.766V286.89C137 286.526 137.321 286.244 137.728 286.045C138.144 285.846 138.608 285.746 139.119 285.746ZM144.965 284.719C144.739 284.719 144.549 284.641 144.393 284.485C144.237 284.329 144.159 284.138 144.159 283.913C144.159 283.688 144.237 283.497 144.393 283.341C144.549 283.185 144.739 283.107 144.965 283.107C145.181 283.107 145.363 283.185 145.511 283.341C145.667 283.497 145.745 283.688 145.745 283.913C145.745 284.138 145.667 284.329 145.511 284.485C145.363 284.641 145.181 284.719 144.965 284.719ZM145.537 285.876V293H144.354V285.876H145.537ZM151.479 285.746C152.346 285.746 153.048 286.01 153.585 286.539C154.122 287.059 154.391 287.813 154.391 288.801V293H153.221V288.97C153.221 288.259 153.043 287.718 152.688 287.345C152.333 286.964 151.847 286.773 151.232 286.773C150.608 286.773 150.11 286.968 149.737 287.358C149.373 287.748 149.191 288.316 149.191 289.061V293H148.008V285.876H149.191V286.89C149.425 286.526 149.741 286.244 150.14 286.045C150.547 285.846 150.994 285.746 151.479 285.746ZM166.055 290.985H162.103L161.375 293H160.127L163.403 283.991H164.768L168.031 293H166.783L166.055 290.985ZM165.717 290.023L164.079 285.447L162.441 290.023H165.717ZM172.813 286.851H171.318V293H170.135V286.851H169.212V285.876H170.135V285.369C170.135 284.572 170.339 283.991 170.746 283.627C171.162 283.254 171.825 283.068 172.735 283.068V284.056C172.215 284.056 171.847 284.16 171.63 284.368C171.422 284.567 171.318 284.901 171.318 285.369V285.876H172.813V286.851ZM175.83 287.033C176.038 286.626 176.333 286.309 176.714 286.084C177.104 285.859 177.577 285.746 178.131 285.746V286.968H177.819C176.493 286.968 175.83 287.687 175.83 289.126V293H174.647V285.876H175.83V287.033ZM180.563 284.719C180.338 284.719 180.147 284.641 179.991 284.485C179.835 284.329 179.757 284.138 179.757 283.913C179.757 283.688 179.835 283.497 179.991 283.341C180.147 283.185 180.338 283.107 180.563 283.107C180.78 283.107 180.962 283.185 181.109 283.341C181.265 283.497 181.343 283.688 181.343 283.913C181.343 284.138 181.265 284.329 181.109 284.485C180.962 284.641 180.78 284.719 180.563 284.719ZM181.135 285.876V293H179.952V285.876H181.135ZM183.164 289.425C183.164 288.688 183.311 288.047 183.606 287.501C183.901 286.946 184.308 286.517 184.828 286.214C185.357 285.911 185.959 285.759 186.635 285.759C187.51 285.759 188.23 285.971 188.793 286.396C189.365 286.821 189.742 287.41 189.924 288.164H188.65C188.529 287.731 188.29 287.388 187.935 287.137C187.588 286.886 187.155 286.76 186.635 286.76C185.959 286.76 185.413 286.994 184.997 287.462C184.581 287.921 184.373 288.576 184.373 289.425C184.373 290.283 184.581 290.946 184.997 291.414C185.413 291.882 185.959 292.116 186.635 292.116C187.155 292.116 187.588 291.995 187.935 291.752C188.282 291.509 188.52 291.163 188.65 290.712H189.924C189.733 291.44 189.352 292.025 188.78 292.467C188.208 292.9 187.493 293.117 186.635 293.117C185.959 293.117 185.357 292.965 184.828 292.662C184.308 292.359 183.901 291.93 183.606 291.375C183.311 290.82 183.164 290.17 183.164 289.425ZM191.516 289.412C191.516 288.684 191.663 288.047 191.958 287.501C192.252 286.946 192.655 286.517 193.167 286.214C193.687 285.911 194.263 285.759 194.896 285.759C195.52 285.759 196.061 285.893 196.521 286.162C196.98 286.431 197.322 286.769 197.548 287.176V285.876H198.744V293H197.548V291.674C197.314 292.09 196.963 292.437 196.495 292.714C196.035 292.983 195.498 293.117 194.883 293.117C194.25 293.117 193.678 292.961 193.167 292.649C192.655 292.337 192.252 291.899 191.958 291.336C191.663 290.773 191.516 290.131 191.516 289.412ZM197.548 289.425C197.548 288.888 197.439 288.42 197.223 288.021C197.006 287.622 196.711 287.319 196.339 287.111C195.975 286.894 195.572 286.786 195.13 286.786C194.688 286.786 194.285 286.89 193.921 287.098C193.557 287.306 193.266 287.609 193.05 288.008C192.833 288.407 192.725 288.875 192.725 289.412C192.725 289.958 192.833 290.435 193.05 290.842C193.266 291.241 193.557 291.548 193.921 291.765C194.285 291.973 194.688 292.077 195.13 292.077C195.572 292.077 195.975 291.973 196.339 291.765C196.711 291.548 197.006 291.241 197.223 290.842C197.439 290.435 197.548 289.962 197.548 289.425ZM201.575 293.078C201.349 293.078 201.159 293 201.003 292.844C200.847 292.688 200.769 292.497 200.769 292.272C200.769 292.047 200.847 291.856 201.003 291.7C201.159 291.544 201.349 291.466 201.575 291.466C201.791 291.466 201.973 291.544 202.121 291.7C202.277 291.856 202.355 292.047 202.355 292.272C202.355 292.497 202.277 292.688 202.121 292.844C201.973 293 201.791 293.078 201.575 293.078Z" fill="#352C2C"/>
<g filter="url(#filter1_d_208_313)">
<circle cx="159" cy="69" r="49" fill="white"/>
</g>
<defs>
<filter id="filter0_d_208_313" x="0" y="22.1758" width="318" height="415.824" filterUnits="userSpaceOnUse" color-interpolation-filters="sRGB">
<feFlood flood-opacity="0" result="BackgroundImageFix"/>
<feColorMatrix in="SourceAlpha" type="matrix" values="0 0 0 0 0 0 0 0 0 0 0 0 0 0 0 0 0 0 127 0" result="hardAlpha"/>
<feOffset/>
<feGaussianBlur stdDeviation="10"/>
<feComposite in2="hardAlpha" operator="out"/>
<feColorMatrix type="matrix" values="0 0 0 0 0 0 0 0 0 0 0 0 0 0 0 0 0 0 0.25 0"/>
<feBlend mode="normal" in2="BackgroundImageFix" result="effect1_dropShadow_208_313"/>
<feBlend mode="normal" in="SourceGraphic" in2="effect1_dropShadow_208_313" result="shape"/>
</filter>
<filter id="filter1_d_208_313" x="90" y="0" width="138" height="138" filterUnits="userSpaceOnUse" color-interpolation-filters="sRGB">
<feFlood flood-opacity="0" result="BackgroundImageFix"/>
<feColorMatrix in="SourceAlpha" type="matrix" values="0 0 0 0 0 0 0 0 0 0 0 0 0 0 0 0 0 0 127 0" result="hardAlpha"/>
<feOffset/>
<feGaussianBlur stdDeviation="10"/>
<feComposite in2="hardAlpha" operator="out"/>
<feColorMatrix type="matrix" values="0 0 0 0 0 0 0 0 0 0 0 0 0 0 0 0 0 0 0.25 0"/>
<feBlend mode="normal" in2="BackgroundImageFix" result="effect1_dropShadow_208_313"/>
<feBlend mode="normal" in="SourceGraphic" in2="effect1_dropShadow_208_313" result="shape"/>
</filter>
</defs>
</svg>
